<svg width="1743" height="1594" viewBox="0 0 743 594" fill="none" xmlns="http://www.w3.org/2000/svg">
<g style="mix-blend-mode:overlay">
<path d="M584.366 424.192L549.274 426.24L530.444 365.98L584.366 424.192Z" fill="#6F42C1"/>
<path d="M631.723 327.817L653.843 413.09L714.801 343.582L631.723 327.817Z" stroke="#6F42C1" stroke-miterlimit="10"/>
<path d="M714.801 343.582L673.044 363.87L653.842 413.09L714.801 343.582Z" stroke="#6F42C1" stroke-miterlimit="10"/>
<path d="M673.045 363.87L714.801 343.582L631.723 327.817L673.045 363.87Z" stroke="#6F42C1" stroke-miterlimit="10"/>
<path d="M127.703 123.094L107.368 2L34.8804 33.3597L127.703 123.094Z" stroke="#8815AD" stroke-miterlimit="10"/>
<path d="M34.8804 33.3597L82.5949 29.4805L107.368 2L34.8804 33.3597Z" stroke="#8815AD" stroke-miterlimit="10"/>
<path d="M82.5949 29.4806L34.8804 33.3598L127.703 123.094L82.5949 29.4806Z" stroke="#8815AD" stroke-miterlimit="10"/>
<path d="M196.217 390.668L61.647 529.638L158.185 592L196.217 390.668Z" stroke="#6610F2" stroke-miterlimit="10"/>
<path d="M158.185 592L134.002 520.506L61.647 529.637L158.185 592Z" stroke="#6610F2" stroke-miterlimit="10"/>
<path d="M134.002 520.506L158.186 592L196.218 390.668L134.002 520.506Z" stroke="#6610F2" stroke-miterlimit="10"/>
<path d="M133.974 239.792L25.7156 239.92L38.3056 302.99L133.974 239.792Z" stroke="#6610F2" stroke-miterlimit="10"/>
<path d="M38.3056 302.99L57.587 265.414L25.7156 239.92L38.3056 302.99Z" stroke="#6610F2" stroke-miterlimit="10"/>
<path d="M57.5871 265.414L38.3056 302.99L133.974 239.792L57.5871 265.414Z" stroke="#6610F2" stroke-miterlimit="10"/>
<path d="M590.012 134L590.043 152.969L557 161.271L590.012 134Z" fill="#8815AD"/>
<path d="M528.559 67.3649L550.057 80.9965L530.32 87.7774L528.559 67.3649Z" fill="#4C0C61"/>
<path d="M703.326 442.805L700.075 468.051L685.574 453.038L703.326 442.805Z" fill="#4C0C61"/>
<path d="M722.194 203.751L741.435 235.188L665.216 237.632L722.194 203.751Z" stroke="#8815AD" stroke-miterlimit="10"/>
<path d="M149.612 166.311L78.8227 146.196L99.6396 122.755L149.612 166.311Z" fill="#6F42C1"/>
<path d="M97.9261 378.72L76.9473 354.172L132.094 322.688L97.9261 378.72Z" fill="#6F42C1"/>
</g>
</svg>
