<svg width="597" height="350" viewBox="0 0 597 350" fill="none" xmlns="http://www.w3.org/2000/svg">
<g clip-path="url(#clip0_773_792)">
<path d="M591.137 290.627C578.072 329.559 549.763 347.884 522.571 349.833H127.865C94.1956 349.443 18.0351 334.461 2.84767 261.999C-3.96434 229.36 1.22842 194.494 20.4919 166.868C43.2172 134.341 79.1757 122.589 114.297 108.108C144.783 95.5761 164.661 69.0643 188.28 47.3982C211.396 26.2333 237.862 9.74698 269.074 3.95449C334.682 -8.18746 412.182 6.40516 454.506 61.8794C473.1 86.219 491.581 109.11 514.698 129.384C529.773 142.64 546.022 154.448 559.925 169.04C591.528 202.236 606.046 246.236 591.137 290.627Z" fill="#F4D9FF"/>
<path d="M218.878 149.602C218.766 149.602 218.654 149.491 218.654 149.379C218.654 149.268 218.71 149.101 218.878 149.101C219.045 149.101 235.684 146.427 241.882 130.777C241.938 130.665 242.05 130.609 242.217 130.665C242.329 130.721 242.385 130.832 242.329 130.999C236.019 146.873 219.101 149.602 218.878 149.602C218.933 149.602 218.933 149.602 218.878 149.602Z" fill="#8815AD"/>
<path d="M291.241 65.0542C291.185 65.0542 291.186 65.0542 291.13 64.9985C291.018 64.9428 290.962 64.7757 291.018 64.6643C291.074 64.5529 296.937 54.3603 308.048 45.8944C318.266 38.0968 335.184 30.1321 357.519 36.8715C357.631 36.9272 357.742 37.0386 357.686 37.15C357.63 37.2614 357.519 37.3727 357.407 37.3171C335.24 30.6891 318.489 38.5424 308.383 46.2843C297.383 54.6945 291.521 64.7757 291.465 64.8871C291.409 64.9985 291.353 65.0542 291.241 65.0542Z" fill="#8815AD"/>
<path d="M466.008 172.661C458.582 172.661 452.161 170.321 447.136 165.698C440.603 159.683 438.76 152.108 438.928 151.05C438.928 150.939 439.095 150.827 439.207 150.827C439.319 150.827 439.43 150.939 439.43 151.106C439.319 151.997 441.161 159.46 447.527 165.364C454.115 171.435 462.826 173.496 473.546 171.491C473.658 171.491 473.825 171.547 473.825 171.658C473.825 171.769 473.77 171.937 473.658 171.937C470.978 172.438 468.465 172.661 466.008 172.661Z" fill="#8815AD"/>
<path d="M422.177 219.669C422.066 219.669 421.954 219.613 421.954 219.502C418.66 206.19 425.974 199.284 429.101 196.388C429.771 195.719 430.441 195.162 430.497 194.884C430.497 194.773 430.608 194.661 430.776 194.661C430.888 194.661 430.999 194.828 430.999 194.94C430.944 195.329 430.385 195.886 429.492 196.722C426.421 199.618 419.274 206.302 422.512 219.391C422.568 219.502 422.456 219.669 422.345 219.669C422.233 219.669 422.177 219.669 422.177 219.669Z" fill="#8815AD"/>
<path d="M492.81 290.905C491.749 290.126 491.302 275.477 498.114 266.454C508.444 252.809 518.104 247.462 523.576 246.403C527.875 245.624 529.271 248.019 525.474 249.411C521.733 250.804 519.165 253.421 520.337 257.153C521.51 260.885 518.885 262.945 516.149 262.11C513.413 261.275 508.053 260.773 506.657 267.067C505.261 273.361 508.611 279.209 502.86 282.161C497.109 285.169 497.333 293.635 497.333 293.635L492.81 290.905Z" fill="#276B65"/>
<path d="M498.84 284.946C498.617 284.946 498.449 284.779 498.449 284.556C498.952 258.1 523.966 247.517 524.246 247.462C524.413 247.406 524.636 247.462 524.748 247.685C524.804 247.852 524.748 248.074 524.525 248.186C524.301 248.297 499.678 258.657 499.175 284.667C499.231 284.779 499.063 284.946 498.84 284.946Z" fill="#1A1D30"/>
<path d="M500.013 309.007C501.241 308.227 500.571 292.911 498.952 276.48C497.556 262.834 496.551 259.715 506.434 249.523C516.317 239.386 517.21 232.702 510.733 229.249C505.876 226.631 495.713 232.089 492.252 245.29C488.79 258.49 490.409 263.614 483.429 267.791C474.44 273.138 471.09 278.819 474.272 285.057C478.963 294.303 491.861 303.437 488.901 312.405L500.013 309.007Z" fill="#61A87F"/>
<path d="M496.328 309.285C496.16 309.285 496.048 309.174 495.993 309.007C493.982 302.323 491.135 297.979 487.785 292.966C486.165 290.571 484.546 288.121 482.759 285.113C479.298 279.209 484.881 272.915 486.668 271.133C491.191 266.622 493.201 260.495 495.155 254.591C497.612 247.128 500.18 239.386 507.774 234.986C507.941 234.874 508.165 234.93 508.276 235.097C508.388 235.264 508.332 235.487 508.165 235.598C500.794 239.887 498.393 247.128 495.881 254.814C493.927 260.829 491.861 267.011 487.226 271.634C485.551 273.305 480.247 279.265 483.429 284.723C485.16 287.675 486.835 290.181 488.399 292.576C491.805 297.645 494.708 301.989 496.718 308.784C496.774 308.951 496.663 309.174 496.495 309.23C496.439 309.285 496.383 309.285 496.328 309.285Z" fill="#1A1D30"/>
<path d="M435.355 345.823C436.192 343.985 436.025 341.813 435.131 339.975C432.563 335.018 426.421 326.774 411.401 323.767C395.376 320.536 384.264 323.99 385.772 328.668C387.28 333.347 400.513 327.443 408.051 334.739C412.853 339.362 420.502 350.279 428.263 350C432.507 349.777 434.461 347.772 435.355 345.823Z" fill="#276B65"/>
<path d="M434.182 347.939C434.014 347.939 433.847 347.772 433.791 347.605C433.791 347.549 433.009 339.473 416.537 331.063C399.954 322.597 386.218 327.22 386.107 327.22C385.939 327.276 385.716 327.164 385.66 326.997C385.604 326.83 385.716 326.607 385.883 326.552C386.051 326.496 400.066 321.817 416.928 330.395C433.847 339.028 434.572 347.215 434.572 347.549C434.572 347.772 434.405 347.939 434.182 347.939C434.237 347.939 434.182 347.939 434.182 347.939Z" fill="#1A1D30"/>
<path d="M439.095 332.623C439.486 331.509 441.776 332.233 435.019 321.316C426.7 307.782 415.421 306.556 401.35 304.106C392.249 302.491 395.152 282.885 386.163 284.111C377.173 285.336 373.991 303.27 380.244 308.84C386.498 314.41 392.919 308.784 399.284 314.8C402.355 317.696 398.67 326.217 405.873 329.838C412.462 333.068 419.72 320.926 428.263 337.023L430.776 337.301L439.095 332.623Z" fill="#61A87F"/>
<path d="M435.522 334.906C435.298 334.906 435.131 334.739 435.131 334.516C435.131 334.46 435.243 326.663 423.908 317.751C416.928 312.293 408.776 310.511 400.847 308.84C397.497 308.116 394.315 307.447 391.244 306.501C381.863 303.604 383.762 290.404 383.762 290.293C383.817 290.07 383.985 289.958 384.152 289.958C384.376 290.014 384.487 290.181 384.487 290.348C384.487 290.46 382.701 303.047 391.467 305.776C394.482 306.723 397.665 307.392 401.015 308.116C409 309.842 417.263 311.569 424.354 317.194C436.024 326.384 435.857 334.238 435.857 334.572C435.913 334.739 435.745 334.906 435.522 334.906Z" fill="#1A1D30"/>
<path d="M521.565 350H427.091C425.248 350 423.684 348.663 423.405 346.881L412.685 282.718L411.177 273.584C410.842 271.634 412.071 269.796 413.857 269.239C414.192 269.128 414.583 269.072 414.974 269.072H509.225C511.124 269.072 512.743 270.409 513.022 272.303L515.702 288.399L525.25 345.6C525.641 347.939 523.855 350 521.565 350Z" fill="#1A0933"/>
<path d="M524.413 348.663C524.581 348.441 528.824 343.149 528.824 343.149L516.819 339.585L520.114 344.82L524.413 348.663Z" fill="#1A1D30"/>
<path d="M515.702 288.455L509.672 294.581L454.004 295.138L418.492 277.761L415.197 280.601C414.137 281.548 412.461 280.936 412.182 279.543L411.177 273.639C410.842 271.69 412.071 269.852 413.857 269.295C414.192 269.184 414.583 269.128 414.974 269.128H509.225C511.124 269.128 512.743 270.465 513.022 272.358L515.702 288.455Z" fill="#402172"/>
<path d="M512.297 311.959L444.344 333.959C440.491 335.185 436.304 333.124 435.075 329.225L422.735 291.24C421.507 287.397 423.573 283.219 427.481 281.994L495.434 259.994C499.287 258.768 503.475 260.829 504.703 264.728L517.043 302.713C518.327 306.556 516.205 310.734 512.297 311.959Z" fill="#E0CCFF"/>
<path d="M525.642 344.876H431.39C429.492 344.876 427.873 343.484 427.593 341.646L417.655 280.824C417.264 278.485 419.106 276.369 421.451 276.369H515.703C517.601 276.369 519.221 277.761 519.5 279.599L529.439 340.42C529.829 342.759 528.043 344.876 525.642 344.876Z" fill="#5B17AA"/>
<path d="M525.53 316.582C525.418 315.746 524.692 315.134 523.854 315.134H523.24L526.088 313.24L527.205 314.465L525.53 316.582Z" fill="#1A1D30"/>
<path d="M525.753 315.134H498.952C498.003 315.134 497.221 314.465 497.053 313.574L494.987 302.658C494.764 301.488 495.657 300.374 496.886 300.374H523.687C524.636 300.374 525.418 301.042 525.586 301.934L527.652 312.85C527.875 314.076 526.982 315.134 525.753 315.134Z" fill="#402172"/>
<path d="M512.297 310.511C510.957 312.85 507.662 313.518 505.038 312.015C502.414 310.511 501.353 307.336 502.693 304.997C504.033 302.657 507.327 301.989 509.952 303.493C512.632 305.052 513.693 308.171 512.297 310.511Z" fill="white"/>
<path d="M133.113 319.812C133.839 318.086 133.113 295.25 123.174 276.926C110.89 254.313 92.7994 251.305 70.1858 246.069C55.5567 242.672 62.0337 211.147 47.4047 212.373C32.7756 213.598 25.9636 242.282 35.6232 251.806C45.2829 261.33 56.1151 252.809 65.9423 263.168C70.6325 268.125 63.8763 281.604 75.2669 288.065C85.6524 293.913 98.4389 274.865 110.835 301.655C119.601 320.592 119.266 326.552 119.266 326.552L133.113 319.812Z" fill="#427D5A"/>
<path d="M127.195 322.987C127.027 322.987 126.86 322.82 126.804 322.653C126.748 322.263 123.342 285.614 105.642 270.019C94.8097 260.495 81.744 256.93 69.0692 253.477C63.709 252.029 58.6279 250.636 53.7701 248.854C39.0852 243.396 43.2729 222.398 43.3288 222.175C43.3846 221.952 43.5521 221.841 43.7755 221.897C43.9988 221.952 44.1105 222.12 44.0546 222.342C43.9988 222.565 39.9786 242.895 54.1052 248.13C58.9071 249.912 63.9881 251.305 69.3484 252.753C82.0791 256.206 95.3122 259.826 106.256 269.462C124.18 285.224 127.586 322.207 127.641 322.597C127.586 322.82 127.418 322.987 127.195 322.987Z" fill="#1A1D30"/>
<path d="M149.138 269.685C149.752 267.29 127.585 265.229 106.759 246.961C94.9213 236.545 92.1853 214.489 86.8809 190.985C81.6323 167.815 80.013 158.235 68.1758 161.633C59.242 164.195 53.4909 182.631 64.8814 202.459C76.272 222.287 84.2566 226.575 80.7389 239.776C76.272 256.652 78.8963 267.401 90.0635 271.189C106.535 276.814 132.778 272.637 139.702 286.84L149.138 269.685Z" fill="#61A87F"/>
<path d="M144.672 274.252C144.616 274.252 144.56 274.252 144.504 274.196C134.23 268.515 125.687 266.677 115.748 264.616C111.002 263.614 106.145 262.611 100.505 261.052C89.6171 258.044 88.947 244.176 89.0029 239.998C89.1145 229.249 84.3685 219.558 79.7341 210.145C73.9271 198.337 67.8968 186.195 71.8053 172.104C71.8612 171.881 72.0845 171.77 72.252 171.825C72.4754 171.881 72.587 172.104 72.5312 172.271C68.7343 186.084 74.3738 197.613 80.4041 209.811C85.0943 219.279 89.8962 229.082 89.7846 239.998C89.7287 244.064 90.3429 257.487 100.728 260.328C106.312 261.832 111.17 262.89 115.916 263.892C125.911 266.009 134.509 267.791 144.895 273.584C145.062 273.695 145.118 273.918 145.062 274.085C144.895 274.196 144.783 274.252 144.672 274.252Z" fill="#1A1D30"/>
<path d="M190.68 338.359C188.279 336.688 185.767 304.106 200.117 283.275C221.837 251.862 242.831 238.94 254.948 236.099C264.44 233.872 267.79 239.107 259.526 242.56C251.318 246.014 245.902 252.085 248.862 260.328C251.821 268.571 246.181 273.416 239.984 271.746C233.786 270.075 221.837 269.573 219.324 283.776C216.812 297.979 224.796 310.622 212.345 317.807C199.837 324.992 201.066 343.873 201.066 343.873L190.68 338.359Z" fill="#61A87F"/>
<path d="M203.522 324.045C203.299 324.045 203.132 323.878 203.132 323.711C202.35 293.022 216.979 271.578 229.43 258.991C242.887 245.345 256.678 238.94 256.79 238.829C256.958 238.717 257.181 238.829 257.293 238.996C257.404 239.163 257.293 239.386 257.125 239.497C257.013 239.553 243.278 245.958 229.933 259.492C217.649 271.968 203.132 293.244 203.913 323.655C203.913 323.878 203.746 324.045 203.522 324.045Z" fill="#1A1D30"/>
<path d="M193.975 329.503C192.244 327.498 191.629 324.769 192.132 322.151C193.528 315.022 198.162 302.49 215.751 293.245C234.567 283.331 249.699 283.609 249.532 289.959C249.364 296.308 230.715 293.802 224.014 305.665C219.771 313.184 214.187 329.615 204.416 332.065C198.944 333.402 195.761 331.62 193.975 329.503Z" fill="#276B65"/>
<path d="M196.041 331.676C195.873 331.676 195.706 331.564 195.706 331.397C195.594 330.952 193.528 320.536 211.396 303.604C229.207 286.728 248.415 287.452 248.582 287.452C248.806 287.452 248.917 287.619 248.917 287.842C248.917 288.065 248.75 288.176 248.527 288.176C248.359 288.176 229.431 287.508 211.842 304.106C194.31 320.703 196.376 331.063 196.376 331.174C196.431 331.397 196.32 331.564 196.096 331.62C196.096 331.676 196.096 331.676 196.041 331.676Z" fill="#1A1D30"/>
<path d="M146.57 338.471C148.357 335.24 148.468 331.341 147.072 327.944C143.22 318.587 133.504 302.769 106.926 294.86C78.5056 286.394 57.9579 290.85 59.9122 299.538C61.8665 308.227 86.6577 299.65 99.0533 314.075C106.926 323.21 118.987 344.152 133.058 344.82C140.819 345.21 144.671 341.868 146.57 338.471Z" fill="#276B65"/>
<path d="M144.169 341.868C143.946 341.868 143.778 341.701 143.778 341.478C143.778 341.311 143.778 326.496 115.246 308.561C86.6018 290.571 60.973 296.642 60.6938 296.698C60.4705 296.754 60.303 296.642 60.2471 296.419C60.1913 296.197 60.303 296.03 60.5263 295.974C60.8055 295.918 86.7135 289.792 115.637 307.949C144.56 326.162 144.56 340.866 144.56 341.478C144.504 341.701 144.392 341.868 144.169 341.868Z" fill="#1A1D30"/>
<path d="M217.37 342.147L212.568 347.605L207.878 347.159L213.35 341.646L217.37 342.147Z" fill="#1A1D30"/>
<path d="M92.1299 169.04L96.9318 163.638L94.5308 171.992L92.1299 169.04Z" fill="#1A1D30"/>
<path d="M128.423 349.833H207.599C212.233 349.833 215.36 346.101 214.634 341.423L186.995 174.554C186.214 169.931 181.858 166.144 177.224 166.144H97.9925C93.3581 166.144 90.2313 169.876 90.9572 174.554L118.596 341.423C119.378 346.101 123.789 349.833 128.423 349.833Z" fill="#270733"/>
<path d="M213.127 347.382C213.182 347.327 216.477 343.539 216.477 343.539L211.842 342.481L212.289 344.375L213.127 347.382Z" fill="#1A1D30"/>
<path d="M132.276 345.489H211.451C216.086 345.489 219.213 341.757 218.487 337.078L190.848 170.21C190.066 165.587 185.711 161.8 181.077 161.8H101.845C97.2106 161.8 94.0838 165.532 94.8097 170.21L122.449 337.078C123.23 341.701 127.641 345.489 132.276 345.489Z" fill="#E292FF"/>
<path d="M135.738 339.64H206.036C210.279 339.64 213.127 336.187 212.457 331.954L186.493 175.334C185.767 171.101 181.803 167.648 177.559 167.648H107.261C103.018 167.648 100.17 171.101 100.84 175.334L126.804 331.954C127.474 336.243 131.494 339.64 135.738 339.64Z" fill="white"/>
<path d="M127.586 342.258H214.802L185.879 167.648H98.6626L127.586 342.258Z" fill="#8815AD"/>
<path d="M100.338 219.001C100.952 219.001 101.399 218.499 101.287 217.887L99.221 205.411C99.1093 204.798 98.551 204.297 97.8809 204.297C97.2667 204.297 96.82 204.798 96.9317 205.411L98.9977 217.887C99.1093 218.499 99.7235 219.001 100.338 219.001Z" fill="#E292FF"/>
<path d="M102.962 234.707C103.576 234.707 104.023 234.206 103.911 233.593L101.845 221.117C101.733 220.504 101.175 220.003 100.505 220.003C99.8908 220.003 99.4441 220.504 99.5557 221.117L101.622 233.593C101.733 234.206 102.292 234.707 102.962 234.707Z" fill="#E292FF"/>
<path d="M196.767 206.079C197.381 206.079 197.828 205.578 197.716 204.965L195.873 193.714C195.762 193.102 195.203 192.6 194.533 192.6C193.919 192.6 193.472 193.102 193.584 193.714L195.427 204.965C195.538 205.578 196.097 206.079 196.767 206.079Z" fill="#E292FF"/>
<path d="M150.479 165.699H156.174C156.733 165.699 157.123 165.253 157.012 164.641C156.9 164.084 156.398 163.582 155.783 163.582H150.088C149.53 163.582 149.139 164.028 149.251 164.641C149.418 165.253 149.921 165.699 150.479 165.699Z" fill="#571270"/>
<path d="M144.113 164.641C144.225 165.197 144.727 165.699 145.342 165.699C145.956 165.699 146.291 165.253 146.179 164.641C146.067 164.084 145.565 163.582 144.951 163.582C144.448 163.638 144.057 164.084 144.113 164.641Z" fill="#571270"/>
<path d="M133.002 164.641C133.114 165.197 133.616 165.699 134.23 165.699C134.789 165.699 135.18 165.253 135.068 164.641C134.956 164.084 134.454 163.582 133.84 163.582C133.281 163.638 132.89 164.084 133.002 164.641Z" fill="#571270"/>
<path d="M137.637 164.64C137.804 165.587 138.697 166.367 139.647 166.367C140.596 166.367 141.266 165.587 141.098 164.64C140.931 163.694 140.038 162.914 139.088 162.914C138.139 162.97 137.469 163.694 137.637 164.64Z" fill="#571270"/>
<path d="M127.083 187.755C127.823 187.755 128.423 187.156 128.423 186.418C128.423 185.68 127.823 185.081 127.083 185.081C126.343 185.081 125.743 185.68 125.743 186.418C125.743 187.156 126.343 187.755 127.083 187.755Z" fill="white"/>
<path d="M165.108 190.428C165.108 191.152 164.494 191.765 163.768 191.765C163.042 191.765 162.428 191.152 162.428 190.428C162.428 189.704 163.042 189.091 163.768 189.091C164.55 189.036 165.108 189.648 165.108 190.428Z" fill="white"/>
<path d="M135.235 182.074C135.235 182.575 134.789 183.02 134.286 183.02C133.784 183.02 133.337 182.575 133.337 182.074C133.337 181.572 133.784 181.127 134.286 181.127C134.789 181.071 135.235 181.517 135.235 182.074Z" fill="white"/>
<path d="M145.174 177.005C145.174 177.506 144.728 177.952 144.225 177.952C143.723 177.952 143.276 177.506 143.276 177.005C143.276 176.504 143.723 176.058 144.225 176.058C144.783 176.058 145.174 176.504 145.174 177.005Z" fill="white"/>
<path d="M156.565 179.233C156.565 179.734 156.118 180.18 155.616 180.18C155.113 180.18 154.667 179.734 154.667 179.233C154.667 178.732 155.113 178.286 155.616 178.286C156.118 178.231 156.565 178.676 156.565 179.233Z" fill="white"/>
<path d="M168.123 183.299C168.123 183.689 167.844 183.967 167.453 183.967C167.062 183.967 166.783 183.689 166.783 183.299C166.783 182.909 167.062 182.631 167.453 182.631C167.844 182.631 168.123 182.965 168.123 183.299Z" fill="white"/>
<path d="M153.215 186.195C153.215 186.585 152.935 186.864 152.545 186.864C152.154 186.864 151.875 186.585 151.875 186.195C151.875 185.805 152.154 185.527 152.545 185.527C152.88 185.527 153.215 185.861 153.215 186.195Z" fill="white"/>
<path d="M135.235 194.494C135.235 194.884 134.956 195.162 134.565 195.162C134.174 195.162 133.895 194.884 133.895 194.494C133.895 194.104 134.174 193.826 134.565 193.826C134.9 193.826 135.235 194.104 135.235 194.494Z" fill="white"/>
<path d="M145.788 197.502C145.677 197.502 145.621 197.446 145.565 197.335C144.337 194.048 139.311 191.988 139.256 191.988C139.144 191.932 139.088 191.821 139.144 191.654C139.2 191.542 139.311 191.486 139.479 191.542C139.702 191.654 144.783 193.659 146.068 197.168C146.123 197.279 146.068 197.446 145.9 197.502C145.844 197.502 145.844 197.502 145.788 197.502Z" fill="white"/>
<path d="M153.159 198.393C153.047 198.393 152.935 198.281 152.935 198.17C152.433 192.6 158.128 186.752 158.407 186.474C158.519 186.362 158.686 186.362 158.742 186.474C158.854 186.585 158.854 186.696 158.742 186.808C158.686 186.864 152.935 192.767 153.438 198.114C153.438 198.281 153.326 198.393 153.159 198.393Z" fill="white"/>
<path d="M149.473 198.393C149.362 198.393 149.25 198.281 149.25 198.17C149.306 189.871 145.062 185.304 145.007 185.304C144.895 185.193 144.895 185.025 145.007 184.97C145.118 184.858 145.286 184.858 145.342 184.97C145.397 185.025 149.753 189.704 149.697 198.226C149.697 198.281 149.585 198.393 149.473 198.393Z" fill="white"/>
<path d="M155.037 311.353C160.364 307.313 160.914 299.095 156.267 292.998C151.619 286.901 143.533 285.234 138.206 289.275C132.88 293.315 132.329 301.533 136.977 307.63C141.625 313.727 149.711 315.394 155.037 311.353Z" fill="#571270"/>
<path d="M152.768 301.042L148.915 296.03L145.062 291.017L142.773 296.03L140.484 301.042H144.895L146.179 309.174H149.585L148.301 301.042H152.768Z" fill="#C73031"/>
<path d="M192.691 292.855C197.325 298.926 196.767 307.169 191.462 311.179C186.158 315.245 178.062 313.574 173.427 307.448C168.793 301.377 169.351 293.133 174.656 289.123C179.96 285.113 188.056 286.784 192.691 292.855Z" fill="#571270"/>
<path d="M189.229 298.926L186.94 303.939L184.65 309.007L180.798 303.939L176.889 298.926H181.356L180.072 290.85H183.478L184.762 298.926H189.229Z" fill="#48A871"/>
<path d="M193.751 267.568H126.246C125.464 267.568 124.905 268.237 125.017 269.016L125.911 274.642C126.022 275.255 126.525 275.7 126.581 275.143H194.086C195.427 275.7 195.985 275.032 195.873 274.252L194.98 268.627C194.868 268.014 194.366 267.568 193.751 267.568Z" fill="#571270"/>
<path d="M190.959 253.31H123.454C122.672 253.31 122.113 253.978 122.225 254.758L123.119 260.384C123.23 260.996 123.733 261.442 124.347 261.442H191.853C192.635 261.442 193.193 260.773 193.081 259.994L192.188 254.368C192.076 253.756 191.574 253.31 190.959 253.31Z" fill="#571270"/>
<path d="M181.132 330.952H155.113C154.498 330.952 153.996 330.506 153.884 329.949C153.717 329.169 154.331 328.445 155.113 328.445H181.132C181.746 328.445 182.249 328.891 182.361 329.448C182.472 330.283 181.914 330.952 181.132 330.952Z" fill="#571270"/>
<path d="M324.408 83.2112C325.078 83.8238 325.859 84.3251 326.641 84.8264L326.53 86.1074L331.89 87.8897C338.143 89.7277 344.955 87.3884 349.981 82.2643C352.661 79.5352 354.894 76.0263 356.234 71.9604C358.021 66.6692 358.077 61.3223 356.737 56.6994C355.118 51.0183 351.377 46.4511 346.184 44.5574C346.072 44.5018 340.879 42.7751 340.879 42.7751L339.483 44.3904C335.798 44.1676 332.504 45.1144 329.712 47.0638C325.859 49.6816 322.844 54.193 320.834 60.1526C317.707 69.7325 318.657 78.3098 324.408 83.2112Z" fill="#FACA32"/>
<path opacity="0.5" d="M326.697 84.8265L326.585 86.1076L331.946 87.8899C338.199 89.7279 345.011 87.3886 350.037 82.2645L336.077 75.9707L324.408 83.2113C325.134 83.824 325.859 84.3253 326.697 84.8265Z" fill="#8B5703"/>
<path opacity="0.5" d="M329.768 47.0638C334.793 48.8461 348.529 53.7475 356.849 56.6994C355.229 51.0183 351.488 46.4511 346.296 44.5574C346.184 44.5018 340.991 42.7751 340.991 42.7751L339.595 44.3904C335.854 44.1676 332.616 45.1144 329.768 47.0638Z" fill="white"/>
<path d="M350.737 70.087C354.742 58.1246 350.07 45.7887 340.301 42.5339C330.531 39.2791 319.365 46.3379 315.359 58.3002C311.354 70.2626 316.026 82.5985 325.796 85.8533C335.565 89.1081 346.732 82.0493 350.737 70.087Z" fill="#FAE278"/>
<path d="M330.773 84.3808C329.377 84.3808 327.926 84.158 326.53 83.7124C317.931 80.8719 313.855 69.7882 317.484 59.0386C319.215 53.8588 322.454 49.5145 326.641 46.7853C330.829 44.0562 335.408 43.3321 339.595 44.7245C343.783 46.1169 347.022 49.4588 348.697 54.1373C350.372 58.8159 350.372 64.2185 348.641 69.3983C345.626 78.4212 338.144 84.3808 330.773 84.3808ZM317.708 59.0943L317.931 59.15C314.413 69.6211 318.322 80.4263 326.697 83.2111C335.017 85.996 344.676 79.7022 348.194 69.2312C349.925 64.1628 349.925 58.8159 348.25 54.3044C346.575 49.7929 343.448 46.5625 339.428 45.2258C335.408 43.8891 330.941 44.6131 326.921 47.2309C322.845 49.8486 319.662 54.1373 317.987 59.2057L317.708 59.0943Z" fill="#A37010"/>
<path d="M350.651 191.208C350.595 191.096 350.484 190.874 350.428 190.651C350.484 190.818 350.539 190.985 350.651 191.208Z" fill="#1A1D30"/>
<path d="M445.293 315.691V324.714C445.293 325.493 444.623 326.162 443.842 326.162H409.111C409 326.162 408.888 326.162 408.776 326.106C408.162 325.939 407.66 325.382 407.66 324.714V315.635C407.66 314.855 408.33 314.187 409.111 314.187H443.842C444.344 314.187 444.735 314.41 445.014 314.799C445.182 315.078 445.293 315.356 445.293 315.691Z" fill="#FACA32"/>
<path d="M441.496 326.162H441.05V314.242H441.552L441.496 326.162Z" fill="#A37010"/>
<path d="M434.07 326.162H433.568V314.242H434.07V326.162Z" fill="#A37010"/>
<path d="M426.644 326.162H426.142V314.242H426.644V326.162Z" fill="#A37010"/>
<path d="M419.162 326.162H418.66L418.716 314.242H419.162V326.162Z" fill="#A37010"/>
<path d="M411.736 326.162H411.233V314.242H411.736V326.162Z" fill="#A37010"/>
<path d="M455.009 327.61V336.633C455.009 337.412 454.395 338.081 453.557 338.081H418.827C418.38 338.081 417.934 337.858 417.71 337.524C417.543 337.301 417.431 336.967 417.431 336.688V327.665C417.431 326.886 418.101 326.217 418.883 326.217H453.613C454.339 326.162 455.009 326.774 455.009 327.61Z" fill="#FACA32"/>
<path d="M451.547 338.081H451.044V326.162H451.547V338.081Z" fill="#A37010"/>
<path d="M444.065 338.081H443.562L443.618 326.162H444.065V338.081Z" fill="#A37010"/>
<path d="M436.639 338.081H436.136V326.162H436.639V338.081Z" fill="#A37010"/>
<path d="M429.157 338.081H428.654L428.71 326.162H429.157V338.081Z" fill="#A37010"/>
<path d="M421.731 338.081H421.228V326.162H421.731V338.081Z" fill="#A37010"/>
<path d="M437.365 326.162C433.624 326.774 429.883 327.721 427.37 329.169C421.619 332.455 418.604 336.131 417.71 337.524C417.543 337.301 417.431 336.967 417.431 336.688V327.665C417.431 326.886 418.101 326.217 418.883 326.217H437.365V326.162Z" fill="#1A1D30"/>
<path d="M450.542 339.529V348.552C450.542 349.332 449.872 350 449.09 350H414.36C413.578 350 412.908 349.332 412.908 348.552V339.529C412.908 338.749 413.578 338.081 414.36 338.081H449.09C449.928 338.081 450.542 338.693 450.542 339.529Z" fill="#FACA32"/>
<path d="M446.912 350H446.41V338.081H446.912V350Z" fill="#A37010"/>
<path d="M439.43 350H438.928L438.984 338.081H439.43V350Z" fill="#A37010"/>
<path d="M432.004 350H431.501V338.081H432.004V350Z" fill="#A37010"/>
<path d="M424.522 350H424.02L424.075 338.081H424.578L424.522 350Z" fill="#A37010"/>
<path d="M417.096 350H416.593V338.081H417.096V350Z" fill="#A37010"/>
<path d="M450.542 339.529V344.43C448.811 343.539 446.689 342.648 444.288 341.813C434.293 338.471 423.405 338.081 423.405 338.081H449.09C449.927 338.081 450.542 338.693 450.542 339.529Z" fill="#1A1D30"/>
<path opacity="0.5" d="M438.705 314.242H430.72V326.162H438.705V314.242Z" fill="white"/>
<path opacity="0.5" d="M453.278 326.162H445.572V338.081H453.278V326.162Z" fill="white"/>
<path opacity="0.5" d="M423.461 338.081H415.756V350H423.461V338.081Z" fill="white"/>
<path d="M238.644 127.379L232.39 133.283C228.481 136.959 222.451 137.46 216.421 135.177C212.568 133.784 208.715 131.222 205.421 127.713C200.061 122.088 197.381 115.181 197.66 109.333C197.827 105.824 199.056 102.705 201.457 100.477L207.71 94.5735L210.223 97.1912L211.451 98.4723L232.725 120.974L236.243 124.706L238.644 127.379Z" fill="#FACA32"/>
<path opacity="0.5" d="M238.644 127.379L232.39 133.283C228.482 136.959 222.451 137.46 216.421 135.177L232.669 121.03L236.187 124.761L238.644 127.379Z" fill="#8B5703"/>
<path opacity="0.5" d="M211.396 98.5279C209.218 100.366 202.239 105.769 197.66 109.389C197.828 105.88 199.056 102.761 201.457 100.533L207.711 94.6292L210.223 97.2469L211.396 98.5279Z" fill="white"/>
<path d="M238.581 127.342C244.954 121.35 243.193 109.162 234.648 100.118C226.103 91.0751 214.009 88.6016 207.636 94.5936C201.263 100.586 203.024 112.774 211.569 121.818C220.114 130.861 232.208 133.334 238.581 127.342Z" fill="#FAE278"/>
<path d="M229.431 127.769C224.406 127.769 218.375 124.984 213.629 119.916C210.056 116.128 207.655 111.672 206.929 107.328C206.203 102.928 207.152 99.1963 209.721 96.8013C212.289 94.4064 216.086 93.6266 220.441 94.6291C224.741 95.6317 229.096 98.2494 232.669 102.037C240.04 109.89 241.826 120.25 236.578 125.207C234.679 126.933 232.223 127.769 229.431 127.769ZM216.868 94.6848C214.132 94.6848 211.787 95.5203 210.112 97.1355C207.655 99.4191 206.761 102.984 207.431 107.217C208.157 111.45 210.502 115.85 214.02 119.581C221.223 127.212 231.218 129.551 236.243 124.817C241.268 120.083 239.537 110.002 232.334 102.371C228.817 98.6393 224.573 96.0773 220.33 95.1304C219.101 94.7962 217.984 94.6848 216.868 94.6848Z" fill="#A37010"/>
<path d="M168.402 232.034C168.011 232.702 167.508 233.37 167.006 233.983L167.453 235.041L163.544 237.993C158.854 241.224 152.6 241.224 147.017 238.439C144.001 236.935 141.21 234.651 138.92 231.699C135.961 227.801 134.398 223.401 134.174 219.223C133.895 214.099 135.682 209.254 139.479 206.246C139.59 206.135 143.387 203.294 143.387 203.294L145.007 204.241C147.966 203.016 150.981 202.904 153.829 203.684C157.737 204.798 161.478 207.638 164.828 212.038C170.133 219.001 171.752 226.297 168.402 232.034Z" fill="#FACA32"/>
<path opacity="0.5" d="M166.95 233.983L167.397 235.041L163.488 237.993C158.798 241.224 152.545 241.224 146.961 238.439L156.676 229.36L168.346 232.09C167.955 232.702 167.509 233.315 166.95 233.983Z" fill="#8B5703"/>
<path opacity="0.5" d="M153.773 203.628C150.088 206.525 140.149 214.378 134.119 219.168C133.839 214.044 135.626 209.198 139.423 206.19C139.535 206.079 143.332 203.238 143.332 203.238L144.951 204.185C147.91 202.96 150.925 202.793 153.773 203.628Z" fill="white"/>
<path d="M167.959 234.549C175.126 229.112 175.535 217.619 168.871 208.877C162.207 200.136 150.995 197.457 143.827 202.894C136.66 208.331 136.251 219.825 142.915 228.566C149.579 237.307 160.791 239.986 167.959 234.549Z" fill="#FAE278"/>
<path d="M159.301 235.431C154.108 235.431 148.413 232.591 144.448 227.411C141.545 223.624 139.981 219.112 140.093 214.823C140.205 210.479 141.936 206.803 145.007 204.464C148.078 202.125 152.098 201.456 156.285 202.514C160.473 203.573 164.382 206.246 167.285 210.089C173.316 217.943 173.036 228.246 166.727 233.036C164.605 234.652 162.037 235.431 159.301 235.431ZM152.489 202.514C149.808 202.514 147.352 203.294 145.286 204.854C142.326 207.082 140.651 210.646 140.596 214.823C140.484 219.056 141.991 223.401 144.839 227.132C150.702 234.819 160.362 237.269 166.448 232.647C172.534 228.024 172.757 218.054 166.894 210.368C164.047 206.636 160.25 204.018 156.118 203.016C154.945 202.682 153.717 202.514 152.489 202.514Z" fill="#A37010"/>
<path d="M449.872 154.058L458.471 160.853C460.704 162.635 465.171 161.076 470.141 157.233C473.044 155.005 476.059 151.941 478.963 148.377C482.871 143.475 485.663 138.463 487.059 134.341C488.399 130.331 488.343 127.156 486.612 125.708L477.678 118.635L473.267 124.26L456.182 146.093L449.872 154.058Z" fill="#FACA32"/>
<path opacity="0.5" d="M449.872 154.058L458.471 160.853C460.704 162.635 465.171 161.076 470.141 157.233C466.009 154.002 460.593 149.658 456.126 146.093L449.872 154.058Z" fill="#8B5703"/>
<path opacity="0.5" d="M473.211 124.316C476.506 126.711 482.648 131.222 487.003 134.397C488.343 130.387 488.287 127.212 486.556 125.764L477.622 118.69L473.211 124.316Z" fill="white"/>
<path d="M470.379 141.616C478.128 131.924 481.536 121.782 477.992 118.963C474.448 116.143 465.294 121.715 457.545 131.406C449.797 141.098 446.388 151.24 449.932 154.059C453.476 156.879 462.63 151.307 470.379 141.616Z" fill="#FAE278"/>
<path d="M453.222 152.61C452.496 152.61 451.938 152.443 451.435 152.053C450.039 150.939 450.039 148.265 451.435 144.478C452.831 140.802 455.399 136.513 458.75 132.392C462.044 128.27 465.673 124.761 468.968 122.589C472.318 120.361 474.942 119.748 476.338 120.862C477.734 121.976 477.734 124.65 476.338 128.437C474.942 132.113 472.374 136.402 469.023 140.523C465.729 144.645 462.1 148.154 458.805 150.326C456.628 151.886 454.674 152.61 453.222 152.61ZM459.14 132.726C455.846 136.792 453.278 141.08 451.938 144.701C450.598 148.21 450.542 150.772 451.77 151.719C452.999 152.665 455.455 152.053 458.582 149.992C461.821 147.82 465.394 144.422 468.688 140.301C471.983 136.235 474.551 131.946 475.891 128.326C477.231 124.817 477.287 122.255 476.059 121.308C474.83 120.361 472.374 120.974 469.247 123.035C466.008 125.151 462.435 128.604 459.14 132.726Z" fill="#A37010"/>
<path d="M435.801 211.537L428.989 217.72C428.989 217.72 428.822 217.831 428.766 217.887C427.928 218.667 428.598 220.894 430.329 223.958C432.172 227.077 435.131 231.031 438.816 235.097C441.497 238.049 444.177 240.556 446.578 242.561C450.374 245.68 453.446 247.351 454.73 246.849C454.841 246.794 454.953 246.738 455.065 246.682L455.232 246.515L455.288 246.459L462.323 240.054L462.491 239.943L439.989 215.937L435.801 211.537Z" fill="#FACA32"/>
<path opacity="0.5" d="M456.517 233.593C453.39 236.434 449.76 239.776 446.689 242.56C450.486 245.68 453.557 247.35 454.842 246.849C455.009 246.738 455.177 246.626 455.344 246.515L455.4 246.459L462.379 240.11L456.517 233.593Z" fill="#8B5703"/>
<path opacity="0.5" d="M435.801 211.537L428.989 217.72C428.989 217.72 428.822 217.831 428.766 217.887C427.928 218.667 428.598 220.894 430.329 223.958C433.568 221.229 437.532 217.943 439.933 215.937L435.801 211.537Z" fill="white"/>
<path d="M452.217 222.899C459.476 230.864 463.998 238.55 462.323 240.11C460.592 241.669 453.334 236.49 446.075 228.525C438.816 220.56 434.294 212.874 435.969 211.314C437.7 209.755 444.958 214.935 452.217 222.899Z" fill="#FAE278"/>
<path d="M460.481 238.996C459.532 238.996 457.968 238.161 455.791 236.434C453.111 234.373 449.928 231.31 446.745 227.857C443.563 224.403 440.827 220.95 438.984 218.11C437.03 215.102 436.416 213.208 437.142 212.596C437.867 211.927 439.654 212.707 442.502 214.935C445.182 216.996 448.365 220.059 451.547 223.512C454.73 226.965 457.466 230.419 459.308 233.259C461.263 236.267 461.877 238.161 461.151 238.773C460.984 238.94 460.76 238.996 460.481 238.996ZM437.812 212.874C437.644 212.874 437.532 212.93 437.477 212.985C437.142 213.32 437.421 214.768 439.431 217.887C441.218 220.672 443.954 224.125 447.136 227.578C450.263 231.031 453.502 234.039 456.126 236.1C459.029 238.383 460.481 238.773 460.816 238.439C461.151 238.105 460.872 236.657 458.862 233.538C457.075 230.753 454.339 227.3 451.156 223.846C448.03 220.393 444.791 217.386 442.167 215.325C439.822 213.542 438.426 212.874 437.812 212.874Z" fill="#A37010"/>
<path opacity="0.8" d="M160.752 215.492L161.925 215.269C162.706 215.102 163.265 214.378 163.153 213.654L162.539 210.145L158.686 210.869C157.849 211.036 157.29 211.76 157.458 212.484L157.625 213.598C157.849 214.935 156.844 216.271 155.336 216.606C153.828 216.884 152.433 216.049 152.153 214.656L151.93 213.487C151.818 212.763 151.037 212.317 150.255 212.428L146.123 213.208L148.747 228.191L152.823 227.299C153.661 227.132 154.219 226.353 154.108 225.629L153.94 224.515C153.717 223.178 154.722 221.785 156.229 221.451C157.737 221.117 159.133 221.953 159.356 223.345L159.524 224.459C159.635 225.183 160.417 225.629 161.199 225.461L165.051 224.626L164.437 221.117C164.326 220.393 163.6 219.947 162.762 220.115L161.534 220.393C160.082 220.727 158.686 219.836 158.463 218.499C158.295 217.163 159.3 215.826 160.752 215.492Z" fill="#FFA519"/>
<path opacity="0.8" d="M227.197 106.715L228.258 106.214C228.984 105.88 229.319 105.156 228.984 104.655L227.421 102.093L223.903 103.708C223.177 104.042 222.842 104.766 223.121 105.323L223.624 106.103C224.238 107.105 223.624 108.386 222.228 109.055C220.832 109.723 219.269 109.445 218.655 108.442L218.152 107.607C217.817 107.105 216.979 106.938 216.198 107.272L212.401 108.999L219.101 119.86L222.786 118.022C223.512 117.632 223.847 116.908 223.512 116.407L223.01 115.571C222.396 114.569 223.01 113.232 224.406 112.619C225.746 111.951 227.309 112.229 227.923 113.176L228.426 113.956C228.761 114.513 229.598 114.624 230.324 114.29L233.73 112.564L232.223 110.057C231.888 109.556 231.05 109.389 230.38 109.723L229.319 110.224C227.979 110.837 226.416 110.614 225.857 109.612C225.299 108.665 225.857 107.384 227.197 106.715Z" fill="#FFA519"/>
<path opacity="0.8" d="M449.593 223.679L449.76 223.345C449.872 223.122 449.76 222.732 449.481 222.398L448.253 220.95L447.694 221.952C447.583 222.175 447.694 222.565 447.973 222.899L448.364 223.345C448.867 223.902 449.034 224.682 448.867 225.072C448.644 225.461 448.085 225.35 447.583 224.793L447.192 224.347C446.913 224.069 446.633 224.013 446.522 224.18L445.963 225.239L451.212 231.254L451.77 230.196C451.882 229.973 451.77 229.583 451.491 229.249L451.1 228.803C450.598 228.246 450.374 227.467 450.598 227.077C450.821 226.687 451.379 226.798 451.826 227.355L452.217 227.801C452.496 228.079 452.775 228.191 452.887 227.968L453.445 226.91L452.217 225.461C451.938 225.183 451.659 225.072 451.547 225.294L451.379 225.628C451.156 226.018 450.598 225.907 450.151 225.35C449.593 224.849 449.369 224.069 449.593 223.679Z" fill="#FFA519"/>
<path opacity="0.8" d="M338.367 60.654L339.763 60.2641C340.712 59.9856 341.382 59.0945 341.215 58.2033L340.489 54.1375L335.91 55.4742C334.961 55.7527 334.291 56.6438 334.459 57.4793L334.682 58.7603C334.961 60.3198 333.789 61.935 332.058 62.4363C330.383 62.9376 328.763 62.0464 328.54 60.5426L328.317 59.2616C328.205 58.4261 327.367 58.0362 326.474 58.259L322.063 59.5401L324.855 76.0264L329.266 74.8567C330.159 74.6339 330.829 73.7428 330.662 72.9073L330.438 71.6263C330.159 70.0668 331.332 68.4516 333.063 68.006C334.794 67.5604 336.413 68.3959 336.636 69.9554L336.86 71.2364C337.027 72.0719 337.865 72.5732 338.814 72.2947L343.448 71.0693L342.722 66.9478C342.555 66.1123 341.661 65.611 340.712 65.8895L339.261 66.2794C337.53 66.725 335.91 65.8895 335.631 64.33C335.408 62.7705 336.636 61.1553 338.367 60.654Z" fill="#FFA519"/>
<path opacity="0.8" d="M468.856 133.729L469.861 133.394C470.531 133.172 471.257 132.615 471.425 132.169L472.262 129.941L469.079 130.944C468.409 131.166 467.739 131.723 467.572 132.169L467.293 132.837C466.958 133.673 465.729 134.675 464.501 135.065C463.272 135.455 462.602 135.065 462.937 134.23L463.217 133.506C463.384 133.06 463.049 132.893 462.435 133.06L459.308 134.063L455.344 143.42L458.526 142.473C459.196 142.25 459.866 141.749 460.09 141.248L460.369 140.524C460.704 139.632 461.988 138.63 463.217 138.24C464.445 137.85 465.171 138.296 464.836 139.187L464.557 139.911C464.389 140.412 464.78 140.635 465.45 140.412L468.744 139.41L469.638 137.07C469.805 136.569 469.414 136.346 468.744 136.569L467.739 136.903C466.511 137.293 465.785 136.848 466.12 136.012C466.343 135.121 467.628 134.118 468.856 133.729Z" fill="#FFA519"/>
</g>
<defs>
<clipPath id="clip0_773_792">
<rect width="597" height="350" fill="white"/>
</clipPath>
</defs>
</svg>
