<svg width="603" height="340" viewBox="0 0 603 340" fill="none" xmlns="http://www.w3.org/2000/svg">
<g clip-path="url(#clip0_724_323)">
<path d="M501.1 318.327C535.286 318.327 562.999 313.273 562.999 307.038C562.999 300.804 535.286 295.75 501.1 295.75C466.914 295.75 439.2 300.804 439.2 307.038C439.2 313.273 466.914 318.327 501.1 318.327Z" fill="#DBDDDF"/>
<path d="M481.219 68.8127L486.641 54.3639L494.232 55.3572L482.484 36.4834L470.014 54.6348L481.219 68.8127Z" fill="#A54329"/>
<path d="M443.809 98.2522L439.471 107.012L456.731 117.487L456.279 104.483L443.809 98.2522Z" fill="#A54329"/>
<path d="M462.604 65.8325L443.989 93.2854L456.279 104.483L462.604 65.8325Z" fill="#571270"/>
<path d="M482.575 65.0199L471.731 49.5776L467.484 57.073L482.575 65.0199Z" fill="#571270"/>
<path d="M454.11 105.928L440.917 98.6134L443.989 93.2854L457.273 101.052L454.11 105.928Z" fill="#E292FF"/>
<path d="M529.152 78.4751L544.298 56.8813L541.856 55.1708L526.71 76.7645L529.152 78.4751Z" fill="#E7CABC"/>
<path d="M482.485 39.8246C482.214 39.644 481.762 39.5537 481.4 39.644L481.039 39.3731C481.039 39.3731 481.039 39.5537 480.949 39.7343C480.677 39.8246 480.497 40.0956 480.316 40.3665C479.864 41.4501 479.322 42.6241 478.689 43.6175C478.418 44.069 478.147 44.5205 477.876 44.9721C477.695 45.243 477.605 45.4236 477.424 45.6042C477.424 45.6042 477.334 45.7848 477.244 45.7848C477.244 45.8751 477.063 45.9654 477.063 45.9654C476.43 46.7782 475.707 47.5909 474.894 48.3134C473.448 43.7078 468.93 28.3559 470.918 23.7503C473.268 18.2416 479.593 13.907 479.593 13.907C479.593 13.907 491.612 13.907 496.582 17.6095C497.033 17.8804 502.275 19.9574 504.895 26.1885C504.172 25.9176 491.702 45.6042 491.702 45.6042L483.027 40.6374C483.027 40.3665 482.756 40.0053 482.485 39.8246Z" fill="#121A2D"/>
<path d="M504.353 26.8206C504.353 26.8206 507.154 36.7542 504.804 44.4301C502.455 52.1964 495.949 59.5111 495.949 59.5111L483.027 44.4301C483.027 44.4301 476.882 37.9281 479.864 34.1353C482.846 30.3425 487.906 35.4899 487.906 35.4899L487.635 39.0118L491.159 39.2827C491.159 39.2827 489.262 35.219 491.431 31.2455C493.599 27.2721 497.575 28.1751 497.575 28.1751C497.575 28.1751 502.816 28.0848 504.353 26.8206Z" fill="#BA5738"/>
<path d="M515.377 283.92L517.636 293.763C517.636 293.763 513.931 297.376 509.232 295.028C509.503 294.937 506.792 285.636 506.792 285.636L515.377 283.92Z" fill="#BA5738"/>
<path d="M540.86 291.054L539.956 288.345L507.425 300.175L508.961 303.968C508.961 303.968 514.564 302.162 517.365 300.085C519.985 299.362 540.86 291.054 540.86 291.054Z" fill="#A5A5C4"/>
<path d="M539.866 288.436L513.389 288.616L506.07 291.145C506.07 291.145 506.16 297.827 507.968 300.627C512.305 300.898 516.733 298.008 516.733 298.008L539.866 288.436Z" fill="#A00A32"/>
<path d="M511.582 292.228C514.474 291.055 516.371 295.57 513.389 296.744C510.498 297.918 508.6 293.402 511.582 292.228Z" fill="#D8D8EA"/>
<path d="M482.214 152.436L502.274 221.429L517.004 284.281L506.431 288.436L483.66 224.861L466.038 194.066L464.864 156.861L482.214 152.436Z" fill="#121A2D"/>
<path d="M454.11 295.841L452.484 305.865C452.484 305.865 447.695 307.761 444.261 303.968C444.622 303.968 445.526 294.305 445.526 294.305L454.11 295.841Z" fill="#BA5738"/>
<path d="M474.984 312.005L475.165 309.206L440.556 308.032V312.095C440.556 312.095 446.429 312.457 449.773 311.644C452.574 311.915 474.984 312.005 474.984 312.005Z" fill="#A5A5C4"/>
<path d="M480.768 158.847L476.34 208.967C476.34 208.967 456.008 297.466 455.285 297.737C454.562 298.008 442.272 295.75 442.272 295.75L453.568 208.154L451.128 162.64L480.768 158.847Z" fill="#313B58"/>
<path d="M485.376 69.0835C485.376 69.0835 493.69 82.2681 494.232 87.9573C494.684 93.5563 486.641 135.639 486.641 135.639L487.093 157.402H477.786L485.376 69.0835Z" fill="#8815AD"/>
<path d="M480.948 63.3944C480.948 63.3944 487.093 69.9867 488.268 73.4183C489.443 76.8499 482.665 137.716 482.665 137.716L484.653 158.305C484.653 158.305 462.153 172.754 447.694 168.058C442.092 163.453 448.417 139.973 448.417 139.973C448.417 139.973 451.399 90.5763 456.008 78.1142C460.616 65.652 467.484 57.073 467.484 57.073L480.948 63.3944Z" fill="#8815AD"/>
<path d="M497.485 98.7942L502.365 102.768L521.703 78.5658L521.974 73.4184L526.492 64.749L530.107 65.0199L527.396 71.6122L530.107 74.3214L537.968 66.3745L536.974 77.6627L527.396 81.8168L502.726 122.364L488.358 109.45L497.485 98.7942Z" fill="#BA5738"/>
<path d="M498.117 100.871C498.117 100.871 488.087 79.1075 484.924 73.9601C481.762 68.8127 473.177 65.3811 469.472 66.6454C465.767 67.9097 465.586 79.83 466.761 83.984C468.026 88.1381 488.268 111.888 488.268 111.888L498.117 100.871Z" fill="#571270"/>
<path d="M475.075 309.206L450.496 299.453L442.724 299.001C442.724 299.001 440.375 305.232 440.917 308.483C444.803 310.38 450.044 309.386 450.044 309.386L475.075 309.206Z" fill="#BF193D"/>
<path d="M501.1 101.323C501.1 101.323 492.244 110.173 490.346 116.765C484.925 117.758 486.19 112.159 486.19 112.159C486.19 112.159 493.057 100.149 498.389 96.2656C498.569 95.0013 501.1 101.323 501.1 101.323Z" fill="#E292FF"/>
<path d="M447.423 302.162C450.586 302.162 450.586 307.039 447.423 307.039C444.261 307.039 444.261 302.162 447.423 302.162Z" fill="white"/>
<path d="M461.249 141.147C460.345 140.605 459.442 139.973 458.448 139.431C457.544 138.89 456.64 138.348 455.917 137.625C455.737 137.445 455.917 136.993 456.189 137.084C457.183 137.445 458.086 138.077 458.899 138.619C459.803 139.161 460.707 139.793 461.701 140.335C462.062 140.605 462.514 140.876 462.876 141.057C462.966 139.793 463.056 138.619 463.147 137.354C463.779 128.234 464.592 119.203 465.677 110.173C466.219 105.115 466.852 100.149 467.665 95.0915C467.755 94.64 468.568 94.7303 468.478 95.1818C467.574 104.212 466.49 113.243 465.677 122.364C465.044 128.866 464.592 135.368 464.141 141.87C465.135 142.502 466.129 143.134 467.123 143.676C467.574 143.947 467.123 144.76 466.671 144.489C465.767 143.947 464.954 143.405 464.05 142.863C464.05 143.495 463.96 144.037 463.96 144.669C465.858 145.843 467.665 147.017 469.472 148.281C469.924 148.552 469.472 149.275 469.111 148.914C467.484 147.74 465.767 146.656 463.96 145.663C463.96 146.114 463.87 146.475 463.87 146.927V147.017C463.87 147.74 463.779 148.552 463.779 149.275C463.508 154.332 463.327 159.479 463.056 164.536C462.966 165.439 461.61 165.439 461.701 164.536C461.791 157.944 462.243 151.442 462.695 144.85C461.159 144.037 459.532 143.224 457.996 142.412C457.544 142.141 457.815 141.328 458.357 141.509C459.894 142.141 461.339 142.863 462.785 143.676C462.785 143.044 462.876 142.502 462.876 141.87C462.333 141.87 461.791 141.509 461.249 141.147Z" fill="#571270"/>
<path d="M330.37 305.865C332.629 317.333 301.363 316.069 287.899 317.604C274.345 319.14 246.603 326.274 229.434 315.889C221.12 310.831 222.385 301.981 259.073 297.195C283.019 294.035 328.382 295.299 330.37 305.865Z" fill="#DBDDDF"/>
<path d="M304.616 305.955C304.616 305.955 300.008 303.788 289.887 303.968C279.766 304.058 269.736 304.42 265.669 302.433C261.603 300.446 275.881 299.995 282.568 300.175C289.345 300.266 305.159 301.53 304.616 305.955Z" fill="#898B8E"/>
<path d="M278.682 315.076C278.682 315.076 283.923 315.618 273.531 315.798C263.139 315.889 241.542 312.999 237.385 310.922C233.229 308.845 247.777 308.483 254.735 308.574C261.603 308.664 279.224 310.56 278.682 315.076Z" fill="#898B8E"/>
<path d="M245.699 298.008C247.054 298.189 258.079 299.182 260.699 296.112C267.386 303.878 283.561 309.296 286.363 309.748C289.796 310.29 290.158 312.999 288.26 314.173C286.363 315.256 276.423 316.611 269.193 315.437C261.874 314.263 251.211 312.096 246.693 311.102C242.265 310.109 244.614 302.704 245.699 299.001C245.699 298.911 245.699 298.008 245.699 298.008Z" fill="#363538"/>
<path d="M280.128 292.59C283.291 292.048 286.634 290.603 288.532 287.984C294.676 295.931 309.135 300.266 311.936 300.808C315.28 301.349 315.641 304.058 313.743 305.052C311.846 306.136 307.96 306.948 300.912 305.774C293.863 304.6 279.224 303.426 274.887 302.523C271.272 301.711 272.266 296.563 273.351 292.77C275.519 293.041 277.869 292.951 280.128 292.59Z" fill="#262227"/>
<path d="M237.295 176.728C238.018 153.339 232.325 136 243.711 119.926C253.47 108.096 292.778 104.212 294.405 120.106C294.405 120.467 296.845 152.977 294.405 170.948C294.405 170.948 289.616 204.813 288.441 234.162C287.447 259.176 290.248 280.308 290.61 289.339C287.537 295.208 272.266 295.66 272.266 293.402C272.266 291.145 265.489 250.868 266.844 239.219C267.838 230.73 267.296 216.281 266.573 199.214C265.669 210.773 264.495 222.151 263.32 228.473C259.796 247.437 260.699 278.682 261.693 296.563C261.964 300.988 244.976 299.453 244.705 298.279C242.717 287.171 238.921 268.749 239.193 240.935C239.283 224.59 236.933 192.621 237.295 176.728Z" fill="#9BB7FF"/>
<path d="M260.248 140.154C261.422 155.777 237.295 149.997 237.385 168.149C236.934 149.004 233.861 133.923 243.801 119.926C253.561 108.096 292.869 104.212 294.496 120.106C294.496 120.196 294.767 123.267 294.947 128.053C258.892 124.712 259.886 135.368 260.248 140.154Z" fill="#86A6E8"/>
<path d="M270.097 167.246C270.097 181.424 273.893 191.718 273.17 203.548C272.447 215.288 267.296 232.627 267.296 232.627C267.748 224.77 266.573 212.218 266.573 199.123C268.832 184.133 268.923 173.838 270.097 167.246Z" fill="#86A6E8"/>
<path d="M290.068 83.4423C293.592 80.6428 298.381 76.2178 302.267 73.9602C303.894 77.6627 311.213 88.1382 312.297 91.1182C315.099 98.9748 300.008 101.865 293.411 91.931C293.231 91.4795 288.803 84.4356 290.068 83.4423Z" fill="#F38868"/>
<path d="M288.26 83.984C285.007 78.4754 283.11 73.328 283.019 65.5617C282.929 56.1699 290.339 42.0823 292.869 50.6613C294.767 56.9827 298.11 64.5683 303.713 73.9601C301.996 78.3851 290.881 84.3452 288.26 83.984Z" fill="#006837"/>
<path d="M236.934 73.5989C236.211 74.1407 232.235 80.2815 229.795 83.8937C227.265 84.8871 217.867 75.9468 215.246 72.2443C220.397 62.2204 228.439 51.5643 231.15 48.494C235.397 43.7078 247.416 37.6573 253.109 34.5869C253.38 35.0384 270.097 39.4634 277.417 35.5803C282.838 39.9149 289.977 43.0756 292.236 49.0358C295.218 56.8021 292.598 63.6653 292.146 83.4422C291.965 92.3824 294.495 107.644 295.489 120.016C288.17 126.247 252.747 126.157 243.711 119.835C242.898 95.5431 237.205 76.3983 236.934 73.5989Z" fill="#04A24B"/>
<path d="M216.511 73.9602C219.403 76.9403 223.198 80.5525 227.897 83.6229C224.373 89.0412 222.204 92.9243 221.481 95.4529C220.668 98.0718 232.958 123.989 235.126 129.047C235.397 129.679 242.717 132.207 244.886 132.659C246.964 133.11 255.549 138.348 257.808 139.522C260.067 140.786 258.802 143.676 255.549 142.141C252.205 140.515 252.024 140.335 250.94 139.973C249.946 139.703 255.549 143.947 256.452 145.211C257.356 146.475 256 148.733 253.561 146.746C251.211 144.76 248.229 142.773 247.506 142.773C246.874 142.773 248.319 143.857 249.494 145.031C250.669 146.205 251.663 147.469 252.296 148.101C253.561 149.456 250.85 151.171 249.494 149.907C248.139 148.643 244.615 145.843 243.801 145.572C243.078 145.301 246.512 148.823 247.145 149.726C247.777 150.63 245.518 152.345 244.072 150.81C242.536 149.185 237.928 145.211 236.753 144.398C235.578 143.586 230.156 142.231 228.168 140.154C226.271 138.077 226.361 134.465 225.006 132.568C223.56 130.762 206.662 98.8845 207.565 94.6402C208.107 91.4795 211.993 82.9004 216.511 73.9602Z" fill="#FDB094"/>
<path d="M214.433 78.2949C215.156 76.85 215.789 75.4051 216.602 73.9602C219.493 76.9403 223.289 80.5525 227.988 83.6229C226.723 85.5193 225.638 87.2351 224.735 88.7703C222.114 84.5259 218.59 80.8234 214.433 78.2949Z" fill="#F38868"/>
<path d="M241.994 99.8779C241.994 99.9682 241.994 99.9682 241.994 100.058C240.006 85.7902 237.114 75.676 237.024 73.6893C237.024 73.6893 243.621 65.2909 245.066 63.846C246.422 62.2205 240.638 87.6866 241.994 99.8779Z" fill="#006837"/>
<path d="M280.308 67.4581L271.904 68.3611C270.91 68.4514 270.097 69.1739 269.826 70.0769L265.127 87.5962C264.856 88.5895 265.669 89.4926 266.663 89.4023L275.7 88.4992C276.332 88.4089 276.784 88.0477 276.965 87.4156L281.483 68.8126C281.664 67.9999 281.031 67.3678 280.308 67.4581Z" fill="#EEF0F1"/>
<path d="M265.127 87.5962L269.826 70.077C270.097 69.1739 270.91 68.4515 271.904 68.3612L280.308 67.4581C281.031 67.3678 281.664 68.0902 281.483 68.8127L273.44 69.7157C272.446 69.8061 271.633 70.5285 271.362 71.4316L266.663 88.9508C266.573 89.1314 266.573 89.312 266.663 89.4926C265.669 89.4926 264.856 88.5896 265.127 87.5962Z" fill="white"/>
<path d="M312.659 92.4726C313.02 96.8976 309.948 100.51 301.815 101.323C293.682 102.135 282.838 96.2655 281.302 95.9042C279.766 95.543 275.157 95.9042 272.989 95.3624C270.73 94.8206 265.127 89.4022 264.314 88.5895C263.5 87.8671 263.952 85.2482 265.398 85.8803C265.398 85.8803 264.404 85.5191 264.133 84.4354C263.862 83.3518 263.952 82.0875 265.217 82.1778C264.043 80.1008 265.76 79.1977 266.392 79.288C265.488 78.6559 265.127 78.2947 265.037 77.3013C264.946 76.6692 265.488 75.4952 267.386 75.8564C268.742 76.1273 276.965 80.1008 278.501 80.9135C278.501 80.9135 279.405 77.5722 279.314 77.5722C280.85 78.1141 282.387 86.8737 282.748 87.3252C283.109 87.7767 293.682 87.2349 296.122 86.964C302.628 86.2416 312.116 86.0609 312.659 92.4726Z" fill="#FDB094"/>
<path d="M266.844 54.4541C266.844 54.4541 277.236 42.1726 278.682 41.1792C279.586 40.5471 277.236 39.1925 277.236 38.8313C277.236 38.4701 281.212 37.6573 281.574 37.2961C281.935 36.9349 276.875 32.9614 275.971 32.9614C275.067 32.9614 255.729 32.9614 255.729 32.9614C255.729 32.9614 251.392 34.4966 250.308 35.6706C249.675 36.393 255.097 38.3798 255.729 38.741C256.362 39.1022 253.019 40.9986 252.657 41.5404C252.296 42.0823 265.76 53.7317 266.844 54.4541Z" fill="white"/>
<path d="M273.621 17.5192C273.621 17.5192 275.248 18.8738 275.7 16.4356C276.332 13.1846 276.874 10.0239 276.152 6.41167C275.429 2.79945 270.639 -0.0903203 266.844 -1.48776e-05C260.519 0.270901 256.904 4.06373 256.994 7.22442C257.085 10.9269 257.898 14.9907 258.711 18.332C259.525 21.7636 273.621 17.5192 273.621 17.5192Z" fill="url(#paint0_linear_724_323)"/>
<path d="M274.254 19.235C274.254 19.235 274.977 17.9707 276.061 18.7835C277.146 19.5962 275.971 22.5763 274.525 22.7569C273.079 22.8472 273.802 19.7768 274.254 19.235Z" fill="#F38868"/>
<path d="M255.82 33.8645C259.525 31.4262 259.886 29.5298 260.157 27.3625C260.248 25.6467 260.157 23.5697 260.067 21.7635H274.525C274.164 22.8472 273.622 25.1049 273.712 30.162C273.712 32.0584 274.525 33.6839 275.79 35.0384C273.712 39.8246 268.2 51.2934 267.025 54.4541C265.037 48.9455 255.82 34.8578 255.458 34.2257C255.458 34.0451 255.639 33.9548 255.82 33.8645Z" fill="#FDB094"/>
<path d="M259.977 21.6733H274.435C274.073 22.757 273.531 25.0146 273.621 30.0717C273.621 31.1554 273.893 32.0585 274.344 32.9615C274.525 33.9549 272.718 37.3865 270.639 38.3798C268.742 39.2829 265.941 38.8314 264.314 37.6574C262.055 36.0319 258.892 31.336 258.802 31.1554C259.796 29.8911 259.976 28.6269 260.157 27.2723C260.157 25.5565 260.067 23.4794 259.977 21.6733Z" fill="#F38868"/>
<path d="M274.797 23.66C275.158 21.4926 276.152 14.2682 275.7 12.5524C275.61 12.1912 275.339 10.2045 273.893 8.75957C272.989 7.85652 271.092 11.4687 269.104 11.2881C266.483 11.1075 264.856 7.4953 263.411 8.39835C261.874 9.39171 261.784 12.8233 261.242 13.907C260.79 14.7197 259.886 16.8871 260.067 18.8738C259.796 18.4223 257.989 17.6998 257.989 19.5059C257.989 21.4023 260.067 23.5697 260.609 22.486C260.609 22.486 260.88 24.3824 261.784 25.9176C263.32 28.4462 265.941 30.6135 268.29 30.6135C271.905 30.6135 274.345 25.8273 274.797 23.66Z" fill="#FDB094"/>
<path d="M23.4042 76.3984C21.0547 75.405 20.7836 72.3347 16.4462 71.0704C13.4642 70.2576 10.6629 67.8194 10.5725 66.0133C10.4821 64.2072 10.4821 61.1368 9.57849 60.2337C7.59048 58.4276 9.21703 57.1633 8.22303 56.2603C5.7832 54.093 7.59048 52.1965 7.31939 50.7517C6.95793 49.3971 4.5181 47.5007 4.42773 44.7915C4.42773 40.3665 6.95793 36.8446 6.23502 34.4967C5.5121 32.1487 6.14465 30.3426 7.31939 28.6268C8.49412 26.911 10.3014 25.7371 10.211 24.2019C10.0303 22.757 10.5725 20.9509 12.8316 19.6866C15.0907 18.5126 20.3318 16.7065 20.6933 14.9004C21.0547 13.0943 20.9644 10.2948 22.9524 9.30146C24.9404 8.3081 30.543 9.21116 33.3443 9.66268C36.1456 10.1142 37.0492 7.76627 38.5854 7.31474C40.1216 6.86322 42.2903 9.30146 44.0976 9.21116C45.9049 9.12085 50.3327 7.04383 56.2064 9.48207C62.1704 11.9203 63.9777 15.4422 65.9657 16.255C67.9537 17.158 70.3032 16.7065 71.1165 17.429C72.0201 18.2417 72.0201 21.6733 72.4719 22.3054C73.0141 23.0279 75.7251 26.1886 75.6347 27.3625C75.5443 28.5365 74.5503 29.0784 74.731 29.8008C74.9118 30.5232 76.6287 31.7875 76.6287 32.6003C76.6287 35.3094 74.8214 38.4701 74.9118 39.4635C75.0021 40.3665 77.5323 42.263 78.3456 46.0558C78.8878 48.5843 76.6287 56.6215 75.454 58.5179C74.2792 60.4143 70.3032 62.7623 70.1225 63.6653C69.9417 64.5684 69.8514 65.6521 69.1285 66.4648C68.1345 67.4582 65.9657 67.7291 65.6946 68.6321C65.3332 69.9867 64.7006 70.3479 63.4355 70.077C62.803 69.9867 62.803 72.7862 61.809 73.5989C60.815 74.502 57.833 76.8499 54.128 77.3918C50.4231 77.9336 45.9049 77.2112 43.2843 78.1142C40.6638 79.0173 35.7841 77.753 33.6154 78.2948C27.3802 80.1009 26.1151 77.5724 23.4042 76.3984Z" fill="url(#paint1_linear_724_323)"/>
<path d="M36.5976 309.477C30.8143 309.386 16.4463 310.109 13.9162 313.179C11.0245 316.701 18.9765 319.681 33.0734 319.681C45.4532 319.681 55.2126 321.126 60.6344 315.798C64.6104 311.915 42.3809 309.567 36.5976 309.477Z" fill="#DBDDDF"/>
<path d="M46.8084 309.206C45.1819 307.219 43.465 304.962 42.5613 302.614C41.2059 303.156 36.5973 303.246 35.0611 303.246C35.1515 303.968 34.6093 309.477 34.6997 310.109C34.8804 311.193 37.2298 313.721 39.489 314.353C43.7361 315.527 49.7905 314.444 49.8808 313.45C50.1519 311.825 47.9832 310.651 46.8084 309.206Z" fill="url(#paint2_linear_724_323)"/>
<path d="M42.9229 314.444C42.4711 312.367 39.7602 309.116 38.3144 304.149C35.242 305.233 32.0792 304.962 28.9165 304.42C27.7418 307.942 27.0189 311.373 26.8381 314.263C26.6574 316.521 27.8321 317.966 35.242 318.146C39.1277 318.237 43.4651 316.882 42.9229 314.444Z" fill="url(#paint3_linear_724_323)"/>
<path d="M67.3209 155.777C60.3629 154.332 42.019 163.001 39.8502 174.651C37.6815 186.3 40.031 233.891 38.9466 242.47C38.2237 248.159 34.8802 292.59 34.5187 297.015C34.338 299.543 34.7898 300.807 34.7898 303.517C37.7719 304.329 40.8442 304.781 43.013 303.155C43.013 298.911 42.9226 294.486 46.7179 281.482C50.6939 267.665 56.3869 252.494 56.2061 237.232C56.0254 221.88 58.1942 216.643 64.3389 193.344C70.4837 170.045 67.3209 155.777 67.3209 155.777Z" fill="#9BB7FF"/>
<path d="M47.8023 239.761C48.6156 211.224 40.9346 199.575 40.4828 189.009C38.3141 185.758 39.5792 187.203 39.037 183.23C38.3141 201.201 39.7599 235.426 38.8563 242.651C38.1333 248.34 34.7899 292.77 34.4284 297.195C34.2477 299.724 34.6995 300.988 34.6995 303.697C37.6815 304.51 40.7539 304.961 42.9226 303.336C42.9226 299.092 42.8323 294.667 46.6276 281.663C47.6216 278.141 48.7963 274.438 49.8807 270.736C45.9047 260.712 47.5312 250.598 47.8023 239.761Z" fill="#86A6E8"/>
<path d="M27.7417 304.781C30.6333 305.323 36.1455 306.677 39.489 304.059C39.0372 297.918 39.489 258.003 39.6697 248.972C39.9408 238.406 41.0252 229.737 41.5674 224.77C41.9288 221.158 40.8445 196.685 40.2119 183.32C39.9408 178.173 67.773 161.557 67.2308 156.861C66.779 152.165 64.6102 147.379 63.4355 145.482C51.5978 143.405 19.5185 137.806 16.2654 144.037C11.4761 152.978 8.31337 167.426 12.7412 185.397C17.2594 203.368 23.5849 215.92 22.9524 225.132C22.4102 234.343 19.3378 244.999 23.2235 265.227C27.1995 285.636 27.832 304.059 27.7417 304.781Z" fill="#9BB7FF"/>
<path d="M23.9464 84.8872C24.8501 87.6867 26.0248 90.3958 27.9224 92.6535C33.7057 99.4264 44.3687 99.7876 51.9593 95.9948C53.6762 95.0917 55.3028 94.008 56.5679 92.5631C58.1944 90.6667 59.0077 88.0479 59.6403 85.6096C60.5439 82.2683 60.9053 78.8367 61.0861 75.4051V75.3148C61.0861 75.3148 51.9593 76.2179 48.9773 70.7092C45.9953 65.2006 47.8025 57.4343 47.8025 57.4343C47.8025 57.4343 37.4107 57.4343 33.525 58.7889C33.525 58.7889 34.4287 67.097 33.0732 69.8965C31.8081 72.6056 28.6453 76.0373 22.2295 76.6694C23.4946 79.2882 23.1331 82.2683 23.9464 84.8872Z" fill="#FDB094"/>
<path d="M33.1636 69.9868C33.525 69.8062 33.8865 69.7159 34.4287 69.7159C35.7841 69.8062 36.9589 70.7093 38.1336 71.3414C39.3083 71.8832 40.8445 72.3347 42.1096 71.9735C43.4651 71.522 44.6398 70.4383 46.0856 69.9868C47.0797 69.7159 47.8929 69.7159 48.6158 70.0771C46.176 64.6588 47.8026 57.5247 47.8026 57.5247C47.8026 57.5247 37.4107 57.5247 33.525 58.8792C33.525 58.8792 34.519 67.097 33.1636 69.9868Z" fill="#F38868"/>
<path d="M21.9581 128.685C19.9701 134.465 16.2651 144.128 16.2651 144.128C16.2651 144.128 42.4707 157.583 63.4352 145.572C63.4352 145.572 59.5496 138.167 60.0918 128.685C53.947 128.234 25.3016 123.718 21.9581 128.685Z" fill="#FDB094"/>
<path d="M20.0606 76.7596C20.0606 76.7596 11.6567 76.579 9.66871 85.2483C8.49397 90.5763 8.13252 105.206 0.722656 124.26C4.42759 131.846 16.5364 116.313 16.8075 114.688C17.3497 111.798 18.7051 108.096 18.7051 108.096C18.7051 108.096 21.5064 80.6427 20.0606 76.7596Z" fill="#FDB094"/>
<path d="M4.87938 111.979C3.79501 115.862 2.52991 119.926 0.812988 124.351C4.51792 131.936 16.6267 116.404 16.8978 114.778C17.44 111.888 18.7955 108.186 18.7955 108.186C18.7955 108.186 18.9762 106.289 19.2473 103.4C15.6327 107.734 10.5723 110.895 4.87938 111.979Z" fill="#F38868"/>
<path d="M32.5311 56.17C32.7118 58.3374 33.0732 60.6853 33.254 62.0399C33.7058 65.02 38.4047 67.6388 40.6638 67.6388C42.8326 67.6388 47.2604 65.2006 47.893 62.2205C48.4351 59.2404 48.887 54.9961 48.5255 53.2803C48.1641 51.8354 44.4591 51.2935 44.0073 49.2165C43.3748 47.0492 41.5675 47.1395 40.6638 47.7716C39.8506 48.3135 39.8506 50.0293 37.8625 50.2099C35.8745 50.3905 34.6998 50.3002 34.3383 51.6548C33.9769 53.0094 32.3503 52.4675 32.5311 56.17Z" fill="#FDB094"/>
<path d="M65.1521 143.224C62.5316 140.876 59.1881 136.18 57.7423 135.007C56.3868 133.833 53.2241 134.284 52.23 134.465C51.1457 134.555 51.1457 136.813 53.2241 136.903C54.0373 136.993 55.1217 137.174 55.8446 137.625C57.0193 138.438 57.923 140.335 57.923 140.335C57.923 140.335 65.6943 143.676 65.1521 143.224Z" fill="#F38868"/>
<path d="M62.2609 75.5857C62.2609 75.5857 68.6767 74.1408 73.466 81.3653C78.0746 88.3188 87.4725 112.43 90.5449 118.932C93.3461 124.802 77.5324 145.572 71.2973 151.262C70.6647 151.804 70.2129 153.339 69.2189 153.79C66.6887 154.874 64.2489 151.352 62.7127 150.72C61.1765 149.997 57.5619 151.533 55.845 151.623C54.1281 151.713 53.9474 149.907 55.0317 149.365C56.1161 148.823 61.0861 147.198 61.8994 147.198C62.7127 147.198 59.55 144.76 57.5619 145.302C55.6643 145.843 53.4052 146.837 52.2305 146.566C51.0557 146.295 50.6039 145.031 52.1401 144.128C53.6763 143.225 55.6643 142.321 56.7487 142.141C57.833 141.96 55.3028 141.509 53.7666 142.051C52.2305 142.592 49.9714 143.315 49.4292 141.87C49.1581 141.147 49.6099 140.606 51.869 139.612C54.0377 138.709 56.0258 138.167 57.7427 138.709C59.4596 139.251 66.4176 144.669 67.3213 144.218C67.7731 143.947 78.9782 123.719 79.159 122.093C79.4301 120.468 70.1226 101.774 66.9598 99.0651C65.2429 97.5299 63.7067 106.29 63.7067 106.29C63.7067 106.29 60.544 84.526 62.2609 75.5857Z" fill="#FDC2AC"/>
<path d="M64.3391 108.818C66.4174 102.948 60.9956 81.5459 62.1703 75.5857C60.9956 74.5021 59.6401 75.3148 59.6401 75.3148C59.6401 75.3148 57.0196 90.5764 41.4769 90.5764C25.9343 90.5764 23.0427 76.4888 23.0427 76.4888C22.2294 76.0372 21.145 76.1276 19.9703 76.5791C21.5065 83.1714 17.169 102.045 18.8859 108.276C20.6932 114.507 22.5005 121.551 21.2354 126.879C20.8739 128.324 18.9763 129.859 18.4341 131.304C20.8739 130.943 24.7596 130.672 27.2898 130.491C37.9527 129.769 48.7964 130.311 59.4594 131.033C59.5498 131.033 60.8149 131.304 60.9956 131.304C60.9052 130.13 59.8209 128.595 59.9112 127.421C60.363 121.28 62.2607 114.688 64.3391 108.818Z" fill="#254499"/>
<path d="M21.4162 102.045C21.5066 101.864 23.4042 94.5497 23.5849 93.5564C23.7657 92.6533 24.5789 90.9375 25.844 91.2987C27.7417 91.8406 26.5669 94.7303 26.7477 96.6267C27.0188 98.5232 21.0547 103.309 21.4162 102.045Z" fill="#F38868"/>
<path d="M26.9282 111.347L36.5972 110.353C37.1394 110.263 37.5912 109.811 37.5008 109.179L35.5128 89.4927C35.4225 88.9509 34.9706 88.4994 34.3381 88.5897L24.6691 89.583C24.1269 89.6734 23.6751 90.1249 23.7655 90.757L25.7535 110.444C25.7535 110.985 26.2957 111.437 26.9282 111.347Z" fill="#EEF0F1"/>
<path d="M33.9766 91.0279C33.8863 90.4861 33.4344 90.0346 32.8019 90.1249L23.7655 91.0279V90.757C23.6751 90.2152 24.1269 89.6734 24.6691 89.583L34.3381 88.5897C34.8803 88.4994 35.4225 88.9509 35.5128 89.4927L37.5008 109.179C37.5912 109.721 37.1394 110.263 36.5972 110.353L35.9646 110.444L33.9766 91.0279Z" fill="white"/>
<path d="M2.25889 121.551C0.541971 123.899 -1.89786 128.956 2.34925 133.471C6.59637 137.987 14.9099 131.756 19.6992 122.815C24.4885 113.875 25.121 112.34 28.103 111.166C31.0851 109.902 37.9527 106.651 39.5793 104.935C41.2058 103.219 39.3986 102.587 38.4949 102.858C37.5913 103.129 34.79 104.212 34.2478 104.303C33.7056 104.393 39.5793 101.774 40.2118 101.503C40.8444 101.142 41.748 99.5166 39.76 99.1554C37.772 98.7941 33.6152 100.6 32.3502 100.691C31.5369 100.691 38.4045 98.4329 38.9467 97.8008C39.8504 96.7171 38.5853 95.6334 36.8684 95.9947C35.1514 96.3559 34.2478 96.5365 34.2478 96.5365C34.2478 96.5365 33.4345 95.2722 32.6212 95.2722C31.808 95.2722 26.7476 95.9044 24.8499 96.8074C23.133 97.6202 20.3317 105.567 18.8859 107.012C17.169 108.457 4.06617 119.023 2.25889 121.551Z" fill="#FDB094"/>
<path d="M32.5308 95.2722C32.35 95.2722 31.9886 95.2722 31.5368 95.3625C31.9886 96.3559 26.386 98.3426 27.5607 97.9814C28.6451 97.6202 34.2477 96.5365 34.2477 96.5365C34.2477 96.5365 33.344 95.2722 32.5308 95.2722Z" fill="#F38868"/>
<path d="M106.359 319.591C95.5151 319.501 66.0564 321.307 63.1648 326.815C60.7249 331.421 73.2855 331.782 100.033 331.692C123.438 331.692 135.456 333.949 145.667 328.441C153.348 324.287 117.203 319.681 106.359 319.591Z" fill="#DBDDDF"/>
<path d="M133.739 310.199C132.293 310.29 124.612 310.019 122.172 309.386C121.72 313.45 118.919 319.681 118.648 321.397C118.377 323.745 118.648 326.274 124.793 326.454C130.938 326.635 128.769 326.364 133.558 326.364C138.347 326.364 137.805 322.571 136.992 319.862C136.359 317.514 135.636 315.798 133.739 310.199Z" fill="#262227"/>
<path d="M76.5387 310.651C77.9845 310.741 85.6655 310.47 88.1053 309.838C88.9186 313.902 91.0873 318.236 91.4488 320.675C91.8102 323.022 93.1657 326.725 87.0209 326.906C80.8762 327.086 83.0449 326.815 78.2556 326.815C73.4663 326.815 72.8338 322.932 73.5567 320.223C74.3699 317.153 75.0929 315.347 76.5387 310.651Z" fill="#262227"/>
<path d="M134.191 198.672C134.191 198.582 136.088 159.299 133.92 146.656C133.468 143.857 120.997 142.863 107.895 142.773C107.714 142.773 107.533 142.773 107.352 142.773C107.172 142.773 106.991 142.773 106.81 142.773C93.6171 142.863 80.8758 144.037 79.3396 146.385C73.8274 154.784 76.0865 198.401 76.0865 198.401C76.1769 212.76 76.8094 221.61 76.3576 227.389C75.1829 241.567 74.3696 250.507 75.1829 274.709C75.9058 296.383 75.2732 310.019 75.5443 311.102C79.7914 314.082 87.7435 313.089 90.0929 311.554C91.2677 300.446 95.2437 263.873 95.6052 255.474C96.057 246.082 98.1354 237.503 99.3101 232.356C99.9426 229.918 105.364 198.491 107.352 189.551C109.341 198.491 114.672 245.992 115.124 255.474C115.576 263.963 119.461 300.537 120.636 311.554C122.985 313.179 130.938 314.082 135.185 311.102C135.365 310.019 134.914 293.041 135.636 271.368C136.359 247.256 134.1 213.031 134.191 198.672Z" fill="#8C6239"/>
<path d="M98.1354 168.691C110.425 167.246 122.986 168.149 134.914 171.309C135.004 161.647 134.733 151.894 133.92 146.746C133.468 143.947 120.998 142.954 107.895 142.863C107.714 142.863 107.533 142.863 107.353 142.863C107.172 142.863 106.991 142.863 106.81 142.863C93.6172 142.954 80.8759 144.128 79.3397 146.475C76.6288 150.539 75.8155 162.73 75.6348 174.29C81.9603 170.316 91.1774 169.503 98.1354 168.691Z" fill="#754C24"/>
<path d="M146.842 61.6787C142.324 57.7052 126.329 49.5777 114.943 48.4941C102.292 47.2298 83.135 52.6481 79.2493 56.6216C75.9059 60.0532 60.544 90.6667 60.8151 97.259C60.9958 102.587 64.4296 107.012 64.4296 107.012C64.4296 107.012 76.0866 104.754 79.3397 108.908C77.5324 120.106 70.9358 151.171 72.0202 153.881C73.1046 156.59 95.786 164.446 104.009 165.078C112.142 165.711 138.619 165.349 138.528 163.001C138.438 158.938 137.534 113.785 138.076 110.444C138.348 110.624 149.191 121.912 151.45 119.113C158.228 110.895 151.36 65.6521 146.842 61.6787Z" fill="#F01F28"/>
<path d="M147.113 109.089C141.51 103.129 140.697 79.83 139.432 83.1713C138.167 86.5126 138.077 110.534 138.077 110.534C138.348 110.714 144.041 116.855 147.926 116.765C146.39 113.062 149.011 111.076 147.113 109.089Z" fill="#C1272D"/>
<path d="M61.8995 102.406C61.8995 102.406 76.1771 104.754 79.3398 108.908C80.6953 100.42 84.852 64.2071 80.9664 76.579C76.9 89.4024 68.5865 95.1819 68.5865 95.1819L61.8995 101.865C61.8092 102.226 61.8995 102.406 61.8995 102.406Z" fill="#C1272D"/>
<path d="M93.2561 108.818C92.7139 108.457 77.9846 116.223 79.1593 109.811C79.1593 109.54 79.2497 109.269 79.3401 108.999C78.6171 113.153 77.352 119.835 75.9966 126.879C83.4064 121.822 87.2921 124.892 92.8947 124.441C98.4973 123.899 105.636 120.016 111.058 123.718C114.853 126.337 122.715 125.615 129.944 128.775C137.173 131.936 138.077 138.619 138.077 138.619C137.896 125.705 137.806 112.25 138.077 110.443L132.565 115.23C132.565 115.23 93.7983 109.179 93.2561 108.818Z" fill="#C1272D"/>
<path d="M112.503 117.487H101.298C100.214 117.487 99.3101 116.584 99.3101 115.501V97.2589C99.3101 96.1753 100.214 95.2722 101.298 95.2722H112.503C113.588 95.2722 114.491 96.1753 114.491 97.2589V115.501C114.491 116.584 113.678 117.487 112.503 117.487Z" fill="#262227"/>
<path d="M112.503 95.2722H101.298C100.214 95.2722 99.3101 96.1753 99.3101 97.2589V99.2457C99.3101 98.162 100.214 97.2589 101.298 97.2589H112.503C113.588 97.2589 114.491 98.162 114.491 99.2457V97.2589C114.491 96.1753 113.678 95.2722 112.503 95.2722Z" fill="#363538"/>
<path d="M136.992 110.534C137.263 110.444 138.077 108.818 139.251 107.734C140.336 106.651 143.679 106.831 145.215 107.734C146.842 108.637 151.812 111.888 151.722 117.397C151.631 122.906 146.571 122.815 145.577 123.267C144.583 123.718 136.992 110.534 136.992 110.534Z" fill="#FF0000"/>
<path d="M61.4477 109.811C61.4477 109.811 59.1886 107.193 58.8271 104.935C58.4657 102.677 59.6404 97.1687 62.261 95.9044C64.9719 94.5498 70.3937 94.911 72.6528 96.8977C74.8216 98.7942 77.0807 102.677 77.0807 102.677L61.4477 109.811Z" fill="#FF0000"/>
<path d="M62.0801 99.8778C64.3392 97.891 68.1345 96.3559 75.454 100.691C82.7735 105.115 87.7435 105.296 88.5568 105.386C89.4604 105.477 95.8763 100.329 99.3101 100.42V105.386C99.3101 105.386 102.925 105.928 107.081 105.838C111.238 105.748 112.142 105.657 112.503 106.56C112.865 107.463 111.871 108.457 110.335 108.728C110.335 108.728 112.774 108.637 113.859 108.637C115.305 108.637 115.305 110.624 114.13 111.076C112.955 111.527 111.057 111.617 110.786 111.708C110.515 111.798 112.232 111.708 113.045 111.708C113.949 111.708 114.853 112.611 113.678 113.875C112.865 114.778 108.979 115.139 108.979 115.139C108.979 115.139 108.527 116.313 106.901 116.584C105.184 116.855 97.6836 117.849 95.2437 117.307C93.8883 117.036 90.1833 114.778 88.2857 114.417C86.388 114.056 74.7311 116.223 70.8454 115.501C66.9597 114.778 61.9897 111.527 60.7246 108.457C59.4595 105.567 60.3632 101.413 62.0801 99.8778Z" fill="#BA5738"/>
<path d="M114.13 111.166C115.304 110.714 115.304 108.728 113.859 108.728C112.774 108.728 110.334 108.818 110.334 108.818C111.871 108.547 112.865 107.463 112.503 106.651C112.142 105.838 111.238 105.838 107.443 105.928C106.358 110.624 103.557 114.868 99.4004 117.578C102.382 117.397 105.816 116.945 106.901 116.765C108.618 116.494 108.979 115.32 108.979 115.32C108.979 115.32 112.865 114.959 113.678 114.056C114.762 112.791 113.859 111.888 113.045 111.888C112.142 111.888 110.425 111.979 110.786 111.888C111.057 111.708 112.955 111.617 114.13 111.166Z" fill="#A54329"/>
<path d="M106.811 108.818C107.353 108.096 114.582 108.457 116.389 108.637C116.389 108.637 114.763 106.38 114.13 105.928C113.407 105.477 111.329 105.477 110.516 104.935C109.612 104.483 109.16 102.677 110.425 102.316C111.6 101.955 115.305 102.768 115.847 102.948C116.389 103.129 122.173 111.166 123.799 112.069C126.51 113.604 140.065 109.179 142.324 109.45C144.583 109.721 150.908 114.688 148.197 120.377C145.487 126.066 136.812 123.809 134.372 123.357C131.932 122.906 124.161 120.197 122.353 120.648C120.546 121.1 118.197 121.822 116.751 120.738C115.305 119.655 114.221 118.12 112.775 117.578C111.329 117.036 107.895 117.307 107.263 116.946C106.63 116.584 105.997 115.23 107.443 114.778C108.889 114.417 111.6 114.236 112.052 114.146C112.504 114.056 109.07 113.785 108.347 113.062C107.805 112.521 106.991 111.708 108.257 110.715C106.54 110.715 106.178 109.541 106.811 108.818Z" fill="#BA5738"/>
<path d="M106.81 40.0957C106.81 40.0957 106.359 49.7583 106.178 52.016C106.088 54.2736 111.509 64.0266 112.955 64.1169C114.311 64.2072 120.365 54.5445 120.636 53.7318C120.907 52.919 121.721 42.7145 121.992 41.6309C122.624 39.1926 106.539 38.1089 106.81 40.0957Z" fill="#A54329"/>
<path d="M105.184 34.5869C105.184 34.5869 104.371 27.0916 104.732 24.3824C105.274 20.4993 107.895 13.9973 116.48 14.6294C125.155 15.3519 126.239 20.4993 126.239 24.7437C126.239 29.7105 124.341 35.3997 124.341 35.3997C124.341 35.3997 111.419 47.1394 105.184 34.5869Z" fill="black"/>
<path d="M124.703 33.5935C124.16 33.6838 123.799 34.2256 123.528 34.6771C123.709 33.3226 123.799 32.2389 123.799 31.968C123.618 30.4328 121.901 30.7037 120.546 31.0649C119.19 31.4261 117.473 33.1419 116.751 33.3226C115.937 33.5032 113.949 33.5032 112.865 32.9613C111.781 32.4195 109.612 30.3425 109.07 29.9813C108.527 29.7103 106.539 29.2588 106.359 31.2455C106.359 31.2455 106.359 33.5935 106.359 36.2123L106.178 35.219C106.178 35.219 105.816 32.871 104.642 32.5098C103.467 32.1486 104.009 37.1154 104.371 38.0184C104.822 39.1021 105.726 39.4633 106.359 39.6439C106.359 40.9985 106.449 42.1725 106.449 43.0755C106.63 46.3265 111.329 51.3836 111.78 51.8352C112.232 52.2867 115.576 52.4673 116.208 51.9255C116.841 51.474 121.811 45.6944 122.172 43.9786C122.263 43.3465 122.534 41.9016 122.805 40.3664C123.437 40.1858 124.16 39.8246 124.522 39.0118C124.883 38.1991 125.877 33.3226 124.703 33.5935Z" fill="#BA5738"/>
<path d="M99.3104 105.386C99.3104 105.386 95.6055 104.935 95.244 104.574C94.8826 104.303 99.1297 102.677 98.8586 100.42H99.3104V105.386Z" fill="#A54329"/>
<path d="M219.674 327.718C233.861 330.247 236.391 338.555 217.234 339.729C197.986 340.903 198.167 337.291 191.209 337.562C184.251 337.833 178.468 340.903 164.913 337.02C151.359 333.137 155.335 327.899 160.305 326.906C171.871 324.467 195.908 323.474 219.674 327.718Z" fill="#DBDDDF"/>
<path d="M211.903 142.141L161.118 142.321C161.118 142.321 153.076 158.847 153.076 172.844C153.076 172.844 180.185 174.289 187.324 189.461C187.324 189.461 189.131 242.831 188.86 249.604C188.679 256.377 182.625 297.556 180.095 303.155C181.179 305.052 185.878 307.038 190.577 306.767C191.209 303.607 206.481 272.18 205.487 257.461C204.583 244.095 208.65 233.981 212.264 222.151C212.716 220.706 221.21 195.963 221.572 174.922C221.752 159.299 214.523 146.566 211.903 142.141Z" fill="#DBDDDF"/>
<path d="M190.215 158.034C201.963 160.292 212.264 165.078 221.481 172.122C220.939 157.763 214.343 146.295 211.903 142.141L161.118 142.321C161.118 142.321 158.046 148.733 155.696 156.951C166.54 153.971 179.643 156.048 190.215 158.034Z" fill="#CDCFD1"/>
<path d="M181.359 328.08C176.751 327.989 168.799 330.157 171.419 331.782C173.859 333.317 182.444 333.317 189.583 333.317C190.938 333.317 193.92 335.123 200.336 336.388C203.77 337.02 210.457 336.749 212.354 335.575C214.523 334.22 207.655 329.886 202.776 329.705C198.348 329.525 191.842 330.337 187.775 329.886C183.709 329.344 186.329 328.26 181.359 328.08Z" fill="#898B8E"/>
<path d="M199.071 315.166C199.071 315.166 195.185 307.129 195.366 305.955C195.456 304.69 204.583 302.433 204.764 302.794C205.396 304.239 206.752 312.186 207.384 313.902C207.656 314.443 200.517 316.43 199.071 315.166Z" fill="#FDB094"/>
<path d="M178.649 312.095C178.649 311.825 181.45 303.697 181.54 303.155C181.631 302.613 190.758 304.329 189.944 305.955C189.131 307.49 187.233 314.172 186.962 314.624C186.691 315.076 178.197 316.791 178.649 312.095Z" fill="#FDB094"/>
<path d="M214.885 331.872C214.523 327.809 209.734 321.487 209.915 317.062C210.005 315.708 210.728 312.005 210.005 311.373C209.553 311.012 203.318 310.922 203.137 311.825C202.685 313.631 199.794 313.992 198.167 312.999C197.444 313.36 196.36 316.611 196.27 317.424C195.908 322.029 195.999 326.906 196.541 329.344C197.083 331.692 199.252 334.672 201.782 335.485C204.945 336.568 215.336 337.471 214.885 331.872Z" fill="#EEF0F1"/>
<path d="M188.589 312.908C187.504 312.276 185.607 311.554 183.438 311.373C182.715 311.283 182.082 313.45 181.359 313.36C179.371 313.36 178.92 312.005 179.1 310.741C179.191 310.109 175.847 313.992 175.124 315.618C174.13 317.875 176.028 321.758 177.926 326.003C180.908 332.956 187.775 333.498 190.215 333.317C195.276 332.956 194.824 330.066 194.191 328.08C193.649 326.454 190.125 321.668 188.679 318.146C187.775 315.708 189.04 313.089 188.589 312.908Z" fill="#EEF0F1"/>
<path d="M166.269 76.7595C163.377 80.462 144.039 108.366 143.045 114.868C142.051 121.37 164.733 114.597 168.528 111.346C172.414 108.095 167.173 75.6758 166.269 76.7595Z" fill="#FFDE05"/>
<path d="M166.269 76.7595C165.908 77.211 165.185 78.2044 164.371 79.3783C163.016 98.0716 152.805 107.915 146.118 107.734C144.401 110.895 143.226 113.423 143.045 114.868C142.051 121.37 164.733 114.597 168.528 111.346C172.414 108.095 167.173 75.6758 166.269 76.7595Z" fill="#FBB03B"/>
<path d="M194.372 86.0611C177.564 84.1646 177.022 73.328 177.655 71.0703C180.817 58.5179 173.769 27.9947 191.932 26.3692C215.969 24.2921 206.391 59.4209 211.632 68.4515C215.788 75.5856 208.379 87.6866 194.372 86.0611Z" fill="url(#paint4_linear_724_323)"/>
<path d="M206.029 244.457C201.601 239.58 197.535 234.433 194.734 228.292C190.667 219.442 188.589 209.689 187.595 199.756C188.137 215.649 188.95 244.637 188.86 249.514C188.679 254.932 184.793 282.385 181.992 296.021C185.516 298.279 188.589 301.44 191.119 305.052C194.011 297.647 206.391 270.645 205.487 257.37C205.125 252.855 205.397 248.521 206.029 244.457Z" fill="#CDCFD1"/>
<path d="M205.487 300.175C204.222 297.466 193.288 257.732 191.119 243.192C189.492 232.266 187.233 189.461 187.233 189.461C182.534 156.77 152.804 166.072 152.985 172.845C153.798 199.033 167.986 232.627 174.492 252.223C176.661 258.815 178.197 270.374 178.829 272.632C181.45 281.663 191.48 303.336 192.203 305.955C196.27 306.226 205.396 302.975 205.487 300.175Z" fill="#DBDDDF"/>
<path d="M179.914 69.0836C179.914 69.0836 169.161 72.6958 166.359 76.7596C162.925 81.7264 164.191 91.2084 167.082 107.102C169.703 121.912 158.136 140.696 156.871 142.592C156.871 142.592 185.155 163.453 218.499 148.733C218.499 148.733 212.084 125.705 215.879 113.424C221.572 95.0013 222.204 76.3984 221.301 75.3147C220.487 74.1407 210.909 68.9933 206.933 66.7357C202.776 64.478 179.914 69.0836 179.914 69.0836Z" fill="#FFDE05"/>
<path d="M210.367 117.126C210.367 124.08 211.541 129.678 215.156 135.639C215.427 136 215.608 136.361 215.879 136.722C214.614 129.227 213.8 119.835 215.788 113.333C220.216 98.9746 221.572 84.6161 221.572 78.385L221.481 78.4753C219.493 80.8233 218.228 77.1207 217.325 82.7197C214.975 95.9946 210.276 110.082 210.367 117.126Z" fill="#FBB03B"/>
<path d="M166.449 96.1752L175.395 95.9043C176.389 95.9043 177.383 96.4461 177.745 97.4395L185.245 115.139C185.697 116.133 184.974 117.216 183.89 117.216L174.311 117.487C173.679 117.487 173.136 117.126 172.865 116.494L165.455 97.6201C165.094 96.988 165.636 96.2655 166.449 96.1752Z" fill="#EEF0F1"/>
<path d="M185.155 115.139L177.654 97.4395C177.293 96.4461 176.299 95.9043 175.305 95.9043L166.359 96.1752C165.546 96.1752 165.094 96.988 165.365 97.7104L173.859 97.4395C174.853 97.4395 175.847 97.9813 176.209 98.9747L183.709 116.675C183.799 116.855 183.799 117.036 183.799 117.216C184.884 117.216 185.607 116.133 185.155 115.139Z" fill="white"/>
<path d="M145.214 111.166C148.648 108.186 158.136 110.985 159.672 109.27C162.835 105.748 164.642 100.691 166.63 100.781L167.534 103.219C169.432 103.038 170.877 102.497 172.775 101.684C175.667 100.51 177.835 99.7874 178.468 100.781C179.281 102.135 175.486 103.671 173.588 104.483C172.233 105.115 176.118 104.393 178.016 103.761C179.462 103.219 181.269 103.309 180.817 104.754C180.456 106.199 175.847 107.644 175.034 108.005C174.221 108.366 179.914 106.651 180.546 106.47C181.902 106.199 183.619 107.373 181.179 108.818C178.649 110.263 176.118 111.076 175.305 111.527C174.492 111.979 178.92 110.534 179.823 110.263C180.727 109.992 182.354 110.805 180.998 111.979C179.643 113.243 176.209 114.868 173.317 116.042C170.426 117.216 166.088 116.584 165.275 117.036C164.462 117.487 161.931 119.926 151.63 123.989C146.298 126.337 139.25 116.313 145.214 111.166Z" fill="#FDB094"/>
<path d="M191.571 305.955C191.3 305.232 205.125 299.904 206.571 299.634C208.017 299.453 208.288 303.336 208.107 303.788C207.927 304.239 194.282 308.935 193.559 309.116C192.836 309.296 191.842 306.677 191.571 305.955Z" fill="#B5B8BA"/>
<path d="M179.191 304.058C179.191 304.058 179.733 301.259 180.095 300.898C180.456 300.536 191.39 304.961 191.661 305.142C191.932 305.323 191.029 307.671 190.577 308.122C190.215 308.664 180.998 305.684 179.191 304.058Z" fill="#B5B8BA"/>
<path d="M203.499 64.3877C205.758 64.3877 206.842 63.1234 208.379 63.6653C211.812 64.9295 215.788 70.4382 215.788 76.0371C215.788 76.0371 209.915 72.154 208.74 72.3346C207.475 72.5152 197.535 78.8366 196.179 80.733C194.734 82.7197 191.3 81.3651 189.131 80.2815C185.788 78.656 179.823 74.1407 178.649 74.5019C177.474 74.8631 175.486 77.0305 175.034 77.8432C174.492 78.7463 173.498 71.7024 177.835 67.1872C179.191 65.7423 180.456 66.2841 182.986 65.9229C193.378 64.8392 201.24 64.3877 203.499 64.3877Z" fill="#F4F4F6"/>
<path d="M185.697 52.1966C185.697 52.1966 188.137 65.02 179.824 68.9934C178.378 75.3148 188.95 78.6561 193.559 84.526C197.445 76.3082 211.361 68.9934 206.029 66.1037C200.698 63.2139 199.252 62.6721 198.981 50.0293C198.89 39.012 186.33 46.9589 185.697 52.1966Z" fill="#FDB094"/>
<path d="M185.336 62.3108C186.962 63.3945 188.77 64.4782 190.758 64.0266C192.836 63.5751 194.734 62.6721 196.541 61.4981C197.625 60.7756 198.71 59.8726 199.794 58.8792C199.433 56.8022 199.162 54.0027 199.162 50.0293C198.981 39.012 186.42 46.9589 185.788 52.1966C185.697 52.1966 186.691 57.4343 185.336 62.3108Z" fill="#F38868"/>
<path d="M182.625 42.8951C182.263 45.1527 183.257 50.3001 183.98 52.7384C184.703 55.1766 187.685 58.8792 190.396 58.6985C193.016 58.5179 198.258 55.1766 198.8 52.3772C199.071 51.1129 199.071 50.4807 199.071 50.0292C199.342 50.842 201.059 50.0292 201.782 48.6746C202.414 47.591 202.053 46.0558 201.511 45.8752C200.246 45.4236 199.161 46.6879 198.98 47.3201C199.161 45.0624 198.89 42.8951 197.896 41.5405C195.998 38.9217 189.854 39.1023 189.221 35.6707C187.775 39.012 182.896 40.6375 182.625 42.8951Z" fill="#FDB094"/>
<path d="M234.494 119.655C234.494 118.752 234.403 117.126 234.313 115.139C231.331 115.772 228.439 116.584 225.548 117.578C223.469 118.3 221.481 119.293 219.584 120.287C220.758 128.143 221.933 135.91 222.114 140.425C222.927 156.409 224.734 185.487 224.463 187.474C224.192 189.551 223.921 191.448 221.391 194.428C218.861 197.408 219.674 202.194 219.132 205.535C218.59 208.876 219.041 210.412 220.578 210.592C222.114 210.773 223.017 206.709 223.198 205.716C223.379 204.722 223.379 202.284 224.192 202.013C225.005 201.833 224.373 207.612 224.192 209.147C224.011 210.683 222.204 212.94 219.222 214.837C216.24 216.733 219.312 219.352 222.294 217.094C225.276 214.837 228.259 211.405 229.162 209.96C230.066 208.515 230.879 193.705 231.512 189.641C232.144 185.578 235.939 157.583 235.578 150.9C235.307 144.218 234.494 124.351 234.494 119.655Z" fill="#FDB094"/>
<path d="M234.674 128.866C234.494 124.712 234.403 121.28 234.403 119.655C234.403 118.752 234.313 117.126 234.223 115.139C231.241 115.772 228.349 116.584 225.457 117.578C223.379 118.3 221.391 119.293 219.493 120.287C220.035 123.628 220.487 126.969 220.939 130.04C225.096 128.776 230.066 128.234 234.674 128.866Z" fill="#F38868"/>
<path d="M235.036 120.467C235.036 115.772 232.957 94.4594 230.247 87.1447C227.174 78.8366 224.644 77.3917 221.21 75.2244C217.957 73.2377 216.421 85.7901 215.969 96.2655C215.788 100.42 217.686 114.688 219.403 125.976C227.897 126.337 235.036 120.829 235.036 120.467Z" fill="#FFDE05"/>
</g>
<defs>
<linearGradient id="paint0_linear_724_323" x1="276.522" y1="10.1962" x2="256.921" y2="9.61345" gradientUnits="userSpaceOnUse">
<stop offset="0.039924" stop-color="#3D2035"/>
<stop offset="1" stop-color="#3D2035"/>
</linearGradient>
<linearGradient id="paint1_linear_724_323" x1="41.3542" y1="80.7194" x2="41.3542" y2="12.9001" gradientUnits="userSpaceOnUse">
<stop offset="0.039924" stop-color="#3D2035"/>
<stop offset="1" stop-color="#3D2035"/>
</linearGradient>
<linearGradient id="paint2_linear_724_323" x1="34.7399" y1="309.751" x2="49.2545" y2="307.747" gradientUnits="userSpaceOnUse">
<stop offset="0.039924" stop-color="#3D2035"/>
<stop offset="1" stop-color="#1C0F18"/>
</linearGradient>
<linearGradient id="paint3_linear_724_323" x1="26.726" y1="311.11" x2="42.9682" y2="311.11" gradientUnits="userSpaceOnUse">
<stop offset="0.039924" stop-color="#3D2035"/>
<stop offset="1" stop-color="#3D2035"/>
</linearGradient>
<linearGradient id="paint4_linear_724_323" x1="212.772" y1="56.2668" x2="177.442" y2="56.2668" gradientUnits="userSpaceOnUse">
<stop offset="0.039924" stop-color="#3D2035"/>
<stop offset="1" stop-color="#3D2035"/>
</linearGradient>
<clipPath id="clip0_724_323">
<rect width="603" height="340" fill="white"/>
</clipPath>
</defs>
</svg>
