<svg width="319" height="395" viewBox="0 0 319 395" fill="none" xmlns="http://www.w3.org/2000/svg">
<g clip-path="url(#clip0_845_1447)">
<path opacity="0.3" d="M239.2 395L0 256.9L70.5 216.2L309.7 354.3L239.2 395Z" fill="black"/>
<path d="M47.9 31.5001L33.5 39.9001V22.5001L47.9 14.1001V31.5001Z" fill="#270733"/>
<path d="M307.6 348.8L286.4 361.1L279.9 164.7L307.6 155.4V348.8Z" fill="#270733"/>
<path d="M307.6 155.4L286.4 167.7L256.2 144.7L294.4 132.4L307.6 155.4Z" fill="#571270"/>
<path d="M54.2998 16H45.7998V52.6H54.2998V16Z" fill="#571270"/>
<path d="M273.1 144.7L191 87.4998L52.5 17.2998V241.4L273.1 368.7L286.4 361.1V167.7L273.1 144.7Z" fill="#8815AD"/>
<path d="M45.7999 17.3H52.4999L273.1 144.7L294.4 132.4L64.9999 0H33.3999L45.7999 17.3Z" fill="#E292FF"/>
<path d="M270.5 370.2L249.3 382.5V189.1L270.5 176.8V370.2Z" fill="#270733"/>
<path d="M270.5 176.8L249.3 189.1L219.1 166.1L257.3 153.9L270.5 176.8Z" fill="#571270"/>
<path d="M236 166.1L153.9 108.9L6.6001 33.7002V257.7L236 390.2L249.3 382.5V189.1L236 166.1Z" fill="#8815AD"/>
<path d="M33.4001 0L6.6001 15.5V33.7L236 166.1L257.3 153.9L36.7001 26.5V22.6L45.8001 17.3L44.3001 8.1L33.4001 0Z" fill="#E292FF"/>
<path d="M117.9 230.4H98.3003V277.3H117.9V230.4Z" fill="black"/>
<path d="M148.7 239.2L138.2 281.8L148.7 321.5L162 313.8V231.5L149 235.7L148.7 239.2Z" fill="#1A0933"/>
<path d="M145 232.9L145.3 240.1L148.7 239.2L162 231.5L158.3 225.1L145 232.9Z" fill="#320E6B"/>
<path d="M56.9004 182L93.5004 222.3L145 232.9L158.3 225.1L70.3004 174.3L56.9004 182Z" fill="#E0CCFF"/>
<path d="M56.9002 182L53.2002 184.1V266.3L56.9002 272.7L144.9 323.5L148.6 321.4V239.2L144.9 232.8L56.9002 182ZM103.2 270.6L105 264.5L105.3 269.8L103.2 270.6ZM109.4 253.6L105.4 255.9L101 250.2L97.1002 238.4L100.9 234.9L104.5 237L109.5 245.6V253.6H109.4Z" fill="#5B17AA"/>
<path d="M105.9 247.5L100.9 238.9V234.8L97.5 232.8L92.5 235.7V243.8L97.5 252.4L96.2 274.4L105.7 279.9L105.2 269.8L104.6 269.5L104.9 264.5L104.5 256.4L105.4 255.9L105.9 247.5Z" fill="#1A0933"/>
<path d="M139.6 220L144.9 227.6L153.7 222.5V165.5L139.6 167.4V220Z" fill="#1A0933"/>
<path d="M69 179.2L74.2 186.8L83.1 181.7V124.8L69 125.5V179.2Z" fill="#1A0933"/>
<path d="M88.4 111L69 125.5L78.2 127.6L96.2 121.5L121.6 136.2L130.4 125L97.3 105.9L88.4 111Z" fill="#E0CCFF"/>
<path d="M121.5 130.1L121.6 136.2L139.6 167.4L144.9 170.6L153.7 165.5L130.4 125L121.5 130.1Z" fill="#320E6B"/>
<path d="M88.4 111L65.1 124.5L65 181.5L74.2 186.8V134.2L92.2 123.8L117.7 138.5L135.7 169.7V222.3L144.9 227.6V170.6L121.5 130.1L88.4 111Z" fill="#5B17AA"/>
<path d="M318.7 271.4L307.6 265.1V277.8L249.3 311.5L206.9 287L195.9 293.4L198.6 299.7L237 321.4L261.1 321L314.4 289.8L318.7 284.2V271.4Z" fill="#E292FF"/>
<path d="M260.3 317.9H238.3L236.2 337.5L238.3 371.3H260.3L263.8 333.6L260.3 317.9Z" fill="#571270"/>
<path d="M238.3 317.9L195.9 293.4L187.7 298.1V332.7L195.9 346.9L238.3 371.3V317.9Z" fill="#8815AD"/>
<path d="M226.8 331.1L226.7 344.3L221.3 347.5L218 334.1L226.8 331.1Z" fill="#1A0933"/>
<path d="M218.7 317.1L207.2 310.5L201.8 313.7L212.1 322.8L218.7 317.1Z" fill="#E0CCFF"/>
<path d="M218.7 317.1L226.8 331.1L221.4 334.3L215.1 329.1L213.3 320.3L218.7 317.1Z" fill="#320E6B"/>
<path d="M193.8 318.3V331.5L201.9 345.5L213.3 352.1L221.4 347.4V334.2L213.3 320.2L201.9 313.6L193.8 318.3Z" fill="#5B17AA"/>
<path d="M260.3 317.9L318.7 284.2V337.7L260.3 371.3V317.9Z" fill="#270733"/>
<path d="M318.7 165.4L307.6 159V171.7L249.3 205.4L206.9 180.9L195.9 187.3L198.6 193.6L237 215.3L261.1 215L314.4 183.7L318.7 178.1V165.4Z" fill="#E292FF"/>
<path d="M260.3 211.8H238.3L236.2 231.4L238.3 265.2H260.3L263.8 227.5L260.3 211.8Z" fill="#571270"/>
<path d="M238.3 211.8L195.9 187.3L187.7 192V226.6L195.9 240.8L238.3 265.2V211.8Z" fill="#8815AD"/>
<path d="M226.8 225.1L226.7 238.2L221.3 241.4L218 228L226.8 225.1Z" fill="#1A0933"/>
<path d="M218.7 211L207.2 204.5L201.8 207.6L212.1 216.7L218.7 211Z" fill="#E0CCFF"/>
<path d="M218.7 211L226.8 225.1L221.4 228.2L215.1 223L213.3 214.2L218.7 211Z" fill="#320E6B"/>
<path d="M193.8 212.2V225.4L201.9 239.4L213.3 246L221.4 241.3V228.1L213.3 214.1L201.9 207.5L193.8 212.2Z" fill="#5B17AA"/>
<path d="M260.3 211.8L318.7 178.1V231.6L260.3 265.2V211.8Z" fill="#270733"/>
</g>
<defs>
<clipPath id="clip0_845_1447">
<rect width="318.7" height="395" fill="white"/>
</clipPath>
</defs>
</svg>
