<svg width="342" height="436" viewBox="0 0 342 436" fill="none" xmlns="http://www.w3.org/2000/svg">
<g clip-path="url(#clip0_973_3789)">
<path d="M0 326.7H86.6L93.8 307.4C96.3 300.5 101.6 295 108.2 292C114.5 289.2 122.9 284 131.1 274.8C147 256.9 155.5 237.7 155.5 237.7L101.8 237.4C101.8 237.4 106.6 207.4 80 167.5C77.1 163.2 75.8 158.1 76.3 153L78.8 123.9C78.8 123.9 96.9 103.6 85.8 78.4999C85.8 78.4999 75.2 63.7999 70.9 69.1999C70.9 69.1999 38.8 145.7 35.8 157.1C32.9 168.5 29 175.6 32.9 211.4C33.9 220.9 34.3 228.8 34.3 235.2C34.3 247.7 31.5 260 26.2 271.2L0 326.7Z" fill="#BA5738"/>
<path d="M80.8 277.1C72.8 268.2 61.6 269.6 49.8 265.5C38.1 261.4 34.3 232.1 34.3 232.1C34.3 233.2 34.3 234.3 34.3 235.3C34.3 247.8 31.5 260.1 26.2 271.3L0 326.7H86.6L93.8 307.4C96.3 300.5 101.6 295 108.2 292C113.5 289.6 120.4 285.5 127.4 278.7C103.6 288.7 88.8 286 80.8 277.1Z" fill="#A84A31"/>
<path d="M203 18.3C203 18.3 221.3 6 225.5 14.1C229.7 22.2 201.7 50.8 201.7 50.8L203 18.3Z" fill="#BA5738"/>
<path d="M203 71.8C203 71.8 221.3 59.5 225.5 67.6C229.7 75.7 201.7 104.3 201.7 104.3L203 71.8Z" fill="#BA5738"/>
<path d="M203 108.2C203 108.2 221.3 95.8999 225.5 104C229.7 112.1 201.7 140.7 201.7 140.7L203 108.2Z" fill="#BA5738"/>
<path d="M86.1004 177.6C86.1004 177.6 67.9004 222.2 69.6004 230.6C71.4004 239 82.4004 250.3 109.5 246.5C136.6 242.7 155.4 237.7 155.4 237.7C155.4 237.7 156.5 177.5 155.4 174.5C154.3 171.4 105.5 149.8 103.6 149.8C101.8 149.8 86.1004 177.6 86.1004 177.6Z" fill="#A84A31"/>
<path d="M203 18.3001L195.6 226.7C195.4 232.6 190.7 237.2 185.2 237L86.3005 233.8C80.7005 233.6 76.4005 228.7 76.6005 222.9L83.3005 15.4001C83.7005 3.40011 88.2005 3.00011 93.8005 3.20011L113.6 3.80011C114.8 3.80011 117.8 3.50011 117.8 5.10011L118.9 5.70011C118.8 9.40011 117.3 10.5001 119.9 10.6001L165.7 12.3001C168.3 12.4001 169.2 12.4001 169.3 8.70011V8.00011C169.4 6.40011 171.8 5.70011 173 5.80011L192.8 6.40011C198.2 6.60011 203.4 7.30011 203 18.3001Z" fill="#EAEAEA"/>
<path d="M128.87 215.955L128.75 219.654L178.725 221.274L178.845 217.576L128.87 215.955Z" fill="white"/>
<path d="M198.4 45.7999L198.5 42.0999L166.7 41.0999L166.8 38.1999L163.1 38.0999L162.8 46.7999L131.6 59.8999L128.5 64.5999L110.3 45.2999L110.6 36.4999L108.8 36.3999L108.5 45.0999L86 44.3999V47.8999L89.2 47.9999L86.9 119.4L105.9 120L100 132.4L99.1 159.6L82.4 159.1L82.3 160.9L98.9 161.4L98.7 168.6L128.5 169.6L127.6 195.9L81.1 194.4L81 198.1L127.5 199.6L126.5 230.7L130.2 230.8L132.2 169.8L142.5 170.1L141.9 190L147.5 190.2L147.6 188.4L143.8 188.3L144.4 170.2L153.9 170.5L177.7 197.5L176.6 232.3L180.3 232.4L181.5 196.1L170.2 183.3L194.8 160.2L195 155L167.8 180.5L155.7 166.8L118.5 165.6L142.4 141.3L195.5 143L195.6 141.2L144.2 139.5L166 117L196.1 118L196.2 114.3L183.7 113.9L185.9 45.3999L198.4 45.7999ZM90.6 115.9L91.8 77.5999L107 78.0999L107.1 76.2999L91.9 75.7999L92.8 48.0999L108.6 48.5999L126.5 67.5999L117.1 81.9999C109.9 82.2999 104.4 88.3999 104.7 95.5999C104.9 100.4 107.8 104.7 112.1 106.7L107.5 116.4L90.6 115.9ZM118.1 85.5999C123.3 85.7999 127.3 90.0999 127.1 95.2999C126.9 100.5 122.6 104.5 117.4 104.3C112.2 104.1 108.2 99.7999 108.4 94.5999C108.5 89.4999 112.9 85.4999 118.1 85.5999ZM113.4 165.4L102.5 165L103.5 133.2L115.6 107.7C120.2 108.4 124.9 106.6 127.8 103L153.8 116.4L161 116.6L113.4 165.4ZM180.1 113.8L154.9 113L129.8 99.9999C132.6 93.3999 129.4 85.6999 122.8 82.9999C122.3 82.7999 121.8 82.5999 121.2 82.4999L134.1 62.8999L154.3 54.3999L181.1 82.9999L180.1 113.8ZM181.2 80.3999L156.1 53.5999L166.5 49.1999L166.6 44.6999L182.3 45.1999L181.2 80.3999Z" fill="white"/>
<path d="M105.916 157.13L105.744 162.427L111.041 162.599L111.213 157.302L105.916 157.13Z" fill="#DADADA"/>
<path d="M161.6 143.8L161.2 154.1L157.5 154L157.4 158.3L150.8 158L151.3 143.5L161.6 143.8Z" fill="#DADADA"/>
<path d="M132.5 214.4L132.7 208.5L135.7 208.6L135.9 202.3L141.4 202.5L141 214.7L132.5 214.4Z" fill="#DADADA"/>
<path d="M168.747 206.664L168.459 215.559L174.956 215.77L175.244 206.874L168.747 206.664Z" fill="#DADADA"/>
<path d="M145.8 171.7L145.5 179.3L159.8 179.8L152.3 171.8L145.8 171.7Z" fill="#DADADA"/>
<path d="M133.853 171.138L133.62 178.335L140.817 178.568L141.05 171.372L133.853 171.138Z" fill="#DADADA"/>
<path d="M83.5957 162.926L83.21 174.82L88.9071 175.005L89.2928 163.111L83.5957 162.926Z" fill="#DADADA"/>
<path d="M90.9263 163.099L90.748 168.596L97.2448 168.807L97.4231 163.31L90.9263 163.099Z" fill="#DADADA"/>
<path d="M117.642 186.098L117.383 194.094L126.078 194.376L126.338 186.38L117.642 186.098Z" fill="#DADADA"/>
<path d="M126.401 184.9L126.801 171L116.301 170.6L109.301 177.2L109.101 184.3L126.401 184.9Z" fill="#DADADA"/>
<path d="M107.401 175.6L112.901 170.4L98.7006 170L98.6006 175.3L107.401 175.6Z" fill="#DADADA"/>
<path d="M106.1 114.8L92.5 114.3L92.7 107.9L108.8 108.4L106.1 114.8Z" fill="#DADADA"/>
<path d="M93.129 95.9449L92.8438 104.74L98.6409 104.928L98.9261 96.1329L93.129 95.9449Z" fill="#DADADA"/>
<path d="M107.3 80.6001L107.2 83.6001C104.5 86.5001 102.7 90.1001 102 94.0001L93.2002 93.7001L93.6002 80.1001L107.3 80.6001Z" fill="#DADADA"/>
<path d="M138.1 111.3L132.2 123.1L125.4 122.9L114 117.2L117.3 110.7C121.4 110.8 125.4 109.3 128.4 106.6L138.1 111.3Z" fill="#DADADA"/>
<path d="M159.9 126.9L167.5 119.2L181.9 119.7L181.6 127.7L159.9 126.9Z" fill="#DADADA"/>
<path d="M183.793 119.764L183.534 127.76L192.63 128.055L192.889 120.059L183.793 119.764Z" fill="#DADADA"/>
<path d="M149.9 49.2999L160.3 44.9L160.6 38L150.3 37.7L149.9 49.2999Z" fill="#DADADA"/>
<path d="M204.8 20.3L204.2 40.2L81.7002 36.2L82.3002 16.3C82.7002 2.7 87.4002 2.2 93.1002 2.3L113.5 3C114.7 3 117.9 4.1 117.8 5.9V6.7C117.7 10.9 119.8 11 122.4 11.1L164.2 12.1C166.9 12.2 169 12.3 169.1 8V7.2C169.2 5.4 173.2 5 174.4 5L195 5.7C200.7 5.9 205.2 7.8 204.8 20.3Z" fill="#73378D"/>
<path d="M149.301 5.20005L137.501 4.80005C137.101 4.80005 136.801 4.40005 136.801 4.00005C136.801 3.60005 137.201 3.30005 137.601 3.30005L149.401 3.70005C149.801 3.70005 150.101 4.10005 150.101 4.50005C150.001 4.90005 149.701 5.30005 149.301 5.20005Z" fill="white"/>
<path d="M112.1 7.99995L111.9 8.19995L111.8 8.29995C110.9 7.29995 109.4 7.19995 108.4 8.09995L108.3 7.99995L108 7.89995L108.2 7.69995C108.4 7.59995 108.5 7.49995 108.7 7.39995C108.9 7.29995 109.2 7.19995 109.4 7.19995H109.8H110.1H110.3C110.5 7.19995 110.7 7.29995 110.9 7.39995C111 7.49995 111.2 7.49995 111.3 7.59995C111.4 7.69995 111.6 7.79995 111.7 7.89995L112.1 7.99995Z" fill="white"/>
<path d="M108.9 8.69999L108.6 8.39999C109.4 7.59999 110.7 7.69999 111.5 8.49999L111.2 8.79999C110.6 8.19999 109.5 8.09999 108.9 8.69999Z" fill="white"/>
<path d="M110.9 9.09997L110.6 9.39997C110.4 9.19997 110.2 9.09997 110 9.09997C109.8 9.09997 109.5 9.19997 109.4 9.29997L109.1 8.99997C109.6 8.59997 110.4 8.59997 110.9 9.09997C110.9 8.99997 110.9 9.09997 110.9 9.09997Z" fill="white"/>
<path d="M110.3 9.59996C110.3 9.69996 110.2 9.89996 110 9.79996C109.9 9.79996 109.7 9.69996 109.8 9.49996C109.8 9.39996 109.9 9.19996 110.1 9.29996C110.2 9.39996 110.3 9.49996 110.3 9.59996Z" fill="white"/>
<path d="M94.4004 8.00005C94.4004 7.60005 94.8004 7.30005 95.2004 7.30005C95.6004 7.30005 95.9004 7.70005 95.9004 8.10005C95.9004 8.50005 95.5004 8.80005 95.1004 8.80005C94.8004 8.70005 94.4004 8.40005 94.4004 8.00005Z" fill="white"/>
<path d="M96.8008 8.00005C96.8008 7.60005 97.2008 7.30005 97.6008 7.30005C98.0008 7.30005 98.3008 7.70005 98.3008 8.10005C98.3008 8.50005 97.9008 8.80005 97.5008 8.80005C97.1008 8.80005 96.8008 8.50005 96.8008 8.00005Z" fill="white"/>
<path d="M99.1006 8.10015C99.1006 7.70015 99.5006 7.40015 99.9006 7.40015C100.301 7.40015 100.601 7.80015 100.601 8.20015C100.601 8.60015 100.201 8.90015 99.8006 8.90015C99.4006 8.90015 99.1006 8.50015 99.1006 8.10015Z" fill="white"/>
<path d="M101.5 8.2C101.5 7.8 101.9 7.5 102.3 7.5C102.7 7.5 103 7.9 103 8.3C103 8.7 102.6 9 102.2 9C101.8 9 101.5 8.6 101.5 8.2Z" fill="white"/>
<path d="M103.801 8.3001C103.801 7.9001 104.201 7.6001 104.601 7.6001C105.001 7.6001 105.301 8.0001 105.301 8.4001C105.301 8.8001 104.901 9.1001 104.501 9.1001C104.101 9.0001 103.801 8.7001 103.801 8.3001Z" fill="white"/>
<path d="M191 12.7L184.9 12.5L185 9.69995L191.1 9.89995L191 12.7ZM185.2 12.2L190.6 12.4L190.7 10.2L185.3 9.99995L185.2 12.2Z" fill="white"/>
<path d="M185.523 10.1334L185.461 12.0325L189.359 12.1589L189.421 10.2598L185.523 10.1334Z" fill="white"/>
<path d="M191.066 10.5923L191.018 12.0916L191.517 12.1078L191.566 10.6085L191.066 10.5923Z" fill="white"/>
<path d="M97.7 26.4L94.5 23.2L97.9 20.2L98.4 20.7999L95.6 23.2L98.3 25.9L97.7 26.4Z" fill="white"/>
<path d="M191.101 24C191.101 24.4 190.801 24.6 190.401 24.6C190.001 24.6 189.801 24.3 189.801 23.9C189.801 23.5 190.101 23.3 190.501 23.3C190.901 23.3 191.201 23.7 191.101 24Z" fill="white"/>
<path d="M191.101 26.3001C191.101 26.7001 190.801 26.9001 190.401 26.9001C190.001 26.9001 189.801 26.6001 189.801 26.2001C189.801 25.8001 190.101 25.6001 190.501 25.6001C190.801 25.7001 191.101 26.0001 191.101 26.3001Z" fill="white"/>
<path d="M191 28.7C191 29.1 190.7 29.3 190.3 29.3C189.9 29.3 189.7 29 189.7 28.6C189.7 28.2 190 28 190.4 28C190.7 28 191 28.3 191 28.7Z" fill="white"/>
<path d="M115.4 47.1L124.4 56.7L124.9 40.8L115.6 40.5L115.4 47.1Z" fill="#DADADA"/>
<path d="M127.7 56.7999L131 56.8999L144.7 51.2999L145 41.3999L128.2 40.8999L127.7 56.7999Z" fill="#DADADA"/>
<path opacity="0.3" d="M107.601 50.6L115.101 58.6L99.1006 58.1L99.4006 50.3L107.601 50.6Z" fill="#645CA5"/>
<path d="M115.201 80.4001L123.201 68.3001L116.201 60.4001L106.401 60.1001L106.101 68.3001L111.501 68.5001L111.301 76.8001L115.201 80.4001Z" fill="#DADADA"/>
<path d="M98.4461 37.0995L98.2549 42.9966L106.951 43.2786L107.142 37.3815L98.4461 37.0995Z" fill="#DADADA"/>
<path d="M96.2 42.9L88 42.5999L88.2 36.7L90.6 36.7999L93 39.2999L96.3 39.4L96.2 42.9Z" fill="#DADADA"/>
<path d="M148.501 83.2001L137.201 94.3001L133.101 90.9001C132.001 86.8001 129.301 83.4001 125.601 81.3001L135.301 66.6001L148.501 83.2001Z" fill="#DADADA"/>
<path d="M136 99.2001L155 109.4L164.6 109.7L165.1 93.0001L150.4 85.1001L136 99.2001Z" fill="#DADADA"/>
<path d="M179.3 75.1L179.6 66.8L171.3 66.5L179.3 75.1Z" fill="#DADADA"/>
<path d="M174.972 58.0099L174.755 64.7065L179.652 64.8654L179.87 58.1687L174.972 58.0099Z" fill="#DADADA"/>
<path d="M180.2 47.5999L179.9 56L173.3 55.7L173.1 60.4L168.4 60.2L168.8 47.2L180.2 47.5999Z" fill="#DADADA"/>
<path d="M166.201 58.8001L166.501 51.1001L159.101 54.2001L163.301 58.7001L166.201 58.8001Z" fill="#DADADA"/>
<path opacity="0.3" d="M106 154.9L106.7 133.8L113 119.7L123.5 125.3L148.5 126.1L119.5 155.3L106 154.9Z" fill="#645CA5"/>
<path opacity="0.3" d="M188.552 47.8018L188.127 60.8953L197.922 61.2129L198.347 48.1194L188.552 47.8018Z" fill="#645CA5"/>
<path opacity="0.3" d="M166 187L145.3 186.3L145.4 181.1L161.2 181.6L166 187Z" fill="#645CA5"/>
<path d="M84.2807 141.755L83.7881 156.948L97.5812 157.395L98.0739 142.202L84.2807 141.755Z" fill="#DADADA"/>
<path d="M91.8464 133.105L91.6357 139.601L98.1325 139.812L98.3432 133.315L91.8464 133.105Z" fill="#DADADA"/>
<path d="M98.3998 131.4L88.2998 131.1L88.6998 121.2L103 121.7L98.3998 131.4Z" fill="#DADADA"/>
<path d="M84.433 137.4L84.3682 139.399L90.0653 139.584L90.1301 137.585L84.433 137.4Z" fill="#DADADA"/>
<path d="M84.6555 132.95L84.5518 136.148L90.2489 136.333L90.3526 133.135L84.6555 132.95Z" fill="#DADADA"/>
<path d="M167.579 98.7894L167.223 109.784L177.817 110.128L178.174 99.133L167.579 98.7894Z" fill="#DADADA"/>
<path d="M167.757 93.3796L167.634 97.1777L178.228 97.5213L178.352 93.7232L167.757 93.3796Z" fill="#DADADA"/>
<path d="M137.101 63.8L153.801 56.8L166.201 70L150.601 81.5L137.101 63.8Z" fill="#DADADA"/>
<path opacity="0.3" d="M167.5 71.8999L173.5 78.0999L165.7 84.3999L165.5 90.3999L152.4 83.0999L167.5 71.8999Z" fill="#645CA5"/>
<path d="M178.6 83.8L175 80.2L168 85.7L167.8 91.6L178.4 91.9L178.6 83.8Z" fill="#DADADA"/>
<path d="M94.2506 59.8161L93.7969 73.8091L103.192 74.1138L103.646 60.1208L94.2506 59.8161Z" fill="#DADADA"/>
<path d="M106.034 70.1192L105.931 73.3176L109.129 73.4213L109.233 70.2229L106.034 70.1192Z" fill="#DADADA"/>
<path d="M187.022 96.8764L186.584 110.37L196.379 110.687L196.817 97.194L187.022 96.8764Z" fill="#DADADA"/>
<path d="M187.101 93.8999L196.901 94.1999L197.401 78.8999L187.401 84.4999L187.101 93.8999Z" fill="#DADADA"/>
<path d="M187.5 81.2999L187.8 71.8999L197.6 72.1999L197.5 76.0999L187.5 81.2999Z" fill="#DADADA"/>
<path d="M188.11 62.4584L187.854 70.3545L191.452 70.4712L191.708 62.5751L188.11 62.4584Z" fill="#DADADA"/>
<path d="M193.54 62.6547L193.284 70.5508L197.682 70.6934L197.938 62.7974L193.54 62.6547Z" fill="#DADADA"/>
<path opacity="0.3" d="M183.867 204.746L183.3 222.237L192.695 222.541L193.262 205.05L183.867 204.746Z" fill="#645CA5"/>
<path opacity="0.3" d="M124.6 223.8L115 223.5L104.4 213.1L104.8 201L125.3 201.6L124.6 223.8Z" fill="#645CA5"/>
<path d="M91.0945 200.565L90.8838 207.061L102.878 207.45L103.088 200.953L91.0945 200.565Z" fill="#DADADA"/>
<path d="M90.7671 208.803L90.6504 212.401L102.644 212.79L102.761 209.192L90.7671 208.803Z" fill="#DADADA"/>
<path d="M86.6002 212L89.1002 212.1L89.5002 200.5L84.0002 200.3L83.7002 208.7L86.6002 212Z" fill="#DADADA"/>
<path d="M115.003 224.743L114.825 230.24L124.32 230.548L124.499 225.051L115.003 224.743Z" fill="#DADADA"/>
<path d="M112.901 223.4L112.701 230.1L89.5006 229.3C87.0006 229.2 84.7006 228.1 83.1006 226.3L83.5006 213.5L103.801 214.2L112.901 223.4Z" fill="#DADADA"/>
<path d="M149.3 137.5L158.3 128.7L166.6 128.9L166.3 138.1L149.3 137.5Z" fill="#DADADA"/>
<path d="M168.302 128.964L168.166 133.162L178.061 133.483L178.197 129.285L168.302 128.964Z" fill="#DADADA"/>
<path d="M168.191 134.316L168.067 138.114L172.465 138.257L172.588 134.459L168.191 134.316Z" fill="#DADADA"/>
<path d="M173.687 134.468L173.563 138.266L177.861 138.405L177.984 134.607L173.687 134.468Z" fill="#DADADA"/>
<path d="M179.374 129.34L179.079 138.435L185.276 138.636L185.571 129.541L179.374 129.34Z" fill="#DADADA"/>
<path d="M192.5 129.8L187.1 129.6L186.9 135.8L189.4 138.8L192.2 138.9L192.5 129.8Z" fill="#DADADA"/>
<path d="M134.7 123.2L148.6 123.6L148.8 117L140.1 112.7L134.7 123.2Z" fill="#DADADA"/>
<path d="M117.7 101.2C121.124 101.2 123.9 98.4242 123.9 95C123.9 91.5759 121.124 88.8 117.7 88.8C114.276 88.8 111.5 91.5759 111.5 95C111.5 98.4242 114.276 101.2 117.7 101.2Z" fill="#DADADA"/>
<path opacity="0.3" d="M92.9002 193.3L82.7002 193L83.2002 175.9L88.9002 176.1L93.2002 182.1L92.9002 193.3Z" fill="#645CA5"/>
<path d="M96.9 180.2L93.3 180.1L90.5 176.2L90.7 170.2L97.2 170.4L96.9 180.2Z" fill="#DADADA"/>
<path d="M94.7767 188.615L94.6211 193.413L100.318 193.597L100.474 188.8L94.7767 188.615Z" fill="#DADADA"/>
<path d="M107.2 177.3L106.7 193.8L101.6 193.6L102 180.4L98.4004 180.2L98.5004 177L107.2 177.3Z" fill="#DADADA"/>
<path d="M109.02 186.348L108.777 193.844L115.974 194.078L116.217 186.581L109.02 186.348Z" fill="#DADADA"/>
<path d="M95.0551 181.567L94.8574 187.664L100.555 187.849L100.752 181.752L95.0551 181.567Z" fill="#DADADA"/>
<path d="M174.7 170.2L175.6 144.3L193 144.9L192.7 153.7L174.7 170.2Z" fill="#DADADA"/>
<path d="M163.087 143.827L162.753 154.122L173.448 154.469L173.781 144.174L163.087 143.827Z" fill="#DADADA"/>
<path d="M123.3 163.9L134.9 152.1L148.9 152.6L148.5 164.7L123.3 163.9Z" fill="#DADADA"/>
<path d="M136.5 150.8L143.8 143.3L149.2 143.4L148.9 151.2L136.5 150.8Z" fill="#DADADA"/>
<path d="M150.758 159.703L150.593 164.801L157.189 165.014L157.355 159.917L150.758 159.703Z" fill="#DADADA"/>
<path d="M173.3 160.7L172.9 172.1L167.6 177.5L158.8 167.5L159.2 156.4L169.9 156.8L169.8 160.6L173.3 160.7Z" fill="#DADADA"/>
<path d="M181.501 193.4L172.601 183.1L183.401 173.3L189.001 179.7L181.501 193.4Z" fill="#DADADA"/>
<path d="M184.601 172L190.001 178.2L194.101 178.3L194.701 162.7L184.601 172Z" fill="#DADADA"/>
<path d="M184.1 196.7L182.8 195.2L187.7 185.6L193.9 185.8L193.3 203.5L183.9 203.2L184.1 196.7Z" fill="#DADADA"/>
<path d="M190.09 179.612L189.932 184.509L194.03 184.642L194.188 179.745L190.09 179.612Z" fill="#DADADA"/>
<path d="M132.271 221.193L132.048 228.089L141.543 228.397L141.767 221.5L132.271 221.193Z" fill="#DADADA"/>
<path d="M143.173 221.596L142.865 231.091L146.463 231.208L146.771 221.712L143.173 221.596Z" fill="#DADADA"/>
<path d="M148.218 221.805L148.104 225.303L153.102 225.465L153.215 221.967L148.218 221.805Z" fill="#DADADA"/>
<path d="M148.081 226.359L147.922 231.257L155.018 231.487L155.177 226.589L148.081 226.359Z" fill="#DADADA"/>
<path d="M163.7 222.3L163.4 231.8L156.5 231.6L156.7 225.6L154.8 225.5L154.9 222L163.7 222.3Z" fill="#DADADA"/>
<path d="M169.1 232L164.7 227.3L164.9 222.3L175.6 222.7L175.3 232.2L169.1 232Z" fill="#DADADA"/>
<path d="M192.5 224.5C191.5 229.1 187.6 232.5 183 232.4L183.3 224.2L192.5 224.5Z" fill="#DADADA"/>
<path d="M175.3 205.2L159 204.7L159.5 188.4L167.7 188.7L175.5 197.9L175.3 205.2Z" fill="#DADADA"/>
<path d="M149.654 188.096L149.32 198.39L157.316 198.65L157.65 188.355L149.654 188.096Z" fill="#DADADA"/>
<path d="M167.1 206.6L166.8 215.6L148.8 215L149.3 199.7L157.2 200L157 206.3L167.1 206.6Z" fill="#DADADA"/>
<path d="M142.269 206.089L141.987 214.785L147.684 214.97L147.966 206.274L142.269 206.089Z" fill="#DADADA"/>
<path d="M133.114 193.577L132.871 201.074L148.163 201.57L148.407 194.073L133.114 193.577Z" fill="#DADADA"/>
<path opacity="0.3" d="M142.357 202.531L142.279 204.93L147.976 205.114L148.054 202.716L142.357 202.531Z" fill="#645CA5"/>
<path d="M140.8 180.1L136.6 179.9L133.5 182.7L133.2 191L140.4 191.2L140.8 180.1Z" fill="#DADADA"/>
<path d="M174.701 192.1L154.401 169.1L100.001 167.3L101.101 132.8L107.801 118.9L88.1006 118.3L88.8006 97.7L90.0006 97.8L89.4006 117.1L109.701 117.8L102.301 133.1L101.301 166.1L155.001 167.9L155.101 168.1L175.601 191.3L174.701 192.1Z" fill="#392561"/>
<path d="M90.7002 96.6999C90.7002 97.3999 90.1002 97.8999 89.4002 97.8999C88.7002 97.8999 88.2002 97.2999 88.2002 96.5999C88.2002 95.8999 88.8002 95.3999 89.5002 95.3999C90.2002 95.4999 90.7002 95.9999 90.7002 96.6999Z" fill="#7A4695"/>
<path d="M176.4 191.9C176.4 192.6 175.8 193.1 175.1 193.1C174.4 193.1 173.9 192.5 173.9 191.8C173.9 191.1 174.5 190.6 175.2 190.6C175.9 190.6 176.4 191.2 176.4 191.9Z" fill="#7A4695"/>
<path d="M121.417 131.749L121.125 140.745L141.115 141.393L141.407 132.397L121.417 131.749Z" fill="#F4EAF5"/>
<path d="M129.2 141L132.9 141.1L131 144.4L129.2 141Z" fill="#F4EAF5"/>
<path d="M188.3 238.4L84.7997 234.4C79.5997 234.3 74.5997 228.7 74.6997 223.5L75.7997 199.6L198.8 201.9L198.3 227.8C198.1 232.2 192.7 238.5 188.3 238.4Z" fill="#E4DFF1"/>
<path d="M123.501 138.9C123.301 138.9 123.301 138.7 123.401 138.5C123.501 138.3 124.001 137.7 124.001 137.6C124.101 137.4 124.201 137.1 124.301 136.9C124.401 136.3 124.501 135.8 124.701 135.2C124.701 135.2 124.701 135.2 124.701 135.1C124.501 135.2 124.401 135.3 124.201 135.4C124.201 135.4 124.201 135.5 124.101 135.5C124.101 135.7 124.001 135.9 124.001 136.1V136.2C124.001 136.3 123.901 136.4 123.801 136.3C123.701 136.3 123.601 136.2 123.701 136.1C123.801 135.8 123.801 135.5 123.901 135.2C123.901 135.1 124.001 135.1 124.001 135.1C124.401 134.9 124.701 134.7 125.101 134.5C125.301 134.4 125.601 134.5 125.701 134.7C125.801 135 125.901 135.3 126.101 135.6C126.101 135.7 126.201 135.7 126.201 135.7L126.701 136C126.801 136.1 126.901 136.2 126.801 136.3C126.801 136.4 126.601 136.4 126.601 136.4C126.401 136.3 126.201 136.2 126.001 136.1C125.901 136.1 125.901 136 125.901 136C125.801 135.9 125.801 135.7 125.701 135.6C125.601 135.9 125.501 136.2 125.501 136.5C125.501 136.5 126.001 137.2 126.201 137.5C126.301 137.6 126.301 137.7 126.301 137.8C126.401 138.1 126.401 138.4 126.501 138.8C126.501 139 126.501 139.1 126.301 139.2C126.101 139.2 126.001 139.1 126.001 138.9C126.001 138.6 125.901 138.3 125.801 138C125.601 137.6 125.301 137.3 125.001 137C124.901 137.4 124.801 137.7 124.601 138C124.401 138 123.801 138.9 123.501 138.9Z" fill="#392561"/>
<path d="M126.001 134C126.001 134.3 125.801 134.5 125.601 134.5C125.301 134.5 125.101 134.3 125.101 134.1V134C125.101 133.7 125.301 133.5 125.501 133.5C125.801 133.5 126.001 133.7 126.001 133.9V134Z" fill="#392561"/>
<path d="M138.1 152.2C137.9 148.5 135.4 144.8 131 144.6C126.6 144.5 123.9 148 123.4 151.7C122.7 157.4 126.3 162.6 130.2 167.4C134.5 162.9 138.5 157.9 138.1 152.2ZM130.7 156C128.5 155.9 126.7 154.1 126.8 151.8C126.9 149.5 128.7 147.8 131 147.9C133.2 148 135 149.8 134.9 152.1C134.7 154.3 132.9 156.1 130.7 156Z" fill="#73378D"/>
<path d="M127.588 136.078L127.667 135.72L128.332 135.742L127.916 137.698L127.516 137.684L127.854 136.087L127.588 136.078ZM128.533 137.27C128.743 137.127 128.908 137.011 129.028 136.92C129.149 136.828 129.254 136.733 129.343 136.634C129.433 136.536 129.488 136.439 129.508 136.343C129.514 136.316 129.518 136.289 129.519 136.263C129.521 136.197 129.504 136.144 129.466 136.106C129.43 136.068 129.374 136.047 129.296 136.045C129.206 136.041 129.13 136.069 129.069 136.128C129.007 136.185 128.963 136.269 128.935 136.379L128.561 136.366C128.613 136.146 128.714 135.981 128.864 135.872C129.014 135.762 129.185 135.711 129.377 135.717C129.56 135.723 129.697 135.772 129.788 135.862C129.879 135.95 129.922 136.065 129.918 136.207C129.916 136.253 129.911 136.295 129.902 136.332C129.874 136.469 129.807 136.6 129.703 136.724C129.599 136.848 129.487 136.957 129.367 137.051C129.248 137.143 129.093 137.254 128.904 137.382L129.721 137.41L129.652 137.73L128.286 137.683L128.346 137.396L128.533 137.27ZM130.105 136.76C130.171 136.452 130.28 136.21 130.432 136.036C130.586 135.862 130.797 135.78 131.064 135.789C131.467 135.803 131.661 136.027 131.646 136.463C131.642 136.574 131.627 136.69 131.601 136.811C131.46 137.478 131.14 137.803 130.641 137.786C130.238 137.772 130.044 137.546 130.059 137.108C130.063 136.997 130.078 136.881 130.105 136.76ZM131.219 136.798C131.245 136.675 131.26 136.573 131.262 136.492C131.266 136.387 131.247 136.304 131.204 136.243C131.164 136.182 131.092 136.15 130.988 136.147C130.841 136.142 130.731 136.194 130.658 136.305C130.586 136.415 130.529 136.571 130.487 136.773C130.461 136.896 130.446 136.998 130.443 137.08C130.44 137.187 130.458 137.271 130.498 137.331C130.541 137.392 130.614 137.424 130.717 137.428C130.821 137.431 130.905 137.405 130.969 137.35C131.034 137.295 131.085 137.223 131.121 137.133C131.158 137.042 131.19 136.93 131.219 136.798ZM133.437 136.91L134.052 137.908L133.559 137.891L133.04 137.01L132.858 137.867L132.467 137.854L132.877 135.931L133.265 135.944L133.083 136.807L133.969 135.969L134.437 135.985L133.437 136.91ZM136.823 136.066L136.416 137.989L136.025 137.975L136.29 136.73L135.51 137.958L135.214 137.948L134.96 136.682L134.695 137.93L134.305 137.916L134.714 135.994L135.155 136.009L135.469 137.457L136.383 136.051L136.823 136.066ZM138.391 135.429L136.982 138.51L136.605 138.497L138.012 135.416L138.391 135.429ZM140.159 136.18L139.752 138.103L139.361 138.089L139.536 137.266L138.71 137.238L138.535 138.061L138.145 138.048L138.554 136.125L138.942 136.139L138.774 136.935L139.602 136.963L139.771 136.167L140.159 136.18Z" fill="#392561"/>
<path d="M195.8 3.40001L91.5002 1.29482e-05C85.6002 -0.0999871 80.7002 4.50001 80.6002 10.4L73.6002 225.3C73.4002 231.2 77.9002 236.1 83.8002 236.4L188.2 239.8C194.1 239.9 199 235.3 199.1 229.4L206.1 14.5C206.3 8.60001 201.7 3.60001 195.8 3.40001ZM194.9 227C194.7 232.7 187.5 237.1 182.3 236.9L88.9002 233.9C83.7002 233.7 76.6002 229.3 76.8002 223.6L84.4002 14.2C84.8002 2.70001 91.9002 3.20001 97.1002 3.30001L115.8 4.00001C116.9 4.00001 117.7 5.30001 117.7 6.80001V7.50001C117.6 11.1 119.5 11.2 122 11.2L165.3 12.6C167.7 12.7 169.7 12.7 169.8 9.10001V8.40001C169.9 6.90001 170.8 5.70001 171.9 5.70001L190.6 6.30001C195.8 6.50001 203.5 7.60001 203.1 18.1L194.9 227Z" fill="url(#paint0_linear_973_3789)"/>
<path d="M74.7 141.6C74.7 141.6 75.4 144.2 77 145.4L78.9 124C78.9 124 92.2 109.1 89 88.9999C87.9 82.0999 84.5 75.7999 79.2 71.1999C76.2 68.5999 72.9 66.7999 71 69.2999C71 69.2999 55.9 105.3 45.5 131.6L74.7 141.6Z" fill="#BA5738"/>
<path d="M73.7 90.4C77.9 88.5 80.1 77.5999 80.8 72.6999C77.4 69.2999 73.2 66.2999 70.9 69.1999C70.9 69.1999 67.6 77.0999 63 88.1999C66.2 90.0999 70.5 91.9 73.7 90.4Z" fill="#E27356"/>
<path d="M25 275.6C34.2 281.2 63.7 298.1 94.2 301.7C96 301.9 97.2 303.5 96.7 305L91.4 319.3C91 320.2 90 320.8 88.8 320.7C79.8 319.6 42.7 314 16.6 293.8C15.7 293.1 15.3 292.1 15.7 291.2L21.1 276.6C21.5 275.2 23.5 274.7 25 275.6Z" fill="#463B1F"/>
<path d="M22.5001 289.4L22.0001 289.2C21.6001 289 21.4001 288.6 21.5001 288.1L23.3001 283.3C23.5001 282.9 23.9001 282.7 24.4001 282.8L24.9001 283C25.3001 283.2 25.5001 283.6 25.4001 284.1L23.6001 288.9C23.4001 289.3 22.9001 289.5 22.5001 289.4Z" fill="#002A24"/>
<path d="M28.0002 292.7L27.5002 292.5C27.1002 292.3 26.8002 291.9 27.0002 291.4L28.8002 286.6C29.0002 286.2 29.4002 285.9 29.9002 286.1L30.4002 286.3C30.8002 286.5 31.1002 286.9 30.9002 287.4L29.1002 292.2C28.9002 292.7 28.4002 292.9 28.0002 292.7Z" fill="#002A24"/>
<path d="M33.3996 296.1L32.8996 295.9C32.4996 295.7 32.1996 295.3 32.3996 294.8L34.1996 290C34.3996 289.6 34.7996 289.3 35.2996 289.5L35.7996 289.7C36.1996 289.9 36.4996 290.3 36.2996 290.8L34.4996 295.6C34.3996 296 33.8996 296.3 33.3996 296.1Z" fill="#002A24"/>
<path d="M39.0998 298.8L38.5998 298.6C38.1998 298.4 37.8998 298 38.0998 297.5L39.8998 292.7C40.0998 292.3 40.4998 292 40.9998 292.2L41.4998 292.4C41.8998 292.6 42.1998 293 41.9998 293.5L40.1998 298.3C39.9998 298.8 39.4998 299 39.0998 298.8Z" fill="#002A24"/>
<path d="M44.7004 302L44.2004 301.8C43.8004 301.6 43.5004 301.2 43.7004 300.7L45.5004 295.9C45.7004 295.5 46.1004 295.2 46.6004 295.4L47.1004 295.6C47.5004 295.8 47.8004 296.2 47.6004 296.7L45.8004 301.5C45.6004 302 45.1004 302.2 44.7004 302Z" fill="#002A24"/>
<path d="M50.5002 304.5L50.0002 304.3C49.6002 304.1 49.3002 303.7 49.5002 303.2L51.3002 298.4C51.5002 298 51.9002 297.7 52.4002 297.9L52.9002 298.1C53.3002 298.3 53.6002 298.7 53.4002 299.2L51.6002 304C51.4002 304.5 50.9002 304.7 50.5002 304.5Z" fill="#002A24"/>
<path d="M56.4005 306.7L55.9005 306.5C55.5005 306.3 55.3005 305.9 55.4005 305.4L57.2005 300.6C57.4005 300.2 57.8005 300 58.3005 300.1L58.8005 300.3C59.2005 300.5 59.4005 300.9 59.3005 301.4L57.5005 306.2C57.3005 306.7 56.8005 306.9 56.4005 306.7Z" fill="#002A24"/>
<path d="M62.3996 308.6L61.8996 308.4C61.4996 308.2 61.1996 307.8 61.3996 307.3L63.1996 302.5C63.3996 302.1 63.7996 301.8 64.2996 302L64.7996 302.2C65.1996 302.4 65.4996 302.8 65.2996 303.3L63.4996 308.1C63.3996 308.6 62.8996 308.8 62.3996 308.6Z" fill="#002A24"/>
<path d="M68.7003 309.9L68.2003 309.7C67.8003 309.5 67.6003 309.1 67.7003 308.6L69.5003 303.8C69.7003 303.4 70.1003 303.2 70.6003 303.3L71.1003 303.5C71.5003 303.7 71.7003 304.1 71.6003 304.6L69.8003 309.4C69.6003 309.8 69.2003 310.1 68.7003 309.9Z" fill="#002A24"/>
<path d="M74.9005 311.6L74.4005 311.4C74.0005 311.2 73.8005 310.8 73.9005 310.3L75.7005 305.5C75.9005 305.1 76.3005 304.9 76.8005 305L77.3005 305.2C77.7005 305.4 77.9005 305.8 77.8005 306.3L76.0005 311.1C75.8005 311.5 75.3005 311.8 74.9005 311.6Z" fill="#002A24"/>
<path d="M81.2004 312.7L80.7004 312.5C80.3004 312.3 80.0004 311.9 80.2004 311.4L82.0004 306.6C82.2004 306.2 82.6004 305.9 83.1004 306.1L83.6004 306.3C84.0004 306.5 84.3004 306.9 84.1004 307.4L82.3004 312.2C82.1004 312.6 81.6004 312.8 81.2004 312.7Z" fill="#002A24"/>
<path d="M87.5997 313.7L87.0997 313.5C86.6997 313.3 86.4997 312.9 86.5997 312.4L88.3997 307.6C88.5997 307.2 88.9997 307 89.4997 307.1L89.9997 307.3C90.3997 307.5 90.5997 307.9 90.4997 308.4L88.6997 313.2C88.4997 313.6 87.9997 313.9 87.5997 313.7Z" fill="#002A24"/>
<path d="M43.1002 308.7C43.0002 308.6 42.9002 308.6 42.8002 308.6L35.6002 305.9C34.9002 305.6 34.5002 304.8 34.8002 304L41.3002 286.6C41.6002 285.8 42.4002 285.4 43.1002 285.7L50.3002 288.4C50.7002 288.6 51.0002 288.9 51.1002 289.3C51.7002 289.5 52.2002 289.8 52.8002 290C53.0002 288.5 52.2002 287.1 50.9002 286.6L43.7002 283.9C42.1002 283.3 40.3002 284.2 39.7002 285.9L33.2002 303.3C32.6002 305 33.3002 306.9 34.9002 307.5L42.1002 310.2C43.2002 310.6 44.4002 310.3 45.2002 309.5C44.5002 309.3 43.8002 309 43.1002 308.7Z" fill="#EDF6F7"/>
<path d="M41.4998 294.9L38.3998 293.7C37.7998 293.5 37.1998 293.8 36.9998 294.4C36.7998 295 36.9998 295.7 37.5998 295.9L40.6998 297.1L41.4998 294.9Z" fill="#B5D173"/>
<path d="M176.6 226.9L154.4 226.1C151.2 226 148.6 223.3 148.7 220L148.8 216.5C148.9 213.3 151.6 210.7 154.9 210.8L177.1 211.6C180.3 211.7 182.9 214.4 182.8 217.7L182.7 221.2C182.5 224.5 179.8 227 176.6 226.9Z" fill="#E10A17"/>
<path d="M156.342 222.972C155.714 222.951 155.203 222.793 154.806 222.498C154.416 222.198 154.229 221.791 154.247 221.277C154.249 221.223 154.258 221.143 154.273 221.036L155.554 221.08C155.522 221.33 155.58 221.538 155.73 221.705C155.886 221.871 156.116 221.96 156.421 221.97C156.725 221.981 156.966 221.926 157.144 221.807C157.327 221.681 157.423 221.499 157.432 221.261C157.439 221.04 157.353 220.86 157.172 220.722C156.997 220.585 156.719 220.429 156.336 220.254C155.983 220.093 155.695 219.946 155.472 219.812C155.255 219.679 155.07 219.5 154.916 219.273C154.769 219.041 154.701 218.755 154.713 218.414C154.726 218.026 154.836 217.692 155.043 217.412C155.256 217.132 155.538 216.921 155.89 216.777C156.247 216.634 156.65 216.57 157.098 216.585C157.54 216.6 157.92 216.688 158.237 216.849C158.561 217.003 158.798 217.218 158.951 217.492C159.109 217.766 159.17 218.082 159.133 218.44L157.799 218.394L157.811 218.296C157.818 218.099 157.749 217.935 157.603 217.804C157.464 217.674 157.264 217.604 157.001 217.596C156.72 217.586 156.491 217.644 156.313 217.769C156.136 217.895 156.043 218.071 156.035 218.298C156.03 218.447 156.073 218.58 156.165 218.697C156.263 218.808 156.382 218.908 156.522 218.996C156.663 219.079 156.866 219.187 157.13 219.322C157.477 219.489 157.762 219.645 157.984 219.791C158.206 219.936 158.394 220.125 158.548 220.357C158.701 220.589 158.772 220.87 158.761 221.198C158.749 221.557 158.639 221.873 158.433 222.147C158.232 222.421 157.95 222.633 157.586 222.782C157.228 222.925 156.813 222.988 156.342 222.972ZM165.017 216.946L164.804 217.925L163.147 217.868L162.035 223.104L160.772 223.061L161.884 217.825L160.218 217.768L160.431 216.789L165.017 216.946ZM167.535 223.355C167.009 223.337 166.547 223.211 166.149 222.976C165.756 222.735 165.457 222.414 165.249 222.012C165.042 221.604 164.947 221.144 164.964 220.63C164.989 219.914 165.169 219.274 165.505 218.711C165.847 218.149 166.305 217.716 166.877 217.413C167.456 217.104 168.097 216.961 168.802 216.986C169.334 217.004 169.796 217.13 170.188 217.365C170.587 217.6 170.89 217.921 171.097 218.329C171.305 218.73 171.4 219.185 171.382 219.693C171.357 220.421 171.177 221.067 170.841 221.629C170.505 222.192 170.047 222.628 169.469 222.937C168.89 223.24 168.246 223.379 167.535 223.355ZM167.754 222.205C168.202 222.221 168.6 222.121 168.948 221.905C169.302 221.69 169.578 221.395 169.776 221.019C169.981 220.637 170.091 220.219 170.106 219.766C170.123 219.276 169.999 218.886 169.734 218.596C169.469 218.306 169.088 218.152 168.592 218.135C168.15 218.12 167.752 218.22 167.398 218.435C167.05 218.651 166.774 218.946 166.57 219.322C166.372 219.698 166.265 220.113 166.249 220.566C166.232 221.056 166.354 221.449 166.612 221.745C166.878 222.035 167.258 222.188 167.754 222.205ZM177.11 219.297C177.039 219.629 176.894 219.938 176.675 220.223C176.456 220.509 176.158 220.735 175.782 220.901C175.411 221.068 174.969 221.143 174.456 221.125L173.408 221.089L172.905 223.476L171.641 223.433L172.966 217.218L175.268 217.296C175.907 217.318 176.386 217.478 176.705 217.776C177.024 218.068 177.175 218.45 177.159 218.922C177.154 219.059 177.138 219.184 177.11 219.297ZM174.615 220.144C174.955 220.156 175.227 220.081 175.43 219.921C175.633 219.76 175.766 219.538 175.829 219.253C175.843 219.199 175.852 219.122 175.855 219.02C175.871 218.549 175.587 218.303 175.001 218.283L174.016 218.249L173.621 220.11L174.615 220.144Z" fill="white"/>
<path d="M189.9 261.2C189.9 261.2 174.4 262.5 173.9 266.6C173.4 270.7 174.6 278 189.2 279.4H204.4C204.4 279.4 199.9 266.8 200.1 266.4C200.2 265.9 189.9 261.2 189.9 261.2Z" fill="#BA5738"/>
<path d="M165.1 322.6C163 323.7 162.3 326.4 163.5 328.4C170.6 340.7 199 389.6 201.5 393.5C204.4 398.1 211.6 408.8 235.3 414.3C259 419.8 268.8 435.8 268.8 435.8H341.9C341.9 435.8 324.7 408.5 310.4 337.6C310.4 337.6 299.3 278.8 278.5 280.7C278.5 280.7 265.8 267.4 253.5 270C253.5 270 230.1 256 216.8 256L184.8 218.2C181.6 214.5 176 213.7 172.2 216.7C170.9 217.7 170 218.9 169.7 220.6C168.7 226.8 176.9 242.4 189.9 261.2C202.9 280.1 235.1 339.9 221.1 366.2C221.1 366.2 206.8 355.5 194.4 338.2C184 323.9 171.8 319 165.1 322.6Z" fill="#BA5738"/>
<path d="M216.9 256.1C221.1 259.7 225.1 263.7 228.9 267.8C232.6 271.9 236.2 276.3 239.5 280.8C242.5 284.9 246 290.5 248.2 295.2C251.2 301.3 252.6 305.9 253.5 311.1H253.4C252.3 305.7 250.1 300.5 247.5 295.5C245.7 292 242.2 286.2 238.6 281.3C235.4 276.8 231.9 272.4 228.2 268.2C224.8 264.3 220.5 259.7 216.9 256.1Z" fill="#5E2617"/>
<path d="M253.3 269.9C256.8 271.7 259.8 274.1 262.6 276.9C267.7 282.1 271.9 289.1 274 297.1C274.8 300.6 275.4 303 275.5 308.6H275.4C275.1 304.8 274.4 301 273.3 297.3C270.9 289.6 267.3 283.1 262.1 277.4C259.5 274.8 256.3 271.9 253.3 269.9Z" fill="#5E2617"/>
<path d="M278.3 280.5C281.4 282.8 284.4 286.9 285.9 289.7C289.4 295.7 291 302 291.3 308.7H291.2C289.9 301.2 288.6 296.9 285.1 290.1C283.9 287.8 281 283.3 278.3 280.5Z" fill="#5E2617"/>
<path d="M179.8 337.7C180.4 334.4 176.6 329.2 173.1 325.3C170.9 322.8 167.5 321.9 164.5 323C162.8 324.2 162.3 326.6 163.4 328.5C165.3 331.8 168.8 337.8 172.8 344.8C175.9 343.1 179.2 340.8 179.8 337.7Z" fill="#E27356"/>
<path d="M182.9 233.1C184.7 232.7 193.1 229.9 192.6 228.4L184.3 218.6C182.7 216.7 180.4 215.5 178 215.3C177.9 215.3 177.8 215.3 177.6 215.3C176.5 215.3 173.8 215.6 173.2 218.6C172.6 221.6 177.5 228.8 179.7 231.8C180.4 232.8 181.7 233.3 182.9 233.1Z" fill="#E27356"/>
<path d="M268.8 435.8H341.9C341.9 435.8 330.6 417.9 318.7 373.5C313.5 406.2 284.7 404.3 273.3 406.1C260.1 408.2 209.1 397.5 201.9 394.2C205.1 399.1 212.6 409.1 235.3 414.3C259 419.9 268.8 435.8 268.8 435.8Z" fill="#BA5738"/>
<path opacity="0.63" d="M193.6 267.2C207.9 290.2 233.7 343.2 220.9 366.3L221.1 366.5C225.6 370.9 233.3 368.8 234.7 362.6C237.5 350.7 236.9 329.8 216.7 298.8C208.9 286.7 201 276.2 193.6 267.2Z" fill="#BA5738"/>
<path d="M127.961 209.473L88.6846 208.13L88.1311 224.32L127.407 225.663L127.961 209.473Z" fill="#F4EAF5" stroke="#E42320" stroke-width="0.4621" stroke-miterlimit="10"/>
<path d="M94.0917 216.217C94.089 216.016 94.0391 215.863 93.942 215.759C93.8449 215.655 93.6863 215.6 93.4662 215.592C93.1359 215.581 92.8657 215.706 92.6555 215.967C92.4455 216.223 92.2728 216.649 92.1375 217.243C92.2972 217.057 92.4985 216.915 92.7414 216.818C92.9845 216.716 93.2353 216.67 93.4937 216.678C93.9005 216.692 94.2174 216.816 94.4442 217.049C94.671 217.282 94.7774 217.604 94.7633 218.016C94.7581 218.169 94.7414 218.307 94.7132 218.431C94.6441 218.769 94.5141 219.068 94.3231 219.33C94.1322 219.587 93.8882 219.785 93.5912 219.923C93.299 220.062 92.9686 220.125 92.6001 220.112C92.0401 220.093 91.6428 219.941 91.4082 219.655C91.1736 219.369 91.0654 218.96 91.0835 218.429C91.0938 218.127 91.1445 217.767 91.2355 217.349C91.4186 216.478 91.7068 215.827 92.1001 215.394C92.4984 214.958 93.023 214.75 93.6739 214.773C94.1764 214.79 94.5379 214.939 94.7583 215.219C94.9787 215.5 95.0676 215.843 95.025 216.249L94.0917 216.217ZM93.0922 217.491C92.8385 217.483 92.6086 217.549 92.4025 217.69C92.2012 217.832 92.0718 218.043 92.0143 218.324C91.9973 218.4 91.9876 218.474 91.9852 218.546C91.9776 218.766 92.0364 218.938 92.1616 219.062C92.2915 219.186 92.4809 219.253 92.7298 219.261C92.993 219.27 93.2159 219.199 93.3984 219.047C93.5808 218.895 93.7006 218.686 93.7576 218.42C93.7748 218.339 93.7846 218.262 93.787 218.191C93.7942 217.98 93.74 217.813 93.6245 217.689C93.5089 217.565 93.3315 217.499 93.0922 217.491ZM95.6957 217.58C95.8668 216.781 96.1493 216.156 96.5433 215.705C96.942 215.253 97.4884 215.04 98.1824 215.063C99.2258 215.099 99.7282 215.682 99.6895 216.811C99.6797 217.098 99.6407 217.399 99.5725 217.713C99.2067 219.44 98.3778 220.281 97.0855 220.237C96.0421 220.201 95.5398 219.616 95.5786 218.482C95.5884 218.195 95.6275 217.894 95.6957 217.58ZM98.5817 217.679C98.6501 217.36 98.6879 217.096 98.6951 216.885C98.7045 216.612 98.6543 216.397 98.5447 216.24C98.4398 216.083 98.2534 216 97.9854 215.991C97.6025 215.978 97.3175 216.114 97.1304 216.4C96.9434 216.686 96.7954 217.091 96.6864 217.614C96.618 217.933 96.5802 218.197 96.573 218.408C96.5635 218.686 96.6112 218.903 96.7161 219.06C96.8257 219.217 97.0145 219.3 97.2825 219.309C97.5506 219.318 97.7685 219.252 97.9363 219.109C98.1041 218.966 98.2351 218.779 98.3292 218.547C98.4236 218.311 98.5077 218.021 98.5817 217.679ZM104.33 217.969L105.923 220.553L104.645 220.51L103.3 218.228L102.829 220.448L101.817 220.413L102.878 215.432L103.883 215.467L103.412 217.7L105.707 215.529L106.92 215.571L104.33 217.969ZM113.102 215.782L112.048 220.763L111.035 220.728L111.721 217.503L109.7 220.683L108.932 220.656L108.275 217.378L107.589 220.61L106.577 220.576L107.639 215.595L108.78 215.634L109.593 219.385L111.96 215.743L113.102 215.782ZM117.165 214.131L113.514 222.114L112.537 222.08L116.181 214.097L117.165 214.131ZM121.744 216.077L120.689 221.058L119.677 221.024L120.131 218.89L117.992 218.817L117.538 220.95L116.525 220.916L117.587 215.935L118.592 215.97L118.155 218.032L120.302 218.105L120.739 216.043L121.744 216.077ZM123.513 220.206L122.283 218.554L124.19 217.009L125.454 217.052L123.546 218.597L124.777 220.249L123.513 220.206Z" fill="#E10A17"/>
</g>
<defs>
<linearGradient id="paint0_linear_973_3789" x1="73.5837" y1="119.889" x2="206.078" y2="119.889" gradientUnits="userSpaceOnUse">
<stop offset="0.1869" stop-color="#3A235A"/>
<stop offset="0.9343" stop-color="#3A235A"/>
</linearGradient>
<clipPath id="clip0_973_3789">
<rect width="341.9" height="435.8" fill="white"/>
</clipPath>
</defs>
</svg>
