<svg width="46" height="46" viewBox="0 0 46 46" fill="none" xmlns="http://www.w3.org/2000/svg">
<circle cx="22.8722" cy="22.8722" r="22.8722" fill="#6610F2"/>
<path d="M29.9246 27.21C28.9858 27.2109 28.0847 27.6303 27.415 28.3782L17.9738 23.5969C17.9738 23.4339 17.9738 23.2981 17.9738 23.1351C17.9738 22.9721 17.9738 22.8363 17.9738 22.6869L27.415 17.892C28.0063 18.5508 28.7801 18.9567 29.6048 19.0406C30.4296 19.1246 31.2545 18.8815 31.9394 18.3526C32.6243 17.8237 33.1271 17.0416 33.3623 16.1392C33.5974 15.2368 33.5505 14.2697 33.2295 13.4022C32.9085 12.5346 32.3332 11.8201 31.6012 11.38C30.8693 10.9399 30.0259 10.8013 29.2143 10.9878C28.4026 11.1743 27.6728 11.6743 27.1487 12.403C26.6247 13.1317 26.3387 14.0441 26.3394 14.9852V15.4471L16.8982 20.2283C16.3943 19.6656 15.7554 19.2847 15.0617 19.1333C14.3679 18.9819 13.6503 19.0668 12.9989 19.3773C12.3475 19.6878 11.7913 20.2101 11.4001 20.8787C11.009 21.5472 10.8003 22.3322 10.8003 23.1351C10.8003 23.938 11.009 24.723 11.4001 25.3915C11.7913 26.0601 12.3475 26.5824 12.9989 26.8929C13.6503 27.2034 14.3679 27.2883 15.0617 27.1369C15.7554 26.9855 16.3943 26.6046 16.8982 26.0419L26.3394 30.8367V31.285C26.3394 32.0909 26.5496 32.8788 26.9436 33.5489C27.3376 34.219 27.8975 34.7413 28.5526 35.0497C29.2077 35.3582 29.9286 35.4389 30.6241 35.2816C31.3196 35.1244 31.9584 34.7363 32.4598 34.1664C32.9612 33.5965 33.3027 32.8704 33.441 32.08C33.5793 31.2895 33.5083 30.4702 33.237 29.7256C32.9656 28.981 32.5061 28.3446 31.9165 27.8968C31.3269 27.449 30.6337 27.21 29.9246 27.21Z" fill="#F4D1FF"/>
</svg>
