<svg width="46" height="46" viewBox="0 0 46 46" fill="none" xmlns="http://www.w3.org/2000/svg">
<circle cx="22.8722" cy="22.8722" r="22.8722" fill="#6610F2"/>
<path d="M29.1844 23.924C29.9104 23.924 30.4989 24.5125 30.4989 25.2385C30.4989 25.9126 29.9915 26.4682 29.3377 26.5441L29.1844 26.553H13.956L18.2835 30.8815C18.7573 31.3553 18.7938 32.1009 18.3928 32.6166L18.2835 32.7404C17.8096 33.2143 17.064 33.2507 16.5483 32.8498L16.4245 32.7404L9.852 26.168C9.05992 25.3759 9.56207 24.046 10.6321 23.9318L10.7815 23.924H29.1844ZM28.673 12.3692L28.7968 12.4785L35.3693 19.051C36.1614 19.8431 35.6592 21.173 34.5892 21.2871L34.4398 21.295H16.0368C15.3109 21.295 14.7223 20.7065 14.7223 19.9805C14.7223 19.3064 15.2298 18.7508 15.8835 18.6748L16.0368 18.666H31.2653L26.9378 14.3375C26.464 13.8636 26.4275 13.118 26.8285 12.6023L26.9378 12.4785C27.4117 12.0047 28.1573 11.9682 28.673 12.3692Z" fill="#F4D1FF"/>
</svg>
