<svg width="3" height="4" viewBox="0 0 3 4" fill="none" xmlns="http://www.w3.org/2000/svg">
<path d="M1.44518 3.1324C1.21108 3.1324 0.982251 3.05909 0.787648 2.92174C0.593045 2.78439 0.441421 2.58919 0.351972 2.36084C0.262523 2.13249 0.23927 1.88126 0.285155 1.63895C0.331041 1.39664 0.444003 1.17415 0.609741 0.999641C0.775479 0.825132 0.986542 0.706452 1.21621 0.658624C1.44588 0.610796 1.68383 0.63597 1.89994 0.73096C2.11605 0.82595 2.3006 0.986485 2.43023 1.19224C2.55986 1.398 2.62874 1.63973 2.62816 1.88683C2.62737 2.21746 2.50239 2.53427 2.28063 2.76777C2.05886 3.00127 1.75841 3.1324 1.44518 3.1324Z" fill="#F4D1FF"/>
</svg>
