<svg width="46" height="46" viewBox="0 0 46 46" fill="none" xmlns="http://www.w3.org/2000/svg">
<circle cx="22.8722" cy="22.8722" r="22.8722" fill="#6610F2"/>
<path d="M31.2507 16.7407H14.1352C12.7173 16.7407 11.5679 17.9894 11.5679 19.5296V30.6852C11.5679 32.2255 12.7173 33.4741 14.1352 33.4741H31.2507C32.6686 33.4741 33.8181 32.2255 33.8181 30.6852V19.5296C33.8181 17.9894 32.6686 16.7407 31.2507 16.7407Z" stroke="#F4D1FF" stroke-width="4.31" stroke-linejoin="round"/>
<path d="M31.0026 16.7405V14.9974C31.0024 14.5699 30.9154 14.1477 30.7478 13.7609C30.5802 13.3741 30.336 13.0323 30.0328 12.7598C29.7295 12.4873 29.3747 12.2909 28.9935 12.1846C28.6123 12.0782 28.2142 12.0646 27.8276 12.1446L13.7415 14.7563C13.1298 14.8829 12.578 15.2375 12.1812 15.7588C11.7844 16.2801 11.5674 16.9356 11.5679 17.612V20.459" stroke="#F4D1FF" stroke-width="4.31" stroke-linejoin="round"/>
<path d="M28.6832 26.9666C28.3447 26.9666 28.0138 26.8575 27.7323 26.6532C27.4509 26.4489 27.2315 26.1586 27.102 25.8188C26.9724 25.4791 26.9385 25.1052 27.0046 24.7446C27.0706 24.3839 27.2336 24.0526 27.473 23.7926C27.7123 23.5326 28.0173 23.3555 28.3493 23.2838C28.6813 23.212 29.0255 23.2489 29.3382 23.3896C29.651 23.5303 29.9183 23.7686 30.1063 24.0744C30.2944 24.3801 30.3948 24.7396 30.3948 25.1073C30.3948 25.6004 30.2145 26.0733 29.8935 26.422C29.5725 26.7707 29.1372 26.9666 28.6832 26.9666Z" fill="#F4D1FF"/>
</svg>
