<svg width="46" height="46" viewBox="0 0 46 46" fill="none" xmlns="http://www.w3.org/2000/svg">
<circle cx="22.8722" cy="22.8722" r="22.8722" fill="#6610F2"/>
<path d="M33.8619 15.4673H33.2809C33.4594 14.9764 33.5551 14.4578 33.5639 13.9337C33.5327 12.6863 33.0232 11.5022 32.1467 10.6402C31.2703 9.7782 30.098 9.30824 28.8861 9.33296C27.6951 9.35944 26.5329 9.71506 25.5212 10.3626C24.5095 11.0101 23.6856 11.9257 23.1356 13.0135C22.5856 11.9257 21.7617 11.0101 20.75 10.3626C19.7383 9.71506 18.5761 9.35944 17.3851 9.33296C16.1732 9.30824 15.0009 9.7782 14.1245 10.6402C13.248 11.5022 12.7385 12.6863 12.7073 13.9337C12.7161 14.4578 12.8118 14.9764 12.9903 15.4673H12.4093C12.0173 15.5056 11.6365 15.6235 11.2891 15.8143C10.9416 16.005 10.6343 16.2647 10.3849 16.5785C10.1356 16.8922 9.9491 17.2537 9.83629 17.6421C9.72349 18.0305 9.68659 18.438 9.72773 18.8411V24.362C9.65814 25.1046 9.84361 25.8489 10.2519 26.4653C10.6602 27.0817 11.2654 27.5313 11.9624 27.7359V34.4376C12.0084 35.1332 12.3155 35.7831 12.8188 36.2497C13.3221 36.7163 13.982 36.9629 14.6588 36.9374H31.6123C32.2989 36.9623 32.9673 36.7073 33.4723 36.2277C33.9772 35.7482 34.2778 35.0828 34.3088 34.3763V27.7359C35.0058 27.5313 35.611 27.0817 36.0193 26.4653C36.4276 25.8489 36.6131 25.1046 36.5435 24.362V18.8411C36.5846 18.438 36.5477 18.0305 36.4349 17.6421C36.3221 17.2537 36.1356 16.8922 35.8863 16.5785C35.6369 16.2647 35.3296 16.005 34.9821 15.8143C34.6347 15.6235 34.2539 15.5056 33.8619 15.4673ZM33.5639 18.8411V24.362C33.5818 24.4634 33.5818 24.5673 33.5639 24.6687H24.6254V18.5344H33.5639C33.5818 18.6358 33.5818 18.7397 33.5639 18.8411ZM28.8861 12.4001C29.3081 12.3748 29.7229 12.5215 30.0407 12.8085C30.3585 13.0954 30.5538 13.4997 30.5844 13.9337C30.5538 14.3677 30.3585 14.7719 30.0407 15.0589C29.7229 15.3459 29.3081 15.4926 28.8861 15.4673H25.2213C25.4819 14.648 25.966 13.9232 26.6159 13.3794C27.2657 12.8355 28.0538 12.4956 28.8861 12.4001ZM15.6868 13.9337C15.7174 13.4997 15.9127 13.0954 16.2305 12.8085C16.5483 12.5215 16.9631 12.3748 17.3851 12.4001C18.2148 12.4984 18.9997 12.8396 19.6466 13.3832C20.2936 13.9269 20.7754 14.6502 21.035 15.4673H17.3851C16.9631 15.4926 16.5483 15.3459 16.2305 15.0589C15.9127 14.7719 15.7174 14.3677 15.6868 13.9337ZM12.7073 18.8411C12.6894 18.7397 12.6894 18.6358 12.7073 18.5344H21.6458V24.6687H12.7073C12.6894 24.5673 12.6894 24.4634 12.7073 24.362V18.8411ZM14.9419 27.7359H21.6458V33.8702H14.9419V27.7359ZM24.6254 33.8702V27.7359H31.3293V33.8702H24.6254Z" fill="#F4D1FF"/>
</svg>
