<svg width="488" height="533" viewBox="0 0 488 533" fill="none" xmlns="http://www.w3.org/2000/svg">
<g clip-path="url(#clip0_631_171)">
<path d="M248.256 225.885C247.086 225.885 247.086 231.642 244 235.693C241.339 239.211 237.189 240.17 237.189 241.662C237.189 243.048 241.233 243.261 244.213 246.886C246.766 249.977 247.405 255.733 248.575 255.733C249.746 255.733 249.427 250.297 252.406 246.566C255.386 242.728 259.536 242.622 259.536 241.342C259.536 240.063 254.747 238.997 252.193 235.373C249.533 231.642 249.64 225.885 248.256 225.885Z" fill="#8815AD"/>
<path d="M226.549 264.048C226.017 264.048 226.017 266.5 224.74 268.312C223.569 269.911 221.76 270.231 221.76 270.977C221.76 271.617 223.569 271.724 224.846 273.216C225.91 274.602 226.23 277.054 226.762 277.054C227.294 277.054 227.081 274.708 228.464 273.109C229.741 271.404 231.55 271.404 231.55 270.871C231.55 270.338 229.422 269.805 228.358 268.312C226.974 266.607 227.081 264.048 226.549 264.048Z" fill="#8815AD"/>
<path d="M23.5169 409.877C22.3464 409.877 22.3464 415.634 19.2605 419.684C16.6002 423.202 12.4502 424.162 12.4502 425.654C12.4502 427.04 16.4938 427.253 19.4733 430.877C22.0272 433.969 22.6656 439.725 23.8362 439.725C25.0067 439.725 24.6874 434.289 27.6669 430.558C30.6464 426.72 34.7965 426.613 34.7965 425.334C34.7965 424.055 30.008 422.989 27.4541 419.365C24.6874 415.634 24.9003 409.877 23.5169 409.877Z" fill="#996DF7"/>
<path d="M4.78849 451.238C4.25643 451.238 4.25643 453.69 2.9795 455.502C1.80898 457.101 0 457.421 0 458.167C0 458.806 1.80898 458.913 3.08591 460.405C4.15002 461.791 4.46925 464.243 5.00131 464.243C5.53336 464.243 5.32054 461.898 6.70388 460.299C7.98081 458.593 9.78979 458.593 9.78979 458.06C9.78979 457.527 7.66158 456.994 6.59747 455.502C5.32054 453.796 5.42695 451.238 4.78849 451.238Z" fill="#996DF7"/>
<path d="M476.827 344.211C475.656 344.211 475.656 349.968 472.571 354.019C469.91 357.536 465.76 358.496 465.76 359.988C465.76 361.374 469.804 361.587 472.783 365.212C475.337 368.303 475.976 374.059 477.146 374.059C478.317 374.059 477.997 368.623 480.977 364.892C483.956 361.054 488.107 360.948 488.107 359.668C488.107 358.389 483.318 357.323 480.764 353.699C477.997 349.968 478.104 344.211 476.827 344.211Z" fill="#6F42C1"/>
<path d="M457.035 317.029C456.503 317.029 456.503 319.48 455.226 321.293C454.055 322.892 452.246 323.211 452.246 323.958C452.246 324.597 454.055 324.704 455.332 326.196C456.396 327.582 456.715 330.034 457.247 330.034C457.779 330.034 457.567 327.689 458.95 326.09C460.227 324.384 462.036 324.384 462.036 323.851C462.036 323.318 459.908 322.785 458.844 321.293C457.567 319.587 457.673 317.029 457.035 317.029Z" fill="#6F42C1"/>
<path d="M401.062 411.369H373.076C370.097 450.492 346.793 458.7 339.982 460.192V449.532L316.04 468.4L339.982 487.269V475.969C394.252 471.492 401.062 411.369 401.062 411.369Z" fill="url(#paint0_linear_631_171)"/>
<path d="M91.4067 126.747H119.393C122.372 87.6251 145.676 79.4169 152.487 77.9245V88.5845L176.429 69.7163L152.487 50.8481V62.1477C98.3234 66.6249 91.4067 126.747 91.4067 126.747Z" fill="url(#paint1_linear_631_171)"/>
<g opacity="0.57">
<path d="M254.641 441.75C249.214 441.75 245.915 441.324 245.596 441.324C244.426 441.217 243.574 440.151 243.787 438.979C243.894 437.806 244.958 436.953 246.128 437.167C246.235 437.167 262.196 438.979 280.818 434.502C305.505 428.425 323.17 414.674 333.172 393.461C333.704 392.395 334.981 391.968 336.045 392.395C337.109 392.928 337.535 394.207 337.109 395.273C326.681 417.446 307.527 432.476 281.776 438.659C270.922 441.111 261.238 441.75 254.641 441.75Z" fill="#8815AD"/>
<path d="M462.887 411.263C462.78 410.09 461.823 409.237 460.652 409.237C459.482 409.344 458.63 410.303 458.63 411.476C458.63 411.796 460.227 439.192 447.138 472.878C440.221 490.786 428.09 512.639 407.34 533H413.406C432.879 512.959 444.371 491.852 451.182 474.37C464.483 439.938 462.887 412.435 462.887 411.263Z" fill="#8815AD"/>
<path d="M182.707 128.879C182.388 128.879 182.069 128.773 181.75 128.666C180.686 128.133 180.26 126.854 180.686 125.788C191.114 103.615 210.268 88.5847 236.019 82.4019C255.386 77.7115 271.348 79.5236 272.092 79.6302C273.263 79.7368 274.114 80.8029 273.901 81.9755C273.795 83.1481 272.731 84.0008 271.56 83.7876C271.454 83.7876 255.492 81.9754 236.87 86.4526C212.077 92.5288 194.519 106.28 184.516 127.494C184.197 128.453 183.452 128.879 182.707 128.879Z" fill="#6F42C1"/>
<path d="M94.1734 0C62.463 24.6246 45.7565 53.1934 37.0308 75.8992C23.623 110.331 25.2192 137.94 25.2192 139.113C25.3256 140.286 26.1769 141.138 27.3474 141.138H27.4538C28.6243 141.032 29.4756 140.072 29.4756 138.9C29.4756 138.58 27.8795 111.184 40.968 77.4982C49.9065 54.2594 67.3579 24.7312 101.197 0H94.1734Z" fill="#6F42C1"/>
</g>
<path d="M417.237 367.663L281.031 355.831C275.71 355.404 271.773 350.714 272.305 345.384L296.141 70.0362C296.567 64.7062 301.249 60.762 306.569 61.295L442.775 73.1276C448.096 73.554 452.033 78.2444 451.501 83.5744L427.665 358.922C427.239 364.252 422.557 368.196 417.237 367.663Z" fill="url(#paint2_linear_631_171)"/>
<path d="M300.717 271.084C299.653 270.551 297.844 272.47 297.844 273.109C297.737 273.749 301.036 278.226 301.355 278.546C301.568 278.866 304.548 279.185 304.973 278.866C305.293 278.546 306.889 271.084 320.616 257.013C321.361 256.266 310.294 259.891 303.271 274.708C303.058 274.815 301.462 271.51 300.717 271.084Z" fill="#37FAE6"/>
<path d="M421.095 266.04L331.723 258.277L331.153 264.862L420.525 272.625L421.095 266.04Z" fill="#E4D2FF"/>
<path d="M388.17 282.376L330.073 277.329L329.503 283.914L387.6 288.961L388.17 282.376Z" fill="#E4D2FF"/>
<path d="M314.231 171.413C311.039 202.753 336.258 227.378 367.543 230.576C398.828 233.774 426.707 210.855 429.9 179.514C433.092 148.174 410.426 118.752 379.142 115.554C347.751 112.463 317.317 140.072 314.231 171.413Z" fill="#BB5F1B"/>
<path d="M416.716 191.855C429.793 163.211 417.214 129.372 388.621 116.272C360.028 103.172 326.249 115.773 313.172 144.417C300.096 173.06 312.674 206.9 341.267 220C369.86 233.1 403.64 220.499 416.716 191.855Z" fill="#FFA519"/>
<path opacity="0.87" d="M396.142 199.41C413.388 182.134 413.388 154.123 396.142 136.847C378.897 119.571 350.936 119.571 333.691 136.847C316.445 154.123 316.445 182.134 333.691 199.41C350.936 216.686 378.897 216.686 396.142 199.41Z" fill="#FFE146"/>
<path opacity="0.8" d="M382.973 159.9L386.484 160.433C388.825 160.753 391.06 159.047 391.379 156.702L392.975 145.296L381.589 143.697C379.248 143.377 377.014 145.082 376.694 147.428L376.162 150.945C375.524 155.316 371.587 158.301 367.224 157.768C362.861 157.235 359.882 153.184 360.414 148.813L360.946 145.082C361.265 142.737 359.669 140.605 357.328 140.285L345.835 138.58L339.238 185.91L350.73 187.509C353.071 187.829 355.306 186.23 355.625 183.885L356.157 180.26C356.796 175.89 360.733 172.905 365.096 173.438C369.458 174.078 372.438 178.022 371.906 182.392L371.374 185.91C371.055 188.255 372.651 190.494 375.098 190.814L386.591 192.413L388.187 180.9C388.506 178.555 386.91 176.316 384.462 175.996L380.844 175.463C376.482 174.824 373.502 170.88 374.034 166.509C374.566 162.245 378.61 159.26 382.973 159.9Z" fill="#FFA519"/>
<path opacity="0.27" d="M396.699 120.778C391.591 139.326 384.568 157.448 370.203 170.88C354.773 185.164 334.342 192.2 313.699 193.159C322.105 210.322 338.812 222.901 359.136 224.926C390.421 228.124 418.301 205.205 421.493 173.865C423.728 152.118 413.512 132.184 396.699 120.778Z" fill="#FFA519"/>
<path opacity="0.65" d="M338.493 127.28C344.877 122.91 352.22 120.351 359.881 119.818C362.329 119.712 362.329 115.874 359.881 115.981C351.581 116.514 343.494 119.285 336.577 123.976C334.555 125.361 336.471 128.666 338.493 127.28Z" fill="#FFCD80"/>
<path opacity="0.65" d="M375.417 118.433C375.311 118.006 374.992 117.58 374.46 117.26C372.332 116.407 370.097 115.768 367.862 115.661C365.521 115.554 365.415 119.285 367.862 119.499C369.352 119.605 376.056 122.483 375.417 118.433Z" fill="#FFCD80"/>
<path opacity="0.77" d="M333.385 145.402C328.809 151.798 326.362 159.58 326.256 167.362C326.149 170.453 330.938 170.453 331.044 167.362C331.151 160.326 333.492 153.504 337.535 147.854C339.344 145.402 335.194 142.844 333.385 145.402Z" fill="#FFFBE7"/>
<path opacity="0.77" d="M332.747 178.235C332.427 177.063 331.682 175.783 331.47 174.717C330.831 171.733 326.149 173.012 326.894 175.997C327.213 177.596 327.852 179.195 328.597 180.687C329.98 183.565 333.491 180.9 332.747 178.235Z" fill="#FFFBE7"/>
<g style="mix-blend-mode:soft-light" opacity="0.75">
<path opacity="0.44" d="M286.032 95.8334L282.095 138.9C288.161 135.169 383.824 77.818 416.705 59.9092L365.841 55.1122L286.032 95.8334Z" fill="#59FBEA"/>
<path opacity="0.44" d="M454.693 139.006L459.801 81.2292C460.12 77.3916 459.269 74.3002 457.354 70.9956L278.69 181.327L272.837 247.738L454.693 139.006Z" fill="#59FBEA"/>
</g>
<path d="M417.343 386.851C416.811 386.851 416.279 386.851 415.747 386.745L279.328 374.912C269.326 374.059 261.983 365.212 262.835 355.191L287.841 66.0919C288.267 61.2949 290.502 56.8178 294.226 53.7264C297.95 50.6349 302.632 49.1425 307.421 49.5689L443.84 61.4015C448.628 61.8279 453.097 64.0665 456.183 67.7975C459.269 71.5285 460.759 76.219 460.333 81.016L435.327 370.115C434.582 379.709 426.601 386.851 417.343 386.851ZM415.853 385.466C425.111 386.318 433.198 379.389 434.05 370.222L459.056 81.1225C459.482 76.6453 458.099 72.2747 455.225 68.8635C452.352 65.4523 448.309 63.3203 443.84 62.8939L307.421 51.0613C302.952 50.6349 298.589 52.0207 295.184 54.8989C291.778 57.7771 289.65 61.828 289.225 66.3052L264.218 355.404C263.367 364.679 270.283 372.78 279.435 373.633L415.853 385.466Z" fill="#4A135E"/>
<path d="M212.289 450.385L76.722 467.548C71.4015 468.187 66.613 464.456 65.9745 459.233L31.2846 185.057C30.6462 179.727 34.3705 174.93 39.5847 174.291L175.152 157.128C180.473 156.489 185.261 160.22 185.9 165.443L220.483 439.618C221.334 444.948 217.61 449.745 212.289 450.385Z" fill="url(#paint3_linear_631_171)"/>
<path d="M77.9992 380.562C76.8287 380.242 75.5518 382.587 75.5518 383.227C75.6582 383.867 79.8082 387.598 80.1274 387.811C80.4467 388.024 83.4262 387.704 83.639 387.384C83.8518 387.065 83.8518 379.389 94.2801 362.76C94.8121 361.907 84.8095 367.77 80.9787 383.76C81.0851 383.653 78.8505 380.775 77.9992 380.562Z" fill="#37FAE6"/>
<path d="M194.603 350.213L105.607 361.482L106.435 368.039L195.43 356.77L194.603 350.213Z" fill="#E4D2FF"/>
<path d="M165.891 373.185L108.038 380.51L108.865 387.067L166.718 379.742L165.891 373.185Z" fill="#E4D2FF"/>
<path opacity="0.65" d="M123.543 218.636C131.843 218.53 140.143 220.449 147.485 224.18C149.72 225.246 151.635 221.941 149.401 220.875C141.314 216.824 132.481 214.799 123.437 214.799C121.096 214.799 121.096 218.636 123.543 218.636Z" fill="#FFCD80"/>
<path d="M175.365 269.272C179.302 300.505 154.828 325.77 123.543 329.714C92.3647 333.658 63.8466 311.485 59.9094 280.251C55.9722 249.018 77.8928 219.063 109.071 215.119C140.356 211.068 171.428 237.931 175.365 269.272Z" fill="#BB5F1B"/>
<path d="M178.829 284.417C188.387 254.41 171.852 222.321 141.898 212.746C111.944 203.171 79.9127 219.735 70.3545 249.742C60.7963 279.75 77.3306 311.838 107.285 321.413C137.239 330.988 169.27 314.425 178.829 284.417Z" fill="#FFA519"/>
<path opacity="0.87" d="M155.824 298.388C173.069 281.112 173.069 253.101 155.824 235.825C138.578 218.549 110.617 218.549 93.3719 235.825C76.1263 253.101 76.1263 281.112 93.3719 298.388C110.617 315.664 138.578 315.664 155.824 298.388Z" fill="#FFE146"/>
<path d="M92.058 266.552C91.7931 265.102 91.8714 263.754 92.2928 262.509C92.7116 261.25 93.4217 260.205 94.4229 259.372C95.4356 258.524 96.6532 257.969 98.0759 257.708C99.8194 257.389 101.396 257.576 102.805 258.269C104.215 258.962 105.274 260.066 105.983 261.579L102.049 262.3C101.644 261.74 101.141 261.349 100.538 261.128C99.9495 260.904 99.3135 260.855 98.63 260.98C97.5281 261.182 96.7055 261.729 96.1621 262.622C95.6187 263.514 95.4641 264.602 95.6984 265.885C95.9327 267.169 96.4616 268.132 97.2851 268.774C98.1086 269.416 99.0713 269.636 100.173 269.434C100.857 269.309 101.434 269.037 101.906 268.619C102.391 268.199 102.724 267.655 102.905 266.987L106.838 266.267C106.71 267.933 106.11 269.341 105.036 270.489C103.96 271.623 102.551 272.35 100.807 272.669C99.3845 272.93 98.0509 272.85 96.8065 272.429C95.5735 271.992 94.5401 271.266 93.7061 270.251C92.8722 269.236 92.3228 268.003 92.058 266.552ZM116.826 254.446L117.349 257.313L111.365 258.409L111.931 261.506L116.408 260.686L116.916 263.469L112.439 264.289L113.524 270.232L109.946 270.887L107.264 256.198L116.826 254.446ZM130.057 264.521L124.576 265.525L124.17 268.281L120.425 268.967L123.058 253.305L127.201 252.546L135.196 266.261L131.41 266.955L130.057 264.521ZM128.632 261.928L125.83 256.884L125.013 262.591L128.632 261.928Z" fill="#FFA519"/>
<path opacity="0.27" d="M134.184 278.546C115.882 262.023 107.262 236.439 109.391 212.134C82.575 219.596 64.4852 245.82 68.1031 274.282C72.0403 305.516 100.558 327.688 131.737 323.744C150.465 321.399 165.895 310.099 174.408 294.749C159.829 293.683 145.996 289.206 134.184 278.546Z" fill="#FFA519"/>
<path opacity="0.65" d="M154.508 228.231C155.785 229.403 156.849 230.896 158.446 231.748C160.574 232.921 162.489 230.576 160.787 228.87C159.616 227.698 158.446 226.632 157.275 225.459C155.466 223.753 152.699 226.525 154.508 228.231Z" fill="#FFCD80"/>
<path opacity="0.77" d="M145.889 240.383C151.529 245.606 155.573 252.322 157.488 259.677C158.233 262.662 162.915 261.383 162.064 258.398C159.936 250.19 155.466 242.621 149.295 236.972C147.06 234.946 143.655 238.251 145.889 240.383Z" fill="#FFFBE7"/>
<path opacity="0.77" d="M164.192 267.566C163.873 265.86 161.957 265.434 160.574 266.287C158.552 267.566 159.829 270.871 159.616 272.789C159.297 275.668 164.405 275.987 164.405 272.789C164.617 271.084 164.511 269.378 164.192 267.566Z" fill="#FFFBE7"/>
<g style="mix-blend-mode:soft-light" opacity="0.75">
<path opacity="0.44" d="M197.073 189.961L202.819 232.814C196.647 229.403 98.5364 176.316 64.8042 159.9L116.52 153.397L197.073 189.961Z" fill="#59FBEA"/>
<path opacity="0.44" d="M30.5398 240.49L22.8782 183.032C22.3462 179.194 23.091 175.996 24.9 172.692L207.82 274.602L216.227 341.013L30.5398 240.49Z" fill="#59FBEA"/>
</g>
<path d="M76.6158 486.736C72.5722 486.736 68.7414 485.456 65.5491 482.898C61.7183 479.913 59.2708 475.649 58.6324 470.852L22.3463 183.032C21.0694 173.118 28.1989 163.951 38.0951 162.672L173.875 145.509C183.771 144.23 192.923 151.372 194.2 161.286L230.486 449.106C231.124 453.903 229.741 458.7 226.868 462.537C223.888 466.375 219.632 468.827 214.843 469.466L214.737 468.827L214.843 469.466L78.9568 486.629C78.212 486.736 77.4671 486.736 76.6158 486.736ZM176.216 146.682C175.471 146.682 174.833 146.681 174.088 146.788L38.3079 164.057C29.1566 165.23 22.6655 173.651 23.7296 182.819L60.0157 470.639C60.5478 475.116 62.7824 479.06 66.4004 481.832C69.9119 484.604 74.3812 485.776 78.744 485.243L214.524 468.081C218.993 467.548 222.931 465.309 225.697 461.685C228.464 458.167 229.635 453.69 229.103 449.319L192.816 161.499C191.752 152.971 184.516 146.682 176.216 146.682Z" fill="#4A135E"/>
</g>
<defs>
<linearGradient id="paint0_linear_631_171" x1="316.175" y1="449.29" x2="401.096" y2="449.29" gradientUnits="userSpaceOnUse">
<stop stop-color="#CB70ED"/>
<stop offset="0.9968" stop-color="#8815AD"/>
</linearGradient>
<linearGradient id="paint1_linear_631_171" x1="91.4197" y1="88.8567" x2="176.341" y2="88.8567" gradientUnits="userSpaceOnUse">
<stop stop-color="#6F42C1"/>
<stop offset="0.997" stop-color="#996DF7"/>
</linearGradient>
<linearGradient id="paint2_linear_631_171" x1="398.835" y1="29.0762" x2="333.138" y2="358.09" gradientUnits="userSpaceOnUse">
<stop stop-color="#FF43BB"/>
<stop offset="1" stop-color="#954BFF"/>
</linearGradient>
<linearGradient id="paint3_linear_631_171" x1="146.974" y1="493.97" x2="104.398" y2="126.81" gradientUnits="userSpaceOnUse">
<stop offset="0.00134342" stop-color="#5725BE"/>
<stop offset="0.9973" stop-color="#41CDFF"/>
</linearGradient>
<clipPath id="clip0_631_171">
<rect width="488" height="533" fill="white"/>
</clipPath>
</defs>
</svg>
