<svg width="363" height="477" viewBox="0 0 363 477" fill="none" xmlns="http://www.w3.org/2000/svg">
<path d="M360.988 395.868C360.379 397.873 359.423 399.79 358.119 401.62C355.945 404.583 352.642 406.588 348.99 407.198C340.819 408.505 332.647 407.285 324.649 403.537C319.085 401.01 314.39 396.652 308.478 391.946C306.653 390.465 304.306 389.942 302.045 390.29L255.535 398.047C252.318 398.57 249.449 400.574 247.884 403.45C242.32 413.472 236.148 422.1 229.454 429.421C227.976 431.077 226.411 432.646 224.846 434.214C224.673 434.389 224.499 434.563 224.325 434.737C220.5 438.485 215.544 440.925 210.241 441.535C191.637 443.888 179.901 435.87 177.901 413.385C177.901 413.385 176.858 380.878 177.901 359.439C177.988 357.522 178.162 355.779 178.249 354.123C178.423 352.554 178.597 351.073 178.771 349.678C180.161 340.353 187.029 332.858 196.158 330.68L211.893 326.845C217.718 325.451 223.89 326.409 229.019 329.634L237.191 334.776C239.365 336.17 241.973 336.693 244.581 336.257L274.574 330.941C276.399 330.592 278.138 329.634 279.355 328.152L290.048 315.254C291.7 313.337 293.96 312.029 296.394 311.594L310.304 309.241C319.345 307.672 328.474 311.594 333.516 319.263C334.907 321.354 336.298 323.882 337.776 326.845C347.252 346.454 358.553 372.337 358.553 372.337C358.553 372.337 364.378 384.887 360.988 395.868Z" fill="#CFCDE0"/>
<g opacity="0.3">
<path d="M224.933 434.214C224.759 434.389 224.586 434.563 224.412 434.737C220.587 438.485 215.631 440.925 210.328 441.535C191.724 443.888 179.988 435.87 177.988 413.385C177.988 413.385 176.945 380.878 177.988 359.439C178.075 357.522 178.249 355.779 178.336 354.123C179.031 352.467 179.466 351.334 179.64 351.16C180.075 350.55 182.683 345.234 190.941 343.229C187.203 380.617 188.942 409.028 196.071 428.462C196.071 428.462 205.634 443.278 224.064 434.65C224.412 434.476 224.673 434.301 224.933 434.214Z" fill="#000073"/>
</g>
<g opacity="0.3">
<path d="M232.323 381.663L227.454 382.447L228.237 385.236L229.715 390.465L229.541 390.813L226.846 391.249L218.152 392.469L215.805 384.19L207.981 385.323L205.286 375.823L204.503 373.035L209.372 372.337L212.328 371.902L210.763 366.324L209.98 363.535L221.543 361.792L223.977 370.072L231.801 368.939L235.279 381.227L232.323 381.663Z" fill="#000073"/>
</g>
<g opacity="0.3">
<path d="M317.52 380.442C317.52 380.442 315.259 378.089 309.609 378.787C310.304 376.869 310.478 374.778 310.13 372.686C309 366.498 303.436 362.315 297.698 363.361C291.961 364.407 288.136 370.246 289.266 376.433C289.613 378.525 290.483 380.355 291.7 381.837L271.965 385.149C272.748 383.144 273.009 380.878 272.661 378.525C271.531 372.337 265.967 368.154 260.229 369.2C254.491 370.246 250.666 376.085 251.796 382.273C252.231 384.538 253.187 386.543 254.578 388.112L252.405 388.46C247.797 389.245 243.798 391.946 241.364 395.955C239.104 399.703 236.061 404.757 232.758 410.422C225.977 422.013 213.023 435.26 206.416 436.567C206.416 436.567 217.631 442.406 228.324 430.728C228.672 430.292 229.193 429.944 229.715 429.508C236.409 422.187 242.581 413.56 248.145 403.537C249.71 400.661 252.579 398.657 255.795 398.134L302.306 390.378C304.566 390.029 306.914 390.639 308.739 392.033C314.651 396.74 319.345 401.01 324.909 403.624C332.907 407.372 341.079 408.592 349.251 407.285C352.903 406.675 356.206 404.757 358.38 401.707C359.684 399.877 360.64 397.96 361.248 395.955C361.248 394.997 361.335 394.386 361.335 394.386C346.556 401.271 332.038 398.483 317.52 380.442Z" fill="#000073"/>
</g>
<path d="M289.613 315.428L289.265 311.158C289.092 308.718 290.743 306.539 293.178 306.19L306.826 303.576C308.391 303.227 310.043 304.012 310.912 305.406L312.912 308.805" fill="#4A4A9E"/>
<g opacity="0.55">
<path d="M312.999 308.805L312.651 308.892L311.956 307.672C311.086 306.278 309.521 305.58 307.87 305.842L294.221 308.456C291.787 308.892 290.135 310.984 290.309 313.424L290.483 315.167L289.7 315.428L289.352 311.158C289.179 308.718 290.83 306.539 293.264 306.19L306.913 303.576C308.478 303.227 310.13 304.012 310.999 305.406L312.999 308.805Z" fill="white"/>
</g>
<g opacity="0.55">
<path d="M331.864 316.91C326.735 312.465 319.78 310.461 312.825 311.594L298.915 313.947C296.394 314.383 294.134 315.69 292.569 317.607L281.876 330.505C280.659 331.987 279.007 332.946 277.095 333.294L247.102 338.61C244.581 339.046 241.886 338.523 239.712 337.129L231.54 331.987C226.411 328.762 220.239 327.717 214.414 329.198L198.679 333.033C197.288 333.381 195.897 333.817 194.68 334.427C194.68 334.427 194.68 334.427 194.593 334.514C193.376 335.037 183.726 339.482 180.248 347.325C179.901 348.11 179.466 348.807 179.031 349.417C180.509 340.266 187.29 332.858 196.331 330.68L212.067 326.845C217.891 325.451 224.064 326.409 229.193 329.634L237.365 334.776C239.538 336.17 242.147 336.693 244.755 336.257L274.747 330.941C276.573 330.593 278.312 329.634 279.529 328.152L290.222 315.254C291.874 313.337 294.134 312.03 296.568 311.594L310.478 309.241C318.476 307.846 326.561 310.809 331.864 316.91Z" fill="white"/>
</g>
<path d="M263.794 332.684L261.185 324.753C260.577 322.836 258.577 321.616 256.578 321.965L252.753 322.575C250.232 323.01 248.667 325.538 249.449 327.978C250.492 331.203 251.709 334.863 251.623 334.863" fill="#4A4A9E"/>
<g opacity="0.55">
<path d="M263.794 332.684H263.707L261.968 327.542C261.359 325.625 259.36 324.405 257.36 324.753L253.535 325.363C251.362 325.712 249.884 327.717 250.058 329.895C249.884 329.285 249.623 328.675 249.449 327.978C248.667 325.538 250.232 322.923 252.753 322.575L256.578 321.965C258.577 321.616 260.577 322.836 261.185 324.753L263.794 332.684Z" fill="white"/>
</g>
<path d="M191.028 332.423L191.637 328.239C191.898 326.409 193.202 324.928 194.94 324.492L210.328 320.57C211.98 320.134 213.805 320.744 214.849 322.052L218.239 326.148" fill="#4A4A9E"/>
<g opacity="0.55">
<path d="M218.239 326.148L217.109 326.409L215.544 324.492C214.414 323.185 212.675 322.575 211.023 323.01L195.636 326.932C193.897 327.368 192.593 328.849 192.332 330.68L192.158 332.161L191.115 332.423L191.724 328.239C191.985 326.409 193.289 324.928 195.027 324.492L210.415 320.57C212.067 320.134 213.892 320.744 214.936 322.052L218.239 326.148Z" fill="white"/>
</g>
<path d="M232.323 369.636L227.454 370.333L228.237 373.122L229.715 378.438L229.541 378.699L226.846 379.135L218.152 380.442L215.805 372.076L207.981 373.296L205.286 363.709L204.503 360.921L209.372 360.223L212.328 359.788L210.763 354.21L209.98 351.508L221.543 349.678L223.977 358.045L231.801 356.825L235.279 369.2L232.323 369.636Z" fill="#3D3D93"/>
<g opacity="0.55">
<path d="M221.543 349.678L222.238 352.118L211.284 353.774L212.067 356.563L213.632 362.054L210.676 362.576L205.807 363.274L206.59 366.062L208.589 373.209L207.981 373.296L205.286 363.709L204.503 360.921L209.372 360.223L212.328 359.788L210.763 354.21L209.98 351.508L221.543 349.678Z" fill="white"/>
</g>
<g opacity="0.55">
<path d="M232.497 359.265L225.281 360.311L224.585 357.958L231.801 356.825L232.497 359.265Z" fill="white"/>
</g>
<path d="M212.328 359.788L207.807 360.485L206.503 356.215L209.98 351.509L210.763 354.21L212.328 359.788Z" fill="#3D3D93"/>
<path d="M229.541 378.699L226.498 384.19L214.849 385.933L212.501 377.566L204.677 378.786L201.2 366.411L204.503 360.921L205.286 363.709L207.981 373.296L215.805 372.076L218.152 380.442L226.846 379.135L229.541 378.699Z" fill="#3D3D93"/>
<path d="M235.279 369.2L232.845 373.819L228.585 374.516L227.455 370.333L232.323 369.636L235.279 369.2Z" fill="#3D3D93"/>
<path d="M218.153 381.663C217.631 381.663 217.109 381.314 216.935 380.791L214.849 373.558L208.068 374.603C207.459 374.691 206.851 374.342 206.677 373.732L203.2 361.444C203.113 361.095 203.2 360.747 203.374 360.398C203.547 360.136 203.895 359.875 204.243 359.875L210.676 358.916L208.677 351.944C208.59 351.596 208.677 351.247 208.85 350.899C209.024 350.637 209.372 350.376 209.72 350.376L221.369 348.633C221.978 348.545 222.586 348.894 222.76 349.504L224.847 356.738L231.628 355.692C232.236 355.605 232.845 355.953 233.019 356.563L236.496 368.852C236.583 369.2 236.496 369.549 236.322 369.897C236.148 370.159 235.8 370.42 235.453 370.42L229.02 371.379L230.932 378.089C231.019 378.438 231.019 378.787 230.758 379.048L230.584 379.397C230.411 379.745 230.063 379.92 229.715 380.007L218.413 381.75C218.326 381.663 218.239 381.663 218.153 381.663ZM215.805 370.856C216.327 370.856 216.849 371.205 217.022 371.727L219.109 378.961L228.237 377.567L226.238 370.595C226.151 370.246 226.238 369.897 226.411 369.549C226.585 369.2 226.933 369.026 227.281 369.026L232.149 368.329L233.714 368.067L230.932 358.132L224.151 359.178C223.543 359.265 222.934 358.916 222.76 358.306L220.674 351.073L211.545 352.467L213.545 359.439C213.632 359.788 213.545 360.136 213.371 360.485C213.197 360.747 212.849 361.008 212.502 361.008L206.069 361.967L208.85 371.902L215.631 370.856C215.718 370.856 215.805 370.856 215.805 370.856Z" fill="#000073"/>
<path d="M314.564 326.061C311.434 326.496 309.609 329.634 310.565 332.945C311.521 336.257 314.825 338.61 317.955 338.174C321.084 337.739 322.91 334.601 321.954 331.29C320.997 327.891 317.694 325.538 314.564 326.061Z" fill="#E9F400"/>
<g opacity="0.3">
<path d="M317.607 338.087C314.477 338.523 311.174 336.257 310.217 332.858C310.043 332.161 309.957 331.551 309.957 330.941C311.261 333.556 314.129 335.211 316.824 334.776C319.346 334.427 320.997 332.335 321.084 329.808C321.258 330.244 321.519 330.68 321.606 331.115C322.562 334.514 320.737 337.564 317.607 338.087Z" fill="#000073"/>
</g>
<g opacity="0.3">
<path d="M319.954 341.573C316.911 342.445 313.347 340.528 311.956 337.303C311.695 336.693 311.521 335.996 311.521 335.386C313.173 337.826 316.129 339.133 318.824 338.436C321.258 337.739 322.649 335.473 322.475 332.946C322.736 333.294 322.997 333.73 323.17 334.166C324.387 337.477 322.997 340.702 319.954 341.573Z" fill="#000073"/>
</g>
<g opacity="0.55">
<path d="M319.693 327.803C318.65 327.281 317.433 327.106 316.303 327.281C313.173 327.716 311.348 330.854 312.304 334.165C312.652 335.298 313.173 336.257 313.956 337.129C312.13 336.257 310.565 334.601 309.957 332.422C309 329.111 310.739 325.973 313.956 325.538C315.955 325.189 318.215 326.148 319.693 327.803Z" fill="white"/>
</g>
<path d="M317.172 339.395C313.781 339.395 310.391 336.78 309.348 333.207C308.739 331.203 309 329.111 310.043 327.455C311 325.974 312.477 325.015 314.303 324.753C318.041 324.231 321.953 326.932 323.084 330.854C323.692 332.858 323.431 334.95 322.388 336.606C321.432 338.087 319.954 339.046 318.128 339.308C317.78 339.395 317.52 339.395 317.172 339.395ZM315.346 327.194C315.085 327.194 314.912 327.194 314.651 327.281C313.608 327.455 312.651 327.978 312.13 328.937C311.434 329.982 311.347 331.29 311.695 332.684C312.477 335.473 315.172 337.39 317.694 336.954C318.737 336.78 319.693 336.257 320.215 335.299C320.91 334.253 320.997 332.946 320.649 331.551C320.041 329.024 317.694 327.194 315.346 327.194Z" fill="#000073"/>
<path d="M321.693 351.421C318.563 351.857 316.737 354.995 317.694 358.306C318.65 361.618 321.953 363.971 325.083 363.535C328.213 363.1 330.038 359.962 329.082 356.65C328.213 353.252 324.909 350.898 321.693 351.421Z" fill="#12ED00"/>
<g opacity="0.3">
<path d="M325.17 363.535C322.04 363.971 318.737 361.705 317.78 358.306C317.606 357.609 317.52 356.999 317.52 356.389C318.824 359.003 321.692 360.659 324.387 360.223C326.909 359.875 328.56 357.783 328.647 355.256C328.821 355.692 329.082 356.127 329.169 356.563C330.038 359.962 328.3 363.012 325.17 363.535Z" fill="#000073"/>
</g>
<g opacity="0.3">
<path d="M327.43 367.021C324.388 367.893 320.823 365.975 319.432 362.751C319.171 362.141 318.998 361.444 318.998 360.834C320.649 363.274 323.605 364.581 326.3 363.884C328.734 363.187 330.125 360.921 329.951 358.393C330.212 358.742 330.473 359.178 330.647 359.613C331.951 362.925 330.56 366.15 327.43 367.021Z" fill="#000073"/>
</g>
<g opacity="0.55">
<path d="M327.169 353.251C326.126 352.729 324.909 352.554 323.779 352.729C320.649 353.164 318.824 356.302 319.78 359.613C320.128 360.746 320.649 361.705 321.432 362.577C319.606 361.705 318.041 360.049 317.433 357.87C316.476 354.559 318.215 351.421 321.432 350.986C323.518 350.637 325.692 351.596 327.169 353.251Z" fill="white"/>
</g>
<path d="M324.388 364.755C320.997 364.755 317.607 362.141 316.564 358.568C315.955 356.563 316.216 354.472 317.259 352.816C318.215 351.334 319.693 350.375 321.519 350.114C325.257 349.591 329.169 352.293 330.299 356.215C330.908 358.219 330.647 360.311 329.604 361.966C328.648 363.448 327.17 364.407 325.344 364.668C324.996 364.755 324.649 364.755 324.388 364.755ZM321.867 352.641C320.823 352.816 319.867 353.339 319.345 354.297C318.65 355.343 318.563 356.65 318.911 358.045C319.693 360.834 322.388 362.751 324.909 362.315C325.953 362.141 326.909 361.618 327.431 360.659C328.126 359.613 328.213 358.306 327.865 356.912C327.17 354.21 324.475 352.206 321.867 352.641Z" fill="#000073"/>
<path d="M330.038 336.954C326.909 337.39 325.083 340.527 326.039 343.839C326.996 347.151 330.299 349.504 333.429 349.068C336.558 348.632 338.384 345.495 337.428 342.183C336.558 338.784 333.255 336.431 330.038 336.954Z" fill="#FF1D1D"/>
<g opacity="0.3">
<path d="M333.429 348.807C330.299 349.243 326.996 346.977 326.04 343.578C325.866 342.881 325.779 342.271 325.779 341.661C327.083 344.275 329.952 345.931 332.647 345.495C335.168 345.147 336.82 343.055 336.907 340.528C337.08 340.963 337.341 341.399 337.428 341.835C338.384 345.234 336.559 348.284 333.429 348.807Z" fill="#000073"/>
</g>
<g opacity="0.3">
<path d="M335.776 352.293C332.733 353.164 329.169 351.247 327.778 348.023C327.517 347.413 327.343 346.715 327.343 346.105C328.995 348.545 331.951 349.853 334.646 349.156C337.08 348.458 338.471 346.192 338.297 343.665C338.558 344.014 338.819 344.449 338.993 344.885C340.21 348.197 338.819 351.421 335.776 352.293Z" fill="#000073"/>
</g>
<g opacity="0.55">
<path d="M335.429 338.523C334.385 338 333.168 337.826 332.038 338C328.909 338.436 327.083 341.573 328.039 344.885C328.387 346.018 328.909 346.977 329.691 347.848C327.865 346.977 326.3 345.321 325.692 343.142C324.736 339.83 326.474 336.693 329.691 336.257C331.777 335.909 333.951 336.867 335.429 338.523Z" fill="white"/>
</g>
<path d="M332.733 350.289C329.343 350.289 325.952 347.674 324.909 344.101C324.301 342.096 324.562 340.005 325.605 338.349C326.561 336.867 328.039 335.909 329.865 335.647C333.603 335.124 337.515 337.826 338.645 341.748C339.254 343.752 338.993 345.844 337.95 347.5C336.993 348.981 335.515 349.94 333.69 350.201C333.342 350.289 332.994 350.289 332.733 350.289ZM330.908 338.087C330.647 338.087 330.473 338.087 330.212 338.175C329.169 338.349 328.213 338.872 327.691 339.83C326.996 340.876 326.909 342.184 327.257 343.578C328.039 346.367 330.734 348.284 333.255 347.848C334.298 347.674 335.255 347.151 335.776 346.192C336.472 345.147 336.559 343.839 336.211 342.445C335.602 339.918 333.255 338.087 330.908 338.087Z" fill="#000073"/>
<path d="M306.131 340.528C303.001 340.963 301.176 344.101 302.132 347.412C303.088 350.724 306.392 353.077 309.522 352.641C312.651 352.206 314.477 349.068 313.521 345.757C312.651 342.358 309.348 340.005 306.131 340.528Z" fill="#1595FF"/>
<g opacity="0.3">
<path d="M309.783 352.554C306.653 352.99 303.349 350.724 302.393 347.325C302.219 346.628 302.132 346.018 302.132 345.408C303.436 348.022 306.305 349.678 309 349.242C311.521 348.894 313.173 346.802 313.26 344.275C313.434 344.711 313.695 345.146 313.782 345.582C314.651 348.981 312.912 352.118 309.783 352.554Z" fill="#000073"/>
</g>
<g opacity="0.3">
<path d="M312.043 356.127C309 356.999 305.436 355.082 304.045 351.857C303.784 351.247 303.61 350.55 303.61 349.94C305.262 352.38 308.217 353.687 310.912 352.99C313.347 352.293 314.738 350.027 314.564 347.5C314.825 347.848 315.085 348.284 315.259 348.72C316.563 351.944 315.085 355.256 312.043 356.127Z" fill="#000073"/>
</g>
<g opacity="0.55">
<path d="M311.782 342.358C310.739 341.835 309.521 341.66 308.391 341.835C305.262 342.271 303.436 345.408 304.392 348.72C304.74 349.853 305.262 350.811 306.044 351.683C304.218 350.811 302.653 349.155 302.045 346.977C301.089 343.665 302.827 340.527 306.044 340.092C308.13 339.743 310.304 340.702 311.782 342.358Z" fill="white"/>
</g>
<path d="M308.826 353.949C305.436 353.949 302.045 351.334 301.002 347.761C300.393 345.756 300.654 343.665 301.698 342.009C302.654 340.527 304.132 339.569 305.957 339.307C309.696 338.784 313.608 341.486 314.738 345.408C315.346 347.412 315.086 349.504 314.042 351.16C313.086 352.641 311.608 353.6 309.783 353.861C309.435 353.861 309.087 353.949 308.826 353.949ZM306.392 341.748C305.349 341.922 304.393 342.445 303.871 343.403C303.175 344.449 303.088 345.757 303.436 347.151C304.219 349.94 306.914 351.857 309.435 351.421C310.478 351.247 311.434 350.724 311.956 349.765C312.651 348.72 312.738 347.412 312.391 346.018C311.608 343.316 308.913 341.312 306.392 341.748Z" fill="#000073"/>
<path d="M207.807 361.705C207.285 361.705 206.764 361.356 206.59 360.834L205.286 356.563C205.199 356.215 205.199 355.779 205.46 355.43L208.937 350.724C209.198 350.376 209.72 350.114 210.154 350.201C210.589 350.288 211.024 350.637 211.111 351.073L213.458 359.352C213.545 359.701 213.458 360.049 213.284 360.398C213.11 360.659 212.762 360.921 212.415 360.921L207.894 361.618C207.981 361.705 207.894 361.705 207.807 361.705ZM207.894 356.389L208.676 359.003L210.763 358.655L209.459 354.123L207.894 356.389Z" fill="#000073"/>
<path d="M214.849 387.153C214.327 387.153 213.805 386.804 213.632 386.282L211.545 379.048L204.764 380.094C204.156 380.181 203.547 379.832 203.373 379.222L199.896 366.934C199.809 366.586 199.809 366.237 200.07 365.976L203.373 360.485C203.634 360.049 204.069 359.875 204.59 359.875C205.112 359.962 205.46 360.311 205.633 360.747L208.85 371.989L215.631 370.943C216.24 370.856 216.848 371.205 217.022 371.815L219.109 379.048L229.367 377.479C229.802 377.392 230.323 377.567 230.584 378.002C230.845 378.351 230.845 378.874 230.671 379.31L227.628 384.713C227.454 385.061 227.107 385.236 226.759 385.323L215.196 387.066C215.023 387.153 214.936 387.153 214.849 387.153ZM212.501 376.346C213.023 376.346 213.545 376.695 213.719 377.218L215.805 384.451L225.716 382.97L227.194 380.268L218.326 381.575C217.718 381.663 217.109 381.314 216.935 380.704L214.849 373.47L208.068 374.516C207.459 374.603 206.851 374.255 206.677 373.645L203.982 364.058L202.417 366.673L205.46 377.479L212.241 376.434C212.414 376.346 212.501 376.346 212.501 376.346Z" fill="#000073"/>
<path d="M228.585 375.824C228.063 375.824 227.541 375.475 227.367 374.952L226.15 370.769C226.063 370.42 226.15 370.072 226.324 369.723C226.498 369.374 226.846 369.2 227.194 369.2L235.018 367.98C235.452 367.893 235.974 368.067 236.235 368.503C236.496 368.852 236.496 369.374 236.322 369.81L233.888 374.429C233.714 374.778 233.366 375.039 233.018 375.039L228.845 375.736C228.758 375.824 228.671 375.824 228.585 375.824ZM229.019 371.379L229.541 373.122L232.062 372.686L233.105 370.769L229.019 371.379Z" fill="#000073"/>
<path d="M261.881 350.724L253.97 351.944C253.361 352.031 252.753 351.683 252.579 351.16L251.797 348.981C251.536 348.197 251.97 347.412 252.753 347.325L260.664 346.105C261.272 346.018 261.881 346.367 262.055 346.889L262.837 349.068C263.185 349.853 262.663 350.637 261.881 350.724Z" fill="#000073"/>
<path d="M276.921 348.284L269.009 349.504C268.401 349.591 267.792 349.243 267.618 348.72L266.836 346.541C266.575 345.757 267.01 344.972 267.792 344.885L275.704 343.665C276.312 343.578 276.921 343.926 277.094 344.449L277.877 346.628C278.138 347.325 277.703 348.197 276.921 348.284Z" fill="#000073"/>
<path d="M259.173 389.501C264.939 388.466 268.714 382.595 267.605 376.389C266.496 370.183 260.924 365.991 255.158 367.026C249.392 368.061 245.617 373.932 246.726 380.138C247.835 386.344 253.408 390.536 259.173 389.501Z" fill="#4A4A9E"/>
<g opacity="0.3">
<path d="M259.186 389.506C254.578 390.29 250.058 387.85 247.884 383.58C249.884 384.626 252.144 385.061 254.404 384.626C260.142 383.58 263.967 377.741 262.837 371.553C262.576 370.333 262.229 369.113 261.62 368.067C264.576 369.636 266.923 372.686 267.532 376.346C268.749 382.621 265.011 388.46 259.186 389.506Z" fill="#000073"/>
</g>
<g opacity="0.55">
<path d="M265.185 371.03C262.924 369.2 259.968 368.329 257.013 368.851C251.275 369.897 247.45 375.736 248.58 382.011C248.928 384.103 249.797 385.933 251.014 387.414C248.841 385.759 247.276 383.144 246.754 380.181C245.624 373.993 249.449 368.067 255.187 367.108C259.012 366.324 262.837 367.98 265.185 371.03Z" fill="white"/>
</g>
<path d="M257.447 390.901C251.796 390.901 246.667 386.543 245.537 380.355C244.32 373.471 248.58 366.934 254.926 365.801C258.056 365.278 261.185 365.976 263.88 367.98C266.488 369.897 268.227 372.86 268.836 376.172C270.053 383.057 265.793 389.593 259.447 390.726C258.751 390.901 258.143 390.901 257.447 390.901ZM256.925 368.154C256.404 368.154 255.882 368.241 255.361 368.329C250.231 369.2 246.928 374.516 247.884 380.007C248.84 385.497 253.796 389.245 258.925 388.373C264.054 387.502 267.358 382.186 266.401 376.695C265.88 373.993 264.489 371.64 262.402 370.072C260.838 368.764 258.925 368.154 256.925 368.154Z" fill="#000073"/>
<path d="M267.262 379.343C271.468 378.588 274.212 374.251 273.391 369.655C272.57 365.06 268.494 361.946 264.288 362.702C260.082 363.457 257.338 367.794 258.159 372.39C258.98 376.985 263.055 380.099 267.262 379.343Z" fill="#4A4A9E"/>
<g opacity="0.3">
<path d="M267.271 379.397C263.098 380.181 259.012 377.044 258.143 372.425C258.056 371.727 257.969 371.03 257.969 370.333C259.447 373.819 262.924 375.911 266.488 375.301C270.053 374.691 272.574 371.466 272.748 367.719C273.009 368.329 273.269 369.026 273.356 369.723C274.226 374.255 271.444 378.612 267.271 379.397Z" fill="#000073"/>
</g>
<g opacity="0.55">
<path d="M271.531 365.627C269.966 364.581 268.14 364.145 266.228 364.494C262.055 365.278 259.273 369.549 260.142 374.168C260.403 375.736 261.099 377.131 261.968 378.264C260.055 377.043 258.664 374.952 258.143 372.425C257.36 367.806 260.055 363.535 264.228 362.751C267.097 362.228 269.792 363.448 271.531 365.627Z" fill="white"/>
</g>
<path d="M265.967 380.704C261.62 380.704 257.795 377.305 256.926 372.599C255.969 367.37 259.186 362.402 264.054 361.531C268.923 360.659 273.617 364.232 274.574 369.462C275.53 374.691 272.313 379.658 267.445 380.53C267.01 380.617 266.489 380.704 265.967 380.704ZM265.532 363.884C265.185 363.884 264.837 363.884 264.489 363.971C260.925 364.581 258.664 368.329 259.36 372.25C260.055 376.172 263.533 378.787 267.01 378.177C270.575 377.566 272.835 373.819 272.139 369.897C271.531 366.411 268.662 363.884 265.532 363.884Z" fill="#000073"/>
<path d="M267.706 374.604C266.662 375.126 265.271 375.039 264.228 374.342C263.185 373.645 262.403 372.512 262.229 371.205C261.968 369.985 262.316 368.59 263.011 367.631C263.707 366.586 265.011 365.976 266.141 366.15C265.184 366.673 264.489 367.457 264.141 368.329C263.794 369.2 263.707 370.072 263.88 370.943C264.054 371.815 264.402 372.599 265.098 373.296C265.793 373.993 266.662 374.429 267.706 374.604Z" fill="#000073"/>
<path d="M259.795 381.314C257.1 381.314 254.665 379.222 254.057 376.259C253.535 373.383 255.013 370.594 257.534 369.549L258.404 371.814C256.926 372.425 256.143 374.08 256.404 375.736C256.752 377.654 258.404 379.048 260.142 378.699C260.751 378.612 261.36 378.264 261.794 377.741L263.62 379.397C262.837 380.268 261.794 380.878 260.577 381.052C260.403 381.314 260.055 381.314 259.795 381.314Z" fill="#000073"/>
<path d="M294.641 382.529C300.406 381.494 304.181 375.624 303.073 369.417C301.964 363.211 296.391 359.019 290.625 360.054C284.86 361.09 281.084 366.96 282.193 373.166C283.302 379.373 288.875 383.565 294.641 382.529Z" fill="#4A4A9E"/>
<g opacity="0.3">
<path d="M294.656 382.534C290.048 383.319 285.527 380.878 283.354 376.608C285.354 377.654 287.614 378.09 289.874 377.654C295.612 376.608 299.437 370.769 298.307 364.581C298.046 363.361 297.698 362.141 297.09 361.095C300.046 362.664 302.393 365.714 303.001 369.375C304.219 375.649 300.48 381.488 294.656 382.534Z" fill="#000073"/>
</g>
<g opacity="0.55">
<path d="M300.654 364.058C298.393 362.228 295.438 361.357 292.482 361.88C286.744 362.925 282.919 368.764 284.049 375.039C284.397 377.131 285.266 378.961 286.483 380.443C284.31 378.787 282.745 376.172 282.223 373.209C281.093 367.021 284.918 361.095 290.656 360.137C294.481 359.352 298.307 361.008 300.654 364.058Z" fill="white"/>
</g>
<path d="M292.917 383.929C290.482 383.929 288.048 383.144 285.962 381.576C283.354 379.658 281.615 376.695 281.006 373.383C280.398 370.072 281.093 366.76 282.832 363.971C284.571 361.182 287.353 359.352 290.482 358.829C293.612 358.306 296.742 359.004 299.437 361.008C302.045 362.925 303.784 365.889 304.392 369.2C305.609 376.085 301.349 382.621 295.003 383.754C294.221 383.929 293.525 383.929 292.917 383.929ZM292.395 361.182C291.873 361.182 291.352 361.27 290.83 361.357C288.396 361.792 286.223 363.274 284.832 365.453C283.441 367.632 282.919 370.333 283.354 373.035C283.875 375.737 285.266 378.09 287.353 379.658C289.439 381.227 291.96 381.837 294.395 381.401C299.524 380.53 302.827 375.214 301.871 369.723C301.349 367.021 299.958 364.668 297.872 363.1C296.22 361.792 294.395 361.182 292.395 361.182Z" fill="#000073"/>
<path d="M302.731 372.369C306.937 371.614 309.681 367.276 308.86 362.68C308.039 358.085 303.964 354.972 299.758 355.727C295.552 356.482 292.808 360.82 293.629 365.415C294.45 370.011 298.525 373.124 302.731 372.369Z" fill="#4A4A9E"/>
<g opacity="0.3">
<path d="M302.741 372.425C298.568 373.209 294.482 370.072 293.612 365.453C293.525 364.755 293.438 364.058 293.438 363.361C294.916 366.847 298.394 368.939 301.958 368.329C305.523 367.719 308.044 364.494 308.218 360.747C308.478 361.357 308.739 362.054 308.826 362.751C309.695 367.283 306.914 371.64 302.741 372.425Z" fill="#000073"/>
</g>
<g opacity="0.55">
<path d="M307 358.655C305.435 357.609 303.61 357.173 301.697 357.522C297.524 358.306 294.742 362.577 295.612 367.196C295.872 368.764 296.568 370.159 297.437 371.292C295.525 370.072 294.134 367.98 293.612 365.453C292.83 360.834 295.525 356.563 299.698 355.779C302.566 355.256 305.261 356.476 307 358.655Z" fill="white"/>
</g>
<path d="M301.436 373.732C299.524 373.732 297.698 373.122 296.133 371.902C294.134 370.42 292.83 368.154 292.395 365.627C291.96 363.1 292.395 360.572 293.786 358.481C295.09 356.389 297.177 354.995 299.524 354.559C301.871 354.123 304.305 354.733 306.305 356.302C308.304 357.783 309.608 360.049 310.043 362.577C310.999 367.806 307.783 372.773 302.914 373.645C302.48 373.645 301.958 373.732 301.436 373.732ZM301.002 356.912C300.654 356.912 300.306 356.912 299.958 356.999C298.307 357.26 296.829 358.306 295.872 359.875C294.916 361.444 294.568 363.361 294.829 365.278C295.177 367.196 296.133 368.851 297.611 369.984C299.089 371.117 300.741 371.553 302.48 371.205C306.044 370.595 308.304 366.847 307.609 362.925C307.261 361.008 306.305 359.352 304.827 358.219C303.697 357.348 302.393 356.912 301.002 356.912Z" fill="#000073"/>
<path d="M303.175 367.631C302.132 368.154 300.741 368.067 299.698 367.37C298.655 366.673 297.872 365.54 297.698 364.232C297.438 363.012 297.785 361.618 298.481 360.659C299.176 359.614 300.48 359.003 301.611 359.178C300.654 359.701 299.959 360.485 299.611 361.356C299.263 362.228 299.176 363.1 299.35 363.971C299.524 364.843 299.872 365.627 300.567 366.324C301.263 367.021 302.045 367.457 303.175 367.631Z" fill="#000073"/>
<path d="M295.264 374.342C292.569 374.342 290.135 372.25 289.526 369.287C289.005 366.411 290.482 363.622 293.004 362.577L293.873 364.843C292.395 365.453 291.613 367.108 291.873 368.764C292.221 370.682 293.873 372.076 295.612 371.727C296.22 371.64 296.829 371.292 297.263 370.769L299.089 372.425C298.307 373.296 297.263 373.906 296.046 374.081C295.872 374.342 295.525 374.342 295.264 374.342Z" fill="#000073"/>
<path d="M287.875 315.602L287.527 311.332C287.266 308.02 289.526 305.057 292.83 304.534L306.479 301.92C308.739 301.484 311.086 302.53 312.303 304.534L314.303 307.933L311.347 309.676L309.348 306.277C308.913 305.493 307.957 305.057 307.087 305.232L293.438 307.846C291.874 308.108 290.83 309.502 290.917 311.071L291.265 315.341L287.875 315.602Z" fill="#000073"/>
<path d="M294.047 312.204C293.178 310.461 293.004 308.892 293.612 307.41C294.395 305.319 296.394 304.447 296.481 304.36L297.35 306.452L296.916 305.406L297.35 306.452C297.35 306.452 296.133 306.975 295.699 308.195C295.438 309.066 295.525 310.025 296.133 311.158L294.047 312.204Z" fill="#000073"/>
<path d="M192.68 332.597L189.29 332.161L189.898 327.978C190.246 325.45 192.071 323.446 194.506 322.836L209.893 318.914C212.154 318.304 214.675 319.088 216.153 320.919L219.543 325.015L216.935 327.193L213.545 323.097C212.849 322.313 211.719 321.877 210.763 322.139L195.375 326.061C194.245 326.322 193.462 327.281 193.289 328.326L192.68 332.597Z" fill="#000073"/>
<path d="M197.375 330.505H195.114V327.368C195.114 324.928 196.766 322.836 199.113 322.226L199.635 324.405C198.331 324.753 197.375 325.974 197.375 327.281V330.505Z" fill="#000073"/>
<g opacity="0.3">
<path d="M204.677 378.786L208.068 373.557L215.805 372.076L212.328 378.264L204.503 378.874" fill="#000073"/>
</g>
<g opacity="0.3">
<path d="M218.153 380.442L215.371 385.933L227.107 383.928L229.541 378.699L218.153 380.442Z" fill="#000073"/>
</g>
<g opacity="0.15">
<path d="M338.732 366.934L343.079 365.888C344.644 365.54 346.296 366.15 347.252 367.457C349.86 371.205 352.033 375.649 353.859 380.53C354.468 382.098 353.598 383.754 352.033 384.19L345.252 386.194C344.122 386.543 342.905 386.02 342.297 384.974L335.95 372.773C334.733 370.507 336.037 367.544 338.732 366.934Z" fill="white"/>
</g>
<g opacity="0.15">
<path d="M205.807 395.694L201.635 397.35C200.157 397.96 199.2 399.441 199.113 401.01C199.026 405.542 199.896 410.509 201.2 415.477C201.635 417.046 203.286 417.917 204.764 417.481L211.458 415.303C212.588 414.954 213.284 413.821 213.11 412.601L211.371 399.006C211.197 396.304 208.329 394.648 205.807 395.694Z" fill="white"/>
</g>
<path d="M0.0308148 392.382C0.11775 394.474 0.552429 396.565 1.42179 398.657C2.81276 402.056 5.50776 404.844 8.89825 406.239C16.5486 409.551 24.7205 410.335 33.4141 408.679C39.4127 407.546 45.0635 404.496 51.9314 401.446C54.0178 400.487 56.452 400.487 58.5385 401.446L101.746 420.27C104.788 421.577 107.049 424.192 107.831 427.329C110.787 438.397 114.699 448.245 119.393 457.048C120.437 459.052 121.567 460.882 122.697 462.799C122.784 462.974 122.958 463.235 123.045 463.41C125.827 467.941 130.087 471.515 135.042 473.432C152.516 480.23 165.817 475.349 173.207 453.997C173.207 453.997 182.074 422.71 186.334 401.707C186.682 399.877 187.029 398.134 187.29 396.478C187.551 394.909 187.725 393.428 187.812 392.033C188.768 382.708 183.9 373.732 175.641 369.374L161.296 361.792C155.993 359.003 149.734 358.481 143.996 360.311L134.868 363.361C132.434 364.145 129.739 364.058 127.392 362.925L99.5721 350.375C97.8334 349.591 96.4424 348.197 95.66 346.541L88.3574 331.377C87.2273 329.111 85.4016 327.281 83.0544 326.235L70.1879 320.57C61.8421 316.823 52.0183 318.391 45.2373 324.666C43.4117 326.409 41.4122 328.501 39.2388 331.028C25.3291 347.674 8.02889 370.071 8.02889 370.071C8.02889 370.071 -0.577735 380.878 0.0308148 392.382Z" fill="#CFCDE0"/>
<g opacity="0.3">
<path d="M122.697 462.887C122.784 463.061 122.958 463.322 123.045 463.497C125.826 468.028 130.086 471.602 135.042 473.519C152.516 480.317 165.817 475.436 173.206 454.084C173.206 454.084 182.074 422.797 186.334 401.794C186.681 399.964 187.029 398.221 187.29 396.565C187.029 394.822 186.855 393.602 186.768 393.341C186.508 392.643 185.29 386.804 177.727 382.883C172.25 420.009 163.73 447.2 152.081 464.368C152.081 464.368 139.128 476.395 123.479 463.497C123.131 463.235 122.871 463.061 122.697 462.887Z" fill="#000073"/>
</g>
<g opacity="0.3">
<path d="M46.0197 388.024C46.0197 388.024 48.8017 386.281 54.1047 388.373C53.9309 386.369 54.1917 384.277 55.148 382.272C57.756 376.521 64.1893 373.819 69.4923 376.259C74.7954 378.699 77.0557 385.323 74.4477 391.075C73.5783 392.992 72.2743 394.561 70.7964 395.694L89.1398 403.711C88.879 401.62 89.1398 399.267 90.0961 397.175C92.7042 391.423 99.1374 388.722 104.44 391.162C109.744 393.602 112.004 400.225 109.396 405.977C108.44 408.069 107.049 409.725 105.31 410.945L107.309 411.816C111.569 413.734 114.786 417.307 116.177 421.839C117.481 426.022 119.22 431.687 121.045 437.962C124.783 450.86 134.086 466.896 140.258 469.684C140.258 469.684 127.913 472.647 120.437 458.616C120.176 458.093 119.828 457.57 119.393 457.135C114.699 448.332 110.787 438.484 107.831 427.416C106.962 424.279 104.701 421.664 101.745 420.357L58.5384 401.446C56.452 400.487 54.0178 400.574 51.9313 401.446C45.0634 404.583 39.4126 407.546 33.414 408.679C24.7205 410.335 16.5485 409.551 8.8982 406.239C5.50771 404.757 2.72577 402.056 1.42173 398.657C0.552376 396.565 0.204633 394.474 0.0307617 392.382C0.204633 391.423 0.378504 390.813 0.378504 390.813C12.7234 401.184 27.5024 401.968 46.0197 388.024Z" fill="#000073"/>
</g>
<path d="M88.8792 331.9L90.2702 327.804C91.0526 325.451 89.9225 323.01 87.6621 321.965L75.0565 316.038C73.5786 315.341 71.8399 315.69 70.6228 316.823L67.8408 319.612" fill="#4A4A9E"/>
<g opacity="0.55">
<path d="M67.8408 319.699L68.1016 319.873L69.1449 318.827C70.275 317.694 72.0137 317.346 73.5786 318.043L86.1842 323.969C88.4446 324.928 89.4878 327.455 88.7923 329.808L88.2707 331.464L88.9662 331.9L90.3572 327.804C91.1396 325.451 90.0094 323.01 87.7491 321.965L75.1434 316.038C73.6655 315.341 71.9268 315.69 70.7097 316.823L67.8408 319.699Z" fill="white"/>
</g>
<g opacity="0.55">
<path d="M47.5845 322.923C53.67 319.873 60.8856 319.611 67.3189 322.4L80.1853 328.065C82.5326 329.111 84.3583 330.854 85.4884 333.207L92.791 348.371C93.5734 350.114 94.9644 351.421 96.7031 352.206L124.523 364.755C126.87 365.801 129.565 365.975 131.999 365.191L141.127 362.141C146.865 360.223 153.037 360.746 158.427 363.622L172.772 371.204C174.076 371.902 175.206 372.686 176.336 373.557C176.336 373.557 176.336 373.557 176.423 373.645C177.466 374.429 185.725 381.139 187.203 389.593C187.377 390.465 187.551 391.162 187.812 391.859C188.594 382.621 183.813 373.819 175.554 369.461L161.209 361.879C155.906 359.09 149.647 358.568 143.909 360.398L134.781 363.448C132.347 364.232 129.652 364.145 127.304 363.012L99.4851 350.463C97.7463 349.678 96.3554 348.284 95.5729 346.628L88.2704 331.464C87.1402 329.198 85.3145 327.368 82.9673 326.322L70.1008 320.657C62.7113 317.433 54.1046 318.304 47.5845 322.923Z" fill="white"/>
</g>
<path d="M109.657 354.82L114.177 347.761C115.308 346.018 117.481 345.321 119.307 346.192L122.784 347.761C125.131 348.807 126.001 351.683 124.61 353.862C122.784 356.65 120.698 359.962 120.784 359.962" fill="#4A4A9E"/>
<g opacity="0.55">
<path d="M109.657 354.82H109.744L112.613 350.201C113.743 348.458 115.916 347.761 117.742 348.633L121.219 350.114C123.306 350.986 124.175 353.339 123.48 355.343C123.827 354.82 124.175 354.21 124.523 353.687C125.914 351.509 125.044 348.633 122.697 347.587L119.22 346.105C117.307 345.321 115.134 345.931 114.09 347.674L109.657 354.82Z" fill="white"/>
</g>
<path d="M180.335 372.425L180.77 368.241C180.944 366.411 180.074 364.668 178.423 363.797L164.426 356.215C162.948 355.43 161.036 355.517 159.645 356.563L155.385 359.701" fill="#4A4A9E"/>
<g opacity="0.55">
<path d="M155.472 359.613L156.515 360.136L158.514 358.655C159.905 357.609 161.731 357.522 163.296 358.306L177.293 365.888C178.857 366.76 179.814 368.503 179.64 370.333L179.466 371.815L180.422 372.25L180.857 368.067C181.031 366.237 180.161 364.494 178.51 363.622L164.513 356.04C162.948 355.256 161.122 355.343 159.732 356.389L155.472 359.613Z" fill="white"/>
</g>
<path d="M156.254 375.649C159.21 376.869 160.166 380.355 158.427 383.318C156.689 386.369 152.951 387.763 149.995 386.543C147.039 385.323 146.083 381.924 147.821 378.874C149.473 375.911 153.298 374.429 156.254 375.649Z" fill="#E9F400"/>
<g opacity="0.3">
<path d="M150.256 386.543C153.211 387.763 156.95 386.369 158.688 383.318C159.036 382.708 159.297 382.098 159.384 381.488C157.471 383.667 154.255 384.626 151.734 383.58C149.386 382.621 148.256 380.181 148.865 377.741C148.517 378.089 148.256 378.525 147.995 378.874C146.344 381.924 147.387 385.323 150.256 386.543Z" fill="#000073"/>
</g>
<g opacity="0.3">
<path d="M147.213 389.419C149.995 390.988 153.907 390.029 155.993 387.24C156.428 386.717 156.689 386.107 156.863 385.497C154.689 387.414 151.472 388.024 149.038 386.63C146.778 385.41 145.996 382.883 146.865 380.442C146.517 380.791 146.169 381.14 145.909 381.488C143.822 384.364 144.431 387.85 147.213 389.419Z" fill="#000073"/>
</g>
<g opacity="0.55">
<path d="M150.777 376.172C151.908 375.998 153.125 376.085 154.168 376.521C157.124 377.741 158.08 381.14 156.341 384.19C155.733 385.149 154.95 386.02 154.081 386.63C156.08 386.282 157.993 384.974 159.123 383.057C160.862 380.007 159.906 376.608 156.95 375.388C155.037 374.516 152.69 374.865 150.777 376.172Z" fill="white"/>
</g>
<path d="M152.255 388.286C151.299 388.286 150.342 388.112 149.473 387.763C147.821 387.066 146.604 385.759 145.996 384.103C145.387 382.273 145.648 380.181 146.691 378.351C148.691 374.865 153.211 373.122 156.689 374.603C158.341 375.301 159.558 376.608 160.166 378.264C160.775 380.094 160.514 382.185 159.471 384.016C157.906 386.63 155.037 388.286 152.255 388.286ZM153.994 376.433C151.994 376.433 149.995 377.566 148.865 379.484C148.169 380.704 147.995 382.011 148.343 383.231C148.691 384.19 149.386 384.974 150.429 385.41C152.777 386.369 155.906 385.236 157.297 382.708C157.993 381.488 158.167 380.181 157.819 378.961C157.471 378.002 156.776 377.218 155.732 376.782C155.211 376.608 154.602 376.433 153.994 376.433Z" fill="#000073"/>
<path d="M143.04 398.57C145.996 399.79 146.952 403.189 145.213 406.239C143.474 409.202 139.736 410.684 136.78 409.463C133.825 408.243 132.868 404.757 134.607 401.794C136.346 398.744 140.171 397.262 143.04 398.57Z" fill="#12ED00"/>
<g opacity="0.3">
<path d="M136.781 409.464C139.737 410.684 143.475 409.289 145.213 406.239C145.561 405.629 145.822 405.019 145.909 404.409C143.996 406.588 140.78 407.546 138.259 406.5C135.911 405.542 134.781 403.102 135.39 400.661C135.042 401.01 134.781 401.446 134.52 401.794C132.869 404.757 133.825 408.156 136.781 409.464Z" fill="#000073"/>
</g>
<g opacity="0.3">
<path d="M133.738 412.252C136.52 413.821 140.432 412.862 142.519 410.074C142.953 409.551 143.214 408.941 143.388 408.331C141.215 410.248 137.998 410.858 135.564 409.464C133.303 408.243 132.521 405.716 133.39 403.276C133.043 403.624 132.695 403.973 132.434 404.322C130.348 407.198 130.956 410.684 133.738 412.252Z" fill="#000073"/>
</g>
<g opacity="0.55">
<path d="M137.302 399.006C138.432 398.831 139.65 398.918 140.693 399.354C143.649 400.574 144.605 403.973 142.866 407.023C142.258 407.982 141.475 408.854 140.606 409.464C142.605 409.115 144.518 407.808 145.648 405.89C147.387 402.84 146.43 399.441 143.475 398.221C141.475 397.35 139.128 397.698 137.302 399.006Z" fill="white"/>
</g>
<path d="M139.041 411.119C138.084 411.119 137.215 410.945 136.346 410.597C134.694 409.899 133.477 408.592 132.868 406.936C132.26 405.106 132.52 403.014 133.564 401.184C135.563 397.698 140.084 395.955 143.561 397.437C145.213 398.134 146.43 399.441 147.039 401.097C147.647 402.927 147.386 405.019 146.343 406.849C144.778 409.464 141.823 411.119 139.041 411.119ZM140.779 399.354C138.78 399.354 136.78 400.487 135.65 402.404C134.955 403.625 134.781 404.932 135.129 406.152C135.476 407.111 136.172 407.895 137.215 408.331C139.562 409.289 142.692 408.156 144.083 405.629C144.778 404.409 144.952 403.102 144.605 401.882C144.257 400.923 143.561 400.138 142.518 399.703C141.996 399.441 141.388 399.354 140.779 399.354Z" fill="#000073"/>
<path d="M138.519 382.447C141.475 383.667 142.431 387.153 140.693 390.116C138.954 393.079 135.216 394.561 132.26 393.341C129.304 392.121 128.348 388.635 130.086 385.671C131.738 382.621 135.563 381.227 138.519 382.447Z" fill="#FF1D1D"/>
<g opacity="0.3">
<path d="M132.347 393.079C135.302 394.299 139.041 392.905 140.779 389.855C141.127 389.245 141.388 388.635 141.475 388.025C139.562 390.203 136.346 391.162 133.825 390.116C131.477 389.158 130.347 386.717 130.956 384.277C130.608 384.626 130.347 385.061 130.086 385.41C128.435 388.46 129.391 391.859 132.347 393.079Z" fill="#000073"/>
</g>
<g opacity="0.3">
<path d="M129.304 395.955C132.086 397.524 135.998 396.565 138.084 393.777C138.519 393.254 138.78 392.644 138.954 392.033C136.78 393.951 133.564 394.561 131.13 393.166C128.869 391.946 128.087 389.419 128.956 386.979C128.608 387.327 128.261 387.676 128 388.025C125.913 390.901 126.522 394.387 129.304 395.955Z" fill="#000073"/>
</g>
<g opacity="0.55">
<path d="M132.869 382.708C133.999 382.534 135.216 382.621 136.259 383.057C139.215 384.277 140.171 387.676 138.433 390.726C137.824 391.685 137.042 392.556 136.172 393.166C138.172 392.818 140.084 391.51 141.214 389.593C142.953 386.543 141.997 383.144 139.041 381.924C137.042 381.052 134.694 381.401 132.869 382.708Z" fill="white"/>
</g>
<path d="M134.433 394.996C133.477 394.996 132.608 394.822 131.738 394.473C130.086 393.776 128.869 392.469 128.261 390.813C127.652 388.983 127.913 386.891 128.956 385.061C130.956 381.575 135.476 379.832 138.954 381.314C140.606 382.011 141.823 383.318 142.431 384.974C143.04 386.804 142.779 388.896 141.736 390.726C140.258 393.341 137.302 394.996 134.433 394.996ZM136.259 383.231C134.259 383.231 132.26 384.364 131.13 386.281C130.434 387.501 130.26 388.809 130.608 390.029C130.956 390.987 131.651 391.772 132.695 392.208C135.042 393.166 138.171 392.033 139.562 389.506C140.258 388.286 140.432 386.979 140.084 385.758C139.736 384.8 139.041 384.015 137.998 383.58C137.476 383.318 136.867 383.231 136.259 383.231Z" fill="#000073"/>
<path d="M160.775 391.772C163.73 392.992 164.687 396.478 162.948 399.441C161.209 402.404 157.471 403.886 154.515 402.666C151.559 401.446 150.603 397.96 152.342 394.997C154.081 391.946 157.906 390.552 160.775 391.772Z" fill="#1595FF"/>
<g opacity="0.3">
<path d="M154.429 402.579C157.385 403.799 161.123 402.404 162.861 399.354C163.209 398.744 163.47 398.134 163.557 397.524C161.644 399.703 158.428 400.661 155.907 399.615C153.559 398.657 152.429 396.217 153.038 393.776C152.69 394.125 152.429 394.561 152.168 394.909C150.517 397.96 151.473 401.358 154.429 402.579Z" fill="#000073"/>
</g>
<g opacity="0.3">
<path d="M151.299 405.455C154.081 407.023 157.993 406.065 160.079 403.276C160.514 402.753 160.775 402.143 160.949 401.533C158.775 403.45 155.559 404.06 153.124 402.666C150.864 401.446 150.082 398.918 150.951 396.478C150.603 396.827 150.256 397.175 149.995 397.524C147.995 400.313 148.517 403.886 151.299 405.455Z" fill="#000073"/>
</g>
<g opacity="0.55">
<path d="M154.95 392.121C156.08 391.946 157.297 392.034 158.341 392.469C161.297 393.689 162.253 397.088 160.514 400.138C159.906 401.097 159.123 401.969 158.254 402.579C160.253 402.23 162.166 400.923 163.296 399.006C165.035 395.955 164.078 392.556 161.123 391.336C159.123 390.552 156.776 390.901 154.95 392.121Z" fill="white"/>
</g>
<path d="M156.776 404.322C155.819 404.322 154.95 404.147 154.081 403.799C152.429 403.101 151.212 401.794 150.603 400.138C149.995 398.308 150.255 396.217 151.299 394.386C153.298 390.9 157.819 389.157 161.296 390.639C162.948 391.336 164.165 392.643 164.774 394.299C165.382 396.129 165.121 398.221 164.078 400.051C162.513 402.753 159.557 404.322 156.776 404.322ZM158.514 392.556C156.515 392.556 154.515 393.689 153.385 395.607C152.69 396.827 152.516 398.134 152.863 399.354C153.211 400.313 153.907 401.097 154.95 401.533C157.297 402.491 160.427 401.358 161.818 398.831C162.513 397.611 162.687 396.304 162.339 395.084C161.992 394.125 161.296 393.341 160.253 392.905C159.731 392.643 159.123 392.556 158.514 392.556Z" fill="#000073"/>
<path d="M107.136 372.86L114.525 375.998C115.047 376.259 115.742 376.085 116.09 375.562L117.394 373.645C117.829 372.948 117.568 372.076 116.872 371.815L109.483 368.677C108.961 368.416 108.266 368.59 107.918 369.113L106.614 371.03C106.092 371.64 106.44 372.599 107.136 372.86Z" fill="#000073"/>
<path d="M93.1389 366.847L100.528 369.984C101.05 370.246 101.746 370.072 102.093 369.549L103.397 367.631C103.832 366.934 103.571 366.063 102.876 365.801L95.4862 362.664C94.9646 362.402 94.2691 362.577 93.9213 363.1L92.6173 365.017C92.1826 365.627 92.4434 366.498 93.1389 366.847Z" fill="#000073"/>
<path d="M114.651 405.108C117.236 399.36 115.003 392.744 109.663 390.331C104.323 387.917 97.8986 390.621 95.3135 396.368C92.7284 402.116 94.9616 408.732 100.301 411.146C105.641 413.559 112.066 410.856 114.651 405.108Z" fill="#4A4A9E"/>
<g opacity="0.3">
<path d="M100.268 411.119C104.528 413.037 109.483 411.729 112.613 408.156C110.439 408.679 108.179 408.505 106.006 407.546C100.702 405.106 98.4422 398.483 101.05 392.731C101.572 391.598 102.267 390.552 103.05 389.68C99.7462 390.465 96.7904 392.818 95.3125 396.304C92.7044 402.143 94.9647 408.679 100.268 411.119Z" fill="#000073"/>
</g>
<g opacity="0.55">
<path d="M98.9634 391.685C101.658 390.465 104.701 390.378 107.396 391.598C112.699 394.038 114.96 400.661 112.351 406.413C111.482 408.331 110.178 409.899 108.7 411.119C111.221 409.986 113.308 407.895 114.612 405.106C117.22 399.354 114.96 392.731 109.656 390.29C106.092 388.722 102.006 389.332 98.9634 391.685Z" fill="white"/>
</g>
<path d="M104.44 413.298C102.876 413.298 101.311 412.95 99.8329 412.339C93.9212 409.638 91.4001 402.317 94.1821 395.955C97.0509 389.593 104.18 386.63 110.178 389.332C113.047 390.639 115.22 393.079 116.351 396.217C117.394 399.267 117.22 402.666 115.829 405.803C114.438 408.853 112.004 411.294 109.048 412.514C107.483 412.95 105.918 413.298 104.44 413.298ZM96.4424 396.827C94.182 401.969 96.0946 407.808 100.789 409.986C103.049 411.032 105.658 411.032 108.005 409.986C110.439 408.941 112.352 407.023 113.482 404.496C114.612 401.969 114.786 399.267 113.916 396.74C113.047 394.299 111.395 392.382 109.135 391.336C104.44 389.332 98.7027 391.772 96.4424 396.827Z" fill="#000073"/>
<path d="M105.48 394.767C107.394 390.511 105.788 385.633 101.892 383.873C97.9968 382.112 93.2872 384.135 91.3731 388.391C89.4589 392.647 91.0651 397.525 94.9605 399.285C98.8559 401.046 103.566 399.023 105.48 394.767Z" fill="#4A4A9E"/>
<g opacity="0.3">
<path d="M94.9645 399.267C98.8766 401.01 103.571 399.005 105.484 394.735C105.745 394.038 106.005 393.428 106.092 392.731C103.832 395.694 99.9198 396.914 96.7032 395.432C93.3996 393.951 91.7479 390.203 92.4433 386.543C92.0087 387.066 91.6609 387.676 91.4001 388.373C89.4875 392.644 91.0524 397.524 94.9645 399.267Z" fill="#000073"/>
</g>
<g opacity="0.55">
<path d="M94.1821 384.887C95.9208 384.277 97.8334 384.277 99.5721 385.149C103.484 386.892 105.049 391.772 103.136 396.042C102.528 397.524 101.485 398.657 100.355 399.528C102.528 398.831 104.441 397.175 105.484 394.822C107.396 390.552 105.831 385.671 101.919 383.928C99.3113 382.708 96.3555 383.231 94.1821 384.887Z" fill="white"/>
</g>
<path d="M97.9204 401.184C96.7033 401.184 95.5731 400.923 94.443 400.4C92.2696 399.441 90.6178 397.524 89.8354 395.171C89.0529 392.818 89.2268 390.203 90.27 387.937C91.3133 385.584 93.1389 383.754 95.3992 382.795C97.7465 381.837 100.181 381.837 102.354 382.795C104.527 383.754 106.179 385.671 106.962 388.024C107.744 390.377 107.57 392.992 106.527 395.258C105.484 397.611 103.658 399.441 101.398 400.4C100.268 400.923 99.1375 401.184 97.9204 401.184ZM98.9636 384.538C98.0943 384.538 97.2249 384.713 96.4425 385.061C94.7038 385.759 93.3997 387.153 92.5304 388.983C91.748 390.726 91.5741 392.731 92.1826 394.474C92.7912 396.217 93.9213 397.524 95.4862 398.221C97.051 398.918 98.7897 398.918 100.528 398.221C102.267 397.524 103.571 396.129 104.441 394.299C105.223 392.556 105.397 390.552 104.788 388.809C104.18 387.066 103.05 385.759 101.485 385.061C100.615 384.713 99.746 384.538 98.9636 384.538Z" fill="#000073"/>
<path d="M95.6602 394.561C96.7903 394.648 97.7466 394.387 98.529 393.951C99.3115 393.428 99.8331 392.731 100.268 391.946C100.615 391.162 100.789 390.203 100.615 389.332C100.442 388.46 100.007 387.502 99.2245 386.717C100.355 386.804 101.398 387.763 101.92 388.896C102.441 390.029 102.354 391.423 101.833 392.556C101.311 393.689 100.355 394.648 99.1376 395.084C97.9205 395.607 96.5295 395.345 95.6602 394.561Z" fill="#000073"/>
<path d="M103.05 403.189C102.354 403.189 101.572 403.014 100.876 402.753C99.8329 402.23 98.9635 401.446 98.355 400.4L100.528 399.267C100.876 399.877 101.311 400.313 101.919 400.574C103.484 401.271 105.484 400.4 106.266 398.57C106.962 397.001 106.614 395.171 105.31 394.299L106.788 392.295C108.961 393.864 109.744 397.001 108.526 399.616C107.483 401.794 105.31 403.189 103.05 403.189Z" fill="#000073"/>
<path d="M81.9646 389.674C84.5497 383.926 82.3165 377.31 76.9767 374.897C71.6369 372.483 65.2126 375.186 62.6275 380.934C60.0424 386.682 62.2755 393.298 67.6153 395.712C72.9551 398.125 79.3795 395.422 81.9646 389.674Z" fill="#4A4A9E"/>
<g opacity="0.3">
<path d="M67.5798 395.694C71.8397 397.611 76.795 396.304 79.9247 392.731C77.7513 393.254 75.491 393.079 73.3176 392.121C68.0145 389.681 65.7542 383.057 68.3622 377.305C68.8839 376.172 69.5793 375.126 70.3618 374.255C67.0582 375.039 64.1024 377.392 62.6245 380.878C60.0164 386.717 62.2767 393.254 67.5798 395.694Z" fill="#000073"/>
</g>
<g opacity="0.55">
<path d="M66.2759 376.259C68.9709 375.039 72.0136 374.952 74.7086 376.172C80.0117 378.612 82.272 385.236 79.664 390.988C78.7946 392.905 77.4906 394.474 76.0127 395.694C78.5338 394.561 80.6203 392.469 81.9243 389.68C84.5324 383.928 82.272 377.305 76.969 374.865C73.4046 373.296 69.3186 373.906 66.2759 376.259Z" fill="white"/>
</g>
<path d="M71.753 397.785C70.1881 397.785 68.6233 397.437 67.1454 396.827C61.2337 394.125 58.7126 386.804 61.4946 380.443C64.3634 374.081 71.4922 371.117 77.4907 373.819C80.3596 375.126 82.533 377.567 83.6631 380.704C84.7064 383.754 84.5325 387.153 83.1415 390.291C81.7506 393.341 79.3164 395.781 76.3606 397.001C74.7957 397.524 73.2309 397.785 71.753 397.785ZM63.7549 381.401C61.4946 386.543 63.4071 392.382 68.1017 394.561C70.362 395.607 72.9701 395.607 75.3173 394.561C77.7515 393.515 79.6641 391.598 80.7943 389.158C81.9244 386.63 82.0983 383.929 81.2289 381.401C80.3596 378.961 78.7078 377.044 76.4475 375.998C71.753 373.906 66.0152 376.346 63.7549 381.401Z" fill="#000073"/>
<path d="M72.7931 379.336C74.7073 375.08 73.1012 370.202 69.2057 368.442C65.3103 366.681 60.6007 368.704 58.6866 372.96C56.7724 377.216 58.3786 382.094 62.274 383.854C66.1694 385.615 70.879 383.592 72.7931 379.336Z" fill="#4A4A9E"/>
<g opacity="0.3">
<path d="M62.277 383.841C66.1891 385.584 70.8836 383.58 72.7962 379.31C73.057 378.612 73.3178 378.002 73.4047 377.305C71.1444 380.268 67.2323 381.488 64.0157 380.007C60.7121 378.525 59.0604 374.778 59.7558 371.117C59.3212 371.64 58.9734 372.25 58.7126 372.948C56.8 377.218 58.3649 382.098 62.277 383.841Z" fill="#000073"/>
</g>
<g opacity="0.55">
<path d="M61.4941 369.462C63.2329 368.852 65.1454 368.852 66.8842 369.723C70.7963 371.466 72.3611 376.346 70.4485 380.617C69.84 382.098 68.7967 383.231 67.6666 384.103C69.84 383.406 71.7525 381.75 72.7958 379.397C74.7084 375.126 73.1435 370.246 69.2314 368.503C66.6233 367.283 63.6675 367.806 61.4941 369.462Z" fill="white"/>
</g>
<path d="M65.2324 385.759C64.1022 385.759 62.8851 385.497 61.755 385.061C59.5816 384.103 57.9298 382.185 57.1474 379.832C56.365 377.479 56.5388 374.865 57.5821 372.599C58.6253 370.246 60.4509 368.416 62.7113 367.457C65.0585 366.498 67.4927 366.498 69.6661 367.457C71.8395 368.416 73.4913 370.333 74.2737 372.686C75.0561 375.039 74.8823 377.654 73.839 379.92C72.2742 383.493 68.7968 385.759 65.2324 385.759ZM66.2756 369.113C65.4063 369.113 64.5369 369.287 63.7545 369.636C62.0158 370.333 60.7117 371.727 59.8424 373.558C59.06 375.301 58.8861 377.305 59.4946 379.048C60.1032 380.791 61.2334 382.098 62.7982 382.796C66.1018 384.277 70.0139 382.534 71.6656 378.874C72.4481 377.131 72.6219 375.126 72.0134 373.383C71.4048 371.64 70.2747 370.333 68.7098 369.636C67.9274 369.287 67.058 369.113 66.2756 369.113Z" fill="#000073"/>
<path d="M62.9722 379.135C64.1023 379.222 65.0586 378.961 65.841 378.525C66.6235 378.002 67.1451 377.305 67.5798 376.521C67.9275 375.736 68.1014 374.778 67.9275 373.906C67.7536 373.035 67.3189 372.076 66.5365 371.292C67.6667 371.379 68.7099 372.338 69.2315 373.471C69.7531 374.603 69.6662 375.998 69.1446 377.131C68.623 378.264 67.6667 379.222 66.4496 379.658C65.1456 380.181 63.7546 379.92 62.9722 379.135Z" fill="#000073"/>
<path d="M70.3615 387.763C69.666 387.763 68.8836 387.589 68.1881 387.327C67.1449 386.804 66.2755 386.02 65.667 384.974L67.8404 383.841C68.1881 384.451 68.6228 384.887 69.2314 385.148C70.7962 385.846 72.7957 384.974 73.5781 383.144C74.2736 381.575 73.9259 379.745 72.6218 378.874L74.0997 376.869C76.2731 378.438 77.0556 381.575 75.8385 384.19C74.7952 386.369 72.6218 387.763 70.3615 387.763Z" fill="#000073"/>
<path d="M90.4439 332.423L87.2273 331.377L88.6183 327.281C89.1399 325.799 88.4444 324.23 86.9665 323.62L74.2739 317.694C73.4045 317.346 72.4482 317.52 71.8397 318.13L69.0577 320.919L66.6235 318.479L69.4055 315.69C71.0573 314.034 73.5784 313.598 75.7518 314.557L88.3574 320.483C91.4002 321.79 92.8781 325.189 91.8349 328.327L90.4439 332.423Z" fill="#000073"/>
<path d="M85.4018 327.629L83.6631 326.148C84.4455 325.189 84.8802 324.23 84.7933 323.359C84.7063 322.139 83.6631 321.267 83.6631 321.267L85.0541 319.437C85.141 319.524 86.7928 320.831 87.0536 323.01C87.1405 324.666 86.6189 326.235 85.4018 327.629Z" fill="#000073"/>
<path d="M182.074 372.599L178.684 372.25L179.118 368.067C179.205 366.934 178.684 365.888 177.727 365.365L163.731 357.783C162.775 357.26 161.644 357.347 160.775 357.958L156.515 361.095L154.516 358.306L158.775 355.169C160.688 353.774 163.296 353.6 165.383 354.733L179.379 362.315C181.553 363.535 182.857 365.888 182.596 368.416L182.074 372.599Z" fill="#000073"/>
<path d="M176.858 369.549L174.685 369.026L175.467 365.975C175.815 364.668 175.206 363.274 173.989 362.576L175.032 360.572C177.119 361.705 178.249 364.145 177.641 366.498L176.858 369.549Z" fill="#000073"/>
<g opacity="0.3">
<path d="M40.8034 358.916L45.3241 360.834L43.8462 363.361L41.1512 368.067L41.2381 368.416L43.7592 369.549L51.8442 372.86L56.191 365.365L63.4936 368.416L68.449 359.875L69.8399 357.348L65.3193 355.43L62.5373 354.297L65.4062 349.33L66.8841 346.802L56.0172 342.271L51.7573 349.765L44.3678 346.715L38.0215 357.783L40.8034 358.916Z" fill="#000073"/>
</g>
<path d="M43.759 347.238L48.2796 349.156L46.8017 351.683L44.1067 356.389L44.1937 356.738L46.7148 357.783L54.7998 361.182L59.0597 353.687L66.4492 356.738L71.3176 348.11L72.7955 345.67L68.2748 343.752L65.4929 342.532L68.3618 337.565L69.8397 335.124L58.9727 330.505L54.6259 338L47.3234 334.95L40.9771 346.105L43.759 347.238Z" fill="#3D3D93"/>
<g opacity="0.55">
<path d="M58.973 330.505L57.7559 332.684L67.9273 337.042L66.5364 339.482L63.6675 344.537L66.4494 345.67L70.9701 347.587L69.4922 350.027L65.8409 356.476L66.4494 356.738L71.3178 348.11L72.7957 345.67L68.2751 343.752L65.4931 342.532L68.362 337.565L69.753 335.124L58.973 330.505Z" fill="white"/>
</g>
<g opacity="0.55">
<path d="M46.1064 337.129L52.8005 340.005L54.1045 337.826L47.3235 334.95L46.1064 337.129Z" fill="white"/>
</g>
<path d="M65.4932 342.532L69.6661 344.362L72.0133 340.528L69.8399 335.124L68.362 337.564L65.4932 342.532Z" fill="#3D3D93"/>
<path d="M44.1938 356.738L45.8456 362.751L56.6256 367.283L60.9724 359.788L68.275 362.838L74.7083 351.77L72.7957 345.669L71.3178 348.11L66.4494 356.738L59.0598 353.687L54.8 361.182L46.715 357.783L44.1938 356.738Z" fill="#3D3D93"/>
<path d="M40.9771 346.105L42.1942 351.16L46.1063 352.903L48.2796 349.155L43.759 347.238L40.9771 346.105Z" fill="#3D3D93"/>
<path d="M54.8001 362.402C54.6262 362.402 54.4523 362.402 54.3654 362.315L43.7592 357.871C43.4115 357.696 43.1507 357.435 43.0638 357.086L42.9768 356.738C42.8899 356.389 42.8899 356.04 43.0638 355.779L46.5412 349.766L40.5426 347.238C40.1949 347.064 39.9341 346.802 39.8471 346.454C39.7602 346.105 39.7602 345.757 39.9341 345.408L46.2804 334.34C46.6281 333.817 47.2367 333.556 47.8452 333.817L54.1915 336.432L57.9298 329.895C58.2775 329.372 58.886 329.111 59.4946 329.372L70.3616 333.904C70.7093 334.078 70.9701 334.34 71.057 334.688C71.144 335.037 71.144 335.386 70.9701 335.734L67.3188 342.009L73.3174 344.537C73.6651 344.711 73.9259 344.972 74.0128 345.321C74.0998 345.669 74.0998 346.018 73.9259 346.367L67.5796 357.435C67.2319 357.958 66.6233 358.219 66.0148 357.958L59.6685 355.343L55.9302 361.879C55.5825 362.141 55.2348 362.402 54.8001 362.402ZM45.7588 356.04L54.2785 359.614L58.0167 353.077C58.3644 352.554 58.973 352.293 59.5815 352.554L65.9278 355.169L71.057 346.192L65.0585 343.665C64.7107 343.491 64.4499 343.229 64.363 342.881C64.2761 342.532 64.2761 342.183 64.4499 341.835L68.1012 335.56L59.5815 331.987L55.8433 338.523C55.4956 339.046 54.887 339.307 54.2785 339.046L47.9322 336.432L42.803 345.408L44.2809 346.018L48.8015 347.935C49.1493 348.11 49.4101 348.371 49.497 348.72C49.5839 349.068 49.5839 349.417 49.4101 349.766L45.7588 356.04Z" fill="#000073"/>
<path d="M69.6658 345.582C69.492 345.582 69.3181 345.582 69.2312 345.495L65.0583 343.752C64.7105 343.578 64.4497 343.316 64.3628 342.968C64.2758 342.619 64.2758 342.27 64.4497 341.922L68.7965 334.427C69.0573 333.991 69.492 333.817 69.9267 333.817C70.3613 333.817 70.796 334.166 70.9699 334.601L73.1433 340.005C73.3171 340.353 73.2302 340.789 73.0563 341.138L70.7091 344.972C70.5352 345.321 70.1005 345.582 69.6658 345.582ZM67.2316 342.009L69.1442 342.793L70.6221 340.44L69.5789 337.913L67.2316 342.009Z" fill="#000073"/>
<path d="M56.6256 368.503C56.4517 368.503 56.2778 368.503 56.1909 368.416L45.3239 363.884C44.9762 363.71 44.7154 363.448 44.6284 363.099L42.9767 357.086C42.8897 356.65 42.9767 356.127 43.3244 355.866C43.6722 355.517 44.1938 355.43 44.6284 355.692L54.1914 359.701L57.9296 353.164C58.2773 352.641 58.8859 352.38 59.4944 352.641L65.8407 355.256L71.6654 345.059C71.9262 344.624 72.3609 344.362 72.8825 344.449C73.4041 344.536 73.7519 344.885 73.9258 345.321L75.8383 351.421C75.9253 351.77 75.9253 352.119 75.7514 352.38L69.4051 363.448C69.0574 363.971 68.4488 364.232 67.8403 363.971L61.494 361.356L57.7557 367.893C57.4949 368.329 57.0602 368.503 56.6256 368.503ZM46.8888 361.879L56.1909 365.801L59.9291 359.265C60.2769 358.742 60.8854 358.481 61.494 358.742L67.8403 361.356L73.4041 351.683L72.5348 348.807V348.894L67.5795 357.522C67.2317 358.045 66.6232 358.306 66.0146 358.045L59.6683 355.43L55.9301 361.967C55.5823 362.489 54.9738 362.751 54.3652 362.489L46.1064 359.003L46.8888 361.879Z" fill="#000073"/>
<path d="M46.1067 354.123C45.9329 354.123 45.759 354.123 45.5851 354.036L41.673 352.293C41.3253 352.119 41.0645 351.857 40.9775 351.421L39.7604 346.367C39.6735 345.931 39.8474 345.408 40.1951 345.147C40.5429 344.885 41.0645 344.798 41.4991 344.972L48.8017 348.023C49.1495 348.197 49.4103 348.458 49.4972 348.807C49.5842 349.155 49.5842 349.504 49.4103 349.853L47.2369 353.6C46.8892 353.949 46.5414 354.123 46.1067 354.123ZM43.2379 350.288L45.5851 351.334L46.5414 349.766L42.8032 348.197L43.2379 350.288Z" fill="#000073"/>
<g opacity="0.3">
<path d="M68.2752 362.838L66.2757 356.999L59.0601 353.687L60.9726 360.485L68.4491 363.012" fill="#000073"/>
</g>
<g opacity="0.3">
<path d="M54.8 361.182L56.191 367.196L45.324 362.402L44.1938 356.738L54.8 361.182Z" fill="#000073"/>
</g>
<g opacity="0.15">
<path d="M28.7194 369.81L24.7204 367.718C23.2425 367.021 21.5907 367.195 20.2867 368.241C16.8093 371.204 13.6796 375.039 10.7238 379.309C9.76748 380.617 10.2022 382.534 11.5931 383.318L17.6786 386.891C18.7218 387.502 20.0259 387.327 20.8083 386.369L29.9365 376.085C31.7622 374.255 31.1536 371.03 28.7194 369.81Z" fill="white"/>
</g>
<g opacity="0.15">
<path d="M150.603 430.205L154.255 432.82C155.559 433.778 156.167 435.434 155.819 437.003C154.776 441.448 152.777 445.979 150.256 450.598C149.473 451.993 147.647 452.516 146.257 451.644L140.258 447.897C139.215 447.287 138.867 445.979 139.302 444.846L144.257 432.035C145.213 429.508 148.343 428.549 150.603 430.205Z" fill="white"/>
</g>
<path d="M122.697 348.546L119.394 345.408L121.045 346.977L119.394 345.408C119.394 345.408 122.784 341.399 123.653 328.937C124.697 314.818 132.521 309.764 133.564 309.154C140.432 304.622 146.865 299.306 151.125 295.732C154.429 292.944 157.124 289.806 159.384 286.407C162.514 281.527 166.86 278.477 170.599 276.559C163.557 272.289 155.907 270.72 150.69 270.197C142.258 269.326 134.433 267.496 127.479 264.794C105.571 256.428 89.4008 241.873 79.4901 221.655L79.4032 221.306C75.0564 207.623 74.5348 194.551 77.9253 183.483C80.968 173.548 87.1405 165.355 95.3994 160.388C110.352 151.411 129.13 154.374 142.084 167.796C143.388 169.103 144.605 170.149 145.909 171.02C153.299 175.901 160.166 176.685 167.034 173.46C170.077 171.979 172.859 169.713 175.119 166.924C187.899 150.627 205.634 143.742 221.282 148.884C237.365 154.2 247.537 170.672 248.406 192.982C249.449 221.655 234.583 249.194 209.633 264.968C200.765 270.546 190.768 274.991 180.162 278.041C182.596 280.394 184.769 283.183 186.682 286.582C187.203 287.453 196.245 301.659 219.804 296.517C224.064 295.558 228.237 295.384 232.149 295.82C240.408 296.778 254.405 301.571 255.883 322.139L251.362 322.488C250.145 306.016 239.973 301.397 231.628 300.351C228.237 299.916 224.586 300.177 220.847 300.961C216.935 301.833 213.284 302.182 210.067 302.182C190.942 302.182 183.204 289.458 182.857 288.848C180.77 285.013 178.075 282.05 175.206 279.61C171.642 281.004 166.687 283.793 163.47 288.848C161.036 292.595 157.993 295.994 154.429 299.131C150.082 302.879 143.475 308.282 136.433 312.988L136.259 313.075C135.998 313.25 129.478 317.084 128.609 329.285C127.131 343.491 123.219 348.023 122.697 348.546ZM83.5761 219.912C92.9652 238.997 108.266 252.68 129.043 260.611C135.737 263.138 143.127 264.881 151.125 265.753C157.471 266.45 167.208 268.454 175.641 274.555C177.032 274.119 178.075 273.945 178.423 273.858C188.768 270.895 198.418 266.624 207.025 261.221C230.671 246.318 244.755 220.347 243.712 193.244C242.929 172.937 233.975 157.948 219.717 153.329C205.895 148.797 190.072 155.159 178.51 169.887C175.815 173.286 172.511 175.988 168.86 177.731C160.514 181.74 151.908 180.781 143.301 175.029C141.736 173.983 140.258 172.763 138.78 171.194C127.131 159.168 110.961 156.553 97.6597 164.571C84.7932 172.24 74.3609 190.803 83.5761 219.912Z" fill="#000073"/>
<path d="M264.228 288.935L263.794 287.802L262.924 286.93L263.011 287.017L262.924 286.93L263.446 286.669L263.794 287.802L264.75 288.673H264.663L264.228 288.935Z" fill="#000073"/>
<path d="M263.446 289.022L263.011 288.673L263.794 287.802L264.228 286.669L264.663 286.93H264.75L263.881 287.802L263.446 289.022Z" fill="#000073"/>
<path d="M63.3199 165.181C57.1475 226.796 106.527 275.165 167.99 281.353C229.454 287.54 284.223 242.658 290.396 181.042C296.568 119.427 252.057 61.6464 190.681 55.4587C129.217 49.271 69.4924 103.566 63.3199 165.181Z" fill="#BB5F1B"/>
<path d="M241.919 237.746C285.579 193.978 285.579 123.016 241.919 79.2486C198.26 35.4808 127.473 35.4808 83.813 79.2486C40.1531 123.016 40.1531 193.978 83.813 237.746C127.473 281.513 198.26 281.513 241.919 237.746Z" fill="#FFA519"/>
<path opacity="0.87" d="M224.216 219.998C258.098 186.032 258.098 130.962 224.216 96.9963C190.333 63.0303 135.399 63.0303 101.517 96.9963C67.635 130.962 67.635 186.032 101.517 219.998C135.399 253.964 190.333 253.964 224.216 219.998Z" fill="#FFE146"/>
<path opacity="0.8" d="M198.331 142.348L205.286 143.306C209.98 144.003 214.327 140.692 214.936 135.986L218.065 113.501L195.636 110.363C190.941 109.666 186.595 112.978 185.899 117.684L184.943 124.656C183.726 133.197 175.815 139.21 167.295 137.99C158.775 136.77 152.777 128.839 153.994 120.299L155.037 112.978C155.646 108.446 152.516 104.263 147.995 103.653L125.305 100.428L112.265 193.418L134.781 196.555C139.389 197.165 143.648 193.941 144.344 189.322L145.3 182.262C146.517 173.722 154.428 167.708 162.948 168.928C171.468 170.149 177.466 178.079 176.249 186.62L175.293 193.592C174.597 198.298 177.901 202.568 182.509 203.266L205.025 206.403L208.155 183.831C208.85 179.125 205.547 174.855 200.939 174.157L193.897 173.199C185.378 171.979 179.379 164.048 180.596 155.507C181.9 147.054 189.724 141.127 198.331 142.348Z" fill="#FFA519"/>
<path opacity="0.27" d="M225.368 65.5681C215.37 101.91 201.547 137.729 173.38 163.961C143.126 192.11 103.049 205.88 62.3633 207.623C78.7941 241.35 111.656 266.014 151.646 270.023C213.11 276.211 267.879 231.328 274.052 169.713C278.398 127.183 258.403 87.8786 225.368 65.5681Z" fill="#FFA519"/>
<path opacity="0.65" d="M111.047 78.3792C123.479 69.8385 137.998 64.6966 153.037 63.7379C157.819 63.3893 157.906 55.8944 153.037 56.1559C136.693 57.2017 120.784 62.5178 107.309 71.8429C103.31 74.6317 107.048 81.168 111.047 78.3792Z" fill="#FFCD80"/>
<path opacity="0.65" d="M183.465 60.862C183.291 59.9905 182.77 59.119 181.553 58.5961C177.467 56.8531 172.946 55.7201 168.512 55.3715C163.818 55.0229 163.644 62.605 168.512 62.9536C171.642 63.2151 184.769 68.967 183.465 60.862Z" fill="#FFCD80"/>
<path opacity="0.77" d="M101.05 114.024C92.1826 126.573 87.3142 141.825 86.9664 157.25C86.8795 163.351 96.2685 163.351 96.3555 157.25C96.6163 143.393 101.137 130.059 109.135 118.817C112.612 113.85 104.527 108.969 101.05 114.024Z" fill="#FFFBE7"/>
<path opacity="0.77" d="M99.7458 178.515C99.0503 176.162 97.6593 173.635 97.2246 171.63C95.9206 165.878 86.7923 168.231 88.1833 174.157C88.8788 177.295 90.0959 180.432 91.4869 183.308C94.2688 188.973 101.224 183.657 99.7458 178.515Z" fill="#FFFBE7"/>
</svg>
