<svg width="581" height="369" viewBox="0 0 581 369" fill="none" xmlns="http://www.w3.org/2000/svg">
<g clip-path="url(#clip0_631_235)">
<path d="M75.0677 270.562C75.0677 270.562 64.9514 246.268 39.7755 236.527C39.7755 236.527 44.4888 266.436 58.7436 275.375C58.7436 275.375 41.2699 254.404 7.12727 248.216C7.12727 248.216 16.324 297.034 53.6854 302.649C53.6854 302.649 37.1314 291.418 0.344727 289.356C0.344727 289.356 19.3129 320.297 50.8115 321.786C50.8115 321.786 24.1411 318.578 5.4029 325.683C18.1633 332.673 52.076 338.632 79.0913 336.569L75.0677 270.562Z" fill="#A7BD37"/>
<path d="M65.6415 251.997L58.2842 340.466H85.4144L76.9074 258.644L65.6415 251.997Z" fill="#3E5409"/>
<path d="M70.4695 304.941C61.1578 294.856 7.12738 249.362 6.89746 248.101C7.47225 248.101 62.9972 294.971 70.4695 304.941Z" fill="#3E5409"/>
<path d="M78.9764 326.026C65.1814 314.567 0.459834 290.502 0 289.356C0.344875 288.897 67.4806 314.567 78.9764 326.026Z" fill="#3E5409"/>
<path d="M81.0459 296.575C78.1719 288.439 39.5459 237.444 39.5459 236.298C41.3852 238.017 79.6664 288.668 81.0459 296.575Z" fill="#3E5409"/>
<path d="M84.3797 330.84C70.6996 328.204 5.74807 326.714 4.94336 325.797C4.94336 325.453 73.4586 327.287 84.3797 330.84Z" fill="#3E5409"/>
<path d="M501.793 287.064C501.793 287.064 506.967 257.727 521.106 247.986C521.106 247.986 526.739 271.822 521.106 281.563C521.106 281.563 539.27 264.03 557.548 255.32C557.548 255.32 557.893 291.648 533.752 300.357C533.752 300.357 549.041 292.793 580.77 298.867C580.77 298.867 555.824 324.078 538.465 324.078C538.465 324.078 565.48 325.224 580.77 336.111C571.343 342.528 524.9 339.893 493.861 336.913L501.793 287.064Z" fill="#A7BD37"/>
<path d="M506.047 263.342C506.047 263.342 513.519 324.651 523.636 339.549L488.573 352.498L487.999 271.822L506.047 263.342Z" fill="#3E5409"/>
<path d="M505.012 317.088C511.565 302.649 557.088 255.091 557.778 255.091C557.663 256.237 513.174 302.534 505.012 317.088Z" fill="#3E5409"/>
<path d="M501.219 309.524C502.713 304.024 508.231 292.335 513.289 273.885C517.888 259.904 520.187 248.101 521.222 247.757C520.187 254.633 506.277 301.274 501.219 309.524Z" fill="#3E5409"/>
<path d="M503.173 329.121C511.795 317.661 571.229 300.471 581.115 298.982C570.884 301.961 514.094 317.776 503.173 329.121Z" fill="#3E5409"/>
<path d="M500.644 338.059C496.85 333.934 575.252 333.475 581 336.111C580.425 336.913 567.09 335.079 549.731 334.965C521.681 334.506 507.656 336.455 500.644 338.059Z" fill="#3E5409"/>
<path d="M334.299 193.095C308.778 170.175 266.244 176.593 248.425 206.273L268.198 209.367C282.223 194.126 305.904 192.751 321.654 205.586L311.308 215.785L348.439 222.202L342.576 185.073L334.299 193.095Z" fill="url(#paint0_linear_631_235)"/>
<path d="M258.886 309.41C284.407 332.329 326.942 325.912 344.76 296.231L324.988 293.137C310.963 308.379 287.281 309.754 271.532 296.919L281.878 286.72L244.747 280.302L250.609 317.432L258.886 309.41Z" fill="url(#paint1_linear_631_235)"/>
<path d="M528.004 337.715H409.367C394.192 337.715 381.777 325.339 381.777 310.212V27.5031C381.777 12.3764 394.192 0 409.367 0H528.004C543.178 0 555.594 12.3764 555.594 27.5031V310.212C555.594 325.339 543.178 337.715 528.004 337.715Z" fill="#8172DD"/>
<path d="M529.499 330.954H407.873C397.181 330.954 388.33 322.245 388.33 311.473V25.4403C388.33 14.7829 397.066 5.95898 407.873 5.95898H529.499C540.19 5.95898 549.042 14.6683 549.042 25.4403V311.473C549.042 322.13 540.305 330.954 529.499 330.954Z" fill="url(#paint2_linear_631_235)"/>
<path d="M382.122 45.3801H379.823V83.3115H382.122V45.3801Z" fill="#625BC1"/>
<path d="M382.122 93.396H379.823V119.982H382.122V93.396Z" fill="#625BC1"/>
<path d="M557.779 93.396H555.479V119.982H557.779V93.396Z" fill="#625BC1"/>
<path d="M406.493 176.822C425.346 158.143 452.821 220.942 454.316 222.775C519.497 254.518 453.166 284.313 406.493 266.78C394.192 263.686 385.111 253.029 384.191 240.308C382.237 217.045 383.386 181.291 406.493 176.822Z" fill="#38385C"/>
<path d="M394.537 204.898C399.365 159.633 443.739 188.855 424.311 220.712L428.91 243.517L411.666 246.497L409.367 227.932C401.09 226.442 394.537 216.702 394.537 204.898Z" fill="#FFB6A6"/>
<path d="M431.669 206.617C431.669 206.617 418.908 203.294 414.655 199.741L418.908 203.981C418.908 203.981 405.803 200.887 402.929 192.865C402.929 192.865 397.756 199.397 397.296 204.669C396.491 198.137 393.387 184.042 406.033 182.208L430.634 201.804L431.669 206.617Z" fill="#FF8370"/>
<path d="M424.426 220.712C424.426 220.712 420.058 226.557 411.781 227.703C411.781 227.703 421.207 230.338 427.185 227.244L424.426 220.712Z" fill="#FF8370"/>
<path d="M405.458 219.223C405.458 219.223 411.206 218.879 413.275 215.785C413.275 215.785 412.355 221.286 409.022 221.744C405.803 222.317 405.458 219.223 405.458 219.223Z" fill="white"/>
<path d="M408.792 179.687C408.792 179.687 407.987 203.064 429.14 203.637C429.025 203.637 429.83 176.478 408.792 179.687Z" fill="#38385C"/>
<path d="M409.482 181.864C409.482 181.864 408.907 196.418 415.115 202.033C415.115 202.033 403.964 196.189 405.688 183.239C405.688 183.125 406.148 181.75 409.482 181.864Z" fill="#38385C"/>
<path d="M407.413 181.521C407.413 181.521 398.216 193.897 397.641 201.919C397.641 201.919 397.296 189.084 401.32 181.75L407.413 181.521Z" fill="#38385C"/>
<path d="M463.397 253.258C456.96 233.318 426.956 231.943 426.956 231.943L409.712 234.922C400.4 236.527 372.35 277.094 365.108 286.262L391.663 302.649C393.158 318.005 394.652 331.298 394.652 331.298H456.73C456.73 331.298 469.835 273.312 463.397 253.258Z" fill="#6F42C1"/>
<path d="M391.663 302.649L389.479 263.915C389.479 263.915 380.857 289.47 378.673 289.012C376.604 288.553 364.303 282.709 364.303 282.709L362.924 285.803L392.008 307.118L391.663 302.649Z" fill="#361F68"/>
<path d="M391.664 302.649L324.988 254.175L317.4 266.78L366.603 315.827C373.73 323.276 384.421 323.047 393.388 319.38L391.664 302.649Z" fill="#FFB6A6"/>
<path d="M348.094 302.649C348.094 302.649 368.672 313.077 375.799 313.306C382.812 313.421 389.364 298.638 389.364 298.638L397.986 302.878L397.182 320.755L373.73 325.224L348.094 302.649Z" fill="#FF8370"/>
<path d="M298.777 288.095C250.38 287.178 250.38 215.556 298.777 214.753C347.06 215.556 347.06 287.178 298.777 288.095Z" fill="#FFA519"/>
<path opacity="0.47" d="M274.636 218.65C288.776 238.933 285.787 264.717 275.9 280.073C275.9 280.073 256.472 271.364 253.943 260.936C251.299 250.507 274.636 218.65 274.636 218.65Z" fill="#EDA26A"/>
<path opacity="0.87" d="M328.781 251.31C328.092 290.616 269.463 290.616 268.773 251.31C269.463 212.003 328.092 212.003 328.781 251.31Z" fill="#FFE146"/>
<path opacity="0.8" d="M310.158 245.694H312.687C314.411 245.694 315.791 244.319 315.791 242.6V234.349H307.514C305.789 234.349 304.41 235.725 304.41 237.444V239.965C304.41 243.059 301.881 245.694 298.662 245.694C295.558 245.694 292.914 243.173 292.914 239.965V237.214C292.914 235.495 291.535 234.235 289.925 234.235H281.533V268.499H289.925C291.65 268.499 293.029 267.124 293.029 265.405V262.769C293.029 259.675 295.558 257.04 298.777 257.04C301.881 257.04 304.525 259.561 304.525 262.769V265.405C304.525 267.124 305.904 268.499 307.629 268.499H315.906V260.134C315.906 258.415 314.526 257.04 312.802 257.04H310.158C307.054 257.04 304.41 254.518 304.41 251.31C304.41 248.216 307.054 245.694 310.158 245.694Z" fill="#FFA519"/>
<path d="M431.554 324.651C431.554 324.651 443.74 325.453 448.338 321.901C452.936 318.348 464.087 287.063 464.087 287.063C464.087 287.063 460.064 321.213 456.73 331.298H418.449C418.449 331.298 428.91 326.714 431.554 324.651Z" fill="#361F68"/>
<path d="M418.449 301.503L435.922 264.03C435.922 264.03 411.896 291.304 409.712 307.92L418.449 301.503Z" fill="#361F68"/>
<path d="M440.521 304.253C438.452 296.69 429.255 293.596 422.932 298.179L362.694 342.299C359.705 342.299 341.772 342.528 342.691 344.82C343.611 347.341 354.072 348.029 354.072 348.029C354.072 348.029 332.46 359.603 333.035 360.978C333.609 362.353 352.578 370.26 355.107 368.885C357.406 367.739 369.591 355.821 371.891 353.644L427.875 326.829C436.497 323.276 443.51 312.046 440.521 304.253Z" fill="#FFB6A6"/>
<path d="M428.22 293.596C428.22 293.596 433.163 305.743 432.474 311.473C431.784 317.317 371.891 353.644 371.891 353.644C371.891 353.644 429.945 334.392 433.968 330.954C443.74 319.151 453.741 298.409 428.22 293.596Z" fill="#FF8370"/>
<path d="M337.863 263.571C337.863 263.571 336.943 253.487 335.564 253.258C334.184 253.028 319.929 255.893 320.044 256.696C320.274 257.498 323.378 260.821 324.298 260.821C325.217 260.821 332 261.05 332 261.05L328.091 273.656C327.976 273.541 339.012 271.249 337.863 263.571Z" fill="#FFB6A6"/>
<path d="M331.885 260.936C331.885 260.936 337.978 271.822 326.252 275.718C326.252 275.718 332.345 264.03 331.885 260.936Z" fill="#FF8370"/>
<path d="M533.522 166.852C532.832 209.253 469.49 209.253 468.686 166.852C469.49 124.337 532.832 124.452 533.522 166.852Z" fill="#3875FF"/>
<path d="M493.516 168.113C491.792 166.623 489.033 161.237 486.159 163.758L484.09 165.592C483.055 166.509 482.94 168.113 483.86 169.144L492.712 179.114C493.631 180.146 495.241 180.26 496.275 179.343C498.46 177.395 519.267 159.06 522.026 156.653C524.21 154.705 521.911 152.528 520.417 151.038C519.497 150.007 517.888 149.892 516.853 150.809L496.965 168.342C496.16 169.259 494.436 169.259 493.516 168.113Z" fill="#E3EEFE"/>
<path d="M182.324 337.715H63.6872C48.5127 337.715 36.0972 325.339 36.0972 310.212V27.5031C36.0972 12.3764 48.5127 0 63.6872 0H182.324C197.499 0 209.914 12.3764 209.914 27.5031V310.212C209.914 325.339 197.499 337.715 182.324 337.715Z" fill="#8172DD"/>
<path d="M183.819 330.954H62.1928C51.5017 330.954 42.6499 322.245 42.6499 311.473V25.4403C42.6499 14.7829 51.3867 5.95898 62.1928 5.95898H183.819C194.51 5.95898 203.362 14.6683 203.362 25.4403V311.473C203.247 322.13 194.51 330.954 183.819 330.954Z" fill="url(#paint3_linear_631_235)"/>
<path d="M36.327 45.3801H34.0278V83.3115H36.327V45.3801Z" fill="#625BC1"/>
<path d="M36.327 93.396H34.0278V119.982H36.327V93.396Z" fill="#625BC1"/>
<path d="M211.984 93.396H209.685V119.982H211.984V93.396Z" fill="#625BC1"/>
<path d="M172.783 188.511L177.956 212.576C179.106 215.67 177.381 220.941 174.507 223.921C173.013 225.411 170.944 226.098 168.874 225.755L157.493 223.921L152.895 244.205H130.938L145.078 189.084L172.783 188.511Z" fill="#FFB6A6"/>
<path d="M176.002 198.939C176.002 198.939 170.024 199.856 163.471 199.856C163.471 199.856 166.23 200.429 169.449 200.773C169.449 200.773 161.517 203.752 153.93 201.231C153.93 201.231 153.585 203.638 152.205 203.981C150.711 204.325 147.952 205.242 147.952 205.242L147.837 190.574L175.657 187.479L176.002 198.939Z" fill="#FF8370"/>
<path d="M172.553 225.182C172.208 225.296 156.114 218.077 156.114 218.077L156.344 228.39C156.459 228.39 172.093 228.39 172.553 225.182Z" fill="#FF8370"/>
<path d="M174.852 212.805C174.852 212.805 171.518 215.212 166.46 213.149C166.46 213.149 167.954 217.274 171.633 216.587C175.312 215.785 174.852 212.805 174.852 212.805Z" fill="white"/>
<path d="M155.769 170.863C136.916 168.8 127.719 182.896 127.949 190.688C128.179 198.137 136.801 220.942 136.801 220.942L146.457 210.399C146.457 210.399 144.043 208.794 143.238 206.617C142.434 204.44 143.468 199.512 146.112 200.085C147.262 200.314 147.952 205.242 147.952 205.242C151.056 203.294 151.401 202.606 151.401 197.564C158.183 199.741 164.966 196.876 164.966 196.876C159.793 196.647 155.079 194.814 152.435 193.553C168.184 197.449 173.932 188.625 173.932 188.625C173.932 188.625 174.622 172.926 155.769 170.863Z" fill="#38385C"/>
<path d="M218.766 295.315L168.529 251.424C157.378 240.537 133.122 235.037 133.122 235.037C125.88 247.642 109.556 331.298 109.556 331.298H182.784C182.784 331.298 182.324 326.943 181.635 320.182C188.187 324.078 193.245 326.943 193.245 326.943L218.766 295.315Z" fill="#8815AD"/>
<path d="M181.635 320.182L164.161 304.597L171.289 331.298H182.784L181.635 320.182Z" fill="#4A135E"/>
<path d="M155.539 242.944L162.092 236.985L133.467 225.984L133.237 235.037L155.539 242.944Z" fill="white"/>
<path d="M280.959 247.757C280.154 244.548 273.946 233.318 272.452 233.318C271.072 233.318 261.301 251.539 261.301 251.539C261.301 251.539 261.531 247.528 261.071 245.923C260.611 244.319 258.082 242.027 257.277 242.256C256.588 242.486 254.518 256.123 253.829 260.936L221.295 304.253L214.973 299.784L197.499 321.442C205.661 325.797 218.996 338.403 229.228 333.246C233.136 331.756 236.24 328.777 238.079 325.109L265.095 269.645C265.095 269.759 281.764 250.966 280.959 247.757Z" fill="#FFB6A6"/>
<path d="M218.766 298.638C218.766 298.638 211.754 331.871 222.215 339.434L190.372 320.755L208.42 291.533L218.766 298.638Z" fill="#FF8370"/>
<path d="M121.511 149.09H60.0085C56.4448 149.09 53.5708 151.955 53.5708 155.507V173.04C53.5708 176.593 56.4448 179.458 60.0085 179.458H102.313L112.544 191.032C113.349 191.949 114.959 191.376 114.959 190.115V179.458C120.247 179.458 127.604 180.489 127.949 173.04V155.507C127.949 151.955 125.075 149.09 121.511 149.09Z" fill="#3875FF"/>
<path d="M74.1486 164.446C74.1486 168.571 67.8259 168.571 67.7109 164.446C67.8259 160.32 74.1486 160.32 74.1486 164.446Z" fill="#E3EEFE"/>
<path d="M93.1164 164.446C93.1164 168.571 86.7937 168.571 86.6787 164.446C86.6787 160.32 93.1164 160.32 93.1164 164.446Z" fill="#E3EEFE"/>
<path d="M111.97 164.446C111.97 168.571 105.647 168.571 105.532 164.446C105.647 160.32 111.97 160.32 111.97 164.446Z" fill="#E3EEFE"/>
</g>
<defs>
<linearGradient id="paint0_linear_631_235" x1="248.5" y1="200.696" x2="348.431" y2="200.696" gradientUnits="userSpaceOnUse">
<stop stop-color="#FF43BB"/>
<stop offset="0.998" stop-color="#FFA7FF"/>
</linearGradient>
<linearGradient id="paint1_linear_631_235" x1="244.855" y1="301.796" x2="344.786" y2="301.796" gradientUnits="userSpaceOnUse">
<stop stop-color="#9BFCF2"/>
<stop offset="0.9967" stop-color="#41CDFF"/>
</linearGradient>
<linearGradient id="paint2_linear_631_235" x1="468.724" y1="330.907" x2="468.724" y2="5.99338" gradientUnits="userSpaceOnUse">
<stop stop-color="#954BFF"/>
<stop offset="1" stop-color="#FF43BB"/>
</linearGradient>
<linearGradient id="paint3_linear_631_235" x1="122.98" y1="330.907" x2="122.98" y2="5.99338" gradientUnits="userSpaceOnUse">
<stop offset="0.00134342" stop-color="#5725BE"/>
<stop offset="0.9973" stop-color="#41CDFF"/>
</linearGradient>
<clipPath id="clip0_631_235">
<rect width="581" height="369" fill="white"/>
</clipPath>
</defs>
</svg>
