<svg width="488" height="339" viewBox="0 0 488 339" fill="none" xmlns="http://www.w3.org/2000/svg">
<g clip-path="url(#clip0_633_641)">
<path d="M186.6 338.5H71.8997C57.1997 338.5 45.1997 326.5 45.1997 311.8V37.7C45.1997 23 57.1997 11 71.8997 11H186.6C201.3 11 213.3 23 213.3 37.7V311.9C213.2 326.5 201.3 338.5 186.6 338.5Z" fill="#8172DD"/>
<path d="M188 331.9H70.4996C60.0996 331.9 51.5996 323.4 51.5996 313V35.7001C51.5996 25.3001 60.0996 16.8 70.4996 16.8H188C198.4 16.8 206.9 25.3001 206.9 35.7001V313C206.9 323.4 198.4 331.9 188 331.9Z" fill="url(#paint0_radial_633_641)"/>
<path d="M45.4998 55H43.2998V91.8H45.4998V55Z" fill="#625BC1"/>
<path d="M45.4998 101.6H43.2998V127.4H45.4998V101.6Z" fill="#625BC1"/>
<path d="M215.3 101.6H213.1V127.4H215.3V101.6Z" fill="#625BC1"/>
<path d="M459.2 338.5H344.5C329.8 338.5 317.8 326.5 317.8 311.8V37.7C317.8 23 329.8 11 344.5 11H459.2C473.9 11 485.9 23 485.9 37.7V311.9C485.9 326.5 473.9 338.5 459.2 338.5Z" fill="#8172DD"/>
<path d="M460.7 331.9H343.1C332.7 331.9 324.2 323.4 324.2 313V35.7001C324.2 25.3001 332.7 16.8 343.1 16.8H460.7C471.1 16.8 479.6 25.3001 479.6 35.7001V313C479.5 323.4 471 331.9 460.7 331.9Z" fill="url(#paint1_radial_633_641)"/>
<path d="M318.1 55H315.9V91.8H318.1V55Z" fill="#625BC1"/>
<path d="M318.1 101.6H315.9V127.4H318.1V101.6Z" fill="#625BC1"/>
<path d="M487.9 101.6H485.7V127.4H487.9V101.6Z" fill="#625BC1"/>
<path d="M102.5 170.6C102.1 169.8 101.6 169.1 101 168.7C100.3 168.3 99.4999 168 98.5999 168C96.9999 168 95.7999 168.7 94.7999 170C93.8999 171.3 93.3999 173 93.3999 175.2C93.3999 177.5 93.8999 179.3 94.8999 180.6C95.8999 181.9 97.2999 182.6 98.9999 182.6C100.2 182.6 101.2 182.2 102 181.5C102.8 180.7 103.4 179.6 103.8 178.2H97.5999V173.7H108.2V179.4C107.8 180.9 107.2 182.3 106.4 183.7C105.5 185 104.4 186.1 103.1 186.9C101.8 187.7 100.3 188.1 98.5999 188.1C96.5999 188.1 94.8999 187.6 93.2999 186.5C91.7999 185.4 90.5999 183.9 89.6999 182C88.7999 180.1 88.3999 177.9 88.3999 175.4C88.3999 172.9 88.7999 170.7 89.6999 168.8C90.5999 166.9 91.7999 165.3 93.2999 164.3C94.7999 163.2 96.5999 162.7 98.4999 162.7C100.9 162.7 102.9 163.4 104.5 164.9C106.1 166.4 107.2 168.4 107.7 170.9H102.5V170.6Z" fill="white"/>
<path d="M123.3 183.3H115.9L114.7 187.7H109.6L116.8 162.6H122.4L129.6 187.7H124.5L123.3 183.3ZM122 178.6L119.5 169.4L117.1 178.6H122Z" fill="white"/>
<path d="M154.3 162.6V187.7H149.4V172.6L144.9 187.7H141L136.5 172.6V187.7H131.6V162.6H137.3L142.9 180L148.4 162.6H154.3Z" fill="white"/>
<path d="M162.7 167.6V172.7H169.2V177.4H162.7V182.9H170V187.8H157.8V162.7H170V167.6H162.7Z" fill="white"/>
<path d="M132.11 201.088H131.295L128.021 196.123V201.088H127.207V194.843H128.021L131.295 199.8V194.843H132.11V201.088ZM137.846 196.185V201.088H137.032V200.364C136.877 200.614 136.659 200.811 136.379 200.954C136.104 201.091 135.8 201.16 135.466 201.16C135.084 201.16 134.741 201.082 134.437 200.927C134.133 200.766 133.891 200.528 133.712 200.212C133.539 199.895 133.453 199.511 133.453 199.057V196.185H134.258V198.95C134.258 199.433 134.38 199.806 134.625 200.068C134.87 200.325 135.204 200.453 135.627 200.453C136.063 200.453 136.406 200.319 136.656 200.05C136.907 199.782 137.032 199.391 137.032 198.878V196.185H137.846ZM145.117 196.096C145.499 196.096 145.839 196.176 146.137 196.337C146.435 196.492 146.671 196.728 146.844 197.044C147.017 197.36 147.104 197.745 147.104 198.198V201.088H146.298V198.315C146.298 197.826 146.176 197.453 145.931 197.196C145.693 196.934 145.368 196.803 144.956 196.803C144.533 196.803 144.196 196.94 143.945 197.214C143.695 197.483 143.569 197.873 143.569 198.386V201.088H142.764V198.315C142.764 197.826 142.642 197.453 142.397 197.196C142.159 196.934 141.833 196.803 141.422 196.803C140.998 196.803 140.661 196.94 140.411 197.214C140.16 197.483 140.035 197.873 140.035 198.386V201.088H139.221V196.185H140.035V196.892C140.196 196.636 140.411 196.439 140.679 196.302C140.954 196.164 141.255 196.096 141.583 196.096C141.995 196.096 142.358 196.188 142.675 196.373C142.991 196.558 143.226 196.829 143.381 197.187C143.519 196.841 143.745 196.573 144.061 196.382C144.378 196.191 144.729 196.096 145.117 196.096ZM149.253 197.098C149.42 196.806 149.665 196.567 149.987 196.382C150.309 196.197 150.676 196.105 151.088 196.105C151.529 196.105 151.926 196.209 152.278 196.418C152.629 196.627 152.907 196.922 153.11 197.304C153.312 197.679 153.414 198.118 153.414 198.619C153.414 199.114 153.312 199.555 153.11 199.943C152.907 200.331 152.626 200.632 152.269 200.847C151.917 201.062 151.523 201.169 151.088 201.169C150.664 201.169 150.291 201.076 149.969 200.892C149.653 200.707 149.414 200.471 149.253 200.185V201.088H148.439V194.467H149.253V197.098ZM152.582 198.619C152.582 198.249 152.507 197.927 152.358 197.653C152.209 197.378 152.006 197.169 151.75 197.026C151.499 196.883 151.222 196.812 150.918 196.812C150.619 196.812 150.342 196.886 150.085 197.035C149.835 197.178 149.632 197.39 149.477 197.67C149.328 197.945 149.253 198.264 149.253 198.628C149.253 198.998 149.328 199.323 149.477 199.603C149.632 199.877 149.835 200.089 150.085 200.238C150.342 200.382 150.619 200.453 150.918 200.453C151.222 200.453 151.499 200.382 151.75 200.238C152.006 200.089 152.209 199.877 152.358 199.603C152.507 199.323 152.582 198.995 152.582 198.619ZM158.959 198.449C158.959 198.604 158.95 198.768 158.932 198.941H155.013C155.043 199.424 155.207 199.803 155.506 200.077C155.81 200.346 156.177 200.48 156.606 200.48C156.958 200.48 157.25 200.399 157.483 200.238C157.722 200.071 157.889 199.851 157.984 199.576H158.861C158.73 200.047 158.467 200.432 158.073 200.73C157.68 201.023 157.191 201.169 156.606 201.169C156.141 201.169 155.723 201.065 155.353 200.856C154.99 200.647 154.703 200.352 154.495 199.97C154.286 199.582 154.181 199.135 154.181 198.628C154.181 198.121 154.283 197.676 154.486 197.295C154.688 196.913 154.972 196.621 155.336 196.418C155.705 196.209 156.129 196.105 156.606 196.105C157.071 196.105 157.483 196.206 157.841 196.409C158.199 196.612 158.473 196.892 158.664 197.25C158.861 197.602 158.959 198.002 158.959 198.449ZM158.118 198.279C158.118 197.969 158.05 197.703 157.912 197.483C157.775 197.256 157.587 197.086 157.349 196.973C157.116 196.853 156.857 196.794 156.57 196.794C156.159 196.794 155.807 196.925 155.515 197.187C155.228 197.45 155.064 197.814 155.022 198.279H158.118ZM160.848 196.982C160.991 196.701 161.194 196.483 161.457 196.328C161.725 196.173 162.05 196.096 162.432 196.096V196.937H162.217C161.305 196.937 160.848 197.432 160.848 198.422V201.088H160.034V196.185H160.848V196.982ZM165.408 195.362V194.619H167.09V201.088H166.267V195.362H165.408Z" fill="white"/>
<path d="M372.1 167.3C371.7 166.5 371.2 165.8 370.6 165.4C369.9 165 369.1 164.7 368.2 164.7C366.6 164.7 365.4 165.4 364.4 166.7C363.5 168 363 169.7 363 171.9C363 174.2 363.5 176 364.5 177.3C365.5 178.6 366.9 179.3 368.6 179.3C369.8 179.3 370.8 178.9 371.6 178.2C372.4 177.4 373 176.3 373.4 174.9H367.2V170.4H377.8V176.1C377.4 177.6 376.8 179 376 180.4C375.1 181.7 374 182.8 372.7 183.6C371.4 184.4 369.9 184.8 368.2 184.8C366.2 184.8 364.5 184.3 362.9 183.2C361.4 182.1 360.2 180.6 359.3 178.7C358.4 176.8 358 174.6 358 172.1C358 169.6 358.4 167.4 359.3 165.5C360.2 163.6 361.4 162 362.9 161C364.4 159.9 366.2 159.4 368.1 159.4C370.5 159.4 372.5 160.1 374.1 161.6C375.7 163.1 376.8 165.1 377.3 167.6H372.1V167.3Z" fill="white"/>
<path d="M392.9 180H385.5L384.3 184.4H379.2L386.4 159.3H392L399.2 184.4H394.1L392.9 180ZM391.7 175.3L389.2 166.1L386.8 175.3H391.7Z" fill="white"/>
<path d="M424 159.3V184.4H419.1V169.3L414.6 184.4H410.7L406.2 169.3V184.4H401.3V159.3H407L412.6 176.7L418.1 159.3H424Z" fill="white"/>
<path d="M432.3 164.2V169.3H438.8V174H432.3V179.5H439.6V184.4H427.4V159.3H439.6V164.2H432.3Z" fill="white"/>
<path d="M401.758 197.744H400.943L397.669 192.778V197.744H396.854V191.499H397.669L400.943 196.456V191.499H401.758V197.744ZM407.494 192.841V197.744H406.68V197.019C406.525 197.27 406.307 197.467 406.027 197.61C405.752 197.747 405.448 197.816 405.114 197.816C404.732 197.816 404.389 197.738 404.085 197.583C403.781 197.422 403.539 197.183 403.36 196.867C403.187 196.551 403.101 196.166 403.101 195.713V192.841H403.906V195.606C403.906 196.089 404.028 196.462 404.273 196.724C404.518 196.981 404.852 197.109 405.275 197.109C405.711 197.109 406.054 196.975 406.304 196.706C406.555 196.438 406.68 196.047 406.68 195.534V192.841H407.494ZM414.765 192.751C415.147 192.751 415.487 192.832 415.785 192.993C416.083 193.148 416.319 193.384 416.492 193.7C416.665 194.016 416.751 194.401 416.751 194.854V197.744H415.946V194.97C415.946 194.481 415.824 194.109 415.579 193.852C415.341 193.59 415.016 193.458 414.604 193.458C414.181 193.458 413.844 193.596 413.593 193.87C413.342 194.138 413.217 194.529 413.217 195.042V197.744H412.412V194.97C412.412 194.481 412.29 194.109 412.045 193.852C411.807 193.59 411.481 193.458 411.07 193.458C410.646 193.458 410.309 193.596 410.059 193.87C409.808 194.138 409.683 194.529 409.683 195.042V197.744H408.869V192.841H409.683V193.548C409.844 193.291 410.059 193.094 410.327 192.957C410.602 192.82 410.903 192.751 411.231 192.751C411.642 192.751 412.006 192.844 412.322 193.029C412.639 193.214 412.874 193.485 413.029 193.843C413.167 193.497 413.393 193.229 413.709 193.038C414.025 192.847 414.377 192.751 414.765 192.751ZM418.901 193.754C419.068 193.461 419.313 193.223 419.635 193.038C419.957 192.853 420.324 192.76 420.735 192.76C421.177 192.76 421.574 192.865 421.925 193.074C422.277 193.282 422.555 193.578 422.758 193.959C422.96 194.335 423.062 194.774 423.062 195.275C423.062 195.77 422.96 196.211 422.758 196.599C422.555 196.987 422.274 197.288 421.917 197.503C421.565 197.717 421.171 197.825 420.735 197.825C420.312 197.825 419.939 197.732 419.617 197.547C419.301 197.362 419.062 197.127 418.901 196.84V197.744H418.087V191.123H418.901V193.754ZM422.23 195.275C422.23 194.905 422.155 194.583 422.006 194.308C421.857 194.034 421.654 193.825 421.398 193.682C421.147 193.539 420.87 193.467 420.565 193.467C420.267 193.467 419.99 193.542 419.733 193.691C419.483 193.834 419.28 194.046 419.125 194.326C418.976 194.601 418.901 194.92 418.901 195.284C418.901 195.653 418.976 195.979 419.125 196.259C419.28 196.533 419.483 196.745 419.733 196.894C419.99 197.037 420.267 197.109 420.565 197.109C420.87 197.109 421.147 197.037 421.398 196.894C421.654 196.745 421.857 196.533 422.006 196.259C422.155 195.979 422.23 195.65 422.23 195.275ZM428.607 195.105C428.607 195.26 428.598 195.424 428.58 195.597H424.661C424.691 196.08 424.855 196.459 425.154 196.733C425.458 197.002 425.825 197.136 426.254 197.136C426.606 197.136 426.898 197.055 427.131 196.894C427.37 196.727 427.537 196.506 427.632 196.232H428.509C428.378 196.703 428.115 197.088 427.721 197.386C427.328 197.679 426.839 197.825 426.254 197.825C425.789 197.825 425.371 197.72 425.001 197.512C424.638 197.303 424.351 197.007 424.142 196.626C423.934 196.238 423.829 195.791 423.829 195.284C423.829 194.777 423.931 194.332 424.134 193.95C424.336 193.569 424.62 193.276 424.984 193.074C425.353 192.865 425.777 192.76 426.254 192.76C426.719 192.76 427.131 192.862 427.489 193.065C427.847 193.267 428.121 193.548 428.312 193.906C428.509 194.258 428.607 194.657 428.607 195.105ZM427.766 194.935C427.766 194.624 427.698 194.359 427.56 194.138C427.423 193.912 427.235 193.742 426.997 193.628C426.764 193.509 426.505 193.449 426.218 193.449C425.807 193.449 425.455 193.581 425.162 193.843C424.876 194.106 424.712 194.469 424.67 194.935H427.766ZM430.496 193.637C430.639 193.357 430.842 193.139 431.105 192.984C431.373 192.829 431.698 192.751 432.08 192.751V193.593H431.865C430.952 193.593 430.496 194.088 430.496 195.078V197.744H429.682V192.841H430.496V193.637ZM435.173 197.091C435.93 196.483 436.524 195.984 436.953 195.597C437.383 195.203 437.743 194.794 438.036 194.371C438.334 193.941 438.483 193.521 438.483 193.109C438.483 192.722 438.388 192.417 438.197 192.197C438.012 191.97 437.711 191.857 437.293 191.857C436.887 191.857 436.571 191.985 436.345 192.241C436.124 192.492 436.005 192.829 435.987 193.253H435.199C435.223 192.584 435.426 192.069 435.808 191.705C436.19 191.341 436.682 191.159 437.284 191.159C437.898 191.159 438.385 191.329 438.743 191.669C439.106 192.009 439.288 192.477 439.288 193.074C439.288 193.569 439.139 194.052 438.841 194.523C438.549 194.988 438.215 195.4 437.839 195.758C437.463 196.11 436.983 196.521 436.398 196.993H439.476V197.673H435.173V197.091Z" fill="white"/>
<path opacity="0.23" d="M206.9 191.6V203.9L51.5996 313V229.6L108.7 191.1L206.9 191.6Z" fill="black"/>
<path d="M173 109.2C170 138.6 193.7 161.7 223.1 164.7C252.5 167.7 278.7 146.2 281.7 116.8C284.7 87.4 263.4 59.8 234 56.8C204.6 53.9 176 79.8 173 109.2Z" fill="#BB5F1B"/>
<path d="M269.308 128.278C281.597 101.408 269.776 69.663 242.906 57.3743C216.036 45.0856 184.291 56.9063 172.003 83.7765C159.714 110.647 171.535 142.391 198.405 154.68C225.275 166.969 257.02 155.148 269.308 128.278Z" fill="#FFA519"/>
<path opacity="0.87" d="M250.007 135.354C266.214 119.147 266.214 92.8712 250.007 76.6646C233.801 60.458 207.524 60.458 191.318 76.6646C175.111 92.8712 175.111 119.147 191.318 135.354C207.524 151.561 233.8 151.561 250.007 135.354Z" fill="#FFE146"/>
<path opacity="0.8" d="M237.6 98.3001L240.9 98.8001C243.1 99.1001 245.2 97.5001 245.5 95.3001L247 84.6001L236.3 83.1001C234.1 82.8001 232 84.4001 231.7 86.6001L231.2 89.9001C230.6 94.0001 226.9 96.8001 222.8 96.3001C218.7 95.7001 215.9 92.0001 216.4 87.9001L216.9 84.4001C217.2 82.2001 215.7 80.2001 213.5 79.9001L202.6 78.4001L196.4 122.8L207.2 124.3C209.4 124.6 211.5 123.1 211.8 120.9L212.3 117.5C212.9 113.4 216.6 110.6 220.7 111.1C224.8 111.7 227.6 115.4 227.1 119.5L226.6 122.8C226.3 125 227.8 127.1 230.1 127.4L240.9 128.9L242.4 118.1C242.7 115.9 241.2 113.8 238.9 113.5L235.5 113C231.4 112.4 228.6 108.7 229.1 104.6C229.8 100.6 233.5 97.8001 237.6 98.3001Z" fill="#FFA519"/>
<path opacity="0.27" d="M250.6 61.7002C245.8 79.1002 239.2 96.1002 225.7 108.7C211.2 122.1 192 128.7 172.6 129.6C180.5 145.7 196.2 157.5 215.3 159.4C244.7 162.4 270.9 140.9 273.9 111.5C276 91.1002 266.4 72.3002 250.6 61.7002Z" fill="#FFA519"/>
<path opacity="0.65" d="M195.9 67.8C201.9 63.7 208.8 61.3 216 60.8C218.3 60.7 218.3 57.1 216 57.2C208.2 57.7 200.6 60.3 194.1 64.7C192.2 66 194 69.1 195.9 67.8Z" fill="#FFCD80"/>
<path opacity="0.65" d="M230.5 59.4C230.4 59 230.1 58.6 229.6 58.3C227.6 57.5 225.5 56.9 223.4 56.8C221.2 56.7 221.1 60.2 223.4 60.4C224.9 60.6 231.2 63.3 230.5 59.4Z" fill="#FFCD80"/>
<path opacity="0.77" d="M191.1 84.8001C186.8 90.8001 184.5 98.1001 184.4 105.4C184.3 108.3 188.8 108.3 188.9 105.4C189 98.8001 191.2 92.4001 195 87.1001C196.6 84.8001 192.8 82.4001 191.1 84.8001Z" fill="#FFFBE7"/>
<path opacity="0.77" d="M190.5 115.6C190.2 114.5 189.5 113.3 189.3 112.3C188.7 109.5 184.3 110.7 185 113.5C185.3 115 185.9 116.5 186.6 117.9C187.8 120.6 191.2 118.1 190.5 115.6Z" fill="#FFFBE7"/>
<path d="M354.8 133.4L361 127.3C361 127.3 326.9 108.3 301.5 146.2L260.4 157.5L251.4 166C251.4 166 298.7 166.3 301.5 166C304.4 165.8 354.8 133.4 354.8 133.4Z" fill="url(#paint2_linear_633_641)"/>
<path d="M242 186.9L307.9 181.6L361 133.7C361 133.7 327.8 129.8 301.5 157L242 166.1V186.9Z" fill="url(#paint3_linear_633_641)"/>
<path d="M51.7998 174.2L98.2998 166.1L114.1 203.9L51.7998 238.1V174.2Z" fill="url(#paint4_linear_633_641)"/>
<path d="M98.2998 166.1C98.2998 166.1 121 148.4 159.4 150.3C197.9 152.2 230.7 158.1 230.7 158.1C230.7 158.1 258.2 126.3 286.7 135.2L242 186.9L114 203.9L98.2998 166.1Z" fill="url(#paint5_linear_633_641)"/>
<path d="M369.7 74.3C385.606 74.3 398.5 61.4058 398.5 45.5C398.5 29.5941 385.606 16.7 369.7 16.7C353.794 16.7 340.9 29.5941 340.9 45.5C340.9 61.4058 353.794 74.3 369.7 74.3Z" fill="url(#paint6_radial_633_641)"/>
<path d="M381 41.3H383.3C384.9 41.3 386.1 40 386.1 38.5V31H378.6C377 31 375.8 32.3 375.8 33.8V36.1C375.8 39 373.5 41.3 370.6 41.3C367.7 41.3 365.4 39 365.4 36.1V33.7C365.4 32.2 364.2 31 362.7 31H355.1V62H362.6C364.1 62 365.4 60.7 365.4 59.2V56.8C365.4 53.9 367.7 51.6 370.6 51.6C373.5 51.6 375.8 53.9 375.8 56.8V59.1C375.8 60.7 377.1 61.9 378.6 61.9H386.1V54.4C386.1 52.8 384.8 51.6 383.3 51.6H381C378.1 51.6 375.8 49.3 375.8 46.4C375.9 43.6 378.2 41.3 381 41.3Z" fill="white"/>
<path d="M210.7 47.2C220.696 47.2 228.8 39.0964 228.8 29.1C228.8 19.1036 220.696 11 210.7 11C200.704 11 192.6 19.1036 192.6 29.1C192.6 39.0964 200.704 47.2 210.7 47.2Z" fill="url(#paint7_radial_633_641)"/>
<path d="M216.7 26.2H218C218.9 26.2 219.6 25.5 219.6 24.6V20.2999H215.3C214.4 20.2999 213.7 21 213.7 21.9V23.2C213.7 24.8 212.4 26.2 210.7 26.2C209 26.2 207.7 24.9 207.7 23.2V21.7999C207.7 20.8999 207 20.2 206.1 20.2H201.7V38H206C206.9 38 207.6 37.3 207.6 36.4V35C207.6 33.4 208.9 32 210.6 32C212.2 32 213.6 33.3 213.6 35V36.2999C213.6 37.1999 214.3 37.9 215.2 37.9H219.5V33.5999C219.5 32.6999 218.8 32 217.9 32H216.6C215 32 213.6 30.7 213.6 29C213.7 27.5 215 26.2 216.7 26.2Z" fill="white"/>
<path d="M307.1 264.8C320.741 264.8 331.8 253.741 331.8 240.1C331.8 226.458 320.741 215.4 307.1 215.4C293.458 215.4 282.4 226.458 282.4 240.1C282.4 253.741 293.458 264.8 307.1 264.8Z" fill="url(#paint8_radial_633_641)"/>
<path d="M315.1 234.2H317.1C318.5 234.2 319.6 233.1 319.6 231.7V225.2H313.1C311.7 225.2 310.6 226.3 310.6 227.7V229.7C310.6 232.2 308.6 234.2 306.1 234.2C303.6 234.2 301.6 232.2 301.6 229.7V227.6C301.6 226.3 300.5 225.2 299.2 225.2H292.6V252H299.1C300.4 252 301.5 250.9 301.5 249.6V247.6C301.5 245.1 303.5 243.1 306 243.1C308.5 243.1 310.5 245.1 310.5 247.6V249.6C310.5 250.9 311.6 252 312.9 252H319.4V245.5C319.4 244.2 318.3 243.1 317 243.1H315C312.5 243.1 310.5 241.1 310.5 238.6C310.7 236.2 312.7 234.2 315.1 234.2Z" fill="white"/>
<path d="M45.5 91C70.629 91 91 70.629 91 45.5C91 20.371 70.629 0 45.5 0C20.371 0 0 20.371 0 45.5C0 70.629 20.371 91 45.5 91Z" fill="url(#paint9_radial_633_641)"/>
<path d="M64.5998 35H68.4998C71.0998 35 73.2998 32.9001 73.2998 30.2001V17.8H60.7998C58.1998 17.8 55.9998 19.9 55.9998 22.6V26.5C55.9998 31.3 52.0998 35.1 47.3998 35.1C42.6998 35.1 38.7998 31.2 38.7998 26.5V22.4C38.7998 19.9 36.6998 17.8 34.1998 17.8H21.2998V69.6H33.8998C36.4998 69.6 38.5998 67.5 38.5998 64.9001V60.9001C38.5998 56.1001 42.4998 52.3 47.1998 52.3C51.9998 52.3 55.7998 56.2001 55.7998 60.9001V64.8001C55.7998 67.4001 57.8998 69.5 60.4998 69.5H73.0998V57C73.0998 54.4001 70.9998 52.3 68.3998 52.3H64.4998C59.6998 52.3 55.8998 48.4001 55.8998 43.7001C55.8998 38.9001 59.7998 35 64.5998 35Z" fill="white"/>
</g>
<defs>
<radialGradient id="paint0_radial_633_641" cx="0" cy="0" r="1" gradientUnits="userSpaceOnUse" gradientTransform="translate(30.6014 -23.547) scale(397.132 397.132)">
<stop offset="0.00055627" stop-color="#7929B7"/>
<stop offset="0.0501306" stop-color="#7628B5"/>
<stop offset="1" stop-color="#310B7A"/>
</radialGradient>
<radialGradient id="paint1_radial_633_641" cx="0" cy="0" r="1" gradientUnits="userSpaceOnUse" gradientTransform="translate(303.247 -23.547) scale(397.132 397.132)">
<stop offset="0.00055627" stop-color="#7929B7"/>
<stop offset="0.0501306" stop-color="#7628B5"/>
<stop offset="1" stop-color="#310B7A"/>
</radialGradient>
<linearGradient id="paint2_linear_633_641" x1="251.387" y1="144.394" x2="361" y2="144.394" gradientUnits="userSpaceOnUse">
<stop stop-color="#DD647E"/>
<stop offset="0.5802" stop-color="#FE95A9"/>
<stop offset="0.9978" stop-color="#FFDA99"/>
</linearGradient>
<linearGradient id="paint3_linear_633_641" x1="72.8161" y1="180.465" x2="358.702" y2="155.001" gradientUnits="userSpaceOnUse">
<stop stop-color="#DD647E"/>
<stop offset="0.5802" stop-color="#FE95A9"/>
<stop offset="0.9978" stop-color="#FFDA99"/>
</linearGradient>
<linearGradient id="paint4_linear_633_641" x1="58.7859" y1="120.42" x2="80.517" y2="210.967" gradientUnits="userSpaceOnUse">
<stop stop-color="#DD647E"/>
<stop offset="0.5802" stop-color="#FE95A9"/>
<stop offset="0.9978" stop-color="#FFDA99"/>
</linearGradient>
<linearGradient id="paint5_linear_633_641" x1="175.775" y1="81.4302" x2="200.081" y2="182.127" gradientUnits="userSpaceOnUse">
<stop stop-color="#DD647E"/>
<stop offset="0.5802" stop-color="#FE95A9"/>
<stop offset="0.9978" stop-color="#FFDA99"/>
</linearGradient>
<radialGradient id="paint6_radial_633_641" cx="0" cy="0" r="1" gradientUnits="userSpaceOnUse" gradientTransform="translate(309.39 -12.7161) scale(312.223 312.223)">
<stop stop-color="#E20081"/>
<stop offset="0.5464" stop-color="#FFB048"/>
<stop offset="1" stop-color="#FFFC9F"/>
</radialGradient>
<radialGradient id="paint7_radial_633_641" cx="0" cy="0" r="1" gradientUnits="userSpaceOnUse" gradientTransform="translate(189.5 -15.1462) scale(587.428 587.428)">
<stop offset="0.00055627" stop-color="#7929B7"/>
<stop offset="0.0501306" stop-color="#7628B5"/>
<stop offset="1" stop-color="#310B7A"/>
</radialGradient>
<radialGradient id="paint8_radial_633_641" cx="0" cy="0" r="1" gradientUnits="userSpaceOnUse" gradientTransform="translate(296.429 210.864) scale(451.386)">
<stop offset="0.00055627" stop-color="#7929B7"/>
<stop offset="0.0501306" stop-color="#7628B5"/>
<stop offset="1" stop-color="#310B7A"/>
</radialGradient>
<radialGradient id="paint9_radial_633_641" cx="0" cy="0" r="1" gradientUnits="userSpaceOnUse" gradientTransform="translate(-37.3207 -30.5376) scale(422.191)">
<stop stop-color="#E20081"/>
<stop offset="0.5464" stop-color="#FFB048"/>
<stop offset="1" stop-color="#FFFC9F"/>
</radialGradient>
<clipPath id="clip0_633_641">
<rect width="487.9" height="338.5" fill="white"/>
</clipPath>
</defs>
</svg>
