<svg width="417" height="448" viewBox="0 0 417 448" fill="none" xmlns="http://www.w3.org/2000/svg">
<g clip-path="url(#clip0_589_6035)">
<path d="M415.201 355.5C414.501 357.8 413.401 360 411.901 362.1C409.401 365.5 405.601 367.8 401.401 368.5C392.001 370 382.601 368.6 373.401 364.3C367.001 361.4 361.601 356.4 354.801 351C352.701 349.3 350.001 348.7 347.401 349.1L293.901 358C290.201 358.6 286.901 360.9 285.101 364.2C278.701 375.7 271.601 385.6 263.901 394C262.201 395.9 260.401 397.7 258.601 399.5C258.401 399.7 258.201 399.9 258.001 400.1C253.601 404.4 247.901 407.2 241.801 407.9C220.401 410.6 206.901 401.4 204.601 375.6C204.601 375.6 203.401 338.3 204.601 313.7C204.701 311.5 204.901 309.5 205.001 307.6C205.201 305.8 205.401 304.1 205.601 302.5C207.201 291.8 215.101 283.2 225.601 280.7L243.701 276.3C250.401 274.7 257.501 275.8 263.401 279.5L272.801 285.4C275.301 287 278.301 287.6 281.301 287.1L315.801 281C317.901 280.6 319.901 279.5 321.301 277.8L333.601 263C335.501 260.8 338.101 259.3 340.901 258.8L356.901 256.1C367.301 254.3 377.801 258.8 383.601 267.6C385.201 270 386.801 272.9 388.501 276.3C399.401 298.8 412.401 328.5 412.401 328.5C412.401 328.5 419.101 342.9 415.201 355.5Z" fill="#CFCDE0"/>
<g opacity="0.3">
<path d="M258.7 399.6C258.5 399.8 258.3 400 258.1 400.2C253.7 404.5 248 407.3 241.9 408C220.5 410.7 207 401.5 204.7 375.7C204.7 375.7 203.5 338.4 204.7 313.8C204.8 311.6 205 309.6 205.1 307.7C205.9 305.8 206.4 304.5 206.6 304.3C207.1 303.6 210.1 297.5 219.6 295.2C215.3 338.1 217.3 370.7 225.5 393C225.5 393 236.5 410 257.7 400.1C258.1 399.9 258.4 399.7 258.7 399.6Z" fill="#000073"/>
</g>
<g opacity="0.3">
<path d="M267.2 339.3L261.6 340.2L262.5 343.4L264.2 349.4L264 349.8L260.9 350.2L250.9 351.7L248.2 342.2L239.2 343.5L236.1 332.6L235.2 329.4L240.8 328.5L244.2 328L242.4 321.7L241.5 318.5L254.8 316.5L257.6 326L266.6 324.7L270.6 338.8L267.2 339.3Z" fill="#000073"/>
</g>
<g opacity="0.3">
<path d="M365.2 337.9C365.2 337.9 362.6 335.2 356.1 336C356.9 333.8 357.1 331.4 356.7 329C355.4 321.9 349 317.1 342.4 318.3C335.8 319.5 331.4 326.2 332.7 333.3C333.1 335.7 334.1 337.8 335.5 339.5L312.8 343.3C313.7 341 314 338.4 313.6 335.7C312.3 328.6 305.9 323.8 299.3 325C292.7 326.2 288.3 332.9 289.6 340C290.1 342.6 291.2 344.9 292.8 346.7L290.3 347.1C285 348 280.4 351.1 277.6 355.7C275 360 271.5 365.8 267.7 372.3C259.9 385.6 245 400.8 237.4 402.3C237.4 402.3 250.3 409 262.6 395.6C263 395.1 263.6 394.7 264.2 394.2C271.9 385.8 279 375.9 285.4 364.4C287.2 361.1 290.5 358.8 294.2 358.2L347.7 349.3C350.3 348.9 353 349.6 355.1 351.2C361.9 356.6 367.3 361.5 373.7 364.5C382.9 368.8 392.3 370.2 401.7 368.7C405.9 368 409.7 365.8 412.2 362.3C413.7 360.2 414.8 358 415.5 355.7C415.5 354.6 415.6 353.9 415.6 353.9C398.6 361.8 381.9 358.6 365.2 337.9Z" fill="#000073"/>
</g>
<path d="M333.1 263.3L332.7 258.4C332.5 255.6 334.4 253.1 337.2 252.7L352.9 249.7C354.7 249.3 356.6 250.2 357.6 251.8L359.9 255.7" fill="#4A4A9E"/>
<g opacity="0.55">
<path d="M360.001 255.6L359.601 255.7L358.801 254.3C357.801 252.7 356.001 251.9 354.101 252.2L338.401 255.2C335.601 255.7 333.701 258.1 333.901 260.9L334.101 262.9L333.201 263.2L332.801 258.3C332.601 255.5 334.501 253 337.301 252.6L353.001 249.6C354.801 249.2 356.701 250.1 357.701 251.7L360.001 255.6Z" fill="white"/>
</g>
<g opacity="0.55">
<path d="M381.7 265C375.8 259.9 367.8 257.6 359.8 258.9L343.8 261.6C340.9 262.1 338.3 263.6 336.5 265.8L324.2 280.6C322.8 282.3 320.9 283.4 318.7 283.8L284.2 289.9C281.3 290.4 278.2 289.8 275.7 288.2L266.3 282.3C260.4 278.6 253.3 277.4 246.6 279.1L228.5 283.5C226.9 283.9 225.3 284.4 223.9 285.1C223.9 285.1 223.9 285.1 223.8 285.2C222.4 285.8 211.3 290.9 207.3 299.9C206.9 300.8 206.4 301.6 205.9 302.3C207.6 291.8 215.4 283.3 225.8 280.8L243.9 276.4C250.6 274.8 257.7 275.9 263.6 279.6L273 285.5C275.5 287.1 278.5 287.7 281.5 287.2L316 281.1C318.1 280.7 320.1 279.6 321.5 277.9L333.8 263.1C335.7 260.9 338.3 259.4 341.1 258.9L357.1 256.2C366.3 254.6 375.6 258 381.7 265Z" fill="white"/>
</g>
<path d="M303.4 283L300.4 273.9C299.7 271.7 297.4 270.3 295.1 270.7L290.7 271.4C287.8 271.9 286 274.8 286.9 277.6C288.1 281.3 289.5 285.5 289.4 285.5" fill="#4A4A9E"/>
<g opacity="0.55">
<path d="M303.4 283H303.3L301.3 277.1C300.6 274.9 298.3 273.5 296 273.9L291.6 274.6C289.1 275 287.4 277.3 287.6 279.8C287.4 279.1 287.1 278.4 286.9 277.6C286 274.8 287.8 271.8 290.7 271.4L295.1 270.7C297.4 270.3 299.7 271.7 300.4 273.9L303.4 283Z" fill="white"/>
</g>
<path d="M219.7 282.7L220.4 277.9C220.7 275.8 222.2 274.1 224.2 273.6L241.9 269.1C243.8 268.6 245.9 269.3 247.1 270.8L251 275.5" fill="#4A4A9E"/>
<g opacity="0.55">
<path d="M251.001 275.5L249.701 275.8L247.901 273.6C246.601 272.1 244.601 271.4 242.701 271.9L225.001 276.4C223.001 276.9 221.501 278.6 221.201 280.7L221.001 282.4L219.801 282.7L220.501 277.9C220.801 275.8 222.301 274.1 224.301 273.6L242.001 269.1C243.901 268.6 246.001 269.3 247.201 270.8L251.001 275.5Z" fill="white"/>
</g>
<path d="M267.2 325.5L261.6 326.3L262.5 329.5L264.2 335.5L264 335.9L260.9 336.4L250.9 337.9L248.2 328.3L239.2 329.7L236.1 318.7L235.2 315.5L240.8 314.7L244.2 314.2L242.4 307.8L241.5 304.6L254.8 302.6L257.6 312.2L266.6 310.8L270.6 325L267.2 325.5Z" fill="#3D3D93"/>
<g opacity="0.55">
<path d="M254.8 302.6L255.6 305.4L243 307.3L243.9 310.5L245.7 316.8L242.3 317.3L236.7 318.2L237.6 321.4L239.9 329.6L239.2 329.7L236.1 318.7L235.2 315.5L240.8 314.7L244.2 314.2L242.4 307.8L241.5 304.6L254.8 302.6Z" fill="white"/>
</g>
<g opacity="0.55">
<path d="M267.4 313.6L259.1 314.8L258.3 312.1L266.6 310.8L267.4 313.6Z" fill="white"/>
</g>
<path d="M244.2 314.2L239 314.9L237.5 310.1L241.5 304.6L242.4 307.8L244.2 314.2Z" fill="#3D3D93"/>
<path d="M264 335.9L260.5 342.1L247.1 344.1L244.4 334.6L235.4 335.9L231.4 321.8L235.2 315.5L236.1 318.7L239.2 329.7L248.2 328.3L250.9 337.9L260.9 336.4L264 335.9Z" fill="#3D3D93"/>
<path d="M270.601 325L267.801 330.3L262.901 331.1L261.601 326.3L267.201 325.5L270.601 325Z" fill="#3D3D93"/>
<path d="M250.9 339.3C250.3 339.3 249.7 338.9 249.5 338.3L247.1 330L239.3 331.2C238.6 331.3 237.9 330.9 237.7 330.2L233.7 316.1C233.6 315.7 233.7 315.3 233.9 314.9C234.1 314.6 234.5 314.3 234.9 314.3L242.3 313.2L240 305.2C239.9 304.8 240 304.4 240.2 304C240.4 303.7 240.8 303.4 241.2 303.4L254.6 301.4C255.3 301.3 256 301.7 256.2 302.4L258.6 310.7L266.4 309.5C267.1 309.4 267.8 309.8 268 310.5L272 324.6C272.1 325 272 325.4 271.8 325.8C271.6 326.1 271.2 326.4 270.8 326.4L263.4 327.5L265.6 335.2C265.7 335.6 265.7 336 265.4 336.3L265.2 336.7C265 337.1 264.6 337.3 264.2 337.4L251.2 339.4C251.1 339.3 251 339.3 250.9 339.3ZM248.2 326.9C248.8 326.9 249.4 327.3 249.6 327.9L252 336.2L262.5 334.6L260.2 326.6C260.1 326.2 260.2 325.8 260.4 325.4C260.6 325 261 324.8 261.4 324.8L267 324L268.8 323.7L265.6 312.3L257.8 313.5C257.1 313.6 256.4 313.2 256.2 312.5L253.8 304.2L243.3 305.8L245.6 313.8C245.7 314.2 245.6 314.6 245.4 315C245.2 315.3 244.8 315.6 244.4 315.6L237 316.7L240.2 328.1L248 326.9C248.1 326.9 248.2 326.9 248.2 326.9Z" fill="#000073"/>
<path d="M361.8 275.4C358.2 275.9 356.1 279.5 357.2 283.3C358.3 287.1 362.1 289.8 365.7 289.3C369.3 288.8 371.4 285.2 370.3 281.4C369.2 277.6 365.4 274.9 361.8 275.4Z" fill="#E9F400"/>
<g opacity="0.3">
<path d="M365.3 289.2C361.7 289.7 357.9 287.1 356.8 283.2C356.6 282.4 356.5 281.7 356.5 281C358 284 361.3 285.9 364.4 285.4C367.3 285 369.2 282.6 369.3 279.7C369.5 280.2 369.8 280.7 369.9 281.2C371 285.1 368.9 288.7 365.3 289.2Z" fill="#000073"/>
</g>
<g opacity="0.3">
<path d="M368 293.3C364.5 294.3 360.4 292.1 358.8 288.4C358.5 287.7 358.3 286.9 358.3 286.2C360.2 289 363.6 290.5 366.7 289.7C369.5 288.9 371.1 286.3 370.9 283.4C371.2 283.8 371.5 284.3 371.7 284.8C373.1 288.6 371.5 292.3 368 293.3Z" fill="#000073"/>
</g>
<g opacity="0.55">
<path d="M367.7 277.5C366.5 276.9 365.1 276.7 363.8 276.9C360.2 277.4 358.1 281 359.2 284.8C359.6 286.1 360.2 287.2 361.1 288.2C359 287.2 357.2 285.3 356.5 282.8C355.4 279 357.4 275.4 361.1 274.9C363.4 274.5 366 275.6 367.7 277.5Z" fill="white"/>
</g>
<path d="M364.801 290.8C360.901 290.8 357.001 287.8 355.801 283.7C355.101 281.4 355.401 279 356.601 277.1C357.701 275.4 359.401 274.3 361.501 274C365.801 273.4 370.301 276.5 371.601 281C372.301 283.3 372.001 285.7 370.801 287.6C369.701 289.3 368.001 290.4 365.901 290.7C365.501 290.8 365.201 290.8 364.801 290.8ZM362.701 276.8C362.401 276.8 362.201 276.8 361.901 276.9C360.701 277.1 359.601 277.7 359.001 278.8C358.201 280 358.101 281.5 358.501 283.1C359.401 286.3 362.501 288.5 365.401 288C366.601 287.8 367.701 287.2 368.301 286.1C369.101 284.9 369.201 283.4 368.801 281.8C368.101 278.9 365.401 276.8 362.701 276.8Z" fill="#000073"/>
<path d="M370 304.6C366.4 305.1 364.3 308.7 365.4 312.5C366.5 316.3 370.3 319 373.9 318.5C377.5 318 379.6 314.4 378.5 310.6C377.5 306.7 373.7 304 370 304.6Z" fill="#12ED00"/>
<g opacity="0.3">
<path d="M374 318.4C370.4 318.9 366.6 316.3 365.5 312.4C365.3 311.6 365.2 310.9 365.2 310.2C366.7 313.2 370 315.1 373.1 314.6C376 314.2 377.9 311.8 378 308.9C378.2 309.4 378.5 309.9 378.6 310.4C379.6 314.3 377.6 317.9 374 318.4Z" fill="#000073"/>
</g>
<g opacity="0.3">
<path d="M376.6 322.5C373.1 323.5 369 321.3 367.4 317.6C367.1 316.9 366.9 316.1 366.9 315.4C368.8 318.2 372.2 319.7 375.3 318.9C378.1 318.1 379.7 315.5 379.5 312.6C379.8 313 380.1 313.5 380.3 314C381.8 317.7 380.2 321.5 376.6 322.5Z" fill="#000073"/>
</g>
<g opacity="0.55">
<path d="M376.3 306.7C375.1 306.1 373.7 305.9 372.4 306.1C368.8 306.6 366.7 310.2 367.8 314C368.2 315.3 368.8 316.4 369.7 317.4C367.6 316.4 365.8 314.5 365.1 312C364 308.2 366 304.6 369.7 304.1C372.1 303.7 374.6 304.8 376.3 306.7Z" fill="white"/>
</g>
<path d="M373.1 319.9C369.2 319.9 365.3 316.9 364.1 312.8C363.4 310.5 363.7 308.1 364.9 306.2C366 304.5 367.7 303.4 369.8 303.1C374.1 302.5 378.6 305.6 379.9 310.1C380.6 312.4 380.3 314.8 379.1 316.7C378 318.4 376.3 319.5 374.2 319.8C373.8 319.9 373.4 319.9 373.1 319.9ZM370.2 306C369 306.2 367.9 306.8 367.3 307.9C366.5 309.1 366.4 310.6 366.8 312.2C367.7 315.4 370.8 317.6 373.7 317.1C374.9 316.9 376 316.3 376.6 315.2C377.4 314 377.5 312.5 377.1 310.9C376.3 307.7 373.2 305.5 370.2 306Z" fill="#000073"/>
<path d="M379.6 287.9C376 288.4 373.9 292 375 295.8C376.1 299.6 379.9 302.3 383.5 301.8C387.1 301.3 389.2 297.7 388.1 293.9C387.1 290.1 383.3 287.4 379.6 287.9Z" fill="#FF1D1D"/>
<g opacity="0.3">
<path d="M383.5 301.5C379.9 302 376.1 299.4 375 295.5C374.8 294.7 374.7 294 374.7 293.3C376.2 296.3 379.5 298.2 382.6 297.7C385.5 297.3 387.4 294.9 387.5 292C387.7 292.5 388 293 388.1 293.5C389.2 297.4 387.1 301 383.5 301.5Z" fill="#000073"/>
</g>
<g opacity="0.3">
<path d="M386.2 305.6C382.7 306.6 378.6 304.4 377 300.7C376.7 300 376.5 299.2 376.5 298.5C378.4 301.3 381.8 302.8 384.9 302C387.7 301.2 389.3 298.6 389.1 295.7C389.4 296.1 389.7 296.6 389.9 297.1C391.3 300.8 389.7 304.6 386.2 305.6Z" fill="#000073"/>
</g>
<g opacity="0.55">
<path d="M385.8 289.8C384.6 289.2 383.2 289 381.9 289.2C378.3 289.7 376.2 293.3 377.3 297.1C377.7 298.4 378.3 299.5 379.2 300.5C377.1 299.5 375.3 297.6 374.6 295.1C373.5 291.3 375.5 287.7 379.2 287.2C381.6 286.8 384.1 287.9 385.8 289.8Z" fill="white"/>
</g>
<path d="M382.7 303.3C378.8 303.3 374.9 300.3 373.7 296.2C373 293.9 373.3 291.5 374.5 289.6C375.6 287.9 377.3 286.8 379.4 286.5C383.7 285.9 388.2 289 389.5 293.5C390.2 295.8 389.9 298.2 388.7 300.1C387.6 301.8 385.9 302.9 383.8 303.2C383.4 303.3 383 303.3 382.7 303.3ZM380.6 289.3C380.3 289.3 380.1 289.3 379.8 289.4C378.6 289.6 377.5 290.2 376.9 291.3C376.1 292.5 376 294 376.4 295.6C377.3 298.8 380.4 301 383.3 300.5C384.5 300.3 385.6 299.7 386.2 298.6C387 297.4 387.1 295.9 386.7 294.3C386 291.4 383.3 289.3 380.6 289.3Z" fill="#000073"/>
<path d="M352.1 292.1C348.5 292.6 346.4 296.2 347.5 300C348.6 303.8 352.4 306.5 356 306C359.6 305.5 361.7 301.9 360.6 298.1C359.5 294.3 355.8 291.5 352.1 292.1Z" fill="#1595FF"/>
<g opacity="0.3">
<path d="M356.3 305.9C352.7 306.4 348.9 303.8 347.8 299.9C347.6 299.1 347.5 298.4 347.5 297.7C349 300.7 352.3 302.6 355.4 302.1C358.3 301.7 360.2 299.3 360.3 296.4C360.5 296.9 360.8 297.4 360.9 297.9C361.9 301.8 359.9 305.4 356.3 305.9Z" fill="#000073"/>
</g>
<g opacity="0.3">
<path d="M358.9 309.9C355.4 310.9 351.3 308.7 349.7 305C349.4 304.3 349.2 303.5 349.2 302.8C351.1 305.6 354.5 307.1 357.6 306.3C360.4 305.5 362 302.9 361.8 300C362.1 300.4 362.4 300.9 362.6 301.4C364.1 305.2 362.4 309 358.9 309.9Z" fill="#000073"/>
</g>
<g opacity="0.55">
<path d="M358.601 294.1C357.401 293.5 356.001 293.3 354.701 293.5C351.101 294 349.001 297.6 350.101 301.4C350.501 302.7 351.101 303.8 352.001 304.8C349.901 303.8 348.101 301.9 347.401 299.4C346.301 295.6 348.301 292 352.001 291.5C354.401 291.2 356.901 292.2 358.601 294.1Z" fill="white"/>
</g>
<path d="M355.2 307.4C351.3 307.4 347.4 304.4 346.2 300.3C345.5 298 345.8 295.6 347 293.7C348.1 292 349.8 290.9 351.9 290.6C356.2 290 360.7 293.1 362 297.6C362.7 299.9 362.4 302.3 361.2 304.2C360.1 305.9 358.4 307 356.3 307.3C355.9 307.4 355.5 307.4 355.2 307.4ZM352.4 293.5C351.2 293.7 350.1 294.3 349.5 295.4C348.7 296.6 348.6 298.1 349 299.7C349.9 302.9 353 305.1 355.9 304.6C357.1 304.4 358.2 303.8 358.8 302.7C359.6 301.5 359.7 300 359.3 298.4C358.4 295.2 355.3 293 352.4 293.5Z" fill="#000073"/>
<path d="M239 316.4C238.4 316.4 237.8 316 237.6 315.4L236.1 310.5C236 310.1 236 309.6 236.3 309.2L240.3 303.8C240.6 303.4 241.2 303.1 241.7 303.2C242.2 303.3 242.7 303.7 242.8 304.2L245.5 313.7C245.6 314.1 245.5 314.5 245.3 314.9C245.1 315.2 244.7 315.5 244.3 315.5L239.1 316.3C239.2 316.4 239.1 316.4 239 316.4ZM239.1 310.3L240 313.3L242.4 312.9L240.9 307.7L239.1 310.3Z" fill="#000073"/>
<path d="M247.101 345.6C246.501 345.6 245.901 345.2 245.701 344.6L243.301 336.3L235.501 337.5C234.801 337.6 234.101 337.2 233.901 336.5L229.901 322.4C229.801 322 229.801 321.6 230.101 321.3L233.901 315C234.201 314.5 234.701 314.3 235.301 314.3C235.901 314.4 236.301 314.8 236.501 315.3L240.201 328.2L248.001 327C248.701 326.9 249.401 327.3 249.601 328L252.001 336.3L263.801 334.5C264.301 334.4 264.901 334.6 265.201 335.1C265.501 335.5 265.501 336.1 265.301 336.6L261.801 342.8C261.601 343.2 261.201 343.4 260.801 343.5L247.501 345.5C247.301 345.6 247.201 345.6 247.101 345.6ZM244.401 333.2C245.001 333.2 245.601 333.6 245.801 334.2L248.201 342.5L259.601 340.8L261.301 337.7L251.101 339.2C250.401 339.3 249.701 338.9 249.501 338.2L247.101 329.9L239.301 331.1C238.601 331.2 237.901 330.8 237.701 330.1L234.601 319.1L232.801 322.1L236.301 334.5L244.101 333.3C244.301 333.2 244.401 333.2 244.401 333.2Z" fill="#000073"/>
<path d="M262.9 332.5C262.3 332.5 261.7 332.1 261.5 331.5L260.1 326.7C260 326.3 260.1 325.9 260.3 325.5C260.5 325.1 260.9 324.9 261.3 324.9L270.3 323.5C270.8 323.4 271.4 323.6 271.7 324.1C272 324.5 272 325.1 271.8 325.6L269 330.9C268.8 331.3 268.4 331.6 268 331.6L263.2 332.4C263.1 332.5 263 332.5 262.9 332.5ZM263.4 327.5L264 329.5L266.9 329L268.1 326.8L263.4 327.5Z" fill="#000073"/>
<path d="M301.2 303.8L292.1 305.2C291.4 305.3 290.7 304.9 290.5 304.3L289.6 301.8C289.3 300.9 289.8 300 290.7 299.9L299.8 298.5C300.5 298.4 301.2 298.8 301.4 299.4L302.3 301.9C302.7 302.8 302.1 303.7 301.2 303.8Z" fill="#000073"/>
<path d="M318.501 301L309.401 302.4C308.701 302.5 308.001 302.1 307.801 301.5L306.901 299C306.601 298.1 307.101 297.2 308.001 297.1L317.101 295.7C317.801 295.6 318.501 296 318.701 296.6L319.601 299.1C319.901 299.9 319.401 300.8 318.501 301Z" fill="#000073"/>
<path d="M298.091 348.295C304.723 347.107 309.066 340.371 307.79 333.25C306.515 326.129 300.104 321.318 293.472 322.506C286.84 323.694 282.498 330.43 283.773 337.552C285.049 344.673 291.459 349.483 298.091 348.295Z" fill="#4A4A9E"/>
<g opacity="0.3">
<path d="M298.1 348.3C292.8 349.2 287.6 346.4 285.1 341.5C287.4 342.7 290 343.2 292.6 342.7C299.2 341.5 303.6 334.8 302.3 327.7C302 326.3 301.6 324.9 300.9 323.7C304.3 325.5 307 329 307.7 333.2C309.1 340.4 304.8 347.1 298.1 348.3Z" fill="#000073"/>
</g>
<g opacity="0.55">
<path d="M305 327C302.4 324.9 299 323.9 295.6 324.5C289 325.7 284.6 332.4 285.9 339.6C286.3 342 287.3 344.1 288.7 345.8C286.2 343.9 284.4 340.9 283.8 337.5C282.5 330.4 286.9 323.6 293.5 322.5C297.9 321.7 302.3 323.6 305 327Z" fill="white"/>
</g>
<path d="M296.1 349.9C289.6 349.9 283.7 344.9 282.4 337.8C281 329.9 285.9 322.4 293.2 321.1C296.8 320.5 300.4 321.3 303.5 323.6C306.5 325.8 308.5 329.2 309.2 333C310.6 340.9 305.7 348.4 298.4 349.7C297.6 349.8 296.9 349.9 296.1 349.9ZM295.5 323.7C294.9 323.7 294.3 323.8 293.7 323.9C287.8 324.9 284 331 285.1 337.3C286.2 343.6 291.9 347.9 297.8 346.9C303.7 345.9 307.5 339.8 306.4 333.5C305.8 330.4 304.2 327.7 301.8 325.9C300 324.5 297.8 323.7 295.5 323.7Z" fill="#000073"/>
<path d="M307.394 336.64C312.233 335.773 315.389 330.796 314.445 325.523C313.5 320.25 308.812 316.678 303.974 317.545C299.136 318.411 295.98 323.388 296.924 328.661C297.868 333.934 302.556 337.507 307.394 336.64Z" fill="#4A4A9E"/>
<g opacity="0.3">
<path d="M307.4 336.6C302.6 337.5 297.9 333.9 296.9 328.6C296.8 327.8 296.7 327 296.7 326.2C298.4 330.2 302.4 332.6 306.5 331.9C310.6 331.2 313.5 327.5 313.7 323.2C314 323.9 314.3 324.7 314.4 325.5C315.4 330.8 312.2 335.8 307.4 336.6Z" fill="#000073"/>
</g>
<g opacity="0.55">
<path d="M312.3 320.9C310.5 319.7 308.4 319.2 306.2 319.6C301.4 320.5 298.2 325.4 299.2 330.7C299.5 332.5 300.3 334.1 301.3 335.4C299.1 334 297.5 331.6 296.9 328.7C296 323.4 299.1 318.5 303.9 317.6C307.2 317 310.3 318.3 312.3 320.9Z" fill="white"/>
</g>
<path d="M305.9 338.2C300.9 338.2 296.5 334.3 295.5 328.9C294.4 322.9 298.1 317.2 303.7 316.2C309.3 315.2 314.7 319.3 315.8 325.3C316.9 331.3 313.2 337 307.6 338C307.1 338.1 306.5 338.2 305.9 338.2ZM305.4 318.8C305 318.8 304.6 318.8 304.2 318.9C300.1 319.6 297.5 323.9 298.3 328.4C299.1 332.9 303.1 335.9 307.1 335.2C311.2 334.5 313.8 330.2 313 325.7C312.3 321.7 309 318.8 305.4 318.8Z" fill="#000073"/>
<path d="M307.9 331.2C306.7 331.8 305.1 331.7 303.9 330.9C302.7 330.1 301.8 328.8 301.6 327.3C301.3 325.9 301.7 324.3 302.5 323.2C303.3 322 304.8 321.3 306.1 321.5C305 322.1 304.2 323 303.8 324C303.4 325 303.3 326 303.5 327C303.7 328 304.1 328.9 304.9 329.7C305.7 330.4 306.7 331 307.9 331.2Z" fill="#000073"/>
<path d="M298.8 338.9C295.7 338.9 292.9 336.5 292.2 333.1C291.6 329.8 293.3 326.6 296.2 325.4L297.2 328C295.5 328.7 294.6 330.6 294.9 332.5C295.3 334.7 297.2 336.3 299.2 335.9C299.9 335.8 300.6 335.4 301.1 334.8L303.2 336.7C302.3 337.7 301.1 338.4 299.7 338.6C299.5 338.9 299.1 338.9 298.8 338.9Z" fill="#000073"/>
<path d="M338.889 340.295C345.521 339.108 349.864 332.372 348.588 325.25C347.313 318.129 340.902 313.319 334.27 314.507C327.638 315.695 323.296 322.431 324.571 329.552C325.847 336.673 332.257 341.483 338.889 340.295Z" fill="#4A4A9E"/>
<g opacity="0.3">
<path d="M338.9 340.3C333.6 341.2 328.4 338.4 325.9 333.5C328.2 334.7 330.8 335.2 333.4 334.7C340 333.5 344.4 326.8 343.1 319.7C342.8 318.3 342.4 316.9 341.7 315.7C345.1 317.5 347.8 321 348.5 325.2C349.9 332.4 345.6 339.1 338.9 340.3Z" fill="#000073"/>
</g>
<g opacity="0.55">
<path d="M345.8 319C343.2 316.9 339.8 315.9 336.4 316.5C329.8 317.7 325.4 324.4 326.7 331.6C327.1 334 328.1 336.1 329.5 337.8C327 335.9 325.2 332.9 324.6 329.5C323.3 322.4 327.7 315.6 334.3 314.5C338.7 313.7 343.1 315.6 345.8 319Z" fill="white"/>
</g>
<path d="M336.9 341.9C334.1 341.9 331.3 341 328.9 339.2C325.9 337 323.9 333.6 323.2 329.8C322.5 326 323.3 322.2 325.3 319C327.3 315.8 330.5 313.7 334.1 313.1C337.7 312.5 341.3 313.3 344.4 315.6C347.4 317.8 349.4 321.2 350.1 325C351.5 332.9 346.6 340.4 339.3 341.7C338.4 341.8 337.6 341.9 336.9 341.9ZM336.3 315.7C335.7 315.7 335.1 315.8 334.5 315.9C331.7 316.4 329.2 318.1 327.6 320.6C326 323.1 325.4 326.2 325.9 329.3C326.5 332.4 328.1 335.1 330.5 336.9C332.9 338.7 335.8 339.4 338.6 338.9C344.5 337.9 348.3 331.8 347.2 325.5C346.6 322.4 345 319.7 342.6 317.9C340.7 316.5 338.6 315.7 336.3 315.7Z" fill="#000073"/>
<path d="M348.195 328.637C353.033 327.77 356.19 322.793 355.245 317.52C354.301 312.247 349.613 308.675 344.775 309.542C339.937 310.408 336.78 315.385 337.725 320.658C338.669 325.931 343.357 329.504 348.195 328.637Z" fill="#4A4A9E"/>
<g opacity="0.3">
<path d="M348.2 328.6C343.4 329.5 338.7 325.9 337.7 320.6C337.6 319.8 337.5 319 337.5 318.2C339.2 322.2 343.2 324.6 347.3 323.9C351.4 323.2 354.3 319.5 354.5 315.2C354.8 315.9 355.1 316.7 355.2 317.5C356.2 322.8 353 327.8 348.2 328.6Z" fill="#000073"/>
</g>
<g opacity="0.55">
<path d="M353.1 312.9C351.3 311.7 349.2 311.2 347 311.6C342.2 312.5 339 317.4 340 322.7C340.3 324.5 341.1 326.1 342.1 327.4C339.9 326 338.3 323.6 337.7 320.7C336.8 315.4 339.9 310.5 344.7 309.6C348 309 351.1 310.3 353.1 312.9Z" fill="white"/>
</g>
<path d="M346.7 330.2C344.5 330.2 342.4 329.5 340.6 328.1C338.3 326.4 336.8 323.8 336.3 320.9C335.8 318 336.3 315.1 337.9 312.7C339.4 310.3 341.8 308.7 344.5 308.2C347.2 307.7 350 308.4 352.3 310.2C354.6 311.9 356.1 314.5 356.6 317.4C357.7 323.4 354 329.1 348.4 330.1C347.9 330.1 347.3 330.2 346.7 330.2ZM346.2 310.8C345.8 310.8 345.4 310.8 345 310.9C343.1 311.2 341.4 312.4 340.3 314.2C339.2 316 338.8 318.2 339.1 320.4C339.5 322.6 340.6 324.5 342.3 325.8C344 327.1 345.9 327.6 347.9 327.2C352 326.5 354.6 322.2 353.8 317.7C353.4 315.5 352.3 313.6 350.6 312.3C349.3 311.4 347.8 310.8 346.2 310.8Z" fill="#000073"/>
<path d="M348.7 323.2C347.5 323.8 345.9 323.7 344.7 322.9C343.5 322.1 342.6 320.8 342.4 319.3C342.1 317.9 342.5 316.3 343.3 315.2C344.1 314 345.6 313.3 346.9 313.5C345.8 314.1 345 315 344.6 316C344.2 317 344.1 318 344.3 319C344.5 320 344.9 320.9 345.7 321.7C346.5 322.4 347.4 323 348.7 323.2Z" fill="#000073"/>
<path d="M339.6 330.9C336.5 330.9 333.7 328.5 333 325.1C332.4 321.8 334.1 318.6 337 317.4L338 320C336.3 320.7 335.4 322.6 335.7 324.5C336.1 326.7 338 328.3 340 327.9C340.7 327.8 341.4 327.4 341.9 326.8L344 328.7C343.1 329.7 341.9 330.4 340.5 330.6C340.3 330.9 339.9 330.9 339.6 330.9Z" fill="#000073"/>
<path d="M331.1 263.4L330.7 258.5C330.4 254.7 333 251.3 336.8 250.7L352.5 247.7C355.1 247.2 357.8 248.4 359.2 250.7L361.5 254.6L358.1 256.6L355.8 252.7C355.3 251.8 354.2 251.3 353.2 251.5L337.5 254.5C335.7 254.8 334.5 256.4 334.6 258.2L335 263.1L331.1 263.4Z" fill="#000073"/>
<path d="M338.201 259.6C337.201 257.6 337.001 255.8 337.701 254.1C338.601 251.7 340.901 250.7 341.001 250.6L342.001 253L341.501 251.8L342.001 253C342.001 253 340.601 253.6 340.101 255C339.801 256 339.901 257.1 340.601 258.4L338.201 259.6Z" fill="#000073"/>
<path d="M221.6 283L217.7 282.5L218.4 277.7C218.8 274.8 220.9 272.5 223.7 271.8L241.4 267.3C244 266.6 246.9 267.5 248.6 269.6L252.5 274.3L249.5 276.8L245.6 272.1C244.8 271.2 243.5 270.7 242.4 271L224.7 275.5C223.4 275.8 222.5 276.9 222.3 278.1L221.6 283Z" fill="#000073"/>
<path d="M227 280.5H224.4V277C224.4 274.2 226.3 271.8 229 271.1L229.6 273.6C228.1 274 227 275.4 227 276.9V280.5Z" fill="#000073"/>
<g opacity="0.3">
<path d="M235.4 335.9L239.3 330L248.2 328.3L244.2 335.4L235.2 336.1" fill="#000073"/>
</g>
<g opacity="0.3">
<path d="M250.9 337.9L247.7 344.1L261.2 341.9L264 335.9L250.9 337.9Z" fill="#000073"/>
</g>
<g opacity="0.15">
<path d="M389.6 322.4L394.6 321.2C396.4 320.8 398.3 321.5 399.4 323C402.4 327.3 404.9 332.4 407 338C407.7 339.8 406.7 341.7 404.9 342.2L397.1 344.5C395.8 344.9 394.4 344.3 393.7 343.1L386.4 329.1C385 326.5 386.5 323.1 389.6 322.4Z" fill="white"/>
</g>
<g opacity="0.15">
<path d="M236.7 355.4L231.9 357.3C230.2 358 229.1 359.7 229 361.5C228.9 366.7 229.9 372.4 231.4 378.1C231.9 379.9 233.8 380.9 235.5 380.4L243.2 377.9C244.5 377.5 245.3 376.2 245.1 374.8L243.1 359.2C242.9 356.1 239.6 354.2 236.7 355.4Z" fill="white"/>
</g>
<path d="M0.000289317 351.5C0.100289 353.9 0.600289 356.3 1.60029 358.7C3.20029 362.6 6.30029 365.8 10.2003 367.4C19.0003 371.2 28.4003 372.1 38.4003 370.2C45.3003 368.9 51.8003 365.4 59.7003 361.9C62.1003 360.8 64.9003 360.8 67.3003 361.9L117 383.6C120.5 385.1 123.1 388.1 124 391.7C127.4 404.4 131.9 415.7 137.3 425.8C138.5 428.1 139.8 430.2 141.1 432.4C141.2 432.6 141.4 432.9 141.5 433.1C144.7 438.3 149.6 442.4 155.3 444.6C175.4 452.4 190.7 446.8 199.2 422.3C199.2 422.3 209.4 386.4 214.3 362.3C214.7 360.2 215.1 358.2 215.4 356.3C215.7 354.5 215.9 352.8 216 351.2C217.1 340.5 211.5 330.2 202 325.2L185.5 316.5C179.4 313.3 172.2 312.7 165.6 314.8L155.1 318.3C152.3 319.2 149.2 319.1 146.5 317.8L114.5 303.4C112.5 302.5 110.9 300.9 110 299L101.6 281.6C100.3 279 98.2003 276.9 95.5003 275.7L80.7003 269.2C71.1003 264.9 59.8003 266.7 52.0003 273.9C49.9003 275.9 47.6003 278.3 45.1003 281.2C29.1003 300.3 9.20029 326 9.20029 326C9.20029 326 -0.699711 338.4 0.000289317 351.5Z" fill="#CFCDE0"/>
<g opacity="0.3">
<path d="M141.101 432.4C141.201 432.6 141.401 432.9 141.501 433.1C144.701 438.3 149.601 442.4 155.301 444.6C175.401 452.4 190.701 446.8 199.201 422.3C199.201 422.3 209.401 386.4 214.301 362.3C214.701 360.2 215.101 358.2 215.401 356.3C215.101 354.3 214.901 352.9 214.801 352.6C214.501 351.8 213.101 345.1 204.401 340.6C198.101 383.2 188.301 414.4 174.901 434.1C174.901 434.1 160.001 447.9 142.001 433.1C141.601 432.9 141.301 432.6 141.101 432.4Z" fill="#000073"/>
</g>
<g opacity="0.3">
<path d="M52.9 346.6C52.9 346.6 56.1 344.6 62.2 347C62 344.7 62.3 342.3 63.4 340C66.4 333.4 73.8 330.3 79.9 333.1C86 335.9 88.6 343.5 85.6 350.1C84.6 352.3 83.1 354.1 81.4 355.4L102.5 364.6C102.2 362.2 102.5 359.5 103.6 357.1C106.6 350.5 114 347.4 120.1 350.2C126.2 353 128.8 360.6 125.8 367.2C124.7 369.6 123.1 371.5 121.1 372.9L123.4 373.9C128.3 376.1 132 380.2 133.6 385.4C135.1 390.2 137.1 396.7 139.2 403.9C143.5 418.7 154.2 437.1 161.3 440.3C161.3 440.3 147.1 443.7 138.5 427.6C138.2 427 137.8 426.4 137.3 425.9C131.9 415.8 127.4 404.5 124 391.8C123 388.2 120.4 385.2 117 383.7L67.3 362C64.9 360.9 62.1 361 59.7 362C51.8 365.6 45.3 369 38.4 370.3C28.4 372.2 19 371.3 10.2 367.5C6.3 365.8 3.1 362.7 1.6 358.8C0.6 356.4 0.2 354 0 351.6C0.2 350.5 0.4 349.8 0.4 349.8C14.6 361.6 31.6 362.6 52.9 346.6Z" fill="#000073"/>
</g>
<path d="M102.2 282.1L103.8 277.4C104.7 274.7 103.4 271.9 100.8 270.7L86.3 263.9C84.6 263.1 82.6 263.5 81.2 264.8L78 268" fill="#4A4A9E"/>
<g opacity="0.55">
<path d="M78 268.1L78.3 268.3L79.5 267.1C80.8 265.8 82.8 265.4 84.6 266.2L99.1 273C101.7 274.1 102.9 277 102.1 279.7L101.5 281.6L102.3 282.1L103.9 277.4C104.8 274.7 103.5 271.9 100.9 270.7L86.4 263.9C84.7 263.1 82.7 263.5 81.3 264.8L78 268.1Z" fill="white"/>
</g>
<g opacity="0.55">
<path d="M54.7002 271.9C61.7002 268.4 70.0002 268.1 77.4002 271.3L92.2002 277.8C94.9002 279 97.0002 281 98.3002 283.7L106.7 301.1C107.6 303.1 109.2 304.6 111.2 305.5L143.2 319.9C145.9 321.1 149 321.3 151.8 320.4L162.3 316.9C168.9 314.7 176 315.3 182.2 318.6L198.7 327.3C200.2 328.1 201.5 329 202.8 330C202.8 330 202.8 330 202.9 330.1C204.1 331 213.6 338.7 215.3 348.4C215.5 349.4 215.7 350.2 216 351C216.9 340.4 211.4 330.3 201.9 325.3L185.4 316.6C179.3 313.4 172.1 312.8 165.5 314.9L155 318.4C152.2 319.3 149.1 319.2 146.4 317.9L114.4 303.5C112.4 302.6 110.8 301 109.9 299.1L101.5 281.7C100.2 279.1 98.1002 277 95.4002 275.8L80.6002 269.3C72.1002 265.6 62.2002 266.6 54.7002 271.9Z" fill="white"/>
</g>
<path d="M126.101 308.5L131.301 300.4C132.601 298.4 135.101 297.6 137.201 298.6L141.201 300.4C143.901 301.6 144.901 304.9 143.301 307.4C141.201 310.6 138.801 314.4 138.901 314.4" fill="#4A4A9E"/>
<g opacity="0.55">
<path d="M126.101 308.5H126.201L129.501 303.2C130.801 301.2 133.301 300.4 135.401 301.4L139.401 303.1C141.801 304.1 142.801 306.8 142.001 309.1C142.401 308.5 142.801 307.8 143.201 307.2C144.801 304.7 143.801 301.4 141.101 300.2L137.101 298.5C134.901 297.6 132.401 298.3 131.201 300.3L126.101 308.5Z" fill="white"/>
</g>
<path d="M207.4 328.6L207.9 323.8C208.1 321.7 207.1 319.7 205.2 318.7L189.1 310C187.4 309.1 185.2 309.2 183.6 310.4L178.7 314" fill="#4A4A9E"/>
<g opacity="0.55">
<path d="M178.801 314L180.001 314.6L182.301 312.9C183.901 311.7 186.001 311.6 187.801 312.5L203.901 321.2C205.701 322.2 206.801 324.2 206.601 326.3L206.401 328L207.501 328.5L208.001 323.7C208.201 321.6 207.201 319.6 205.301 318.6L189.201 309.9C187.401 309 185.301 309.1 183.701 310.3L178.801 314Z" fill="white"/>
</g>
<path d="M179.7 332.4C183.1 333.8 184.2 337.8 182.2 341.2C180.2 344.7 175.9 346.3 172.5 344.9C169.1 343.5 168 339.6 170 336.1C171.9 332.6 176.3 331 179.7 332.4Z" fill="#E9F400"/>
<g opacity="0.3">
<path d="M172.8 344.9C176.2 346.3 180.5 344.7 182.5 341.2C182.9 340.5 183.2 339.8 183.3 339.1C181.1 341.6 177.4 342.7 174.5 341.5C171.8 340.4 170.5 337.6 171.2 334.8C170.8 335.2 170.5 335.7 170.2 336.1C168.3 339.6 169.5 343.5 172.8 344.9Z" fill="#000073"/>
</g>
<g opacity="0.3">
<path d="M169.301 348.2C172.501 350 177.001 348.9 179.401 345.7C179.901 345.1 180.201 344.4 180.401 343.7C177.901 345.9 174.201 346.6 171.401 345C168.801 343.6 167.901 340.7 168.901 337.9C168.501 338.3 168.101 338.7 167.801 339.1C165.401 342.3 166.101 346.4 169.301 348.2Z" fill="#000073"/>
</g>
<g opacity="0.55">
<path d="M173.4 332.9C174.7 332.7 176.1 332.8 177.3 333.3C180.7 334.7 181.8 338.6 179.8 342.1C179.1 343.2 178.2 344.2 177.2 344.9C179.5 344.5 181.7 343 183 340.8C185 337.3 183.9 333.4 180.5 332C178.3 331.1 175.6 331.5 173.4 332.9Z" fill="white"/>
</g>
<path d="M175.1 346.8C174 346.8 172.9 346.6 171.9 346.2C170 345.4 168.6 343.9 167.9 342C167.2 339.9 167.5 337.5 168.7 335.4C171 331.4 176.2 329.4 180.2 331.1C182.1 331.9 183.5 333.4 184.2 335.3C184.9 337.4 184.6 339.8 183.4 341.9C181.6 345 178.3 346.8 175.1 346.8ZM177.1 333.3C174.8 333.3 172.5 334.6 171.2 336.8C170.4 338.2 170.2 339.7 170.6 341.1C171 342.2 171.8 343.1 173 343.6C175.7 344.7 179.3 343.4 180.9 340.5C181.7 339.1 181.9 337.6 181.5 336.2C181.1 335.1 180.3 334.2 179.1 333.7C178.5 333.4 177.8 333.3 177.1 333.3Z" fill="#000073"/>
<path d="M164.5 358.6C167.9 360 169 363.9 167 367.4C165 370.8 160.7 372.5 157.3 371.1C153.9 369.7 152.8 365.7 154.8 362.3C156.8 358.9 161.2 357.2 164.5 358.6Z" fill="#12ED00"/>
<g opacity="0.3">
<path d="M157.3 371.1C160.7 372.5 165 370.9 167 367.4C167.4 366.7 167.7 366 167.8 365.3C165.6 367.8 161.9 368.9 159 367.7C156.3 366.6 155 363.8 155.7 361C155.3 361.4 155 361.9 154.7 362.3C152.8 365.8 153.9 369.7 157.3 371.1Z" fill="#000073"/>
</g>
<g opacity="0.3">
<path d="M153.801 374.4C157.001 376.2 161.501 375.1 163.901 371.9C164.401 371.3 164.701 370.6 164.901 369.9C162.401 372.1 158.701 372.8 155.901 371.2C153.301 369.8 152.401 366.9 153.401 364.1C153.001 364.5 152.601 364.9 152.301 365.3C149.901 368.6 150.601 372.6 153.801 374.4Z" fill="#000073"/>
</g>
<g opacity="0.55">
<path d="M157.9 359.1C159.2 358.9 160.6 359 161.8 359.5C165.2 360.9 166.3 364.8 164.3 368.3C163.6 369.4 162.7 370.4 161.7 371.1C164 370.7 166.2 369.2 167.5 367C169.5 363.5 168.4 359.6 165 358.2C162.7 357.3 160 357.7 157.9 359.1Z" fill="white"/>
</g>
<path d="M159.901 373C158.801 373 157.801 372.8 156.801 372.4C154.901 371.6 153.501 370.1 152.801 368.2C152.101 366.1 152.401 363.7 153.601 361.6C155.901 357.6 161.101 355.6 165.101 357.3C167.001 358.1 168.401 359.6 169.101 361.5C169.801 363.6 169.501 366 168.301 368.1C166.501 371.2 163.101 373 159.901 373ZM161.901 359.5C159.601 359.5 157.301 360.8 156.001 363C155.201 364.4 155.001 365.9 155.401 367.3C155.801 368.4 156.601 369.3 157.801 369.8C160.501 370.9 164.101 369.6 165.701 366.7C166.501 365.3 166.701 363.8 166.301 362.4C165.901 361.3 165.101 360.4 163.901 359.9C163.301 359.7 162.601 359.5 161.901 359.5Z" fill="#000073"/>
<path d="M159.3 340.2C162.7 341.6 163.8 345.6 161.8 349C159.8 352.4 155.5 354.1 152.1 352.7C148.7 351.3 147.6 347.3 149.6 343.9C151.5 340.4 155.9 338.7 159.3 340.2Z" fill="#FF1D1D"/>
<g opacity="0.3">
<path d="M152.2 352.4C155.6 353.8 159.9 352.2 161.9 348.7C162.3 348 162.6 347.3 162.7 346.6C160.5 349.1 156.8 350.2 153.9 349C151.2 347.9 149.9 345.1 150.6 342.3C150.2 342.7 149.9 343.2 149.6 343.6C147.7 347.1 148.8 351 152.2 352.4Z" fill="#000073"/>
</g>
<g opacity="0.3">
<path d="M148.7 355.7C151.9 357.5 156.4 356.4 158.8 353.2C159.3 352.6 159.6 351.9 159.8 351.2C157.3 353.4 153.6 354.1 150.8 352.5C148.2 351.1 147.3 348.2 148.3 345.4C147.9 345.8 147.5 346.2 147.2 346.6C144.8 349.8 145.5 353.9 148.7 355.7Z" fill="#000073"/>
</g>
<g opacity="0.55">
<path d="M152.801 340.4C154.101 340.2 155.501 340.3 156.701 340.8C160.101 342.2 161.201 346.1 159.201 349.6C158.501 350.7 157.601 351.7 156.601 352.4C158.901 352 161.101 350.5 162.401 348.3C164.401 344.8 163.301 340.9 159.901 339.5C157.601 338.6 154.901 339 152.801 340.4Z" fill="white"/>
</g>
<path d="M154.6 354.6C153.5 354.6 152.5 354.4 151.5 354C149.6 353.2 148.2 351.7 147.5 349.8C146.8 347.7 147.1 345.3 148.3 343.2C150.6 339.2 155.8 337.2 159.8 338.9C161.7 339.7 163.1 341.2 163.8 343.1C164.5 345.2 164.2 347.6 163 349.7C161.3 352.7 157.9 354.6 154.6 354.6ZM156.7 341.1C154.4 341.1 152.1 342.4 150.8 344.6C150 346 149.8 347.5 150.2 348.9C150.6 350 151.4 350.9 152.6 351.4C155.3 352.5 158.9 351.2 160.5 348.3C161.3 346.9 161.5 345.4 161.1 344C160.7 342.9 159.9 342 158.7 341.5C158.1 341.2 157.4 341.1 156.7 341.1Z" fill="#000073"/>
<path d="M184.901 350.9C188.301 352.3 189.401 356.3 187.401 359.7C185.401 363.1 181.101 364.8 177.701 363.4C174.301 362 173.201 358 175.201 354.6C177.201 351.1 181.601 349.5 184.901 350.9Z" fill="#1595FF"/>
<g opacity="0.3">
<path d="M177.6 363.3C181 364.7 185.3 363.1 187.3 359.6C187.7 358.9 188 358.2 188.1 357.5C185.9 360 182.2 361.1 179.3 359.9C176.6 358.8 175.3 356 176 353.2C175.6 353.6 175.3 354.1 175 354.5C173.1 357.9 174.2 361.9 177.6 363.3Z" fill="#000073"/>
</g>
<g opacity="0.3">
<path d="M174.001 366.6C177.201 368.4 181.701 367.3 184.101 364.1C184.601 363.5 184.901 362.8 185.101 362.1C182.601 364.3 178.901 365 176.101 363.4C173.501 362 172.601 359.1 173.601 356.3C173.201 356.7 172.801 357.1 172.501 357.5C170.201 360.7 170.801 364.8 174.001 366.6Z" fill="#000073"/>
</g>
<g opacity="0.55">
<path d="M178.2 351.3C179.5 351.1 180.9 351.2 182.1 351.7C185.5 353.1 186.6 357 184.6 360.5C183.9 361.6 183 362.6 182 363.3C184.3 362.9 186.5 361.4 187.8 359.2C189.8 355.7 188.7 351.8 185.3 350.4C183 349.5 180.3 349.9 178.2 351.3Z" fill="white"/>
</g>
<path d="M180.3 365.3C179.2 365.3 178.2 365.1 177.2 364.7C175.3 363.9 173.9 362.4 173.2 360.5C172.5 358.4 172.8 356 174 353.9C176.3 349.9 181.5 347.9 185.5 349.6C187.4 350.4 188.8 351.9 189.5 353.8C190.2 355.9 189.9 358.3 188.7 360.4C186.9 363.4 183.5 365.3 180.3 365.3ZM182.3 351.8C180 351.8 177.7 353.1 176.4 355.3C175.6 356.7 175.4 358.2 175.8 359.6C176.2 360.7 177 361.6 178.2 362.1C180.9 363.2 184.5 361.9 186.1 359C186.9 357.6 187.1 356.1 186.7 354.7C186.3 353.6 185.5 352.7 184.3 352.2C183.7 351.9 183 351.8 182.3 351.8Z" fill="#000073"/>
<path d="M123.2 329.2L131.7 332.8C132.3 333.1 133.1 332.9 133.5 332.3L135 330.1C135.5 329.3 135.2 328.3 134.4 328L125.9 324.4C125.3 324.1 124.5 324.3 124.1 324.9L122.6 327.1C122 327.8 122.4 328.8 123.2 329.2Z" fill="#000073"/>
<path d="M107.1 322.2L115.6 325.8C116.2 326.1 117 325.9 117.4 325.3L118.9 323.1C119.4 322.3 119.1 321.3 118.3 321L109.8 317.4C109.2 317.1 108.4 317.3 108 317.9L106.5 320.1C106 320.9 106.3 321.9 107.1 322.2Z" fill="#000073"/>
<path d="M131.779 366.147C134.752 359.552 132.183 351.96 126.041 349.191C119.899 346.422 112.509 349.524 109.535 356.119C106.562 362.714 109.131 370.306 115.273 373.075C121.415 375.844 128.805 372.743 131.779 366.147Z" fill="#4A4A9E"/>
<g opacity="0.3">
<path d="M115.301 373.1C120.201 375.3 125.901 373.8 129.501 369.7C127.001 370.3 124.401 370.1 121.901 369C115.801 366.2 113.201 358.6 116.201 352C116.801 350.7 117.601 349.5 118.501 348.5C114.701 349.4 111.301 352.1 109.601 356.1C106.601 362.7 109.201 370.3 115.301 373.1Z" fill="#000073"/>
</g>
<g opacity="0.55">
<path d="M113.801 350.8C116.901 349.4 120.401 349.3 123.501 350.7C129.601 353.5 132.201 361.1 129.201 367.7C128.201 369.9 126.701 371.7 125.001 373.1C127.901 371.8 130.301 369.4 131.801 366.2C134.801 359.6 132.201 352 126.101 349.2C122.001 347.4 117.301 348.1 113.801 350.8Z" fill="white"/>
</g>
<path d="M120.1 375.5C118.3 375.5 116.5 375.1 114.8 374.4C108 371.3 105.1 362.9 108.3 355.6C111.6 348.3 119.8 344.9 126.7 348C130 349.5 132.5 352.3 133.8 355.9C135 359.4 134.8 363.3 133.2 366.9C131.6 370.4 128.8 373.2 125.4 374.6C123.6 375.2 121.8 375.5 120.1 375.5ZM110.9 356.7C108.3 362.6 110.5 369.3 115.9 371.8C118.5 373 121.5 373 124.2 371.8C127 370.6 129.2 368.4 130.5 365.5C131.8 362.6 132 359.5 131 356.6C130 353.8 128.1 351.6 125.5 350.4C120.1 348.1 113.5 350.8 110.9 356.7Z" fill="#000073"/>
<path d="M121.321 354.323C123.522 349.439 121.675 343.843 117.194 341.822C112.713 339.802 107.296 342.124 105.094 347.007C102.892 351.891 104.74 357.487 109.221 359.508C113.702 361.528 119.119 359.206 121.321 354.323Z" fill="#4A4A9E"/>
<g opacity="0.3">
<path d="M109.201 359.5C113.701 361.5 119.101 359.2 121.301 354.3C121.601 353.5 121.901 352.8 122.001 352C119.401 355.4 114.901 356.8 111.201 355.1C107.401 353.4 105.501 349.1 106.301 344.9C105.801 345.5 105.401 346.2 105.101 347C102.901 351.9 104.701 357.5 109.201 359.5Z" fill="#000073"/>
</g>
<g opacity="0.55">
<path d="M108.301 343C110.301 342.3 112.501 342.3 114.501 343.3C119.001 345.3 120.801 350.9 118.601 355.8C117.901 357.5 116.701 358.8 115.401 359.8C117.901 359 120.101 357.1 121.301 354.4C123.501 349.5 121.701 343.9 117.201 341.9C114.201 340.5 110.801 341.1 108.301 343Z" fill="white"/>
</g>
<path d="M112.601 361.7C111.201 361.7 109.901 361.4 108.601 360.8C106.101 359.7 104.201 357.5 103.301 354.8C102.401 352.1 102.601 349.1 103.801 346.5C105.001 343.8 107.101 341.7 109.701 340.6C112.401 339.5 115.201 339.5 117.701 340.6C120.201 341.7 122.101 343.9 123.001 346.6C123.901 349.3 123.701 352.3 122.501 354.9C121.301 357.6 119.201 359.7 116.601 360.8C115.301 361.4 114.001 361.7 112.601 361.7ZM113.801 342.5C112.801 342.5 111.801 342.7 110.901 343.1C108.901 343.9 107.401 345.5 106.401 347.6C105.501 349.6 105.301 351.9 106.001 353.9C106.701 355.9 108.001 357.4 109.801 358.2C111.601 359 113.601 359 115.601 358.2C117.601 357.4 119.101 355.8 120.101 353.7C121.001 351.7 121.201 349.4 120.501 347.4C119.801 345.4 118.501 343.9 116.701 343.1C115.701 342.7 114.701 342.5 113.801 342.5Z" fill="#000073"/>
<path d="M110 354.1C111.3 354.2 112.4 353.9 113.3 353.4C114.2 352.8 114.8 352 115.3 351.1C115.7 350.2 115.9 349.1 115.7 348.1C115.5 347.1 115 346 114.1 345.1C115.4 345.2 116.6 346.3 117.2 347.6C117.8 348.9 117.7 350.5 117.1 351.8C116.5 353.1 115.4 354.2 114 354.7C112.6 355.2 111 355 110 354.1Z" fill="#000073"/>
<path d="M118.501 364C117.701 364 116.801 363.8 116.001 363.5C114.801 362.9 113.801 362 113.101 360.8L115.601 359.5C116.001 360.2 116.501 360.7 117.201 361C119.001 361.8 121.301 360.8 122.201 358.7C123.001 356.9 122.601 354.8 121.101 353.8L122.801 351.5C125.301 353.3 126.201 356.9 124.801 359.9C123.601 362.4 121.101 364 118.501 364Z" fill="#000073"/>
<path d="M94.1808 348.438C97.1544 341.842 94.5857 334.251 88.4434 331.482C82.3012 328.712 74.9114 331.814 71.9378 338.409C68.9643 345.005 71.533 352.596 77.6752 355.366C83.8175 358.135 91.2073 355.033 94.1808 348.438Z" fill="#4A4A9E"/>
<g opacity="0.3">
<path d="M77.7001 355.4C82.6001 357.6 88.3001 356.1 91.9001 352C89.4001 352.6 86.8001 352.4 84.3001 351.3C78.2001 348.5 75.6001 340.9 78.6001 334.3C79.2001 333 80.0001 331.8 80.9001 330.8C77.1001 331.7 73.7001 334.4 72.0001 338.4C69.0001 345 71.6001 352.6 77.7001 355.4Z" fill="#000073"/>
</g>
<g opacity="0.55">
<path d="M76.2002 333.1C79.3002 331.7 82.8002 331.6 85.9002 333C92.0002 335.8 94.6002 343.4 91.6002 350C90.6002 352.2 89.1002 354 87.4002 355.4C90.3002 354.1 92.7002 351.7 94.2002 348.5C97.2002 341.9 94.6002 334.3 88.5002 331.5C84.4002 329.7 79.7002 330.4 76.2002 333.1Z" fill="white"/>
</g>
<path d="M82.5003 357.8C80.7003 357.8 78.9003 357.4 77.2003 356.7C70.4003 353.6 67.5003 345.2 70.7003 337.9C74.0003 330.6 82.2003 327.2 89.1003 330.3C92.4003 331.8 94.9003 334.6 96.2003 338.2C97.4003 341.7 97.2003 345.6 95.6003 349.2C94.0003 352.7 91.2003 355.5 87.8003 356.9C86.0003 357.5 84.2003 357.8 82.5003 357.8ZM73.3003 339C70.7003 344.9 72.9003 351.6 78.3003 354.1C80.9003 355.3 83.9003 355.3 86.6003 354.1C89.4003 352.9 91.6003 350.7 92.9003 347.9C94.2003 345 94.4003 341.9 93.4003 339C92.4003 336.2 90.5003 334 87.9003 332.8C82.5003 330.3 75.9003 333.1 73.3003 339Z" fill="#000073"/>
<path d="M83.722 336.617C85.9238 331.733 84.0762 326.136 79.5954 324.116C75.1146 322.096 69.6973 324.417 67.4955 329.301C65.2937 334.184 67.1412 339.781 71.622 341.801C76.1028 343.821 81.5202 341.5 83.722 336.617Z" fill="#4A4A9E"/>
<g opacity="0.3">
<path d="M71.6 341.8C76.1 343.8 81.5 341.5 83.7 336.6C84 335.8 84.3 335.1 84.4 334.3C81.8 337.7 77.3 339.1 73.6 337.4C69.8 335.7 67.9 331.4 68.7 327.2C68.2 327.8 67.8 328.5 67.5 329.3C65.3 334.2 67.1 339.8 71.6 341.8Z" fill="#000073"/>
</g>
<g opacity="0.55">
<path d="M70.7002 325.3C72.7002 324.6 74.9002 324.6 76.9002 325.6C81.4002 327.6 83.2002 333.2 81.0002 338.1C80.3002 339.8 79.1002 341.1 77.8002 342.1C80.3002 341.3 82.5002 339.4 83.7002 336.7C85.9002 331.8 84.1002 326.2 79.6002 324.2C76.6002 322.8 73.2002 323.4 70.7002 325.3Z" fill="white"/>
</g>
<path d="M74.9999 343.9C73.6999 343.9 72.2999 343.6 70.9999 343.1C68.4999 342 66.5999 339.8 65.6999 337.1C64.7999 334.4 64.9999 331.4 66.1999 328.8C67.3999 326.1 69.4999 324 72.0999 322.9C74.7999 321.8 77.5999 321.8 80.0999 322.9C82.5999 324 84.4999 326.2 85.3999 328.9C86.2999 331.6 86.0999 334.6 84.8999 337.2C83.0999 341.4 79.0999 343.9 74.9999 343.9ZM76.1999 324.8C75.1999 324.8 74.1999 325 73.2999 325.4C71.2999 326.2 69.7999 327.8 68.7999 329.9C67.8999 331.9 67.6999 334.2 68.3999 336.2C69.0999 338.2 70.3999 339.7 72.1999 340.5C75.9999 342.2 80.4999 340.2 82.3999 336C83.2999 334 83.4999 331.7 82.7999 329.7C82.0999 327.7 80.7999 326.2 78.9999 325.4C78.0999 325 77.0999 324.8 76.1999 324.8Z" fill="#000073"/>
<path d="M72.4004 336.4C73.7004 336.5 74.8004 336.2 75.7004 335.7C76.6004 335.1 77.2004 334.3 77.7004 333.4C78.1004 332.5 78.3004 331.4 78.1004 330.4C77.9004 329.4 77.4004 328.3 76.5004 327.4C77.8004 327.5 79.0004 328.6 79.6004 329.9C80.2004 331.2 80.1004 332.8 79.5004 334.1C78.9004 335.4 77.8004 336.5 76.4004 337C74.9004 337.5 73.3004 337.3 72.4004 336.4Z" fill="#000073"/>
<path d="M80.9 346.3C80.1 346.3 79.2 346.1 78.4 345.8C77.2 345.2 76.2 344.3 75.5 343.1L78 341.8C78.4 342.5 78.9 343 79.6 343.3C81.4 344.1 83.7 343.1 84.6 341C85.4 339.2 85 337.1 83.5 336.1L85.2 333.8C87.7 335.6 88.6 339.2 87.2 342.2C86 344.7 83.5 346.3 80.9 346.3Z" fill="#000073"/>
<path d="M104.001 282.7L100.301 281.5L101.901 276.8C102.501 275.1 101.701 273.3 100.001 272.6L85.4006 265.8C84.4006 265.4 83.3006 265.6 82.6006 266.3L79.4006 269.5L76.6006 266.7L79.8006 263.5C81.7006 261.6 84.6006 261.1 87.1006 262.2L101.601 269C105.101 270.5 106.801 274.4 105.601 278L104.001 282.7Z" fill="#000073"/>
<path d="M98.2002 277.3L96.2002 275.6C97.1002 274.5 97.6002 273.4 97.5002 272.4C97.4002 271 96.2002 270 96.2002 270L97.8002 267.9C97.9002 268 99.8002 269.5 100.1 272C100.2 273.9 99.6002 275.6 98.2002 277.3Z" fill="#000073"/>
<path d="M209.4 328.8L205.5 328.4L206 323.6C206.1 322.3 205.5 321.1 204.4 320.5L188.3 311.8C187.2 311.2 185.9 311.3 184.9 312L180 315.6L177.7 312.4L182.6 308.8C184.8 307.2 187.8 307 190.2 308.3L206.3 317C208.8 318.4 210.3 321.1 210 324L209.4 328.8Z" fill="#000073"/>
<path d="M203.401 325.3L200.901 324.7L201.801 321.2C202.201 319.7 201.501 318.1 200.101 317.3L201.301 315C203.701 316.3 205.001 319.1 204.301 321.8L203.401 325.3Z" fill="#000073"/>
<g opacity="0.3">
<path d="M46.9002 313.2L52.1002 315.4L50.4002 318.3L47.3002 323.7L47.4002 324.1L50.3002 325.3L59.6002 329.2L64.6002 320.6L73.0002 324.1L78.7002 314.2L80.3002 311.4L75.1002 309.2L71.9002 307.9L75.2002 302.1L76.9002 299.3L64.4002 294.1L59.5002 302.7L51.0002 299.1L43.7002 311.9L46.9002 313.2Z" fill="#000073"/>
</g>
<path d="M50.3006 299.8L55.5006 302L53.8006 304.8L50.7006 310.3L50.8006 310.7L53.7006 311.9L63.0006 315.8L67.9006 307.2L76.4006 310.7L82.0006 300.8L83.7006 297.9L78.5006 295.8L75.3006 294.4L78.6006 288.7L80.3006 285.8L67.8006 280.6L62.8006 289.2L54.4006 285.7L47.1006 298.4L50.3006 299.8Z" fill="#3D3D93"/>
<g opacity="0.55">
<path d="M67.8004 280.6L66.4004 283.1L78.1004 288L76.5004 290.9L73.2004 296.6L76.4004 298L81.6004 300.1L79.9004 303L75.7004 310.4L76.4004 310.7L82.0004 300.8L83.7004 297.9L78.5004 295.8L75.3004 294.4L78.6004 288.7L80.2004 285.8L67.8004 280.6Z" fill="white"/>
</g>
<g opacity="0.55">
<path d="M53 288.2L60.7 291.4L62.2 288.9L54.4 285.7L53 288.2Z" fill="white"/>
</g>
<path d="M75.2998 294.4L80.0998 296.4L82.7998 292.1L80.2998 285.8L78.5998 288.7L75.2998 294.4Z" fill="#3D3D93"/>
<path d="M50.7998 310.7L52.6998 317.6L65.0998 322.8L70.0998 314.2L78.4998 317.7L85.8998 305L83.6998 297.9L81.9998 300.8L76.3998 310.7L67.8998 307.2L62.9998 315.8L53.6998 311.9L50.7998 310.7Z" fill="#3D3D93"/>
<path d="M47.1006 298.4L48.5006 304.3L53.0006 306.3L55.5006 302L50.3006 299.8L47.1006 298.4Z" fill="#3D3D93"/>
<path d="M63.0001 317.2C62.8001 317.2 62.6001 317.2 62.5001 317.1L50.3001 312C49.9001 311.8 49.6001 311.5 49.5001 311.1L49.4001 310.7C49.3001 310.3 49.3001 309.9 49.5001 309.6L53.5001 302.7L46.6001 299.8C46.2001 299.6 45.9001 299.3 45.8001 298.9C45.7001 298.5 45.7001 298.1 45.9001 297.7L53.2001 285C53.6001 284.4 54.3001 284.1 55.0001 284.4L62.3001 287.4L66.6001 279.9C67.0001 279.3 67.7001 279 68.4001 279.3L80.9001 284.5C81.3001 284.7 81.6001 285 81.7001 285.4C81.8001 285.8 81.8001 286.2 81.6001 286.6L77.4001 293.8L84.3001 296.7C84.7001 296.9 85.0001 297.2 85.1001 297.6C85.2001 298 85.2001 298.4 85.0001 298.8L77.7001 311.5C77.3001 312.1 76.6001 312.4 75.9001 312.1L68.6001 309.1L64.3001 316.6C63.9001 316.9 63.5001 317.2 63.0001 317.2ZM52.6001 309.9L62.4001 314L66.7001 306.5C67.1001 305.9 67.8001 305.6 68.5001 305.9L75.8001 308.9L81.7001 298.6L74.8001 295.7C74.4001 295.5 74.1001 295.2 74.0001 294.8C73.9001 294.4 73.9001 294 74.1001 293.6L78.3001 286.4L68.5001 282.3L64.2001 289.8C63.8001 290.4 63.1001 290.7 62.4001 290.4L55.1001 287.4L49.2001 297.7L50.9001 298.4L56.1001 300.6C56.5001 300.8 56.8001 301.1 56.9001 301.5C57.0001 301.9 57.0001 302.3 56.8001 302.7L52.6001 309.9Z" fill="#000073"/>
<path d="M80.1003 297.9C79.9003 297.9 79.7003 297.9 79.6003 297.8L74.8003 295.8C74.4003 295.6 74.1003 295.3 74.0003 294.9C73.9003 294.5 73.9003 294.1 74.1003 293.7L79.1003 285.1C79.4003 284.6 79.9003 284.4 80.4003 284.4C80.9003 284.4 81.4003 284.8 81.6003 285.3L84.1003 291.5C84.3003 291.9 84.2003 292.4 84.0003 292.8L81.3003 297.2C81.1003 297.6 80.6003 297.9 80.1003 297.9ZM77.3003 293.7L79.5003 294.6L81.2003 291.9L80.0003 289L77.3003 293.7Z" fill="#000073"/>
<path d="M65.1003 324.2C64.9003 324.2 64.7003 324.2 64.6003 324.1L52.1003 318.9C51.7003 318.7 51.4003 318.4 51.3003 318L49.4003 311.1C49.3003 310.6 49.4003 310 49.8003 309.7C50.2003 309.3 50.8003 309.2 51.3003 309.5L62.3003 314.1L66.6003 306.6C67.0003 306 67.7003 305.7 68.4003 306L75.7003 309L82.4003 297.3C82.7003 296.8 83.2003 296.5 83.8003 296.6C84.4003 296.7 84.8003 297.1 85.0003 297.6L87.2003 304.6C87.3003 305 87.3003 305.4 87.1003 305.7L79.8003 318.4C79.4003 319 78.7003 319.3 78.0003 319L70.7003 316L66.4003 323.5C66.1003 323.9 65.6003 324.2 65.1003 324.2ZM53.9003 316.5L64.6003 321L68.9003 313.5C69.3003 312.9 70.0003 312.6 70.7003 312.9L78.0003 315.9L84.4003 304.8L83.4003 301.5V301.6L77.7003 311.5C77.3003 312.1 76.6003 312.4 75.9003 312.1L68.6003 309.1L64.3003 316.6C63.9003 317.2 63.2003 317.5 62.5003 317.2L53.0003 313.2L53.9003 316.5Z" fill="#000073"/>
<path d="M53.0003 307.7C52.8003 307.7 52.6003 307.7 52.4003 307.6L47.9003 305.6C47.5003 305.4 47.2003 305.1 47.1003 304.6L45.7003 298.8C45.6003 298.3 45.8003 297.7 46.2003 297.4C46.6003 297.1 47.2003 297 47.7003 297.2L56.1003 300.7C56.5003 300.9 56.8003 301.2 56.9003 301.6C57.0003 302 57.0003 302.4 56.8003 302.8L54.3003 307.1C53.9003 307.5 53.5003 307.7 53.0003 307.7ZM49.7003 303.3L52.4003 304.5L53.5003 302.7L49.2003 300.9L49.7003 303.3Z" fill="#000073"/>
<g opacity="0.3">
<path d="M78.5004 317.7L76.2004 310.9L67.9004 307.2L70.1004 315L78.7004 317.9" fill="#000073"/>
</g>
<g opacity="0.3">
<path d="M62.9998 315.8L64.5998 322.6L52.0998 317.2L50.7998 310.7L62.9998 315.8Z" fill="#000073"/>
</g>
<g opacity="0.15">
<path d="M33.0003 325.6L28.4003 323.2C26.7003 322.4 24.8003 322.6 23.3003 323.8C19.3003 327.2 15.7003 331.6 12.3003 336.5C11.2003 338 11.7003 340.2 13.3003 341.1L20.3003 345.2C21.5003 345.9 23.0003 345.7 23.9003 344.6L34.4003 332.8C36.5003 330.7 35.8003 327.1 33.0003 325.6Z" fill="white"/>
</g>
<g opacity="0.15">
<path d="M173.201 394.9L177.401 397.9C178.901 399 179.601 400.9 179.201 402.7C178.001 407.8 175.701 413 172.801 418.3C171.901 419.9 169.801 420.5 168.201 419.5L161.301 415.2C160.101 414.5 159.701 413 160.201 411.7L165.901 397C167.001 394.1 170.601 393.1 173.201 394.9Z" fill="white"/>
</g>
<path d="M141.1 301.3L137.3 297.7L139.2 299.5L137.3 297.7C137.3 297.7 141.2 293.1 142.2 278.8C143.4 262.6 152.4 256.8 153.6 256.1C161.5 250.9 168.9 244.8 173.8 240.7C177.6 237.5 180.7 233.9 183.3 230C186.9 224.4 191.9 220.9 196.2 218.7C188.1 213.8 179.3 212 173.3 211.4C163.6 210.4 154.6 208.3 146.6 205.2C121.4 195.6 102.8 178.9 91.3998 155.7L91.2998 155.3C86.2998 139.6 85.6998 124.6 89.5998 111.9C93.0998 100.5 100.2 91.1001 109.7 85.4001C126.9 75.1001 148.5 78.5001 163.4 93.9001C164.9 95.4001 166.3 96.6001 167.8 97.6001C176.3 103.2 184.2 104.1 192.1 100.4C195.6 98.7001 198.8 96.1001 201.4 92.9001C216.1 74.2001 236.5 66.3001 254.5 72.2001C273 78.3001 284.7 97.2001 285.7 122.8C286.9 155.7 269.8 187.3 241.1 205.4C230.9 211.8 219.4 216.9 207.2 220.4C210 223.1 212.5 226.3 214.7 230.2C215.3 231.2 225.7 247.5 252.8 241.6C257.7 240.5 262.5 240.3 267 240.8C276.5 241.9 292.6 247.4 294.3 271L289.1 271.4C287.7 252.5 276 247.2 266.4 246C262.5 245.5 258.3 245.8 254 246.7C249.5 247.7 245.3 248.1 241.6 248.1C219.6 248.1 210.7 233.5 210.3 232.8C207.9 228.4 204.8 225 201.5 222.2C197.4 223.8 191.7 227 188 232.8C185.2 237.1 181.7 241 177.6 244.6C172.6 248.9 165 255.1 156.9 260.5L156.7 260.6C156.4 260.8 148.9 265.2 147.9 279.2C146.2 295.5 141.7 300.7 141.1 301.3ZM96.0998 153.7C106.9 175.6 124.5 191.3 148.4 200.4C156.1 203.3 164.6 205.3 173.8 206.3C181.1 207.1 192.3 209.4 202 216.4C203.6 215.9 204.8 215.7 205.2 215.6C217.1 212.2 228.2 207.3 238.1 201.1C265.3 184 281.5 154.2 280.3 123.1C279.4 99.8001 269.1 82.6001 252.7 77.3001C236.8 72.1001 218.6 79.4001 205.3 96.3001C202.2 100.2 198.4 103.3 194.2 105.3C184.6 109.9 174.7 108.8 164.8 102.2C163 101 161.3 99.6001 159.6 97.8001C146.2 84.0001 127.6 81.0001 112.3 90.2001C97.4998 98.9001 85.4998 120.3 96.0998 153.7Z" fill="#000073"/>
<path d="M303.9 232.9L303.4 231.6L302.4 230.6H302.5H302.4L303 230.2L303.4 231.5L304.5 232.6H304.4L303.9 232.9Z" fill="#000073"/>
<path d="M303 232.9L302.5 232.6L303.4 231.6L303.9 230.2L304.4 230.6V230.5V230.6H304.5L303.5 231.6L303 232.9Z" fill="#000073"/>
<path d="M171.101 175.7C55.7008 173.6 55.7008 2.1 171.101 0C286.601 2.1 286.501 173.6 171.101 175.7Z" fill="#FFA519"/>
<path opacity="0.87" d="M242.701 87.8C241.101 181.9 101.101 181.9 99.501 87.8C101.101 -6.30003 241.101 -6.30003 242.701 87.8Z" fill="#FFE146"/>
<path opacity="0.8" d="M198.501 74.2H204.601C208.801 74.2 212.101 70.8 212.101 66.7V46.8H192.301C188.101 46.8 184.801 50.2 184.801 54.3V60.4001C184.801 67.9001 178.701 74.1 171.101 74.1C163.501 74.1 157.401 68.0001 157.401 60.4001V54C157.401 50 154.201 46.8 150.201 46.8H130.101V128.8H150.001C154.101 128.8 157.401 125.5 157.401 121.4V115.1C157.401 107.6 163.501 101.4 171.101 101.4C178.601 101.4 184.801 107.5 184.801 115.1V121.3C184.801 125.4 188.101 128.8 192.301 128.8H212.201V108.9C212.201 104.8 208.901 101.4 204.701 101.4H198.501C191.001 101.4 184.801 95.3 184.801 87.7C184.801 80.3 190.901 74.2 198.501 74.2Z" fill="#FFA519"/>
<path opacity="0.65" d="M133.2 20.2999C142.4 13.9999 153 10.1999 164.1 9.49991C167.6 9.29991 167.7 3.69991 164.1 3.99991C152 4.79991 140.3 8.69991 130.4 15.4999C127.5 17.4999 130.2 22.3999 133.2 20.2999Z" fill="#FFCD80"/>
<path opacity="0.65" d="M186.501 7.39995C186.401 6.69995 186.001 6.09995 185.101 5.79995C182.101 4.49995 178.801 3.69995 175.501 3.49995C172.001 3.29995 171.901 8.79995 175.501 8.99995C177.801 9.19995 187.501 13.4 186.501 7.39995Z" fill="#FFCD80"/>
<path opacity="0.77" d="M114.7 55.6C107.8 65.3 104.1 77 103.9 88.8C103.8 93.5 111.1 93.5 111.2 88.8C111.4 78.1 114.9 67.9 121 59.2C123.6 55.5 117.4 51.7 114.7 55.6Z" fill="#FFFBE7"/>
<path opacity="0.77" d="M113.7 105.2C113.2 103.4 112.1 101.5 111.7 99.9001C110.7 95.5001 103.7 97.3001 104.7 101.8C105.3 104.2 106.2 106.6 107.3 108.8C109.4 113.3 114.8 109.2 113.7 105.2Z" fill="#FFFBE7"/>
</g>
<defs>
<clipPath id="clip0_589_6035">
<rect width="416.4" height="448" fill="white"/>
</clipPath>
</defs>
</svg>
