<svg width="1440" height="451" viewBox="0 0 1440 451" fill="none" xmlns="http://www.w3.org/2000/svg">
<rect width="1440" height="451" fill="url(#paint0_linear_660_797)"/>
<g clip-path="url(#clip0_660_797)">
<g opacity="0.26">
<path d="M579.811 57.1963C584.211 50.7963 594.011 44.4963 601.711 43.2963L621.111 40.1963C628.811 38.9963 637.811 43.6963 641.111 50.6963L649.511 68.2963C652.811 75.2963 653.311 86.9963 650.611 94.1963L643.811 112.196C641.111 119.496 632.511 124.896 624.811 124.396L605.211 122.896C597.511 122.296 587.111 116.896 582.211 110.896L569.911 95.7963C565.011 89.7963 564.611 79.5963 568.911 73.1963L579.811 57.1963Z" fill="url(#paint1_radial_660_797)"/>
<path d="M648.511 94.1962C651.211 86.8962 650.711 75.2963 647.411 68.2963L640.911 54.7963C637.611 47.7963 631.911 47.6963 628.411 54.5963L620.411 70.0963C616.811 76.9963 617.311 87.9963 621.411 94.5963L630.811 109.496C634.911 116.096 640.511 115.496 643.311 108.196L648.511 94.1962Z" fill="url(#paint2_radial_660_797)"/>
<path d="M625.212 52.7964C628.812 45.8964 625.412 41.2964 617.812 42.4964L602.712 44.8964C595.012 46.0964 585.212 52.3964 580.912 58.7964L572.512 71.0964C568.112 77.4964 570.912 82.4964 578.712 82.1964L596.712 81.3964C604.412 81.0964 613.712 75.1964 617.312 68.2964L625.212 52.7964Z" fill="url(#paint3_radial_660_797)"/>
<path d="M618.411 96.3962C614.311 89.7962 604.511 84.6962 596.811 85.0962L578.811 85.8962C571.111 86.1962 568.711 91.3962 573.611 97.3962L583.111 109.096C588.011 115.096 598.311 120.496 606.111 121.096L621.311 122.196C629.011 122.796 632.011 117.896 627.811 111.296L618.411 96.3962Z" fill="url(#paint4_radial_660_797)"/>
<path d="M585.711 69.8961C587.111 67.8961 586.511 66.2961 584.511 66.2961C582.611 66.2961 579.911 67.7962 578.511 69.5962C577.011 71.5962 577.311 73.2962 579.311 73.4962C581.311 73.5962 584.211 71.9961 585.711 69.8961Z" fill="url(#paint5_linear_660_797)"/>
<path d="M585.312 68.5963C585.612 68.1963 585.512 67.8962 585.012 67.8962C584.612 67.8962 584.012 68.1963 583.712 68.5963C583.412 68.9963 583.512 69.2962 583.912 69.3962C584.512 69.2962 585.012 68.9963 585.312 68.5963Z" fill="white"/>
<path d="M605.811 70.5963C606.911 68.1963 605.611 66.3962 602.911 66.3962C600.311 66.3962 597.311 68.0962 596.111 70.2962C594.811 72.5962 595.811 74.6962 598.511 74.8962C601.311 74.9962 604.711 73.0963 605.811 70.5963Z" fill="url(#paint6_linear_660_797)"/>
<path d="M605.012 69.1961C605.212 68.6961 605.012 68.2961 604.412 68.2961C603.812 68.2961 603.212 68.6962 603.012 69.0962C602.812 69.5962 603.012 69.9962 603.612 69.9962C604.112 69.9962 604.712 69.5961 605.012 69.1961Z" fill="white"/>
<path d="M592.911 59.1962C594.011 57.5962 593.311 56.3963 591.411 56.5963C589.611 56.6963 587.211 57.9963 586.011 59.5963C584.811 61.1963 585.311 62.4963 587.211 62.3963C589.211 62.2963 591.811 60.8962 592.911 59.1962Z" fill="url(#paint7_linear_660_797)"/>
<path d="M592.511 58.2962C592.711 57.9962 592.611 57.6962 592.211 57.7962C591.811 57.7962 591.311 58.0962 591.111 58.3962C590.911 58.6962 591.011 58.9962 591.411 58.9962C591.711 58.8962 592.211 58.5962 592.511 58.2962Z" fill="white"/>
<path d="M611.711 58.2962C612.611 56.4962 611.211 55.1962 608.711 55.2962C606.311 55.4962 603.711 56.8962 602.711 58.6962C601.711 60.4962 602.811 61.9962 605.311 61.8962C607.911 61.8962 610.811 60.1962 611.711 58.2962Z" fill="url(#paint8_linear_660_797)"/>
<path d="M610.811 57.2963C611.011 56.8963 610.711 56.6963 610.211 56.6963C609.711 56.6963 609.111 56.9963 608.911 57.3963C608.711 57.7963 609.011 57.9963 609.511 57.9963C610.111 57.9963 610.611 57.6963 610.811 57.2963Z" fill="white"/>
<path d="M598.811 50.5962C599.711 49.2962 598.911 48.3962 597.111 48.5962C595.311 48.7962 593.211 49.9962 592.211 51.2962C591.211 52.5962 591.811 53.5962 593.611 53.3962C595.511 53.1962 597.911 51.8962 598.811 50.5962Z" fill="url(#paint9_linear_660_797)"/>
<path d="M598.311 49.8961C598.511 49.5961 598.311 49.4961 597.911 49.4961C597.511 49.4961 597.111 49.7961 596.911 50.0961C596.711 50.3961 596.911 50.5961 597.211 50.4961C597.611 50.3961 598.111 50.0961 598.311 49.8961Z" fill="white"/>
<path d="M616.412 48.5962C617.112 47.0962 615.712 46.1962 613.412 46.4962C611.212 46.7962 608.812 48.0962 608.012 49.4962C607.212 50.9962 608.312 51.9962 610.612 51.7962C613.012 51.5962 615.612 50.1962 616.412 48.5962Z" fill="url(#paint10_linear_660_797)"/>
<path d="M615.512 47.8962C615.612 47.5962 615.412 47.3962 614.912 47.4962C614.412 47.5962 613.912 47.7962 613.812 48.0962C613.612 48.3962 613.912 48.5962 614.412 48.4962C614.812 48.4962 615.312 48.1962 615.512 47.8962Z" fill="white"/>
<path d="M640.011 95.3965C638.811 93.8965 637.111 94.2965 636.211 96.3965C635.311 98.5965 635.711 101.596 637.011 103.196C638.311 104.696 640.011 104.096 640.711 101.896C641.611 99.6965 641.211 96.8965 640.011 95.3965Z" fill="url(#paint11_linear_660_797)"/>
<path d="M638.911 95.5966C638.611 95.2966 638.311 95.3965 638.111 95.7965C637.911 96.1965 638.011 96.7965 638.311 97.1965C638.611 97.4965 638.911 97.3966 639.111 96.9966C639.211 96.4966 639.111 95.8966 638.911 95.5966Z" fill="white"/>
<path d="M646.911 77.6964C645.911 76.1964 644.611 76.0964 643.911 77.7964C643.211 79.4964 643.511 82.0964 644.611 83.6964C645.611 85.1964 647.011 84.9964 647.611 83.3964C648.211 81.6964 647.911 79.1964 646.911 77.6964Z" fill="url(#paint12_linear_660_797)"/>
<path d="M646.011 77.5963C645.811 77.2963 645.511 77.2963 645.411 77.5963C645.311 77.8963 645.311 78.4963 645.511 78.7963C645.711 79.0963 646.011 79.0963 646.111 78.7963C646.211 78.4963 646.211 77.9963 646.011 77.5963Z" fill="white"/>
<path d="M638.011 77.8964C636.811 76.1964 635.011 76.0964 634.111 77.9964C633.211 79.8964 633.511 82.8964 634.911 84.6964C636.211 86.3964 637.911 86.1964 638.711 84.2964C639.511 82.3964 639.211 79.5964 638.011 77.8964Z" fill="url(#paint13_linear_660_797)"/>
<path d="M636.811 77.7963C636.511 77.3963 636.211 77.3963 636.011 77.7963C635.811 78.1963 635.911 78.7964 636.211 79.0964C636.511 79.4964 636.811 79.3964 637.011 79.0964C637.111 78.7964 637.111 78.1963 636.811 77.7963Z" fill="white"/>
<path d="M636.011 60.5964C634.711 58.5964 633.011 58.2964 632.111 59.7964C631.211 61.3964 631.511 64.3964 632.911 66.3964C634.211 68.2964 636.011 68.4964 636.811 66.8964C637.511 65.2964 637.211 62.4964 636.011 60.5964Z" fill="url(#paint14_linear_660_797)"/>
<path d="M634.811 60.2963C634.511 59.8963 634.211 59.7963 634.011 60.0963C633.811 60.3963 633.911 60.9963 634.211 61.3963C634.511 61.7963 634.811 61.8963 635.011 61.4963C635.111 61.2963 635.011 60.6963 634.811 60.2963Z" fill="white"/>
<path d="M626.411 78.0964C624.811 76.0964 622.511 76.0964 621.311 78.1964C620.011 80.3964 620.411 83.8964 622.211 85.8964C623.911 87.8964 626.211 87.5964 627.311 85.3964C628.311 83.2964 628.011 80.0964 626.411 78.0964Z" fill="url(#paint15_linear_660_797)"/>
<path d="M624.811 78.0964C624.511 77.6964 624.011 77.6964 623.811 78.0964C623.611 78.4964 623.611 79.1964 624.011 79.5964C624.311 79.9964 624.811 79.9964 625.011 79.5964C625.211 79.1964 625.211 78.4964 624.811 78.0964Z" fill="white"/>
<path d="M617.811 111.196C616.511 108.796 613.211 107.096 610.511 107.496C607.911 107.896 606.911 110.096 608.311 112.396C609.611 114.696 612.711 116.296 615.311 115.996C617.911 115.696 619.111 113.496 617.811 111.196Z" fill="url(#paint16_linear_660_797)"/>
<path d="M615.511 109.896C615.211 109.396 614.611 109.096 614.011 109.096C613.411 109.196 613.211 109.596 613.511 110.096C613.811 110.596 614.411 110.896 615.011 110.896C615.511 110.796 615.711 110.396 615.511 109.896Z" fill="white"/>
<path d="M587.811 95.7962C586.311 93.2962 583.111 91.6962 580.911 92.2962C578.711 92.7962 578.211 95.1962 579.811 97.5962C581.311 99.8962 584.311 101.496 586.511 101.096C588.611 100.496 589.311 98.1962 587.811 95.7962Z" fill="url(#paint17_linear_660_797)"/>
<path d="M585.511 94.5961C585.211 94.0961 584.511 93.7961 584.111 93.8961C583.611 93.9961 583.511 94.4961 583.811 94.9961C584.111 95.4961 584.711 95.7961 585.211 95.6961C585.711 95.5961 585.911 95.0961 585.511 94.5961Z" fill="white"/>
</g>
<g opacity="0.26">
<path d="M826.911 124.996C834.511 123.496 845.911 125.996 852.211 130.496L868.211 141.896C874.511 146.396 877.611 156.096 875.011 163.396L868.611 181.796C866.011 189.096 858.211 197.796 851.211 200.996L833.711 208.996C826.711 212.196 816.711 210.096 811.611 204.296L798.711 189.496C793.611 183.696 790.111 172.596 790.811 164.796L792.711 145.396C793.511 137.696 800.311 130.096 807.911 128.696L826.911 124.996Z" fill="url(#paint18_radial_660_797)"/>
<path d="M849.711 199.696C856.711 196.496 864.611 187.796 867.111 180.496L872.011 166.296C874.611 158.996 870.611 154.896 863.211 157.296L846.611 162.696C839.211 165.096 831.811 173.196 830.111 180.796L826.311 197.996C824.611 205.596 829.011 209.096 836.111 205.896L849.711 199.696Z" fill="url(#paint19_radial_660_797)"/>
<path d="M862.311 153.896C869.711 151.496 870.511 145.896 864.211 141.396L851.811 132.496C845.511 127.996 834.111 125.496 826.511 126.996L811.911 129.896C804.311 131.396 802.811 136.896 808.511 142.096L821.811 154.196C827.511 159.396 838.311 161.696 845.711 159.296L862.311 153.896Z" fill="url(#paint20_radial_660_797)"/>
<path d="M826.711 180.096C828.411 172.496 825.011 162.096 819.311 156.896L806.011 144.696C800.311 139.496 794.911 141.496 794.211 149.296L792.711 164.296C791.911 171.996 795.511 183.096 800.611 188.996L810.611 200.496C815.711 206.296 821.211 204.896 822.911 197.396L826.711 180.096Z" fill="url(#paint21_radial_660_797)"/>
<path d="M860.811 147.496C862.911 146.696 862.611 144.796 860.711 143.296C859.011 141.996 856.211 141.196 854.211 141.396C851.911 141.696 850.911 143.296 852.511 145.096C854.411 147.396 858.411 148.496 860.811 147.496Z" fill="url(#paint22_linear_660_797)"/>
<path d="M860.911 145.996C861.311 145.896 861.311 145.496 860.911 145.096C860.511 144.796 859.811 144.596 859.411 144.696C859.011 144.796 858.911 145.196 859.411 145.596C859.811 145.896 860.511 146.096 860.911 145.996Z" fill="white"/>
<path d="M840.511 142.996C842.611 142.196 842.311 140.296 840.411 138.796C838.711 137.496 835.911 136.696 833.811 136.896C831.511 137.196 830.511 138.796 832.111 140.596C834.111 142.796 838.111 143.896 840.511 142.996Z" fill="url(#paint23_linear_660_797)"/>
<path d="M840.611 141.496C841.011 141.396 841.011 140.996 840.611 140.596C840.211 140.296 839.511 140.096 839.111 140.196C838.711 140.296 838.611 140.696 839.111 141.096C839.411 141.396 840.111 141.596 840.611 141.496Z" fill="white"/>
<path d="M820.011 138.696C822.111 137.896 821.811 135.996 819.911 134.496C818.211 133.196 815.411 132.396 813.411 132.596C811.111 132.896 810.111 134.496 811.711 136.296C813.611 138.496 817.611 139.596 820.011 138.696Z" fill="url(#paint24_linear_660_797)"/>
<path d="M820.011 137.196C820.411 137.096 820.411 136.696 820.011 136.296C819.611 135.996 818.911 135.796 818.511 135.896C818.111 135.996 818.011 136.396 818.511 136.796C818.911 137.096 819.611 137.296 820.011 137.196Z" fill="white"/>
<path d="M855.311 180.496C855.911 177.896 854.611 176.096 852.111 176.696C849.411 177.396 846.711 180.796 846.511 183.796C846.311 186.496 848.311 187.496 850.611 186.396C852.811 185.396 854.811 182.896 855.311 180.496Z" fill="url(#paint25_linear_660_797)"/>
<path d="M854.511 179.396C854.611 178.796 854.311 178.496 853.911 178.696C853.411 178.896 853.011 179.396 852.911 179.996C852.811 180.596 853.111 180.896 853.611 180.696C854.011 180.496 854.411 179.896 854.511 179.396Z" fill="white"/>
<path d="M816.212 191.396C817.012 189.196 816.011 185.796 814.011 183.896C812.111 181.996 809.912 182.196 809.212 184.396C808.512 186.596 809.512 189.796 811.412 191.796C813.312 193.696 815.512 193.596 816.212 191.396Z" fill="url(#paint26_linear_660_797)"/>
<path d="M815.612 188.996C815.812 188.496 815.612 187.896 815.212 187.496C814.812 187.096 814.412 187.096 814.212 187.596C814.112 188.096 814.312 188.696 814.612 189.096C815.012 189.496 815.412 189.496 815.612 188.996Z" fill="white"/>
<path d="M802.011 177.096C802.611 174.896 801.711 171.596 799.911 169.896C798.111 168.196 796.311 168.596 795.711 170.796C795.111 172.996 796.111 176.096 797.811 177.896C799.511 179.596 801.411 179.296 802.011 177.096Z" fill="url(#paint27_linear_660_797)"/>
<path d="M801.412 174.796C801.512 174.296 801.311 173.696 801.011 173.296C800.611 172.896 800.211 172.996 800.111 173.496C800.011 173.996 800.211 174.596 800.511 174.996C800.811 175.296 801.212 175.196 801.412 174.796Z" fill="white"/>
<path d="M806.911 159.496C807.611 156.996 806.611 153.596 804.711 151.796C802.811 150.096 800.811 150.696 800.111 153.096C799.511 155.496 800.511 158.896 802.311 160.596C804.211 162.396 806.211 161.996 806.911 159.496Z" fill="url(#paint28_linear_660_797)"/>
<path d="M806.312 156.996C806.412 156.496 806.212 155.796 805.812 155.396C805.412 154.996 805.012 155.196 804.812 155.696C804.712 156.196 804.912 156.896 805.312 157.296C805.712 157.696 806.112 157.596 806.312 156.996Z" fill="white"/>
<path d="M822.312 173.796C823.212 171.296 822.112 167.696 820.012 165.696C817.912 163.796 815.612 164.296 814.812 166.796C814.012 169.196 815.012 172.697 817.112 174.597C819.112 176.597 821.412 176.296 822.312 173.796Z" fill="url(#paint29_linear_660_797)"/>
<path d="M821.612 171.296C821.812 170.796 821.612 169.996 821.112 169.596C820.712 169.196 820.212 169.296 820.012 169.796C819.812 170.296 820.012 170.996 820.512 171.396C821.012 171.896 821.412 171.796 821.612 171.296Z" fill="white"/>
</g>
<g opacity="0.26">
<path d="M332.911 -54.0036C340.511 -55.5036 351.911 -53.0036 358.211 -48.5036L374.211 -37.1036C380.511 -32.6036 383.611 -22.9036 381.011 -15.6036L374.611 2.79638C372.011 10.0964 364.211 18.7964 357.211 21.9964L339.711 29.9964C332.711 33.1964 322.711 31.0964 317.611 25.2964L304.711 10.4964C299.611 4.69638 296.111 -6.40362 296.811 -14.2036L298.711 -33.6036C299.511 -41.3036 306.311 -48.9036 313.911 -50.3036L332.911 -54.0036Z" fill="url(#paint30_radial_660_797)"/>
<path d="M355.711 20.6964C362.711 17.4964 370.611 8.79638 373.111 1.49638L378.011 -12.7036C380.611 -20.0036 376.611 -24.1036 369.211 -21.7036L352.611 -16.3036C345.211 -13.9036 337.811 -5.80363 336.111 1.79637L332.311 18.9964C330.611 26.5964 335.011 30.0964 342.111 26.8964L355.711 20.6964Z" fill="url(#paint31_radial_660_797)"/>
<path d="M332.711 1.09639C334.411 -6.50361 331.011 -16.9036 325.311 -22.1036L312.011 -34.3036C306.311 -39.5036 300.911 -37.5036 300.211 -29.7036L298.711 -14.7036C297.911 -7.00362 301.511 4.0964 306.611 9.9964L316.611 21.4964C321.711 27.2964 327.211 25.8964 328.911 18.3964L332.711 1.09639Z" fill="url(#paint32_radial_660_797)"/>
<path d="M361.311 1.49641C361.911 -1.10359 360.611 -2.9036 358.111 -2.3036C355.411 -1.6036 352.711 1.7964 352.511 4.7964C352.311 7.4964 354.311 8.4964 356.611 7.3964C358.811 6.3964 360.811 3.89641 361.311 1.49641Z" fill="url(#paint33_linear_660_797)"/>
<path d="M360.511 0.396467C360.611 -0.203533 360.311 -0.50353 359.911 -0.30353C359.411 -0.10353 359.011 0.396474 358.911 0.996474C358.811 1.59647 359.111 1.89647 359.611 1.69647C360.011 1.49647 360.411 0.896467 360.511 0.396467Z" fill="white"/>
<path d="M322.212 12.3964C323.012 10.1964 322.012 6.79635 320.012 4.89635C318.112 2.99635 315.912 3.19635 315.212 5.39635C314.512 7.59635 315.511 10.7963 317.411 12.7963C319.311 14.6963 321.512 14.5964 322.212 12.3964Z" fill="url(#paint34_linear_660_797)"/>
<path d="M321.612 9.99631C321.812 9.49631 321.612 8.89631 321.212 8.49631C320.812 8.09631 320.412 8.0963 320.212 8.5963C320.112 9.0963 320.312 9.6963 320.612 10.0963C321.012 10.4963 321.412 10.4963 321.612 9.99631Z" fill="white"/>
<path d="M308.011 -1.90354C308.611 -4.10354 307.711 -7.40354 305.911 -9.10354C304.111 -10.8035 302.311 -10.4035 301.711 -8.20354C301.111 -6.00354 302.111 -2.90354 303.811 -1.10354C305.511 0.596462 307.411 0.296458 308.011 -1.90354Z" fill="url(#paint35_linear_660_797)"/>
</g>
<g opacity="0.26">
<path d="M1370.41 122.096C1378.01 120.596 1389.41 123.096 1395.71 127.596L1411.71 138.996C1418.01 143.496 1421.11 153.196 1418.51 160.496L1412.11 178.896C1409.51 186.196 1401.71 194.896 1394.71 198.096L1377.21 206.096C1370.21 209.296 1360.21 207.196 1355.11 201.396L1342.21 186.596C1337.11 180.796 1333.61 169.696 1334.31 161.896L1336.21 142.496C1337.01 134.796 1343.81 127.196 1351.41 125.796L1370.41 122.096Z" fill="url(#paint36_radial_660_797)"/>
<path d="M1393.21 196.696C1400.21 193.496 1408.11 184.796 1410.61 177.496L1415.51 163.296C1418.11 155.996 1414.11 151.896 1406.71 154.296L1390.11 159.696C1382.71 162.096 1375.31 170.196 1373.61 177.796L1369.81 194.996C1368.11 202.596 1372.51 206.096 1379.61 202.896L1393.21 196.696Z" fill="url(#paint37_radial_660_797)"/>
<path d="M1405.81 150.896C1413.21 148.496 1414.01 142.896 1407.71 138.396L1395.31 129.496C1389.01 124.996 1377.61 122.496 1370.01 123.996L1355.41 126.896C1347.81 128.396 1346.31 133.896 1352.01 139.096L1365.31 151.196C1371.01 156.396 1381.81 158.696 1389.21 156.296L1405.81 150.896Z" fill="url(#paint38_radial_660_797)"/>
<path d="M1370.21 177.097C1371.91 169.497 1368.51 159.096 1362.81 153.896L1349.51 141.796C1343.81 136.596 1338.41 138.596 1337.71 146.396L1336.21 161.396C1335.41 169.096 1339.01 180.197 1344.11 186.097L1354.11 197.597C1359.21 203.397 1364.71 201.996 1366.41 194.496L1370.21 177.097Z" fill="url(#paint39_radial_660_797)"/>
<path d="M1404.31 144.596C1406.41 143.796 1406.11 141.896 1404.21 140.396C1402.51 139.096 1399.71 138.296 1397.71 138.496C1395.41 138.796 1394.41 140.396 1396.01 142.196C1397.91 144.396 1401.91 145.496 1404.31 144.596Z" fill="url(#paint40_linear_660_797)"/>
<path d="M1404.41 142.996C1404.81 142.896 1404.81 142.496 1404.41 142.096C1404.01 141.796 1403.31 141.596 1402.91 141.696C1402.51 141.796 1402.41 142.196 1402.91 142.596C1403.31 142.996 1404.01 143.196 1404.41 142.996Z" fill="white"/>
<path d="M1384.01 139.996C1386.11 139.196 1385.81 137.296 1383.91 135.796C1382.21 134.496 1379.41 133.696 1377.31 133.896C1375.01 134.196 1374.01 135.796 1375.61 137.596C1377.61 139.796 1381.61 140.896 1384.01 139.996Z" fill="url(#paint41_linear_660_797)"/>
<path d="M1384.11 138.496C1384.51 138.396 1384.51 137.996 1384.11 137.596C1383.71 137.296 1383.01 137.096 1382.61 137.196C1382.21 137.296 1382.11 137.696 1382.61 138.096C1382.91 138.396 1383.61 138.596 1384.11 138.496Z" fill="white"/>
<path d="M1363.51 135.696C1365.61 134.896 1365.31 132.996 1363.41 131.496C1361.71 130.196 1358.91 129.396 1356.91 129.596C1354.61 129.896 1353.61 131.496 1355.21 133.296C1357.11 135.496 1361.11 136.596 1363.51 135.696Z" fill="url(#paint42_linear_660_797)"/>
<path d="M1363.61 134.196C1364.01 134.096 1364.01 133.696 1363.61 133.296C1363.21 132.996 1362.51 132.796 1362.11 132.896C1361.71 132.996 1361.61 133.396 1362.11 133.796C1362.41 134.096 1363.11 134.296 1363.61 134.196Z" fill="white"/>
<path d="M1398.81 177.496C1399.41 174.896 1398.11 173.096 1395.61 173.696C1392.91 174.396 1390.21 177.796 1390.01 180.796C1389.81 183.496 1391.81 184.496 1394.11 183.396C1396.31 182.396 1398.31 179.896 1398.81 177.496Z" fill="url(#paint43_linear_660_797)"/>
<path d="M1398.01 176.396C1398.11 175.796 1397.81 175.496 1397.41 175.696C1396.91 175.896 1396.51 176.396 1396.41 176.996C1396.31 177.596 1396.61 177.896 1397.11 177.696C1397.51 177.496 1397.91 176.896 1398.01 176.396Z" fill="white"/>
<path d="M1359.71 188.396C1360.51 186.196 1359.51 182.796 1357.51 180.896C1355.61 178.996 1353.41 179.196 1352.71 181.396C1352.01 183.596 1353.01 186.796 1354.91 188.796C1356.81 190.696 1359.01 190.596 1359.71 188.396Z" fill="url(#paint44_linear_660_797)"/>
<path d="M1359.11 185.996C1359.31 185.496 1359.11 184.896 1358.71 184.496C1358.31 184.096 1357.91 184.096 1357.71 184.596C1357.61 185.096 1357.81 185.696 1358.11 186.096C1358.51 186.496 1358.91 186.496 1359.11 185.996Z" fill="white"/>
<path d="M1345.51 174.096C1346.11 171.896 1345.21 168.596 1343.41 166.896C1341.61 165.196 1339.81 165.596 1339.21 167.796C1338.61 169.996 1339.61 173.096 1341.31 174.896C1343.01 176.596 1344.91 176.296 1345.51 174.096Z" fill="url(#paint45_linear_660_797)"/>
<path d="M1344.91 171.796C1345.01 171.296 1344.81 170.696 1344.51 170.296C1344.11 169.896 1343.71 169.996 1343.61 170.496C1343.51 170.996 1343.71 171.596 1344.01 171.996C1344.31 172.296 1344.71 172.196 1344.91 171.796Z" fill="white"/>
<path d="M1350.41 156.496C1351.11 153.996 1350.11 150.596 1348.21 148.796C1346.31 147.096 1344.31 147.696 1343.61 150.096C1343.01 152.496 1344.01 155.896 1345.81 157.596C1347.71 159.496 1349.71 158.996 1350.41 156.496Z" fill="url(#paint46_linear_660_797)"/>
<path d="M1349.81 154.096C1349.91 153.596 1349.71 152.896 1349.31 152.496C1348.91 152.096 1348.51 152.296 1348.31 152.796C1348.21 153.296 1348.41 153.996 1348.81 154.396C1349.21 154.696 1349.61 154.596 1349.81 154.096Z" fill="white"/>
<path d="M1365.81 170.896C1366.71 168.396 1365.61 164.796 1363.51 162.796C1361.41 160.896 1359.11 161.396 1358.31 163.896C1357.51 166.296 1358.51 169.796 1360.61 171.696C1362.61 173.596 1364.91 173.296 1365.81 170.896Z" fill="url(#paint47_linear_660_797)"/>
<path d="M1365.11 168.296C1365.31 167.796 1365.11 166.996 1364.61 166.596C1364.21 166.196 1363.71 166.296 1363.51 166.796C1363.31 167.296 1363.51 167.996 1364.01 168.396C1364.51 168.896 1364.91 168.796 1365.11 168.296Z" fill="white"/>
</g>
<g opacity="0.26">
<path d="M1254.71 6.6963C1250.31 0.296302 1240.51 -6.00371 1232.81 -7.20371L1213.41 -10.3037C1205.71 -11.5037 1196.71 -6.8037 1193.41 0.196302L1185.01 17.7963C1181.71 24.7963 1181.21 36.4963 1183.91 43.6963L1190.71 61.6963C1193.41 68.9963 1202.01 74.3963 1209.71 73.8963L1229.31 72.3963C1237.01 71.7963 1247.41 66.3963 1252.31 60.3963L1264.61 45.2963C1269.51 39.2963 1269.91 29.0963 1265.61 22.6963L1254.71 6.6963Z" fill="url(#paint48_radial_660_797)"/>
<path d="M1186.01 43.6963C1183.31 36.3963 1183.81 24.7963 1187.11 17.7963L1193.61 4.29626C1196.91 -2.70374 1202.61 -2.80374 1206.11 4.09626L1214.11 19.5963C1217.71 26.4963 1217.21 37.4963 1213.11 44.0963L1203.71 58.9963C1199.61 65.5963 1194.01 64.9963 1191.21 57.6963L1186.01 43.6963Z" fill="url(#paint49_radial_660_797)"/>
<path d="M1209.31 2.29642C1205.71 -4.60358 1209.11 -9.20357 1216.71 -8.00357L1231.81 -5.60358C1239.51 -4.40358 1249.31 1.89642 1253.61 8.29642L1262.01 20.5964C1266.41 26.9964 1263.61 31.9964 1255.81 31.6964L1237.81 30.8964C1230.11 30.5964 1220.81 24.6964 1217.21 17.7964L1209.31 2.29642Z" fill="url(#paint50_radial_660_797)"/>
<path d="M1216.11 45.8962C1220.21 39.2962 1230.01 34.1962 1237.71 34.5962L1255.71 35.3962C1263.41 35.6962 1265.81 40.8962 1260.91 46.8962L1251.41 58.5962C1246.51 64.5962 1236.21 69.9962 1228.41 70.5962L1213.21 71.6962C1205.51 72.2962 1202.51 67.3962 1206.71 60.7962L1216.11 45.8962Z" fill="url(#paint51_radial_660_797)"/>
<path d="M1248.81 19.2963C1247.41 17.2963 1248.01 15.6963 1250.01 15.6963C1251.91 15.6963 1254.61 17.1963 1256.01 18.9963C1257.51 20.9963 1257.21 22.6963 1255.21 22.8963C1253.21 23.0963 1250.31 21.3963 1248.81 19.2963Z" fill="url(#paint52_linear_660_797)"/>
<path d="M1249.21 18.0962C1248.91 17.6962 1249.01 17.3962 1249.51 17.3962C1249.91 17.3962 1250.51 17.6962 1250.81 18.0962C1251.11 18.4962 1251.01 18.7962 1250.61 18.8962C1250.01 18.7962 1249.41 18.4962 1249.21 18.0962Z" fill="white"/>
<path d="M1228.61 20.0962C1227.51 17.6962 1228.81 15.8962 1231.51 15.8962C1234.11 15.8962 1237.11 17.5962 1238.31 19.7962C1239.61 22.0962 1238.61 24.1962 1235.91 24.3962C1233.21 24.4962 1229.81 22.5962 1228.61 20.0962Z" fill="url(#paint53_linear_660_797)"/>
<path d="M1229.51 18.5963C1229.31 18.0963 1229.51 17.6963 1230.11 17.6963C1230.71 17.6963 1231.31 18.0963 1231.51 18.4963C1231.71 18.9963 1231.51 19.3963 1230.91 19.3963C1230.41 19.4963 1229.81 19.0963 1229.51 18.5963Z" fill="white"/>
<path d="M1241.61 8.69628C1240.51 7.09628 1241.21 5.89627 1243.11 6.09627C1244.91 6.19627 1247.31 7.49627 1248.51 9.09627C1249.71 10.6963 1249.21 11.9963 1247.31 11.8963C1245.31 11.7963 1242.71 10.2963 1241.61 8.69628Z" fill="url(#paint54_linear_660_797)"/>
<path d="M1242.01 7.69637C1241.81 7.39637 1241.91 7.09637 1242.31 7.19637C1242.71 7.19637 1243.21 7.49636 1243.41 7.79636C1243.61 8.09636 1243.51 8.39637 1243.11 8.39637C1242.81 8.39637 1242.21 8.09637 1242.01 7.69637Z" fill="white"/>
<path d="M1222.81 7.79617C1221.91 5.99617 1223.31 4.69617 1225.81 4.79617C1228.21 4.99617 1230.81 6.39618 1231.81 8.19618C1232.81 9.99618 1231.71 11.4962 1229.21 11.3962C1226.61 11.3962 1223.71 9.69617 1222.81 7.79617Z" fill="url(#paint55_linear_660_797)"/>
<path d="M1223.71 6.6962C1223.51 6.2962 1223.81 6.09619 1224.31 6.09619C1224.81 6.09619 1225.41 6.39619 1225.61 6.79619C1225.81 7.19619 1225.51 7.39619 1225.01 7.39619C1224.41 7.39619 1223.91 7.0962 1223.71 6.6962Z" fill="white"/>
<path d="M1235.71 -0.00391531C1234.81 -1.30392 1235.61 -2.20392 1237.41 -2.00392C1239.21 -1.80392 1241.31 -0.603918 1242.31 0.696082C1243.31 1.99608 1242.71 2.99607 1240.91 2.79607C1239.01 2.69607 1236.61 1.39608 1235.71 -0.00391531Z" fill="url(#paint56_linear_660_797)"/>
<path d="M1218.11 -1.90381C1217.41 -3.40381 1218.81 -4.3038 1221.11 -4.0038C1223.31 -3.7038 1225.71 -2.4038 1226.51 -1.0038C1227.31 0.496202 1226.21 1.49619 1223.91 1.29619C1221.51 1.09619 1218.91 -0.403807 1218.11 -1.90381Z" fill="url(#paint57_linear_660_797)"/>
<path d="M1194.41 44.7964C1195.61 43.2964 1197.31 43.6964 1198.21 45.7964C1199.11 47.9964 1198.71 50.9964 1197.41 52.5964C1196.11 54.0964 1194.41 53.4964 1193.71 51.2964C1192.91 49.1964 1193.31 46.2964 1194.41 44.7964Z" fill="url(#paint58_linear_660_797)"/>
<path d="M1195.61 45.0963C1195.91 44.7963 1196.21 44.8963 1196.41 45.2963C1196.61 45.6963 1196.51 46.2963 1196.21 46.6963C1195.91 46.9963 1195.61 46.8963 1195.41 46.4963C1195.31 45.9963 1195.41 45.3963 1195.61 45.0963Z" fill="white"/>
<path d="M1187.61 27.1964C1188.61 25.6964 1189.91 25.5964 1190.61 27.2964C1191.31 28.9964 1191.01 31.5964 1189.91 33.1964C1188.91 34.6964 1187.51 34.4964 1186.91 32.8964C1186.31 31.1964 1186.61 28.6964 1187.61 27.1964Z" fill="url(#paint59_linear_660_797)"/>
<path d="M1188.51 27.0963C1188.71 26.7963 1189.01 26.7963 1189.11 27.0963C1189.21 27.3963 1189.21 27.9963 1189.01 28.2963C1188.81 28.5963 1188.51 28.5963 1188.41 28.2963C1188.31 27.8963 1188.31 27.3963 1188.51 27.0963Z" fill="white"/>
<path d="M1196.51 27.2963C1197.71 25.5963 1199.51 25.4963 1200.41 27.3963C1201.31 29.2963 1201.01 32.2963 1199.61 34.0963C1198.31 35.7963 1196.61 35.5963 1195.81 33.6963C1195.01 31.8963 1195.31 29.0963 1196.51 27.2963Z" fill="url(#paint60_linear_660_797)"/>
<path d="M1197.71 27.2963C1198.01 26.8963 1198.31 26.8963 1198.51 27.2963C1198.71 27.6963 1198.61 28.2963 1198.31 28.5963C1198.01 28.9963 1197.71 28.8963 1197.51 28.5963C1197.41 28.1963 1197.41 27.5963 1197.71 27.2963Z" fill="white"/>
<path d="M1198.51 10.0964C1199.81 8.09643 1201.51 7.79642 1202.41 9.29642C1203.31 10.8964 1203.01 13.8964 1201.61 15.8964C1200.31 17.7964 1198.51 17.9964 1197.71 16.3964C1197.01 14.6964 1197.31 11.9964 1198.51 10.0964Z" fill="url(#paint61_linear_660_797)"/>
<path d="M1199.71 9.69645C1200.01 9.29645 1200.31 9.19646 1200.51 9.49646C1200.71 9.79646 1200.61 10.3964 1200.31 10.7964C1200.01 11.1964 1199.71 11.2964 1199.51 10.8964C1199.41 10.6964 1199.51 10.0965 1199.71 9.69645Z" fill="white"/>
<path d="M1208.11 27.5964C1209.71 25.5964 1212.01 25.5964 1213.21 27.6964C1214.51 29.8964 1214.11 33.3964 1212.31 35.3964C1210.61 37.3964 1208.31 37.0964 1207.21 34.8964C1206.21 32.7964 1206.51 29.4964 1208.11 27.5964Z" fill="url(#paint62_linear_660_797)"/>
<path d="M1209.71 27.4963C1210.01 27.0963 1210.51 27.0963 1210.71 27.4963C1210.91 27.8963 1210.91 28.5963 1210.51 28.9963C1210.21 29.3963 1209.71 29.3963 1209.51 28.9963C1209.21 28.5963 1209.31 27.8963 1209.71 27.4963Z" fill="white"/>
<path d="M1216.71 60.5963C1218.01 58.1963 1221.31 56.4963 1224.01 56.8963C1226.61 57.2963 1227.61 59.4963 1226.21 61.7963C1224.91 64.0963 1221.81 65.6963 1219.21 65.3963C1216.61 65.0963 1215.41 62.9963 1216.71 60.5963Z" fill="url(#paint63_linear_660_797)"/>
<path d="M1219.01 59.3962C1219.31 58.8962 1219.91 58.5962 1220.51 58.5962C1221.11 58.6962 1221.31 59.0962 1221.01 59.5962C1220.71 60.0962 1220.11 60.3962 1219.51 60.3962C1219.01 60.2962 1218.81 59.7962 1219.01 59.3962Z" fill="white"/>
<path d="M1246.71 45.1963C1248.21 42.6963 1251.41 41.0963 1253.61 41.6963C1255.81 42.1963 1256.31 44.5963 1254.71 46.9963C1253.21 49.2963 1250.21 50.8963 1248.01 50.4963C1245.91 49.9963 1245.21 47.6963 1246.71 45.1963Z" fill="url(#paint64_linear_660_797)"/>
<path d="M1248.91 43.9963C1249.21 43.4963 1249.91 43.1963 1250.31 43.2963C1250.81 43.3963 1250.91 43.8963 1250.61 44.3963C1250.31 44.8963 1249.71 45.1963 1249.21 45.0963C1248.81 44.9963 1248.61 44.4963 1248.91 43.9963Z" fill="white"/>
</g>
<g opacity="0.26">
<path d="M975.411 -10.0036C967.811 -11.5036 956.411 -9.00361 950.111 -4.50361L934.111 6.89638C927.811 11.3964 924.711 21.0964 927.311 28.3964L933.711 46.7964C936.311 54.0964 944.111 62.7964 951.111 65.9964L968.611 73.9964C975.611 77.1964 985.611 75.0964 990.711 69.2964L1003.61 54.4964C1008.71 48.6964 1012.21 37.5964 1011.51 29.7964L1009.61 10.3964C1008.81 2.69638 1002.01 -4.90362 994.411 -6.30362L975.411 -10.0036Z" fill="url(#paint65_radial_660_797)"/>
<path d="M952.512 64.6964C945.512 61.4964 937.612 52.7964 935.112 45.4964L930.212 31.2964C927.612 23.9964 931.612 19.8964 939.012 22.2964L955.612 27.6964C963.012 30.0964 970.412 38.1964 972.112 45.7964L975.912 62.9964C977.612 70.5964 973.212 74.0964 966.112 70.8964L952.512 64.6964Z" fill="url(#paint66_radial_660_797)"/>
<path d="M940.011 18.7963C932.611 16.3963 931.811 10.7963 938.111 6.29628L950.511 -2.60371C956.811 -7.10371 968.211 -9.60371 975.811 -8.10371L990.411 -5.20372C998.011 -3.70372 999.511 1.79629 993.811 6.99629L980.511 19.0963C974.811 24.2963 964.011 26.5963 956.611 24.1963L940.011 18.7963Z" fill="url(#paint67_radial_660_797)"/>
<path d="M975.511 44.9964C973.811 37.3964 977.211 26.9964 982.911 21.7964L996.211 9.69639C1001.91 4.49639 1007.31 6.49638 1008.01 14.2964L1009.51 29.2964C1010.31 36.9964 1006.71 48.0964 1001.61 53.9964L991.611 65.4964C986.511 71.2964 981.011 69.8964 979.311 62.3964L975.511 44.9964Z" fill="url(#paint68_radial_660_797)"/>
<path d="M941.411 12.4962C939.311 11.6962 939.611 9.79624 941.511 8.29624C943.211 6.99624 946.011 6.19624 948.011 6.39624C950.311 6.69624 951.311 8.29624 949.711 10.0962C947.811 12.2962 943.811 13.3962 941.411 12.4962Z" fill="url(#paint69_linear_660_797)"/>
<path d="M941.411 10.8963C941.011 10.7963 941.011 10.3963 941.411 9.99633C941.811 9.69633 942.511 9.49632 942.911 9.59632C943.311 9.69632 943.411 10.0963 942.911 10.4963C942.511 10.8963 941.811 11.0963 941.411 10.8963Z" fill="white"/>
<path d="M961.711 7.89639C959.611 7.09639 959.911 5.1964 961.811 3.6964C963.511 2.3964 966.311 1.59639 968.411 1.79639C970.711 2.09639 971.711 3.6964 970.111 5.4964C968.211 7.7964 964.111 8.79639 961.711 7.89639Z" fill="url(#paint70_linear_660_797)"/>
<path d="M961.711 6.39633C961.311 6.29633 961.311 5.89633 961.711 5.49633C962.111 5.19633 962.811 4.99632 963.211 5.09632C963.611 5.19632 963.711 5.59633 963.211 5.99633C962.811 6.29633 962.111 6.49633 961.711 6.39633Z" fill="white"/>
<path d="M982.211 3.59633C980.111 2.79633 980.411 0.896334 982.311 -0.603666C984.011 -1.90367 986.811 -2.70366 988.811 -2.50366C991.111 -2.20366 992.111 -0.603663 990.511 1.19634C988.711 3.49634 984.711 4.59633 982.211 3.59633Z" fill="url(#paint71_linear_660_797)"/>
<path d="M982.211 2.09628C981.811 1.99628 981.811 1.59629 982.211 1.19629C982.611 0.896285 983.311 0.696276 983.711 0.796276C984.111 0.896276 984.211 1.29629 983.711 1.69629C983.311 2.09629 982.611 2.19628 982.211 2.09628Z" fill="white"/>
<path d="M946.911 45.3963C946.311 42.7963 947.611 40.9963 950.111 41.5963C952.811 42.2963 955.511 45.6963 955.711 48.6963C955.911 51.3963 953.911 52.3963 951.611 51.2963C949.411 50.3963 947.411 47.7963 946.911 45.3963Z" fill="url(#paint72_linear_660_797)"/>
<path d="M947.711 44.2964C947.611 43.6964 947.911 43.3964 948.311 43.5964C948.811 43.7964 949.211 44.2964 949.311 44.8964C949.411 45.4964 949.111 45.7964 948.611 45.5964C948.311 45.3964 947.911 44.7964 947.711 44.2964Z" fill="white"/>
<path d="M986.012 56.3964C985.212 54.1964 986.212 50.7964 988.212 48.8964C990.112 46.9964 992.312 47.1964 993.012 49.3964C993.712 51.5964 992.712 54.7963 990.812 56.7963C988.912 58.6963 986.812 58.4964 986.012 56.3964Z" fill="url(#paint73_linear_660_797)"/>
<path d="M986.711 53.9963C986.511 53.4963 986.711 52.8963 987.111 52.4963C987.511 52.0963 987.911 52.0963 988.111 52.5963C988.211 53.0963 988.011 53.6963 987.711 54.0963C987.311 54.3963 986.811 54.3963 986.711 53.9963Z" fill="white"/>
<path d="M1000.31 41.9964C999.712 39.7964 1000.61 36.4964 1002.41 34.7964C1004.21 33.0964 1006.01 33.4964 1006.61 35.6964C1007.21 37.8964 1006.21 40.9964 1004.51 42.7964C1002.81 44.4964 1000.91 44.1964 1000.31 41.9964Z" fill="url(#paint74_linear_660_797)"/>
<path d="M1000.91 39.6963C1000.81 39.1963 1001.01 38.5963 1001.31 38.1963C1001.71 37.7963 1002.11 37.8963 1002.21 38.3963C1002.31 38.8963 1002.11 39.4963 1001.81 39.8963C1001.41 40.1963 1001.01 40.1963 1000.91 39.6963Z" fill="white"/>
<path d="M995.312 24.4964C994.612 21.9964 995.612 18.5964 997.512 16.7964C999.412 15.0964 1001.41 15.6964 1002.11 18.0964C1002.71 20.4964 1001.71 23.8964 999.912 25.5964C998.112 27.3964 996.012 26.8964 995.312 24.4964Z" fill="url(#paint75_linear_660_797)"/>
<path d="M996.012 21.9964C995.912 21.4964 996.112 20.7964 996.512 20.3964C996.912 19.9964 997.312 20.1964 997.512 20.6964C997.612 21.1964 997.412 21.8964 997.012 22.2964C996.512 22.5964 996.112 22.4964 996.012 21.9964Z" fill="white"/>
<path d="M980.012 38.7965C979.112 36.2965 980.212 32.6965 982.312 30.6965C984.412 28.7965 986.712 29.2965 987.512 31.7965C988.312 34.1965 987.312 37.6965 985.212 39.5965C983.212 41.5965 980.812 41.1965 980.012 38.7965Z" fill="url(#paint76_linear_660_797)"/>
<path d="M980.611 36.1966C980.411 35.6966 980.611 34.8966 981.111 34.4966C981.511 34.0966 982.011 34.1966 982.211 34.6966C982.411 35.1966 982.211 35.8966 981.711 36.2966C981.311 36.7966 980.811 36.6966 980.611 36.1966Z" fill="white"/>
</g>
<g opacity="0.26">
<path d="M68.9112 19.9964C76.5112 18.4964 87.9112 20.9964 94.2112 25.4964L110.211 36.8964C116.511 41.3964 119.611 51.0964 117.011 58.3964L110.611 76.7964C108.011 84.0964 100.211 92.7964 93.2112 95.9964L75.7112 103.996C68.7112 107.196 58.7112 105.096 53.6112 99.2964L40.7112 84.4964C35.6112 78.6964 32.1112 67.5964 32.8112 59.7964L34.7112 40.3964C35.5112 32.6964 42.3112 25.0964 49.9112 23.6964L68.9112 19.9964Z" fill="url(#paint77_radial_660_797)"/>
<path d="M91.7114 94.6964C98.7114 91.4964 106.611 82.7964 109.111 75.4964L114.011 61.2964C116.611 53.9964 112.611 49.8964 105.211 52.2964L88.6114 57.6964C81.2114 60.0964 73.8114 68.1964 72.1114 75.7964L68.3114 92.9964C66.6114 100.596 71.0114 104.096 78.1114 100.896L91.7114 94.6964Z" fill="url(#paint78_radial_660_797)"/>
<path d="M104.311 48.8964C111.711 46.4964 112.511 40.8964 106.211 36.3964L93.8111 27.4964C87.5111 22.9964 76.1111 20.4964 68.5111 21.9964L53.9111 24.8964C46.3111 26.3964 44.8111 31.8964 50.5111 37.0964L63.8111 49.1964C69.5111 54.3964 80.3111 56.6964 87.7111 54.2964L104.311 48.8964Z" fill="url(#paint79_radial_660_797)"/>
<path d="M68.7115 75.0964C70.4115 67.4964 67.0115 57.0964 61.3115 51.8964L48.0115 39.6964C42.3115 34.4964 36.9115 36.4964 36.2115 44.2964L34.7115 59.2964C33.9115 66.9964 37.5115 78.0964 42.6115 83.9964L52.6115 95.4964C57.7115 101.296 63.2115 99.8964 64.9115 92.3964L68.7115 75.0964Z" fill="url(#paint80_radial_660_797)"/>
<path d="M102.811 42.4965C104.911 41.6965 104.611 39.7965 102.711 38.2965C101.011 36.9965 98.211 36.1965 96.211 36.3965C93.911 36.6965 92.911 38.2965 94.511 40.0965C96.411 42.3965 100.411 43.4965 102.811 42.4965Z" fill="url(#paint81_linear_660_797)"/>
<path d="M102.911 40.9964C103.311 40.8964 103.311 40.4964 102.911 40.0964C102.511 39.7964 101.811 39.5964 101.411 39.6964C101.011 39.7964 100.911 40.1964 101.411 40.5964C101.811 40.8964 102.511 41.0964 102.911 40.9964Z" fill="white"/>
<path d="M82.5111 37.9965C84.6111 37.1965 84.3111 35.2965 82.4111 33.7965C80.7111 32.4965 77.9111 31.6965 75.8111 31.8965C73.5111 32.1965 72.5111 33.7965 74.1111 35.5965C76.1111 37.7965 80.1111 38.8965 82.5111 37.9965Z" fill="url(#paint82_linear_660_797)"/>
<path d="M82.611 36.4964C83.011 36.3964 83.011 35.9964 82.611 35.5964C82.211 35.2964 81.511 35.0964 81.111 35.1964C80.711 35.2964 80.611 35.6964 81.111 36.0964C81.411 36.3964 82.111 36.5964 82.611 36.4964Z" fill="white"/>
<path d="M62.0112 33.6964C64.1112 32.8964 63.8112 30.9964 61.9112 29.4964C60.2112 28.1964 57.4112 27.3964 55.4112 27.5964C53.1112 27.8964 52.1112 29.4964 53.7112 31.2964C55.6112 33.4964 59.6112 34.5964 62.0112 33.6964Z" fill="url(#paint83_linear_660_797)"/>
<path d="M62.0114 32.1964C62.4114 32.0964 62.4114 31.6964 62.0114 31.2964C61.6114 30.9964 60.9114 30.7964 60.5114 30.8964C60.1114 30.9964 60.0114 31.3964 60.5114 31.7964C60.9114 32.0964 61.6114 32.2964 62.0114 32.1964Z" fill="white"/>
<path d="M97.3114 75.4964C97.9114 72.8964 96.6114 71.0964 94.1114 71.6964C91.4114 72.3964 88.7114 75.7964 88.5114 78.7964C88.3114 81.4964 90.3114 82.4964 92.6114 81.3964C94.8114 80.3964 96.8114 77.8964 97.3114 75.4964Z" fill="url(#paint84_linear_660_797)"/>
<path d="M96.5112 74.3965C96.6112 73.7965 96.3113 73.4965 95.9113 73.6965C95.4113 73.8965 95.0113 74.3965 94.9113 74.9965C94.8113 75.5965 95.1112 75.8965 95.6112 75.6965C96.0112 75.4965 96.4112 74.8965 96.5112 74.3965Z" fill="white"/>
<path d="M58.2115 86.3964C59.0115 84.1964 58.0115 80.7964 56.0115 78.8964C54.1115 76.9964 51.9115 77.1964 51.2115 79.3964C50.5115 81.5964 51.5115 84.7963 53.4115 86.7963C55.3115 88.6963 57.5115 88.5964 58.2115 86.3964Z" fill="url(#paint85_linear_660_797)"/>
<path d="M57.6116 83.9963C57.8116 83.4963 57.6116 82.8963 57.2116 82.4963C56.8116 82.0963 56.4116 82.0963 56.2116 82.5963C56.1116 83.0963 56.3116 83.6963 56.6116 84.0963C57.0116 84.4963 57.4116 84.4963 57.6116 83.9963Z" fill="white"/>
<path d="M44.0113 72.0965C44.6113 69.8965 43.7113 66.5965 41.9113 64.8965C40.1113 63.1965 38.3113 63.5965 37.7113 65.7965C37.1113 67.9965 38.1113 71.0965 39.8113 72.8965C41.5113 74.5965 43.4113 74.2965 44.0113 72.0965Z" fill="url(#paint86_linear_660_797)"/>
<path d="M43.4115 69.7964C43.5115 69.2964 43.3115 68.6964 43.0115 68.2964C42.6115 67.8964 42.2115 67.9964 42.1115 68.4964C42.0115 68.9964 42.2115 69.5964 42.5115 69.9964C42.8115 70.2964 43.2115 70.1964 43.4115 69.7964Z" fill="white"/>
<path d="M48.9114 54.4964C49.6114 51.9964 48.6114 48.5964 46.7114 46.7964C44.8114 45.0964 42.8114 45.6964 42.1114 48.0964C41.5114 50.4964 42.5114 53.8964 44.3114 55.5964C46.2114 57.3964 48.2114 56.9964 48.9114 54.4964Z" fill="url(#paint87_linear_660_797)"/>
<path d="M48.3116 51.9964C48.4116 51.4964 48.2116 50.7964 47.8116 50.3964C47.4116 49.9964 47.0116 50.1964 46.8116 50.6964C46.7116 51.1964 46.9116 51.8964 47.3116 52.2964C47.7116 52.6964 48.1116 52.5964 48.3116 51.9964Z" fill="white"/>
<path d="M64.3115 68.7965C65.2115 66.2965 64.1115 62.6965 62.0115 60.6965C59.9115 58.7965 57.6115 59.2965 56.8115 61.7965C56.0115 64.1965 57.0115 67.6965 59.1115 69.5965C61.1115 71.5965 63.4115 71.2965 64.3115 68.7965Z" fill="url(#paint88_linear_660_797)"/>
<path d="M63.6117 66.2964C63.8117 65.7964 63.6117 64.9964 63.1117 64.5964C62.7117 64.1964 62.2117 64.2964 62.0117 64.7964C61.8117 65.2964 62.0117 65.9964 62.5117 66.3964C63.0117 66.8964 63.4117 66.7964 63.6117 66.2964Z" fill="white"/>
</g>
</g>
<defs>
<linearGradient id="paint0_linear_660_797" x1="5.58104e-07" y1="225.925" x2="1439.94" y2="208.853" gradientUnits="userSpaceOnUse">
<stop stop-color="#7C1DC9"/>
<stop offset="1" stop-color="#6E148C"/>
</linearGradient>
<radialGradient id="paint1_radial_660_797" cx="0" cy="0" r="1" gradientUnits="userSpaceOnUse" gradientTransform="translate(606.671 81.258) rotate(147.549) scale(91.4008 91.4008)">
<stop stop-color="white"/>
<stop offset="0.28" stop-color="#E5E5E5"/>
<stop offset="0.4639" stop-color="#D1D1D1"/>
<stop offset="0.6229" stop-color="#CACACA"/>
<stop offset="0.8639" stop-color="#B5B5B5"/>
<stop offset="1" stop-color="#A6A6A6"/>
</radialGradient>
<radialGradient id="paint2_radial_660_797" cx="0" cy="0" r="1" gradientUnits="userSpaceOnUse" gradientTransform="translate(705.978 86.5759) rotate(147.549) scale(91.5041 91.5042)">
<stop stop-color="white"/>
<stop offset="0.28" stop-color="#E5E5E5"/>
<stop offset="0.4639" stop-color="#D1D1D1"/>
<stop offset="0.6229" stop-color="#CACACA"/>
<stop offset="0.8639" stop-color="#B5B5B5"/>
<stop offset="1" stop-color="#A6A6A6"/>
</radialGradient>
<radialGradient id="paint3_radial_660_797" cx="0" cy="0" r="1" gradientUnits="userSpaceOnUse" gradientTransform="translate(588.96 46.1042) rotate(147.549) scale(181.586 181.586)">
<stop stop-color="white"/>
<stop offset="0.28" stop-color="#E5E5E5"/>
<stop offset="0.4639" stop-color="#D1D1D1"/>
<stop offset="0.6229" stop-color="#CACACA"/>
<stop offset="0.8639" stop-color="#B5B5B5"/>
<stop offset="1" stop-color="#A6A6A6"/>
</radialGradient>
<radialGradient id="paint4_radial_660_797" cx="0" cy="0" r="1" gradientUnits="userSpaceOnUse" gradientTransform="translate(593.813 123.085) rotate(147.549) scale(61.0491 61.049)">
<stop stop-color="white"/>
<stop offset="0.28" stop-color="#E5E5E5"/>
<stop offset="0.4639" stop-color="#D1D1D1"/>
<stop offset="0.6229" stop-color="#CACACA"/>
<stop offset="0.8639" stop-color="#B5B5B5"/>
<stop offset="1" stop-color="#A6A6A6"/>
</radialGradient>
<linearGradient id="paint5_linear_660_797" x1="564.194" y1="49.4559" x2="597.15" y2="87.2937" gradientUnits="userSpaceOnUse">
<stop stop-color="#A6A6A6"/>
<stop offset="0.2455" stop-color="#6F6F6F"/>
<stop offset="0.491" stop-color="#3F3F3F"/>
<stop offset="0.7066" stop-color="#1D1D1D"/>
<stop offset="0.8837" stop-color="#080808"/>
<stop offset="1"/>
</linearGradient>
<linearGradient id="paint6_linear_660_797" x1="574.569" y1="40.417" x2="607.526" y2="78.2566" gradientUnits="userSpaceOnUse">
<stop stop-color="#A6A6A6"/>
<stop offset="0.2455" stop-color="#6F6F6F"/>
<stop offset="0.491" stop-color="#3F3F3F"/>
<stop offset="0.7066" stop-color="#1D1D1D"/>
<stop offset="0.8837" stop-color="#080808"/>
<stop offset="1"/>
</linearGradient>
<linearGradient id="paint7_linear_660_797" x1="573.576" y1="41.2902" x2="606.526" y2="79.1212" gradientUnits="userSpaceOnUse">
<stop stop-color="#A6A6A6"/>
<stop offset="0.2455" stop-color="#6F6F6F"/>
<stop offset="0.491" stop-color="#3F3F3F"/>
<stop offset="0.7066" stop-color="#1D1D1D"/>
<stop offset="0.8837" stop-color="#080808"/>
<stop offset="1"/>
</linearGradient>
<linearGradient id="paint8_linear_660_797" x1="584.079" y1="32.1312" x2="617.039" y2="69.973" gradientUnits="userSpaceOnUse">
<stop stop-color="#A6A6A6"/>
<stop offset="0.2455" stop-color="#6F6F6F"/>
<stop offset="0.491" stop-color="#3F3F3F"/>
<stop offset="0.7066" stop-color="#1D1D1D"/>
<stop offset="0.8837" stop-color="#080808"/>
<stop offset="1"/>
</linearGradient>
<linearGradient id="paint9_linear_660_797" x1="581.214" y1="34.6342" x2="614.167" y2="72.4694" gradientUnits="userSpaceOnUse">
<stop stop-color="#A6A6A6"/>
<stop offset="0.2455" stop-color="#6F6F6F"/>
<stop offset="0.491" stop-color="#3F3F3F"/>
<stop offset="0.7066" stop-color="#1D1D1D"/>
<stop offset="0.8837" stop-color="#080808"/>
<stop offset="1"/>
</linearGradient>
<linearGradient id="paint10_linear_660_797" x1="591.601" y1="25.5829" x2="624.559" y2="63.4234" gradientUnits="userSpaceOnUse">
<stop stop-color="#A6A6A6"/>
<stop offset="0.2455" stop-color="#6F6F6F"/>
<stop offset="0.491" stop-color="#3F3F3F"/>
<stop offset="0.7066" stop-color="#1D1D1D"/>
<stop offset="0.8837" stop-color="#080808"/>
<stop offset="1"/>
</linearGradient>
<linearGradient id="paint11_linear_660_797" x1="681.741" y1="103.073" x2="606.793" y2="96.3194" gradientUnits="userSpaceOnUse">
<stop stop-color="#A6A6A6"/>
<stop offset="0.2455" stop-color="#6F6F6F"/>
<stop offset="0.491" stop-color="#3F3F3F"/>
<stop offset="0.7066" stop-color="#1D1D1D"/>
<stop offset="0.8837" stop-color="#080808"/>
<stop offset="1"/>
</linearGradient>
<linearGradient id="paint12_linear_660_797" x1="683.464" y1="83.9965" x2="608.51" y2="77.2427" gradientUnits="userSpaceOnUse">
<stop stop-color="#A6A6A6"/>
<stop offset="0.2455" stop-color="#6F6F6F"/>
<stop offset="0.491" stop-color="#3F3F3F"/>
<stop offset="0.7066" stop-color="#1D1D1D"/>
<stop offset="0.8837" stop-color="#080808"/>
<stop offset="1"/>
</linearGradient>
<linearGradient id="paint13_linear_660_797" x1="683.338" y1="85.4078" x2="608.383" y2="78.6538" gradientUnits="userSpaceOnUse">
<stop stop-color="#A6A6A6"/>
<stop offset="0.2455" stop-color="#6F6F6F"/>
<stop offset="0.491" stop-color="#3F3F3F"/>
<stop offset="0.7066" stop-color="#1D1D1D"/>
<stop offset="0.8837" stop-color="#080808"/>
<stop offset="1"/>
</linearGradient>
<linearGradient id="paint14_linear_660_797" x1="684.905" y1="67.974" x2="609.957" y2="61.2208" gradientUnits="userSpaceOnUse">
<stop stop-color="#A6A6A6"/>
<stop offset="0.2455" stop-color="#6F6F6F"/>
<stop offset="0.491" stop-color="#3F3F3F"/>
<stop offset="0.7066" stop-color="#1D1D1D"/>
<stop offset="0.8837" stop-color="#080808"/>
<stop offset="1"/>
</linearGradient>
<linearGradient id="paint15_linear_660_797" x1="683.165" y1="87.2572" x2="608.219" y2="80.5042" gradientUnits="userSpaceOnUse">
<stop stop-color="#A6A6A6"/>
<stop offset="0.2455" stop-color="#6F6F6F"/>
<stop offset="0.491" stop-color="#3F3F3F"/>
<stop offset="0.7066" stop-color="#1D1D1D"/>
<stop offset="0.8837" stop-color="#080808"/>
<stop offset="1"/>
</linearGradient>
<linearGradient id="paint16_linear_660_797" x1="595.975" y1="147.984" x2="624.515" y2="87.0379" gradientUnits="userSpaceOnUse">
<stop stop-color="#A6A6A6"/>
<stop offset="0.2455" stop-color="#6F6F6F"/>
<stop offset="0.491" stop-color="#3F3F3F"/>
<stop offset="0.7066" stop-color="#1D1D1D"/>
<stop offset="0.8837" stop-color="#080808"/>
<stop offset="1"/>
</linearGradient>
<linearGradient id="paint17_linear_660_797" x1="566.16" y1="134.03" x2="594.705" y2="73.0722" gradientUnits="userSpaceOnUse">
<stop stop-color="#A6A6A6"/>
<stop offset="0.2455" stop-color="#6F6F6F"/>
<stop offset="0.491" stop-color="#3F3F3F"/>
<stop offset="0.7066" stop-color="#1D1D1D"/>
<stop offset="0.8837" stop-color="#080808"/>
<stop offset="1"/>
</linearGradient>
<radialGradient id="paint18_radial_660_797" cx="0" cy="0" r="1" gradientUnits="userSpaceOnUse" gradientTransform="translate(831.97 160.021) rotate(-167.754) scale(103.807 103.807)">
<stop stop-color="white"/>
<stop offset="0.28" stop-color="#E5E5E5"/>
<stop offset="0.4639" stop-color="#D1D1D1"/>
<stop offset="0.6229" stop-color="#CACACA"/>
<stop offset="0.8639" stop-color="#B5B5B5"/>
<stop offset="1" stop-color="#A6A6A6"/>
</radialGradient>
<radialGradient id="paint19_radial_660_797" cx="0" cy="0" r="1" gradientUnits="userSpaceOnUse" gradientTransform="translate(887.658 231.226) rotate(-167.754) scale(85.852 85.852)">
<stop stop-color="white"/>
<stop offset="0.28" stop-color="#E5E5E5"/>
<stop offset="0.4639" stop-color="#D1D1D1"/>
<stop offset="0.6229" stop-color="#CACACA"/>
<stop offset="0.8639" stop-color="#B5B5B5"/>
<stop offset="1" stop-color="#A6A6A6"/>
</radialGradient>
<radialGradient id="paint20_radial_660_797" cx="0" cy="0" r="1" gradientUnits="userSpaceOnUse" gradientTransform="translate(840.709 122.84) rotate(-167.754) scale(140.358 140.358)">
<stop stop-color="white"/>
<stop offset="0.28" stop-color="#E5E5E5"/>
<stop offset="0.4639" stop-color="#D1D1D1"/>
<stop offset="0.6229" stop-color="#CACACA"/>
<stop offset="0.8639" stop-color="#B5B5B5"/>
<stop offset="1" stop-color="#A6A6A6"/>
</radialGradient>
<radialGradient id="paint21_radial_660_797" cx="0" cy="0" r="1" gradientUnits="userSpaceOnUse" gradientTransform="translate(780.989 188.702) rotate(-167.754) scale(91.1356 91.1356)">
<stop stop-color="white"/>
<stop offset="0.28" stop-color="#E5E5E5"/>
<stop offset="0.4639" stop-color="#D1D1D1"/>
<stop offset="0.6229" stop-color="#CACACA"/>
<stop offset="0.8639" stop-color="#B5B5B5"/>
<stop offset="1" stop-color="#A6A6A6"/>
</radialGradient>
<linearGradient id="paint22_linear_660_797" x1="858.283" y1="118.606" x2="856.63" y2="151.87" gradientUnits="userSpaceOnUse">
<stop stop-color="#A6A6A6"/>
<stop offset="0.2455" stop-color="#6F6F6F"/>
<stop offset="0.491" stop-color="#3F3F3F"/>
<stop offset="0.7066" stop-color="#1D1D1D"/>
<stop offset="0.8837" stop-color="#080808"/>
<stop offset="1"/>
</linearGradient>
<linearGradient id="paint23_linear_660_797" x1="837.77" y1="117.585" x2="836.117" y2="150.85" gradientUnits="userSpaceOnUse">
<stop stop-color="#A6A6A6"/>
<stop offset="0.2455" stop-color="#6F6F6F"/>
<stop offset="0.491" stop-color="#3F3F3F"/>
<stop offset="0.7066" stop-color="#1D1D1D"/>
<stop offset="0.8837" stop-color="#080808"/>
<stop offset="1"/>
</linearGradient>
<linearGradient id="paint24_linear_660_797" x1="817.103" y1="116.558" x2="815.45" y2="149.823" gradientUnits="userSpaceOnUse">
<stop stop-color="#A6A6A6"/>
<stop offset="0.2455" stop-color="#6F6F6F"/>
<stop offset="0.491" stop-color="#3F3F3F"/>
<stop offset="0.7066" stop-color="#1D1D1D"/>
<stop offset="0.8837" stop-color="#080808"/>
<stop offset="1"/>
</linearGradient>
<linearGradient id="paint25_linear_660_797" x1="867.356" y1="204.368" x2="843.734" y2="171.63" gradientUnits="userSpaceOnUse">
<stop stop-color="#A6A6A6"/>
<stop offset="0.2455" stop-color="#6F6F6F"/>
<stop offset="0.491" stop-color="#3F3F3F"/>
<stop offset="0.7066" stop-color="#1D1D1D"/>
<stop offset="0.8837" stop-color="#080808"/>
<stop offset="1"/>
</linearGradient>
<linearGradient id="paint26_linear_660_797" x1="769.06" y1="205.508" x2="843" y2="175.688" gradientUnits="userSpaceOnUse">
<stop stop-color="#A6A6A6"/>
<stop offset="0.2455" stop-color="#6F6F6F"/>
<stop offset="0.491" stop-color="#3F3F3F"/>
<stop offset="0.7066" stop-color="#1D1D1D"/>
<stop offset="0.8837" stop-color="#080808"/>
<stop offset="1"/>
</linearGradient>
<linearGradient id="paint27_linear_660_797" x1="762.254" y1="188.616" x2="836.183" y2="158.8" gradientUnits="userSpaceOnUse">
<stop stop-color="#A6A6A6"/>
<stop offset="0.2455" stop-color="#6F6F6F"/>
<stop offset="0.491" stop-color="#3F3F3F"/>
<stop offset="0.7066" stop-color="#1D1D1D"/>
<stop offset="0.8837" stop-color="#080808"/>
<stop offset="1"/>
</linearGradient>
<linearGradient id="paint28_linear_660_797" x1="756.816" y1="175.14" x2="830.752" y2="145.321" gradientUnits="userSpaceOnUse">
<stop stop-color="#A6A6A6"/>
<stop offset="0.2455" stop-color="#6F6F6F"/>
<stop offset="0.491" stop-color="#3F3F3F"/>
<stop offset="0.7066" stop-color="#1D1D1D"/>
<stop offset="0.8837" stop-color="#080808"/>
<stop offset="1"/>
</linearGradient>
<linearGradient id="paint29_linear_660_797" x1="763.765" y1="192.38" x2="837.705" y2="162.56" gradientUnits="userSpaceOnUse">
<stop stop-color="#A6A6A6"/>
<stop offset="0.2455" stop-color="#6F6F6F"/>
<stop offset="0.491" stop-color="#3F3F3F"/>
<stop offset="0.7066" stop-color="#1D1D1D"/>
<stop offset="0.8837" stop-color="#080808"/>
<stop offset="1"/>
</linearGradient>
<radialGradient id="paint30_radial_660_797" cx="0" cy="0" r="1" gradientUnits="userSpaceOnUse" gradientTransform="translate(337.97 -18.9786) rotate(-167.754) scale(103.807 103.807)">
<stop stop-color="white"/>
<stop offset="0.28" stop-color="#E5E5E5"/>
<stop offset="0.4639" stop-color="#D1D1D1"/>
<stop offset="0.6229" stop-color="#CACACA"/>
<stop offset="0.8639" stop-color="#B5B5B5"/>
<stop offset="1" stop-color="#A6A6A6"/>
</radialGradient>
<radialGradient id="paint31_radial_660_797" cx="0" cy="0" r="1" gradientUnits="userSpaceOnUse" gradientTransform="translate(393.658 52.2261) rotate(-167.754) scale(85.852 85.852)">
<stop stop-color="white"/>
<stop offset="0.28" stop-color="#E5E5E5"/>
<stop offset="0.4639" stop-color="#D1D1D1"/>
<stop offset="0.6229" stop-color="#CACACA"/>
<stop offset="0.8639" stop-color="#B5B5B5"/>
<stop offset="1" stop-color="#A6A6A6"/>
</radialGradient>
<radialGradient id="paint32_radial_660_797" cx="0" cy="0" r="1" gradientUnits="userSpaceOnUse" gradientTransform="translate(286.989 9.70154) rotate(-167.754) scale(91.1356 91.1356)">
<stop stop-color="white"/>
<stop offset="0.28" stop-color="#E5E5E5"/>
<stop offset="0.4639" stop-color="#D1D1D1"/>
<stop offset="0.6229" stop-color="#CACACA"/>
<stop offset="0.8639" stop-color="#B5B5B5"/>
<stop offset="1" stop-color="#A6A6A6"/>
</radialGradient>
<linearGradient id="paint33_linear_660_797" x1="373.356" y1="25.3675" x2="349.734" y2="-7.3696" gradientUnits="userSpaceOnUse">
<stop stop-color="#A6A6A6"/>
<stop offset="0.2455" stop-color="#6F6F6F"/>
<stop offset="0.491" stop-color="#3F3F3F"/>
<stop offset="0.7066" stop-color="#1D1D1D"/>
<stop offset="0.8837" stop-color="#080808"/>
<stop offset="1"/>
</linearGradient>
<linearGradient id="paint34_linear_660_797" x1="275.06" y1="26.5078" x2="349" y2="-3.31249" gradientUnits="userSpaceOnUse">
<stop stop-color="#A6A6A6"/>
<stop offset="0.2455" stop-color="#6F6F6F"/>
<stop offset="0.491" stop-color="#3F3F3F"/>
<stop offset="0.7066" stop-color="#1D1D1D"/>
<stop offset="0.8837" stop-color="#080808"/>
<stop offset="1"/>
</linearGradient>
<linearGradient id="paint35_linear_660_797" x1="268.254" y1="9.61591" x2="342.183" y2="-20.1998" gradientUnits="userSpaceOnUse">
<stop stop-color="#A6A6A6"/>
<stop offset="0.2455" stop-color="#6F6F6F"/>
<stop offset="0.491" stop-color="#3F3F3F"/>
<stop offset="0.7066" stop-color="#1D1D1D"/>
<stop offset="0.8837" stop-color="#080808"/>
<stop offset="1"/>
</linearGradient>
<radialGradient id="paint36_radial_660_797" cx="0" cy="0" r="1" gradientUnits="userSpaceOnUse" gradientTransform="translate(1375.47 157.032) rotate(-167.754) scale(103.807 103.807)">
<stop stop-color="white"/>
<stop offset="0.28" stop-color="#E5E5E5"/>
<stop offset="0.4639" stop-color="#D1D1D1"/>
<stop offset="0.6229" stop-color="#CACACA"/>
<stop offset="0.8639" stop-color="#B5B5B5"/>
<stop offset="1" stop-color="#A6A6A6"/>
</radialGradient>
<radialGradient id="paint37_radial_660_797" cx="0" cy="0" r="1" gradientUnits="userSpaceOnUse" gradientTransform="translate(1431.16 228.237) rotate(-167.754) scale(85.8519 85.852)">
<stop stop-color="white"/>
<stop offset="0.28" stop-color="#E5E5E5"/>
<stop offset="0.4639" stop-color="#D1D1D1"/>
<stop offset="0.6229" stop-color="#CACACA"/>
<stop offset="0.8639" stop-color="#B5B5B5"/>
<stop offset="1" stop-color="#A6A6A6"/>
</radialGradient>
<radialGradient id="paint38_radial_660_797" cx="0" cy="0" r="1" gradientUnits="userSpaceOnUse" gradientTransform="translate(1384.21 119.851) rotate(-167.754) scale(140.358 140.358)">
<stop stop-color="white"/>
<stop offset="0.28" stop-color="#E5E5E5"/>
<stop offset="0.4639" stop-color="#D1D1D1"/>
<stop offset="0.6229" stop-color="#CACACA"/>
<stop offset="0.8639" stop-color="#B5B5B5"/>
<stop offset="1" stop-color="#A6A6A6"/>
</radialGradient>
<radialGradient id="paint39_radial_660_797" cx="0" cy="0" r="1" gradientUnits="userSpaceOnUse" gradientTransform="translate(1324.49 185.713) rotate(-167.754) scale(91.1356)">
<stop stop-color="white"/>
<stop offset="0.28" stop-color="#E5E5E5"/>
<stop offset="0.4639" stop-color="#D1D1D1"/>
<stop offset="0.6229" stop-color="#CACACA"/>
<stop offset="0.8639" stop-color="#B5B5B5"/>
<stop offset="1" stop-color="#A6A6A6"/>
</radialGradient>
<linearGradient id="paint40_linear_660_797" x1="1401.78" y1="115.617" x2="1400.13" y2="148.881" gradientUnits="userSpaceOnUse">
<stop stop-color="#A6A6A6"/>
<stop offset="0.2455" stop-color="#6F6F6F"/>
<stop offset="0.491" stop-color="#3F3F3F"/>
<stop offset="0.7066" stop-color="#1D1D1D"/>
<stop offset="0.8837" stop-color="#080808"/>
<stop offset="1"/>
</linearGradient>
<linearGradient id="paint41_linear_660_797" x1="1381.27" y1="114.596" x2="1379.62" y2="147.861" gradientUnits="userSpaceOnUse">
<stop stop-color="#A6A6A6"/>
<stop offset="0.2455" stop-color="#6F6F6F"/>
<stop offset="0.491" stop-color="#3F3F3F"/>
<stop offset="0.7066" stop-color="#1D1D1D"/>
<stop offset="0.8837" stop-color="#080808"/>
<stop offset="1"/>
</linearGradient>
<linearGradient id="paint42_linear_660_797" x1="1360.6" y1="113.569" x2="1358.95" y2="146.834" gradientUnits="userSpaceOnUse">
<stop stop-color="#A6A6A6"/>
<stop offset="0.2455" stop-color="#6F6F6F"/>
<stop offset="0.491" stop-color="#3F3F3F"/>
<stop offset="0.7066" stop-color="#1D1D1D"/>
<stop offset="0.8837" stop-color="#080808"/>
<stop offset="1"/>
</linearGradient>
<linearGradient id="paint43_linear_660_797" x1="1410.86" y1="201.379" x2="1387.23" y2="168.641" gradientUnits="userSpaceOnUse">
<stop stop-color="#A6A6A6"/>
<stop offset="0.2455" stop-color="#6F6F6F"/>
<stop offset="0.491" stop-color="#3F3F3F"/>
<stop offset="0.7066" stop-color="#1D1D1D"/>
<stop offset="0.8837" stop-color="#080808"/>
<stop offset="1"/>
</linearGradient>
<linearGradient id="paint44_linear_660_797" x1="1312.56" y1="202.519" x2="1386.5" y2="172.699" gradientUnits="userSpaceOnUse">
<stop stop-color="#A6A6A6"/>
<stop offset="0.2455" stop-color="#6F6F6F"/>
<stop offset="0.491" stop-color="#3F3F3F"/>
<stop offset="0.7066" stop-color="#1D1D1D"/>
<stop offset="0.8837" stop-color="#080808"/>
<stop offset="1"/>
</linearGradient>
<linearGradient id="paint45_linear_660_797" x1="1305.75" y1="185.627" x2="1379.68" y2="155.811" gradientUnits="userSpaceOnUse">
<stop stop-color="#A6A6A6"/>
<stop offset="0.2455" stop-color="#6F6F6F"/>
<stop offset="0.491" stop-color="#3F3F3F"/>
<stop offset="0.7066" stop-color="#1D1D1D"/>
<stop offset="0.8837" stop-color="#080808"/>
<stop offset="1"/>
</linearGradient>
<linearGradient id="paint46_linear_660_797" x1="1300.32" y1="172.151" x2="1374.25" y2="142.332" gradientUnits="userSpaceOnUse">
<stop stop-color="#A6A6A6"/>
<stop offset="0.2455" stop-color="#6F6F6F"/>
<stop offset="0.491" stop-color="#3F3F3F"/>
<stop offset="0.7066" stop-color="#1D1D1D"/>
<stop offset="0.8837" stop-color="#080808"/>
<stop offset="1"/>
</linearGradient>
<linearGradient id="paint47_linear_660_797" x1="1307.27" y1="189.391" x2="1381.21" y2="159.571" gradientUnits="userSpaceOnUse">
<stop stop-color="#A6A6A6"/>
<stop offset="0.2455" stop-color="#6F6F6F"/>
<stop offset="0.491" stop-color="#3F3F3F"/>
<stop offset="0.7066" stop-color="#1D1D1D"/>
<stop offset="0.8837" stop-color="#080808"/>
<stop offset="1"/>
</linearGradient>
<radialGradient id="paint48_radial_660_797" cx="0" cy="0" r="1" gradientUnits="userSpaceOnUse" gradientTransform="translate(1227.84 30.7251) rotate(32.4505) scale(91.4008 91.4008)">
<stop stop-color="white"/>
<stop offset="0.28" stop-color="#E5E5E5"/>
<stop offset="0.4639" stop-color="#D1D1D1"/>
<stop offset="0.6229" stop-color="#CACACA"/>
<stop offset="0.8639" stop-color="#B5B5B5"/>
<stop offset="1" stop-color="#A6A6A6"/>
</radialGradient>
<radialGradient id="paint49_radial_660_797" cx="0" cy="0" r="1" gradientUnits="userSpaceOnUse" gradientTransform="translate(1128.53 36.043) rotate(32.4506) scale(91.5042 91.5042)">
<stop stop-color="white"/>
<stop offset="0.28" stop-color="#E5E5E5"/>
<stop offset="0.4639" stop-color="#D1D1D1"/>
<stop offset="0.6229" stop-color="#CACACA"/>
<stop offset="0.8639" stop-color="#B5B5B5"/>
<stop offset="1" stop-color="#A6A6A6"/>
</radialGradient>
<radialGradient id="paint50_radial_660_797" cx="0" cy="0" r="1" gradientUnits="userSpaceOnUse" gradientTransform="translate(1245.55 -4.42867) rotate(32.4505) scale(181.586 181.586)">
<stop stop-color="white"/>
<stop offset="0.28" stop-color="#E5E5E5"/>
<stop offset="0.4639" stop-color="#D1D1D1"/>
<stop offset="0.6229" stop-color="#CACACA"/>
<stop offset="0.8639" stop-color="#B5B5B5"/>
<stop offset="1" stop-color="#A6A6A6"/>
</radialGradient>
<radialGradient id="paint51_radial_660_797" cx="0" cy="0" r="1" gradientUnits="userSpaceOnUse" gradientTransform="translate(1240.7 72.5517) rotate(32.4505) scale(61.0491 61.0491)">
<stop stop-color="white"/>
<stop offset="0.28" stop-color="#E5E5E5"/>
<stop offset="0.4639" stop-color="#D1D1D1"/>
<stop offset="0.6229" stop-color="#CACACA"/>
<stop offset="0.8639" stop-color="#B5B5B5"/>
<stop offset="1" stop-color="#A6A6A6"/>
</radialGradient>
<linearGradient id="paint52_linear_660_797" x1="1270.32" y1="-1.07682" x2="1237.36" y2="36.7607" gradientUnits="userSpaceOnUse">
<stop stop-color="#A6A6A6"/>
<stop offset="0.2455" stop-color="#6F6F6F"/>
<stop offset="0.491" stop-color="#3F3F3F"/>
<stop offset="0.7066" stop-color="#1D1D1D"/>
<stop offset="0.8837" stop-color="#080808"/>
<stop offset="1"/>
</linearGradient>
<linearGradient id="paint53_linear_660_797" x1="1259.94" y1="-10.1159" x2="1226.99" y2="27.7239" gradientUnits="userSpaceOnUse">
<stop stop-color="#A6A6A6"/>
<stop offset="0.2455" stop-color="#6F6F6F"/>
<stop offset="0.491" stop-color="#3F3F3F"/>
<stop offset="0.7066" stop-color="#1D1D1D"/>
<stop offset="0.8837" stop-color="#080808"/>
<stop offset="1"/>
</linearGradient>
<linearGradient id="paint54_linear_660_797" x1="1260.94" y1="-9.24275" x2="1227.99" y2="28.5884" gradientUnits="userSpaceOnUse">
<stop stop-color="#A6A6A6"/>
<stop offset="0.2455" stop-color="#6F6F6F"/>
<stop offset="0.491" stop-color="#3F3F3F"/>
<stop offset="0.7066" stop-color="#1D1D1D"/>
<stop offset="0.8837" stop-color="#080808"/>
<stop offset="1"/>
</linearGradient>
<linearGradient id="paint55_linear_660_797" x1="1250.43" y1="-18.4017" x2="1217.47" y2="19.4401" gradientUnits="userSpaceOnUse">
<stop stop-color="#A6A6A6"/>
<stop offset="0.2455" stop-color="#6F6F6F"/>
<stop offset="0.491" stop-color="#3F3F3F"/>
<stop offset="0.7066" stop-color="#1D1D1D"/>
<stop offset="0.8837" stop-color="#080808"/>
<stop offset="1"/>
</linearGradient>
<linearGradient id="paint56_linear_660_797" x1="1253.3" y1="-15.8989" x2="1220.34" y2="21.9369" gradientUnits="userSpaceOnUse">
<stop stop-color="#A6A6A6"/>
<stop offset="0.2455" stop-color="#6F6F6F"/>
<stop offset="0.491" stop-color="#3F3F3F"/>
<stop offset="0.7066" stop-color="#1D1D1D"/>
<stop offset="0.8837" stop-color="#080808"/>
<stop offset="1"/>
</linearGradient>
<linearGradient id="paint57_linear_660_797" x1="1242.91" y1="-24.95" x2="1209.95" y2="12.8905" gradientUnits="userSpaceOnUse">
<stop stop-color="#A6A6A6"/>
<stop offset="0.2455" stop-color="#6F6F6F"/>
<stop offset="0.491" stop-color="#3F3F3F"/>
<stop offset="0.7066" stop-color="#1D1D1D"/>
<stop offset="0.8837" stop-color="#080808"/>
<stop offset="1"/>
</linearGradient>
<linearGradient id="paint58_linear_660_797" x1="1152.77" y1="52.5396" x2="1227.72" y2="45.7864" gradientUnits="userSpaceOnUse">
<stop stop-color="#A6A6A6"/>
<stop offset="0.2455" stop-color="#6F6F6F"/>
<stop offset="0.491" stop-color="#3F3F3F"/>
<stop offset="0.7066" stop-color="#1D1D1D"/>
<stop offset="0.8837" stop-color="#080808"/>
<stop offset="1"/>
</linearGradient>
<linearGradient id="paint59_linear_660_797" x1="1151.05" y1="33.4636" x2="1226" y2="26.7098" gradientUnits="userSpaceOnUse">
<stop stop-color="#A6A6A6"/>
<stop offset="0.2455" stop-color="#6F6F6F"/>
<stop offset="0.491" stop-color="#3F3F3F"/>
<stop offset="0.7066" stop-color="#1D1D1D"/>
<stop offset="0.8837" stop-color="#080808"/>
<stop offset="1"/>
</linearGradient>
<linearGradient id="paint60_linear_660_797" x1="1151.17" y1="34.8748" x2="1226.13" y2="28.121" gradientUnits="userSpaceOnUse">
<stop stop-color="#A6A6A6"/>
<stop offset="0.2455" stop-color="#6F6F6F"/>
<stop offset="0.491" stop-color="#3F3F3F"/>
<stop offset="0.7066" stop-color="#1D1D1D"/>
<stop offset="0.8837" stop-color="#080808"/>
<stop offset="1"/>
</linearGradient>
<linearGradient id="paint61_linear_660_797" x1="1149.61" y1="17.4412" x2="1224.55" y2="10.6879" gradientUnits="userSpaceOnUse">
<stop stop-color="#A6A6A6"/>
<stop offset="0.2455" stop-color="#6F6F6F"/>
<stop offset="0.491" stop-color="#3F3F3F"/>
<stop offset="0.7066" stop-color="#1D1D1D"/>
<stop offset="0.8837" stop-color="#080808"/>
<stop offset="1"/>
</linearGradient>
<linearGradient id="paint62_linear_660_797" x1="1151.35" y1="36.7243" x2="1226.29" y2="29.9712" gradientUnits="userSpaceOnUse">
<stop stop-color="#A6A6A6"/>
<stop offset="0.2455" stop-color="#6F6F6F"/>
<stop offset="0.491" stop-color="#3F3F3F"/>
<stop offset="0.7066" stop-color="#1D1D1D"/>
<stop offset="0.8837" stop-color="#080808"/>
<stop offset="1"/>
</linearGradient>
<linearGradient id="paint63_linear_660_797" x1="1238.54" y1="97.4517" x2="1210" y2="36.5052" gradientUnits="userSpaceOnUse">
<stop stop-color="#A6A6A6"/>
<stop offset="0.2455" stop-color="#6F6F6F"/>
<stop offset="0.491" stop-color="#3F3F3F"/>
<stop offset="0.7066" stop-color="#1D1D1D"/>
<stop offset="0.8837" stop-color="#080808"/>
<stop offset="1"/>
</linearGradient>
<linearGradient id="paint64_linear_660_797" x1="1268.35" y1="83.4972" x2="1239.81" y2="22.5395" gradientUnits="userSpaceOnUse">
<stop stop-color="#A6A6A6"/>
<stop offset="0.2455" stop-color="#6F6F6F"/>
<stop offset="0.491" stop-color="#3F3F3F"/>
<stop offset="0.7066" stop-color="#1D1D1D"/>
<stop offset="0.8837" stop-color="#080808"/>
<stop offset="1"/>
</linearGradient>
<radialGradient id="paint65_radial_660_797" cx="0" cy="0" r="1" gradientUnits="userSpaceOnUse" gradientTransform="translate(970.299 24.9616) rotate(-12.246) scale(103.807 103.807)">
<stop stop-color="white"/>
<stop offset="0.28" stop-color="#E5E5E5"/>
<stop offset="0.4639" stop-color="#D1D1D1"/>
<stop offset="0.6229" stop-color="#CACACA"/>
<stop offset="0.8639" stop-color="#B5B5B5"/>
<stop offset="1" stop-color="#A6A6A6"/>
</radialGradient>
<radialGradient id="paint66_radial_660_797" cx="0" cy="0" r="1" gradientUnits="userSpaceOnUse" gradientTransform="translate(914.611 96.1664) rotate(-12.246) scale(85.852 85.852)">
<stop stop-color="white"/>
<stop offset="0.28" stop-color="#E5E5E5"/>
<stop offset="0.4639" stop-color="#D1D1D1"/>
<stop offset="0.6229" stop-color="#CACACA"/>
<stop offset="0.8639" stop-color="#B5B5B5"/>
<stop offset="1" stop-color="#A6A6A6"/>
</radialGradient>
<radialGradient id="paint67_radial_660_797" cx="0" cy="0" r="1" gradientUnits="userSpaceOnUse" gradientTransform="translate(961.56 -12.22) rotate(-12.246) scale(140.358 140.358)">
<stop stop-color="white"/>
<stop offset="0.28" stop-color="#E5E5E5"/>
<stop offset="0.4639" stop-color="#D1D1D1"/>
<stop offset="0.6229" stop-color="#CACACA"/>
<stop offset="0.8639" stop-color="#B5B5B5"/>
<stop offset="1" stop-color="#A6A6A6"/>
</radialGradient>
<radialGradient id="paint68_radial_660_797" cx="0" cy="0" r="1" gradientUnits="userSpaceOnUse" gradientTransform="translate(1021.28 53.6416) rotate(-12.246) scale(91.1356 91.1356)">
<stop stop-color="white"/>
<stop offset="0.28" stop-color="#E5E5E5"/>
<stop offset="0.4639" stop-color="#D1D1D1"/>
<stop offset="0.6229" stop-color="#CACACA"/>
<stop offset="0.8639" stop-color="#B5B5B5"/>
<stop offset="1" stop-color="#A6A6A6"/>
</radialGradient>
<linearGradient id="paint69_linear_660_797" x1="943.986" y1="-16.4537" x2="945.639" y2="16.8098" gradientUnits="userSpaceOnUse">
<stop stop-color="#A6A6A6"/>
<stop offset="0.2455" stop-color="#6F6F6F"/>
<stop offset="0.491" stop-color="#3F3F3F"/>
<stop offset="0.7066" stop-color="#1D1D1D"/>
<stop offset="0.8837" stop-color="#080808"/>
<stop offset="1"/>
</linearGradient>
<linearGradient id="paint70_linear_660_797" x1="964.499" y1="-17.4749" x2="966.152" y2="15.7904" gradientUnits="userSpaceOnUse">
<stop stop-color="#A6A6A6"/>
<stop offset="0.2455" stop-color="#6F6F6F"/>
<stop offset="0.491" stop-color="#3F3F3F"/>
<stop offset="0.7066" stop-color="#1D1D1D"/>
<stop offset="0.8837" stop-color="#080808"/>
<stop offset="1"/>
</linearGradient>
<linearGradient id="paint71_linear_660_797" x1="985.166" y1="-18.502" x2="986.819" y2="14.763" gradientUnits="userSpaceOnUse">
<stop stop-color="#A6A6A6"/>
<stop offset="0.2455" stop-color="#6F6F6F"/>
<stop offset="0.491" stop-color="#3F3F3F"/>
<stop offset="0.7066" stop-color="#1D1D1D"/>
<stop offset="0.8837" stop-color="#080808"/>
<stop offset="1"/>
</linearGradient>
<linearGradient id="paint72_linear_660_797" x1="934.913" y1="69.3076" x2="958.535" y2="36.5705" gradientUnits="userSpaceOnUse">
<stop stop-color="#A6A6A6"/>
<stop offset="0.2455" stop-color="#6F6F6F"/>
<stop offset="0.491" stop-color="#3F3F3F"/>
<stop offset="0.7066" stop-color="#1D1D1D"/>
<stop offset="0.8837" stop-color="#080808"/>
<stop offset="1"/>
</linearGradient>
<linearGradient id="paint73_linear_660_797" x1="1033.21" y1="70.4479" x2="959.269" y2="40.6277" gradientUnits="userSpaceOnUse">
<stop stop-color="#A6A6A6"/>
<stop offset="0.2455" stop-color="#6F6F6F"/>
<stop offset="0.491" stop-color="#3F3F3F"/>
<stop offset="0.7066" stop-color="#1D1D1D"/>
<stop offset="0.8837" stop-color="#080808"/>
<stop offset="1"/>
</linearGradient>
<linearGradient id="paint74_linear_660_797" x1="1040.02" y1="53.556" x2="966.086" y2="23.7402" gradientUnits="userSpaceOnUse">
<stop stop-color="#A6A6A6"/>
<stop offset="0.2455" stop-color="#6F6F6F"/>
<stop offset="0.491" stop-color="#3F3F3F"/>
<stop offset="0.7066" stop-color="#1D1D1D"/>
<stop offset="0.8837" stop-color="#080808"/>
<stop offset="1"/>
</linearGradient>
<linearGradient id="paint75_linear_660_797" x1="1045.45" y1="40.0799" x2="971.517" y2="10.2615" gradientUnits="userSpaceOnUse">
<stop stop-color="#A6A6A6"/>
<stop offset="0.2455" stop-color="#6F6F6F"/>
<stop offset="0.491" stop-color="#3F3F3F"/>
<stop offset="0.7066" stop-color="#1D1D1D"/>
<stop offset="0.8837" stop-color="#080808"/>
<stop offset="1"/>
</linearGradient>
<linearGradient id="paint76_linear_660_797" x1="1038.5" y1="57.3202" x2="964.564" y2="27.5002" gradientUnits="userSpaceOnUse">
<stop stop-color="#A6A6A6"/>
<stop offset="0.2455" stop-color="#6F6F6F"/>
<stop offset="0.491" stop-color="#3F3F3F"/>
<stop offset="0.7066" stop-color="#1D1D1D"/>
<stop offset="0.8837" stop-color="#080808"/>
<stop offset="1"/>
</linearGradient>
<radialGradient id="paint77_radial_660_797" cx="0" cy="0" r="1" gradientUnits="userSpaceOnUse" gradientTransform="translate(73.9702 55.0214) rotate(-167.754) scale(103.807 103.807)">
<stop stop-color="white"/>
<stop offset="0.28" stop-color="#E5E5E5"/>
<stop offset="0.4639" stop-color="#D1D1D1"/>
<stop offset="0.6229" stop-color="#CACACA"/>
<stop offset="0.8639" stop-color="#B5B5B5"/>
<stop offset="1" stop-color="#A6A6A6"/>
</radialGradient>
<radialGradient id="paint78_radial_660_797" cx="0" cy="0" r="1" gradientUnits="userSpaceOnUse" gradientTransform="translate(129.658 126.226) rotate(-167.754) scale(85.852 85.852)">
<stop stop-color="white"/>
<stop offset="0.28" stop-color="#E5E5E5"/>
<stop offset="0.4639" stop-color="#D1D1D1"/>
<stop offset="0.6229" stop-color="#CACACA"/>
<stop offset="0.8639" stop-color="#B5B5B5"/>
<stop offset="1" stop-color="#A6A6A6"/>
</radialGradient>
<radialGradient id="paint79_radial_660_797" cx="0" cy="0" r="1" gradientUnits="userSpaceOnUse" gradientTransform="translate(82.7086 17.8399) rotate(-167.754) scale(140.358 140.358)">
<stop stop-color="white"/>
<stop offset="0.28" stop-color="#E5E5E5"/>
<stop offset="0.4639" stop-color="#D1D1D1"/>
<stop offset="0.6229" stop-color="#CACACA"/>
<stop offset="0.8639" stop-color="#B5B5B5"/>
<stop offset="1" stop-color="#A6A6A6"/>
</radialGradient>
<radialGradient id="paint80_radial_660_797" cx="0" cy="0" r="1" gradientUnits="userSpaceOnUse" gradientTransform="translate(22.9897 83.7015) rotate(-167.754) scale(91.1356 91.1356)">
<stop stop-color="white"/>
<stop offset="0.28" stop-color="#E5E5E5"/>
<stop offset="0.4639" stop-color="#D1D1D1"/>
<stop offset="0.6229" stop-color="#CACACA"/>
<stop offset="0.8639" stop-color="#B5B5B5"/>
<stop offset="1" stop-color="#A6A6A6"/>
</radialGradient>
<linearGradient id="paint81_linear_660_797" x1="100.283" y1="13.6064" x2="98.6301" y2="46.87" gradientUnits="userSpaceOnUse">
<stop stop-color="#A6A6A6"/>
<stop offset="0.2455" stop-color="#6F6F6F"/>
<stop offset="0.491" stop-color="#3F3F3F"/>
<stop offset="0.7066" stop-color="#1D1D1D"/>
<stop offset="0.8837" stop-color="#080808"/>
<stop offset="1"/>
</linearGradient>
<linearGradient id="paint82_linear_660_797" x1="79.7697" y1="12.5852" x2="78.1168" y2="45.8504" gradientUnits="userSpaceOnUse">
<stop stop-color="#A6A6A6"/>
<stop offset="0.2455" stop-color="#6F6F6F"/>
<stop offset="0.491" stop-color="#3F3F3F"/>
<stop offset="0.7066" stop-color="#1D1D1D"/>
<stop offset="0.8837" stop-color="#080808"/>
<stop offset="1"/>
</linearGradient>
<linearGradient id="paint83_linear_660_797" x1="59.1031" y1="11.5579" x2="57.4502" y2="44.8229" gradientUnits="userSpaceOnUse">
<stop stop-color="#A6A6A6"/>
<stop offset="0.2455" stop-color="#6F6F6F"/>
<stop offset="0.491" stop-color="#3F3F3F"/>
<stop offset="0.7066" stop-color="#1D1D1D"/>
<stop offset="0.8837" stop-color="#080808"/>
<stop offset="1"/>
</linearGradient>
<linearGradient id="paint84_linear_660_797" x1="109.356" y1="99.3676" x2="85.7336" y2="66.6304" gradientUnits="userSpaceOnUse">
<stop stop-color="#A6A6A6"/>
<stop offset="0.2455" stop-color="#6F6F6F"/>
<stop offset="0.491" stop-color="#3F3F3F"/>
<stop offset="0.7066" stop-color="#1D1D1D"/>
<stop offset="0.8837" stop-color="#080808"/>
<stop offset="1"/>
</linearGradient>
<linearGradient id="paint85_linear_660_797" x1="11.0599" y1="100.508" x2="85.0002" y2="70.6876" gradientUnits="userSpaceOnUse">
<stop stop-color="#A6A6A6"/>
<stop offset="0.2455" stop-color="#6F6F6F"/>
<stop offset="0.491" stop-color="#3F3F3F"/>
<stop offset="0.7066" stop-color="#1D1D1D"/>
<stop offset="0.8837" stop-color="#080808"/>
<stop offset="1"/>
</linearGradient>
<linearGradient id="paint86_linear_660_797" x1="4.25368" y1="83.6159" x2="78.183" y2="53.8001" gradientUnits="userSpaceOnUse">
<stop stop-color="#A6A6A6"/>
<stop offset="0.2455" stop-color="#6F6F6F"/>
<stop offset="0.491" stop-color="#3F3F3F"/>
<stop offset="0.7066" stop-color="#1D1D1D"/>
<stop offset="0.8837" stop-color="#080808"/>
<stop offset="1"/>
</linearGradient>
<linearGradient id="paint87_linear_660_797" x1="-1.18374" y1="70.1398" x2="72.7523" y2="40.3214" gradientUnits="userSpaceOnUse">
<stop stop-color="#A6A6A6"/>
<stop offset="0.2455" stop-color="#6F6F6F"/>
<stop offset="0.491" stop-color="#3F3F3F"/>
<stop offset="0.7066" stop-color="#1D1D1D"/>
<stop offset="0.8837" stop-color="#080808"/>
<stop offset="1"/>
</linearGradient>
<linearGradient id="paint88_linear_660_797" x1="5.76542" y1="87.3802" x2="79.7055" y2="57.5601" gradientUnits="userSpaceOnUse">
<stop stop-color="#A6A6A6"/>
<stop offset="0.2455" stop-color="#6F6F6F"/>
<stop offset="0.491" stop-color="#3F3F3F"/>
<stop offset="0.7066" stop-color="#1D1D1D"/>
<stop offset="0.8837" stop-color="#080808"/>
<stop offset="1"/>
</linearGradient>
<clipPath id="clip0_660_797">
<rect width="1440" height="276" fill="white"/>
</clipPath>
</defs>
</svg>
