<svg width="574" height="334" viewBox="0 0 574 334" fill="none" xmlns="http://www.w3.org/2000/svg">
<g clip-path="url(#clip0_1036_187)">
<path opacity="0.1" d="M221.846 2.82422L0 131.572L350.1 334L574 203.199L221.846 2.82422Z" fill="#D1D3D4"/>
<path opacity="0.1214" d="M221.974 3.20947L0.641602 131.572L349.971 333.487L573.229 202.942L221.974 3.20947Z" fill="#D0D2D3"/>
<path opacity="0.1429" d="M222.103 3.46582L1.28418 131.7L349.715 332.973L572.588 202.813L222.103 3.46582Z" fill="#CFD1D2"/>
<path opacity="0.1643" d="M222.23 3.85107L2.05371 131.7L349.586 332.588L571.817 202.685L222.23 3.85107Z" fill="#CED0D1"/>
<path opacity="0.1857" d="M222.359 4.10791L2.69629 131.701L349.33 332.075L571.047 202.557L222.359 4.10791Z" fill="#CDCFD0"/>
<path opacity="0.2071" d="M222.488 4.49316L3.33789 131.701L349.201 331.562L570.277 202.3L222.488 4.49316Z" fill="#CCCECF"/>
<path opacity="0.2286" d="M222.616 4.74951L3.97949 131.7L348.944 331.048L569.506 202.171L222.616 4.74951Z" fill="#CBCDCE"/>
<path opacity="0.25" d="M222.745 5.13477L4.62207 131.7L348.817 330.663L568.737 202.043L222.745 5.13477Z" fill="#CACCCD"/>
<path opacity="0.2714" d="M222.744 5.52002L5.26367 131.701L348.56 330.15L568.094 201.915L222.744 5.52002Z" fill="#C9CBCC"/>
<path opacity="0.2929" d="M222.873 5.77637L6.03418 131.7L348.431 329.636L567.324 201.658L222.873 5.77637Z" fill="#C8CACB"/>
<path opacity="0.3143" d="M223.001 6.16162L6.67578 131.829L348.174 329.122L566.554 201.53L223.001 6.16162Z" fill="#C7C9CA"/>
<path opacity="0.3357" d="M223.129 6.41846L7.31738 131.829L347.917 328.737L565.783 201.402L223.129 6.41846Z" fill="#C6C8C9"/>
<path opacity="0.3571" d="M223.258 6.80322L7.95996 131.829L347.79 328.224L565.013 201.273L223.258 6.80322Z" fill="#C5C7C8"/>
<path opacity="0.3786" d="M223.386 7.18848L8.60156 131.829L347.532 327.71L564.371 201.016L223.386 7.18848Z" fill="#C4C6C7"/>
<path opacity="0.4" d="M223.515 7.44531L9.37207 131.829L347.404 327.197L563.601 200.888L223.515 7.44531Z" fill="#C3C5C6"/>
<path opacity="0.4214" d="M223.643 7.83057L10.0137 131.829L347.147 326.812L562.831 200.76L223.643 7.83057Z" fill="#C2C4C5"/>
<path opacity="0.4429" d="M223.772 8.08691L10.6562 131.829L347.019 326.298L562.061 200.631L223.772 8.08691Z" fill="#C1C3C4"/>
<path opacity="0.4643" d="M223.9 8.47217L11.2979 131.829L346.762 325.785L561.29 200.375L223.9 8.47217Z" fill="#C0C2C3"/>
<path opacity="0.4857" d="M224.028 8.729L11.9395 131.829L346.634 325.272L560.648 200.246L224.028 8.729Z" fill="#BFC1C2"/>
<path opacity="0.5071" d="M224.156 9.11377L12.5811 131.957L346.377 324.886L559.877 200.118L224.156 9.11377Z" fill="#BEC0C1"/>
<path opacity="0.5286" d="M224.285 9.49902L13.3516 131.957L346.248 324.373L559.107 199.989L224.285 9.49902Z" fill="#BDBFC0"/>
<path opacity="0.55" d="M224.414 9.75586L13.9941 131.957L345.992 323.86L558.338 199.733L224.414 9.75586Z" fill="#BDBFC0"/>
<path opacity="0.5714" d="M224.542 10.1411L14.6357 131.957L345.864 323.346L557.567 199.605L224.542 10.1411Z" fill="#BCBEBF"/>
<path opacity="0.5929" d="M224.542 10.3975L15.2773 131.957L345.607 322.832L556.797 199.476L224.542 10.3975Z" fill="#BBBDBE"/>
<path opacity="0.6143" d="M224.671 10.7827L15.9199 131.957L345.479 322.448L556.155 199.348L224.671 10.7827Z" fill="#BABCBD"/>
<path opacity="0.6357" d="M224.798 11.168L16.6895 131.957L345.221 321.934L555.384 199.091L224.798 11.168Z" fill="#B9BBBC"/>
<path opacity="0.6571" d="M224.927 11.4243L17.332 131.957L345.094 321.42L554.615 198.962L224.927 11.4243Z" fill="#B8BABB"/>
<path opacity="0.6786" d="M225.055 11.8096L17.9736 131.957L344.837 320.907L553.844 198.834L225.055 11.8096Z" fill="#B7B9BA"/>
<path opacity="0.7" d="M225.183 12.0664L18.6152 132.086L344.708 320.522L553.073 198.706L225.183 12.0664Z" fill="#B6B8B9"/>
<path opacity="0.7214" d="M225.312 12.4517L19.2578 132.086L344.452 320.009L552.432 198.449L225.312 12.4517Z" fill="#B5B7B8"/>
<path opacity="0.7429" d="M225.44 12.708L19.8994 132.085L344.195 319.495L551.661 198.321L225.44 12.708Z" fill="#B4B6B7"/>
<path opacity="0.7643" d="M225.569 13.0933L20.6699 132.086L344.066 318.982L550.891 198.192L225.569 13.0933Z" fill="#B3B5B6"/>
<path opacity="0.7857" d="M225.697 13.4785L21.3115 132.086L343.809 318.597L550.121 198.064L225.697 13.4785Z" fill="#B2B4B5"/>
<path opacity="0.8071" d="M225.825 13.7349L21.9531 132.085L343.681 318.083L549.35 197.807L225.825 13.7349Z" fill="#B1B3B4"/>
<path opacity="0.8286" d="M225.954 14.1201L22.5957 132.086L343.425 317.57L548.58 197.679L225.954 14.1201Z" fill="#B0B2B3"/>
<path opacity="0.85" d="M226.082 14.377L23.2373 132.086L343.296 317.056L547.938 197.551L226.082 14.377Z" fill="#AFB1B2"/>
<path opacity="0.8714" d="M226.211 14.7617L24.0078 132.085L343.039 316.671L547.168 197.294L226.211 14.7617Z" fill="#AEB0B1"/>
<path opacity="0.8929" d="M226.211 15.147L24.6494 132.214L342.911 316.158L546.398 197.165L226.211 15.147Z" fill="#ADAFB0"/>
<path opacity="0.9143" d="M226.339 15.4038L25.291 132.214L342.654 315.644L545.627 197.037L226.339 15.4038Z" fill="#ACAEAF"/>
<path opacity="0.9357" d="M226.468 15.7891L25.9336 132.214L342.526 315.131L544.857 196.909L226.468 15.7891Z" fill="#ABADAE"/>
<path opacity="0.9571" d="M226.596 16.0454L26.5752 132.214L342.269 314.617L544.215 196.652L226.596 16.0454Z" fill="#AAACAD"/>
<path opacity="0.9786" d="M226.724 16.4307L27.2168 132.214L342.14 314.232L543.444 196.524L226.724 16.4307Z" fill="#A9ABAC"/>
<path d="M226.852 16.6875L27.9873 132.214L341.883 313.719L542.674 196.395L226.852 16.6875Z" fill="#A8AAAB"/>
<path d="M350.1 331.176L574 200.374L492.092 133.497L407.744 105.257L325.066 41.0761L221.846 0L0 128.748L101.423 169.952L185.513 235.546L268.192 263.529L350.1 331.176Z" fill="#8815AD"/>
<path d="M271.401 257.881L188.594 229.77L104.76 164.304L14.5068 127.721L222.359 7.06006L321.855 46.7242L404.663 111.034L489.01 139.145L562.83 199.476L350.742 323.346L271.401 257.881Z" fill="#F0CCFF"/>
<path d="M229.036 73.937L221.333 78.5581L230.833 89.7256L244.442 82.9224L229.036 73.937Z" fill="#45108A"/>
<path d="M177.041 220.913L224.286 191.261L240.333 203.199C240.462 203.327 240.719 203.455 240.847 203.455L250.732 206.793L226.596 220.913L228.522 224.25L256.381 207.948C257.023 207.563 257.408 206.793 257.28 206.151C257.152 205.381 256.638 204.739 255.996 204.482L242.388 199.861L227.752 189.079L241.617 180.35L239.563 177.141L173.831 218.346L177.041 220.913Z" fill="#841CB5"/>
<path d="M73.0503 108.723L30.2988 134.139L34.6638 135.936L77.5437 110.649L77.287 110.392L96.8012 117.58L98.2134 113.986L61.6243 100.38L57.3876 102.947L73.0503 108.723Z" fill="#841CB5"/>
<path d="M184.487 116.554C184.744 116.682 185.001 116.682 185.257 116.682C185.642 116.682 186.028 116.554 186.284 116.425L202.332 106.413L208.366 108.98L242.773 140.814L245.341 137.99L237.252 130.545L279.49 104.744C280.004 104.487 280.389 103.846 280.389 103.332C280.389 102.69 280.261 102.177 279.747 101.664L256.253 80.8687C256.125 80.7404 256.125 80.7404 255.996 80.7404L230.705 64.695L228.651 67.9041L253.814 83.8211L265.625 94.2185L224.928 119.121L210.677 105.899C210.549 105.771 210.292 105.643 210.164 105.514L156.243 82.5375L154.702 86.1316L197.967 104.616L185.129 112.703L118.627 82.9225L144.56 67.3907L142.634 64.0532L114.262 80.9971L103.477 76.1193L99.3691 78.5582L184.487 116.554ZM268.706 96.9141L275.254 102.69L234.3 127.721L227.88 121.816L268.706 96.9141Z" fill="#841CB5"/>
<path d="M419.941 253.132L417.373 255.827L435.86 273.67L439.327 271.616L419.941 253.132Z" fill="#841CB5"/>
<path d="M277.179 244.147L275.125 240.809L256.767 252.875L261.388 254.416L277.179 244.147Z" fill="#841CB5"/>
<path d="M444.59 181.249C444.719 182.019 445.232 182.532 446.002 182.789L475.916 191.389L476.943 187.667L448.185 179.452L446.516 169.824L493.376 142.868L490.166 140.301L445.874 165.588L444.975 160.454C444.847 159.812 444.462 159.299 443.948 159.042L434.833 154.421L471.422 133.369L466.544 131.701L430.725 152.367L402.866 138.119L401.068 141.585L441.252 162.123L444.59 181.249Z" fill="#841CB5"/>
<path d="M341.628 62.1279L326.992 70.4715L328.918 73.8089L344.837 64.6952L341.628 62.1279Z" fill="#841CB5"/>
<path d="M278.335 132.086L330.458 129.904L377.96 120.148L401.069 132.086L360.885 156.86L346.378 153.009L280.389 176.628L260.361 139.402L278.335 132.086Z" fill="#841CB5"/>
<path d="M220.948 5.00635L138.141 54.426L168.953 69.8296L203.616 55.7097L228.009 57.6351L269.091 35.1716L265.24 22.9771L220.948 5.00635Z" fill="#841CB5"/>
<path d="M298.619 187.923L258.179 202.043L258.821 210.387L264.598 226.432L296.694 240.552L302.471 244.403L305.68 246.97L364.737 259.806L378.859 269.433L408.387 251.463L394.265 227.716L408.387 200.118L394.907 189.207L348.047 168.027L298.619 187.923Z" fill="#841CB5"/>
<path d="M308.761 288.688L343.553 317.441C347.019 299.214 353.31 261.218 355.364 234.391C357.29 209.231 335.85 196.909 324.552 184.714C317.62 177.269 315.052 170.209 312.099 161.48C308.504 150.313 310.559 140.044 312.998 128.234C315.565 116.04 321.856 100.765 317.62 85.4897C312.869 68.4174 289.119 59.6888 265.625 47.751C247.137 38.3805 230.961 23.4904 220.562 8.08691L188.852 26.4428C204.899 45.8256 234.556 54.811 257.665 66.492C271.915 73.6803 287.706 87.5435 289.375 93.7049C291.943 103.075 290.017 112.318 287.835 122.972C285.01 136.45 277.949 152.623 283.598 170.337C288.22 184.457 297.463 194.341 305.552 203.07C316.849 215.136 327.12 221.683 326.093 235.032C324.809 253.26 315.694 274.568 308.761 288.688Z" fill="url(#paint0_linear_1036_187)"/>
<path d="M385.535 280.344L480.923 221.298C482.079 220.527 482.721 219.244 482.721 217.96L481.437 171.878L507.37 154.292L501.208 149.158L475.403 166.615C474.376 167.385 473.734 168.54 473.734 169.952L475.018 215.906L379.372 275.082L379.501 275.21L365.892 263.914C365.379 263.529 364.737 263.272 364.095 263.144L302.343 251.206L296.052 244.916C295.667 244.531 295.153 244.274 294.64 244.018L215.684 214.751L151.493 159.042L227.239 113.601C228.779 112.703 229.55 110.649 228.908 108.98L216.326 75.9908L271.146 45.3121L299.775 56.608L380.913 120.404C381.041 120.533 381.298 120.661 381.555 120.789L403.637 132.342L358.189 160.967L362.297 167.514L435.604 121.431L426.104 118.222L410.441 128.106L410.826 127.464L385.406 114.115L304.14 50.0615C303.883 49.8048 303.498 49.6765 303.113 49.5481L272.301 37.3536C271.274 36.9685 269.99 36.9685 268.963 37.6104L211.319 69.9578L167.669 73.0385L136.472 56.9931L128.512 61.6142L159.196 77.1461L51.4824 142.611L60.3408 146.334L168.182 80.6119L209.008 77.7879L220.691 108.595L143.276 155.062C142.249 155.704 141.479 156.859 141.479 158.015C141.35 159.298 141.864 160.454 142.763 161.224L211.448 220.912C211.833 221.169 212.218 221.426 212.603 221.554L236.225 230.283L220.691 240.552L229.935 243.633L245.084 233.62L291.302 250.821L297.721 257.239C298.234 257.753 299.005 258.138 299.647 258.266L361.527 270.332L394.265 297.673L401.326 293.566L385.535 280.344Z" fill="#A531FF"/>
<path d="M405.434 179.58C405.049 179.195 404.535 178.938 404.022 178.681L350.101 154.934C348.945 154.421 347.533 154.292 346.378 154.806L257.922 185.998L229.934 163.278C231.86 161.096 232.759 158.528 232.759 155.961C232.759 154.677 232.502 153.522 232.117 152.367L269.99 131.444L327.891 127.079C328.661 127.079 329.431 126.823 330.073 126.438L383.352 94.732L374.622 87.9288L325.836 116.939L267.936 121.303C267.165 121.303 266.524 121.56 265.882 121.945L224.799 144.665C221.204 142.74 216.583 141.713 211.832 141.713C209.265 141.713 206.697 141.97 204.386 142.611L181.149 123.742C180.764 123.485 180.379 123.229 179.865 122.972L88.7133 84.7197L77.5439 91.1379L175.115 132.086L194.372 147.746C192.061 150.056 190.778 152.88 190.778 155.833C190.778 157.758 191.291 159.555 192.318 161.352L140.837 192.544L149.438 199.348L200.92 168.027C204.129 169.311 207.981 170.081 211.832 170.081C214.785 170.081 217.738 169.696 220.434 168.926L253.557 195.882C254.969 197.037 256.766 197.294 258.564 196.78L347.79 165.332L399.143 187.923L471.551 252.875L480.923 247.484L405.434 179.58ZM220.563 157.887C218.38 159.17 215.299 159.812 212.089 159.812C208.751 159.812 205.67 159.042 203.488 157.758C201.947 156.86 201.433 155.961 201.433 155.704C201.433 155.448 201.947 154.677 203.488 153.779C205.67 152.495 208.751 151.853 211.961 151.853C215.299 151.853 218.38 152.624 220.563 153.907C222.103 154.806 222.617 155.704 222.617 155.961C222.488 156.089 221.975 156.988 220.563 157.887Z" fill="#45108A"/>
<path d="M482.207 245.687L468.727 232.209L486.7 220.656L507.883 165.46L515.586 162.251L561.162 199.476L482.207 245.687Z" fill="#841CB5"/>
<path d="M140.066 189.207L107.329 164.818L104.119 140.429L89.9971 131.444L120.809 112.189L168.311 130.802L165.101 139.787L140.066 154.549L129.154 161.609L145.844 166.102L150.979 184.714L140.066 189.207Z" fill="#841CB5"/>
<path d="M235.839 86.902C234.299 87.8006 231.731 87.8006 230.191 86.902C228.65 86.0035 228.65 84.5915 230.191 83.6929C231.731 82.7944 234.299 82.7944 235.839 83.6929C237.38 84.5915 237.38 86.0035 235.839 86.902Z" fill="url(#paint1_linear_1036_187)"/>
<path d="M421.61 245.43L444.719 231.823L416.988 206.151L408.771 211.67L424.177 228.743L413.907 235.161L421.61 245.43Z" fill="#841CB5"/>
<path d="M365.121 310.51L388.23 296.775L367.047 278.163L358.959 283.811L357.418 300.241L365.121 310.51Z" fill="#841CB5"/>
<path d="M399.785 148.772L381.426 160.325L393.622 167.128L405.177 163.791L418.272 170.979L432.394 162.892L399.785 148.772Z" fill="#841CB5"/>
<path d="M183.716 83.3076L178.581 86.7734L202.974 97.4275L208.109 92.293L203.359 83.3076H183.716Z" fill="#45108A"/>
<path d="M201.69 195.368L220.049 183.816L212.859 176.627L205.156 180.863L197.839 174.06L184.102 182.147L201.69 195.368Z" fill="#841CB5"/>
<path d="M327.506 110.264L345.094 98.3259L327.506 82.9224L321.472 88.442L330.972 95.7586L322.756 102.562L327.506 110.264Z" fill="#841CB5"/>
<path d="M457.172 220.271L470.011 212.056L469.625 191.518L459.74 189.849L457.172 203.07L452.422 206.536L431.496 188.18L424.691 192.031L457.172 220.271Z" fill="#841CB5"/>
<path d="M258.178 182.147L272.3 174.83L255.995 142.74L243.157 149.671L242.772 159.042L235.968 164.176L258.178 182.147Z" fill="#841CB5"/>
<path d="M367.175 107.439C368.587 110.648 368.587 113.601 367.175 114.243C365.763 114.884 363.452 112.831 362.04 109.75C360.627 106.541 360.627 103.589 362.04 102.947C363.452 102.305 365.763 104.23 367.175 107.439Z" fill="#230F56"/>
<path d="M430.725 134.909C430.725 134.909 433.934 135.679 437.401 135.166C440.738 134.652 442.407 135.423 442.921 137.862C443.434 140.3 443.434 142.354 447.928 144.28C449.854 145.178 453.192 147.232 453.834 148.516C454.475 149.799 454.219 150.441 452.935 150.184C451.651 149.928 449.854 149.414 447.158 148.772C444.462 148.131 432.394 145.82 429.056 141.456C425.718 137.091 430.725 134.909 430.725 134.909Z" fill="#B57A24"/>
<path d="M368.33 109.878C368.33 109.878 357.931 117.195 356.006 116.425C356.006 116.425 354.979 116.04 356.006 114.885L359.857 112.831C359.857 112.831 354.722 115.526 354.208 115.013C353.823 114.499 353.566 114.114 354.85 113.344C356.006 112.574 358.959 111.29 358.959 111.29C358.959 111.29 354.08 113.729 353.695 112.959C352.668 110.905 357.546 109.493 357.546 109.493C357.546 109.493 354.722 107.568 356.262 105.001C356.519 104.616 357.418 104.359 357.931 105.257C358.445 106.156 357.418 107.568 359.215 108.081C361.013 108.595 361.783 105.514 358.188 105.386C356.134 105.257 357.161 103.204 360.114 103.717C361.526 103.974 361.655 104.487 362.553 105.001C363.452 105.514 364.864 105.642 366.148 105.642C367.56 105.642 368.716 105.001 368.716 105.001V109.878" fill="#B57A24"/>
<path d="M393.75 123.357C393.75 123.357 388.23 68.8024 391.567 66.8769C394.777 65.0799 411.467 64.5664 411.467 64.5664V125.667L393.75 123.357Z" fill="#360D75"/>
<path d="M402.608 65.3364L411.467 91.2657V65.3364H402.608Z" fill="#D5E7F3"/>
<path d="M391.568 66.877C391.568 66.877 384.635 78.3012 381.682 92.4212C380.784 96.7855 362.425 102.69 362.425 102.69C362.425 102.69 365.378 103.46 367.047 107.311C368.844 111.676 367.689 113.729 367.689 113.729C367.689 113.729 383.865 108.595 389.128 102.048C392.723 97.5557 395.804 89.0837 395.804 89.0837L391.568 66.877Z" fill="#360D75"/>
<path d="M455.759 107.439C454.347 110.648 454.347 113.601 455.759 114.243C457.172 114.884 459.482 112.831 460.895 109.75C462.307 106.541 462.307 103.589 460.895 102.947C459.482 102.305 457.172 104.23 455.759 107.439Z" fill="#230F56"/>
<path d="M454.603 109.878C454.603 109.878 465.002 117.195 466.928 116.425C466.928 116.425 467.955 116.04 466.928 114.885L463.077 112.831C463.077 112.831 468.212 115.526 468.726 115.013C469.111 114.499 469.368 114.114 468.212 113.344C467.057 112.574 464.104 111.29 464.104 111.29C464.104 111.29 468.982 113.729 469.367 112.959C470.395 110.905 465.516 109.493 465.516 109.493C465.516 109.493 468.34 107.568 466.8 105.001C466.543 104.616 465.644 104.359 465.131 105.257C464.617 106.156 465.644 107.568 463.847 108.081C462.05 108.595 461.279 105.514 464.874 105.386C466.928 105.257 465.901 103.204 462.948 103.717C461.536 103.974 461.408 104.487 460.509 105.001C459.61 105.514 458.198 105.642 456.914 105.642C455.502 105.642 454.347 105.001 454.347 105.001V109.878" fill="#B57A24"/>
<path d="M429.056 123.357C429.056 123.357 434.576 68.8024 431.238 66.8769C428.029 65.0799 411.339 64.5664 411.339 64.5664V125.667L429.056 123.357Z" fill="#360D75"/>
<path d="M420.326 65.3364L411.339 91.2657V65.3364H420.326Z" fill="#D5E7F3"/>
<path d="M411.467 69.0589L414.42 65.5931L411.724 63.2825V62.8975L411.467 63.0258L411.211 62.8975V63.2825L408.515 65.5931L411.339 69.0589V69.1872L411.467 69.0589V69.1872V69.0589Z" fill="#841CB5"/>
<path d="M411.467 91.0088L414.42 83.6921L412.238 66.6198L411.467 66.1064V65.978V66.1064L411.339 65.978V66.1064L410.697 66.6198L408.515 83.6921L411.339 91.0088V91.2655L411.467 91.1371V91.2655V91.0088Z" fill="#841CB5"/>
<path d="M431.367 66.877C431.367 66.877 438.299 78.3012 441.252 92.4212C442.151 96.7855 460.509 102.69 460.509 102.69C460.509 102.69 457.557 103.46 455.888 107.311C454.09 111.676 455.246 113.729 455.246 113.729C455.246 113.729 439.069 108.595 433.806 102.048C430.211 97.5557 427.13 89.0837 427.13 89.0837L431.367 66.877Z" fill="#360D75"/>
<path d="M426.103 65.7214L419.299 64.9512L411.339 91.2655L418.4 79.9696L416.988 78.5576L419.941 77.9158L426.103 65.7214Z" fill="#360D75"/>
<path d="M396.831 65.7214L403.507 64.9512L411.467 91.2655L404.534 79.9696L405.818 78.5576L402.993 77.9158L396.831 65.7214Z" fill="#360D75"/>
<path d="M430.468 144.28L432.651 133.626C432.651 133.626 378.473 108.98 369.871 111.419C361.141 113.858 363.067 121.559 363.067 121.559C363.067 121.559 363.452 126.951 379.629 132.342C395.805 137.733 430.468 144.28 430.468 144.28Z" fill="#45108A"/>
<path d="M390.926 134.909C390.926 134.909 387.716 135.679 384.25 135.166C380.912 134.652 379.243 135.423 378.729 137.862C378.216 140.3 378.216 142.354 373.722 144.28C371.797 145.178 368.459 147.232 367.817 148.516C367.175 149.799 367.432 150.441 368.715 150.184C369.999 149.928 371.797 149.414 374.493 148.772C377.189 148.131 389.257 145.82 392.595 141.456C395.933 137.091 390.926 134.909 390.926 134.909Z" fill="#B57A24"/>
<path d="M458.584 121.688C458.584 121.688 458.198 127.079 442.022 132.47C425.846 137.733 391.183 144.28 391.183 144.28L390.541 141.199L389 133.626C389 133.626 443.178 108.98 451.779 111.419C453.063 111.804 454.09 112.189 454.86 112.831C459.996 116.04 458.584 121.688 458.584 121.688Z" fill="#280B54"/>
<path d="M455.888 118.992C455.888 118.992 455.502 124.383 439.326 129.775C425.461 134.267 398.244 139.787 390.541 141.199L389 133.626C389 133.626 443.178 108.98 451.779 111.419C453.063 111.804 454.09 112.189 454.86 112.831C456.658 115.783 455.888 118.992 455.888 118.992Z" fill="#45108A"/>
<path d="M416.731 57.3779H406.075V64.0528H416.731V57.3779Z" fill="#A0681F"/>
<path d="M419.426 65.0798L416.73 62.2559L411.21 63.1544L414.933 67.9038L419.426 65.0798Z" fill="#E8F3FA"/>
<path d="M403.379 65.0798L406.203 62.2559L411.724 63.1544L408.001 67.9038L403.379 65.0798Z" fill="#E8F3FA"/>
<path d="M396.703 47.3655C395.162 47.3655 394.007 45.44 394.007 43.0011V28.6245H399.527V47.3655C399.527 47.3655 398.243 47.3655 396.703 47.3655Z" fill="#3D2112"/>
<path d="M425.718 47.3655C427.259 47.3655 428.414 45.44 428.414 43.0011V28.6245H422.894V47.3655C423.022 47.3655 424.306 47.3655 425.718 47.3655Z" fill="#3D2112"/>
<path d="M421.224 28.6247C421.224 35.9414 415.062 41.8461 407.615 41.8461C400.041 41.8461 394.007 35.9414 394.007 28.6247C394.007 21.308 400.169 15.4033 407.615 15.4033C415.19 15.5317 421.224 21.4364 421.224 28.6247Z" fill="#3D2112"/>
<path d="M428.542 28.6249C428.542 34.9147 423.279 40.1776 416.603 40.1776C410.055 40.1776 404.663 35.0431 404.663 28.6249C404.663 22.3351 409.927 17.0723 416.603 17.0723C423.15 17.2006 428.542 22.3351 428.542 28.6249Z" fill="#3D2112"/>
<path d="M425.461 42.1025V46.0818C425.461 53.7836 419.17 60.0733 411.467 60.0733C403.764 60.0733 397.474 53.7836 397.474 46.0818V42.1025C397.474 49.8043 403.764 56.0941 411.467 56.0941C419.17 56.0941 425.461 49.8043 425.461 42.1025Z" fill="#A0681F"/>
<path d="M425.461 31.5772V42.8731C425.461 50.8316 419.17 57.3781 411.467 57.3781C403.764 57.3781 397.474 50.8316 397.474 42.8731V31.5772C397.474 23.4903 403.764 20.2812 411.467 20.2812C419.17 20.2812 425.461 23.4903 425.461 31.5772Z" fill="#B57A24"/>
<path d="M400.683 44.2848C400.683 45.8251 399.399 46.9804 397.987 46.9804C396.446 46.9804 395.291 45.6968 395.291 44.2848V40.4339C395.291 38.8935 396.575 37.7383 397.987 37.7383C399.528 37.7383 400.683 39.0219 400.683 40.4339V44.2848Z" fill="#B57A24"/>
<path d="M427.643 44.2848C427.643 45.8251 426.359 46.9804 424.947 46.9804C423.406 46.9804 422.251 45.6968 422.251 44.2848V40.4339C422.251 38.8935 423.535 37.7383 424.947 37.7383C426.488 37.7383 427.643 39.0219 427.643 40.4339V44.2848Z" fill="#B57A24"/>
<path d="M402.48 39.1502C402.48 39.1502 403.379 37.6099 405.305 37.6099C407.102 37.6099 407.744 39.1502 407.744 39.1502" stroke="#3D2112" stroke-width="0.6429" stroke-miterlimit="10" stroke-linecap="round"/>
<path d="M415.961 39.1502C415.961 39.1502 416.86 37.6099 418.785 37.6099C420.583 37.6099 421.225 39.1502 421.225 39.1502" stroke="#3D2112" stroke-width="0.6429" stroke-miterlimit="10" stroke-linecap="round"/>
<g opacity="0.5">
<path d="M405.562 46.9805C406.332 47.7506 407.359 48.2641 408.386 48.6492C409.413 49.0343 410.44 49.1626 411.467 49.1626C412.494 49.1626 413.65 49.0343 414.548 48.7775C415.575 48.3925 416.474 47.879 417.244 46.9805C416.731 48.0074 415.832 48.9059 414.805 49.4194C413.778 49.9328 412.494 50.0612 411.467 50.0612C410.312 50.0612 409.156 49.8045 408.129 49.291C407.102 48.7776 406.075 48.0074 405.562 46.9805Z" fill="#3D2112"/>
</g>
<g opacity="0.5">
<path d="M409.413 43.6431C410.183 44.2849 410.954 44.67 411.724 44.67C412.494 44.67 413.265 44.4132 413.906 43.6431C413.906 44.1565 413.65 44.67 413.265 44.9267C412.879 45.3118 412.238 45.4401 411.724 45.4401C411.21 45.4401 410.697 45.1834 410.312 44.9267C409.798 44.5416 409.413 44.1565 409.413 43.6431Z" fill="#3D2112"/>
</g>
<path d="M415.318 31.962C415.704 31.3202 416.474 31.0635 417.116 30.9351C417.758 30.8068 418.528 30.8068 419.17 30.9351C419.812 31.0635 420.582 31.4486 421.096 31.962C421.609 32.4755 421.994 33.1173 421.994 33.8875C421.352 33.5024 420.839 33.2457 420.325 32.9889C419.812 32.7322 419.298 32.6039 418.785 32.4755C418.271 32.3471 417.758 32.2188 417.116 32.0904C416.602 32.0904 416.089 31.962 415.318 31.962Z" fill="#3D2112"/>
<path d="M400.683 33.8877C400.811 32.3473 402.095 31.1921 403.507 30.807C404.277 30.6786 405.048 30.6786 405.818 30.9353C406.588 31.1921 407.23 31.7055 407.487 32.3473C406.717 32.219 406.203 32.219 405.561 32.219C405.048 32.219 404.406 32.3473 403.892 32.4757C402.865 32.604 401.838 33.1175 400.683 33.8877Z" fill="#3D2112"/>
<path d="M397.088 34.4012V42.3597C397.088 42.3597 399.399 42.2314 399.399 40.1776C399.399 38.1237 399.527 30.2936 399.527 30.2936C399.527 30.2936 399.142 26.5711 407.102 25.6726C414.548 24.774 417.116 21.95 416.731 19.7679C416.474 17.4573 400.041 17.2006 397.216 25.0307C394.649 32.7325 397.088 34.4012 397.088 34.4012Z" fill="#3D2112"/>
<path d="M425.846 34.4008V42.3593C425.846 42.3593 423.535 42.231 423.535 40.1772C423.535 38.1234 423.407 30.2932 423.407 30.2932C423.407 30.2932 424.049 24.3885 417.373 23.7467C409.798 22.9766 411.852 23.1049 412.238 20.7944C412.494 18.4839 422.893 17.0719 425.589 24.7736C428.285 32.7321 425.846 34.4008 425.846 34.4008Z" fill="#3D2112"/>
</g>
<defs>
<linearGradient id="paint0_linear_1036_187" x1="189.487" y1="339.748" x2="354.63" y2="-21.3993" gradientUnits="userSpaceOnUse">
<stop offset="0.0353535" stop-color="#138BBD"/>
<stop offset="0.2257" stop-color="#169AC7"/>
<stop offset="0.5946" stop-color="#1FC3DF"/>
<stop offset="1" stop-color="#2AF6FF"/>
</linearGradient>
<linearGradient id="paint1_linear_1036_187" x1="390.827" y1="190.001" x2="166.499" y2="41.0679" gradientUnits="userSpaceOnUse">
<stop offset="0.0353535" stop-color="#9F19AB"/>
<stop offset="0.2438" stop-color="#AE25B1"/>
<stop offset="0.6455" stop-color="#D744BF"/>
<stop offset="1" stop-color="#FF63CE"/>
</linearGradient>
<clipPath id="clip0_1036_187">
<rect width="574" height="334" fill="white"/>
</clipPath>
</defs>
</svg>
