<svg width="326" height="410" viewBox="0 0 326 410" fill="none" xmlns="http://www.w3.org/2000/svg">
<g clip-path="url(#clip0_1025_175)">
<path d="M325.5 160.9C324.5 71.5 252.2 0 162.8 0C72.9 0 0 72.9 0 162.8C0 163.8 0 164.7 0 165.7C0.6 201.8 14.3 236.4 37.8 263.8L162.8 409.6L287.7 263.8C311.6 235.9 325.3 200.4 325.5 163.6C325.5 162.7 325.5 161.8 325.5 160.9ZM162.8 290.9C90.7 290.9 32.2 232.4 32.2 160.3C32.2 88.2 90.6 29.7 162.8 29.7C234.9 29.7 293.4 88.2 293.4 160.3C293.4 232.4 234.9 290.9 162.8 290.9Z" fill="url(#paint0_linear_1025_175)"/>
<path d="M255.136 252.616C306.137 201.614 306.137 118.923 255.136 67.9213C204.134 16.9193 121.443 16.9193 70.441 67.9213C19.439 118.923 19.439 201.614 70.441 252.616C121.443 303.618 204.134 303.618 255.136 252.616Z" fill="#8815AD"/>
<path d="M150.8 144.5L118.7 142.3L77.9 152.9L74.5 139.7L116.4 128.8C117.1 128.6 117.8 128.5 118.6 128.6L151.7 130.8L150.8 144.5Z" fill="#3D065F"/>
<path d="M276.3 181.9L267.4 195.1L289.5 209.8L298.3 196.5L276.3 181.9Z" fill="#3D065F"/>
<path d="M231.2 192.4C231.8 192.1 232.4 191.6 232.8 191L233.2 190.5C229.8 184.4 225.4 176.3 222.8 171.8C222.5 171.2 222.1 170.7 221.7 170.2L216.4 165.9C215.5 165.5 214.6 165.2 213.6 165C211.5 164.5 209.3 164.5 206.9 164.8L202.4 169C201.8 169.9 201.6 171 201.7 172.1C201.9 173.3 202.5 174.3 203.5 175.1L204 175.4C206.8 174 209.5 173.2 211.8 173.7C213.9 174.2 215.5 175.4 216.6 177.3C218.6 180.7 221.7 185.8 224.6 190.5L226.6 191.9C227.9 193 229.7 193.1 231.2 192.4Z" fill="#3D065F"/>
<path d="M158.5 147.4C158.3 145.8 158.1 144 159.1 142.5L167.3 127.9L155.5 127.2L154.2 148.6L158.9 148.9C158.7 148.4 158.5 147.9 158.5 147.4Z" fill="#45108A"/>
<path d="M272.8 175.8L269.2 173.3C269 174.5 268.5 175.6 267.7 176.6L267.5 176.8L254.1 190.5L260.1 194.7C261.3 195.5 263 195.2 263.9 194L273.5 179.7C274.3 178.4 274 176.7 272.8 175.8Z" fill="#45108A"/>
<path d="M220.4 134L221.8 137.7L263.7 167.5C265.9 169.1 266.4 172.2 264.8 174.5L232.2 207.6C230.6 209.8 227.5 210.3 225.2 208.7L170.8 169C168.6 167.4 160.5 146.7 162.1 144.5L176.9 118.4C178 115.5 181.1 114 184 115L217 126.9C219.9 127.9 221.4 131.1 220.4 134ZM238.7 179.3L215.5 160.7C211.9 158 206.8 158.8 204.1 162.5L199.5 166.8C196.8 170.4 197.6 175.5 201.3 178.2L224.3 195C227.9 197.7 233 196.9 235.7 193.2L240.4 190.7C243.1 187 242.3 181.9 238.7 179.3Z" fill="#E292FF"/>
<path d="M74.4 158.3C74.4 158.3 65.5 174.3 65.5 179.2C65.5 184.1 69.5 188.1 74.4 188.1C79.3 188.1 83.3 184.1 83.3 179.2C83.2 174.2 74.4 158.3 74.4 158.3ZM70.9 182.7C69.2 182.7 67.8 180.6 67.8 178C67.8 175.4 71.1 167.1 71.1 167.1C71.1 167.1 70.7 175.4 70.7 178C70.6 180.6 72.7 182.7 70.9 182.7Z" fill="#45108A"/>
<path d="M108.6 133.5C110 133.1 111.2 133.2 111.4 133.7L111.7 134.9C111.8 135.4 110.8 136.1 109.4 136.5L86.8999 142.8C85.4999 143.2 84.2998 143.1 84.0998 142.6L83.7999 141.4C83.6999 140.9 84.6998 140.2 86.0998 139.8L108.6 133.5Z" fill="white"/>
<path d="M207.1 125.8C208.5 126.3 209.4 127.1 209.2 127.6L208.8 128.8C208.6 129.3 207.4 129.3 206 128.8L184 120.9C182.6 120.4 181.7 119.6 181.9 119.1L182.3 117.9C182.5 117.4 183.7 117.4 185.1 117.9L207.1 125.8Z" fill="white"/>
</g>
<defs>
<linearGradient id="paint0_linear_1025_175" x1="163.375" y1="8.4725" x2="161.81" y2="399.421" gradientUnits="userSpaceOnUse">
<stop stop-color="#45108A"/>
<stop offset="0.4042" stop-color="#3D065F"/>
<stop offset="1" stop-color="#200554"/>
</linearGradient>
<clipPath id="clip0_1025_175">
<rect width="325.5" height="409.6" fill="white"/>
</clipPath>
</defs>
</svg>
