<svg width="599" height="346" viewBox="0 0 599 346" fill="none" xmlns="http://www.w3.org/2000/svg">
<g clip-path="url(#clip0_1025_310)">
<path d="M599 89.1098L563.773 109.784L558.662 112.786L548.646 118.654L536.449 125.818L527.046 131.345L514.509 138.714L505.379 144.104L492.705 151.541L483.643 156.863L482.416 157.546L475.057 161.912L475.125 161.981C475.262 162.254 475.262 162.527 475.262 162.731C475.194 163.004 474.989 163.277 474.717 163.414L463.61 169.759C463.474 169.827 463.269 169.895 463.065 169.895C462.724 169.895 462.315 169.691 462.111 169.35V169.281L461.77 169.486L452.844 174.603C452.981 174.876 452.981 175.149 452.981 175.354C452.912 175.627 452.708 175.9 452.435 176.036L441.329 182.382C441.193 182.45 440.988 182.518 440.784 182.518C440.443 182.518 440.034 182.314 439.898 181.972L430.631 187.294C430.768 187.499 430.768 187.772 430.699 188.045C430.631 188.318 430.427 188.591 430.154 188.727L419.048 195.073C418.912 195.141 418.707 195.209 418.503 195.209C418.298 195.209 418.026 195.141 417.89 195.005C417.821 194.936 417.753 194.868 417.685 194.732L408.418 200.054C408.487 200.258 408.487 200.463 408.487 200.668C408.418 200.941 408.282 201.214 407.941 201.35L407.737 201.486L396.835 207.696C396.699 207.764 396.494 207.832 396.29 207.832C396.154 207.832 395.949 207.764 395.813 207.696C395.677 207.627 395.54 207.559 395.472 207.423L386.205 212.745C386.274 212.949 386.274 213.154 386.205 213.29C386.137 213.563 385.933 213.836 385.66 213.973L374.554 220.318C374.418 220.387 374.213 220.455 374.009 220.455C373.873 220.455 373.804 220.455 373.668 220.387C373.532 220.318 373.327 220.25 373.259 220.114L363.924 225.504C363.924 225.64 363.924 225.845 363.924 225.981C363.856 226.254 363.652 226.527 363.379 226.664L352.273 233.009C352.137 233.077 351.932 233.146 351.728 233.146C351.591 233.146 351.523 233.146 351.387 233.077C351.251 233.009 351.114 232.941 351.046 232.873L341.643 238.263C341.643 238.4 341.643 238.536 341.643 238.604C341.575 238.877 341.371 239.15 341.098 239.287L329.992 245.632C329.855 245.7 329.651 245.768 329.447 245.768C329.31 245.768 329.242 245.768 329.106 245.7C328.97 245.632 328.902 245.632 328.833 245.564L319.362 251.022C319.362 251.091 319.362 251.227 319.362 251.295C319.294 251.568 319.09 251.841 318.817 251.978L312.412 255.594L275.958 276.541L274.8 277.223L264.239 283.159L252.315 289.846L242.435 295.372L230.17 302.264L220.63 307.654L208.093 314.682L198.69 319.936L185.948 327.1L176.681 332.286L163.872 339.45L154.741 344.567L153.378 345.318L152.22 344.635L79.7213 302.469L77.1321 300.967L74.134 299.193L71.4766 297.692L0 256.276L9.33489 250.818L21.8041 243.517L31.0027 238.127L43.6764 230.758L52.7387 225.436L65.4805 217.998L74.5428 212.676L87.2165 205.239L96.3469 199.917L108.884 192.548L118.287 187.09L130.484 179.925L140.364 174.194L141.727 173.375L151.675 167.576C151.947 167.439 152.288 167.371 152.629 167.507L162.168 162.049C162.236 161.776 162.373 161.503 162.713 161.298L173.683 155.021C173.956 154.885 174.229 154.816 174.501 154.953L179.339 152.155L184.109 149.426C184.177 149.153 184.381 148.949 184.585 148.812L195.556 142.535C195.76 142.398 196.033 142.398 196.237 142.398L206.049 136.735C206.117 136.53 206.321 136.394 206.458 136.258L217.428 129.98C217.564 129.912 217.769 129.844 217.973 129.844L228.057 124.044C228.126 123.908 228.262 123.839 228.398 123.703L239.368 117.426C239.505 117.358 239.573 117.358 239.709 117.289L250.202 111.285C250.202 111.285 250.27 111.217 250.339 111.217L253.677 109.306L254.086 109.033L261.445 104.871L272.075 98.7987L278.956 94.9095L283.59 92.2485L293.947 86.3806L305.598 79.7622L315.819 73.9625L327.607 67.2759L337.691 61.5445L349.615 54.7214L359.564 49.0582L371.624 42.2351L381.504 36.6401L393.837 29.6123L403.649 24.0174L415.845 17.0578L425.589 11.5311L437.854 4.57148L445.894 0L518.12 42.0304L520.71 43.5315L523.708 45.3055L526.297 46.8065L599 89.1098Z" fill="url(#paint0_linear_1025_310)"/>
<path d="M518.121 42.0303L477.579 65.2289L425.794 94.9094L352.205 137.076L350.638 138.031L342.257 142.808L336.465 146.151L332.786 148.266L332.309 148.539L332.036 148.675L331.763 148.812L331.423 149.017L331.082 149.221L314.252 158.842L312.821 159.661L312.48 159.865L308.869 161.912L304.917 164.164L298.785 167.644L295.855 169.35L295.446 169.554L281.41 177.605L273.369 182.177L270.099 184.087L266.215 186.271L264.648 187.158L263.626 187.704L259.742 189.955L256.607 191.729L256.539 191.798L251.088 194.936L144.452 256.003L130.552 263.986L71.5449 297.76L74.2023 299.262L135.867 263.918L149.767 255.935L253.541 196.506L259.197 193.23L259.333 193.162L262.467 191.388L269.349 187.431L274.8 184.292L286.861 177.401C286.861 177.401 286.861 177.401 286.929 177.401L296.945 171.669L297.354 171.465L302.532 168.531L313.434 162.254L313.843 162.049C313.843 162.049 313.911 161.981 313.979 161.981L321.202 157.887L330.946 152.292L331.218 152.155L332.649 151.337L333.876 150.654L334.489 150.313L335.034 149.972L335.17 149.904L339.054 147.652L353.636 139.191H353.704H353.772L353.976 139.055L354.045 138.987L354.113 138.918L431.04 94.9094L482.825 65.2289L520.71 43.5314L518.121 42.0303Z" fill="white"/>
<path d="M523.708 45.3054L488.89 65.2289L437.105 94.9094L355.953 141.375L355.816 141.443L355.748 141.511L354.999 141.921L354.045 142.467L351.592 143.899L351.455 143.968L341.848 149.426L335.784 152.906L335.375 153.179L334.217 153.861L332.104 155.089L314.525 165.119L314.116 165.324L306.689 169.554L298.512 174.262L298.103 174.467L265.67 193.026L262.604 194.732L262.467 194.8L256.403 198.28L155.491 256.071L141.727 263.986L76.9961 301.036L79.5853 302.537L146.974 263.918L160.874 255.935L259.197 199.644L265.602 195.96L265.738 195.892L267.441 194.936L281.41 186.885L285.771 184.36L288.837 182.586L291.971 180.744L293.266 179.994L297.695 177.469L299.126 176.65L299.534 176.446L310.436 170.237L314.729 167.78L315.138 167.576L335.716 155.772L336.124 155.499L337.623 154.612L342.666 151.746L344.369 150.791L344.505 150.722L347.299 149.085L347.912 148.744L352.273 146.219L355.203 144.582L356.702 143.695L356.838 143.626L442.215 94.773L494 65.0924L526.161 46.67L523.708 45.3054Z" fill="white"/>
<path d="M21.6679 243.039C21.3953 242.493 20.7139 242.357 20.237 242.63L9.26678 248.907C8.72168 249.18 8.5854 249.862 8.85796 250.34C8.99423 250.545 9.13051 250.681 9.33492 250.818C9.4712 250.886 9.60747 250.886 9.81189 250.886C10.0163 250.886 10.1526 250.818 10.357 250.749L21.3272 244.472C21.6679 244.267 21.8723 243.858 21.8723 243.517C21.8042 243.38 21.736 243.176 21.6679 243.039ZM43.6764 230.689C43.6764 230.621 43.6083 230.553 43.6083 230.485C43.3357 229.939 42.6543 229.802 42.1774 230.075L31.2072 236.353C30.6621 236.626 30.5258 237.308 30.7984 237.786C30.8665 237.922 30.9346 237.99 31.0709 238.058C31.2753 238.195 31.4797 238.331 31.7523 238.331C31.9567 238.331 32.093 238.263 32.2974 238.195L43.2676 231.918C43.6083 231.713 43.8127 231.167 43.6764 230.689ZM65.5487 217.998C65.208 217.453 64.5947 217.316 64.1178 217.589L53.1476 223.866C52.6025 224.139 52.4662 224.822 52.7387 225.299C52.7387 225.367 52.8069 225.367 52.8069 225.367C53.0113 225.64 53.352 225.845 53.6927 225.845C53.8971 225.845 54.0334 225.777 54.2378 225.709L65.208 219.431C65.6168 219.158 65.8212 218.476 65.5487 217.998ZM87.4891 205.444C87.4209 205.376 87.3528 205.308 87.2846 205.171C86.944 204.83 86.467 204.762 85.99 205.035L75.0198 211.312C74.5429 211.585 74.3384 212.131 74.5429 212.608C74.5429 212.676 74.5429 212.676 74.611 212.745C74.8154 213.086 75.1561 213.291 75.5649 213.291C75.7693 213.291 75.9056 213.222 76.11 213.154L87.0802 206.877C87.5572 206.604 87.7616 205.99 87.4891 205.444ZM109.429 192.958C109.293 192.753 109.157 192.617 109.021 192.548C108.68 192.412 108.339 192.344 107.999 192.548L97.0284 198.826C96.6195 199.03 96.4833 199.508 96.4833 199.917C96.4833 200.054 96.5514 200.19 96.6195 200.327C96.824 200.668 97.1646 200.872 97.5735 200.872C97.7779 200.872 97.9142 200.804 98.1186 200.736L109.089 194.459C109.498 194.118 109.702 193.435 109.429 192.958ZM131.37 180.403C131.234 180.198 131.097 180.062 130.961 179.994C130.893 179.926 130.757 179.926 130.62 179.857C130.416 179.789 130.143 179.857 129.871 179.994L118.901 186.271C118.628 186.407 118.424 186.749 118.356 187.022C118.356 187.09 118.356 187.158 118.356 187.226C118.356 187.431 118.424 187.567 118.492 187.772C118.696 188.113 119.037 188.318 119.446 188.318C119.65 188.318 119.786 188.25 119.991 188.181L130.961 181.904C131.438 181.563 131.642 180.949 131.37 180.403ZM153.242 167.917C153.106 167.712 152.901 167.576 152.697 167.439C152.424 167.303 152.084 167.303 151.743 167.507L141.795 173.171L140.841 173.717C140.705 173.785 140.568 173.921 140.432 174.126C140.364 174.262 140.296 174.399 140.296 174.604C140.296 174.808 140.296 175.013 140.432 175.218C140.637 175.559 140.977 175.763 141.386 175.763C141.522 175.763 141.659 175.763 141.863 175.695C141.863 175.695 141.931 175.695 141.931 175.627L152.901 169.35C153.378 169.077 153.583 168.394 153.242 167.917ZM175.183 155.362C175.046 155.089 174.774 154.953 174.569 154.885C174.297 154.816 174.024 154.816 173.752 154.953L162.781 161.23C162.509 161.367 162.304 161.64 162.236 161.981C162.168 162.254 162.236 162.458 162.373 162.731C162.577 163.072 162.918 163.277 163.327 163.277C163.531 163.277 163.667 163.209 163.872 163.141L174.842 156.863C175.319 156.522 175.523 155.908 175.183 155.362ZM197.123 142.876C196.987 142.603 196.646 142.398 196.373 142.33C196.169 142.33 195.896 142.33 195.692 142.467L184.722 148.744C184.517 148.88 184.313 149.085 184.245 149.358C184.177 149.631 184.177 149.972 184.313 150.245C184.517 150.586 184.858 150.791 185.267 150.791C185.471 150.791 185.608 150.723 185.812 150.654L196.782 144.377C197.259 144.036 197.464 143.354 197.123 142.876ZM219.063 130.322C218.859 129.98 218.518 129.776 218.178 129.776C217.973 129.776 217.837 129.844 217.632 129.912L206.662 136.189C206.458 136.326 206.322 136.462 206.253 136.667C206.117 136.94 206.117 137.349 206.322 137.69C206.526 138.032 206.867 138.236 207.275 138.236C207.48 138.236 207.616 138.168 207.821 138.1L218.791 131.823C219.2 131.481 219.404 130.867 219.063 130.322ZM241.004 117.835C240.799 117.426 240.322 117.221 239.913 117.289C239.777 117.289 239.641 117.358 239.573 117.426L228.603 123.703C228.466 123.771 228.33 123.908 228.262 124.044C228.057 124.385 227.989 124.795 228.194 125.204C228.398 125.545 228.739 125.75 229.148 125.75C229.352 125.75 229.488 125.682 229.693 125.614L240.663 119.336C241.14 118.995 241.276 118.313 241.004 117.835ZM262.944 105.281C262.672 104.803 262.126 104.598 261.649 104.803C261.581 104.803 261.581 104.871 261.513 104.871L254.291 108.965L253.882 109.238L250.543 111.149C250.475 111.149 250.475 111.217 250.407 111.217C249.998 111.558 249.862 112.104 250.134 112.581C250.339 112.923 250.679 113.127 251.088 113.127C251.293 113.127 251.429 113.059 251.633 112.991L262.603 106.714C263.08 106.441 263.217 105.827 262.944 105.281ZM284.884 92.7944C284.68 92.385 284.203 92.1803 283.726 92.2485C283.59 92.2485 283.522 92.3168 283.385 92.385L278.956 94.9096L272.415 98.6623C272.347 98.7305 272.279 98.7305 272.211 98.7987C271.87 99.1399 271.802 99.6857 272.006 100.095C272.211 100.436 272.552 100.641 272.96 100.641C273.165 100.641 273.301 100.573 273.505 100.505L283.317 94.9096L284.476 94.2272C285.021 93.9543 285.157 93.272 284.884 92.7944ZM306.825 80.2399C306.62 79.8305 306.212 79.694 305.803 79.694C305.667 79.694 305.53 79.7623 305.394 79.8305L294.424 86.1077C294.288 86.176 294.219 86.2442 294.151 86.3807C293.879 86.7218 293.811 87.1994 294.015 87.6088C294.219 87.95 294.56 88.1547 294.969 88.1547C295.173 88.1547 295.31 88.0864 295.514 88.0182L306.484 81.741C306.961 81.3998 307.097 80.7857 306.825 80.2399ZM328.765 67.7536C328.561 67.4124 328.22 67.2077 327.811 67.2077C327.675 67.2077 327.471 67.276 327.334 67.3442L316.364 73.6215C316.228 73.6897 316.092 73.8261 316.023 73.9626C315.751 74.3038 315.751 74.7131 315.955 75.1225C316.16 75.4637 316.5 75.6684 316.909 75.6684C317.114 75.6684 317.25 75.6002 317.454 75.5319L328.425 69.2547C328.833 68.9135 329.038 68.2312 328.765 67.7536ZM350.706 55.199C350.501 54.8579 350.161 54.6532 349.82 54.6532C349.615 54.6532 349.411 54.7214 349.275 54.7897L338.305 61.0669C338.168 61.1352 338.032 61.2716 337.896 61.4763C337.691 61.8175 337.691 62.2268 337.896 62.568C338.1 62.9092 338.441 63.1139 338.85 63.1139C339.054 63.1139 339.19 63.0456 339.395 62.9774L350.365 56.7001C350.774 56.359 350.978 55.7449 350.706 55.199ZM372.646 42.7128C372.442 42.3716 372.169 42.2351 371.828 42.1669C371.624 42.1669 371.42 42.1669 371.215 42.3034L360.245 48.5806C360.041 48.7171 359.904 48.8536 359.836 49.0582C359.7 49.3994 359.7 49.7406 359.836 50.0817C360.041 50.4229 360.381 50.6276 360.79 50.6276C360.994 50.6276 361.131 50.5593 361.335 50.4911L372.305 44.2138C372.714 43.8727 372.919 43.1904 372.646 42.7128ZM394.586 30.1582C394.45 29.8853 394.109 29.6806 393.837 29.6124C393.633 29.6124 393.36 29.6124 393.156 29.7488L382.185 36.0261C381.981 36.1626 381.845 36.299 381.708 36.5037C381.572 36.7766 381.572 37.186 381.777 37.459C381.981 37.8001 382.322 38.0048 382.73 38.0048C382.935 38.0048 383.071 37.9366 383.276 37.8683L394.246 31.5911C394.655 31.3182 394.859 30.7041 394.586 30.1582ZM416.459 17.6719C416.322 17.399 416.05 17.1943 415.777 17.1261C415.505 17.0579 415.232 17.1261 415.028 17.2625L404.058 23.5398C403.853 23.6763 403.649 23.881 403.581 24.0857C403.444 24.3586 403.513 24.6997 403.649 24.9727C403.853 25.3138 404.194 25.5185 404.603 25.5185C404.807 25.5185 404.943 25.4503 405.148 25.382L416.118 19.1048C416.595 18.8319 416.799 18.1496 416.459 17.6719ZM438.467 5.11741C438.331 4.84448 438.058 4.70802 437.786 4.63979C437.513 4.57156 437.241 4.57156 436.968 4.70802L425.998 10.9853C425.794 11.1217 425.589 11.3264 425.521 11.5994C425.453 11.8723 425.453 12.2134 425.589 12.4181C425.794 12.7593 426.134 12.964 426.543 12.964C426.748 12.964 426.884 12.8958 427.088 12.8275L438.058 6.55026C438.535 6.27734 438.74 5.66326 438.467 5.11741Z" fill="white"/>
<path d="M154.673 344.704L154.605 344.635C154.333 344.089 153.651 343.953 153.174 344.226L152.152 344.84L153.311 345.522L154.265 346.068C154.742 345.727 154.878 345.181 154.673 344.704ZM176.682 332.354C176.682 332.286 176.614 332.149 176.546 332.081C176.273 331.535 175.592 331.398 175.115 331.671L164.145 337.949C163.599 338.222 163.463 338.904 163.736 339.382C163.736 339.45 163.804 339.518 163.872 339.518C164.076 339.791 164.417 339.927 164.69 339.927C164.894 339.927 165.03 339.859 165.235 339.791L176.205 333.514C176.614 333.241 176.818 332.763 176.682 332.354ZM198.486 319.526C198.214 318.98 197.532 318.844 197.055 319.117L186.085 325.394C185.54 325.667 185.404 326.349 185.676 326.827C185.744 326.963 185.812 327.032 185.881 327.1C186.085 327.236 186.358 327.373 186.562 327.373C186.766 327.373 186.903 327.305 187.107 327.236L198.077 320.959C198.418 320.754 198.622 320.345 198.622 319.936C198.622 319.867 198.622 319.663 198.486 319.526ZM220.426 307.04C220.154 306.494 219.473 306.358 218.996 306.631L208.025 312.908C207.48 313.181 207.344 313.863 207.617 314.341C207.685 314.477 207.821 314.614 208.025 314.75C208.162 314.818 208.366 314.887 208.57 314.887C208.775 314.887 208.911 314.818 209.116 314.75L220.086 308.473C220.358 308.268 220.563 307.995 220.631 307.654C220.631 307.449 220.563 307.245 220.426 307.04ZM242.367 294.485C242.094 293.94 241.413 293.803 240.936 294.076L229.966 300.353C229.421 300.626 229.284 301.309 229.557 301.786C229.693 302.059 229.898 302.196 230.17 302.264C230.306 302.264 230.375 302.332 230.511 302.332C230.715 302.332 230.852 302.264 231.056 302.196L242.026 295.918C242.231 295.782 242.435 295.577 242.503 295.372C242.571 295.1 242.571 294.758 242.367 294.485ZM264.307 281.999C264.239 281.794 264.035 281.658 263.898 281.59C263.558 281.453 263.217 281.385 262.876 281.59L251.906 287.867C251.565 288.072 251.361 288.413 251.361 288.822C251.361 289.027 251.429 289.163 251.497 289.368C251.702 289.709 251.974 289.914 252.315 289.914H252.383C252.588 289.914 252.724 289.846 252.928 289.778L263.898 283.5C264.035 283.432 264.103 283.364 264.239 283.227C264.512 282.818 264.512 282.34 264.307 281.999ZM286.248 269.445C286.111 269.24 285.907 269.103 285.703 268.967C285.43 268.831 285.089 268.831 284.749 269.035L274.8 274.698L273.847 275.244C273.506 275.449 273.37 275.722 273.301 276.063C273.301 276.268 273.301 276.472 273.438 276.677C273.642 277.018 273.983 277.223 274.392 277.223C274.528 277.223 274.664 277.223 274.8 277.155C274.8 277.155 274.869 277.155 274.869 277.087L275.959 276.472L285.839 270.809C286.384 270.605 286.52 269.99 286.248 269.445ZM308.188 256.89C308.052 256.617 307.779 256.481 307.575 256.412C307.302 256.344 307.03 256.344 306.757 256.481L295.787 262.758C295.514 262.894 295.31 263.167 295.242 263.509C295.174 263.781 295.242 263.986 295.378 264.259C295.583 264.6 295.923 264.805 296.332 264.805C296.536 264.805 296.673 264.737 296.877 264.668L307.847 258.391C308.324 258.118 308.461 257.436 308.188 256.89ZM330.128 244.404C329.992 244.131 329.651 243.926 329.379 243.858C329.174 243.858 328.902 243.858 328.698 243.994L317.727 250.272C317.455 250.408 317.319 250.613 317.25 250.886C317.182 251.159 317.182 251.5 317.319 251.773C317.523 252.114 317.864 252.319 318.272 252.319C318.477 252.319 318.613 252.25 318.818 252.182L319.499 251.773L329.311 246.178L329.856 245.905C330.197 245.564 330.401 244.95 330.128 244.404ZM352.069 231.849C351.864 231.508 351.524 231.303 351.183 231.303C350.979 231.303 350.842 231.372 350.638 231.44L339.668 237.717C339.463 237.854 339.327 237.99 339.259 238.195C339.123 238.468 339.123 238.877 339.259 239.218C339.463 239.559 339.804 239.764 340.213 239.764C340.417 239.764 340.554 239.696 340.758 239.628L341.78 239.082L351.592 233.487L351.796 233.35C352.137 233.077 352.341 232.395 352.069 231.849ZM374.009 219.363C373.805 218.954 373.328 218.749 372.919 218.817C372.783 218.817 372.715 218.885 372.578 218.954L361.608 225.231C361.472 225.299 361.336 225.436 361.267 225.572C360.995 225.913 360.995 226.323 361.199 226.732C361.404 227.073 361.744 227.278 362.153 227.278C362.358 227.278 362.494 227.21 362.698 227.141L364.061 226.391L373.669 220.932C373.737 220.932 373.737 220.864 373.805 220.864C374.146 220.386 374.282 219.841 374.009 219.363ZM395.95 206.808C395.677 206.263 394.996 206.126 394.519 206.399L387.296 210.493L386.887 210.766L383.549 212.676C383.48 212.676 383.48 212.745 383.412 212.745C383.003 213.086 382.867 213.632 383.14 214.109C383.344 214.45 383.685 214.655 384.094 214.655C384.298 214.655 384.434 214.587 384.639 214.519L386.342 213.563L395.609 208.241C395.745 208.173 395.881 208.037 395.95 207.9C396.086 207.627 396.154 207.218 395.95 206.808ZM417.89 194.322C417.617 193.776 416.936 193.64 416.459 193.913L412.03 196.437L405.489 200.19C405.353 200.258 405.216 200.395 405.08 200.599C404.876 200.941 404.876 201.35 405.08 201.691C405.285 202.032 405.625 202.237 406.034 202.237C406.238 202.237 406.375 202.169 406.579 202.101L407.465 201.623L408.623 200.941L416.459 196.506L417.617 195.823C417.89 195.687 418.026 195.482 418.094 195.209C418.026 194.868 418.026 194.595 417.89 194.322ZM439.899 182.109C439.899 181.972 439.83 181.904 439.762 181.768C439.49 181.222 438.808 181.085 438.331 181.358L427.361 187.636C426.816 187.908 426.68 188.591 426.952 189.068C427.157 189.41 427.497 189.614 427.906 189.614C428.111 189.614 428.247 189.546 428.451 189.478L430.768 188.113L439.422 183.201C439.83 182.996 440.035 182.586 439.899 182.109ZM461.839 169.554C461.839 169.486 461.771 169.418 461.703 169.281C461.43 168.736 460.749 168.599 460.272 168.872L449.302 175.149C448.757 175.422 448.62 176.104 448.893 176.582C449.097 176.923 449.438 177.128 449.847 177.128C450.051 177.128 450.187 177.06 450.392 176.991L453.049 175.49L461.362 170.782C461.771 170.51 461.975 169.964 461.839 169.554ZM483.711 156.863C483.711 156.863 483.711 156.795 483.643 156.795C483.439 156.386 482.962 156.181 482.485 156.249C482.348 156.249 482.28 156.317 482.212 156.386L471.242 162.663C470.697 162.936 470.561 163.618 470.833 164.096C471.038 164.437 471.378 164.642 471.787 164.642C471.992 164.642 472.128 164.573 472.332 164.505L475.33 162.799L482.553 158.706L483.302 158.296C483.779 157.955 483.916 157.341 483.711 156.863ZM505.583 144.241C505.515 144.172 505.515 144.104 505.447 144.036C505.106 143.695 504.561 143.558 504.153 143.831L493.182 150.108C492.705 150.381 492.501 150.995 492.774 151.541C492.978 151.882 493.319 152.087 493.727 152.087C493.932 152.087 494.068 152.019 494.273 151.951L505.243 145.673C505.72 145.4 505.924 144.718 505.583 144.241ZM527.524 131.686C527.456 131.55 527.319 131.413 527.115 131.277C526.774 131.072 526.366 131.072 526.025 131.277L515.055 137.554C514.646 137.759 514.441 138.236 514.51 138.646C514.51 138.782 514.578 138.85 514.646 138.987C514.85 139.328 515.191 139.533 515.6 139.533C515.804 139.533 515.94 139.464 516.145 139.396L527.115 133.119C527.66 132.846 527.796 132.232 527.524 131.686ZM549.464 119.2C549.328 118.927 548.987 118.722 548.715 118.654C548.51 118.654 548.238 118.654 548.033 118.79L537.063 125.068C536.791 125.204 536.586 125.545 536.518 125.818C536.45 126.023 536.518 126.296 536.654 126.5C536.859 126.842 537.199 127.046 537.608 127.046C537.813 127.046 537.949 126.978 538.153 126.91L549.124 120.633C549.601 120.36 549.737 119.677 549.464 119.2ZM571.405 106.645C571.132 106.099 570.451 105.963 569.974 106.236L563.841 109.784L559.072 112.513C558.935 112.581 558.867 112.65 558.799 112.786C558.527 113.127 558.458 113.605 558.663 114.014C558.867 114.355 559.208 114.56 559.617 114.56C559.821 114.56 559.957 114.492 560.162 114.424L571.132 108.146C571.541 107.805 571.677 107.191 571.405 106.645ZM593.345 94.1589C593.072 93.613 592.391 93.4766 591.914 93.7495L580.944 100.027C580.399 100.3 580.263 100.982 580.535 101.46C580.74 101.801 581.08 102.005 581.489 102.005C581.693 102.005 581.83 101.937 582.034 101.869L593.004 95.5917C593.481 95.3188 593.618 94.6365 593.345 94.1589Z" fill="white"/>
<path d="M582 356C571.422 345.632 560.409 335.588 548.959 325.706C521.587 302.216 492.69 280.994 462.375 262.039C462.156 261.877 461.938 261.715 461.72 261.715C460.521 260.905 459.212 260.095 458.013 259.447C410.359 230.125 359.542 206.149 306.763 187.843C304.8 187.195 302.728 186.385 300.766 185.737C298.476 184.927 296.076 184.117 293.786 183.469C291.715 182.821 289.752 182.173 287.68 181.525C225.959 161.761 161.729 149.449 96.955 144.427C76.8902 142.969 -0.751866 137.137 -17 138.109" stroke="#E30613" stroke-width="4.7271" stroke-miterlimit="10" stroke-linecap="round"/>
<path d="M281.137 194.595L271.461 189.887L281.682 186.407L281.137 194.595Z" fill="url(#paint1_linear_1025_310)"/>
<path d="M326.926 168.667L317.25 163.959L327.471 160.479L326.926 168.667Z" fill="url(#paint2_linear_1025_310)"/>
<path opacity="0.2" d="M328.561 173.785L276.095 203.738C267.169 208.855 256.13 208.855 247.204 203.67L234.939 196.574C233.713 195.823 233.713 194.049 234.939 193.367L300.556 155.294C301.169 154.953 301.851 154.953 302.396 155.294L328.493 170.509C329.855 171.26 329.855 173.034 328.561 173.785Z" fill="#16032E"/>
<path d="M311.867 173.239C311.867 174.945 312.48 176.105 313.366 176.719C313.366 176.719 316.364 178.424 316.364 178.493C317.318 179.039 316.705 177.81 318.204 176.923C321.202 175.218 323.655 170.987 323.655 167.576C323.655 165.87 325.222 165.87 324.268 165.256C324.268 165.256 321.134 163.482 321.066 163.482C320.112 162.936 318.749 163.072 317.25 163.891C314.32 165.597 311.867 169.759 311.867 173.239Z" fill="url(#paint3_linear_1025_310)"/>
<path d="M315.069 175.013C315.069 178.493 317.522 179.857 320.52 178.083C323.518 176.378 325.971 172.147 325.971 168.736C325.971 165.256 323.518 163.891 320.52 165.665C317.454 167.371 315.069 171.533 315.069 175.013Z" fill="url(#paint4_linear_1025_310)"/>
<path d="M320.18 165.529C321.61 164.71 322.905 164.573 323.927 165.051C323.041 164.778 321.883 164.983 320.657 165.665C317.658 167.371 315.205 171.601 315.205 175.013C315.205 176.787 315.887 178.015 316.909 178.561C315.614 178.22 314.729 176.855 314.729 174.808C314.797 171.397 317.181 167.234 320.18 165.529Z" fill="url(#paint5_radial_1025_310)"/>
<path d="M324.2 167.985C324.064 167.712 323.928 167.439 323.723 167.234C323.655 167.098 323.519 167.03 323.383 166.961C323.315 166.893 323.246 166.893 323.178 166.825C323.042 166.757 322.974 166.757 322.838 166.689C322.565 166.62 322.224 166.552 321.884 166.62C321.407 166.689 320.862 166.825 320.317 167.166C318 168.531 316.16 171.738 316.16 174.399C316.16 175.9 316.773 176.923 317.727 177.264C317.727 177.264 317.727 177.264 317.795 177.264C318.477 177.469 319.363 177.333 320.317 176.787C322.633 175.422 324.473 172.215 324.473 169.554C324.473 168.94 324.405 168.394 324.2 167.985ZM323.178 171.601H322.77L322.02 171.533H321.884C321.747 171.533 321.679 171.396 321.679 171.26V171.124C321.679 170.987 321.747 170.782 321.884 170.646L323.178 169.008C323.315 168.872 323.451 168.804 323.587 168.804C323.655 168.804 323.655 168.872 323.655 168.94C323.723 169.213 323.792 169.554 323.792 169.964C323.792 170.305 323.723 170.714 323.655 171.124C323.655 171.328 323.383 171.601 323.178 171.601ZM320.794 168.19C320.794 167.917 320.998 167.644 321.202 167.576C321.747 167.439 322.293 167.439 322.701 167.644H322.77H322.838C322.974 167.712 322.974 168.053 322.77 168.326L321.475 169.964C321.339 170.1 321.202 170.168 321.134 170.168C321.066 170.168 321.066 170.168 320.998 170.168C320.862 170.168 320.794 170.1 320.794 169.895V168.19ZM316.91 175.013C316.842 174.74 316.773 174.399 316.773 173.989C316.773 173.648 316.842 173.239 316.91 172.829C316.978 172.556 317.25 172.283 317.387 172.283L318.681 172.42C318.749 172.42 318.818 172.488 318.818 172.488C318.818 172.556 318.818 172.556 318.818 172.625V172.761C318.818 172.898 318.749 173.102 318.613 173.239L317.319 174.876C317.25 174.944 317.182 175.013 317.046 175.081C317.046 175.149 316.91 175.149 316.91 175.013ZM319.363 168.599C319.567 168.463 319.703 168.463 319.771 168.599C319.771 168.599 319.771 168.667 319.771 168.735V170.441C319.771 170.578 319.703 170.782 319.567 170.919C319.499 170.987 319.499 170.987 319.431 171.055C319.294 171.192 319.158 171.26 319.09 171.26L317.932 171.192H317.795C317.591 171.192 317.591 170.919 317.727 170.646C318.204 169.827 318.749 169.077 319.363 168.599ZM317.864 175.559L319.158 173.921C319.294 173.785 319.431 173.716 319.499 173.716C319.499 173.716 319.567 173.716 319.635 173.716C319.703 173.716 319.771 173.716 319.771 173.785C319.771 173.853 319.84 173.853 319.84 173.921V175.627C319.84 175.9 319.635 176.173 319.431 176.241C319.226 176.309 319.09 176.309 318.886 176.309C318.613 176.309 318.341 176.309 318.136 176.241C318 176.241 317.932 176.173 317.795 176.104C317.659 176.173 317.659 175.831 317.864 175.559ZM320.794 175.217V173.512C320.794 173.375 320.862 173.17 320.998 173.034C321.066 172.966 321.066 172.966 321.134 172.898C321.27 172.761 321.407 172.693 321.475 172.693L322.224 172.761L322.77 172.829C322.838 172.829 322.906 172.898 322.906 172.898C322.974 173.034 322.974 173.17 322.838 173.375C322.429 174.126 321.816 174.808 321.202 175.354C321.134 175.422 321.134 175.422 321.066 175.422C320.862 175.49 320.794 175.422 320.794 175.217Z" fill="url(#paint6_linear_1025_310)"/>
<path d="M324.473 168.122C324.268 167.712 324.064 167.371 323.723 167.098C323.519 166.962 323.382 166.893 323.11 166.825C323.042 166.825 323.042 166.825 322.974 166.757C322.701 166.689 322.36 166.689 322.02 166.689C321.543 166.757 321.066 166.962 320.521 167.235C318.204 168.531 316.364 171.806 316.364 174.467C316.364 175.832 316.909 176.787 317.659 177.196C318.408 177.537 319.362 177.469 320.453 176.787C322.769 175.491 324.609 172.215 324.609 169.554C324.745 169.077 324.677 168.531 324.473 168.122ZM320.112 175.832C320.112 176.105 319.907 176.378 319.703 176.446C319.362 176.514 319.09 176.582 318.749 176.514C318.545 176.514 318.34 176.446 318.136 176.309H318.068C317.931 176.241 317.931 175.9 318.136 175.627L319.43 173.989C319.567 173.853 319.703 173.785 319.771 173.785C319.839 173.785 319.839 173.785 319.907 173.785C320.044 173.785 320.112 173.921 320.112 174.058V175.832ZM321.475 167.644C321.952 167.507 322.36 167.507 322.701 167.644H322.769C322.906 167.644 322.974 167.712 323.11 167.78C323.246 167.849 323.246 168.19 323.042 168.463L321.747 170.1C321.611 170.237 321.475 170.305 321.406 170.305C321.338 170.305 321.338 170.305 321.27 170.305C321.202 170.305 321.134 170.237 321.134 170.237C321.134 170.169 321.066 170.169 321.066 170.1V168.394C320.998 167.985 321.27 167.712 321.475 167.644ZM323.928 169.009C323.996 169.281 324.064 169.623 324.064 170.032C324.064 170.373 323.996 170.783 323.928 171.192C323.859 171.465 323.587 171.738 323.451 171.738L322.701 171.67L322.156 171.601C322.088 171.601 322.02 171.533 322.02 171.533C322.02 171.465 321.952 171.465 321.952 171.397V171.328V171.26C321.952 171.124 322.02 170.919 322.156 170.783L323.451 169.145C323.519 169.077 323.519 169.077 323.587 169.009C323.655 169.009 323.655 168.94 323.723 168.94C323.791 168.872 323.928 168.872 323.928 169.009ZM321.475 175.422C321.27 175.559 321.134 175.559 321.066 175.422C321.066 175.422 321.066 175.354 321.066 175.286V173.58C321.066 173.444 321.134 173.239 321.27 173.102C321.338 173.034 321.338 173.034 321.406 172.966C321.543 172.83 321.679 172.761 321.747 172.761H322.156L322.905 172.83H323.042C323.246 172.83 323.246 173.102 323.11 173.375C322.633 174.194 322.088 174.945 321.475 175.422ZM320.112 168.804V170.51C320.112 170.646 320.044 170.851 319.907 170.987C319.839 171.056 319.839 171.056 319.771 171.124C319.635 171.26 319.499 171.328 319.43 171.328L318.136 171.192C318.068 171.192 318 171.124 318 171.124C317.931 170.987 317.931 170.851 318.068 170.646C318.477 169.896 319.022 169.213 319.635 168.667C319.703 168.599 319.771 168.599 319.771 168.599C319.976 168.531 320.112 168.599 320.112 168.804ZM317.659 175.013C317.454 175.218 317.25 175.286 317.182 175.081C317.114 174.808 317.046 174.467 317.046 174.058C317.046 173.717 317.114 173.307 317.182 172.898C317.25 172.625 317.523 172.352 317.659 172.352L318.817 172.488H318.954C319.09 172.488 319.158 172.625 319.158 172.761V172.898C319.158 173.034 319.09 173.239 318.954 173.375L317.659 175.013Z" fill="url(#paint7_linear_1025_310)"/>
<path d="M266.283 198.894C266.283 200.599 266.896 201.759 267.782 202.373C267.782 202.373 270.78 204.079 270.78 204.147C271.734 204.693 271.121 203.465 272.62 202.578C275.618 200.872 278.071 196.642 278.071 193.23C278.071 191.525 279.638 191.525 278.684 190.911C278.684 190.911 275.55 189.137 275.482 189.137C274.528 188.591 273.165 188.727 271.666 189.546C268.668 191.252 266.283 195.414 266.283 198.894Z" fill="url(#paint8_linear_1025_310)"/>
<path d="M269.418 200.668C269.418 204.148 271.871 205.512 274.869 203.738C277.867 202.032 280.32 197.802 280.32 194.391C280.32 190.911 277.867 189.546 274.869 191.32C271.871 193.026 269.418 197.256 269.418 200.668Z" fill="url(#paint9_linear_1025_310)"/>
<path d="M274.596 191.183C276.026 190.365 277.321 190.228 278.343 190.706C277.457 190.433 276.299 190.638 275.073 191.32C272.074 193.026 269.622 197.256 269.622 200.668C269.622 202.442 270.303 203.67 271.325 204.216C270.03 203.874 269.145 202.51 269.145 200.463C269.145 197.12 271.597 192.889 274.596 191.183Z" fill="url(#paint10_radial_1025_310)"/>
<path d="M278.344 193.23C278.276 193.094 278.207 193.026 278.071 192.889C277.935 192.685 277.73 192.548 277.458 192.48C277.117 192.343 276.777 192.275 276.368 192.275C275.823 192.343 275.277 192.48 274.664 192.821C272.348 194.186 270.508 197.392 270.508 200.054C270.508 201.623 271.121 202.646 272.143 202.919C272.824 203.124 273.71 202.987 274.664 202.442C276.981 201.077 278.821 197.87 278.821 195.209C278.821 194.39 278.684 193.708 278.344 193.23ZM277.526 197.256H277.117L276.368 197.188H276.231C276.095 197.188 276.027 197.051 276.027 196.915V196.778C276.027 196.642 276.095 196.437 276.231 196.301L277.526 194.663C277.662 194.527 277.867 194.459 277.935 194.459C278.003 194.459 278.003 194.527 278.003 194.595C278.071 194.868 278.139 195.209 278.139 195.618C278.139 195.96 278.071 196.369 278.003 196.778C278.003 196.983 277.73 197.256 277.526 197.256ZM275.141 193.844C275.141 193.572 275.346 193.299 275.55 193.23C276.095 193.094 276.64 193.094 277.049 193.299H277.117C277.253 193.367 277.253 193.708 277.049 193.981L275.754 195.618C275.618 195.755 275.482 195.823 275.414 195.823C275.414 195.823 275.346 195.823 275.277 195.823C275.141 195.823 275.073 195.755 275.073 195.55V193.844H275.141ZM271.257 200.668C271.189 200.395 271.121 200.054 271.121 199.712C271.121 199.371 271.189 198.962 271.257 198.552C271.325 198.279 271.598 198.007 271.734 198.007L273.029 198.143C273.097 198.143 273.165 198.211 273.165 198.211C273.165 198.279 273.165 198.28 273.165 198.348V198.484C273.165 198.621 273.097 198.825 272.961 198.962L271.666 200.599C271.598 200.668 271.53 200.736 271.462 200.804C271.394 200.804 271.325 200.804 271.257 200.668ZM273.778 194.254C273.983 194.117 274.119 194.117 274.187 194.254C274.187 194.254 274.187 194.322 274.187 194.39V196.096C274.187 196.233 274.119 196.437 273.983 196.574C273.915 196.642 273.915 196.642 273.847 196.71C273.71 196.847 273.574 196.915 273.506 196.915L272.348 196.847H272.211C272.007 196.847 272.007 196.505 272.143 196.233C272.62 195.482 273.165 194.8 273.778 194.254ZM272.211 201.282L273.506 199.644C273.642 199.508 273.778 199.439 273.847 199.439C273.847 199.439 273.915 199.439 273.983 199.439C274.051 199.439 274.119 199.508 274.119 199.508C274.119 199.576 274.187 199.576 274.187 199.644V201.35C274.187 201.623 273.983 201.896 273.778 201.964C273.574 202.032 273.438 202.032 273.233 202.032C273.029 202.032 272.756 202.032 272.552 201.964C272.416 201.896 272.279 201.896 272.143 201.828C272.007 201.828 272.075 201.486 272.211 201.282ZM275.141 200.872V199.166C275.141 199.03 275.209 198.825 275.346 198.689C275.414 198.621 275.414 198.621 275.482 198.552C275.618 198.416 275.754 198.348 275.823 198.348L276.572 198.416L277.117 198.484C277.185 198.484 277.253 198.484 277.253 198.552C277.322 198.689 277.322 198.825 277.185 199.03C276.776 199.781 276.231 200.463 275.618 201.009C275.55 201.077 275.482 201.077 275.482 201.077C275.277 201.145 275.141 201.077 275.141 200.872Z" fill="url(#paint11_linear_1025_310)"/>
<path d="M278.616 193.367C278.48 193.162 278.275 192.958 278.071 192.821C277.867 192.685 277.662 192.548 277.458 192.48C277.185 192.412 276.913 192.344 276.572 192.412C276.095 192.48 275.482 192.616 274.937 192.958C272.62 194.322 270.78 197.529 270.78 200.19C270.78 201.623 271.325 202.578 272.143 202.988C272.893 203.329 273.846 203.261 274.937 202.578C277.253 201.214 279.093 198.007 279.093 195.346C279.093 194.527 278.957 193.845 278.616 193.367ZM274.46 201.555C274.46 201.828 274.255 202.101 274.051 202.169C273.71 202.237 273.37 202.305 273.097 202.237C272.893 202.237 272.756 202.169 272.552 202.101C272.484 202.101 272.484 202.032 272.416 202.032C272.279 201.964 272.279 201.623 272.484 201.35L273.778 199.713C273.915 199.576 274.051 199.508 274.119 199.508C274.119 199.508 274.187 199.508 274.255 199.508C274.392 199.508 274.46 199.644 274.46 199.781V201.555ZM275.822 193.299C276.299 193.162 276.708 193.162 277.117 193.299C277.253 193.299 277.322 193.367 277.458 193.435C277.594 193.504 277.594 193.845 277.39 194.118L276.095 195.755C275.959 195.892 275.822 195.96 275.754 195.96C275.686 195.96 275.686 195.96 275.618 195.96C275.55 195.96 275.482 195.96 275.482 195.892C275.482 195.823 275.482 195.823 275.482 195.755V194.049C275.414 193.64 275.618 193.367 275.822 193.299ZM278.344 194.732C278.412 195.005 278.48 195.346 278.48 195.755C278.48 196.096 278.412 196.506 278.344 196.915C278.275 197.188 278.003 197.461 277.867 197.461L277.117 197.393L276.572 197.324C276.504 197.324 276.436 197.324 276.436 197.256C276.436 197.188 276.436 197.188 276.436 197.12V197.052V196.983C276.436 196.847 276.504 196.642 276.64 196.506L277.935 194.868C277.935 194.8 278.003 194.8 278.071 194.732C278.139 194.663 278.139 194.663 278.207 194.663C278.207 194.527 278.275 194.595 278.344 194.732ZM275.822 201.145C275.618 201.282 275.482 201.282 275.414 201.145C275.414 201.145 275.414 201.077 275.414 201.009V199.303C275.414 199.167 275.482 198.962 275.618 198.826C275.686 198.757 275.686 198.757 275.754 198.689C275.891 198.553 276.027 198.484 276.095 198.484H276.504L277.253 198.553H277.39C277.594 198.553 277.594 198.826 277.458 199.098C276.981 199.917 276.436 200.6 275.822 201.145ZM274.46 194.459V196.165C274.46 196.301 274.392 196.506 274.255 196.642C274.187 196.71 274.187 196.71 274.119 196.779C273.983 196.915 273.846 196.983 273.778 196.983L272.484 196.847C272.416 196.847 272.347 196.779 272.347 196.779C272.279 196.642 272.279 196.506 272.416 196.301C272.824 195.55 273.37 194.868 273.983 194.322C274.051 194.254 274.119 194.254 274.119 194.254C274.323 194.186 274.46 194.254 274.46 194.459ZM271.53 200.804C271.462 200.463 271.394 200.19 271.394 199.781C271.394 199.44 271.462 199.03 271.53 198.621C271.598 198.348 271.87 198.075 272.007 198.075L273.165 198.211H273.301C273.438 198.211 273.506 198.28 273.506 198.484V198.621C273.506 198.757 273.438 198.962 273.301 199.098L272.007 200.736C271.87 200.941 271.598 201.009 271.53 200.804Z" fill="url(#paint12_linear_1025_310)"/>
<path d="M274.391 190.501C275.413 189.955 276.367 189.614 277.321 189.614C279.501 189.614 280.932 191.184 281.205 194.527L314.252 176.992C314.184 175.695 314.184 175.354 314.184 175.013C314.184 171.192 316.773 166.757 320.043 164.846C321.066 164.301 322.019 163.959 322.973 163.959C325.358 163.959 326.857 165.802 326.857 168.667C328.084 167.166 329.855 164.505 329.855 162.39C329.855 157.887 325.495 151.268 315.478 148.403C306.28 145.81 302.396 145.673 296.195 147.038C289.995 148.403 289.45 149.29 286.452 149.631C283.453 149.972 282.159 146.765 267.645 155.089C253.132 163.414 246.863 171.192 243.593 173.648C240.322 176.105 238.278 177.06 237.12 178.834C235.961 180.608 234.803 189.273 236.438 191.866C238.074 194.459 254.836 202.715 259.128 203.124C263.08 203.533 267.782 200.872 268.463 200.463C268.668 196.642 271.189 192.344 274.391 190.501Z" fill="url(#paint13_radial_1025_310)"/>
<path opacity="0.5" d="M324.813 153.315C322.565 151.337 319.43 149.563 315.41 148.471C309.482 146.765 305.803 146.151 302.191 146.219C299.193 146.97 295.718 148.061 292.856 149.426C288.768 151.268 310.709 159.797 310.709 159.797C314.524 160.002 322.973 155.772 324.813 153.315Z" fill="url(#paint14_linear_1025_310)"/>
<path opacity="0.5" d="M271.257 173.989C271.257 173.989 276.708 167.03 284.135 162.799C292.857 157.887 297.422 157.477 297.422 157.477L290.608 151.882L281.818 149.358C281.818 149.358 277.253 150.04 271.189 153.315C265.057 156.59 252.11 166.416 252.11 166.416L271.257 173.989Z" fill="url(#paint15_linear_1025_310)"/>
<path d="M253.677 165.597C251.156 166.006 244.955 171.942 244.751 174.603C244.546 177.264 255.789 184.224 262.671 182.996C269.485 181.768 272.006 174.74 271.597 173.239C271.188 171.806 258.855 164.778 253.677 165.597Z" fill="url(#paint16_linear_1025_310)"/>
<path d="M260.968 182.587C255.585 182.587 248.499 178.697 246.046 176.036C245.229 175.149 245.229 174.672 245.229 174.603C245.433 172.147 251.497 166.416 253.678 166.075C253.95 166.006 254.223 166.006 254.495 166.006C259.878 166.006 270.44 172.147 271.121 173.444C271.189 173.785 270.985 175.422 269.69 177.469C268.736 179.038 266.488 181.768 262.604 182.45C262.127 182.587 261.582 182.587 260.968 182.587Z" fill="url(#paint17_linear_1025_310)"/>
<path d="M280.864 149.29C280.864 149.29 289.381 149.017 294.628 149.563C299.875 150.108 305.462 152.155 308.324 154.953C310.709 157.273 312.889 160.07 310.777 159.729C308.596 159.388 298.171 157.682 297.354 157.477C296.536 157.273 293.947 155.089 289.654 152.565C285.634 150.313 280.864 149.29 280.864 149.29Z" fill="url(#paint18_linear_1025_310)"/>
<path d="M310.027 159.047C309.959 159.047 309.891 159.047 309.823 159.047C307.71 158.774 297.967 157.136 297.217 156.931C296.945 156.863 296.127 156.317 295.173 155.635C293.81 154.68 292.039 153.452 289.654 152.087C287.678 150.927 285.497 150.108 283.794 149.563C284.271 149.563 284.748 149.563 285.293 149.563C287.882 149.563 290.88 149.494 293.606 149.767C298.989 150.313 304.372 152.428 307.029 155.021C309.346 157.341 310.231 158.705 310.231 159.047C310.095 159.047 310.095 159.047 310.027 159.047Z" fill="url(#paint19_linear_1025_310)"/>
<g opacity="0.5">
<path d="M295.582 185.384H295.241C295.241 185.316 295.582 180.403 293.47 174.194C292.175 170.373 287.474 164.573 287.474 164.505L287.746 164.301C287.814 164.369 292.516 170.237 293.81 174.126C295.855 180.335 295.582 185.316 295.582 185.384Z" fill="url(#paint20_linear_1025_310)"/>
</g>
<path opacity="0.5" d="M251.565 191.729L251.77 192.548C251.77 192.548 255.994 194.595 259.061 195.209C262.127 195.823 264.716 192.753 264.716 192.344C264.716 191.934 263.149 192.548 260.083 192.139C258.243 191.798 253.405 192.412 251.565 191.729Z" fill="url(#paint21_linear_1025_310)"/>
<path d="M252.519 190.228L251.497 191.661C251.497 191.661 252.655 192.207 254.154 192.821C255.653 193.435 257.629 194.117 259.128 194.39C260.696 194.732 262.058 194.254 263.081 193.708C264.103 193.162 264.716 192.412 264.716 192.207C264.716 191.798 263.285 191.798 260.151 191.32C258.652 191.115 255.994 190.365 254.086 189.751C253.541 189.546 252.86 189.751 252.519 190.228Z" fill="url(#paint22_radial_1025_310)"/>
<path d="M252.587 190.296C252.928 189.819 253.609 189.682 254.155 189.887C255.108 190.228 256.199 190.569 257.289 190.842C258.311 191.115 259.333 191.32 260.083 191.456C260.696 191.525 261.309 191.593 261.786 191.661C263.558 191.866 264.443 192.002 264.512 192.275C264.58 192.48 264.035 193.162 263.149 193.64C262.331 194.117 261.241 194.527 260.083 194.459C259.81 194.459 259.537 194.39 259.265 194.39C257.834 194.117 255.994 193.435 254.563 192.889C253.133 192.343 252.042 191.866 252.042 191.798C251.906 191.729 252.519 190.774 252.451 190.706L252.587 190.296Z" fill="url(#paint23_radial_1025_310)"/>
<path d="M252.655 190.297C252.996 189.887 253.609 189.751 254.222 189.955C255.176 190.297 256.198 190.569 257.288 190.842C258.31 191.115 259.264 191.32 259.946 191.456C260.559 191.525 261.104 191.593 261.581 191.661C263.284 191.866 264.102 191.934 264.238 192.207C264.307 192.412 263.898 193.026 263.08 193.503C262.262 193.981 261.24 194.39 260.014 194.39C259.741 194.39 259.469 194.322 259.196 194.322C257.833 194.049 256.13 193.435 254.699 192.889C253.404 192.343 252.382 191.934 252.314 191.866C252.11 191.798 252.519 190.842 252.382 190.774L252.655 190.297Z" fill="url(#paint24_radial_1025_310)"/>
<path d="M252.792 190.297C253.133 189.955 253.746 189.819 254.291 190.024C255.177 190.297 256.267 190.638 257.221 190.911C258.175 191.184 259.129 191.388 259.81 191.525C260.424 191.593 260.969 191.661 261.446 191.729C263.013 191.934 263.83 192.002 264.035 192.275C264.171 192.48 263.762 192.958 263.149 193.435C262.4 193.913 261.309 194.322 260.083 194.322C259.81 194.322 259.538 194.254 259.265 194.254C257.971 193.981 256.335 193.435 255.041 192.958C253.814 192.48 252.86 192.071 252.792 192.002C252.451 191.866 252.724 190.979 252.52 190.911L252.792 190.297Z" fill="url(#paint25_radial_1025_310)"/>
<path d="M252.86 190.297C253.201 190.024 253.814 189.955 254.359 190.092C255.245 190.365 256.267 190.706 257.221 190.979C258.175 191.252 259.061 191.457 259.742 191.525C260.355 191.593 260.832 191.661 261.309 191.729C262.808 191.934 263.626 192.002 263.83 192.207C263.967 192.344 263.694 192.821 263.217 193.231C262.468 193.708 261.377 194.186 260.151 194.118C259.878 194.118 259.606 194.049 259.333 194.049C258.107 193.776 256.608 193.299 255.313 192.821C254.155 192.412 253.337 192.002 253.133 191.934C252.724 191.798 252.792 190.911 252.52 190.842L252.86 190.297Z" fill="url(#paint26_radial_1025_310)"/>
<path d="M252.928 190.365C253.269 190.16 253.814 190.092 254.359 190.228C255.245 190.501 256.199 190.774 257.153 191.047C258.039 191.32 258.924 191.525 259.606 191.593C260.151 191.661 260.696 191.729 261.105 191.798C262.468 192.002 263.285 192.07 263.558 192.275C263.762 192.412 263.558 192.821 263.149 193.162C262.4 193.64 261.309 194.117 260.083 194.049C259.81 194.049 259.538 193.981 259.265 193.981C258.107 193.776 256.744 193.299 255.518 192.821C254.496 192.412 253.678 192.07 253.473 192.002C252.928 191.798 252.86 191.047 252.52 190.911L252.928 190.365Z" fill="url(#paint27_radial_1025_310)"/>
<path d="M252.996 190.365C253.337 190.228 253.882 190.16 254.359 190.365C255.177 190.638 256.131 190.911 257.017 191.184C257.902 191.388 258.72 191.593 259.401 191.729C259.947 191.798 260.424 191.866 260.832 191.934C262.127 192.071 262.876 192.207 263.217 192.343C263.422 192.48 263.353 192.821 263.081 193.094C262.331 193.572 261.241 194.049 260.015 194.049C259.742 194.049 259.47 194.049 259.197 193.981C258.107 193.776 256.812 193.367 255.722 192.958C254.768 192.616 254.087 192.275 253.814 192.207C253.201 192.002 252.928 191.252 252.52 191.047L252.996 190.365Z" fill="url(#paint28_radial_1025_310)"/>
<path d="M253.132 190.365C253.473 190.228 254.018 190.296 254.495 190.433C255.313 190.706 256.199 190.979 257.084 191.183C257.902 191.388 258.72 191.593 259.401 191.729C259.946 191.798 260.423 191.866 260.832 191.934C261.99 192.07 262.74 192.139 263.149 192.343C263.421 192.48 263.421 192.753 263.285 192.957C262.535 193.435 261.513 193.913 260.219 193.913C259.946 193.913 259.674 193.913 259.401 193.844C258.379 193.64 257.221 193.23 256.131 192.889C255.313 192.616 254.631 192.275 254.359 192.207C253.609 191.934 253.201 191.252 252.724 191.047L253.132 190.365Z" fill="url(#paint29_radial_1025_310)"/>
<path d="M253.201 190.365C253.541 190.296 254.018 190.365 254.495 190.501C255.313 190.774 256.131 191.047 257.016 191.252C257.834 191.456 258.583 191.661 259.265 191.798C259.742 191.866 260.219 191.934 260.628 192.002C261.718 192.139 262.467 192.207 262.876 192.343C263.149 192.412 263.285 192.685 263.217 192.889C262.535 193.367 261.445 193.913 260.151 193.844C259.878 193.844 259.606 193.844 259.333 193.776C258.379 193.572 257.357 193.23 256.335 192.889C255.585 192.616 255.04 192.412 254.7 192.275C253.814 191.934 253.269 191.32 252.724 191.115L253.201 190.365Z" fill="url(#paint30_radial_1025_310)"/>
<path d="M253.269 190.365C253.61 190.365 254.087 190.433 254.564 190.569C255.313 190.842 256.131 191.047 256.948 191.32C257.698 191.525 258.447 191.729 259.061 191.798C259.538 191.866 259.946 191.934 260.355 192.002C261.309 192.139 262.059 192.207 262.536 192.343C262.876 192.412 263.081 192.616 263.149 192.753C262.468 193.23 261.377 193.776 260.151 193.776C259.878 193.776 259.606 193.776 259.333 193.708C258.516 193.572 257.494 193.23 256.608 192.889C255.994 192.685 255.449 192.48 255.109 192.343C254.155 192.002 253.405 191.456 252.792 191.184L253.269 190.365Z" fill="url(#paint31_radial_1025_310)"/>
<path d="M253.405 190.433C253.746 190.501 254.223 190.638 254.632 190.774C255.381 191.047 256.199 191.252 256.948 191.457C257.698 191.661 258.379 191.798 258.993 191.934C259.47 192.002 259.878 192.071 260.219 192.139C261.105 192.275 261.786 192.344 262.331 192.412C262.672 192.48 262.945 192.616 263.149 192.685C262.468 193.162 261.377 193.708 260.151 193.708C259.878 193.708 259.606 193.708 259.333 193.64C258.584 193.503 257.698 193.231 256.812 192.958C256.267 192.753 255.79 192.617 255.449 192.48C254.359 192.071 253.473 191.593 252.792 191.32L253.405 190.433Z" fill="url(#paint32_radial_1025_310)"/>
<path d="M260.15 193.64C259.878 193.64 259.605 193.64 259.332 193.572C258.31 193.367 257.016 192.958 255.857 192.548C254.699 192.139 253.609 191.661 252.859 191.32L253.473 190.433C254.495 190.774 255.721 191.184 256.88 191.525C258.038 191.866 259.196 192.139 260.082 192.207C260.832 192.344 261.513 192.412 262.126 192.48C262.535 192.548 262.876 192.548 263.216 192.616C262.535 193.094 261.445 193.64 260.15 193.64Z" fill="url(#paint33_radial_1025_310)"/>
<path opacity="0.5" d="M235.962 183.405L239.573 185.248L240.186 184.906L236.643 180.335C236.439 181.086 236.166 182.177 235.962 183.405Z" fill="url(#paint34_linear_1025_310)"/>
<path d="M235.962 182.723L240.186 184.975L239.914 182.587C239.846 182.177 239.641 181.768 239.301 181.563L236.643 179.653C236.439 180.403 236.166 181.495 235.962 182.723Z" fill="url(#paint35_radial_1025_310)"/>
<path d="M236.712 179.721L239.301 181.563C239.642 181.768 239.914 182.177 239.914 182.586L240.119 184.838L236.03 182.655C236.167 181.495 236.439 180.471 236.712 179.721Z" fill="url(#paint36_radial_1025_310)"/>
<path d="M236.644 179.857L239.165 181.631C239.437 181.836 239.778 182.245 239.778 182.586L239.982 184.77L236.03 182.655C236.235 181.495 236.439 180.539 236.644 179.857Z" fill="url(#paint37_radial_1025_310)"/>
<path d="M236.644 179.926L239.097 181.631C239.369 181.836 239.71 182.245 239.71 182.518L239.914 184.565L236.099 182.518C236.235 181.495 236.439 180.608 236.644 179.926Z" fill="url(#paint38_radial_1025_310)"/>
<path d="M236.644 179.994L238.96 181.631C239.165 181.768 239.574 182.177 239.574 182.45L239.778 184.36L236.099 182.382C236.303 181.495 236.439 180.676 236.644 179.994Z" fill="url(#paint39_radial_1025_310)"/>
<path d="M236.643 180.13L238.892 181.699C239.096 181.836 239.505 182.245 239.505 182.518L239.709 184.292L236.166 182.382C236.302 181.495 236.507 180.744 236.643 180.13Z" fill="url(#paint40_radial_1025_310)"/>
<path d="M236.644 180.198L238.824 181.7C238.96 181.836 239.437 182.245 239.437 182.45L239.574 184.088L236.099 182.245C236.303 181.495 236.507 180.744 236.644 180.198Z" fill="url(#paint41_radial_1025_310)"/>
<path d="M236.643 180.335L238.755 181.768C238.892 181.836 239.369 182.314 239.437 182.45L239.573 183.951L236.234 182.177C236.371 181.495 236.507 180.813 236.643 180.335Z" fill="url(#paint42_radial_1025_310)"/>
<path d="M236.643 180.403L238.688 181.836C238.756 181.904 239.301 182.314 239.369 182.45L239.505 183.883L236.303 182.177C236.371 181.495 236.507 180.881 236.643 180.403Z" fill="url(#paint43_radial_1025_310)"/>
<path d="M236.643 180.54L238.551 181.904C238.619 181.972 239.233 182.382 239.233 182.45L239.369 183.746L236.303 182.109C236.439 181.495 236.507 180.949 236.643 180.54Z" fill="url(#paint44_radial_1025_310)"/>
<path d="M236.644 180.608L238.483 181.904C238.483 181.904 239.165 182.382 239.165 182.45L239.301 183.61L236.371 182.041C236.439 181.495 236.507 181.017 236.644 180.608Z" fill="url(#paint45_radial_1025_310)"/>
<path d="M236.371 181.904C236.439 181.495 236.507 181.086 236.644 180.744L239.097 182.45L239.233 183.474L236.371 181.904Z" fill="url(#paint46_radial_1025_310)"/>
<path opacity="0.5" d="M247 185.93C251.088 188.454 257.561 190.365 262.058 190.569C266.487 190.706 306.28 167.507 306.28 167.507C306.28 167.507 276.163 183.2 269.417 185.93C262.672 188.727 255.108 187.499 249.18 184.224C244.206 181.495 240.118 177.947 238.891 176.855C238.142 177.469 237.529 178.015 237.12 178.697C237.12 178.697 237.12 178.765 237.052 178.765C238.483 179.994 242.367 183.132 247 185.93Z" fill="url(#paint47_linear_1025_310)"/>
<path d="M243.729 185.862V189.887L248.772 192.753V188.932L243.729 185.862Z" fill="url(#paint48_linear_1025_310)"/>
<path d="M243.593 185.657V189.683L248.635 192.48V188.727L243.593 185.657Z" fill="url(#paint49_linear_1025_310)"/>
<path d="M240.663 183.746L241.685 184.565C244.479 186.885 247.681 188.727 251.088 189.955L240.663 183.746Z" fill="url(#paint50_linear_1025_310)"/>
<path d="M251.292 195.346C250.679 195.346 250.066 195.209 249.521 194.868L240.799 190.16C239.777 189.614 239.027 188.591 238.891 187.431L238.414 184.292L238.755 184.224L239.232 187.363C239.368 188.386 240.049 189.341 240.935 189.819L249.657 194.527C251.088 195.346 252.927 194.936 253.95 193.64L254.495 192.958L254.767 193.162L254.222 193.845C253.473 194.8 252.382 195.346 251.292 195.346Z" fill="url(#paint51_linear_1025_310)"/>
<path d="M237.188 192.685C240.39 195.414 251.224 200.804 256.811 202.578L255.925 200.736C255.517 199.917 254.835 199.235 253.949 198.894L252.382 198.211C248.703 196.574 245.091 194.663 241.616 192.616L239.436 191.32C238.823 190.979 238.073 191.184 237.733 191.729L237.188 192.685Z" fill="url(#paint52_linear_1025_310)"/>
<g opacity="0.5">
<path d="M283.999 192.002L283.93 191.798C283.93 191.729 282.499 186.68 280.251 182.382C278.684 179.379 274.595 176.582 274.527 176.514L274.732 176.241C274.936 176.377 278.956 179.175 280.523 182.245C282.499 186.066 283.862 190.433 284.203 191.456L310.163 176.923C310.368 176.446 311.594 173.17 311.799 170.851C312.003 168.394 311.049 164.437 311.049 164.437L311.39 164.369C311.458 164.505 312.412 168.394 312.139 170.919C311.935 173.443 310.504 176.991 310.504 177.128V177.196H310.436L283.999 192.002Z" fill="url(#paint53_linear_1025_310)"/>
</g>
<path d="M277.39 177.196C275.891 177.196 274.937 176.855 274.392 176.173C273.983 175.627 273.847 174.945 274.051 174.126C274.8 170.987 287.679 160.002 298.785 160.002C298.989 160.002 299.194 160.002 299.398 160.002C307.643 160.343 311.527 164.232 311.527 164.232C311.527 164.232 295.855 173.443 286.316 175.627C281.887 176.787 279.161 177.196 277.39 177.196Z" fill="url(#paint54_linear_1025_310)"/>
<path d="M311.05 164.164C311.05 164.164 307.37 161.298 299.262 160.957C288.496 160.548 275.413 171.67 274.8 174.399C274.187 177.128 278.071 176.787 286.043 174.945C295.65 172.693 311.05 164.164 311.05 164.164Z" fill="url(#paint55_linear_1025_310)"/>
<path opacity="0.5" d="M284.34 191.661L309.96 177.196C309.96 177.196 291.358 185.793 288.769 187.363C286.18 188.864 284.34 191.661 284.34 191.661Z" fill="url(#paint56_linear_1025_310)"/>
<path d="M293.538 170.373C293.743 170.783 293.947 171.124 294.151 171.533C300.693 168.872 307.37 165.392 309.823 164.096C308.324 163.277 304.849 161.844 299.33 161.64C299.125 161.64 298.989 161.64 298.785 161.64C295.582 161.64 292.175 162.663 289.041 164.096C289.995 165.119 291.698 167.166 293.538 170.373Z" fill="url(#paint57_linear_1025_310)"/>
<path d="M290.609 169.486C289.518 167.303 288.428 165.597 287.815 164.642C283.658 166.757 279.979 169.554 277.73 171.67C278.003 172.761 278.412 174.126 279.093 175.559C280.729 175.354 282.909 174.945 285.975 174.262C287.679 173.853 289.586 173.239 291.562 172.557C291.426 171.465 291.085 170.441 290.609 169.486Z" fill="url(#paint58_linear_1025_310)"/>
<path opacity="0.5" d="M311.526 164.301C311.526 164.301 322.565 160.07 324.404 159.047C326.244 158.023 326.517 158.023 326.449 154.885C326.449 154.885 326.653 156.659 323.314 158.569C319.907 160.548 311.526 164.301 311.526 164.301Z" fill="url(#paint59_linear_1025_310)"/>
<path d="M324.2 158.979C324.2 158.979 329.447 161.026 329.038 158.842C328.629 156.659 326.449 154.748 326.449 154.748C326.449 154.748 326.858 158.296 324.2 158.979Z" fill="url(#paint60_linear_1025_310)"/>
<path d="M325.222 158.91C325.222 158.91 328.833 160.07 328.492 158.296C328.152 156.454 326.789 155.567 326.789 155.567C326.789 155.567 327.811 158.637 325.222 158.91Z" fill="url(#paint61_linear_1025_310)"/>
<path d="M324.063 158.91C324.063 158.91 325.767 159.388 327.198 159.661C327.402 158.979 327.607 158.296 327.539 157.819C327.47 156.727 326.38 154.816 326.38 154.816C326.38 154.816 327.13 158.569 324.063 158.91Z" fill="url(#paint62_linear_1025_310)"/>
<path d="M253.677 166.143C252.859 166.279 251.429 167.166 249.998 168.394C249.384 171.942 248.976 175.354 248.976 178.424C251.497 180.062 254.904 181.631 258.174 182.313C257.357 178.151 256.198 171.874 255.653 166.143C255.244 166.074 254.835 166.074 254.495 166.074C254.222 166.074 253.95 166.074 253.677 166.143Z" fill="url(#paint63_linear_1025_310)"/>
<path d="M265.192 181.631C263.353 177.947 260.695 172.215 258.719 166.825C257.697 166.484 256.743 166.279 255.857 166.143C257.016 172.283 258.924 178.151 260.763 182.586C260.831 182.586 260.968 182.586 261.036 182.586C261.649 182.586 262.194 182.518 262.671 182.45C263.557 182.313 264.443 181.972 265.192 181.631Z" fill="url(#paint64_linear_1025_310)"/>
<path d="M322.905 163.141C321.815 163.141 320.725 163.482 319.566 164.096C316.023 166.143 313.229 170.919 313.229 175.013C313.229 175.9 313.366 176.65 313.57 177.333L314.115 177.06C314.047 175.763 314.047 175.422 314.047 175.081C314.047 171.26 316.636 166.825 319.907 164.915C320.929 164.369 321.883 164.028 322.837 164.028C325.222 164.028 326.721 165.87 326.721 168.736C326.993 168.463 327.198 168.121 327.47 167.712C327.198 164.505 325.017 163.141 322.905 163.141Z" fill="url(#paint65_linear_1025_310)"/>
<path d="M277.253 188.795C276.163 188.795 275.072 189.137 273.914 189.751C270.371 191.798 267.577 196.574 267.577 200.668C267.577 200.736 267.577 200.736 267.577 200.804C267.986 200.599 268.259 200.395 268.395 200.326C268.531 196.574 271.052 192.343 274.255 190.433C275.277 189.887 276.231 189.546 277.185 189.546C279.365 189.546 280.796 191.115 281.068 194.459L281.954 193.981C281.886 190.433 279.569 188.795 277.253 188.795Z" fill="url(#paint66_linear_1025_310)"/>
<path d="M311.526 164.301C311.526 164.301 310.436 166.348 310.504 167.917C310.641 169.486 309.755 169.759 309.074 169.554C308.392 169.418 308.801 163.618 311.526 164.301Z" fill="url(#paint67_linear_1025_310)"/>
<path d="M311.595 164.301C311.595 164.301 309.415 163.004 308.324 163.004C307.166 163.004 307.37 167.644 308.665 167.712C309.891 167.849 309.483 165.665 310.096 165.119C310.641 164.642 311.595 164.301 311.595 164.301Z" fill="url(#paint68_radial_1025_310)"/>
<path d="M309.074 164.778C309.074 165.665 308.733 166.416 308.392 166.416C307.983 166.416 307.711 165.665 307.711 164.778C307.711 163.891 308.052 163.141 308.392 163.141C308.801 163.141 309.074 163.891 309.074 164.778Z" fill="url(#paint69_linear_1025_310)"/>
<path d="M285.226 149.494C284.681 149.494 284.204 149.494 283.727 149.494C285.43 150.04 287.61 150.859 289.586 152.019C290.404 152.497 291.154 152.974 291.835 153.384C292.176 152.224 292.653 150.995 293.266 149.699C290.54 149.494 287.747 149.494 285.226 149.494Z" fill="url(#paint70_linear_1025_310)"/>
<path d="M296.604 167.712C296.059 167.712 295.445 167.576 294.9 167.234L295.173 166.757C295.65 167.03 296.059 167.166 296.604 167.166C298.103 167.166 299.193 165.938 299.193 164.301H299.738C299.738 166.279 298.444 167.712 296.604 167.712Z" fill="url(#paint71_linear_1025_310)"/>
<path d="M299.739 147.72H299.194C299.194 146.219 298.308 144.65 297.149 143.899L297.422 143.422C298.785 144.241 299.739 146.015 299.739 147.72Z" fill="url(#paint72_linear_1025_310)"/>
<path d="M261.309 128.07H260.764C260.764 126.091 262.126 124.658 263.898 124.658C264.443 124.658 265.056 124.795 265.601 125.136L265.329 125.613C264.852 125.341 264.443 125.204 263.898 125.204C262.467 125.136 261.309 126.364 261.309 128.07Z" fill="url(#paint73_linear_1025_310)"/>
<path d="M263.149 148.88C261.786 148.062 260.832 146.356 260.832 144.582H261.377C261.377 146.083 262.263 147.652 263.421 148.403L263.149 148.88Z" fill="url(#paint74_linear_1025_310)"/>
<path d="M297.558 147.516C297.558 147.243 297.49 146.97 297.422 146.765C297.218 146.151 296.809 145.605 296.332 145.332L264.512 126.91C264.307 126.773 264.103 126.773 263.898 126.773C263.421 126.773 262.944 127.183 262.944 128.002V144.582C262.944 145.537 263.489 146.56 264.171 146.97L273.029 152.087L273.369 152.292L288.019 160.753L289.586 161.708L289.995 161.912L291.017 162.458L291.767 162.868L295.991 165.324C296.196 165.46 296.4 165.46 296.604 165.46C297.081 165.46 297.558 165.051 297.558 164.232V147.652C297.558 147.652 297.558 147.584 297.558 147.516ZM297.013 164.301C297.013 164.642 296.877 164.983 296.604 164.983C296.536 164.983 296.4 164.983 296.264 164.915L292.448 162.731L291.699 162.254L290.676 161.64L290.131 161.367L288.564 160.48L273.915 152.019L273.574 151.814L264.375 146.492C263.83 146.151 263.353 145.332 263.353 144.582V128.002C263.353 127.66 263.489 127.319 263.762 127.319C263.83 127.319 263.966 127.319 264.103 127.388L295.923 145.81C296.264 146.015 296.536 146.424 296.741 146.833C296.877 147.106 296.945 147.379 296.945 147.652V164.301H297.013Z" fill="url(#paint75_linear_1025_310)"/>
<path opacity="0.3" d="M296.604 164.915C296.536 164.915 296.468 164.915 296.332 164.846L264.512 146.424C264.035 146.151 263.558 145.332 263.558 144.582V128.002C263.558 127.729 263.626 127.387 263.83 127.387C263.898 127.387 263.966 127.387 264.103 127.456L295.923 145.878C296.4 146.151 296.877 146.97 296.877 147.72V164.3C296.945 164.573 296.809 164.915 296.604 164.915Z" fill="#E30613"/>
<path d="M271.597 136.803L270.098 135.985L268.19 144.241L269.485 145.059L269.826 143.558L271.802 144.718L272.142 146.56L273.505 147.379L271.597 136.803ZM270.235 141.989L270.848 138.919L271.529 142.739L270.235 141.989Z" fill="#E52916"/>
<path d="M275.481 146.697V138.919L274.118 138.168V147.72L277.184 149.563V147.72L275.481 146.697Z" fill="#E52916"/>
<path d="M281.41 144.104V142.194L277.935 140.283V149.972L278.071 150.04L278.48 150.313L281.41 152.019V150.108L280.66 149.699L280.319 149.494L279.297 148.88V146.765L281.137 147.857V146.015L279.297 144.923V142.944L281.41 144.104Z" fill="#E52916"/>
<path d="M285.634 150.723L285.566 150.586C285.634 150.586 285.702 150.586 285.77 150.586C285.906 150.586 286.043 150.518 286.179 150.45C286.315 150.381 286.451 150.245 286.588 150.04C286.656 149.904 286.724 149.699 286.792 149.563C286.792 149.494 286.86 149.426 286.86 149.29C286.928 149.017 286.928 148.744 286.928 148.471C286.928 147.857 286.86 147.311 286.656 146.697C286.519 146.151 286.247 145.605 285.906 145.128C285.566 144.65 285.157 144.309 284.68 144.036L282.295 142.671V152.565L283.726 153.384V149.631L284.067 149.836L284.135 150.04L284.203 150.177L285.361 154.339L286.996 155.294L285.634 150.723ZM283.726 145.537L284.612 146.015C284.884 146.151 285.089 146.356 285.225 146.697C285.361 146.97 285.429 147.311 285.429 147.72C285.429 148.13 285.361 148.403 285.225 148.539C285.089 148.676 284.884 148.676 284.612 148.539L283.726 147.993V145.537Z" fill="#E52916"/>
<path d="M291.971 148.062L287.542 145.605V147.584L289.177 148.471V156.659L290.676 157.546V149.358L291.153 149.631L292.312 150.313V148.334L291.971 148.062Z" fill="#E52916"/>
</g>
<defs>
<linearGradient id="paint0_linear_1025_310" x1="22.7349" y1="270.489" x2="563.466" y2="80.087" gradientUnits="userSpaceOnUse">
<stop offset="0.00175898" stop-color="#9D9D9C"/>
<stop offset="0.9967" stop-color="#7C7C7B"/>
</linearGradient>
<linearGradient id="paint1_linear_1025_310" x1="271.471" y1="190.489" x2="281.706" y2="190.489" gradientUnits="userSpaceOnUse">
<stop stop-color="#25054D"/>
<stop offset="1" stop-color="#1B2B69"/>
</linearGradient>
<linearGradient id="paint2_linear_1025_310" x1="317.223" y1="164.558" x2="327.459" y2="164.558" gradientUnits="userSpaceOnUse">
<stop stop-color="#25054D"/>
<stop offset="1" stop-color="#1B2B69"/>
</linearGradient>
<linearGradient id="paint3_linear_1025_310" x1="313.153" y1="176.586" x2="322.7" y2="163.81" gradientUnits="userSpaceOnUse">
<stop stop-color="#010002"/>
<stop offset="0.0253277" stop-color="#030106"/>
<stop offset="0.1915" stop-color="#0F0419"/>
<stop offset="0.3616" stop-color="#170524"/>
<stop offset="0.5404" stop-color="#190628"/>
<stop offset="0.7029" stop-color="#0B0312"/>
<stop offset="0.8596" stop-color="#030105"/>
<stop offset="1"/>
</linearGradient>
<linearGradient id="paint4_linear_1025_310" x1="325.905" y1="171.868" x2="315.042" y2="171.868" gradientUnits="userSpaceOnUse">
<stop stop-color="#100221"/>
<stop offset="1" stop-color="#10054D"/>
</linearGradient>
<radialGradient id="paint5_radial_1025_310" cx="0" cy="0" r="1" gradientUnits="userSpaceOnUse" gradientTransform="translate(319.355 171.684) rotate(180) scale(5.868 5.87604)">
<stop stop-color="white"/>
<stop offset="1"/>
</radialGradient>
<linearGradient id="paint6_linear_1025_310" x1="324.474" y1="171.957" x2="316.114" y2="171.957" gradientUnits="userSpaceOnUse">
<stop stop-color="#BCBEC0"/>
<stop offset="1" stop-color="#E6E7E8"/>
</linearGradient>
<linearGradient id="paint7_linear_1025_310" x1="324.74" y1="172.063" x2="316.372" y2="172.063" gradientUnits="userSpaceOnUse">
<stop stop-color="#BCBEC0"/>
<stop offset="1" stop-color="#E6E7E8"/>
</linearGradient>
<linearGradient id="paint8_linear_1025_310" x1="267.521" y1="202.256" x2="277.068" y2="189.48" gradientUnits="userSpaceOnUse">
<stop stop-color="#010002"/>
<stop offset="0.0253277" stop-color="#030106"/>
<stop offset="0.1915" stop-color="#0F0419"/>
<stop offset="0.3616" stop-color="#170524"/>
<stop offset="0.5404" stop-color="#190628"/>
<stop offset="0.7029" stop-color="#0B0312"/>
<stop offset="0.8596" stop-color="#030105"/>
<stop offset="1"/>
</linearGradient>
<linearGradient id="paint9_linear_1025_310" x1="280.274" y1="197.539" x2="269.411" y2="197.539" gradientUnits="userSpaceOnUse">
<stop stop-color="#100221"/>
<stop offset="1" stop-color="#10054D"/>
</linearGradient>
<radialGradient id="paint10_radial_1025_310" cx="0" cy="0" r="1" gradientUnits="userSpaceOnUse" gradientTransform="translate(273.723 197.355) rotate(180) scale(5.868 5.87603)">
<stop stop-color="white"/>
<stop offset="1"/>
</radialGradient>
<linearGradient id="paint11_linear_1025_310" x1="278.842" y1="197.629" x2="270.482" y2="197.629" gradientUnits="userSpaceOnUse">
<stop stop-color="#BCBEC0"/>
<stop offset="1" stop-color="#E6E7E8"/>
</linearGradient>
<linearGradient id="paint12_linear_1025_310" x1="279.108" y1="197.733" x2="270.741" y2="197.733" gradientUnits="userSpaceOnUse">
<stop stop-color="#BCBEC0"/>
<stop offset="1" stop-color="#E6E7E8"/>
</linearGradient>
<radialGradient id="paint13_radial_1025_310" cx="0" cy="0" r="1" gradientUnits="userSpaceOnUse" gradientTransform="translate(281.611 160.959) scale(60.6811 60.7642)">
<stop stop-color="#2AF6FF"/>
<stop offset="0.6515" stop-color="#1376BD"/>
<stop offset="0.7585" stop-color="#1C67AF"/>
<stop offset="0.9649" stop-color="#323E8B"/>
<stop offset="0.9949" stop-color="#363885"/>
</radialGradient>
<linearGradient id="paint14_linear_1025_310" x1="304.336" y1="160.018" x2="317.554" y2="134.058" gradientUnits="userSpaceOnUse">
<stop stop-color="#138BBD"/>
<stop offset="0.6337" stop-color="#31C5D3"/>
<stop offset="1" stop-color="#43E8E1"/>
</linearGradient>
<linearGradient id="paint15_linear_1025_310" x1="259.756" y1="161.702" x2="300.13" y2="161.702" gradientUnits="userSpaceOnUse">
<stop stop-color="#138BBD"/>
<stop offset="0.6337" stop-color="#31C5D3"/>
<stop offset="1" stop-color="#43E8E1"/>
</linearGradient>
<linearGradient id="paint16_linear_1025_310" x1="244.782" y1="174.328" x2="271.617" y2="174.328" gradientUnits="userSpaceOnUse">
<stop stop-color="#010002"/>
<stop offset="0.0253277" stop-color="#030106"/>
<stop offset="0.1915" stop-color="#0F0419"/>
<stop offset="0.3616" stop-color="#170524"/>
<stop offset="0.5404" stop-color="#190628"/>
<stop offset="0.7029" stop-color="#0B0312"/>
<stop offset="0.8596" stop-color="#030105"/>
<stop offset="1"/>
</linearGradient>
<linearGradient id="paint17_linear_1025_310" x1="245.235" y1="174.328" x2="271.175" y2="174.328" gradientUnits="userSpaceOnUse">
<stop stop-color="#25054D"/>
<stop offset="0.6919" stop-color="#1B2B69"/>
<stop offset="1" stop-color="#3746A3"/>
</linearGradient>
<linearGradient id="paint18_linear_1025_310" x1="280.888" y1="154.499" x2="311.651" y2="154.499" gradientUnits="userSpaceOnUse">
<stop stop-color="#010002"/>
<stop offset="0.0253277" stop-color="#030106"/>
<stop offset="0.1915" stop-color="#0F0419"/>
<stop offset="0.3616" stop-color="#170524"/>
<stop offset="0.5404" stop-color="#190628"/>
<stop offset="0.7029" stop-color="#0B0312"/>
<stop offset="0.8596" stop-color="#030105"/>
<stop offset="1"/>
</linearGradient>
<linearGradient id="paint19_linear_1025_310" x1="319.154" y1="162.211" x2="284.465" y2="148.376" gradientUnits="userSpaceOnUse">
<stop stop-color="#25054D"/>
<stop offset="0.6919" stop-color="#1B2B69"/>
<stop offset="1" stop-color="#3746A3"/>
</linearGradient>
<linearGradient id="paint20_linear_1025_310" x1="287.399" y1="174.792" x2="295.591" y2="174.792" gradientUnits="userSpaceOnUse">
<stop offset="0.0353535" stop-color="#138BBD"/>
<stop offset="0.2257" stop-color="#169AC7"/>
<stop offset="0.5946" stop-color="#1FC3DF"/>
<stop offset="1" stop-color="#2AF6FF"/>
</linearGradient>
<linearGradient id="paint21_linear_1025_310" x1="251.558" y1="193.462" x2="264.71" y2="193.462" gradientUnits="userSpaceOnUse">
<stop stop-color="#138BBD"/>
<stop offset="0.6337" stop-color="#31C5D3"/>
<stop offset="1" stop-color="#43E8E1"/>
</linearGradient>
<radialGradient id="paint22_radial_1025_310" cx="0" cy="0" r="1" gradientUnits="userSpaceOnUse" gradientTransform="translate(260.312 192.774) scale(2.76687 2.77066)">
<stop stop-color="#FF63CE"/>
<stop offset="1" stop-color="#9F19AB"/>
</radialGradient>
<radialGradient id="paint23_radial_1025_310" cx="0" cy="0" r="1" gradientUnits="userSpaceOnUse" gradientTransform="translate(260.281 192.758) scale(3.01415 3.01828)">
<stop stop-color="#FF63CE"/>
<stop offset="1" stop-color="#9F19AB"/>
</radialGradient>
<radialGradient id="paint24_radial_1025_310" cx="0" cy="0" r="1" gradientUnits="userSpaceOnUse" gradientTransform="translate(260.24 192.741) scale(3.23532 3.23975)">
<stop stop-color="#FF63CE"/>
<stop offset="1" stop-color="#9F19AB"/>
</radialGradient>
<radialGradient id="paint25_radial_1025_310" cx="0" cy="0" r="1" gradientUnits="userSpaceOnUse" gradientTransform="translate(260.149 192.723) scale(3.46781 3.47255)">
<stop stop-color="#FF63CE"/>
<stop offset="1" stop-color="#9F19AB"/>
</radialGradient>
<radialGradient id="paint26_radial_1025_310" cx="0" cy="0" r="1" gradientUnits="userSpaceOnUse" gradientTransform="translate(260.02 192.706) scale(3.71351 3.71859)">
<stop stop-color="#FF63CE"/>
<stop offset="1" stop-color="#9F19AB"/>
</radialGradient>
<radialGradient id="paint27_radial_1025_310" cx="0" cy="0" r="1" gradientUnits="userSpaceOnUse" gradientTransform="translate(259.9 192.687) scale(3.94559 3.95099)">
<stop stop-color="#FF63CE"/>
<stop offset="1" stop-color="#9F19AB"/>
</radialGradient>
<radialGradient id="paint28_radial_1025_310" cx="0" cy="0" r="1" gradientUnits="userSpaceOnUse" gradientTransform="translate(259.792 192.667) scale(4.16779 4.17349)">
<stop stop-color="#FF63CE"/>
<stop offset="1" stop-color="#9F19AB"/>
</radialGradient>
<radialGradient id="paint29_radial_1025_310" cx="0" cy="0" r="1" gradientUnits="userSpaceOnUse" gradientTransform="translate(259.706 192.644) scale(4.38754 4.39355)">
<stop stop-color="#FF63CE"/>
<stop offset="1" stop-color="#9F19AB"/>
</radialGradient>
<radialGradient id="paint30_radial_1025_310" cx="0" cy="0" r="1" gradientUnits="userSpaceOnUse" gradientTransform="translate(259.665 192.617) scale(4.62152 4.62785)">
<stop stop-color="#FF63CE"/>
<stop offset="1" stop-color="#9F19AB"/>
</radialGradient>
<radialGradient id="paint31_radial_1025_310" cx="0" cy="0" r="1" gradientUnits="userSpaceOnUse" gradientTransform="translate(259.684 192.577) scale(4.88849 4.89517)">
<stop stop-color="#FF63CE"/>
<stop offset="1" stop-color="#9F19AB"/>
</radialGradient>
<radialGradient id="paint32_radial_1025_310" cx="0" cy="0" r="1" gradientUnits="userSpaceOnUse" gradientTransform="translate(259.707 192.532) scale(5.15675 5.16379)">
<stop stop-color="#FF63CE"/>
<stop offset="1" stop-color="#9F19AB"/>
</radialGradient>
<radialGradient id="paint33_radial_1025_310" cx="0" cy="0" r="1" gradientUnits="userSpaceOnUse" gradientTransform="translate(259.729 192.486) scale(5.42104 5.42845)">
<stop stop-color="#FF63CE"/>
<stop offset="1" stop-color="#9F19AB"/>
</radialGradient>
<linearGradient id="paint34_linear_1025_310" x1="235.979" y1="182.818" x2="240.219" y2="182.818" gradientUnits="userSpaceOnUse">
<stop stop-color="#138BBD"/>
<stop offset="0.6337" stop-color="#31C5D3"/>
<stop offset="1" stop-color="#43E8E1"/>
</linearGradient>
<radialGradient id="paint35_radial_1025_310" cx="0" cy="0" r="1" gradientUnits="userSpaceOnUse" gradientTransform="translate(235.459 181.17) scale(2.91808 2.92207)">
<stop stop-color="#FF63CE"/>
<stop offset="1" stop-color="#9F19AB"/>
</radialGradient>
<radialGradient id="paint36_radial_1025_310" cx="0" cy="0" r="1" gradientUnits="userSpaceOnUse" gradientTransform="translate(235.556 181.179) scale(2.88986 2.89382)">
<stop stop-color="#FF63CE"/>
<stop offset="1" stop-color="#9F19AB"/>
</radialGradient>
<radialGradient id="paint37_radial_1025_310" cx="0" cy="0" r="1" gradientUnits="userSpaceOnUse" gradientTransform="translate(235.65 181.19) scale(2.85485 2.85874)">
<stop stop-color="#FF63CE"/>
<stop offset="1" stop-color="#9F19AB"/>
</radialGradient>
<radialGradient id="paint38_radial_1025_310" cx="0" cy="0" r="1" gradientUnits="userSpaceOnUse" gradientTransform="translate(235.741 181.203) scale(2.81301 2.81685)">
<stop stop-color="#FF63CE"/>
<stop offset="1" stop-color="#9F19AB"/>
</radialGradient>
<radialGradient id="paint39_radial_1025_310" cx="0" cy="0" r="1" gradientUnits="userSpaceOnUse" gradientTransform="translate(235.829 181.217) scale(2.76442 2.76821)">
<stop stop-color="#FF63CE"/>
<stop offset="1" stop-color="#9F19AB"/>
</radialGradient>
<radialGradient id="paint40_radial_1025_310" cx="0" cy="0" r="1" gradientUnits="userSpaceOnUse" gradientTransform="translate(235.913 181.234) scale(2.70908 2.7128)">
<stop stop-color="#FF63CE"/>
<stop offset="1" stop-color="#9F19AB"/>
</radialGradient>
<radialGradient id="paint41_radial_1025_310" cx="0" cy="0" r="1" gradientUnits="userSpaceOnUse" gradientTransform="translate(235.997 181.253) scale(2.64709 2.6507)">
<stop stop-color="#FF63CE"/>
<stop offset="1" stop-color="#9F19AB"/>
</radialGradient>
<radialGradient id="paint42_radial_1025_310" cx="0" cy="0" r="1" gradientUnits="userSpaceOnUse" gradientTransform="translate(236.076 181.275) scale(2.57847 2.58201)">
<stop stop-color="#FF63CE"/>
<stop offset="1" stop-color="#9F19AB"/>
</radialGradient>
<radialGradient id="paint43_radial_1025_310" cx="0" cy="0" r="1" gradientUnits="userSpaceOnUse" gradientTransform="translate(236.153 181.298) scale(2.50339 2.50681)">
<stop stop-color="#FF63CE"/>
<stop offset="1" stop-color="#9F19AB"/>
</radialGradient>
<radialGradient id="paint44_radial_1025_310" cx="0" cy="0" r="1" gradientUnits="userSpaceOnUse" gradientTransform="translate(236.228 181.323) scale(2.42182 2.42513)">
<stop stop-color="#FF63CE"/>
<stop offset="1" stop-color="#9F19AB"/>
</radialGradient>
<radialGradient id="paint45_radial_1025_310" cx="0" cy="0" r="1" gradientUnits="userSpaceOnUse" gradientTransform="translate(236.3 181.35) scale(2.334 2.33719)">
<stop stop-color="#FF63CE"/>
<stop offset="1" stop-color="#9F19AB"/>
</radialGradient>
<radialGradient id="paint46_radial_1025_310" cx="0" cy="0" r="1" gradientUnits="userSpaceOnUse" gradientTransform="translate(236.369 181.379) scale(2.24004 2.2431)">
<stop stop-color="#FF63CE"/>
<stop offset="1" stop-color="#9F19AB"/>
</radialGradient>
<linearGradient id="paint47_linear_1025_310" x1="272.903" y1="158.383" x2="270.038" y2="192.284" gradientUnits="userSpaceOnUse">
<stop stop-color="#138BBD"/>
<stop offset="0.6337" stop-color="#31C5D3"/>
<stop offset="1" stop-color="#43E8E1"/>
</linearGradient>
<linearGradient id="paint48_linear_1025_310" x1="244.868" y1="194.315" x2="246.686" y2="187.657" gradientUnits="userSpaceOnUse">
<stop stop-color="white"/>
<stop offset="1" stop-color="#8B949E"/>
</linearGradient>
<linearGradient id="paint49_linear_1025_310" x1="244.741" y1="194.095" x2="246.559" y2="187.437" gradientUnits="userSpaceOnUse">
<stop stop-color="white"/>
<stop offset="1" stop-color="#8B949E"/>
</linearGradient>
<linearGradient id="paint50_linear_1025_310" x1="240.681" y1="186.846" x2="251.076" y2="186.846" gradientUnits="userSpaceOnUse">
<stop stop-color="#138BBD"/>
<stop offset="0.6337" stop-color="#31C5D3"/>
<stop offset="1" stop-color="#43E8E1"/>
</linearGradient>
<linearGradient id="paint51_linear_1025_310" x1="238.39" y1="189.769" x2="254.76" y2="189.769" gradientUnits="userSpaceOnUse">
<stop offset="0.0353535" stop-color="#138BBD"/>
<stop offset="0.2257" stop-color="#169AC7"/>
<stop offset="0.5946" stop-color="#1FC3DF"/>
<stop offset="1" stop-color="#2AF6FF"/>
</linearGradient>
<linearGradient id="paint52_linear_1025_310" x1="237.208" y1="196.84" x2="256.818" y2="196.84" gradientUnits="userSpaceOnUse">
<stop stop-color="#100221"/>
<stop offset="1" stop-color="#10054D"/>
</linearGradient>
<linearGradient id="paint53_linear_1025_310" x1="274.572" y1="178.172" x2="312.203" y2="178.172" gradientUnits="userSpaceOnUse">
<stop offset="0.0353535" stop-color="#138BBD"/>
<stop offset="0.2257" stop-color="#169AC7"/>
<stop offset="0.5946" stop-color="#1FC3DF"/>
<stop offset="1" stop-color="#2AF6FF"/>
</linearGradient>
<linearGradient id="paint54_linear_1025_310" x1="273.907" y1="168.644" x2="311.495" y2="168.644" gradientUnits="userSpaceOnUse">
<stop stop-color="#25054D"/>
<stop offset="1" stop-color="#1B2B69"/>
</linearGradient>
<linearGradient id="paint55_linear_1025_310" x1="274.787" y1="168.644" x2="311.082" y2="168.644" gradientUnits="userSpaceOnUse">
<stop stop-color="#010002"/>
<stop offset="0.0253277" stop-color="#030106"/>
<stop offset="0.1915" stop-color="#0F0419"/>
<stop offset="0.3616" stop-color="#170524"/>
<stop offset="0.5404" stop-color="#190628"/>
<stop offset="0.7029" stop-color="#0B0312"/>
<stop offset="0.8596" stop-color="#030105"/>
<stop offset="1"/>
</linearGradient>
<linearGradient id="paint56_linear_1025_310" x1="290.557" y1="171.043" x2="297.224" y2="184.565" gradientUnits="userSpaceOnUse">
<stop stop-color="#138BBD"/>
<stop offset="0.6337" stop-color="#31C5D3"/>
<stop offset="1" stop-color="#43E8E1"/>
</linearGradient>
<linearGradient id="paint57_linear_1025_310" x1="301.66" y1="177.211" x2="298.575" y2="159.163" gradientUnits="userSpaceOnUse">
<stop stop-color="#25054D"/>
<stop offset="0.6919" stop-color="#1B2B69"/>
<stop offset="1" stop-color="#3746A3"/>
</linearGradient>
<linearGradient id="paint58_linear_1025_310" x1="286.012" y1="179.887" x2="282.926" y2="161.838" gradientUnits="userSpaceOnUse">
<stop stop-color="#25054D"/>
<stop offset="0.6919" stop-color="#1B2B69"/>
<stop offset="1" stop-color="#3746A3"/>
</linearGradient>
<linearGradient id="paint59_linear_1025_310" x1="311.494" y1="159.615" x2="326.409" y2="159.615" gradientUnits="userSpaceOnUse">
<stop stop-color="#138BBD"/>
<stop offset="0.6337" stop-color="#31C5D3"/>
<stop offset="1" stop-color="#43E8E1"/>
</linearGradient>
<linearGradient id="paint60_linear_1025_310" x1="331.131" y1="158.687" x2="326.168" y2="157.158" gradientUnits="userSpaceOnUse">
<stop stop-color="white"/>
<stop offset="1" stop-color="#8B949E"/>
</linearGradient>
<linearGradient id="paint61_linear_1025_310" x1="324.526" y1="156.893" x2="336.909" y2="159.724" gradientUnits="userSpaceOnUse">
<stop stop-color="white"/>
<stop offset="1" stop-color="#8B949E"/>
</linearGradient>
<linearGradient id="paint62_linear_1025_310" x1="323.462" y1="156.441" x2="336.197" y2="159.352" gradientUnits="userSpaceOnUse">
<stop stop-color="white"/>
<stop offset="1" stop-color="#8B949E"/>
</linearGradient>
<linearGradient id="paint63_linear_1025_310" x1="251.781" y1="182.368" x2="261.697" y2="152.659" gradientUnits="userSpaceOnUse">
<stop/>
<stop offset="0.697" stop-color="#1B2B69"/>
<stop offset="1" stop-color="#3746A3"/>
</linearGradient>
<linearGradient id="paint64_linear_1025_310" x1="257.086" y1="184.138" x2="267.003" y2="154.43" gradientUnits="userSpaceOnUse">
<stop/>
<stop offset="0.697" stop-color="#1B2B69"/>
<stop offset="1" stop-color="#3746A3"/>
</linearGradient>
<linearGradient id="paint65_linear_1025_310" x1="320.812" y1="171.847" x2="314.061" y2="164.813" gradientUnits="userSpaceOnUse">
<stop/>
<stop offset="0.697" stop-color="#1B2B69"/>
<stop offset="1" stop-color="#3746A3"/>
</linearGradient>
<linearGradient id="paint66_linear_1025_310" x1="275.096" y1="197.172" x2="270.763" y2="189.033" gradientUnits="userSpaceOnUse">
<stop/>
<stop offset="0.697" stop-color="#1B2B69"/>
<stop offset="1" stop-color="#3746A3"/>
</linearGradient>
<linearGradient id="paint67_linear_1025_310" x1="307.651" y1="163.297" x2="311.615" y2="168.85" gradientUnits="userSpaceOnUse">
<stop stop-color="#696969"/>
<stop offset="0.2423" stop-color="#9C9C9C"/>
<stop offset="0.4796" stop-color="#C7C7C7"/>
<stop offset="0.6924" stop-color="#E6E6E6"/>
<stop offset="0.873" stop-color="#F8F8F8"/>
<stop offset="1" stop-color="white"/>
</linearGradient>
<radialGradient id="paint68_radial_1025_310" cx="0" cy="0" r="1" gradientUnits="userSpaceOnUse" gradientTransform="translate(307.74 164.482) scale(5.39072 5.39811)">
<stop stop-color="#2AF6FF"/>
<stop offset="0.6515" stop-color="#1376BD"/>
<stop offset="0.7585" stop-color="#1C67AF"/>
<stop offset="0.9649" stop-color="#323E8B"/>
<stop offset="0.9949" stop-color="#363885"/>
</radialGradient>
<linearGradient id="paint69_linear_1025_310" x1="309.173" y1="165.45" x2="307.495" y2="163.939" gradientUnits="userSpaceOnUse">
<stop/>
<stop offset="0.697" stop-color="#1B2B69"/>
<stop offset="1" stop-color="#3746A3"/>
</linearGradient>
<linearGradient id="paint70_linear_1025_310" x1="287.47" y1="143.556" x2="293.641" y2="181.414" gradientUnits="userSpaceOnUse">
<stop/>
<stop offset="0.697" stop-color="#1B2B69"/>
<stop offset="1" stop-color="#3746A3"/>
</linearGradient>
<linearGradient id="paint71_linear_1025_310" x1="294.958" y1="166.022" x2="299.755" y2="166.022" gradientUnits="userSpaceOnUse">
<stop stop-color="#6E0F00"/>
<stop offset="0.382" stop-color="#980C07"/>
<stop offset="1" stop-color="#E30613"/>
</linearGradient>
<linearGradient id="paint72_linear_1025_310" x1="297.135" y1="145.601" x2="299.756" y2="145.601" gradientUnits="userSpaceOnUse">
<stop stop-color="#6E0F00"/>
<stop offset="0.382" stop-color="#980C07"/>
<stop offset="1" stop-color="#E30613"/>
</linearGradient>
<linearGradient id="paint73_linear_1025_310" x1="260.79" y1="126.323" x2="265.588" y2="126.323" gradientUnits="userSpaceOnUse">
<stop stop-color="#6E0F00"/>
<stop offset="0.382" stop-color="#980C07"/>
<stop offset="1" stop-color="#E30613"/>
</linearGradient>
<linearGradient id="paint74_linear_1025_310" x1="260.791" y1="146.744" x2="263.411" y2="146.744" gradientUnits="userSpaceOnUse">
<stop stop-color="#6E0F00"/>
<stop offset="0.382" stop-color="#980C07"/>
<stop offset="1" stop-color="#E30613"/>
</linearGradient>
<linearGradient id="paint75_linear_1025_310" x1="262.966" y1="146.171" x2="297.58" y2="146.171" gradientUnits="userSpaceOnUse">
<stop stop-color="#6E0F00"/>
<stop offset="0.382" stop-color="#980C07"/>
<stop offset="1" stop-color="#E30613"/>
</linearGradient>
<clipPath id="clip0_1025_310">
<rect width="599" height="346" fill="white"/>
</clipPath>
</defs>
</svg>
