<svg width="373" height="373" viewBox="0 0 373 373" fill="none" xmlns="http://www.w3.org/2000/svg">
<g clip-path="url(#clip0_1036_175)">
<path d="M343 372.1H29.1C13 372.1 0 359 0 343V29.1C0 13 13 0 29.1 0H343C359.1 0 372.1 13 372.1 29.1V343C372.1 359 359 372.1 343 372.1Z" fill="#45108A"/>
<path d="M186.001 286.3C182.701 286.3 179.701 287.6 177.601 289.8C175.401 292 174.101 294.9 174.101 298.2C174.101 301.5 175.401 304.5 177.601 306.6C179.801 308.8 182.701 310.1 186.001 310.1C189.301 310.1 192.301 308.8 194.401 306.6C196.601 304.4 197.901 301.5 197.901 298.2C197.901 294.9 196.601 291.9 194.401 289.8C192.301 287.6 189.301 286.3 186.001 286.3ZM186.001 307.7C180.801 307.7 176.701 303.5 176.701 298.4C176.701 293.2 180.901 289.1 186.001 289.1C191.201 289.1 195.301 293.3 195.301 298.4C195.401 303.5 191.201 307.7 186.001 307.7Z" fill="white"/>
<path d="M257 51.3H115.1C104.8 51.3 96.4004 59.7 96.4004 70V302.1C96.4004 312.4 104.8 320.8 115.1 320.8H257C267.3 320.8 275.7 312.4 275.7 302.1V70C275.7 59.7 267.3 51.3 257 51.3ZM186 57.6C187.4 57.6 188.6 58.8001 188.6 60.2001C188.6 61.6 187.4 62.8 186 62.8C184.6 62.8 183.4 61.6 183.4 60.2001C183.4 58.8001 184.6 57.6 186 57.6ZM176.2 68.1H195.8C197.2 68.1 198.4 69.3 198.4 70.7C198.4 72.1 197.2 73.3001 195.8 73.3001H176.2C174.8 73.3001 173.6 72.1 173.6 70.7C173.6 69.3 174.8 68.1 176.2 68.1ZM167.5 68.7C168.6 68.7 169.5 69.6 169.5 70.7C169.5 71.8 168.6 72.7 167.5 72.7C166.4 72.7 165.5 71.8 165.5 70.7C165.5 69.6 166.4 68.7 167.5 68.7ZM186 311.2C178.8 311.2 172.9 305.4 172.9 298.1C172.9 290.9 178.8 285 186 285C193.2 285 199.1 290.9 199.1 298.1C199.1 305.4 193.2 311.2 186 311.2ZM267.9 282.9H103.8V75.5H267.9V282.9Z" fill="white"/>
<path d="M142.368 200.616C137.026 200.616 132.609 199.375 129.118 196.894C125.669 194.37 123.797 190.689 123.503 185.852H138.393C138.603 188.418 139.739 189.701 141.8 189.701C142.557 189.701 143.188 189.533 143.692 189.196C144.239 188.818 144.513 188.25 144.513 187.493C144.513 186.441 143.945 185.6 142.809 184.969C141.673 184.296 139.907 183.539 137.509 182.698C134.649 181.688 132.273 180.7 130.38 179.732C128.529 178.765 126.931 177.356 125.585 175.505C124.239 173.655 123.587 171.278 123.629 168.376C123.629 165.474 124.365 163.013 125.837 160.994C127.352 158.933 129.392 157.377 131.957 156.325C134.565 155.274 137.488 154.748 140.727 154.748C146.195 154.748 150.527 156.01 153.724 158.533C156.963 161.057 158.666 164.611 158.835 169.196H143.756C143.713 167.934 143.398 167.03 142.809 166.483C142.22 165.936 141.505 165.663 140.664 165.663C140.075 165.663 139.591 165.873 139.213 166.294C138.834 166.672 138.645 167.219 138.645 167.934C138.645 168.944 139.192 169.785 140.285 170.458C141.421 171.089 143.209 171.867 145.648 172.792C148.466 173.844 150.78 174.853 152.588 175.821C154.439 176.788 156.038 178.134 157.383 179.859C158.729 181.583 159.402 183.749 159.402 186.357C159.402 189.091 158.729 191.552 157.383 193.739C156.038 195.884 154.082 197.567 151.516 198.786C148.95 200.006 145.901 200.616 142.368 200.616ZM186.09 200.616C181.884 200.616 178.015 199.628 174.481 197.651C170.99 195.674 168.214 192.94 166.153 189.449C164.092 185.958 163.062 182.025 163.062 177.65C163.062 173.276 164.092 169.343 166.153 165.852C168.214 162.361 170.99 159.648 174.481 157.713C178.015 155.736 181.884 154.748 186.09 154.748C190.297 154.748 194.145 155.736 197.636 157.713C201.127 159.648 203.883 162.361 205.901 165.852C207.962 169.343 208.993 173.276 208.993 177.65C208.993 182.025 207.962 185.958 205.901 189.449C203.883 192.94 201.106 195.674 197.573 197.651C194.082 199.628 190.255 200.616 186.09 200.616ZM186.09 187.556C188.867 187.556 191.012 186.673 192.526 184.906C194.04 183.097 194.797 180.679 194.797 177.65C194.797 174.58 194.04 172.161 192.526 170.395C191.012 168.586 188.867 167.682 186.09 167.682C183.272 167.682 181.106 168.586 179.592 170.395C178.078 172.161 177.321 174.58 177.321 177.65C177.321 180.679 178.078 183.097 179.592 184.906C181.106 186.673 183.272 187.556 186.09 187.556ZM231.522 200.616C226.181 200.616 221.764 199.375 218.273 196.894C214.824 194.37 212.952 190.689 212.658 185.852H227.548C227.758 188.418 228.894 189.701 230.955 189.701C231.712 189.701 232.343 189.533 232.847 189.196C233.394 188.818 233.667 188.25 233.667 187.493C233.667 186.441 233.1 185.6 231.964 184.969C230.828 184.296 229.062 183.539 226.664 182.698C223.804 181.688 221.428 180.7 219.535 179.732C217.684 178.765 216.086 177.356 214.74 175.505C213.394 173.655 212.742 171.278 212.784 168.376C212.784 165.474 213.52 163.013 214.992 160.994C216.506 158.933 218.546 157.377 221.112 156.325C223.72 155.274 226.643 154.748 229.882 154.748C235.35 154.748 239.682 156.01 242.879 158.533C246.118 161.057 247.821 164.611 247.989 169.196H232.91C232.868 167.934 232.553 167.03 231.964 166.483C231.375 165.936 230.66 165.663 229.819 165.663C229.23 165.663 228.746 165.873 228.368 166.294C227.989 166.672 227.8 167.219 227.8 167.934C227.8 168.944 228.347 169.785 229.44 170.458C230.576 171.089 232.364 171.867 234.803 172.792C237.621 173.844 239.935 174.853 241.743 175.821C243.594 176.788 245.192 178.134 246.538 179.859C247.884 181.583 248.557 183.749 248.557 186.357C248.557 189.091 247.884 191.552 246.538 193.739C245.192 195.884 243.236 197.567 240.671 198.786C238.105 200.006 235.056 200.616 231.522 200.616Z" fill="white"/>
</g>
<defs>
<clipPath id="clip0_1036_175">
<rect width="372.1" height="372.1" fill="white"/>
</clipPath>
</defs>
</svg>
