<svg width="462" height="464" viewBox="0 0 462 464" fill="none" xmlns="http://www.w3.org/2000/svg">
<g clip-path="url(#clip0_398_18)">
<path d="M415.009 112.202L459.943 175.662L269.605 65.6753L270.871 31.3342L415.009 112.202Z" fill="#061229"/>
<path d="M153.631 167.274L81.4828 196.868L101.102 177.561L141.29 141.479L153.631 167.274Z" fill="#361F68"/>
<path d="M368.967 215.383V369.839L184.484 263.334V108.879L368.967 215.383Z" fill="#996DF7"/>
<path d="M410.737 109.67L368.967 215.383L184.484 108.879L226.253 3.16504L410.737 109.67Z" fill="#D2D4D8"/>
<path d="M410.737 109.67L452.981 167.116V321.572L368.967 369.839V215.383L410.737 109.67Z" fill="#6F42C1"/>
<path d="M416.591 110.303L462 173.604L459.943 176.136L416.591 115.525L372.764 226.461L370.866 226.145L416.591 110.303Z" fill="#270733"/>
<path d="M218.501 414.308V263.493L327.197 200.666V351.482L218.501 414.308Z" fill="#6F42C1"/>
<path d="M218.501 263.492L149.359 136.889L258.214 74.0627L327.197 200.666L218.501 263.492Z" fill="#DCFCFF"/>
<path d="M218.501 414.308L90.8178 340.72V189.904L149.359 136.889L218.501 263.492V414.308Z" fill="#996DF7"/>
<path d="M209.166 269.031L207.584 269.664L139.391 144.486L81.4829 196.868L80.0589 194.494L139.233 141.004L209.166 269.031Z" fill="#361F68"/>
<path d="M218.342 319.039L134.328 385.031L4.43011 309.861L88.2863 244.027L218.342 319.039Z" fill="#BBBEC1"/>
<path d="M134.328 385.031V464L4.43011 388.987V309.861L134.328 385.031Z" fill="#996DF7"/>
<path d="M218.342 319.039V415.416L134.328 464V385.031L218.342 319.039Z" fill="#6F42C1"/>
<path d="M220.874 311.601L131.005 380.442L0.94928 305.271L90.8178 236.589L220.874 311.601Z" fill="#C8D1DA"/>
<path d="M131.005 380.442L132.113 387.88L2.05681 312.709L0.94928 305.271L131.005 380.442Z" fill="#361F68"/>
<path d="M220.874 311.601L221.981 319.039L132.113 387.88L131.005 380.442L220.874 311.601Z" fill="#361F68"/>
<path d="M220.558 310.336L130.689 379.018L0.791077 304.005L90.6596 235.323L220.558 310.336Z" fill="#4A135E"/>
<path d="M89.8719 234.335L-0.0185547 303.041L1.51857 305.052L91.4091 236.347L89.8719 234.335Z" fill="#270733"/>
<path d="M106.114 243.65L16.2236 312.344L17.7605 314.356L107.651 245.662L106.114 243.65Z" fill="#270733"/>
<path d="M122.392 252.964L32.5013 321.67L34.0385 323.682L123.929 254.976L122.392 252.964Z" fill="#270733"/>
<path d="M138.527 262.375L48.6364 331.08L50.1735 333.092L140.064 264.387L138.527 262.375Z" fill="#270733"/>
<path d="M154.86 271.818L64.9699 340.513L66.5068 342.525L156.397 273.83L154.86 271.818Z" fill="#270733"/>
<path d="M171.141 281.13L81.251 349.836L82.7881 351.848L172.679 283.142L171.141 281.13Z" fill="#270733"/>
<path d="M187.251 290.549L97.3602 359.243L98.8971 361.255L188.788 292.561L187.251 290.549Z" fill="#270733"/>
<path d="M203.607 299.987L113.716 368.681L115.253 370.693L205.144 301.999L203.607 299.987Z" fill="#270733"/>
<path d="M219.893 309.296L130.002 378.001L131.539 380.013L221.43 311.308L219.893 309.296Z" fill="#270733"/>
<path d="M130.689 379.018L131.797 386.456L1.89861 311.443L0.791077 304.005L130.689 379.018Z" fill="#270733"/>
<path d="M220.558 310.335L221.665 317.773L131.797 386.455L130.689 379.018L220.558 310.335Z" fill="#270733"/>
<path d="M142.555 459.252L209.166 420.797V419.214L142.555 457.67V459.252Z" fill="#4E6A98"/>
<path d="M142.555 396.267L209.166 357.812V356.229L142.555 394.685V396.267Z" fill="#9BAEC0"/>
<path d="M142.555 457.67L209.166 419.214V357.812L142.555 396.267V457.67Z" fill="#D9CDF9"/>
<path d="M211.064 421.904V357.337L209.166 356.229V420.797L211.064 421.904Z" fill="#513B9E"/>
<path d="M144.454 460.36L211.064 421.904L209.166 420.797L142.555 459.252L144.454 460.36Z" fill="#08152D"/>
<path d="M216.919 341.828L138.442 387.089L136.543 385.981L215.02 340.72L216.919 341.828Z" fill="#9B82F4"/>
<path d="M138.442 387.089V463.842L136.543 462.734V385.981L138.442 387.089Z" fill="#513B9E"/>
<path d="M138.442 387.088V463.842L216.918 418.581V341.828L138.442 387.088ZM211.064 358.919V421.904L144.454 460.36V395.792L211.064 357.337V358.919Z" fill="#7B58DB"/>
<path d="M151.574 402.123L146.827 404.813V399.274L151.574 396.584V402.123Z" fill="#091336"/>
<path d="M171.826 401.331L146.827 415.733V408.611L171.826 394.052V401.331Z" fill="#D9CDF9"/>
<path d="M171.826 413.992L146.827 428.393V421.271L171.826 406.87V413.992Z" fill="#D9CDF9"/>
<path d="M171.826 426.652L146.827 441.211V433.932L171.826 419.531V426.652Z" fill="#D9CDF9"/>
<path d="M171.826 439.471L146.827 453.872V446.75L171.826 432.191V439.471Z" fill="#D9CDF9"/>
<path d="M158.377 398.166L153.473 401.015V395.476L158.377 392.627V398.166Z" fill="#091336"/>
<path d="M165.023 394.368L160.276 397.059V391.52L165.023 388.671V394.368Z" fill="#091336"/>
<path d="M171.826 390.412L167.079 393.26V387.563L171.826 384.873V390.412Z" fill="#091336"/>
<path d="M184.642 382.974L179.737 385.823V380.284L184.642 377.435V382.974Z" fill="#091336"/>
<path d="M204.894 382.183L179.737 396.742V389.462L204.894 375.061V382.183Z" fill="#D9CDF9"/>
<path d="M204.894 394.843L179.737 409.402V402.281L204.894 387.722V394.843Z" fill="#D9CDF9"/>
<path d="M204.894 407.661L179.737 422.063V414.941L204.894 400.54V407.661Z" fill="#D9CDF9"/>
<path d="M204.894 420.322L179.737 434.881V427.602L204.894 413.2V420.322Z" fill="#D9CDF9"/>
<path d="M191.287 379.176L186.54 381.866V376.327L191.287 373.637V379.176Z" fill="#091336"/>
<path d="M198.09 375.22L193.186 378.068V372.529L198.09 369.681V375.22Z" fill="#091336"/>
<path d="M204.894 371.421L199.989 374.112V368.573L204.894 365.724V371.421Z" fill="#091336"/>
<path d="M168.503 367.782C174.041 370.947 182.901 370.947 188.439 367.782C193.977 364.617 193.977 359.394 188.439 356.229C184.8 354.172 179.421 355.28 179.421 355.28C179.421 355.28 179.104 353.855 178.155 354.172C177.205 354.488 175.465 355.596 175.465 356.546C175.465 357.495 175.465 357.812 175.465 357.812C175.465 357.812 172.459 360.66 171.351 362.085C170.244 363.667 168.503 367.782 168.503 367.782Z" fill="#0C1D39"/>
<path d="M315.647 290.079V358.761L295.237 370.63V301.79L315.647 290.079Z" fill="#501168"/>
<path d="M295.237 370.472V346.892L315.647 358.761L295.237 370.472Z" fill="#501168"/>
<path d="M318.021 287.23L293.813 301.157L292.705 300.682L317.071 286.597L318.021 287.23Z" fill="#CB70ED"/>
<path d="M293.813 301.157V305.271L292.705 304.638V300.682L293.813 301.157Z" fill="#630F82"/>
<path d="M318.021 287.23V291.345L293.813 305.271V301.157L318.021 287.23Z" fill="#8815AD"/>
<path d="M422.603 247.984L400.927 260.486V203.04L422.603 190.538V247.984Z" fill="#7B58DB"/>
<path d="M420.388 194.811V206.363L412.952 210.794V199.083L420.388 194.811Z" fill="#D9CDF9"/>
<path d="M412.003 199.716V211.269L404.408 215.7V203.989L412.003 199.716Z" fill="#D9CDF9"/>
<path d="M420.388 207.471V219.182L412.952 223.455V211.902L420.388 207.471Z" fill="#D9CDF9"/>
<path d="M420.388 220.289V232L412.952 236.273V224.562L420.388 220.289Z" fill="#D9CDF9"/>
<path d="M412.003 225.195V236.748L404.408 241.179V229.468L412.003 225.195Z" fill="#D9CDF9"/>
<path d="M420.388 232.95V244.66L412.952 248.933V237.381L420.388 232.95Z" fill="#D9CDF9"/>
<path d="M412.003 212.377V224.088L404.408 228.36V216.65L412.003 212.377Z" fill="#D9CDF9"/>
<path d="M412.003 237.855V249.566L404.408 253.839V242.287L412.003 237.855Z" fill="#D9CDF9"/>
<path d="M420.863 244.977V233.266L420.388 232.95V244.66L420.863 244.977Z" fill="#E2AFF9"/>
<path d="M413.427 249.25L420.863 244.977L420.388 244.66L412.952 248.933L413.427 249.25Z" fill="#A833D3"/>
<path d="M412.477 211.585V199.875L412.003 199.716V211.269L412.477 211.585Z" fill="#E2AFF9"/>
<path d="M404.883 216.016L412.477 211.585L412.003 211.269L404.408 215.7L404.883 216.016Z" fill="#A833D3"/>
<path d="M412.477 224.404V212.693L412.003 212.377V224.088L412.477 224.404Z" fill="#E2AFF9"/>
<path d="M404.883 228.677L412.477 224.404L412.003 224.087L404.408 228.36L404.883 228.677Z" fill="#A833D3"/>
<path d="M412.477 237.064V225.354L412.003 225.195V236.748L412.477 237.064Z" fill="#E2AFF9"/>
<path d="M404.883 241.495L412.477 237.064L412.003 236.748L404.408 241.179L404.883 241.495Z" fill="#A833D3"/>
<path d="M412.477 249.883V238.172L412.003 237.855V249.566L412.477 249.883Z" fill="#E2AFF9"/>
<path d="M404.883 254.156L412.477 249.883L412.003 249.566L404.408 253.839L404.883 254.156Z" fill="#A833D3"/>
<path d="M420.863 232.158V220.606L420.388 220.289V232L420.863 232.158Z" fill="#E2AFF9"/>
<path d="M413.427 236.589L420.863 232.158L420.388 232L412.952 236.273L413.427 236.589Z" fill="#A833D3"/>
<path d="M420.863 219.498V207.787L420.388 207.471V219.182L420.863 219.498Z" fill="#E2AFF9"/>
<path d="M413.427 223.771L420.863 219.498L420.388 219.182L412.952 223.454L413.427 223.771Z" fill="#A833D3"/>
<path d="M420.863 206.68V195.127L420.388 194.811V206.363L420.863 206.68Z" fill="#E2AFF9"/>
<path d="M413.427 211.111L420.863 206.68L420.388 206.363L412.952 210.794L413.427 211.111Z" fill="#A833D3"/>
<path d="M421.812 193.386L403.934 203.673L403.459 203.515L421.338 193.228L421.812 193.386Z" fill="#E2E2E2"/>
<path d="M403.934 203.673V255.738L403.459 255.422V203.515L403.934 203.673Z" fill="#E2AFF9"/>
<path d="M403.934 203.673V255.738L421.812 245.452V193.386L403.934 203.673ZM420.863 244.977L413.427 249.25V237.539L420.863 233.266V244.977ZM412.477 249.883L405.041 254.156V242.445L412.477 238.172V249.883ZM413.427 224.879L420.863 220.606V232.317L413.427 236.59V224.879ZM412.477 237.064L405.041 241.337V229.626L412.477 225.353V237.064ZM413.427 212.218L420.863 207.946V219.656L413.427 223.929V212.218ZM412.477 224.404L405.041 228.677V216.966L412.477 212.693V224.404ZM413.427 199.4L420.863 195.127V206.838L413.427 211.111V199.4ZM412.477 211.585L405.041 215.858V204.147L412.477 199.875V211.585Z" fill="#CB70ED"/>
<path d="M424.344 187.689L400.136 201.615L399.187 200.982L423.395 187.056L424.344 187.689Z" fill="#CB70ED"/>
<path d="M400.136 201.615V205.73L399.187 205.097V200.982L400.136 201.615Z" fill="#630F82"/>
<path d="M424.344 187.689V191.645L400.136 205.73V201.615L424.344 187.689Z" fill="#8815AD"/>
<path d="M424.344 245.768L400.136 259.694L399.187 259.22L423.395 245.135L424.344 245.768Z" fill="#CB70ED"/>
<path d="M400.136 259.694V263.809L399.187 263.334V259.22L400.136 259.694Z" fill="#630F82"/>
<path d="M424.344 245.768V249.883L400.136 263.809V259.694L424.344 245.768Z" fill="#8815AD"/>
<path d="M279.257 300.84L257.581 313.342V255.896L279.257 243.236V300.84Z" fill="#7B58DB"/>
<path d="M277.042 247.509V259.22L269.605 263.651V251.94L277.042 247.509Z" fill="#D9CDF9"/>
<path d="M268.656 252.415V264.126L261.22 268.398V256.846L268.656 252.415Z" fill="#D9CDF9"/>
<path d="M277.042 260.327V272.038L269.605 276.311V264.6L277.042 260.327Z" fill="#D9CDF9"/>
<path d="M277.042 272.988V284.698L269.605 289.129V277.419L277.042 272.988Z" fill="#D9CDF9"/>
<path d="M268.656 277.894V289.604L261.22 293.877V282.325L268.656 277.894Z" fill="#D9CDF9"/>
<path d="M277.042 285.806V297.517L269.605 301.79V290.079L277.042 285.806Z" fill="#D9CDF9"/>
<path d="M268.656 265.233V276.786L261.22 281.217V269.506L268.656 265.233Z" fill="#D9CDF9"/>
<path d="M268.656 290.712V302.423L261.22 306.696V294.985L268.656 290.712Z" fill="#D9CDF9"/>
<path d="M277.675 297.833V286.123L277.042 285.806V297.517L277.675 297.833Z" fill="#E2AFF9"/>
<path d="M270.08 302.106L277.675 297.833L277.042 297.517L269.605 301.79L270.08 302.106Z" fill="#A833D3"/>
<path d="M269.131 264.442V252.731L268.656 252.415V264.126L269.131 264.442Z" fill="#E2AFF9"/>
<path d="M261.694 268.715L269.131 264.442L268.656 264.125L261.22 268.398L261.694 268.715Z" fill="#A833D3"/>
<path d="M269.131 277.102V265.55L268.656 265.233V276.786L269.131 277.102Z" fill="#E2AFF9"/>
<path d="M261.694 281.533L269.131 277.102L268.656 276.786L261.22 281.217L261.694 281.533Z" fill="#A833D3"/>
<path d="M269.131 289.921V278.21L268.656 277.894V289.604L269.131 289.921Z" fill="#E2AFF9"/>
<path d="M261.694 294.194L269.131 289.921L268.656 289.604L261.22 293.877L261.694 294.194Z" fill="#A833D3"/>
<path d="M269.131 302.581V291.029L268.656 290.712V302.423L269.131 302.581Z" fill="#E2AFF9"/>
<path d="M261.694 307.012L269.131 302.581L268.656 302.423L261.22 306.696L261.694 307.012Z" fill="#A833D3"/>
<path d="M277.675 285.015V273.304L277.042 272.988V284.698L277.675 285.015Z" fill="#E2AFF9"/>
<path d="M270.08 289.288L277.675 285.015L277.042 284.698L269.605 289.129L270.08 289.288Z" fill="#A833D3"/>
<path d="M277.675 272.196V260.644L277.042 260.327V272.038L277.675 272.196Z" fill="#E2AFF9"/>
<path d="M270.08 276.627L277.675 272.196L277.042 272.038L269.605 276.311L270.08 276.627Z" fill="#A833D3"/>
<path d="M277.675 259.536V247.825L277.042 247.509V259.22L277.675 259.536Z" fill="#E2AFF9"/>
<path d="M270.08 263.809L277.675 259.536L277.042 259.219L269.605 263.651L270.08 263.809Z" fill="#A833D3"/>
<path d="M278.466 246.243L260.745 256.529L260.271 256.213L277.991 245.926L278.466 246.243Z" fill="#E2E2E2"/>
<path d="M260.745 256.529V308.595L260.271 308.278V256.213L260.745 256.529Z" fill="#E2AFF9"/>
<path d="M260.745 256.529V308.595L278.624 298.308V246.243L260.745 256.529ZM277.675 297.833L270.238 302.106V290.395L277.675 286.123V297.833ZM269.131 302.581L261.694 306.854V295.143L269.131 290.87V302.581ZM270.08 277.735L277.516 273.462V285.173L270.08 289.446V277.735ZM269.131 289.921L261.694 294.194V282.483L269.131 278.21V289.921ZM270.08 264.917L277.516 260.644V272.355L270.08 276.627V264.917ZM269.131 277.102L261.694 281.375V269.664L269.131 265.391V277.102ZM270.08 252.256L277.516 247.983V259.694L270.08 263.967V252.256ZM269.131 264.442L261.694 268.715V257.004L269.131 252.731V264.442Z" fill="#CB70ED"/>
<path d="M281.155 240.387L256.79 254.472L255.84 253.839L280.048 239.913L281.155 240.387Z" fill="#CB70ED"/>
<path d="M256.79 254.472V258.586L255.84 257.953V253.839L256.79 254.472Z" fill="#4E6A98"/>
<path d="M281.155 240.387V244.502L256.79 258.587V254.472L281.155 240.387Z" fill="#8815AD"/>
<path d="M281.155 298.625L256.79 312.551L255.84 311.918L280.048 297.992L281.155 298.625Z" fill="#CB70ED"/>
<path d="M256.79 312.551V316.666L255.84 316.033V311.918L256.79 312.551Z" fill="#4E6A98"/>
<path d="M281.155 298.625V302.581L256.79 316.666V312.551L281.155 298.625Z" fill="#8815AD"/>
<path d="M256.157 314.134L234.323 326.794V269.19L256.157 256.688V314.134Z" fill="#7B58DB"/>
<path d="M253.783 260.961V272.671L246.347 276.944V265.392L253.783 260.961Z" fill="#D9CDF9"/>
<path d="M245.398 265.867V277.577L237.962 281.85V270.14L245.398 265.867Z" fill="#D9CDF9"/>
<path d="M253.783 273.779V285.332L246.347 289.763V278.052L253.783 273.779Z" fill="#D9CDF9"/>
<path d="M253.783 286.439V298.15L246.347 302.423V290.871L253.783 286.439Z" fill="#D9CDF9"/>
<path d="M245.398 291.345V303.056L237.962 307.329V295.618L245.398 291.345Z" fill="#D9CDF9"/>
<path d="M253.783 299.258V310.811L246.347 315.242V303.531L253.783 299.258Z" fill="#D9CDF9"/>
<path d="M245.398 278.685V290.238L237.962 294.669V282.958L245.398 278.685Z" fill="#D9CDF9"/>
<path d="M245.398 304.164V315.717L237.962 320.148V308.437L245.398 304.164Z" fill="#D9CDF9"/>
<path d="M254.416 311.127V299.575L253.783 299.258V310.811L254.416 311.127Z" fill="#E2AFF9"/>
<path d="M246.822 315.558L254.416 311.127L253.783 310.811L246.347 315.242L246.822 315.558Z" fill="#A833D3"/>
<path d="M245.873 277.894V266.183L245.398 265.867V277.577L245.873 277.894Z" fill="#E2AFF9"/>
<path d="M238.436 282.167L245.873 277.894L245.398 277.577L237.962 281.85L238.436 282.167Z" fill="#A833D3"/>
<path d="M245.873 290.554V278.843L245.398 278.685V290.238L245.873 290.554Z" fill="#E2AFF9"/>
<path d="M238.436 294.827L245.873 290.554L245.398 290.238L237.962 294.669L238.436 294.827Z" fill="#A833D3"/>
<path d="M245.873 303.373V291.662L245.398 291.345V303.056L245.873 303.373Z" fill="#E2AFF9"/>
<path d="M238.436 307.646L245.873 303.373L245.398 303.056L237.962 307.329L238.436 307.646Z" fill="#A833D3"/>
<path d="M245.873 316.033V304.322L245.398 304.164V315.717L245.873 316.033Z" fill="#E2AFF9"/>
<path d="M238.436 320.464L245.873 316.033L245.398 315.717L237.962 320.148L238.436 320.464Z" fill="#A833D3"/>
<path d="M254.416 298.467V286.756L253.783 286.439V298.15L254.416 298.467Z" fill="#E2AFF9"/>
<path d="M246.822 302.74L254.416 298.467L253.783 298.15L246.347 302.423L246.822 302.74Z" fill="#A833D3"/>
<path d="M254.416 285.648V274.096L253.783 273.779V285.332L254.416 285.648Z" fill="#E2AFF9"/>
<path d="M246.822 290.079L254.416 285.648L253.783 285.332L246.347 289.763L246.822 290.079Z" fill="#A833D3"/>
<path d="M254.416 272.988V261.277L253.783 260.961V272.671L254.416 272.988Z" fill="#E2AFF9"/>
<path d="M246.822 277.261L254.416 272.988L253.783 272.671L246.347 276.944L246.822 277.261Z" fill="#A833D3"/>
<path d="M255.366 259.695L237.487 269.981L237.012 269.665L254.733 259.378L255.366 259.695Z" fill="#E2E2E2"/>
<path d="M237.487 269.981V322.047L237.012 321.73V269.665L237.487 269.981Z" fill="#E2AFF9"/>
<path d="M237.487 269.981V322.047L255.366 311.76V259.695L237.487 269.981ZM254.416 311.127L246.98 315.4V303.847L254.416 299.575V311.127ZM245.873 316.033L238.436 320.306V308.595L245.873 304.322V316.033ZM246.822 291.187L254.258 286.914V298.625L246.822 302.898V291.187ZM245.873 303.373L238.436 307.645V295.935L245.873 291.662V303.373ZM246.822 278.369L254.258 274.096V285.806L246.822 290.079V278.369ZM245.873 290.554L238.436 294.827V283.274L245.873 279.002V290.554ZM246.822 265.55L254.258 261.277V272.988L246.822 277.261V265.55ZM245.873 277.894L238.436 282.167V270.456L245.873 266.183V277.894Z" fill="#CB70ED"/>
<path d="M257.897 253.839L233.531 267.924L232.582 267.291L256.79 253.206L257.897 253.839Z" fill="#CB70ED"/>
<path d="M233.531 267.924V271.88L232.582 271.405V267.291L233.531 267.924Z" fill="#630F82"/>
<path d="M257.897 253.839V257.954L233.531 271.88V267.924L257.897 253.839Z" fill="#8815AD"/>
<path d="M257.897 311.918L233.531 326.003L232.582 325.37L256.79 311.443L257.897 311.918Z" fill="#CB70ED"/>
<path d="M233.531 326.003V330.117L232.582 329.484V325.37L233.531 326.003Z" fill="#630F82"/>
<path d="M257.897 311.918V316.033L233.531 330.117V326.003L257.897 311.918Z" fill="#8815AD"/>
<path d="M279.257 372.055L257.581 384.557V327.111L279.257 314.609V372.055Z" fill="#7B58DB"/>
<path d="M277.042 318.882V330.592L269.605 334.865V323.154L277.042 318.882Z" fill="#D9CDF9"/>
<path d="M268.656 323.788V335.34L261.22 339.771V328.06L268.656 323.788Z" fill="#D9CDF9"/>
<path d="M277.042 331.542V343.253L269.605 347.526V335.973L277.042 331.542Z" fill="#D9CDF9"/>
<path d="M277.042 344.36V356.071L269.605 360.344V348.633L277.042 344.36Z" fill="#D9CDF9"/>
<path d="M268.656 349.266V360.819L261.22 365.25V353.539L268.656 349.266Z" fill="#D9CDF9"/>
<path d="M277.042 357.021V368.732L269.605 373.004V361.452L277.042 357.021Z" fill="#D9CDF9"/>
<path d="M268.656 336.448V348.159L261.22 352.431V340.879L268.656 336.448Z" fill="#D9CDF9"/>
<path d="M268.656 361.927V373.637L261.22 377.91V366.358L268.656 361.927Z" fill="#D9CDF9"/>
<path d="M277.675 369.048V357.337L277.042 357.021V368.732L277.675 369.048Z" fill="#E2AFF9"/>
<path d="M270.08 373.321L277.675 369.048L277.042 368.731L269.605 373.004L270.08 373.321Z" fill="#A833D3"/>
<path d="M269.131 335.657V323.946L268.656 323.788V335.34L269.131 335.657Z" fill="#E2AFF9"/>
<path d="M261.694 340.088L269.131 335.657L268.656 335.34L261.22 339.771L261.694 340.088Z" fill="#A833D3"/>
<path d="M269.131 348.475V336.764L268.656 336.448V348.159L269.131 348.475Z" fill="#E2AFF9"/>
<path d="M261.694 352.748L269.131 348.475L268.656 348.158L261.22 352.431L261.694 352.748Z" fill="#A833D3"/>
<path d="M269.131 361.135V349.425L268.656 349.266V360.819L269.131 361.135Z" fill="#E2AFF9"/>
<path d="M261.694 365.566L269.131 361.135L268.656 360.819L261.22 365.25L261.694 365.566Z" fill="#A833D3"/>
<path d="M269.131 373.954V362.243L268.656 361.927V373.637L269.131 373.954Z" fill="#E2AFF9"/>
<path d="M261.694 378.227L269.131 373.954L268.656 373.637L261.22 377.91L261.694 378.227Z" fill="#A833D3"/>
<path d="M277.675 356.229V344.677L277.042 344.36V356.071L277.675 356.229Z" fill="#E2AFF9"/>
<path d="M270.08 360.66L277.675 356.229L277.042 356.071L269.605 360.344L270.08 360.66Z" fill="#A833D3"/>
<path d="M277.675 343.569V331.858L277.042 331.542V343.253L277.675 343.569Z" fill="#E2AFF9"/>
<path d="M270.08 347.842L277.675 343.569L277.042 343.253L269.605 347.526L270.08 347.842Z" fill="#A833D3"/>
<path d="M277.675 330.751V319.198L277.042 318.882V330.592L277.675 330.751Z" fill="#E2AFF9"/>
<path d="M270.08 335.182L277.675 330.751L277.042 330.592L269.605 334.865L270.08 335.182Z" fill="#A833D3"/>
<path d="M278.466 317.457L260.745 327.744L260.271 327.586L277.991 317.299L278.466 317.457Z" fill="#E2E2E2"/>
<path d="M260.745 327.744V379.809L260.271 379.493V327.585L260.745 327.744Z" fill="#E2AFF9"/>
<path d="M260.745 327.744V379.809L278.624 369.523V317.457L260.745 327.744ZM277.675 369.048L270.238 373.321V361.61L277.675 357.337V369.048ZM269.131 373.954L261.694 378.227V366.516L269.131 362.243V373.954ZM270.08 348.95L277.516 344.677V356.388L270.08 360.661V348.95ZM269.131 361.135L261.694 365.408V353.697L269.131 349.425V361.135ZM270.08 336.289L277.516 332.017V343.727L270.08 348V336.289ZM269.131 348.475L261.694 352.748V341.037L269.131 336.764V348.475ZM270.08 323.471L277.516 319.198V330.909L270.08 335.182V323.471ZM269.131 335.656L261.694 339.929V328.219L269.131 323.946V335.656Z" fill="#CB70ED"/>
<path d="M281.155 311.76L256.79 325.686L255.84 325.053L280.048 311.127L281.155 311.76Z" fill="#CB70ED"/>
<path d="M256.79 325.686V329.801L255.84 329.168V325.053L256.79 325.686Z" fill="#4E6A98"/>
<path d="M281.155 311.76V315.875L256.79 329.801V325.686L281.155 311.76Z" fill="#8815AD"/>
<path d="M281.155 369.839L256.79 383.765L255.84 383.291L280.048 369.206L281.155 369.839Z" fill="#CB70ED"/>
<path d="M256.79 383.765V387.88L255.84 387.405V383.291L256.79 383.765Z" fill="#4E6A98"/>
<path d="M281.155 369.839V373.954L256.79 387.88V383.765L281.155 369.839Z" fill="#8815AD"/>
<path d="M256.157 385.506L234.323 398.008V340.562L256.157 328.06V385.506Z" fill="#7B58DB"/>
<path d="M253.783 332.333V343.885L246.347 348.316V336.606L253.783 332.333Z" fill="#D9CDF9"/>
<path d="M245.398 337.081V348.791L237.962 353.222V341.512L245.398 337.081Z" fill="#D9CDF9"/>
<path d="M253.783 344.993V356.704L246.347 360.977V349.424L253.783 344.993Z" fill="#D9CDF9"/>
<path d="M253.783 357.812V369.364L246.347 373.795V362.085L253.783 357.812Z" fill="#D9CDF9"/>
<path d="M245.398 362.559V374.27L237.962 378.701V366.99L245.398 362.559Z" fill="#D9CDF9"/>
<path d="M253.783 370.472V382.183L246.347 386.456V374.903L253.783 370.472Z" fill="#D9CDF9"/>
<path d="M245.398 349.899V361.61L237.962 365.883V354.172L245.398 349.899Z" fill="#D9CDF9"/>
<path d="M245.398 375.378V387.089L237.962 391.362V379.651L245.398 375.378Z" fill="#D9CDF9"/>
<path d="M254.416 382.499V370.788L253.783 370.472V382.183L254.416 382.499Z" fill="#E2AFF9"/>
<path d="M246.822 386.772L254.416 382.499L253.783 382.183L246.347 386.455L246.822 386.772Z" fill="#A833D3"/>
<path d="M245.873 349.108V337.397L245.398 337.081V348.791L245.873 349.108Z" fill="#E2AFF9"/>
<path d="M238.436 353.381L245.873 349.108L245.398 348.791L237.962 353.222L238.436 353.381Z" fill="#A833D3"/>
<path d="M245.873 361.768V350.215L245.398 349.899V361.61L245.873 361.768Z" fill="#E2AFF9"/>
<path d="M238.436 366.199L245.873 361.768L245.398 361.61L237.962 365.882L238.436 366.199Z" fill="#A833D3"/>
<path d="M245.873 374.587V362.876L245.398 362.559V374.27L245.873 374.587Z" fill="#E2AFF9"/>
<path d="M238.436 378.859L245.873 374.587L245.398 374.27L237.962 378.701L238.436 378.859Z" fill="#A833D3"/>
<path d="M245.873 387.405V375.694L245.398 375.378V387.089L245.873 387.405Z" fill="#E2AFF9"/>
<path d="M238.436 391.678L245.873 387.405L245.398 387.089L237.962 391.361L238.436 391.678Z" fill="#A833D3"/>
<path d="M254.416 369.681V357.97L253.783 357.812V369.364L254.416 369.681Z" fill="#E2AFF9"/>
<path d="M246.822 374.112L254.416 369.681L253.783 369.364L246.347 373.795L246.822 374.112Z" fill="#A833D3"/>
<path d="M254.416 357.02V345.31L253.783 344.993V356.704L254.416 357.02Z" fill="#E2AFF9"/>
<path d="M246.822 361.293L254.416 357.02L253.783 356.704L246.347 360.977L246.822 361.293Z" fill="#A833D3"/>
<path d="M254.416 344.202V332.491L253.783 332.333V343.885L254.416 344.202Z" fill="#E2AFF9"/>
<path d="M246.822 348.633L254.416 344.202L253.783 343.885L246.347 348.316L246.822 348.633Z" fill="#A833D3"/>
<path d="M255.366 330.909L237.487 341.195L237.012 340.879L254.733 330.592L255.366 330.909Z" fill="#E2E2E2"/>
<path d="M237.487 341.195V393.26L237.012 392.944V340.878L237.487 341.195Z" fill="#E2AFF9"/>
<path d="M237.487 341.195V393.26L255.366 382.974V330.908L237.487 341.195ZM254.416 382.499L246.98 386.772V375.061L254.416 370.788V382.499ZM245.873 387.405L238.436 391.678V379.967L245.873 375.694V387.405ZM246.822 362.401L254.258 358.128V369.839L246.822 374.112V362.401ZM245.873 374.586L238.436 378.859V367.149L245.873 362.876V374.586ZM246.822 349.582L254.258 345.31V357.02L246.822 361.293V349.582ZM245.873 361.768L238.436 366.041V354.488L245.873 350.215V361.768ZM246.822 336.922L254.258 332.649V344.36L246.822 348.633V336.922ZM245.873 349.108L238.436 353.38V341.828L245.873 337.555V349.108Z" fill="#CB70ED"/>
<path d="M257.897 325.053L233.531 339.138L232.582 338.505L256.79 324.578L257.897 325.053Z" fill="#CB70ED"/>
<path d="M233.531 339.138V343.252L232.582 342.619V338.505L233.531 339.138Z" fill="#630F82"/>
<path d="M257.897 325.053V329.168L233.531 343.252V339.138L257.897 325.053Z" fill="#8815AD"/>
<path d="M257.897 383.29L233.531 397.217L232.582 396.742L256.79 382.657L257.897 383.29Z" fill="#CB70ED"/>
<path d="M233.531 397.217V401.331L232.582 400.698V396.742L233.531 397.217Z" fill="#630F82"/>
<path d="M257.897 383.291V387.405L233.531 401.331V397.217L257.897 383.291Z" fill="#8815AD"/>
<path d="M422.603 325.528L400.927 338.03V280.584L422.603 267.923V325.528Z" fill="#7B58DB"/>
<path d="M420.388 272.196V283.907L412.952 288.338V276.627L420.388 272.196Z" fill="#D9CDF9"/>
<path d="M412.003 277.102V288.813L404.408 293.086V281.533L412.003 277.102Z" fill="#D9CDF9"/>
<path d="M420.388 285.015V296.726L412.952 300.999V289.288L420.388 285.015Z" fill="#D9CDF9"/>
<path d="M420.388 297.675V309.386L412.952 313.817V302.106L420.388 297.675Z" fill="#D9CDF9"/>
<path d="M412.003 302.581V314.292L404.408 318.565V307.012L412.003 302.581Z" fill="#D9CDF9"/>
<path d="M420.388 310.494V322.204L412.952 326.477V314.766L420.388 310.494Z" fill="#D9CDF9"/>
<path d="M412.003 289.921V301.473L404.408 305.904V294.194L412.003 289.921Z" fill="#D9CDF9"/>
<path d="M412.003 315.4V327.11L404.408 331.383V319.673L412.003 315.4Z" fill="#D9CDF9"/>
<path d="M420.863 322.521V310.81L420.388 310.494V322.204L420.863 322.521Z" fill="#E2AFF9"/>
<path d="M413.427 326.794L420.863 322.521L420.388 322.204L412.952 326.477L413.427 326.794Z" fill="#A833D3"/>
<path d="M412.477 289.13V277.419L412.003 277.102V288.813L412.477 289.13Z" fill="#E2AFF9"/>
<path d="M404.883 293.402L412.477 289.129L412.003 288.813L404.408 293.086L404.883 293.402Z" fill="#A833D3"/>
<path d="M412.477 301.79V290.237L412.003 289.921V301.473L412.477 301.79Z" fill="#E2AFF9"/>
<path d="M404.883 306.221L412.477 301.79L412.003 301.473L404.408 305.904L404.883 306.221Z" fill="#A833D3"/>
<path d="M412.477 314.608V302.898L412.003 302.581V314.292L412.477 314.608Z" fill="#E2AFF9"/>
<path d="M404.883 318.881L412.477 314.608L412.003 314.292L404.408 318.565L404.883 318.881Z" fill="#A833D3"/>
<path d="M412.477 327.269V315.716L412.003 315.4V327.11L412.477 327.269Z" fill="#E2AFF9"/>
<path d="M404.883 331.7L412.477 327.269L412.003 327.11L404.408 331.383L404.883 331.7Z" fill="#A833D3"/>
<path d="M420.863 309.702V297.992L420.388 297.675V309.386L420.863 309.702Z" fill="#E2AFF9"/>
<path d="M413.427 313.975L420.863 309.702L420.388 309.386L412.952 313.817L413.427 313.975Z" fill="#A833D3"/>
<path d="M420.863 297.042V285.331L420.388 285.015V296.726L420.863 297.042Z" fill="#E2AFF9"/>
<path d="M413.427 301.315L420.863 297.042L420.388 296.726L412.952 300.998L413.427 301.315Z" fill="#A833D3"/>
<path d="M420.863 284.224V272.513L420.388 272.196V283.907L420.863 284.224Z" fill="#E2AFF9"/>
<path d="M413.427 288.496L420.863 284.224L420.388 283.907L412.952 288.338L413.427 288.496Z" fill="#A833D3"/>
<path d="M421.812 270.93L403.934 281.217L403.459 280.9L421.338 270.614L421.812 270.93Z" fill="#E2E2E2"/>
<path d="M403.934 281.217V333.282L403.459 332.966V280.9L403.934 281.217Z" fill="#E2AFF9"/>
<path d="M403.934 281.217V333.282L421.812 322.996V270.93L403.934 281.217ZM420.863 322.521L413.427 326.794V315.083L420.863 310.81V322.521ZM412.477 327.269L405.041 331.541V319.831L412.477 315.558V327.269ZM413.427 302.423L420.863 298.15V309.861L413.427 314.133V302.423ZM412.477 314.608L405.041 318.881V307.17L412.477 302.897V314.608ZM413.427 289.604L420.863 285.331V297.042L413.427 301.315V289.604ZM412.477 301.79L405.041 306.062V294.352L412.477 290.079V301.79ZM413.427 276.944L420.863 272.671V284.382L413.427 288.655V276.944ZM412.477 289.129L405.041 293.402V281.691L412.477 277.419V289.129Z" fill="#CB70ED"/>
<path d="M424.344 265.075L400.136 279.159L399.187 278.526L423.395 264.6L424.344 265.075Z" fill="#CB70ED"/>
<path d="M400.136 279.159V283.274L399.187 282.641V278.526L400.136 279.159Z" fill="#630F82"/>
<path d="M424.344 265.075V269.19L400.136 283.274V279.16L424.344 265.075Z" fill="#8815AD"/>
<path d="M424.344 323.312L400.136 337.239L399.187 336.606L423.395 322.679L424.344 323.312Z" fill="#CB70ED"/>
<path d="M400.136 337.238V341.353L399.187 340.72V336.605L400.136 337.238Z" fill="#630F82"/>
<path d="M424.344 323.312V327.269L400.136 341.353V337.239L424.344 323.312Z" fill="#8815AD"/>
<path d="M125.31 190.696V247.351L163.44 269.506V212.851L125.31 190.696Z" fill="#7B58DB"/>
<path d="M132.113 238.172L153.631 250.516L156.795 248.775L135.277 236.273L132.113 238.172Z" fill="#8815AD"/>
<path d="M132.113 199.4V238.172L135.277 236.273V197.659L132.113 199.4Z" fill="#CB70ED"/>
<path d="M157.744 248.933L135.277 235.956V191.329L157.744 204.306V248.933Z" fill="#D9CDF9"/>
<path d="M156.162 254.947V210.319L159.327 208.579V253.206L156.162 254.947Z" fill="#CB70ED"/>
<path d="M156.162 210.319L129.581 194.969L132.746 193.228L159.327 208.578L156.162 210.319Z" fill="#C1D8ED"/>
<path d="M132.113 238.172L153.631 250.516V211.744L132.113 199.4V238.172ZM156.162 254.947L129.581 239.596V194.969L156.162 210.319V254.947Z" fill="#E2AFF9"/>
<path d="M29.1123 339.296L18.1952 332.966V328.851L29.1123 335.181V339.296Z" fill="#000107"/>
<path d="M17.8787 333.441L28.0048 339.296L29.4287 338.505L19.3027 332.649L17.8787 333.441Z" fill="#8815AD"/>
<path d="M17.8787 329.01V333.441L19.3027 332.649V328.06L17.8787 329.01Z" fill="#CB70ED"/>
<path d="M29.1123 341.353V334.074L30.6945 333.282V340.562L29.1123 341.353Z" fill="#CB70ED"/>
<path d="M29.1123 334.074L16.7712 326.794L18.1952 326.003L30.6945 333.282L29.1123 334.074Z" fill="#8815AD"/>
<path d="M17.8787 333.441L28.0048 339.296V334.707L17.8787 328.851V333.441ZM29.1123 341.353L16.613 334.074V326.794L29.1123 334.074V341.353Z" fill="#E2AFF9"/>
<path d="M57.75 355.913L46.8329 349.582V345.31L57.75 351.64V355.913Z" fill="#000107"/>
<path d="M46.5164 350.057L56.6424 355.755L58.0664 354.963L47.9404 349.108L46.5164 350.057Z" fill="#8815AD"/>
<path d="M46.5164 345.468V350.057L47.9404 349.108V344.677L46.5164 345.468Z" fill="#CB70ED"/>
<path d="M57.75 357.97V350.532L59.3322 349.741V357.02L57.75 357.97Z" fill="#CB70ED"/>
<path d="M57.75 350.532L45.4089 343.411L46.8328 342.619L59.3322 349.741L57.75 350.532Z" fill="#8815AD"/>
<path d="M46.5164 350.057L56.6425 355.913V351.323L46.5164 345.468V350.057ZM57.75 357.97L45.2507 350.69V343.411L57.75 350.69V357.97Z" fill="#E2AFF9"/>
<path d="M86.3876 372.371L75.4705 366.041V361.926L86.3876 368.256V372.371Z" fill="#000107"/>
<path d="M75.1541 366.516L85.2801 372.371L86.7041 371.58L76.578 365.724L75.1541 366.516Z" fill="#8815AD"/>
<path d="M75.1541 361.926V366.516L76.578 365.724V361.135L75.1541 361.926Z" fill="#CB70ED"/>
<path d="M86.3876 374.428V367.149L87.9698 366.199V373.637L86.3876 374.428Z" fill="#CB70ED"/>
<path d="M86.3876 367.149L73.8883 359.869L75.4705 359.078L87.9698 366.199L86.3876 367.149Z" fill="#8815AD"/>
<path d="M75.1541 366.516L85.2801 372.371V367.782L75.1541 361.926V366.516ZM86.3876 374.428L73.8883 367.149V359.869L86.3876 367.149V374.428Z" fill="#E2AFF9"/>
<path d="M115.025 388.988L104.108 382.658V378.385L115.025 384.715V388.988Z" fill="#000107"/>
<path d="M103.792 383.132L113.918 388.83L115.342 388.038L105.216 382.183L103.792 383.132Z" fill="#8815AD"/>
<path d="M103.792 378.543V383.132L105.216 382.183V377.752L103.792 378.543Z" fill="#CB70ED"/>
<path d="M115.025 391.045V383.607L116.608 382.816V390.095L115.025 391.045Z" fill="#CB70ED"/>
<path d="M115.025 383.607L102.526 376.486L104.108 375.536L116.607 382.816L115.025 383.607Z" fill="#8815AD"/>
<path d="M103.792 383.132L113.918 388.988V384.398L103.792 378.543V383.132ZM115.025 391.045L102.526 383.765V376.486L115.025 383.765V391.045Z" fill="#E2AFF9"/>
<path d="M123.886 185.157L162.016 207.154L163.599 206.205L125.468 184.207L123.886 185.157Z" fill="#CB70ED"/>
<path d="M162.016 207.154V213.643L163.599 212.693V206.205L162.016 207.154Z" fill="#630F82"/>
<path d="M123.886 185.157V191.645L162.016 213.642V207.154L123.886 185.157Z" fill="#8815AD"/>
<path d="M296.661 298.625C301.408 301.315 309.002 301.315 313.749 298.625C318.495 295.934 318.495 291.503 313.749 288.813C310.742 287.072 305.996 288.022 305.996 288.022C305.996 288.022 305.679 286.756 304.888 287.072C304.097 287.389 302.515 288.18 302.515 289.13C302.515 289.921 302.515 290.237 302.515 290.237C302.515 290.237 299.825 292.611 299.034 293.877C298.085 295.143 296.661 298.625 296.661 298.625Z" fill="#0C1D39"/>
<path d="M416.591 110.303L370.866 226.145L180.528 116.316L226.253 0.474731L416.591 110.303Z" fill="#4A135E"/>
<path d="M225.114 0.0516486L179.379 115.892L181.733 116.822L227.469 0.981675L225.114 0.0516486Z" fill="#270733"/>
<path d="M240.973 9.24281L195.237 125.083L197.592 126.013L243.327 10.1728L240.973 9.24281Z" fill="#270733"/>
<path d="M256.919 18.2909L211.171 134.131L213.525 135.061L259.273 19.2212L256.919 18.2909Z" fill="#270733"/>
<path d="M272.782 27.4857L227.034 143.326L229.389 144.256L275.137 28.416L272.782 27.4857Z" fill="#270733"/>
<path d="M288.497 36.6171L242.748 152.457L245.103 153.387L290.851 37.5474L288.497 36.6171Z" fill="#270733"/>
<path d="M304.365 45.8161L258.617 161.656L260.971 162.586L306.719 46.7463L304.365 45.8161Z" fill="#4E6A98"/>
<path d="M320.287 54.8646L274.539 170.705L276.894 171.635L322.642 55.7949L320.287 54.8646Z" fill="#270733"/>
<path d="M336.124 64.0536L290.388 179.894L292.743 180.824L338.479 64.9836L336.124 64.0536Z" fill="#270733"/>
<path d="M351.992 73.2535L306.257 189.094L308.611 190.024L354.347 74.1836L351.992 73.2535Z" fill="#270733"/>
<path d="M367.883 82.4462L322.135 198.286L324.489 199.216L370.237 83.3764L367.883 82.4462Z" fill="#270733"/>
<path d="M383.741 91.6359L337.993 207.476L340.347 208.406L386.096 92.5661L383.741 91.6359Z" fill="#270733"/>
<path d="M399.497 100.631L353.761 216.471L356.116 217.401L401.851 101.561L399.497 100.631Z" fill="#270733"/>
<path d="M415.36 109.826L369.624 225.666L371.979 226.596L417.714 110.756L415.36 109.826Z" fill="#270733"/>
<path d="M328.305 200.191L209.166 269.031L139.233 141.004L305.521 46.8431L328.305 200.191Z" fill="#361F68"/>
<path d="M139.806 140.573L138.695 141.179L208.556 269.274L209.667 268.667L139.806 140.573Z" fill="#4E6A98"/>
<path d="M233.373 254.947L232.582 255.421L232.266 255.58L162.491 127.711L163.599 127.078L233.373 254.947Z" fill="#4E6A98"/>
<path d="M257.106 241.337L255.999 241.97L186.382 114.259L187.49 113.626L257.106 241.337Z" fill="#4E6A98"/>
<path d="M280.839 227.569L279.731 228.202L210.273 100.808L210.748 100.491L211.381 100.175L280.839 227.569Z" fill="#4E6A98"/>
<path d="M304.572 213.801L303.464 214.434L234.164 87.1977L235.272 86.5647L304.572 213.801Z" fill="#4E6A98"/>
<path d="M328.305 200.191L327.197 200.824L257.897 73.7462L258.53 73.4297L259.005 73.1132L328.305 200.191Z" fill="#4E6A98"/>
<path d="M317.229 125.179L281.788 60.2946L282.421 59.9781L282.896 59.6616L316.597 121.539L317.229 125.179Z" fill="#4E6A98"/>
<path d="M430.989 138.314L422.287 143.378L420.388 142.428L429.249 137.364L430.989 138.314Z" fill="#DFE6EB"/>
<path d="M422.287 143.378V153.664L420.388 152.557V142.428L422.287 143.378Z" fill="#C2DDEF"/>
<path d="M430.989 138.314V148.6L422.287 153.664V143.378L430.989 138.314Z" fill="#D0E5EF"/>
<path d="M441.748 153.031C441.432 152.873 440.799 153.189 440.482 153.823C440.166 154.456 440.166 155.089 440.482 155.405L426.242 147.176C425.926 147.018 425.926 146.226 426.242 145.593C426.559 144.96 427.192 144.644 427.508 144.802L441.748 153.031Z" fill="#C2DDEF"/>
<path d="M441.59 153.031C441.906 153.19 441.906 153.981 441.59 154.614C441.273 155.247 440.64 155.563 440.324 155.405C440.007 155.247 440.007 154.456 440.324 153.823C440.64 153.19 441.115 152.873 441.59 153.031Z" fill="#021936"/>
<path d="M439.216 141.004C439.216 141.479 439.849 141.795 440.482 141.795C441.273 141.795 441.748 141.479 441.748 141.004V154.614C441.748 155.088 441.115 155.405 440.482 155.405C439.691 155.405 439.216 153.348 439.216 152.873V141.004Z" fill="#B4CADA"/>
<path d="M436.843 129.61C436.843 131.825 439.849 133.566 443.647 133.566C447.444 133.566 450.45 135.782 450.45 133.566V141.162C450.45 143.378 447.444 145.119 443.647 145.119C439.849 145.119 436.843 143.378 436.843 141.162V129.61Z" fill="#C2DDEF"/>
<path d="M443.014 126.603C445.703 127.078 448.393 128.977 449.342 131.509C449.501 131.984 449.659 132.617 449.659 133.091C449.659 133.091 449.659 133.091 449.659 133.25C449.659 135.307 448.077 136.731 445.862 136.889C443.172 137.048 440.166 135.465 438.584 133.091C437.951 132.142 437.634 131.034 437.634 129.926C437.792 128.819 438.425 127.711 439.533 127.236C440.482 126.445 441.748 126.445 443.014 126.603Z" fill="#8EB9DA"/>
<path d="M448.71 133.091V136.573C448.393 136.889 447.918 137.048 447.602 137.206C446.178 137.681 444.438 137.681 443.014 137.048C441.273 136.415 439.691 135.307 438.584 134.041V130.401C438.584 131.192 438.9 132.142 439.375 132.775C440.64 134.832 443.33 136.256 445.545 136.098C447.286 135.94 448.71 134.832 448.71 133.091Z" fill="#C2DDEF"/>
<path d="M438.425 130.401C438.425 130.243 438.425 130.243 438.425 130.084C438.584 129.135 439.058 128.185 440.008 127.711C440.957 127.236 442.064 127.078 443.014 127.394C445.387 127.711 447.602 129.451 448.393 131.509C448.551 131.984 448.71 132.458 448.71 132.933C448.71 132.933 448.71 132.933 448.71 133.091C448.71 134.832 447.286 135.94 445.387 136.098C443.172 136.256 440.482 134.832 439.216 132.775C438.742 132.142 438.425 131.192 438.425 130.401Z" fill="#DCFCFF"/>
<path d="M449.501 133.566C449.501 133.408 449.501 133.25 449.501 133.091C449.501 134.674 448.551 135.94 446.969 136.415C445.703 136.889 444.121 136.731 442.855 136.256C441.59 135.782 440.482 134.99 439.533 134.199C438.425 133.091 437.634 131.667 437.634 130.084C437.634 128.185 438.9 126.761 441.115 126.445C443.647 126.128 446.653 127.552 448.393 129.768C449.026 130.559 449.501 131.509 449.501 132.617C449.501 132.775 449.501 132.933 449.501 133.091C449.501 133.25 449.501 133.566 449.501 133.566ZM449.975 131.351C448.868 128.66 446.02 126.445 443.014 125.97C441.59 125.812 440.166 125.812 438.9 126.603C437.792 127.236 437.16 128.344 437.001 129.61C436.843 130.718 437.16 131.825 437.792 132.775C438.109 133.25 438.267 133.724 438.742 134.041C439.849 135.465 441.432 136.573 443.172 137.048C444.596 137.522 446.336 137.681 447.76 137.206C448.235 137.048 448.551 136.889 448.868 136.573C449.184 136.415 449.501 136.098 449.817 135.782C450.45 134.516 450.45 132.775 449.975 131.351Z" fill="white"/>
<path d="M294.921 312.709L283.212 319.514L281.788 318.723L293.497 311.918L294.921 312.709Z" fill="white"/>
<path d="M283.212 319.514V333.124L281.788 332.333V318.723L283.212 319.514Z" fill="#DAE9EF"/>
<path d="M294.92 312.709V326.319L283.212 333.124V319.514L294.92 312.709Z" fill="#C2DDEF"/>
<path d="M283.212 333.124L281.155 318.248L294.921 312.709L284.162 321.255L285.269 319.514L283.212 333.124Z" fill="white"/>
<path d="M293.497 322.838L284.478 328.06V319.356L293.497 314.134V322.838Z" fill="#8EB9DA"/>
<path d="M285.744 319.831L291.756 316.349V322.047L285.744 325.528V319.831Z" fill="#E2AFF9"/>
<path d="M287.642 327.269C287.484 327.427 287.484 327.427 287.326 327.427C287.168 327.427 287.168 327.269 287.326 327.111C287.484 326.952 287.484 326.952 287.642 326.952C287.642 326.952 287.642 327.111 287.642 327.269Z" fill="#8EB9DA"/>
<path d="M288.275 326.952C288.117 327.111 288.117 327.111 287.959 327.111C287.801 327.111 287.801 326.952 287.959 326.794C288.117 326.636 288.117 326.636 288.275 326.636C288.434 326.636 288.434 326.794 288.275 326.952Z" fill="#8EB9DA"/>
<path d="M288.908 326.478C288.75 326.636 288.75 326.636 288.592 326.636C288.592 326.636 288.592 326.478 288.592 326.319C288.75 326.161 288.75 326.161 288.908 326.161C289.066 326.161 289.066 326.319 288.908 326.478Z" fill="#8EB9DA"/>
<path d="M289.699 326.161C289.541 326.319 289.541 326.319 289.383 326.319C289.225 326.319 289.225 326.161 289.383 326.003C289.541 325.844 289.541 325.844 289.699 325.844C289.699 325.844 289.699 326.003 289.699 326.161Z" fill="#8EB9DA"/>
<path d="M290.332 325.686C290.174 325.844 290.174 325.844 290.016 325.844C289.857 325.844 289.857 325.686 290.016 325.528C290.174 325.37 290.174 325.37 290.332 325.37C290.49 325.37 290.49 325.528 290.332 325.686Z" fill="#8EB9DA"/>
<path d="M291.123 325.37C290.965 325.528 290.965 325.528 290.807 325.528C290.649 325.528 290.649 325.37 290.807 325.211C290.965 325.053 290.965 325.053 291.123 325.053C291.123 325.053 291.123 325.211 291.123 325.37Z" fill="#8EB9DA"/>
<path d="M287.642 327.902C287.484 328.06 287.484 328.06 287.326 328.06C287.168 328.06 287.168 327.902 287.326 327.743C287.484 327.585 287.484 327.585 287.642 327.585C287.642 327.585 287.642 327.743 287.642 327.902Z" fill="#8EB9DA"/>
<path d="M288.275 327.585C288.117 327.744 288.117 327.744 287.959 327.744C287.801 327.744 287.801 327.585 287.959 327.427C288.117 327.269 288.117 327.269 288.275 327.269C288.434 327.269 288.434 327.427 288.275 327.585Z" fill="#8EB9DA"/>
<path d="M288.908 327.11C288.75 327.269 288.75 327.269 288.592 327.269C288.592 327.269 288.592 327.11 288.592 326.952C288.75 326.794 288.75 326.794 288.908 326.794C289.066 326.794 289.066 326.952 288.908 327.11Z" fill="#8EB9DA"/>
<path d="M289.699 326.794C289.541 326.952 289.541 326.952 289.383 326.952C289.225 326.952 289.225 326.794 289.383 326.636C289.541 326.478 289.541 326.478 289.699 326.478C289.699 326.478 289.699 326.636 289.699 326.794Z" fill="#8EB9DA"/>
<path d="M290.332 326.319C290.174 326.477 290.174 326.477 290.016 326.477C289.857 326.477 289.857 326.319 290.016 326.161C290.174 326.003 290.174 326.003 290.332 326.003C290.49 326.003 290.49 326.161 290.332 326.319Z" fill="#8EB9DA"/>
<path d="M291.123 326.003C290.965 326.161 290.965 326.161 290.807 326.161C290.649 326.161 290.649 326.003 290.807 325.845C290.965 325.686 290.965 325.686 291.123 325.686C291.123 325.686 291.123 325.845 291.123 326.003Z" fill="#8EB9DA"/>
<path d="M287.642 328.535C287.484 328.693 287.484 328.693 287.326 328.693C287.168 328.693 287.168 328.535 287.326 328.377C287.484 328.218 287.484 328.218 287.642 328.218C287.642 328.377 287.642 328.535 287.642 328.535Z" fill="#8EB9DA"/>
<path d="M288.275 328.218C288.117 328.377 288.117 328.377 287.959 328.377C287.801 328.377 287.801 328.218 287.959 328.06C288.117 327.902 288.117 327.902 288.275 327.902C288.434 327.902 288.434 328.06 288.275 328.218Z" fill="#8EB9DA"/>
<path d="M288.908 327.744C288.75 327.902 288.75 327.902 288.592 327.902C288.592 327.902 288.592 327.744 288.592 327.585C288.75 327.427 288.75 327.427 288.908 327.427C289.066 327.585 289.066 327.744 288.908 327.744Z" fill="#8EB9DA"/>
<path d="M289.699 327.427C289.541 327.585 289.541 327.585 289.383 327.585C289.225 327.585 289.225 327.427 289.383 327.269C289.541 327.111 289.541 327.111 289.699 327.111C289.699 327.111 289.699 327.269 289.699 327.427Z" fill="#8EB9DA"/>
<path d="M290.332 326.952C290.174 327.111 290.174 327.111 290.016 327.111C289.857 327.111 289.857 326.952 290.016 326.794C290.174 326.636 290.174 326.636 290.332 326.636C290.49 326.794 290.49 326.794 290.332 326.952Z" fill="#8EB9DA"/>
<path d="M291.123 326.636C290.965 326.794 290.965 326.794 290.807 326.794C290.649 326.794 290.649 326.636 290.807 326.478C290.965 326.319 290.965 326.319 291.123 326.319C291.123 326.319 291.123 326.478 291.123 326.636Z" fill="#8EB9DA"/>
<path d="M287.642 329.326C287.484 329.485 287.484 329.485 287.326 329.485C287.168 329.485 287.168 329.326 287.326 329.168C287.484 329.01 287.484 329.01 287.642 329.01C287.642 329.01 287.642 329.168 287.642 329.326Z" fill="#8EB9DA"/>
<path d="M288.275 328.851C288.117 329.01 288.117 329.01 287.959 329.01C287.801 329.01 287.801 328.851 287.959 328.693C288.117 328.535 288.117 328.535 288.275 328.535C288.434 328.535 288.434 328.693 288.275 328.851Z" fill="#8EB9DA"/>
<path d="M288.908 328.535C288.75 328.693 288.75 328.693 288.592 328.693C288.592 328.693 288.592 328.535 288.592 328.377C288.75 328.219 288.75 328.219 288.908 328.219C289.066 328.219 289.066 328.377 288.908 328.535Z" fill="#8EB9DA"/>
<path d="M289.699 328.06C289.541 328.218 289.541 328.218 289.383 328.218C289.225 328.218 289.225 328.06 289.383 327.902C289.541 327.744 289.541 327.744 289.699 327.744C289.699 327.744 289.699 327.902 289.699 328.06Z" fill="#8EB9DA"/>
<path d="M290.332 327.744C290.174 327.902 290.174 327.902 290.016 327.902C289.857 327.902 289.857 327.744 290.016 327.586C290.174 327.427 290.174 327.427 290.332 327.427C290.49 327.427 290.49 327.586 290.332 327.744Z" fill="#8EB9DA"/>
<path d="M291.123 327.269C290.965 327.427 290.965 327.427 290.807 327.427C290.649 327.427 290.649 327.269 290.807 327.111C290.965 326.952 290.965 326.952 291.123 326.952C291.123 326.952 291.123 327.111 291.123 327.269Z" fill="#8EB9DA"/>
<path d="M287.642 329.959C287.484 330.117 287.484 330.117 287.326 330.117C287.168 330.117 287.168 329.959 287.326 329.801C287.484 329.643 287.484 329.643 287.642 329.643C287.642 329.643 287.642 329.801 287.642 329.959Z" fill="#8EB9DA"/>
<path d="M288.275 329.484C288.117 329.642 288.117 329.642 287.959 329.642C287.801 329.642 287.801 329.484 287.959 329.326C288.117 329.168 288.117 329.168 288.275 329.168C288.434 329.168 288.434 329.326 288.275 329.484Z" fill="#8EB9DA"/>
<path d="M288.908 329.168C288.75 329.326 288.75 329.326 288.592 329.326C288.592 329.326 288.592 329.168 288.592 329.01C288.75 328.851 288.75 328.851 288.908 328.851C289.066 328.851 289.066 329.01 288.908 329.168Z" fill="#8EB9DA"/>
<path d="M289.699 328.693C289.541 328.851 289.541 328.851 289.383 328.851C289.225 328.851 289.225 328.693 289.383 328.535C289.541 328.376 289.541 328.376 289.699 328.376C289.699 328.376 289.699 328.535 289.699 328.693Z" fill="#8EB9DA"/>
<path d="M290.332 328.377C290.174 328.535 290.174 328.535 290.016 328.535C289.857 328.535 289.857 328.377 290.016 328.218C290.174 328.06 290.174 328.06 290.332 328.06C290.49 328.06 290.49 328.218 290.332 328.377Z" fill="#8EB9DA"/>
<path d="M291.123 327.902C290.965 328.06 290.965 328.06 290.807 328.06C290.649 328.06 290.649 327.902 290.807 327.743C290.965 327.585 290.965 327.585 291.123 327.585C291.123 327.585 291.123 327.743 291.123 327.902Z" fill="#8EB9DA"/>
<path d="M292.864 324.104C292.705 323.946 292.389 324.104 292.231 324.579C292.073 324.895 292.073 325.212 292.231 325.37L291.914 325.212C291.756 325.053 291.756 324.737 291.914 324.42C292.073 324.104 292.389 323.946 292.547 323.946L292.864 324.104Z" fill="#08152D"/>
<path d="M292.864 324.104C293.022 324.262 293.022 324.579 292.864 324.895C292.705 325.212 292.389 325.37 292.231 325.37C292.073 325.212 292.073 324.895 292.231 324.579C292.389 324.262 292.705 324.104 292.864 324.104Z" fill="#010B1D"/>
<path d="M286.693 327.744C286.535 327.585 286.219 327.744 286.06 328.218C285.902 328.535 285.902 328.851 286.06 329.01L285.744 328.851C285.586 328.693 285.586 328.377 285.744 328.06C285.902 327.744 286.218 327.585 286.377 327.585L286.693 327.744Z" fill="#08152D"/>
<path d="M286.693 327.744C286.851 327.902 286.851 328.218 286.693 328.535C286.535 328.851 286.218 329.01 286.06 329.01C285.902 328.851 285.902 328.535 286.06 328.218C286.218 327.744 286.535 327.585 286.693 327.744Z" fill="#010B1D"/>
<path d="M294.604 324.737C294.288 324.578 293.813 324.895 293.497 325.37C293.18 325.844 293.18 326.477 293.497 326.636L292.705 326.161C292.389 326.003 292.389 325.37 292.705 324.895C293.022 324.42 293.497 324.104 293.813 324.262L294.604 324.737Z" fill="#08152D"/>
<path d="M294.604 324.737C294.921 324.895 294.921 325.528 294.604 326.003C294.288 326.478 293.813 326.794 293.497 326.636C293.18 326.478 293.18 325.845 293.497 325.37C293.813 324.895 294.288 324.578 294.604 324.737Z" fill="#010B1D"/>
<path d="M286.218 329.642C285.902 329.484 285.427 329.801 285.111 330.275C284.795 330.75 284.795 331.383 285.111 331.541L284.32 331.067C284.003 330.908 284.003 330.275 284.32 329.801C284.636 329.326 285.111 329.009 285.427 329.168L286.218 329.642Z" fill="#08152D"/>
<path d="M286.218 329.642C286.535 329.801 286.535 330.434 286.218 330.909C285.902 331.383 285.427 331.7 285.111 331.542C284.794 331.383 284.794 330.75 285.111 330.275C285.427 329.801 285.902 329.484 286.218 329.642Z" fill="#010B1D"/>
<path d="M292.705 322.679H292.547L291.756 323.154L291.598 322.996L292.389 322.521C292.547 322.521 292.547 322.521 292.547 322.521L292.705 322.679Z" fill="#E2AFF9"/>
<path d="M291.756 323.154V323.787L291.598 323.629V322.996L291.756 323.154Z" fill="#6983B6"/>
<path d="M292.705 322.679L292.864 322.838C292.864 322.996 292.864 322.996 292.705 323.154C292.705 323.312 292.547 323.312 292.547 323.312L291.756 323.787V323.154L292.547 322.679C292.547 322.679 292.705 322.679 292.705 322.679Z" fill="#D0E5EF"/>
<path d="M291.598 323.154L290.649 323.787L290.49 323.629L291.44 322.996L291.598 323.154Z" fill="#E2AFF9"/>
<path d="M290.649 323.787V324.42L290.49 324.262V323.629L290.649 323.787Z" fill="#6983B6"/>
<path d="M291.598 323.154V323.787L290.649 324.42V323.787L291.598 323.154Z" fill="#D0E5EF"/>
<path d="M290.649 323.787L289.541 324.262H289.383L290.332 323.629L290.649 323.787Z" fill="#E2AFF9"/>
<path d="M289.541 324.262V325.053L289.383 324.895V324.262H289.541Z" fill="#6983B6"/>
<path d="M290.649 323.787V324.42L289.541 325.053V324.262L290.649 323.787Z" fill="#D0E5EF"/>
<path d="M289.541 324.42L288.592 324.895H288.275L289.383 324.262L289.541 324.42Z" fill="#E2AFF9"/>
<path d="M288.592 324.895V325.528H288.275V324.895H288.592Z" fill="#6983B6"/>
<path d="M289.541 324.42V325.053L288.592 325.528V324.895L289.541 324.42Z" fill="#D0E5EF"/>
<path d="M288.434 325.053L287.484 325.528H287.326L288.275 324.895L288.434 325.053Z" fill="#E2AFF9"/>
<path d="M287.484 325.528V326.161H287.326V325.528H287.484Z" fill="#6983B6"/>
<path d="M288.434 325.053V325.686L287.484 326.161V325.528L288.434 325.053Z" fill="#D0E5EF"/>
<path d="M287.326 325.528L286.377 326.161L286.219 326.003L287.168 325.528H287.326Z" fill="#E2AFF9"/>
<path d="M286.377 326.161V326.794H286.219V326.003L286.377 326.161Z" fill="#6983B6"/>
<path d="M287.326 325.528V326.319L286.377 326.794V326.161L287.326 325.528Z" fill="#D0E5EF"/>
<path d="M286.377 326.161L285.586 326.636L285.427 326.794C285.427 326.952 285.269 326.952 285.269 327.111C285.269 327.269 285.269 327.269 285.427 327.269L285.269 327.111L285.111 326.952C285.111 326.794 285.111 326.794 285.269 326.636C285.269 326.478 285.427 326.478 285.427 326.478L286.218 326.003L286.377 326.161Z" fill="#E2AFF9"/>
<path d="M286.377 326.161V326.794L285.586 327.269H285.427L285.269 327.111C285.269 326.952 285.269 326.952 285.427 326.794C285.427 326.636 285.586 326.636 285.586 326.636L286.377 326.161Z" fill="#D0E5EF"/>
<path d="M446.178 213.326C446.811 213.484 448.551 213.484 447.918 213.01L437.16 206.838C437.792 207.154 438.109 207.945 438.109 208.895C438.267 209.053 442.697 212.693 446.178 213.326Z" fill="#2A3840"/>
<path d="M428.932 206.996C428.141 206.521 428.141 204.939 428.932 203.514C429.723 202.09 431.147 201.299 431.938 201.774L430.514 200.982C429.723 200.507 428.299 201.299 427.508 202.723C426.717 204.147 426.717 205.73 427.508 206.205L428.932 206.996Z" fill="#DCFCFF"/>
<path d="M428.932 206.996C429.723 207.471 431.147 206.679 431.938 205.255C432.729 203.831 432.729 202.248 431.938 201.774C431.147 201.299 429.723 202.09 428.932 203.514C428.141 204.939 428.141 206.521 428.932 206.996Z" fill="#DCEDEF"/>
<path d="M431.938 210.952C431.78 210.477 432.255 209.844 432.888 209.528C433.679 209.211 434.47 209.211 434.628 209.686L432.097 204.306C431.938 203.831 430.989 203.672 430.356 204.147C429.407 204.939 429.565 205.888 429.723 206.363L431.938 210.952Z" fill="#DCFCFF"/>
<path d="M441.59 220.289C440.324 219.498 440.324 217.124 441.59 214.75C442.855 212.535 445.071 211.269 446.336 212.06L435.894 206.046C434.628 205.255 432.413 206.521 431.147 208.737C429.881 210.952 429.881 213.484 431.147 214.276L441.59 220.289Z" fill="#DCFCFF"/>
<path d="M446.271 217.53C447.581 215.259 447.601 212.816 446.315 212.073C445.028 211.33 442.923 212.569 441.612 214.839C440.301 217.11 440.282 219.553 441.568 220.296C442.854 221.039 444.96 219.8 446.271 217.53Z" fill="#02151E"/>
<path d="M442.064 219.34C443.014 219.973 444.754 219.023 445.703 217.282C446.653 215.542 446.653 213.643 445.703 213.01C444.754 212.376 443.014 213.326 442.064 215.067C441.115 216.966 441.115 218.865 442.064 219.34Z" fill="#8EB9DA"/>
<path d="M443.172 217.441C443.488 217.599 444.121 217.282 444.596 216.649C444.912 216.016 444.912 215.225 444.596 215.067C444.279 214.909 443.647 215.225 443.172 215.858C442.855 216.491 442.855 217.124 443.172 217.441Z" fill="#2182CB"/>
<path d="M445.703 213.642C446.495 214.117 446.495 215.7 445.703 217.282C444.912 218.707 443.488 219.656 442.539 219.023L442.381 218.865C443.172 219.34 444.596 218.548 445.545 217.124C446.336 215.7 446.336 213.959 445.545 213.484L445.703 213.642Z" fill="#000404"/>
<path d="M442.223 219.814C441.115 219.181 441.115 217.124 442.223 215.225C443.33 213.326 445.071 212.218 446.178 212.851L446.02 212.693C444.912 212.06 443.172 213.168 442.064 215.067C440.957 216.966 440.957 219.023 442.064 219.656L442.223 219.814Z" fill="#000404"/>
<path d="M442.223 219.814C443.33 220.447 445.071 219.34 446.178 217.441C447.286 215.541 447.286 213.484 446.178 212.851C445.071 212.218 443.33 213.326 442.223 215.225C441.115 217.124 441.115 219.181 442.223 219.814ZM442.539 215.383C443.33 213.959 444.754 213.009 445.703 213.642C446.495 214.117 446.495 215.7 445.703 217.282C444.912 218.707 443.488 219.656 442.539 219.023C441.748 218.548 441.748 216.966 442.539 215.383Z" fill="#031722"/>
<path d="M444.754 215.225C445.071 215.383 445.071 216.016 444.754 216.649C444.438 217.282 443.963 217.599 443.488 217.282L443.33 217.124C443.647 217.282 444.121 216.966 444.596 216.491C444.912 215.858 444.912 215.225 444.596 215.067L444.754 215.225Z" fill="#000404"/>
<path d="M443.33 217.599C442.855 217.282 442.855 216.491 443.33 215.858C443.805 215.067 444.438 214.75 444.912 214.909L444.754 214.75C444.279 214.434 443.647 214.909 443.172 215.7C442.697 216.491 442.697 217.282 443.172 217.441L443.33 217.599Z" fill="#000404"/>
<path d="M443.33 217.599C443.805 217.915 444.438 217.441 444.912 216.649C445.387 215.858 445.387 215.067 444.912 214.908C444.438 214.592 443.805 215.067 443.33 215.858C443.014 216.649 443.014 217.441 443.33 217.599ZM443.488 216.016C443.805 215.383 444.279 215.067 444.754 215.383C445.071 215.541 445.071 216.174 444.754 216.808C444.438 217.441 443.963 217.757 443.488 217.441C443.172 217.124 443.172 216.491 443.488 216.016Z" fill="#031722"/>
<path d="M439.216 219.023L440.008 219.498C439.375 219.023 439.058 218.232 439.058 217.124C439.058 216.966 439.058 216.966 438.9 216.808L438.742 216.649C438.584 216.491 438.267 216.65 438.267 216.966C438.267 217.916 438.584 218.707 439.216 219.023Z" fill="#C1D8ED"/>
<path d="M437.634 218.074L438.425 218.548C437.792 218.074 437.476 217.282 437.476 216.175C437.476 216.016 437.476 216.016 437.318 215.858L437.16 215.7C437.001 215.542 436.685 215.7 436.685 216.016C436.685 216.966 437.001 217.757 437.634 218.074Z" fill="#C1D8ED"/>
<path d="M435.894 217.124L436.685 217.599C436.052 217.124 435.736 216.333 435.736 215.225C435.736 215.067 435.736 215.067 435.577 214.909L435.419 214.75C435.261 214.592 434.944 214.75 434.944 215.067C434.944 216.016 435.261 216.649 435.894 217.124Z" fill="#C1D8ED"/>
<path d="M434.153 216.175L434.944 216.649C434.312 216.175 433.995 215.383 433.995 214.276C433.995 214.117 433.995 214.117 433.837 213.959L433.679 213.801C433.521 213.643 433.204 213.801 433.204 214.117C433.362 215.067 433.679 215.7 434.153 216.175Z" fill="#C1D8ED"/>
<path d="M432.571 215.067L433.362 215.542C432.729 215.067 432.413 214.275 432.413 213.168C432.413 213.009 432.413 213.009 432.255 212.851L432.097 212.693C431.938 212.535 431.622 212.693 431.622 213.009C431.622 214.117 431.938 214.75 432.571 215.067Z" fill="#C1D8ED"/>
<path d="M434.786 211.269C435.736 212.693 439.058 214.909 441.115 216.175C441.906 216.65 443.014 216.333 443.488 215.542C444.121 214.592 444.912 213.801 445.703 213.326C446.653 212.851 447.444 212.693 448.077 213.01V213.168L448.235 213.01C448.235 212.851 448.077 212.851 448.077 212.851L437.318 206.838C436.685 206.521 435.736 206.521 434.786 206.996C434.312 207.313 433.995 207.787 433.995 208.262C433.995 209.212 433.995 210.161 434.786 211.269Z" fill="#2A3840"/>
<path d="M434.786 211.744C435.736 213.168 438.742 214.75 440.799 216.016C441.59 216.491 443.014 216.175 443.488 215.383C444.121 214.434 444.912 213.643 445.703 213.168C446.653 212.693 447.444 212.535 448.235 213.01L437.476 206.838C436.843 206.521 435.894 206.521 434.944 206.996C434.47 207.313 434.153 207.787 434.153 208.262C433.837 208.895 433.995 210.636 434.786 211.744Z" fill="#DCFCFF"/>
<g style="mix-blend-mode:color-dodge">
<path opacity="0.34" d="M286.377 326.161L259.321 375.061L365.644 319.514L291.598 323.154L286.377 326.161Z" fill="#D9CDF9" fill-opacity="0.5"/>
<path opacity="0.4" d="M259.321 375.061V337.713L365.644 286.439V319.514L259.321 375.061Z" fill="#D9CDF9" fill-opacity="0.5"/>
</g>
<g style="mix-blend-mode:color-dodge">
<path d="M276.884 342.619V351.323L275.301 352.115V343.411L276.884 342.619Z" fill="#6F42C1"/>
<path d="M283.529 347.842L281.947 348.633L279.415 344.677V350.057L277.833 350.848V342.144L279.415 341.353L281.947 345.468V340.087L283.529 339.296V347.842Z" fill="#6F42C1"/>
<path d="M290.332 335.814L288.117 345.468L286.218 346.417L284.003 338.98L285.586 338.188L287.168 343.885L288.75 336.606L290.332 335.814Z" fill="#6F42C1"/>
<path d="M294.604 340.404L292.389 341.512L292.073 343.252L290.49 344.044L292.705 334.39L294.446 333.599L296.503 340.879L294.921 341.67L294.604 340.404ZM294.288 339.138L293.497 336.447L292.705 339.929L294.288 339.138Z" fill="#6F42C1"/>
<path d="M298.56 338.346L300.458 337.397V338.979L297.136 340.72V332.333L298.56 331.542V338.346Z" fill="#6F42C1"/>
<path d="M302.515 329.484V337.872L301.091 338.663V330.275L302.515 329.484Z" fill="#6F42C1"/>
<path d="M307.262 327.585C307.736 327.743 308.053 328.06 308.369 328.535C308.686 329.009 308.686 329.642 308.686 330.434C308.686 331.225 308.527 332.016 308.369 332.808C308.053 333.599 307.736 334.232 307.262 334.865C306.787 335.498 306.312 335.973 305.679 336.289L303.464 337.397V329.009L305.679 327.902C306.312 327.427 306.787 327.427 307.262 327.585ZM306.787 333.124C307.103 332.491 307.262 331.858 307.262 331.067C307.262 330.275 307.103 329.801 306.787 329.484C306.471 329.168 306.154 329.168 305.521 329.484L304.888 329.801V334.707L305.521 334.39C306.154 334.074 306.471 333.757 306.787 333.124Z" fill="#6F42C1"/>
<path d="M315.014 326.794C314.856 327.269 314.698 327.744 314.382 328.06C314.065 328.535 313.749 328.851 313.274 329.01L312.483 329.484V332.491L311.059 333.282V325.053L313.274 323.945C313.749 323.787 314.065 323.629 314.382 323.629C314.698 323.629 314.856 323.945 315.014 324.262C315.173 324.578 315.173 325.053 315.173 325.528C315.331 325.844 315.173 326.319 315.014 326.794ZM313.749 326.952C313.907 326.636 313.907 326.477 313.907 326.161C313.907 325.844 313.907 325.686 313.749 325.528C313.59 325.37 313.432 325.37 313.116 325.528L312.325 325.844V327.902L313.116 327.585C313.432 327.427 313.59 327.269 313.749 326.952Z" fill="#6F42C1"/>
<path d="M318.812 329.168L317.704 326.636L317.388 326.794V329.801L316.122 330.434V322.363L318.337 321.255C318.812 321.097 319.128 320.939 319.445 321.097C319.761 321.097 319.919 321.413 320.077 321.73C320.236 322.046 320.236 322.363 320.236 322.838C320.236 323.312 320.077 323.945 319.919 324.42C319.761 324.895 319.445 325.37 318.97 325.844L320.236 328.376L318.812 329.168ZM317.229 325.37L318.021 324.895C318.337 324.737 318.495 324.578 318.495 324.42C318.653 324.104 318.653 323.945 318.653 323.629C318.653 323.312 318.653 323.154 318.495 322.996C318.337 322.838 318.179 322.838 318.021 322.996L317.229 323.471V325.37Z" fill="#6F42C1"/>
<path d="M322.292 319.198V327.269L321.027 327.902V319.831L322.292 319.198Z" fill="#6F42C1"/>
<path d="M328.147 316.191L326.248 325.053L324.666 325.844L322.767 318.881L324.191 318.09L325.457 323.471L326.723 316.824L328.147 316.191Z" fill="#6F42C1"/>
<path d="M331.944 320.78L330.045 321.73L329.729 323.312L328.463 323.945L330.362 315.083L331.786 314.292L333.684 321.255L332.418 321.888L331.944 320.78ZM331.627 319.356L330.995 316.824L330.362 319.989L331.627 319.356Z" fill="#6F42C1"/>
<path d="M337.798 311.127V312.709L336.532 313.342V319.672L335.266 320.305V313.975L333.842 314.608V313.026L337.798 311.127Z" fill="#6F42C1"/>
<path d="M339.538 311.76V313.342L341.121 312.551V313.975L339.538 314.767V316.507L341.437 315.558V317.14L338.431 318.723V310.969L341.437 309.386V310.969L339.538 311.76Z" fill="#6F42C1"/>
<path d="M346.5 314.292L344.918 311.76V315.083L343.652 315.716V307.962L344.918 307.329V310.652L346.5 306.379L347.924 305.588L346.025 310.336L347.924 313.184L346.5 314.292Z" fill="#6F42C1"/>
<path d="M349.664 306.537V308.12L351.247 307.329V308.753L349.664 309.544V311.285L351.405 310.335V311.76L348.399 313.342V305.746L351.405 304.164V305.588L349.664 306.537Z" fill="#6F42C1"/>
<path d="M356.31 301.632L354.727 307.487V310.019L353.62 310.652V308.12L352.038 303.847L353.303 303.214L354.253 305.904L355.202 302.265L356.31 301.632Z" fill="#6F42C1"/>
</g>
<path d="M356.784 402.439C356.31 402.439 355.518 402.281 355.36 402.439C355.202 402.597 355.044 403.23 355.202 403.864C355.36 404.497 355.677 405.604 356.151 406.079C356.626 406.554 357.575 406.87 357.892 407.503C358.208 408.136 358.683 408.928 358.841 409.561C358.841 410.194 359.316 411.301 360.265 411.776C361.214 412.093 363.429 411.618 363.429 411.143C363.429 410.827 363.588 409.402 363.429 409.086C363.271 408.769 362.005 406.87 362.005 406.87L356.784 402.439Z" fill="#2E3958"/>
<path d="M338.747 405.129C339.538 405.604 339.697 405.762 339.697 406.079C339.697 406.395 340.013 407.503 339.855 407.82C339.697 408.136 337.956 409.086 336.849 408.769C335.583 408.453 334.475 407.503 334.317 407.345C334.159 407.028 334.001 406.87 334.001 406.87C334.001 406.87 333.21 406.554 332.419 406.395C331.627 406.237 329.887 405.288 329.887 405.288C329.887 405.288 329.096 404.813 328.621 403.863C328.147 402.914 328.463 402.281 328.621 402.123C328.779 401.806 331.153 401.964 331.153 401.964L338.747 405.129Z" fill="#2E3958"/>
<path d="M362.005 404.022L363.113 407.345C363.113 407.345 363.588 409.086 363.429 409.561C363.271 410.035 362.322 410.51 360.898 410.51C359.316 410.51 358.683 407.662 358.683 407.662C358.683 407.662 356.31 405.604 355.993 405.288C355.677 404.971 355.36 403.389 355.518 403.072C355.518 402.597 356.784 401.806 356.784 401.806L358.208 401.648L360.74 402.597L362.005 404.022Z" fill="#CFD6D6"/>
<path d="M337.956 400.699C337.956 401.965 338.273 403.231 338.905 404.022C339.38 404.813 339.38 405.763 339.38 406.079C339.38 406.396 337.956 407.503 336.532 407.029C335.108 406.554 333.21 405.446 333.21 405.446C333.21 405.446 330.362 404.813 329.729 404.338C329.096 403.864 328.779 403.389 328.621 402.598C328.305 401.806 330.52 400.54 330.52 400.54C330.52 400.54 333.368 400.699 333.684 400.699C333.842 400.699 334.634 399.907 334.634 399.907L336.058 398.325L337.956 400.699Z" fill="#CFD6D6"/>
<path d="M357.259 401.806C357.101 402.123 356.942 403.23 357.417 404.18C357.892 405.129 358.208 405.604 358.525 406.237C358.841 406.87 360.107 407.345 361.056 407.503C362.005 407.662 362.638 407.345 362.638 406.87C362.638 406.396 362.005 404.971 361.689 403.863C361.373 402.914 360.265 402.123 360.265 402.123L357.259 401.806Z" fill="#AAC6F4"/>
<path d="M332.577 401.806C332.577 401.806 332.735 403.231 333.526 403.547C334.317 404.022 335.583 404.18 336.69 404.338C337.798 404.497 338.431 404.18 338.431 403.705C338.431 403.231 338.273 401.648 338.273 401.648L337.956 400.54C337.956 400.54 335.266 399.907 334.95 400.065C334.792 400.224 333.368 400.698 333.051 400.857C332.735 401.015 332.577 401.806 332.577 401.806Z" fill="#AAC6F4"/>
<path d="M357.734 364.616C358.683 366.99 358.999 369.206 358.841 371.105C358.683 373.004 358.525 376.327 358.525 376.327C358.525 376.327 358.683 385.031 358.841 386.139C358.999 387.247 362.955 403.072 362.638 404.655C361.531 406.395 358.841 406.079 358.208 405.762C357.575 405.446 356.468 404.496 356.31 403.863C355.993 403.23 349.348 383.29 349.032 382.183C348.715 381.075 346.5 373.637 346.5 371.421C346.342 369.206 349.823 360.027 349.823 360.027L357.734 364.616Z" fill="#454F6B"/>
<path d="M355.202 366.99C354.886 370.63 352.354 373.637 350.614 374.27C348.873 374.903 346.025 378.068 346.025 378.068C346.025 378.068 340.646 384.082 340.329 384.873C340.171 385.823 339.538 401.49 338.589 402.756C337.798 403.863 336.532 403.863 334.95 403.389C333.368 402.914 332.735 402.281 332.577 401.648C332.418 400.857 332.102 381.866 332.26 380.125C332.577 378.385 338.905 366.674 339.538 365.566C340.329 364.458 355.202 366.99 355.202 366.99Z" fill="#454F6B"/>
<path d="M333.684 403.705H334.159C334.159 403.389 333.684 396.426 333.368 394.368C333.051 392.311 333.051 385.981 333.368 384.873C333.526 383.765 337.64 374.428 340.646 368.731L340.329 368.573C337.165 374.428 333.21 383.765 333.051 384.873C332.735 385.981 332.735 392.628 333.051 394.527C333.368 396.426 333.684 403.547 333.684 403.705Z" fill="#4F5A7A"/>
<path d="M357.892 406.237L358.366 406.079C358.366 405.921 352.196 388.196 351.879 386.93C351.405 385.664 349.664 375.061 349.823 371.896H349.348C349.19 375.061 350.93 385.664 351.405 387.089C351.721 388.355 357.892 406.079 357.892 406.237Z" fill="#4F5A7A"/>
<path d="M342.228 372.213C345.709 373.954 350.455 374.27 353.778 373.162C357.259 371.896 358.999 371.896 358.841 369.681C358.683 367.465 357.101 359.078 356.31 356.704C355.518 354.172 352.512 340.72 349.506 336.922C346.5 333.124 344.601 334.39 343.652 334.548C342.703 334.707 339.697 335.181 339.064 335.498C338.431 335.814 335.583 340.562 335.425 340.878C335.108 341.195 332.418 345.626 332.577 346.576C332.735 347.367 337.64 357.495 337.64 357.495C337.64 357.495 339.538 363.351 339.38 364.775C339.222 366.041 338.114 369.048 337.798 369.522C337.482 369.681 342.228 372.213 342.228 372.213Z" fill="#006837"/>
<path d="M336.058 340.404C335.741 340.245 334.475 340.087 334.475 340.087C334.475 340.087 332.577 341.67 331.944 341.67C331.311 341.67 330.678 341.511 330.678 341.511L328.779 339.296L328.463 338.821C328.463 338.821 327.355 338.979 327.355 338.505C327.355 338.03 327.514 336.289 327.514 336.289C327.514 336.289 326.564 335.656 326.406 334.865C326.248 334.074 325.615 332.174 325.615 331.7C325.773 331.225 327.197 327.902 330.52 329.009C333.842 330.117 339.064 334.865 339.064 334.865C339.064 334.865 340.804 335.34 340.804 335.498C340.804 335.656 340.171 336.447 338.589 337.397C336.849 338.346 336.69 338.663 336.69 338.663L336.058 340.404Z" fill="url(#paint0_linear_398_18)"/>
<path d="M334.95 336.448C334.95 336.448 335.741 336.764 336.058 336.131C336.374 335.656 336.374 334.232 336.058 333.599C335.741 332.966 334.634 332.808 334.634 333.915C334.475 335.181 334.792 336.131 334.95 336.448Z" fill="url(#paint1_linear_398_18)"/>
<path d="M325.299 360.502C325.299 360.66 325.773 360.818 326.09 360.977C326.248 361.135 326.881 360.818 326.881 360.818C326.881 360.818 329.412 361.135 329.887 361.293C329.887 361.293 330.045 361.293 330.203 361.451C331.311 361.926 334.001 362.876 334.159 363.034C334.475 363.192 337.64 363.509 338.114 362.559C338.589 361.61 338.905 357.97 339.064 353.064L334.95 350.69C334.95 350.69 334.159 350.848 333.842 352.273C333.684 352.747 333.842 353.697 334.001 354.805C334.159 356.704 334.475 358.761 334.317 358.919C334.001 358.919 331.944 358.761 331.469 358.603H331.311C331.153 358.445 330.045 357.653 329.887 357.495C329.729 357.337 327.988 356.704 327.988 356.704L326.248 357.02L326.09 357.97V358.761L325.773 358.919L325.457 359.711L325.615 360.344C325.457 360.027 325.299 360.502 325.299 360.502Z" fill="url(#paint2_linear_398_18)"/>
<path d="M325.299 360.502C325.299 360.66 325.773 360.818 326.09 360.977C326.248 361.135 326.881 360.818 326.881 360.818C326.881 360.818 329.412 361.135 329.887 361.293C329.887 361.293 330.045 361.293 330.203 361.451C330.045 361.135 330.045 360.66 330.203 360.344C330.362 359.869 330.52 359.552 330.836 359.078C330.995 358.919 330.995 358.761 331.311 358.603H331.153C330.995 358.445 329.887 357.653 329.729 357.495C329.571 357.337 327.83 356.704 327.83 356.704L326.09 357.02L325.932 357.97V358.761L325.615 358.919L325.299 359.711L325.457 360.344C325.457 360.027 325.299 360.502 325.299 360.502Z" fill="#131313"/>
<path d="M323.875 353.539C323.875 353.697 324.349 353.697 324.349 353.697L324.191 353.855C324.191 353.855 324.033 354.172 324.191 354.33C324.191 354.488 324.508 354.647 324.508 354.488C324.666 354.488 325.457 353.855 325.457 353.855L326.406 353.697C326.406 353.697 327.197 353.697 327.355 353.855C327.514 354.014 327.514 354.33 327.514 354.33C327.514 354.33 327.514 354.488 327.355 354.647C327.197 354.647 326.406 354.488 326.09 354.488C325.773 354.488 325.457 354.963 325.457 354.963C325.457 354.963 325.773 355.28 325.931 355.438C326.09 355.596 327.197 355.754 327.197 355.754C327.197 355.754 328.463 356.071 329.254 355.913C330.045 355.754 330.52 355.596 330.836 355.438C330.995 355.438 331.153 355.28 331.627 355.121C332.102 354.963 332.735 354.805 333.368 354.647C333.684 354.647 334.001 354.488 334.317 354.488C334.317 354.488 334.634 351.798 334.317 351.798C334.159 351.798 333.842 351.956 333.21 352.114C332.418 352.273 331.469 352.589 331.153 352.747H330.994C330.836 352.906 329.887 352.431 329.254 352.431C328.779 352.273 326.564 351.481 326.564 351.481L324.349 351.798C324.349 351.798 324.033 352.114 324.033 352.273C324.033 352.431 324.349 352.589 324.349 352.589L323.4 353.064C324.033 353.064 323.716 353.38 323.875 353.539Z" fill="url(#paint3_linear_398_18)"/>
<path d="M323.875 353.539C323.875 353.697 324.349 353.697 324.349 353.697L324.191 353.855C324.191 353.855 324.033 354.172 324.191 354.33C324.191 354.488 324.508 354.647 324.508 354.488C324.666 354.488 325.457 353.855 325.457 353.855L326.406 353.697C326.406 353.697 327.197 353.697 327.355 353.855C327.514 354.014 327.514 354.33 327.514 354.33C327.514 354.33 327.514 354.488 327.355 354.647C327.197 354.647 326.406 354.488 326.09 354.488C325.773 354.488 325.457 354.963 325.457 354.963C325.457 354.963 325.773 355.28 325.932 355.438C326.09 355.596 327.197 355.754 327.197 355.754C327.197 355.754 328.463 356.071 329.254 355.913C330.045 355.754 330.52 355.596 330.836 355.438C330.995 355.438 331.153 355.28 331.627 355.121C331.627 354.963 331.786 354.805 331.786 354.647C331.786 354.014 331.786 353.539 331.469 352.906C331.469 352.906 331.469 352.747 331.311 352.747H331.153C330.995 352.906 330.045 352.431 329.412 352.431C328.938 352.273 326.723 351.481 326.723 351.481L324.508 351.798C324.508 351.798 324.191 352.114 324.191 352.273C324.191 352.431 324.508 352.589 324.508 352.589L323.558 353.064C324.033 353.064 323.716 353.38 323.875 353.539Z" fill="#131313"/>
<path d="M330.994 334.074C331.469 334.548 332.735 334.707 332.735 334.707L333.526 335.656L334.159 335.181L334.634 334.074C334.634 334.074 335.741 333.599 336.216 334.074C336.69 334.548 336.849 335.656 336.849 335.656C336.849 335.656 338.114 335.656 338.431 335.498C338.747 335.34 339.222 334.865 339.064 334.548C339.064 334.232 338.273 332.966 338.114 332.175C337.956 331.225 338.431 329.484 336.69 328.06C336.69 328.06 335.583 326.794 333.526 326.478C331.469 326.161 328.463 326.319 327.355 327.427C326.248 328.693 325.457 330.75 325.773 331.858C326.09 332.966 328.147 331.542 328.938 331.858C329.887 332.175 330.362 333.124 330.362 333.124L330.994 334.074Z" fill="#B2686B"/>
<path d="M336.216 344.518C337.64 344.993 339.222 345.943 339.855 348.158C340.488 350.374 340.646 356.546 340.171 357.495C339.855 358.445 333.21 358.128 333.051 357.02C332.893 355.754 331.944 346.892 332.418 345.943C332.735 344.993 336.216 344.518 336.216 344.518Z" fill="#006837"/>
<path d="M325.457 332.491C325.615 333.441 325.932 334.39 326.406 335.181C326.406 335.34 326.564 335.498 326.564 335.656C326.723 336.131 326.881 336.447 327.039 336.922C327.039 337.08 327.039 337.08 327.039 337.239C327.039 337.397 327.039 337.555 327.039 337.872C327.197 338.505 327.672 339.138 328.305 339.454C328.779 339.771 329.096 340.087 329.412 340.562C330.045 341.037 330.52 341.828 331.311 341.828C331.944 341.828 332.577 341.512 333.051 341.195C333.684 340.878 334.475 340.72 334.792 341.195C335.741 340.878 336.69 340.404 337.007 339.454C337.323 338.979 337.323 338.346 337.64 337.872C337.956 337.397 338.431 337.08 338.905 336.764C339.538 336.289 339.855 335.656 340.171 335.023C340.013 334.707 339.855 334.548 339.538 334.39C338.747 333.599 338.273 332.649 338.114 331.542C337.956 330.909 337.956 330.434 337.798 329.801C337.64 329.168 337.323 328.693 337.165 328.06C336.849 327.427 336.374 327.11 335.899 326.636C335.266 326.161 334.475 325.686 333.526 325.528C332.735 325.37 331.944 325.37 331.153 325.37C329.571 325.528 327.83 325.686 326.723 326.952C326.564 327.269 326.406 327.427 326.09 327.743C325.773 328.376 325.457 329.009 325.299 329.642C325.457 330.75 325.299 331.7 325.457 332.491Z" fill="#131313"/>
<path d="M326.248 335.181C326.248 335.34 326.406 335.498 326.406 335.656C326.564 336.131 326.723 336.447 326.881 336.922C326.881 337.08 326.881 337.08 326.881 337.239C327.039 337.239 327.039 337.239 327.197 337.397C327.514 337.555 327.672 337.713 327.988 337.713C328.305 337.713 328.621 337.555 328.938 337.397C329.412 337.08 329.729 336.131 329.412 335.656C329.254 335.498 329.096 335.34 328.779 335.34C328.463 335.34 328.305 335.34 327.988 335.498C327.672 335.498 327.355 335.656 326.881 335.656C326.881 335.34 326.564 335.34 326.248 335.181C326.406 335.181 326.406 335.181 326.248 335.181Z" fill="url(#paint4_linear_398_18)"/>
</g>
<defs>
<linearGradient id="paint0_linear_398_18" x1="341.106" y1="335.11" x2="325.863" y2="335.11" gradientUnits="userSpaceOnUse">
<stop stop-color="#FFDBA7"/>
<stop offset="1" stop-color="#FFC5A4"/>
</linearGradient>
<linearGradient id="paint1_linear_398_18" x1="336.345" y1="334.879" x2="334.601" y2="334.879" gradientUnits="userSpaceOnUse">
<stop stop-color="#FFDBA7"/>
<stop offset="1" stop-color="#FFC5A4"/>
</linearGradient>
<linearGradient id="paint2_linear_398_18" x1="338.962" y1="356.923" x2="325.307" y2="356.923" gradientUnits="userSpaceOnUse">
<stop stop-color="#FFDBA7"/>
<stop offset="1" stop-color="#FFC5A4"/>
</linearGradient>
<linearGradient id="paint3_linear_398_18" x1="334.892" y1="353.808" x2="323.816" y2="353.808" gradientUnits="userSpaceOnUse">
<stop stop-color="#FFDBA7"/>
<stop offset="1" stop-color="#FFC5A4"/>
</linearGradient>
<linearGradient id="paint4_linear_398_18" x1="329.731" y1="336.397" x2="326.325" y2="336.397" gradientUnits="userSpaceOnUse">
<stop stop-color="#FFDBA7"/>
<stop offset="1" stop-color="#FFC5A4"/>
</linearGradient>
<clipPath id="clip0_398_18">
<rect width="462" height="464" fill="white"/>
</clipPath>
</defs>
</svg>
