<svg width="528" height="99" viewBox="0 0 528 99" fill="none" xmlns="http://www.w3.org/2000/svg">
<path d="M478.044 0.765015C454.766 0.765015 435.409 16.9367 430.509 38.7439H0V60.5511H430.509C435.409 82.3583 455.011 98.53 478.289 98.53C505.241 98.53 527.294 76.4777 527.294 49.525C527.048 22.8173 505.241 0.765015 478.044 0.765015ZM478.044 76.7227C463.097 76.7227 450.846 64.4715 450.846 49.525C450.846 34.5785 463.097 22.3272 478.044 22.3272C492.99 22.3272 505.241 34.5785 505.241 49.525C505.241 64.7165 493.235 76.7227 478.044 76.7227Z" fill="url(#paint0_linear_258_6090)" fill-opacity="0.15"/>
<defs>
<linearGradient id="paint0_linear_258_6090" x1="263.647" y1="0.765015" x2="263.647" y2="98.53" gradientUnits="userSpaceOnUse">
<stop stop-color="#6F42C1"/>
<stop offset="1" stop-color="#8815AD"/>
</linearGradient>
</defs>
</svg>


