<svg width="788" height="196" viewBox="0 0 788 196" fill="none" xmlns="http://www.w3.org/2000/svg">
<path d="M738.995 0C715.718 0 696.361 16.1716 691.215 37.9789H0V59.7861H691.215C696.116 81.5933 715.718 97.7649 738.995 97.7649C765.948 97.7649 788 75.7127 788 48.7599C788 21.8072 765.948 0 738.995 0ZM738.995 75.9577C724.049 75.9577 711.797 63.7065 711.797 48.7599C711.797 33.8134 724.049 21.5622 738.995 21.5622C753.942 21.5622 766.193 33.8134 766.193 48.7599C766.193 63.9515 753.942 75.9577 738.995 75.9577Z" fill="url(#paint0_linear_258_6086)" fill-opacity="0.15"/>
<path d="M478.044 97.765C454.766 97.765 435.409 113.937 430.509 135.744H0V157.551H430.509C435.409 179.358 455.011 195.53 478.289 195.53C505.241 195.53 527.294 173.478 527.294 146.525C527.048 119.817 505.241 97.765 478.044 97.765ZM478.044 173.723C463.097 173.723 450.846 161.472 450.846 146.525C450.846 131.578 463.097 119.327 478.044 119.327C492.99 119.327 505.241 131.578 505.241 146.525C505.241 161.717 493.235 173.723 478.044 173.723Z" fill="url(#paint1_linear_258_6086)" fill-opacity="0.15"/>
<defs>
<linearGradient id="paint0_linear_258_6086" x1="394" y1="0" x2="394" y2="97.7649" gradientUnits="userSpaceOnUse">
<stop stop-color="#6F42C1"/>
<stop offset="1" stop-color="#8815AD"/>
</linearGradient>
<linearGradient id="paint1_linear_258_6086" x1="263.647" y1="97.765" x2="263.647" y2="195.53" gradientUnits="userSpaceOnUse">
<stop stop-color="#6F42C1"/>
<stop offset="1" stop-color="#8815AD"/>
</linearGradient>
</defs>
</svg>
