<svg width="531" height="371" viewBox="0 0 531 371" fill="none" xmlns="http://www.w3.org/2000/svg">
<path d="M326.094 119.876L238.482 170.477L239.66 172.517L327.272 121.916L326.094 119.876Z" fill="#8815AD"/>
<path d="M300.193 135.805L505.955 254.569L437.867 293.979L444.719 297.298L443.648 299.44L432.728 294.086L501.137 254.569L299.015 137.84L300.193 135.805Z" fill="#8815AD"/>
<path d="M119.374 285.09C118.625 285.09 117.982 285.09 117.233 285.09C85.3303 284.769 55.6756 277.272 33.622 263.993C11.6754 250.821 -0.31488 233.258 0.00628899 214.838C0.113345 205.521 3.4321 196.526 9.64137 187.958C16.0648 179.177 25.2716 171.466 37.1549 164.827C60.172 151.976 90.3619 145.122 122.265 145.443C154.168 145.764 183.822 153.261 205.876 166.54C227.822 179.712 239.706 197.275 239.492 215.695C239.385 225.012 236.066 234.008 229.856 242.575C223.433 251.356 214.226 259.067 202.343 265.707C179.754 278.236 150.421 285.09 119.374 285.09ZM120.017 147.906C90.576 147.906 61.1355 154.225 38.2254 166.969C15.4224 179.712 2.6827 196.74 2.36153 214.838C2.04036 232.401 13.6025 249.107 34.6926 261.851C57.6027 275.666 88.3279 282.627 119.16 282.627C148.601 282.627 178.041 276.309 200.951 263.565C223.754 250.821 236.494 233.793 236.815 215.695C237.136 198.132 225.574 181.426 204.484 168.682C181.574 154.76 150.849 147.906 120.017 147.906Z" fill="url(#paint0_linear_404_29)"/>
<path d="M119.866 275.346C177.159 275.183 223.528 248.154 223.434 214.973C223.34 181.793 176.818 155.027 119.526 155.189C62.2329 155.352 15.8642 182.382 15.9582 215.562C16.0522 248.742 62.5734 275.508 119.866 275.346Z" fill="#CB70ED"/>
<path d="M223.219 211.84C223.005 207.449 222.577 202.416 222.041 198.453C221.506 194.812 220.328 189.993 219.365 186.459C218.294 182.818 216.689 178.106 215.19 174.679C213.263 170.396 210.372 164.827 208.017 160.757C206.09 157.437 203.092 153.261 200.63 150.369C197.954 147.05 193.993 142.873 190.888 139.875C187.89 136.876 183.394 133.556 180.075 130.986C178.041 129.487 175.258 127.666 173.117 126.381C169.905 124.453 165.409 122.097 161.983 120.598C160.056 119.741 157.486 118.67 155.559 117.921C153.846 117.278 151.491 116.529 149.778 115.993C148.279 115.565 146.245 114.922 144.747 114.601C143.248 114.28 141.321 113.744 139.822 113.53C138.323 113.209 136.289 112.888 134.79 112.673C133.399 112.459 131.472 112.245 129.973 112.031C127.189 111.817 123.442 111.602 120.659 111.495C119.267 111.495 117.447 111.495 116.055 111.602C114.664 111.602 112.844 111.817 111.452 111.817C110.06 111.924 108.133 112.138 106.742 112.245C105.35 112.459 103.423 112.673 101.924 112.995C100.425 113.209 98.4982 113.637 96.9994 113.958C95.5006 114.28 93.5736 114.815 92.0748 115.136C90.469 115.565 88.3279 116.207 86.722 116.743C85.0091 117.278 82.7609 118.135 81.048 118.778C79.3351 119.42 77.194 120.384 75.5881 121.134C73.5541 122.097 70.9847 123.382 69.0577 124.453C67.3448 125.417 64.9896 126.809 63.3837 127.88C61.1355 129.38 58.245 131.414 56.1039 133.021C52.6781 135.591 48.5029 139.446 45.5053 142.445C43.043 144.801 40.0454 148.335 38.0113 151.012C35.442 154.332 32.3373 158.83 30.1962 162.471C27.841 166.54 25.1646 172.216 23.3446 176.607C22.274 178.963 21.0964 182.283 20.4541 184.853C19.1694 189.565 17.6706 195.883 17.0283 200.702C16.493 204.343 16.2789 208.948 16.1718 212.911C17.1353 197.811 27.7339 183.032 47.9676 171.681C89.2914 148.656 154.917 149.299 194.635 173.18C212.406 184.317 221.934 197.918 223.219 211.84ZM179.968 131.736C179.968 131.736 179.968 131.629 179.968 131.736C179.968 131.629 179.968 131.736 179.968 131.736Z" fill="url(#paint1_linear_404_29)"/>
<path d="M222.577 202.416C222.148 198.667 221.292 193.634 220.221 189.886C218.937 185.281 216.903 179.177 215.083 174.679C213.584 171.038 211.122 166.326 209.195 162.899C207.053 159.044 203.628 154.118 200.844 150.691C198.061 147.264 193.993 142.98 190.888 139.767C189.068 137.947 186.392 135.698 184.357 134.092C181.039 131.628 176.542 128.523 173.117 126.274C172.902 126.167 172.795 126.06 172.581 125.953C172.581 125.953 172.474 125.953 172.474 125.845C170.547 124.775 168.192 123.489 166.372 122.526C164.766 121.669 162.518 120.705 160.805 119.955C159.092 119.206 156.737 118.242 154.917 117.599C153.311 116.957 151.063 116.207 149.457 115.779C147.958 115.351 145.924 114.708 144.425 114.387C142.927 114.065 141 113.637 139.501 113.316C138.002 112.995 136.075 112.673 134.683 112.459C133.292 112.245 131.365 112.031 129.973 111.924C127.189 111.709 123.442 111.495 120.659 111.388C119.267 111.388 117.447 111.388 116.055 111.495C114.664 111.495 112.844 111.709 111.452 111.709C110.06 111.817 108.133 112.031 106.742 112.245C105.243 112.459 103.316 112.673 101.817 112.995C100.318 113.209 98.3912 113.637 96.8924 113.958C95.3936 114.28 93.4666 114.815 91.9678 115.243C90.2549 115.672 88.0067 116.421 86.4008 116.957C84.4738 117.599 82.0115 118.563 80.1916 119.313C76.7658 120.705 72.3764 122.847 69.1648 124.667C66.8095 125.953 63.8119 127.88 61.6708 129.272C59.9579 130.343 57.8168 132.057 56.2109 133.235C53.5345 135.162 50.2158 138.054 47.8605 140.41C44.97 143.194 41.3301 147.157 38.8678 150.262C36.0843 153.796 32.5515 158.83 30.1962 162.792C26.3422 169.432 24.3081 174.358 23.0234 177.571C21.4176 181.533 19.9188 186.995 18.8482 191.064C17.5636 195.776 16.9212 202.416 16.2789 207.235C15.9577 209.698 16.0648 213.018 15.9577 215.588C15.9577 230.474 25.5928 245.466 44.8629 257.032C84.4738 280.914 150.206 281.556 191.53 258.531C212.835 246.644 223.433 230.795 223.433 215.052C223.326 211.197 223.112 206.164 222.577 202.416Z" fill="url(#paint2_linear_404_29)"/>
<g style="mix-blend-mode:screen">
<path d="M181.574 139.446C188.961 150.155 184.25 159.686 171.083 160.864C157.808 162.042 141.107 154.332 133.72 143.623C126.333 132.914 131.043 123.383 144.211 122.205C157.379 121.134 174.08 128.737 181.574 139.446Z" fill="url(#paint3_linear_404_29)"/>
</g>
<path d="M167.55 188.815C167.55 189.137 167.55 189.458 167.657 189.672C167.657 189.779 167.764 189.886 167.764 189.886L167.871 189.993C168.085 190.207 168.62 190.422 169.048 190.529C169.263 190.529 169.477 190.529 169.691 190.529H169.798C170.012 190.529 170.226 190.422 170.44 190.315C170.44 190.315 170.547 190.315 170.547 190.207L170.654 190.1C171.618 189.458 172.795 188.387 173.331 187.316C173.438 187.209 173.438 186.995 173.545 186.888C173.545 186.673 173.652 186.566 173.652 186.352V186.245C173.652 186.031 173.652 185.924 173.652 185.817C173.652 185.71 173.652 185.603 173.652 185.495C173.652 185.388 173.652 185.388 173.652 185.281C173.652 185.067 173.545 184.853 173.545 184.639C173.438 184.21 173.224 183.889 173.01 183.675C172.795 183.461 172.581 183.461 172.26 183.461C171.618 183.568 170.654 184.103 169.048 185.174C168.406 185.603 167.764 186.459 167.55 187.102C167.55 187.102 167.55 187.102 167.55 187.209C167.55 187.316 167.55 187.423 167.55 187.53C167.55 187.637 167.55 187.851 167.55 188.066C167.55 188.387 167.55 188.601 167.55 188.815Z" fill="#FF553D"/>
<path d="M168.834 188.28V188.494C168.834 188.922 168.941 189.458 169.048 189.779C169.156 190.1 169.37 190.314 169.584 190.422C169.798 190.529 170.226 190.529 170.547 190.314C170.547 190.314 170.654 190.314 170.761 190.207C171.939 189.565 172.902 188.494 173.438 187.423C173.545 187.316 173.545 187.102 173.652 186.995C173.759 186.78 173.759 186.673 173.759 186.459V186.352C173.759 186.138 173.759 186.031 173.759 185.924C173.759 185.817 173.759 185.71 173.759 185.602C173.759 185.495 173.759 185.495 173.759 185.388C173.759 185.174 173.652 184.96 173.652 184.746C173.545 184.424 173.438 184.317 173.224 184.317C173.117 184.317 173.01 184.317 172.902 184.317C172.367 184.424 171.404 184.853 170.761 185.388C170.012 186.031 168.834 186.78 168.834 188.28Z" fill="#FF3717"/>
<path d="M44.97 202.951L140.357 258.639C140.357 258.639 149.136 263.029 157.808 263.672C166.479 264.207 173.973 260.352 179.219 257.996C184.465 255.64 196.562 248.572 199.131 246.323C201.594 243.967 208.552 239.041 201.701 232.294C194.849 225.655 83.2962 167.718 74.3035 167.29C65.3108 166.969 37.6902 190.1 37.0478 194.063C36.4055 197.811 39.8313 199.953 44.97 202.951Z" fill="#4A135E"/>
<path d="M130.187 244.396L137.681 239.684L155.452 250.928L159.199 212.054L53.6415 174.251L52.3569 195.027L55.5686 199.739L63.5978 194.17L98.177 217.623L130.187 244.396Z" fill="#292929"/>
<path d="M155.131 252.32L153.418 254.462L145.282 243.86L146.888 241.718L155.131 252.32Z" fill="#FFCC00"/>
<path d="M154.382 252.749L152.669 254.997L144.425 244.395L146.138 242.146L154.382 252.749Z" fill="#FFCC00"/>
<path d="M141.749 230.367L133.506 235.079L145.817 256.283L154.061 251.464L151.384 236.899L141.749 230.367Z" fill="#333333"/>
<path d="M148.279 250.714C148.279 256.176 144.425 258.424 139.608 255.64C134.79 252.856 130.936 246.216 130.936 240.647C130.936 235.186 134.79 232.937 139.608 235.721C144.425 238.505 148.279 245.252 148.279 250.714Z" fill="#A89560"/>
<path d="M82.0115 203.058C82.0115 208.52 78.1575 210.769 73.34 207.985C68.5224 205.2 64.6684 198.561 64.6684 192.992C64.6684 187.53 68.5224 185.281 73.34 188.066C78.0505 190.85 82.0115 197.49 82.0115 203.058Z" fill="#333333"/>
<path d="M67.3448 187.316L59.1014 192.135L71.4129 213.232L79.5492 208.52L76.9799 193.956L67.3448 187.316Z" fill="#333333"/>
<path d="M201.701 234.222L201.272 234.757H201.701H202.022L201.701 235.828L200.095 236.042H199.988L193.564 232.508L193.243 232.294L192.28 231.759V227.047C192.28 220.621 187.783 212.804 182.109 209.484C176.542 206.271 171.939 208.841 171.939 215.267V219.979L117.983 188.815L117.768 188.708V183.996C117.768 177.571 113.272 169.753 107.598 166.433C102.031 163.22 97.4277 165.791 97.4277 172.216V175.322L97.3206 175.215C97.3206 175.215 96.8924 174.893 96.143 174.465C93.0384 172.43 84.4738 166.862 83.1892 165.362C81.6904 163.542 80.5128 159.151 80.5128 159.151V158.83L81.1551 154.118L82.6539 153.261L83.2962 148.121L82.6539 146.728L84.4739 145.122L84.5809 142.338L85.7585 142.016L94.323 144.694C94.323 144.694 102.245 146.835 111.345 149.299C120.445 151.655 128.046 156.259 132.007 158.401C135.968 160.543 141.535 163.649 148.601 169.432C155.666 175.215 162.411 182.283 165.73 186.352C169.048 190.314 172.795 194.812 172.795 194.812C172.795 194.812 179.005 199.524 185.214 203.915C191.53 208.306 194.742 212.804 197.74 215.695C200.737 218.587 202.771 221.585 202.771 221.585V221.906L203.199 231.116L202.878 232.508L201.701 234.222Z" fill="#F00000"/>
<path d="M202.985 221.799L201.808 220.621L189.817 210.769C189.817 210.769 177.399 200.06 168.727 194.598C160.056 189.137 119.91 164.934 111.238 159.901C102.566 154.867 94.4301 150.691 94.4301 150.691L84.5809 145.229L84.688 142.445L85.8656 142.124L94.4301 144.801C94.4301 144.801 102.352 146.943 111.452 149.406C114.343 150.155 116.805 150.798 119.374 151.869C124.834 154.118 129.438 157.116 132.114 158.616C136.075 160.757 141.642 163.863 148.708 169.646C155.773 175.429 162.518 182.497 165.837 186.566C169.156 190.529 172.903 195.027 172.903 195.027C172.903 195.027 179.112 199.739 185.321 204.129C191.637 208.52 194.849 213.018 197.847 215.909C200.844 218.801 202.878 221.799 202.878 221.799H202.985Z" fill="#FF553D"/>
<path d="M167.871 215.909L123.657 189.351L114.45 167.933L112.201 160.757L112.63 158.187L113.165 158.294L112.737 160.757L114.878 167.718L123.978 188.922L167.336 214.946L167.764 212.161V209.805C167.764 209.698 168.513 204.344 168.406 200.381C168.299 196.847 168.299 195.027 168.299 194.705L166.907 191.278L167.443 191.064L168.941 194.598V194.705C168.941 194.705 168.941 196.526 169.048 200.488C169.155 204.344 168.513 209.591 168.406 210.019V212.375L167.871 215.909Z" fill="#DA0600"/>
<path d="M106.849 149.62C106.849 149.62 106.099 151.762 105.992 151.869C105.992 151.976 108.99 155.724 108.99 155.724L169.691 193.956L170.333 193.634C170.333 193.634 161.34 182.925 154.917 176.286C148.494 169.753 140.25 164.291 136.075 161.935C131.9 159.579 121.087 153.689 117.34 152.618C113.7 151.548 106.849 149.62 106.849 149.62Z" fill="#AE9C55"/>
<path d="M117.447 152.618L113.058 158.294L116.591 160.436L120.766 153.904L117.447 152.618Z" fill="#292929"/>
<path d="M189.71 210.876L188.212 211.304L192.28 216.016L196.669 219.55L197.74 219.443L200.737 221.906L201.808 220.728L195.491 214.945L189.71 210.876Z" fill="#F78459"/>
<path d="M202.985 222.228L201.915 224.048L201.808 228.01L203.414 231.009L202.985 222.228Z" fill="#F00000"/>
<path d="M82.7609 146.942L83.5103 147.799L92.5031 151.976L94.216 151.762L94.4301 150.691L88.3279 145.122L85.6514 144.265H84.5809L82.7609 146.942Z" fill="#F78459"/>
<path d="M97.4277 175.322C97.4277 175.322 96.9994 175 96.2501 174.572C93.1454 172.537 84.5809 166.969 83.2962 165.469C81.7974 163.649 80.6198 159.258 80.6198 159.258V158.937L85.1162 162.364L87.3644 167.718L97.4277 175.322Z" fill="#292929"/>
<path d="M81.2621 154.332L82.3327 155.51L95.7148 164.184L93.7877 161.507L86.9361 156.688L83.0821 154.439L82.7609 154.011V153.475L81.2621 154.332Z" fill="#FF553D"/>
<path d="M119.481 180.891C119.481 180.891 168.192 212.697 169.156 213.125C170.119 213.661 169.477 211.733 167.121 209.912C164.766 208.092 133.399 188.708 127.296 184.853C121.087 180.998 119.481 180.891 119.481 180.891Z" fill="#FF553D"/>
<path d="M201.487 226.619L196.241 221.264L192.28 218.373L198.489 222.87L201.487 226.619Z" fill="#F00000"/>
<path d="M188.273 231.704C191.641 229.734 191.615 223.418 188.213 217.597C184.811 211.776 179.322 208.655 175.953 210.625C172.585 212.595 172.611 218.911 176.013 224.731C179.415 230.552 184.904 233.674 188.273 231.704Z" fill="#292929"/>
<path d="M116.377 183.139C116.377 188.601 112.523 190.85 107.705 188.066C102.888 185.281 99.0335 178.642 99.0335 173.073C99.0335 167.611 102.888 165.362 107.705 168.147C112.416 170.931 116.377 177.678 116.377 183.139Z" fill="#292929"/>
<path d="M193.564 227.796V232.508L193.243 232.294L192.28 231.759V227.047C192.28 220.621 187.783 212.804 182.109 209.484C176.542 206.271 171.939 208.841 171.939 215.267V219.979L170.654 219.229V214.517C170.654 207.235 175.793 204.343 182.109 207.985C188.426 211.626 193.564 220.514 193.564 227.796Z" fill="#FF553D"/>
<path d="M119.16 184.746V189.458L118.09 188.815L117.875 188.708V183.996C117.875 177.571 113.379 169.753 107.705 166.433C102.138 163.22 97.5347 165.791 97.5347 172.216V175.322L97.4277 175.215C97.4277 175.215 96.9995 174.893 96.2501 174.465V171.359C96.2501 164.077 101.389 161.186 107.705 164.827C114.021 168.682 119.16 177.464 119.16 184.746Z" fill="#FF553D"/>
<path d="M79.2281 174.358L84.4738 170.61L92.7172 165.041L102.995 159.044L110.917 155.296L118.732 152.19L98.2841 147.157L95.1795 147.05L88.542 149.513L81.2621 152.619L68.6295 159.901L61.992 164.934L59.5297 167.183V168.361L79.2281 174.358Z" fill="#292929"/>
<path d="M117.019 152.297L116.698 152.404L110.703 154.76L108.883 155.617L102.78 158.508L92.396 164.505L84.1526 170.074L79.121 173.822L72.8047 171.895L60.0649 167.932V167.397L62.3131 165.362L68.9506 160.329L81.4762 153.047L88.7561 150.048L95.2865 147.585L96.7853 147.692H98.2841L106.849 149.834L111.987 151.012L117.019 152.297Z" fill="#37464E"/>
<path d="M202.236 228.974L201.594 233.472L201.701 234.222V234.436V234.757V235.828L198.81 240.005L193.35 244.824L180.611 252.213L170.119 256.497L161.983 258.103L159.199 256.175L159.735 254.997L164.231 243.86L192.28 227.689L202.985 221.585L202.236 228.974Z" fill="#F00000"/>
<path d="M173.01 194.812C173.01 194.812 189.817 207.128 194.421 210.876C198.917 214.517 201.165 216.98 202.022 218.908C202.878 220.836 203.092 223.299 203.092 223.299L185.856 217.195L173.01 194.812Z" fill="#FF553D"/>
<path d="M202.985 221.585L198.382 226.833L194.956 229.724L181.574 237.435L174.08 240.862L164.338 243.967L139.073 225.655L130.508 219.443L173.01 194.919C173.01 194.919 183.073 202.095 190.246 207.77C194.314 210.983 197.74 214.838 200.095 217.73C201.915 219.979 202.985 221.585 202.985 221.585Z" fill="#FF553D"/>
<path d="M202.985 221.585L198.382 226.833L194.956 229.724L181.574 237.435L174.08 240.862L164.338 243.967V244.289L163.16 243.111L149.885 234.008C149.885 234.008 135.004 224.798 126.226 219.229L126.119 219.122L125.476 216.766L127.403 218.48C127.403 218.48 133.399 222.121 139.18 225.548C143.676 228.225 147.958 230.902 149.243 231.652C150.314 232.294 151.919 233.044 153.525 233.794C156.309 234.972 159.52 236.043 161.876 236.578C165.516 237.435 172.902 237.328 175.472 237.006C178.041 236.685 192.173 229.189 193.564 228.011C194.956 226.833 199.238 221.692 199.881 219.55C200.095 218.908 200.202 218.265 200.202 217.73C201.915 219.979 202.985 221.585 202.985 221.585Z" fill="#FF382E"/>
<path d="M176.864 238.506C176.435 236.685 137.467 217.837 137.467 217.73L138.002 217.623C138.002 217.623 169.905 232.508 174.508 236.042C176.221 237.22 176.971 237.756 176.864 238.506Z" fill="#FF3717"/>
<path d="M194.635 228.867L193.993 227.368L169.37 200.167L169.798 199.953L194.1 226.725L194.635 228.867Z" fill="#FF382E"/>
<path d="M199.131 223.62C199.131 223.62 195.706 228.225 194.528 229.189C192.387 230.902 184.358 235.507 181.146 237.006C177.934 238.506 174.615 239.898 168.727 239.684C169.584 241.076 174.08 242.04 174.08 242.04L187.034 235.4L196.562 229.617L199.131 223.62Z" fill="#F00000"/>
<path d="M173.01 194.812L167.978 200.702L164.766 203.808L146.888 214.089L140.143 216.766L130.401 219.443L108.026 193.099L148.815 169.539L173.01 194.812Z" fill="#37464E"/>
<path d="M171.832 193.634L170.012 191.707L169.477 192.777C169.905 193.527 168.299 197.061 164.873 199.524C161.555 201.987 146.138 210.876 142.498 212.482C138.859 214.089 134.683 215.802 130.936 215.588C129.973 215.588 129.331 216.445 128.902 217.623L130.294 219.336L139.929 216.766L146.674 214.089L164.659 203.701L167.871 200.595L172.795 194.812L171.832 193.634Z" fill="#292929"/>
<path d="M116.698 152.404L110.703 154.76L108.99 155.617C108.454 154.975 106.099 151.976 106.099 151.976C106.099 151.869 106.742 150.37 106.849 149.834C106.849 149.727 106.849 149.727 106.849 149.727C106.849 149.727 109.204 150.37 111.987 151.119C113.593 151.548 115.306 151.976 116.698 152.404Z" fill="#566770"/>
<path d="M169.584 194.384L169.798 193.955L141.642 176.178C144.961 173.822 147.744 171.145 147.744 171.145C149.992 172.966 152.241 174.893 154.275 177.035C160.591 183.675 169.584 194.384 169.584 194.384Z" fill="#566770"/>
<path d="M168.299 191.493H168.192L161.447 189.779L146.674 199.096L144.318 205.2L129.331 213.339C129.438 213.446 129.438 213.553 129.545 213.66C129.866 213.982 130.08 214.41 130.401 214.624C130.401 214.731 130.508 214.731 130.508 214.731C130.508 214.731 130.508 214.731 130.615 214.838L130.722 214.945C130.722 214.945 130.722 215.053 130.829 215.053L130.936 215.16C130.936 215.16 130.936 215.267 131.043 215.267L131.15 215.374C131.15 215.374 131.15 215.374 131.258 215.481L131.365 215.588C131.365 215.588 131.365 215.588 131.472 215.695C131.472 215.695 131.579 215.695 131.579 215.802C131.579 215.802 131.579 215.802 131.686 215.909C131.686 215.909 131.686 215.909 131.793 216.016C131.793 216.016 131.793 216.016 131.9 216.123C131.9 216.123 131.9 216.123 132.007 216.123C132.007 216.123 132.114 216.123 132.114 216.231C132.114 216.231 132.114 216.231 132.221 216.231H132.328L132.863 216.445C134.897 216.016 136.717 215.695 137.895 215.267C137.895 215.267 140.25 214.624 143.248 213.232C146.781 211.733 151.17 209.377 155.238 206.914C163.482 201.987 165.623 200.06 165.623 200.06L169.37 196.097C169.691 195.348 169.905 194.598 169.905 193.849C169.37 192.992 168.834 192.349 168.299 191.493Z" fill="#63747D"/>
<path d="M129.009 183.782L118.09 187.316L108.454 192.885C109.953 194.812 112.63 198.132 116.912 202.63C123.978 210.126 127.832 216.98 131.686 218.694C131.793 218.801 132.007 218.801 132.328 218.908L140.143 216.766L146.888 214.089L152.883 210.662C139.287 192.135 129.009 183.782 129.009 183.782Z" fill="#1C2121"/>
<path d="M118.732 152.19L110.917 155.296L102.995 159.044L92.7172 165.041L84.4739 170.61L77.9434 175.75L108.026 193.099L116.484 189.779L126.012 184.853L138.751 177.571L143.034 174.358L148.815 169.539L136.075 161.079L118.732 152.19Z" fill="#FF553D"/>
<path d="M84.6879 142.552L77.4081 145.015L70.3424 148.013L54.0698 157.437L48.0746 161.935L44.1135 166.005L56.425 169.967L61.992 164.934L68.6294 159.901L81.2621 152.618L88.542 149.513L97.7488 146.086L84.6879 142.552Z" fill="#FF553D"/>
<path d="M164.231 244.181L163.374 254.141L163.16 255.105L163.053 255.533L161.447 257.032H162.197L161.876 258.103L160.27 258.317L151.705 256.818L151.384 256.604L150.742 256.176L150.421 255.961L149.671 251.464C149.671 245.038 145.175 237.22 139.501 233.901C133.934 230.688 129.33 233.258 129.33 239.684L130.08 244.181L76.2305 213.232L76.0164 213.125L75.267 208.627C75.267 202.202 70.7706 194.384 65.0966 191.064C59.5297 187.851 54.9263 190.422 54.9263 196.847L55.6756 199.846L55.5686 199.739C55.5686 199.739 55.1404 199.417 54.391 198.989C51.2863 196.954 45.0771 193.634 43.7924 192.135C42.2936 190.315 40.5807 184.425 40.5807 184.425V184.103L41.223 179.391L42.7218 178.535L43.3642 173.394L42.7218 172.002L43.3642 169.003L44.0065 166.005L45.1841 165.684L53.1063 168.682C53.1063 168.682 61.3496 170.396 70.5565 172.859C79.6563 175.215 87.3644 179.927 91.3254 182.069C95.2865 184.21 100.853 187.316 107.919 193.099C114.985 198.882 119.91 207.021 123.335 210.983C126.654 214.946 130.401 219.443 130.401 219.443C130.401 219.443 136.61 224.155 142.82 228.546C149.136 232.937 156.202 235.293 159.199 238.077C162.197 240.969 164.231 243.967 164.231 243.967V244.181Z" fill="#F00000"/>
<path d="M76.5517 208.627C75.4811 195.348 75.0529 192.349 68.9507 188.066C62.8485 183.675 58.245 185.496 56.318 187.209C54.2839 188.923 53.7487 192.778 53.7487 196.205C55.6757 191.279 55.2474 190.101 58.8874 189.03C62.5273 187.959 66.2743 191.279 66.2743 191.279L70.3424 194.813L73.8753 200.167L76.5517 208.627Z" fill="#FF553D"/>
<path d="M78.1575 205.629C78.1575 205.629 125.691 237.221 126.654 237.649C127.618 238.184 126.761 233.579 124.406 231.759C122.051 229.938 93.5736 213.018 87.4714 209.163C81.2621 205.307 78.1575 205.629 78.1575 205.629Z" fill="#FF553D"/>
<path d="M164.231 244.182L163.053 243.004L149.778 233.901C149.778 233.901 134.897 224.691 126.119 219.122L126.012 219.015C117.019 213.339 77.301 189.458 68.7365 184.425C60.0649 179.391 51.9286 175.215 51.9286 175.215L43.5782 168.896L44.2206 165.898L45.3982 165.577L53.3204 168.575C53.3204 168.575 61.5637 170.289 70.7706 172.752C79.8704 175.108 87.5784 179.82 91.5395 181.962C95.5006 184.103 101.068 187.209 108.133 192.992C115.199 198.775 121.408 206.164 124.727 210.234C128.046 214.196 130.508 219.336 130.508 219.336C130.722 219.444 138.002 223.406 144.211 227.69C147.53 230.046 150.742 231.973 153.418 233.687C155.773 235.186 157.807 236.578 159.199 237.97C162.197 240.862 164.231 243.86 164.231 243.86V244.182Z" fill="#FF553D"/>
<path d="M96.25 196.633L95.1795 199.739C95.1795 199.739 93.6807 205.2 93.6807 207.878C93.6807 210.662 94.2159 212.911 94.2159 212.911L93.5736 215.588L93.8948 221.05L96.25 196.633Z" fill="#F00000"/>
<path d="M96.5712 202.523C96.143 202.952 95.9288 203.701 96.143 204.237C96.3571 204.665 99.6758 206.7 99.997 206.807C100.318 206.914 100.532 205.95 100.532 205.736C100.425 205.415 96.5712 202.523 96.5712 202.523Z" fill="#6D0103"/>
<path d="M99.2476 203.915L96.9994 202.523C96.6782 202.309 96.4641 202.416 96.4641 202.844V202.951C96.4641 203.273 96.6782 203.701 96.9994 203.915L100.104 205.95C100.425 206.164 100.639 205.843 100.425 205.307C100.104 204.665 99.6758 204.237 99.2476 203.915Z" fill="#B1282F"/>
<path d="M97.3206 203.487C97.3206 203.701 97.2135 203.701 96.9994 203.594C96.8923 203.487 96.6782 203.273 96.6782 203.059C96.6782 202.844 96.7853 202.844 96.9994 202.951C97.2135 203.059 97.4276 203.273 97.3206 203.487Z" fill="#383838"/>
<path d="M72.5906 187.53C72.1624 187.959 71.9483 188.708 72.1624 189.244C72.3765 189.672 75.6952 191.707 76.0164 191.814C76.3376 191.921 76.5517 190.957 76.5517 190.743C76.4446 190.315 72.5906 187.53 72.5906 187.53Z" fill="#6D0103"/>
<path d="M75.267 188.923L73.0188 187.53C72.6976 187.316 72.4835 187.423 72.4835 187.852V187.959C72.4835 188.28 72.6976 188.708 73.0188 188.923L76.1234 190.957C76.4446 191.172 76.6587 190.85 76.4446 190.315C76.1234 189.672 75.6952 189.244 75.267 188.923Z" fill="#B1282F"/>
<path d="M73.34 188.387C73.34 188.601 73.2329 188.601 73.0188 188.494C72.9117 188.387 72.6976 188.173 72.6976 187.959C72.6976 187.744 72.8047 187.745 73.0188 187.852C73.2329 187.959 73.447 188.173 73.34 188.387Z" fill="#383838"/>
<path d="M159.199 238.077C157.807 236.792 155.773 235.4 153.418 233.794C151.705 233.044 150.206 232.401 149.136 231.652C147.851 230.902 143.462 228.225 139.073 225.548C133.292 222.121 127.296 218.48 127.296 218.48L125.369 216.766L126.012 219.122L126.119 219.229C134.79 224.691 149.778 234.008 149.778 234.008L163.053 243.111L164.231 244.289V243.967C164.231 243.86 162.197 240.862 159.199 238.077Z" fill="#FF382E"/>
<path d="M125.369 240.434L81.1551 213.875L71.9482 192.457L69.7 185.282L70.1282 182.711L70.6635 182.819L70.2353 185.282L72.3764 192.243L81.4762 213.447L124.834 239.47L125.262 236.685V234.329C125.262 234.222 126.012 228.868 125.905 224.905C125.798 221.371 125.798 219.551 125.798 219.23L124.406 215.803L124.941 215.588L126.44 219.122V219.23C126.44 219.23 126.44 221.05 126.547 225.012C126.654 228.868 126.012 234.115 125.905 234.544V236.9L125.369 240.434Z" fill="#DA0600"/>
<path d="M64.3472 174.251C64.3472 174.251 63.5978 176.393 63.4908 176.5C63.4908 176.607 66.4884 180.355 66.4884 180.355L127.189 218.587L127.832 218.265C127.832 218.265 120.552 206.485 114.236 199.953C107.812 193.42 99.5688 187.959 95.3936 185.603C91.2184 183.247 80.4057 177.357 76.6587 176.286C72.9118 175.108 64.3472 174.251 64.3472 174.251Z" fill="#292929"/>
<path d="M67.0236 179.713C65.9531 178.428 64.7755 176.928 64.3472 176.393C64.4543 176.072 64.6684 175.536 64.7755 175.108C66.8095 175.322 73.34 176.072 76.4446 177.036C80.1916 178.214 91.4325 184.318 95.0724 186.352C99.997 189.137 107.812 194.491 113.7 200.596C118.518 205.522 123.764 213.447 126.119 216.981L67.0236 179.713Z" fill="#37464E"/>
<path d="M76.6587 176.179L70.4495 182.818L73.9823 185.067L79.9775 177.464L76.6587 176.179Z" fill="#292929"/>
<path d="M98.07 187.745L95.1795 197.704L97.5347 199.203L99.997 188.708L98.07 187.745Z" fill="#292929"/>
<path d="M149.778 234.008L148.279 234.329L152.241 239.148L156.737 242.575H157.807L162.09 244.181L163.053 243.003L155.559 238.077L149.778 234.008Z" fill="#F00000"/>
<path d="M164.338 244.61L163.16 246.43L161.769 251.142L163.374 254.141L164.338 244.61Z" fill="#F00000"/>
<path d="M50.644 175.108V175.536L50.5369 176.072L48.717 176.393L43.5783 173.073L42.8289 172.002L43.5783 167.933L44.1135 168.254L44.5418 168.682L45.7194 169.646L50.644 175.108Z" fill="#C3C2CE"/>
<path d="M55.5686 199.739C55.5686 199.739 55.1404 199.418 54.391 198.989C51.2863 196.954 45.0771 193.635 43.7924 192.135C42.2936 190.315 40.5807 184.425 40.5807 184.425V184.104L42.4006 186.995L45.3982 192.135L55.5686 199.739Z" fill="#292929"/>
<path d="M41.3301 179.391C40.4736 176.179 43.3641 174.358 43.3641 174.358C43.3641 174.358 42.8289 178.106 42.8289 178.642C43.3641 179.284 46.1476 183.247 51.1793 186.459C52.1428 187.959 53.2133 188.815 53.2133 188.815C53.2133 188.815 44.1135 182.711 42.0795 181.105C40.0454 179.284 41.3301 179.391 41.3301 179.391Z" fill="#FF553D"/>
<path d="M145.742 256.215C149.111 254.245 149.084 247.929 145.683 242.108C142.281 236.288 136.792 233.166 133.423 235.136C130.054 237.106 130.081 243.422 133.483 249.243C136.885 255.064 142.373 258.185 145.742 256.215Z" fill="#292929"/>
<path d="M71.2678 213.29C74.6366 211.319 74.6099 205.004 71.208 199.183C67.8062 193.362 62.3174 190.24 58.9486 192.211C55.5797 194.181 55.6065 200.497 59.0083 206.317C62.4102 212.138 67.8989 215.26 71.2678 213.29Z" fill="#292929"/>
<path d="M76.5517 209.377L77.3011 213.875L76.2305 213.232L76.0164 213.125L75.267 208.627C75.267 202.202 70.7706 194.384 65.0966 191.064C59.5297 187.851 54.9263 190.422 54.9263 196.847L55.6757 199.846L55.5686 199.739C55.5686 199.739 55.1404 199.417 54.391 198.989L53.6416 196.097C53.6416 188.815 58.7803 185.924 65.0966 189.565C71.413 193.206 76.5517 202.095 76.5517 209.377Z" fill="#CC0000"/>
<path d="M147.316 169.646C147.316 169.646 156.523 177.678 161.769 183.568C165.409 187.744 167.871 190.743 169.477 192.885C171.618 195.669 168.513 200.595 168.513 200.595L173.01 195.027L162.839 183.032L148.815 169.539L147.316 169.646Z" fill="#FF553D"/>
<path d="M59.5297 167.183V168.361L79.2281 174.358L84.4738 170.61L78.1575 175.643L56.2109 169.753L59.5297 167.183Z" fill="#FF553D"/>
<path d="M118.09 152.404L118.197 152.19L98.2841 147.157L94.9653 147.05L97.7488 145.979L118.946 152.083L118.09 152.404Z" fill="#FF553D"/>
<path d="M148.279 250.714C148.279 256.176 144.425 258.424 139.608 255.64C134.79 252.856 130.936 246.216 130.936 240.647C130.936 235.186 134.79 232.937 139.608 235.721C144.425 238.505 148.279 245.252 148.279 250.714Z" fill="#393843"/>
<path d="M147.744 250.607C147.744 255.854 143.997 257.996 139.394 255.319C134.79 252.641 131.043 246.216 131.043 240.861C131.043 235.614 134.79 233.472 139.394 236.149C143.997 238.934 147.744 245.359 147.744 250.607Z" fill="#2D2C37"/>
<path d="M146.567 249.964C146.567 254.462 143.355 256.283 139.501 254.034C135.54 251.785 132.435 246.323 132.435 241.718C132.435 237.22 135.647 235.4 139.501 237.649C143.355 240.005 146.567 245.467 146.567 249.964Z" fill="#504F58"/>
<path d="M146.352 249.536C146.352 253.82 143.355 255.533 139.608 253.391C135.861 251.249 132.863 246.002 132.863 241.718C132.863 237.435 135.861 235.721 139.608 237.863C143.355 240.005 146.352 245.252 146.352 249.536Z" fill="#BABABE"/>
<path d="M133.292 243.003C133.613 245.466 134.79 248.251 136.717 250.5C138.644 252.749 140.893 253.82 142.606 253.712C143.355 253.712 144.104 253.391 144.64 252.856C144.854 252.641 144.961 252.534 145.068 252.213L145.175 252.106C145.282 251.892 145.389 251.785 145.389 251.571C145.496 251.356 145.603 251.035 145.603 250.821C145.71 250.393 145.817 249.857 145.817 249.322C145.817 249.107 145.817 248.786 145.817 248.572C145.817 248.465 145.817 248.358 145.817 248.144C145.817 248.037 145.817 247.929 145.817 247.929C145.817 247.822 145.817 247.715 145.817 247.715C145.817 247.501 145.71 247.18 145.71 246.966C145.71 246.859 145.603 246.751 145.603 246.644C145.603 246.537 145.603 246.43 145.496 246.323C145.496 246.216 145.389 246.002 145.389 245.895C145.389 245.788 145.282 245.681 145.282 245.573C145.068 245.145 144.961 244.61 144.747 244.181C144.747 244.074 144.64 243.967 144.64 243.86C144.425 243.539 144.318 243.217 144.104 242.896C144.104 242.789 143.997 242.789 143.997 242.682C143.89 242.575 143.783 242.361 143.783 242.254C143.462 241.718 143.034 241.183 142.606 240.754C142.391 240.54 142.177 240.326 141.963 240.112C141.856 240.005 141.749 239.898 141.642 239.791L141.535 239.683C141.428 239.576 141.321 239.576 141.321 239.469C140.357 238.613 139.287 237.97 138.323 237.756C136.61 237.22 135.112 237.649 134.255 239.041L134.148 239.148C133.934 239.469 133.827 239.791 133.72 240.112C133.292 240.969 133.185 241.932 133.292 243.003Z" fill="url(#paint4_linear_404_29)"/>
<path d="M141.642 240.969L141.749 242.896C142.498 242.789 143.141 242.789 143.783 242.682C143.676 242.575 143.569 242.361 143.569 242.254C143.248 241.718 142.82 241.183 142.391 240.754C142.177 240.54 141.963 240.326 141.749 240.112C141.642 240.005 141.535 239.898 141.428 239.791L141.321 239.683C141.214 239.576 141.107 239.576 141.107 239.469C140.143 238.613 139.073 237.97 138.109 237.756C136.396 237.22 134.897 237.649 134.041 239.041C138.858 237.327 141.642 240.969 141.642 240.969Z" fill="#393843"/>
<path d="M133.72 243.003C133.72 243.003 135.326 245.145 137.039 245.788C138.751 246.323 141.963 250.286 141.963 250.286L141.749 242.896C137.895 243.11 133.72 243.003 133.72 243.003Z" fill="#393843"/>
<path d="M137.146 241.718C137.36 243.86 138.43 246.216 140.143 248.144C141.107 249.215 142.07 249.964 143.034 250.393C143.783 250.714 144.532 250.928 145.175 250.928H145.282C145.496 250.928 145.603 250.928 145.71 250.821C145.817 250.393 145.924 249.857 145.924 249.322C145.924 249.108 145.924 248.786 145.924 248.572C145.924 248.465 145.924 248.358 145.924 248.144C145.924 248.037 145.924 247.93 145.924 247.93C145.924 247.822 145.924 247.715 145.924 247.715C145.924 247.501 145.817 247.18 145.817 246.966C145.817 246.859 145.71 246.752 145.71 246.644C145.71 246.537 145.71 246.43 145.603 246.323C145.603 246.216 145.496 246.002 145.496 245.895C145.496 245.788 145.389 245.681 145.389 245.574C145.175 245.145 145.068 244.61 144.854 244.181C144.854 244.074 144.747 243.967 144.747 243.86C144.532 243.539 144.425 243.218 144.211 242.896C144.104 242.682 143.997 242.468 143.783 242.254C143.462 241.718 143.034 241.183 142.605 240.754C142.391 240.54 142.177 240.326 141.963 240.112C141.856 240.005 141.749 239.898 141.642 239.791L141.535 239.684C141.428 239.576 141.321 239.576 141.321 239.469C140.357 238.613 139.287 237.97 138.323 237.756C138.109 237.97 138.002 238.184 137.788 238.398C137.681 238.613 137.574 238.934 137.467 239.148C137.36 239.576 137.253 240.005 137.253 240.54C137.039 240.862 137.039 241.29 137.146 241.718Z" fill="url(#paint5_linear_404_29)"/>
<path d="M141.963 245.252L141.856 246.752L141.963 245.252L143.141 244.61L143.997 242.896C143.89 242.682 143.783 242.468 143.569 242.254C143.248 241.718 142.82 241.183 142.391 240.755C142.177 240.54 141.963 240.326 141.749 240.112C141.642 240.005 141.535 239.898 141.428 239.791L141.321 239.684C141.107 239.791 140.893 239.898 140.893 239.898L142.284 241.504L141.963 245.252Z" fill="url(#paint6_linear_404_29)"/>
<path d="M141.963 245.252L141.856 246.751L143.034 250.393L143.569 251.999C143.783 252.32 143.248 253.177 143.462 253.177C143.89 253.07 144.747 252.534 145.282 252.213L145.389 252.106C145.496 251.892 145.603 251.785 145.603 251.571C145.603 251.463 145.603 251.356 145.496 251.356L145.389 250.928L143.355 244.824L143.248 244.61L141.963 245.252Z" fill="url(#paint7_linear_404_29)"/>
<path d="M135.004 239.791C135.112 239.791 135.219 239.791 135.326 239.791L140.893 242.147L141 242.254V245.252L139.822 244.503L135.219 242.682C134.897 242.468 134.683 242.147 134.683 241.825C134.683 241.183 133.613 241.076 133.827 240.433C133.827 240.326 134.897 239.791 135.004 239.791Z" fill="url(#paint8_linear_404_29)"/>
<path d="M140.786 247.608L143.141 242.682C143.248 242.468 143.141 242.147 142.927 241.825C142.713 241.504 142.498 241.183 142.177 240.969C141.963 240.647 141.642 240.433 141.428 240.112C141.214 239.898 140.893 239.898 140.786 240.005L138.43 244.931L140.786 247.608Z" fill="#DFDFE3"/>
<path d="M139.929 245.895V242.896L139.822 242.789L134.255 240.433C134.041 240.326 133.827 240.326 133.72 240.647C133.613 241.183 133.506 241.825 133.613 242.468C133.613 242.789 133.827 243.218 134.148 243.325L138.751 245.145L139.929 245.895Z" fill="#DFDFE3"/>
<path d="M144.211 252.749C144.425 252.642 144.425 252.32 144.211 251.999L141.963 245.467L141.856 245.252L139.822 245.895L140.571 247.394L142.177 252.749C142.391 253.07 142.713 253.391 142.927 253.284C143.462 253.177 143.89 253.07 144.211 252.749Z" fill="#DFDFE3"/>
<path d="M143.034 252.534L142.927 252.427L141.214 246.966L139.073 244.503L134.362 242.682C134.255 242.682 134.148 242.468 134.148 242.361C134.148 241.932 134.148 241.611 134.148 241.29L139.822 243.753L141.107 240.754C141.321 240.969 141.428 241.076 141.642 241.29C141.856 241.611 142.07 241.825 142.284 242.147C142.284 242.254 142.391 242.254 142.391 242.361L141.107 245.359L143.462 252.213C143.462 252.427 143.248 252.534 143.034 252.534Z" fill="#4B4A4B"/>
<path d="M73.7682 207.77C73.7682 213.232 69.9142 215.481 65.0966 212.696C60.2791 209.912 56.425 203.272 56.425 197.704C56.425 192.242 60.2791 189.993 65.0966 192.778C69.9142 195.562 73.7682 202.202 73.7682 207.77Z" fill="#2D2C37"/>
<path d="M73.7682 207.77C73.7682 213.232 69.9142 215.481 65.0966 212.696C60.2791 209.912 56.425 203.272 56.425 197.704C56.425 192.242 60.2791 189.993 65.0966 192.778C69.9142 195.562 73.7682 202.202 73.7682 207.77Z" fill="#393843"/>
<path d="M73.2329 207.663C73.2329 212.911 69.4859 215.053 64.8825 212.375C60.2791 209.698 56.5321 203.273 56.5321 197.918C56.5321 192.671 60.2791 190.529 64.8825 193.206C69.4859 195.883 73.2329 202.309 73.2329 207.663Z" fill="#2D2C37"/>
<path d="M72.0553 207.021C72.0553 211.519 68.8436 213.339 64.9896 211.09C61.0285 208.841 57.9238 203.38 57.9238 198.775C57.9238 194.277 61.1355 192.456 64.9896 194.705C68.9506 196.954 72.0553 202.523 72.0553 207.021Z" fill="#504F58"/>
<path d="M71.8412 206.485C71.8412 210.769 68.8436 212.483 65.0966 210.341C61.3496 208.199 58.3521 202.951 58.3521 198.668C58.3521 194.384 61.3496 192.671 65.0966 194.812C68.8436 197.061 71.8412 202.202 71.8412 206.485Z" fill="#BABABE"/>
<path d="M58.8874 200.06C59.2085 202.523 60.3862 205.307 62.3132 207.556C64.2402 209.805 66.4884 210.876 68.2013 210.769C68.9507 210.769 69.7001 210.448 70.2353 209.912C70.4495 209.698 70.5565 209.591 70.6636 209.27L70.7706 209.163C70.8777 208.948 70.9847 208.841 70.9847 208.627C71.0918 208.413 71.1989 208.092 71.1989 207.878C71.3059 207.449 71.413 206.914 71.413 206.378C71.413 206.164 71.413 205.843 71.413 205.629C71.413 205.522 71.413 205.414 71.413 205.2C71.413 205.093 71.413 204.986 71.413 204.986C71.413 204.879 71.413 204.772 71.413 204.772C71.413 204.558 71.3059 204.236 71.3059 204.022C71.3059 203.915 71.1989 203.808 71.1989 203.701C71.1989 203.594 71.1989 203.487 71.0918 203.38C71.0918 203.273 70.9847 203.058 70.9847 202.951C70.9847 202.844 70.8777 202.737 70.8777 202.63C70.6636 202.202 70.5565 201.666 70.3424 201.238C70.3424 201.131 70.2353 201.024 70.2353 200.917C70.0212 200.595 69.9142 200.274 69.7001 199.953C69.7001 199.846 69.593 199.846 69.593 199.739C69.486 199.632 69.3789 199.417 69.3789 199.31C69.0577 198.775 68.6295 198.239 68.2013 197.811C67.9872 197.597 67.773 197.383 67.5589 197.168C67.4519 197.061 67.3448 196.954 67.2378 196.847L67.1307 196.74C67.0237 196.633 66.9166 196.633 66.9166 196.526C65.9531 195.669 64.8825 195.027 63.919 194.812C62.2061 194.277 60.7073 194.705 59.8509 196.098L59.7438 196.205C59.5297 196.526 59.4226 196.847 59.3156 197.168C58.7803 197.918 58.7803 198.882 58.8874 200.06Z" fill="url(#paint9_linear_404_29)"/>
<path d="M67.2377 197.918L67.3448 199.846C68.0942 199.739 68.7365 199.739 69.3789 199.632C69.2718 199.525 69.1647 199.31 69.1647 199.203C68.8436 198.668 68.4153 198.132 67.9871 197.704C67.773 197.49 67.5589 197.276 67.3448 197.062C67.2377 196.954 67.1307 196.847 67.0236 196.74L66.9166 196.633C66.8095 196.526 66.7024 196.526 66.7024 196.419C65.7389 195.562 64.6684 194.92 63.7049 194.706C61.992 194.17 60.4932 194.598 59.6367 195.991C64.4543 194.277 67.2377 197.918 67.2377 197.918Z" fill="#393843"/>
<path d="M59.3156 199.953C59.3156 199.953 60.9214 202.095 62.6343 202.737C64.3472 203.273 67.5589 207.235 67.5589 207.235L67.3448 199.846C63.3837 200.167 59.3156 199.953 59.3156 199.953Z" fill="#393843"/>
<path d="M62.6343 198.668C62.8484 200.81 63.919 203.166 65.6319 205.093C66.5954 206.164 67.5589 206.914 68.5224 207.342C69.2718 207.663 70.0212 207.878 70.6635 207.878H70.7706C70.9847 207.878 71.0918 207.878 71.1988 207.77C71.3059 207.342 71.4129 206.807 71.4129 206.271C71.4129 206.057 71.4129 205.736 71.4129 205.522C71.4129 205.414 71.4129 205.307 71.4129 205.093C71.4129 204.986 71.4129 204.879 71.4129 204.879C71.4129 204.772 71.4129 204.665 71.4129 204.665C71.4129 204.451 71.3059 204.129 71.3059 203.915C71.3059 203.808 71.1988 203.701 71.1988 203.594C71.1988 203.487 71.1988 203.38 71.0918 203.273C71.0918 203.166 70.9847 202.951 70.9847 202.844C70.9847 202.737 70.8777 202.63 70.8777 202.523C70.6635 202.095 70.5565 201.559 70.3424 201.131C70.3424 201.024 70.2353 200.917 70.2353 200.81C70.0212 200.488 69.9141 200.167 69.7 199.846C69.593 199.632 69.4859 199.417 69.2718 199.203C68.9506 198.668 68.5224 198.132 68.0942 197.704C67.8801 197.49 67.666 197.276 67.4518 197.061C67.3448 196.954 67.2377 196.847 67.1307 196.74L67.0236 196.633C66.9166 196.526 66.8095 196.526 66.8095 196.419C65.846 195.562 64.7754 194.92 63.8119 194.705C63.5978 194.92 63.4908 195.134 63.2766 195.348C63.1696 195.562 63.0625 195.883 62.9555 196.098C62.8484 196.526 62.7414 196.954 62.7414 197.49C62.5273 197.918 62.6343 198.346 62.6343 198.668Z" fill="url(#paint10_linear_404_29)"/>
<path d="M67.4519 202.309L67.3448 203.808L67.4519 202.309L68.6295 201.666L69.4859 199.953C69.3789 199.739 69.2718 199.525 69.0577 199.31C68.7365 198.775 68.3083 198.24 67.8801 197.811C67.666 197.597 67.4519 197.383 67.2377 197.169C67.1307 197.062 67.0236 196.954 66.9166 196.847L66.8095 196.74C66.5954 196.847 66.3813 196.954 66.3813 196.954L67.773 198.561L67.4519 202.309Z" fill="url(#paint11_linear_404_29)"/>
<path d="M67.4518 202.309L67.3448 203.808L68.5224 207.449L69.0577 209.056C69.2718 209.377 68.7365 210.234 68.9506 210.234C69.3789 210.126 70.2353 209.591 70.7706 209.27L70.8776 209.163C70.9847 208.948 71.0918 208.841 71.0918 208.627C71.0918 208.52 71.0918 208.413 70.9847 208.413L70.8776 207.985L68.8436 201.88L68.7365 201.666L67.4518 202.309Z" fill="url(#paint12_linear_404_29)"/>
<path d="M60.4932 196.74C60.6002 196.74 60.7073 196.74 60.8143 196.74L66.3813 199.096L66.4883 199.203V202.202L65.3107 201.452L60.7073 199.632C60.3861 199.418 60.172 199.096 60.172 198.775C60.172 198.132 59.1014 198.025 59.3155 197.383C59.4226 197.383 60.4932 196.847 60.4932 196.74Z" fill="url(#paint13_linear_404_29)"/>
<path d="M66.3813 204.558L68.7365 199.631C68.8436 199.417 68.7365 199.096 68.5224 198.775C68.3083 198.453 68.0942 198.132 67.773 197.918C67.5589 197.597 67.2378 197.382 67.0236 197.061C66.8095 196.847 66.4884 196.847 66.3813 196.954L64.0261 201.88L66.3813 204.558Z" fill="#DFDFE3"/>
<path d="M65.4178 202.844V199.846L65.3107 199.738L59.7438 197.382C59.5297 197.275 59.3156 197.275 59.2085 197.597C59.1015 198.132 58.9944 198.775 59.1015 199.417C59.1015 199.738 59.3156 200.167 59.6368 200.274L64.2402 202.094L65.4178 202.844Z" fill="#DFDFE3"/>
<path d="M69.8071 209.698C70.0212 209.591 70.0212 209.27 69.8071 208.948L67.5589 202.416L67.4519 202.202L65.4178 202.844L66.1672 204.343L67.773 209.698C67.9871 210.019 68.3083 210.341 68.5224 210.233C68.9507 210.233 69.3789 210.019 69.8071 209.698Z" fill="#DFDFE3"/>
<path d="M68.5224 209.591L68.4153 209.484L66.7024 204.022L64.5613 201.559L59.8508 199.739C59.7438 199.739 59.6367 199.524 59.6367 199.417C59.6367 198.989 59.6367 198.668 59.6367 198.346L65.3107 200.81L66.5954 197.811C66.8095 198.025 66.9166 198.132 67.1307 198.346C67.3448 198.668 67.5589 198.882 67.773 199.203C67.773 199.31 67.8801 199.31 67.8801 199.417L66.5954 202.416L68.9506 209.27C68.9506 209.377 68.7365 209.484 68.5224 209.591Z" fill="#4B4A4B"/>
<path d="M163.374 254.141L175.686 252.534L197.847 239.898L202.236 228.974L202.45 226.618L193.564 232.937L184.786 238.72L173.438 244.396L164.338 244.61L163.374 254.141Z" fill="#F00000"/>
<path d="M171.19 248.572L178.898 241.611C178.898 241.611 184.036 239.255 188.104 236.899C192.173 234.65 195.063 232.401 195.063 232.401L199.881 231.652C199.881 231.652 195.277 236.471 193.671 238.184C192.28 239.683 178.041 247.287 175.793 247.394C174.508 247.608 171.19 248.572 171.19 248.572Z" fill="#FF553D"/>
<path d="M162.09 244.181H166.693H173.01L176.435 241.183L177.185 239.362L170.012 240.861L161.34 239.683L149.778 234.008L156.309 240.433L162.09 244.181Z" fill="#F00000"/>
<path d="M174.08 240.647C173.759 240.969 171.404 242.789 169.477 243.539C169.37 243.646 169.156 243.646 169.048 243.646C168.727 243.753 168.406 243.86 168.192 243.86C168.085 243.86 168.085 243.86 167.978 243.86C166.051 243.967 163.696 243.967 161.876 243.753C160.484 243.646 155.881 241.718 154.489 240.326C152.99 238.934 152.134 237.327 152.134 237.327L152.99 236.149C152.99 236.149 152.99 236.149 153.097 236.149H153.204H153.311H153.418C153.418 236.149 153.418 236.149 153.525 236.149C153.525 236.149 153.525 236.149 153.632 236.149C153.953 236.149 154.489 236.257 155.024 236.364C155.345 236.471 155.881 236.685 156.737 237.006C156.844 237.006 156.951 237.113 156.951 237.113C158.45 237.649 160.484 238.398 162.518 238.72C165.087 239.255 168.62 239.362 171.297 239.683C171.404 239.683 171.511 239.683 171.618 239.683C171.939 239.683 172.367 239.791 172.688 239.898C172.902 239.898 173.117 240.005 173.331 240.005L174.08 240.647Z" fill="#C3C2CE"/>
<path d="M162.197 238.827C164.766 239.362 168.299 239.469 170.975 239.791C170.119 240.433 168.941 241.183 167.871 241.504C165.944 242.039 161.447 241.611 161.447 241.611C161.447 241.611 156.309 239.791 156.309 239.362C156.309 239.041 156.523 237.863 156.63 237.113C158.236 237.756 160.27 238.505 162.197 238.827Z" fill="white"/>
<path d="M174.08 240.647C173.759 240.969 171.404 242.789 169.477 243.539C169.37 243.646 169.156 243.646 169.048 243.646C168.727 243.753 168.406 243.86 168.192 243.86C168.085 243.86 168.085 243.86 167.978 243.86C166.051 243.967 163.696 243.967 161.876 243.753C160.484 243.646 155.881 241.718 154.489 240.326C152.99 238.934 152.134 237.327 152.134 237.327L152.99 236.149C152.99 236.149 152.99 236.149 153.097 236.149H153.204H153.311H153.418C153.418 236.149 153.418 236.149 153.525 236.149C153.525 236.149 153.525 236.149 153.632 236.149L152.776 237.113C152.776 237.113 154.275 239.362 155.345 240.112C156.416 240.861 161.983 242.682 161.983 242.682C161.983 242.682 166.586 243.003 168.085 242.682C169.37 242.468 171.725 240.647 172.581 240.005C172.795 240.005 173.01 240.112 173.224 240.112L174.08 240.647Z" fill="#FF553D"/>
<path d="M202.771 222.763C202.771 222.763 202.45 224.262 202.022 225.869C201.915 226.19 201.701 226.404 201.486 226.618C201.165 227.047 197.632 229.296 195.705 229.189L196.669 227.904L196.776 227.796C198.382 225.869 200.095 223.084 201.058 221.692C201.272 221.371 201.486 220.836 201.486 220.193C201.594 219.658 201.594 219.122 201.594 218.908C201.594 218.694 201.379 218.158 201.058 217.73C200.63 216.98 200.095 216.231 199.988 216.124C200.095 216.231 201.272 217.623 202.022 219.336C202.771 221.05 202.771 222.763 202.771 222.763Z" fill="#C3C2CE"/>
<path d="M170.975 247.715L178.684 240.754C178.684 240.754 183.822 238.184 187.89 235.828C191.959 233.579 194.849 231.33 194.849 231.33L199.667 230.902C199.667 230.902 195.063 235.721 193.457 237.435C192.066 238.934 177.827 246.537 175.579 246.644C174.294 246.752 170.975 247.715 170.975 247.715Z" fill="#292929"/>
<path d="M196.776 231.116C195.277 232.723 193.029 234.972 192.066 236.15C190.674 237.649 176.435 245.252 174.187 245.359C173.973 245.359 173.759 245.359 173.438 245.467L170.975 247.715C170.975 247.715 174.294 246.752 175.579 246.644C177.72 246.537 192.066 238.934 193.457 237.435C195.063 235.614 199.667 230.902 199.667 230.902L196.776 231.116Z" fill="#CC0000"/>
<path d="M199.667 226.083C198.81 227.047 197.847 227.689 196.776 227.797C196.776 227.689 196.883 227.689 196.883 227.582C197.74 226.19 199.988 222.442 200.523 221.478C200.63 221.264 200.844 221.05 200.951 220.729C201.165 220.3 201.272 219.872 201.272 219.443C201.379 218.908 201.272 218.373 201.058 217.944C201.058 217.837 200.951 217.73 200.951 217.73C200.737 217.195 201.808 218.801 202.022 220.621C202.236 221.907 201.165 224.37 199.667 226.083Z" fill="#C3C2CE"/>
<path d="M201.701 221.799C201.701 223.084 200.416 224.905 199.774 226.083C199.238 227.047 198.275 227.796 196.776 227.796L196.883 227.689C196.883 227.582 196.99 227.582 196.99 227.475C197.847 226.083 200.095 222.335 200.63 221.371C200.737 221.157 200.951 220.943 201.058 220.621C201.272 220.193 201.379 219.765 201.379 219.336C201.487 219.55 201.487 219.872 201.594 220.086C201.594 220.728 201.701 221.371 201.701 221.799Z" fill="white"/>
<path d="M155.881 237.006C155.881 237.006 154.81 236.578 154.703 236.578C154.168 236.471 153.739 236.364 153.739 236.364L153.097 237.22C153.097 237.22 153.846 238.506 154.489 239.148C155.345 239.148 155.559 238.72 155.559 238.72L155.881 237.006Z" fill="#FFCE49"/>
<path d="M141.749 230.902C137.039 228.546 136.396 230.26 133.077 231.223C142.498 233.901 146.031 238.827 147.744 242.04C149.457 245.359 150.635 248.786 150.635 248.786C151.17 249.75 152.455 239.148 141.749 230.902Z" fill="#FF553D"/>
<path d="M141.749 230.902C135.968 227.261 134.362 228.225 132.542 229.082C129.009 230.581 127.403 235.721 127.832 238.827C128.26 241.932 129.009 243.325 129.009 243.325C129.009 243.325 128.367 238.291 129.223 236.578C130.08 234.864 130.294 233.579 132.542 231.973C134.79 230.367 139.394 232.616 139.394 232.616L144.425 235.186L141.749 230.902Z" fill="#FF553D"/>
<path d="M151.063 252.32L151.812 256.818L151.491 256.604L150.528 256.069L149.778 251.571C149.778 245.145 145.282 237.328 139.608 234.008C134.041 230.795 129.438 233.365 129.438 239.791L130.187 244.289L128.902 243.539L128.153 239.041C128.153 231.759 133.292 228.867 139.608 232.508C145.924 236.257 151.063 245.038 151.063 252.32Z" fill="#CC0000"/>
<path d="M203.414 231.009C200.844 234.115 199.024 235.4 195.706 238.077C192.494 240.647 180.289 247.929 176.221 249C172.26 250.071 168.299 251.463 162.625 250.178C156.951 248.893 153.953 247.929 153.953 247.929L154.917 250.178C154.917 250.178 155.345 255.854 158.45 256.175C161.554 256.604 167.121 255.747 173.224 254.141C179.326 252.641 193.029 243.753 193.029 243.753L198.275 239.683L201.701 234.436L203.092 232.187L203.414 231.009Z" fill="#CC0000"/>
<path d="M202.022 234.757L201.701 235.828L198.81 239.898L193.35 244.824L180.503 252.213L170.119 256.497L161.983 258.103L160.377 258.317L151.812 256.818L151.491 256.604L150.849 256.176C150.956 255.212 151.705 254.462 151.919 254.034C152.241 253.177 155.024 250.178 155.024 250.178C155.024 250.178 157.058 254.141 159.842 254.89C159.949 254.89 160.056 254.89 160.163 254.998C161.019 255.105 162.197 255.105 163.267 255.105C165.944 254.89 168.727 254.355 168.727 254.355L179.861 249.857L194.314 241.397L198.703 237.542L200.202 236.042L201.379 234.757L201.808 234.436V234.757H202.022Z" fill="#FF553D"/>
<path d="M168.62 254.248C170.44 251.999 172.153 251.356 174.508 250.821C176.864 250.393 182.966 247.287 186.713 245.145C190.46 243.003 194.849 240.433 195.598 239.469C196.348 238.613 198.275 237.113 198.596 237.435C198.061 238.72 194.956 241.397 194.956 241.397C194.956 241.397 191.53 243.967 184.572 247.822C177.613 251.678 174.08 252.641 168.62 254.248Z" fill="#292929"/>
<path d="M50.644 175.108L45.077 172.537L44.1135 172.109L43.5782 168.04L44.1135 166.112L48.0746 162.042L47.6464 162.685C47.6464 162.685 44.4347 165.791 44.4347 166.005C44.4347 166.112 44.6488 166.54 44.97 166.969C45.3982 167.718 46.0405 168.682 46.0405 168.682L49.0381 172.43L50.644 175.108Z" fill="#C3C2CE"/>
<path d="M42.8289 172.002L45.1841 169.432V167.29L44.4347 166.005L47.6464 162.578L48.0746 161.935L44.1135 166.005L43.5783 167.932L42.8289 172.002Z" fill="#E9D7A7"/>
<path d="M50.5369 174.786L50.4299 175.215L48.9311 175.322L44.97 172.216L44.1135 170.931L44.3276 168.361C44.3276 168.361 44.6488 166.969 44.7559 166.647C45.1841 167.397 45.8264 168.361 45.8264 168.361L48.824 172.109L50.5369 174.786Z" fill="#FF5030"/>
<path d="M45.6123 171.895L49.1452 174.679L50.3228 174.572L48.824 172.216L45.8264 168.468C45.8264 168.468 45.5053 167.932 45.077 167.397C44.97 167.825 44.8629 168.147 44.8629 168.147L44.6488 170.717L45.6123 171.895Z" fill="#FF4123"/>
<path d="M187.141 231.545L186.392 232.937L184.572 233.044L185.321 231.652L187.141 231.545Z" fill="#C3C2CE"/>
<path d="M140.036 177.249C143.569 174.893 148.494 170.396 148.494 170.396L148.815 169.539L108.026 193.099L130.508 219.55L136.717 217.73C136.717 217.73 133.613 216.552 132.221 216.016C130.829 215.481 128.26 211.411 123.442 205.629C118.625 199.846 110.917 192.885 110.917 192.885C110.917 192.885 116.055 190.636 119.267 189.137C122.265 187.637 136.503 179.605 140.036 177.249Z" fill="#FF553D"/>
<path d="M125.048 217.516C125.048 217.516 125.798 217.409 126.012 217.194C126.333 216.98 126.119 216.016 125.584 215.802C125.048 215.481 123.657 216.231 123.442 216.016C123.228 215.909 121.837 216.552 121.837 216.552L122.265 217.623L125.048 217.516Z" fill="#FF553D"/>
<path d="M122.265 213.875C123.549 213.553 124.941 213.982 125.155 215.481C125.369 217.302 124.62 217.623 124.085 217.837C123.549 218.051 121.837 218.801 119.481 218.908C117.233 218.908 116.912 217.73 116.912 216.873C116.912 216.766 116.912 216.766 116.912 216.659C117.019 215.481 117.447 215.16 118.197 214.946C119.803 214.41 122.265 213.875 122.265 213.875Z" fill="#FF553D"/>
<path d="M124.62 214.624C123.871 214.41 122.265 214.731 120.766 215.052C119.267 215.374 118.09 215.374 117.983 216.873C117.875 218.372 118.304 218.693 118.946 218.801C119.588 218.908 120.766 218.908 122.586 218.372C124.406 217.837 124.727 217.515 124.941 216.98C125.262 216.552 125.369 214.838 124.62 214.624Z" fill="#FF3717"/>
<path d="M81.6904 82.2595L145.175 45.6343V50.4534C145.282 103.999 115.199 136.019 113.593 137.733C111.987 137.84 81.7974 140.624 81.6904 87.0786V82.2595ZM137.039 86.7573C139.715 77.012 141.214 67.0525 141.535 56.9859L85.4373 89.3275C85.8656 98.9657 87.3644 107.212 90.0408 113.851C92.5031 119.848 95.9289 124.668 100.211 127.88C105.671 132.057 111.131 132.806 113.593 132.914C116.055 129.915 121.515 122.74 126.975 112.352C131.257 104.213 134.576 95.6459 137.039 86.7573Z" fill="#D9E0EA"/>
<path d="M141.535 56.9858C141.214 67.0524 139.715 77.0119 137.039 86.7572C134.576 95.6458 131.257 104.32 126.975 112.459C121.622 122.847 116.163 129.915 113.593 133.021C111.131 132.913 105.564 132.057 100.211 127.987C95.9288 124.667 92.503 119.955 90.0407 113.958C87.3643 107.319 85.7585 99.0727 85.4373 89.4345L141.535 56.9858Z" fill="#7FC732"/>
<path d="M81.6904 82.2594L75.0529 78.4041L138.537 41.6719L145.175 45.5272L81.6904 82.2594Z" fill="#F6F7F8"/>
<path d="M81.6904 87.0787V82.2596L75.0529 78.4043V83.2234C75.1599 113.209 84.6879 125.524 93.2525 130.558L99.89 134.413C91.3254 129.38 81.7974 117.064 81.6904 87.0787Z" fill="#C1C7CE"/>
<path d="M126.761 78.9395L122.586 76.5835L129.545 77.6544L133.72 80.0104L126.761 78.9395Z" fill="#F6F7F8"/>
<path d="M115.627 105.284L111.559 102.928L122.586 76.5835L126.761 78.9395L115.627 105.284Z" fill="#CBD5E2"/>
<path d="M103.53 111.709L99.3547 109.353L105.243 99.2869L109.311 101.643L103.53 111.709Z" fill="#CBD5E2"/>
<path d="M115.627 105.284L111.559 102.928L105.243 99.2869L109.311 101.643L115.627 105.284Z" fill="#A9A9A9"/>
<path d="M126.761 78.9395L133.72 80.0104L117.126 119.527L103.53 111.709L109.311 101.643L115.627 105.284L126.761 78.9395Z" fill="#F6F6F6"/>
<path d="M104.6 111.388L109.632 102.821L116.056 106.462L127.296 79.7964L132.542 80.6531L116.698 118.349L104.6 111.388Z" fill="#8DEA2F"/>
<path d="M127.51 184.639C128.474 186.566 130.936 186.031 131.686 185.602C132.435 185.174 138.43 181.747 139.287 181.105C140.143 180.462 139.073 178.213 139.073 178.213C139.073 178.213 132.328 182.068 127.51 184.639Z" fill="#131313"/>
<path d="M136.075 183.353L133.72 184.639C132.435 185.388 131.15 186.245 129.866 187.102C129.437 187.423 129.223 187.958 129.33 188.494L129.652 189.886C129.759 190.421 130.187 190.636 130.615 190.421C131.9 189.886 133.292 189.243 134.576 188.494L136.931 187.209C138.216 186.459 139.501 185.602 140.785 184.746C141.214 184.424 141.428 183.889 141.321 183.353L141 181.961C140.893 181.426 140.464 181.212 140.036 181.426C138.644 181.961 137.36 182.604 136.075 183.353Z" fill="#63747D"/>
<path d="M136.61 185.067C136.61 184.425 136.396 182.604 136.396 182.604H134.148C134.148 182.604 134.362 185.174 134.469 185.281C134.576 185.71 135.112 186.138 135.433 186.138C135.861 186.138 136.61 185.817 136.61 185.067Z" fill="#63747D"/>
<path d="M136.289 182.068C136.61 182.604 136.503 183.139 135.968 183.461C135.433 183.782 134.683 183.675 134.362 183.139C134.041 182.604 134.148 182.068 134.683 181.747C135.219 181.426 135.861 181.533 136.289 182.068Z" fill="#63747D"/>
<path d="M115.306 328.141L39.0819 284.019L47.8605 278.879L49.0382 281.021L43.7924 284.019L115.306 325.357L184.358 285.411L246.343 321.287L261.224 312.72L262.402 314.862L246.343 324.071L184.358 288.196L115.306 328.141Z" fill="#8815AD"/>
<path d="M264.757 314.754C263.151 315.718 260.582 315.718 258.976 314.754C257.37 313.791 257.37 312.291 258.976 311.435C260.582 310.471 263.151 310.471 264.757 311.435C266.256 312.291 266.363 313.791 264.757 314.754Z" fill="#8815AD"/>
<path d="M51.6075 281.663C50.0017 282.627 47.4323 282.627 45.8265 281.663C44.2206 280.699 44.2206 279.2 45.8265 278.343C47.4323 277.379 50.0017 277.379 51.6075 278.343C53.2134 279.2 53.2134 280.699 51.6075 281.663Z" fill="#8815AD"/>
<path d="M328.563 123.061C326.957 124.025 324.387 124.025 322.781 123.061C321.176 122.097 321.176 120.598 322.781 119.741C324.387 118.777 326.957 118.777 328.563 119.741C330.168 120.598 330.168 122.097 328.563 123.061Z" fill="#8815AD"/>
<path d="M443.541 300.618C445.147 301.582 447.716 301.582 449.322 300.618C450.928 299.655 450.928 298.155 449.322 297.299C447.716 296.335 445.147 296.335 443.541 297.299C441.935 298.155 441.935 299.655 443.541 300.618Z" fill="#8815AD"/>
<path d="M242.061 172.858C240.455 173.822 237.886 173.822 236.28 172.858C234.674 171.895 234.674 170.395 236.28 169.539C237.886 168.575 240.455 168.575 242.061 169.539C243.56 170.395 243.667 171.895 242.061 172.858Z" fill="#8815AD"/>
<path d="M312.718 44.3491L312.611 47.1335C313.468 48.5257 313.468 50.025 312.932 51.7384L312.504 54.3086L312.932 55.8079C312.825 56.7717 312.29 56.8788 311.648 56.6646L312.29 57.4142L313.789 59.1277L315.395 59.8773C316.037 60.3057 315.93 60.627 315.395 60.7341C315.716 61.2695 315.502 61.5908 314.966 61.6979L313.575 60.9483C313.682 61.5908 313.254 62.1263 312.718 61.6979L310.256 59.5561C309.292 58.271 308.543 56.8788 308.115 55.3795C308.008 52.9164 308.329 50.5604 309.185 48.2044L308.971 44.6704L312.718 44.3491Z" fill="#FFB294"/>
<path d="M317.643 20.3607L311.969 50.9887C310.363 51.0958 307.687 50.6675 306.616 48.2044C308.543 38.0307 309.935 26.2507 310.256 17.4692C310.684 13.1855 314.431 7.93808 318.82 8.9019L317.643 20.3607Z" fill="#E6E6E6"/>
<path opacity="0.5" d="M308.543 50.239L311.541 34.0682L313.682 18.2188L316.572 31.8193L315.073 46.2766L312.076 50.8816L308.543 50.239Z" fill="#999999"/>
<path d="M335.414 105.712C336.056 106.569 336.056 108.711 335.949 111.067C335.307 113.423 333.059 113.209 331.132 113.53C327.492 114.065 325.565 116.85 320.747 116.85C317.857 116.85 315.93 116.207 315.288 114.387C315.181 113.53 315.716 112.673 316.679 111.817C316.679 111.817 323.317 108.818 323.531 108.711C323.745 108.604 326.743 106.355 326.743 106.141C326.85 105.927 327.92 100.786 327.92 100.786H335.093L335.414 105.712Z" fill="black"/>
<path d="M338.947 116.85C339.589 118.992 339.696 119.634 339.482 121.133C339.161 121.99 338.84 122.311 338.519 123.489C338.091 124.882 338.198 127.345 336.057 128.737C333.487 130.772 328.67 130.772 327.064 128.737C327.064 127.666 327.706 125.417 328.991 123.597L331.453 118.992L331.346 114.708L338.519 113.102L338.947 116.85Z" fill="black"/>
<path d="M327.064 50.6675V79.5821C329.419 87.9352 333.808 95.86 334.558 104.213C334.558 107.747 327.385 108.497 325.565 106.248C324.816 99.7152 319.356 90.9338 316.037 80.7601C313.789 70.4794 311.969 59.7702 312.611 51.0958L327.064 50.6675Z" fill="#4A135E"/>
<path d="M312.825 51.7383C312.611 54.7368 316.679 62.4474 321.283 65.8743C321.497 72.1927 322.246 83.0089 323.317 90.0769C326.636 100.358 329.633 110.103 330.383 116.636C331.56 118.135 335.2 118.777 337.448 117.921C337.662 117.814 337.769 117.814 337.876 117.706L337.984 117.599C338.733 117.171 339.268 116.421 339.268 115.565C339.161 107.319 337.662 98.9655 335.414 90.6124L336.057 53.4517V52.3808L312.825 51.7383Z" fill="#8815AD"/>
<path opacity="0.5" d="M331.239 91.4693C335.628 96.8238 336.592 107.319 337.448 117.921C337.555 117.921 337.662 117.814 337.876 117.707L337.984 117.6C338.733 117.171 339.268 116.422 339.268 115.565C339.161 107.319 337.662 98.9657 335.414 90.6125L336.056 53.4519L331.667 56.4505C334.558 65.7674 332.417 78.4042 331.239 91.4693Z" fill="#162B35"/>
<path d="M311.112 48.4187C311.219 48.9541 311.434 49.5967 311.648 50.1321C312.183 51.3101 313.039 52.381 314.11 53.1307C318.499 56.2363 324.709 57.5214 329.847 56.8789C331.132 56.5576 332.417 56.2363 333.701 55.808C334.13 55.7009 334.451 55.4867 334.772 55.2725C336.913 53.9874 338.198 51.5243 338.091 48.9541V48.847C338.091 48.3116 337.984 47.7761 337.984 47.2407C337.984 46.7052 337.984 46.1698 337.876 45.5272L338.626 36.4245L339.911 19.9324C336.057 15.7559 331.667 12.2219 326.743 9.11621L316.786 9.54458C312.932 12.3289 312.076 15.7559 311.434 20.3608C311.434 20.3608 312.183 38.7805 311.541 43.2783C311.434 44.0279 311.326 44.7776 311.219 45.5272C311.005 46.5981 311.005 47.5619 311.112 48.4187Z" fill="#E6E6E6"/>
<path d="M322.032 18.0047L322.353 21.1104L320.533 24.1089C319.998 28.6067 318.499 38.0308 318.606 41.4577L316.572 45.42L315.18 40.4939C316.037 35.0322 318.178 26.4649 319.142 22.9309V19.1827L321.176 17.7905L322.032 18.0047Z" fill="#8815AD"/>
<path d="M325.565 8.04517L330.061 11.4721C332.524 18.2188 327.064 21.1103 323.531 25.0727L321.176 19.1826L315.93 20.3607L317.536 10.6154L325.565 8.04517Z" fill="white"/>
<path opacity="0.5" d="M310.577 48.954C310.684 49.4895 311.112 49.9179 311.648 50.2391C313.682 51.31 318.071 51.0959 322.674 49.1682C327.706 50.0249 332.738 48.6328 332.845 49.5966C333.059 51.2029 331.881 54.6299 331.774 56.5575C336.913 55.5937 338.198 51.7384 338.091 49.1682C338.091 48.6328 337.984 47.9902 337.984 47.3477C337.984 46.8122 337.876 46.2768 337.876 45.6342L338.626 36.5315L331.56 30.7485C331.56 30.7485 332.524 32.6762 333.594 36.3173C333.808 36.9598 326.636 39.53 323.317 41.9931C319.356 44.8846 313.039 47.4548 311.112 48.6328C310.791 48.6328 310.577 48.8469 310.577 48.954Z" fill="#999999"/>
<path d="M326.1 7.6167L328.241 11.2578C329.954 15.7556 324.601 19.5038 321.283 18.9684L317.964 12.9713L326.1 7.6167Z" fill="#FFB294"/>
<path opacity="0.5" d="M325.779 12.2217C325.886 14.3635 325.565 16.5053 324.709 18.3259C322.246 22.8237 320.212 19.5039 319.249 18.0046L325.779 12.2217Z" fill="#FFB294"/>
<path d="M325.886 11.151C325.565 14.1495 324.601 17.1481 321.283 19.1828C320.319 19.9324 319.142 19.7183 318.392 19.0757L315.609 15.3275C314.538 14.1495 313.789 12.8644 313.253 11.3651L317.429 2.79785H323.852L326.957 6.97441L325.886 11.151Z" fill="#FFB294"/>
<path d="M327.492 10.4012L324.923 10.9366C324.173 10.187 322.996 10.187 322.139 10.7224C320.747 11.6863 318.606 12.8643 315.93 12.6501C312.825 12.4359 311.326 10.0799 311.541 7.7239C311.755 5.2608 315.823 -0.307942 320.64 0.0133314C326.314 0.441696 328.991 4.61825 327.92 10.8295L327.492 10.4012Z" fill="black"/>
<path d="M326.528 7.61675C326.957 7.50966 327.385 7.61675 327.599 8.04512C327.813 8.2593 327.813 8.58057 327.813 8.90184C327.813 9.54439 327.599 10.1869 327.385 10.8295C327.278 11.0437 327.171 11.3649 326.957 11.472C326.743 11.6862 326.421 11.7933 326.207 11.6862C325.244 11.5791 325.458 10.294 325.351 9.65148C325.137 8.79475 325.672 7.83093 326.528 7.61675Z" fill="#FFB294"/>
<path d="M339.911 19.9322C342.587 25.2868 344.514 30.3201 346.227 35.6746C347.297 39.2086 345.585 42.9568 342.159 44.2419C337.341 46.0625 331.881 47.3476 325.244 48.0972C323.424 47.6688 322.032 42.1001 323.317 40.4937L335.307 37.281L332.31 31.4981C328.241 24.7513 335.521 15.6486 339.911 19.9322Z" fill="#E6E6E6"/>
<path d="M324.387 46.1695C325.779 45.8482 324.923 41.4575 323.531 41.5646L322.032 41.9929C320.64 41.5646 319.142 41.1362 317.536 40.8149L313.896 41.7788L311.969 42.7426L311.112 42.9568C310.042 43.1709 310.149 44.0277 311.112 44.3489L312.718 44.2419L314.966 43.3851L315.93 43.8135L312.183 46.5979L308.65 46.3837C307.365 46.3837 307.472 47.3475 308.222 47.5617L309.614 47.9901L310.363 48.7397L311.219 49.2751L312.29 49.7035C314.003 49.7035 315.609 49.3822 317 48.9539L320.747 46.705L324.387 46.1695Z" fill="#FFB294"/>
<path d="M314.538 44.9916L311.112 41.886H305.224L304.903 42.5285L309.292 46.4909L312.29 46.7051L314.538 44.9916Z" fill="black"/>
<path d="M314.431 45.0988L311.005 41.9932H305.224L305.01 42.4215L310.684 42.5286L314.003 45.4201L314.431 45.0988Z" fill="#333333"/>
<path d="M473.41 325.785C469.663 326.641 469.021 329.64 470.412 332.21C470.412 332.317 470.519 332.424 470.519 332.424L474.802 338.528L474.909 338.636C476.515 341.313 478.549 342.705 481.332 342.384C481.546 342.384 481.867 342.277 482.081 342.17C484.437 341.099 484.651 339.385 484.009 337.458V333.816C484.009 333.709 482.938 334.031 482.938 334.031L481.653 326.963C481.439 325.892 480.476 325.142 479.298 325.249L473.731 325.785C473.624 325.678 473.517 325.678 473.41 325.785Z" fill="black"/>
<path d="M497.712 323.322V304.152L482.296 300.404C477.478 299.226 472.875 302.867 472.982 307.793C473.196 316.146 474.481 325.249 473.945 332.746C473.945 337.351 481.867 338.636 484.972 335.423C486.15 328.676 487.863 325.035 486.15 318.074L497.712 323.322Z" fill="#0B151A"/>
<path d="M466.558 342.277C467.95 345.061 467.629 349.666 466.558 351.594C463.668 352.45 461.313 352.557 459.814 351.379C454.568 350.737 451.57 351.272 448.894 350.309C446.111 349.345 444.184 348.274 442.899 345.382C442.364 344.097 443.327 341.741 445.682 341.527C450.072 341.634 454.033 341.527 456.174 340.563L460.349 333.924L466.772 339.707L466.558 342.277Z" fill="black"/>
<path d="M466.023 362.195C466.969 362.195 467.736 361.428 467.736 360.482C467.736 359.536 466.969 358.769 466.023 358.769C465.077 358.769 464.31 359.536 464.31 360.482C464.31 361.428 465.077 362.195 466.023 362.195Z" fill="#333333"/>
<path d="M494.607 368.407C494.607 369.371 493.858 370.12 492.894 370.12C491.931 370.12 491.181 369.371 491.181 368.407C491.181 367.443 491.931 366.693 492.894 366.693C493.858 366.693 494.607 367.443 494.607 368.407Z" fill="#333333"/>
<path d="M513.77 357.912C514.716 357.912 515.483 357.145 515.483 356.198C515.483 355.252 514.716 354.485 513.77 354.485C512.824 354.485 512.057 355.252 512.057 356.198C512.057 357.145 512.824 357.912 513.77 357.912Z" fill="#333333"/>
<path d="M502.529 340.349C502.529 341.313 501.78 342.062 500.816 342.062C499.853 342.062 499.103 341.313 499.103 340.349C499.103 339.385 499.853 338.635 500.816 338.635C501.78 338.635 502.529 339.385 502.529 340.349Z" fill="#333333"/>
<path d="M472.018 343.562C472.018 344.525 471.269 345.275 470.305 345.275C469.342 345.275 468.592 344.525 468.592 343.562C468.592 342.598 469.342 341.848 470.305 341.848C471.269 341.848 472.018 342.598 472.018 343.562Z" fill="#333333"/>
<path d="M493.751 350.737L502.208 339.385V338.635H499.746L488.826 349.237C488.077 349.237 487.327 349.344 486.685 349.451L470.626 341.313L468.699 341.741V342.491L482.831 351.7C482.617 352.129 482.51 352.557 482.51 352.985L464.096 358.554V359.304L465.381 360.696L484.972 355.77C485.614 355.984 486.257 356.198 486.899 356.305L491.61 368.299L494.393 368.085V367.443L492.359 355.877C492.68 355.77 492.894 355.663 493.215 355.449C493.537 355.341 493.751 355.127 493.965 354.913L515.269 356.091L515.697 354.485V353.735L494.821 351.807C494.607 351.486 494.286 351.058 493.751 350.737Z" fill="#333333"/>
<path d="M493.751 347.738L502.208 338.635L499.746 337.886L488.826 346.239C488.077 346.239 487.327 346.346 486.685 346.453L470.626 340.563L468.699 341.741L482.831 348.702C482.617 349.13 482.51 349.559 482.51 349.987L464.096 358.554L465.381 359.947L484.972 352.771C485.614 352.986 486.257 353.2 486.899 353.307L491.61 367.55L494.393 367.336L492.359 352.771C492.68 352.664 492.894 352.557 493.215 352.343C493.537 352.236 493.751 352.022 493.965 351.808L515.269 355.235L515.697 353.628L494.821 348.702C494.607 348.488 494.286 348.059 493.751 347.738Z" fill="#999999"/>
<path d="M491.502 333.388C491.395 333.281 491.181 333.067 490.967 332.96C489.682 332.21 487.541 332.21 486.15 332.96C485.936 333.067 485.721 333.281 485.614 333.388H485.186V349.345C485.186 349.88 485.507 350.308 486.15 350.737C487.434 351.486 489.575 351.486 490.967 350.737C491.61 350.308 491.931 349.88 491.931 349.345V333.388H491.502Z" fill="#4D4D4D"/>
<path d="M490.967 331.996C492.252 332.745 492.252 334.031 490.967 334.78C489.682 335.53 487.541 335.53 486.15 334.78C484.865 334.031 484.865 332.745 486.15 331.996C487.541 331.246 489.682 331.246 490.967 331.996Z" fill="#4D4D4D"/>
<path d="M492.894 322.144C492.359 321.608 491.609 321.18 490.646 320.966C489.361 320.644 487.863 320.644 486.578 320.966C485.507 321.287 484.758 321.715 484.33 322.144H483.687V334.245C483.687 335.209 484.651 336.28 486.471 336.815C487.863 337.243 489.361 337.243 490.86 336.815C492.68 336.28 493.644 335.209 493.644 334.245V322.144H492.894Z" fill="#999999"/>
<path d="M490.753 319.573C494.5 320.644 494.5 323.643 490.753 324.714C489.361 325.142 487.863 325.142 486.364 324.714C482.617 323.643 482.617 320.644 486.364 319.573C487.863 319.145 489.361 319.145 490.753 319.573Z" fill="#4D4D4D"/>
<path d="M496.106 349.452L519.551 335.851C519.979 335.637 520.194 335.101 520.194 334.459V331.246C520.194 329.854 519.23 328.248 518.052 327.498L492.038 312.612C491.395 312.291 490.86 312.291 490.539 312.505L467.094 326.106L496.106 349.452Z" fill="black"/>
<path d="M468.592 334.459L494.607 349.345C495.785 349.987 496.748 349.452 496.748 348.059V344.847C496.748 343.455 495.785 341.848 494.607 341.099L468.592 326.213C467.415 325.57 466.451 326.106 466.451 327.498V330.711C466.451 332.103 467.415 333.709 468.592 334.459Z" fill="#333333"/>
<path d="M455.317 340.777C455.317 345.382 464.203 347.417 467.308 344.097C468.485 337.351 469.128 333.067 467.522 325.999L486.899 334.995L504.456 318.288L463.668 308.329C458.85 307.151 454.247 310.792 454.354 315.718C454.568 324.178 455.853 333.281 455.317 340.777Z" fill="#8815AD"/>
<path d="M410.782 310.256C410.782 311.006 411.317 311.97 411.96 312.398C412.281 312.612 412.602 312.612 412.816 312.505L445.468 293.657C445.682 293.55 445.789 293.229 445.789 292.908C445.789 292.158 445.254 291.194 444.612 290.766C444.291 290.552 443.969 290.552 443.755 290.659L411.103 309.4C410.889 309.614 410.782 309.828 410.782 310.256Z" fill="#4D4D4D"/>
<path d="M446.967 314.219C445.896 313.576 444.184 313.576 443.113 314.219C442.578 314.54 442.257 314.968 442.257 315.397V368.086C442.257 368.514 442.578 368.942 443.113 369.264C444.184 369.906 445.896 369.906 446.967 369.264C447.502 368.942 447.823 368.514 447.823 368.086V315.397C447.716 314.968 447.502 314.54 446.967 314.219Z" fill="#4D4D4D"/>
<path d="M507.133 279.307C506.062 278.665 504.349 278.665 503.279 279.307C502.743 279.628 502.422 280.057 502.422 280.485V333.174C502.422 333.602 502.743 334.031 503.279 334.352C504.349 334.995 506.062 334.995 507.133 334.352C507.668 334.031 507.989 333.602 507.989 333.174V280.485C507.882 279.95 507.668 279.628 507.133 279.307Z" fill="#4D4D4D"/>
<path d="M412.495 294.3C411.424 293.657 409.711 293.657 408.641 294.3C408.105 294.621 407.784 295.049 407.784 295.478V348.167C407.784 348.595 408.105 349.023 408.641 349.345C409.711 349.987 411.424 349.987 412.495 349.345C413.03 349.023 413.351 348.595 413.351 348.167V295.478C413.351 294.942 413.03 294.621 412.495 294.3Z" fill="#4D4D4D"/>
<path d="M472.232 259.281C471.162 258.638 469.449 258.638 468.378 259.281C467.843 259.602 467.522 260.031 467.522 260.459V313.148C467.522 313.576 467.843 314.005 468.378 314.326C469.449 314.968 471.162 314.968 472.232 314.326C472.768 314.005 473.089 313.576 473.089 313.148V260.459C473.089 260.031 472.768 259.602 472.232 259.281Z" fill="#4D4D4D"/>
<path d="M509.809 283.162L445.04 320.644L405.643 297.834V294.514L470.305 260.459L509.809 279.95V283.162Z" fill="#333333"/>
<path d="M509.809 279.95L445.04 317.324L405.643 294.514L470.305 257.139L509.809 279.95Z" fill="#999999"/>
<path d="M481.867 286.375L454.889 302.01L437.76 292.158V291.194L464.738 276.523L481.867 285.411V286.375Z" fill="black"/>
<path d="M481.867 285.411L454.889 301.047L437.76 291.194L464.738 275.559L481.867 285.411Z" fill="#1A1A1A"/>
<path d="M442.257 290.23L443.969 289.374L445.147 290.016L443.541 290.98L442.257 290.23Z" fill="#B3B3B3"/>
<path d="M444.184 289.159L445.896 288.195L447.074 288.945L445.468 289.909L444.184 289.159Z" fill="#B3B3B3"/>
<path d="M446.111 288.088L447.823 287.125L449.001 287.874L447.395 288.731L446.111 288.088Z" fill="#B3B3B3"/>
<path d="M448.038 286.91L449.75 285.947L451.035 286.696L449.322 287.66L448.038 286.91Z" fill="#B3B3B3"/>
<path d="M449.965 285.839L451.677 284.875L452.962 285.625L451.249 286.589L449.965 285.839Z" fill="#B3B3B3"/>
<path d="M451.892 284.661L453.605 283.805L454.889 284.447L453.176 285.411L451.892 284.661Z" fill="#B3B3B3"/>
<path d="M453.819 283.591L455.532 282.627L456.816 283.376L455.103 284.34L453.819 283.591Z" fill="#B3B3B3"/>
<path d="M455.746 282.52L457.459 281.556L458.743 282.305L457.03 283.162L455.746 282.52Z" fill="#B3B3B3"/>
<path d="M457.673 281.342L459.386 280.378L460.67 281.128L458.957 282.091L457.673 281.342Z" fill="#B3B3B3"/>
<path d="M459.6 280.271L461.313 279.307L462.597 280.057L460.884 281.02L459.6 280.271Z" fill="#B3B3B3"/>
<path d="M461.527 279.093L463.24 278.129L464.524 278.879L462.811 279.842L461.527 279.093Z" fill="#B3B3B3"/>
<path d="M444.505 291.622L446.218 290.658L447.502 291.408L445.789 292.372L444.505 291.622Z" fill="#B3B3B3"/>
<path d="M446.432 290.444L448.145 289.48L449.429 290.23L447.716 291.194L446.432 290.444Z" fill="#B3B3B3"/>
<path d="M448.359 289.373L450.072 288.41L451.356 289.159L449.643 290.123L448.359 289.373Z" fill="#B3B3B3"/>
<path d="M450.286 288.195L451.999 287.339L453.283 287.981L451.57 288.945L450.286 288.195Z" fill="#B3B3B3"/>
<path d="M452.213 287.124L453.926 286.161L455.21 286.91L453.497 287.874L452.213 287.124Z" fill="#B3B3B3"/>
<path d="M454.14 286.054L455.853 285.09L457.137 285.839L455.424 286.803L454.14 286.054Z" fill="#B3B3B3"/>
<path d="M456.067 284.876L457.78 283.912L459.064 284.662L457.351 285.625L456.067 284.876Z" fill="#B3B3B3"/>
<path d="M458.101 283.805L459.707 282.841L460.991 283.59L459.278 284.554L458.101 283.805Z" fill="#B3B3B3"/>
<path d="M460.028 282.627L461.634 281.77L462.918 282.413L461.205 283.376L460.028 282.627Z" fill="#B3B3B3"/>
<path d="M461.955 281.556L463.561 280.592L464.845 281.342L463.133 282.306L461.955 281.556Z" fill="#B3B3B3"/>
<path d="M463.882 280.485L465.488 279.521L466.772 280.271L465.06 281.127L463.882 280.485Z" fill="#B3B3B3"/>
<path d="M446.004 292.479L447.609 291.515L448.894 292.158L447.288 293.122L446.004 292.479Z" fill="#B3B3B3"/>
<path d="M447.931 291.301L449.536 290.337L450.821 291.087L449.215 292.051L447.931 291.301Z" fill="#B3B3B3"/>
<path d="M449.858 290.23L451.463 289.266L452.748 290.016L451.142 290.98L449.858 290.23Z" fill="#B3B3B3"/>
<path d="M451.785 289.052L453.39 288.088L454.675 288.838L453.069 289.802L451.785 289.052Z" fill="#B3B3B3"/>
<path d="M453.712 287.981L455.317 287.017L456.602 287.767L454.996 288.731L453.712 287.981Z" fill="#B3B3B3"/>
<path d="M455.639 286.91L457.244 285.947L458.529 286.589L456.923 287.553L455.639 286.91Z" fill="#B3B3B3"/>
<path d="M457.566 285.732L459.278 284.769L460.456 285.518L458.85 286.482L457.566 285.732Z" fill="#B3B3B3"/>
<path d="M459.493 284.662L461.205 283.698L462.383 284.447L460.777 285.411L459.493 284.662Z" fill="#B3B3B3"/>
<path d="M461.42 283.483L463.133 282.52L464.31 283.269L462.704 284.233L461.42 283.483Z" fill="#B3B3B3"/>
<path d="M463.347 282.413L465.06 281.449L466.237 282.198L464.631 283.162L463.347 282.413Z" fill="#B3B3B3"/>
<path d="M447.395 293.229L449.108 292.265L450.393 293.015L448.68 293.978L447.395 293.229Z" fill="#B3B3B3"/>
<path d="M449.322 292.158L451.035 291.194L452.32 291.943L450.607 292.907L449.322 292.158Z" fill="#B3B3B3"/>
<path d="M451.249 291.087L452.962 290.123L454.247 290.766L452.534 291.729L451.249 291.087Z" fill="#B3B3B3"/>
<path d="M453.283 289.909L454.889 288.945L456.174 289.695L454.461 290.659L453.283 289.909Z" fill="#B3B3B3"/>
<path d="M455.21 288.838L456.816 287.874L458.101 288.624L456.388 289.588L455.21 288.838Z" fill="#B3B3B3"/>
<path d="M457.137 287.66L458.743 286.696L460.028 287.446L458.315 288.41L457.137 287.66Z" fill="#B3B3B3"/>
<path d="M459.064 286.589L460.67 285.625L461.955 286.375L460.242 287.339L459.064 286.589Z" fill="#B3B3B3"/>
<path d="M460.991 285.518L462.597 284.554L463.882 285.197L462.169 286.161L460.991 285.518Z" fill="#B3B3B3"/>
<path d="M462.918 284.34L464.524 283.376L465.809 284.126L464.096 285.09L462.918 284.34Z" fill="#B3B3B3"/>
<path d="M465.274 281.235L466.772 282.091L464.845 283.269L466.023 284.019L468.057 282.841L468.485 282.627L469.663 281.877L468.592 281.235L468.378 281.128L466.987 280.378L465.274 281.235Z" fill="#B3B3B3"/>
<path d="M451.356 292.693L450.821 293.015L448.894 294.086L450.179 294.835L452.106 293.764L452.641 293.443L453.712 292.8L452.534 292.051L451.356 292.693Z" fill="#B3B3B3"/>
<path d="M452.748 291.837L454.461 290.873L455.639 291.622L454.033 292.586L452.748 291.837Z" fill="#B3B3B3"/>
<path d="M454.675 290.766L456.388 289.802L457.566 290.551L455.96 291.515L454.675 290.766Z" fill="#B3B3B3"/>
<path d="M456.602 289.695L458.315 288.731L459.493 289.374L457.887 290.337L456.602 289.695Z" fill="#B3B3B3"/>
<path d="M458.529 288.517L460.242 287.553L461.42 288.302L459.814 289.266L458.529 288.517Z" fill="#B3B3B3"/>
<path d="M460.456 287.446L462.169 286.482L463.347 287.232L461.741 288.195L460.456 287.446Z" fill="#B3B3B3"/>
<path d="M462.383 286.268L464.096 285.304L465.274 286.054L463.668 287.017L462.383 286.268Z" fill="#B3B3B3"/>
<path d="M464.31 285.197L466.023 284.233L467.308 284.983L465.595 285.946L464.31 285.197Z" fill="#B3B3B3"/>
<path d="M467.95 283.162L467.629 283.269L466.237 284.126L467.522 284.769L468.914 284.019L469.235 283.805L471.162 282.734L469.877 281.984L467.95 283.162Z" fill="#B3B3B3"/>
<path d="M450.393 294.942L451.999 293.978L453.283 294.728L451.57 295.692L450.393 294.942Z" fill="#B3B3B3"/>
<path d="M452.32 293.871L453.926 292.907L455.21 293.55L453.497 294.514L452.32 293.871Z" fill="#B3B3B3"/>
<path d="M454.247 292.693L455.853 291.729L457.137 292.479L455.424 293.443L454.247 292.693Z" fill="#B3B3B3"/>
<path d="M464.631 286.696L463.882 287.124L463.561 287.339L461.955 288.302L461.634 288.41L460.028 289.373L459.707 289.48L458.101 290.444L456.174 291.622L457.351 292.372L459.278 291.194L460.991 290.23L461.205 290.123L462.918 289.159L463.24 288.945L464.845 287.981L465.167 287.874L465.916 287.446L466.772 286.91L465.488 286.161L464.631 286.696Z" fill="#B3B3B3"/>
<path d="M465.809 286.054L467.415 285.09L468.699 285.839L467.094 286.803L465.809 286.054Z" fill="#B3B3B3"/>
<path d="M467.736 284.876L469.342 283.912L470.626 284.662L469.021 285.625L467.736 284.876Z" fill="#B3B3B3"/>
<path d="M469.663 283.805L471.269 282.841L472.553 283.59L470.948 284.554L469.663 283.805Z" fill="#B3B3B3"/>
<path d="M469.021 290.552L463.668 293.657L460.349 291.73L465.702 288.624L469.021 290.552Z" fill="#4D4D4D"/>
<path d="M463.989 275.345L437.76 291.194L437.011 290.873L431.872 271.597L458.85 255.961L459.6 256.282L463.989 275.345Z" fill="black"/>
<path d="M464.738 275.559L437.76 291.194L432.621 271.811L459.6 256.282L464.738 275.559Z" fill="#333333"/>
<path d="M433.585 272.239L459.064 257.46L463.775 275.13L438.295 289.909L433.585 272.239Z" fill="#996DF7"/>
<path d="M439.794 272.346L440.115 273.631L453.926 265.706L453.497 264.421L439.794 272.346Z" fill="#E6E6E6"/>
<path d="M454.782 263.779L453.497 264.421L453.926 265.706L455.103 265.064L454.782 263.779Z" fill="#ED1C24"/>
<path d="M457.78 274.916L455.103 265.064L440.115 273.631L442.685 283.591L457.78 274.916Z" fill="white"/>
<path d="M443.541 281.877C443.434 281.877 443.434 281.877 443.327 281.77C443.22 281.663 443.327 281.556 443.434 281.449L455.96 274.166C456.067 274.059 456.174 274.166 456.281 274.274C456.388 274.381 456.281 274.488 456.174 274.595L443.541 281.877Z" fill="#1A1A1A"/>
<path d="M443.113 280.378C443.006 280.378 443.006 280.378 442.899 280.271C442.792 280.164 442.899 280.057 443.006 279.95L455.531 272.667C455.639 272.56 455.746 272.667 455.853 272.775C455.96 272.882 455.853 272.989 455.746 273.096L443.113 280.378C443.22 280.378 443.113 280.378 443.113 280.378Z" fill="#1A1A1A"/>
<path d="M442.685 278.878C442.578 278.878 442.578 278.878 442.471 278.771C442.364 278.664 442.471 278.557 442.578 278.45L455.103 271.168C455.21 271.061 455.317 271.168 455.424 271.275C455.531 271.382 455.424 271.489 455.317 271.596L442.685 278.878C442.792 278.878 442.792 278.878 442.685 278.878Z" fill="#1A1A1A"/>
<path d="M442.364 277.379C442.257 277.379 442.257 277.379 442.149 277.272C442.042 277.165 442.149 277.058 442.257 276.951L454.782 269.669C454.889 269.562 454.996 269.669 455.103 269.776C455.21 269.883 455.103 269.99 454.996 270.097L442.364 277.379Z" fill="#1A1A1A"/>
<path d="M441.935 275.88C441.828 275.88 441.828 275.88 441.721 275.773C441.614 275.666 441.721 275.559 441.828 275.452L454.354 268.169C454.461 268.062 454.568 268.169 454.675 268.276C454.782 268.384 454.675 268.491 454.568 268.598L441.935 275.88C442.042 275.88 441.935 275.88 441.935 275.88Z" fill="#1A1A1A"/>
<path d="M441.507 274.488C441.4 274.488 441.4 274.488 441.293 274.381C441.186 274.274 441.293 274.167 441.4 274.059L453.926 266.777C454.033 266.67 454.14 266.777 454.247 266.884C454.354 266.991 454.247 267.099 454.14 267.206L441.507 274.488C441.614 274.381 441.614 274.488 441.507 274.488Z" fill="#1A1A1A"/>
<path d="M462.597 303.51L459.707 300.404L457.994 299.976L453.926 296.656L451.999 295.585H451.249H450.179C449.215 295.692 449.001 294.621 449.965 294.3L451.892 294.086L454.033 294.621L454.14 294.086L451.785 292.479L450.393 292.158C449.75 292.158 449.429 291.194 450.286 290.873L451.677 290.766L452.534 290.23C452.962 290.016 453.497 289.909 454.033 289.909L454.996 290.016L456.281 289.267C456.709 289.052 457.244 289.052 457.673 289.267L459.6 290.552L461.848 292.479C461.848 292.479 463.454 292.479 464.417 293.55C465.06 294.3 464.845 296.442 464.845 296.442L467.843 299.654L462.597 303.51Z" fill="#FFB294"/>
<path d="M485.936 281.235L481.546 280.378L476.3 276.094L472.125 274.488L469.449 274.167C469.235 274.167 469.021 274.167 468.914 274.274L468.378 274.488H467.736C467.308 274.488 466.879 274.809 466.665 275.131L465.916 275.452C465.595 275.773 465.702 276.416 466.13 276.416H467.094L468.699 276.951L471.269 278.343L472.661 281.021C472.661 281.021 472.339 281.556 472.232 281.663C471.162 281.984 469.342 281.77 469.342 281.77L468.378 281.556C467.522 281.77 467.094 282.413 467.843 282.841L469.128 283.377L474.052 284.769H479.191L484.33 286.161L485.936 281.235Z" fill="#FFB294"/>
<path d="M484.33 279.628C481.332 280.378 479.833 287.125 483.687 289.052L507.454 291.408V278.879L484.33 279.628Z" fill="#33485B"/>
<path d="M482.081 294.193C485.079 300.511 487.863 310.685 486.471 316.039C485.186 321.073 481.653 329.319 485.614 334.352C491.502 339.385 513.021 331.675 514.734 320.966C515.483 311.756 514.948 301.582 515.483 289.695C515.483 289.695 516.233 279.521 508.739 276.737C506.597 275.88 502.101 277.165 502.101 277.165L490.004 287.018L485.721 288.41L482.081 294.193Z" fill="#8815AD"/>
<path d="M487.97 280.378L484.33 277.701C482.617 276.63 482.296 273.203 482.189 270.74L482.081 265.492L483.259 262.28L495.357 262.708L497.712 271.061L495.571 278.986L487.97 280.378Z" fill="#FFB294"/>
<path d="M488.398 284.019L487.006 277.701L496.641 275.13L499.318 278.986C496.855 282.413 493.43 283.912 488.398 284.019Z" fill="#FFB294"/>
<path d="M486.364 287.125L488.184 283.162C493.108 281.984 497.069 279.307 497.819 277.272L501.245 277.701L500.602 280.271L486.364 287.125Z" fill="white"/>
<path d="M484.33 290.873C484.33 290.873 493.537 287.982 499.853 282.948C503.065 280.378 502.743 277.701 502.743 277.701C502.315 277.058 500.602 276.63 499.103 277.165C498.675 281.128 490.753 284.019 487.113 285.197L484.33 290.873Z" fill="#8815AD"/>
<path d="M482.082 266.349L484.972 269.133C485.4 269.562 485.721 270.204 485.721 270.847L485.936 273.417L487.541 274.809L487.434 277.379C487.434 277.379 490.111 280.913 494.928 279.093C498.354 277.915 497.819 277.272 498.889 271.275C499.639 267.527 499.639 263.886 496.106 260.887C492.894 258.21 486.043 258.317 483.366 260.78C481.974 262.28 480.904 264.636 482.082 266.349Z" fill="black"/>
<path d="M488.077 272.989C488.398 273.524 488.398 274.167 488.398 274.809C488.398 275.345 488.291 275.987 487.97 276.415C487.648 276.844 486.899 277.058 486.471 276.737C485.828 276.201 485.4 273.952 485.614 273.096C485.828 271.703 487.541 272.025 488.077 272.989Z" fill="#FFB294"/>
<path d="M459.386 302.867C458.315 299.868 462.169 295.263 465.488 296.656L473.089 302.867L482.082 294.193C482.082 294.193 485.079 293.122 487.97 296.227C493.644 302.331 489.575 308.114 489.575 308.114C484.544 311.434 479.619 314.326 474.802 316.253C472.875 317.003 470.626 316.575 469.235 315.075C465.274 311.113 461.955 307.044 459.386 302.867Z" fill="#8815AD"/>
<path d="M503.279 294.621L502.85 315.289L497.498 342.705L520.943 329.211C521.05 329.104 521.157 328.997 521.264 328.89C526.724 322.036 532.398 309.935 530.578 284.983C530.471 283.591 529.508 281.984 528.33 281.342C527.688 281.02 527.152 280.913 526.724 281.235C526.724 281.127 503.279 294.621 503.279 294.621Z" fill="black"/>
<path d="M492.573 340.67L495.785 342.491C496.641 343.026 497.391 342.919 497.819 342.384C503.279 335.53 508.953 323.429 507.133 298.476C507.026 297.084 506.062 295.478 504.885 294.835C503.707 294.193 502.743 294.621 502.636 295.906C501.566 311.863 498.782 325.999 490.967 336.601C490.218 337.565 491.074 339.814 492.573 340.67Z" fill="#333333"/>
<path d="M445.896 328.462C445.896 329.212 445.361 330.175 444.719 330.604C444.398 330.818 444.076 330.818 443.862 330.711L411.103 311.756C410.889 311.649 410.782 311.327 410.782 311.006C410.782 310.256 411.317 309.293 411.96 308.864C412.281 308.65 412.602 308.65 412.816 308.757L445.468 327.605C445.789 327.819 445.896 328.034 445.896 328.462Z" fill="#4D4D4D"/>
<path d="M243.239 219.122L243.988 225.976C244.309 227.903 245.38 229.081 246.664 229.831C248.913 231.116 252.231 231.116 254.587 231.116C255.229 231.116 255.871 231.116 256.299 231.223L257.049 223.513L249.662 207.877C245.166 208.948 243.239 213.018 243.239 219.122Z" fill="#8815AD"/>
<path opacity="0.5" d="M246.664 229.831C248.912 231.116 252.231 231.116 254.586 231.116V226.725L246.878 219.55L246.664 229.831Z" fill="#162B35"/>
<path d="M289.808 230.795C289.915 230.688 292.056 227.903 292.056 227.903L294.84 220.514V215.909L289.915 216.552L288.63 221.05L288.416 223.62L288.202 225.012L285.633 228.332L289.808 230.795Z" fill="#FFB294"/>
<path d="M274.392 214.089L289.808 223.191C290.236 223.406 290.772 223.298 290.986 222.87L296.553 213.018C296.767 212.589 296.66 212.054 296.231 211.84L280.815 202.737C280.387 202.523 279.852 202.63 279.638 203.058L274.071 212.911C273.75 213.339 273.964 213.767 274.392 214.089Z" fill="black"/>
<path d="M274.178 213.66L289.594 222.763C290.022 222.977 290.558 222.87 290.772 222.442L296.339 212.589C296.553 212.161 296.446 211.626 296.017 211.411L280.601 202.309C280.173 202.095 279.638 202.202 279.424 202.63L273.857 212.482C273.643 212.911 273.857 213.446 274.178 213.66Z" fill="#333333"/>
<path d="M295.161 212.268L280.387 203.487L275.034 212.804L289.915 221.585L295.161 212.268Z" fill="#996DF7"/>
<path d="M290.665 211.84L290.236 212.589L282.849 208.199L283.278 207.449L290.665 211.84Z" fill="#CCCCCC"/>
<path d="M282.635 207.128L283.278 207.449L282.849 208.199L282.207 207.77L282.635 207.128Z" fill="#ED1C24"/>
<path d="M279.102 213.232L282.207 207.77L290.236 212.589L287.239 218.051L279.102 213.232Z" fill="white"/>
<path d="M286.918 217.087C286.918 217.087 287.025 217.087 287.025 216.98V216.873L280.28 212.911C280.28 212.911 280.173 212.911 280.066 212.911V213.018L286.918 217.087Z" fill="#1A1A1A"/>
<path d="M287.453 216.231C287.453 216.231 287.56 216.231 287.56 216.124V216.017L280.815 212.054C280.815 212.054 280.708 212.054 280.601 212.054V212.161L287.453 216.231C287.346 216.231 287.453 216.231 287.453 216.231Z" fill="#1A1A1A"/>
<path d="M287.881 215.374C287.881 215.374 287.988 215.374 287.988 215.267V215.16L281.244 211.197C281.244 211.197 281.137 211.197 281.029 211.197V211.304L287.881 215.374Z" fill="#1A1A1A"/>
<path d="M288.309 214.624C288.309 214.624 288.416 214.624 288.416 214.517V214.41L281.672 210.448C281.672 210.448 281.565 210.448 281.458 210.448V210.555L288.309 214.624Z" fill="#1A1A1A"/>
<path d="M288.845 213.767C288.845 213.767 288.952 213.767 288.952 213.66V213.553L282.207 209.591C282.207 209.591 282.1 209.591 281.993 209.591V209.698L288.845 213.767C288.738 213.767 288.738 213.767 288.845 213.767Z" fill="#1A1A1A"/>
<path d="M289.273 213.018C289.273 213.018 289.38 213.018 289.38 212.911V212.804L282.635 208.841C282.635 208.841 282.528 208.841 282.421 208.841V208.948L289.273 213.018C289.166 212.911 289.273 213.018 289.273 213.018Z" fill="#1A1A1A"/>
<path d="M292.377 221.156C292.27 221.049 291.628 218.8 291.628 218.8L292.163 215.802C292.163 214.838 291.307 214.731 290.879 215.588L288.952 219.443L288.416 222.442L288.738 224.155L291.521 225.333L292.377 221.156Z" fill="#FFB294"/>
<path d="M263.472 214.838L267.219 214.089L271.716 210.448L275.248 209.055L277.604 208.734C277.818 208.734 277.925 208.734 278.139 208.841L278.567 209.055H279.21C279.638 209.055 279.959 209.27 280.066 209.698L280.708 210.019C281.029 210.233 280.922 210.876 280.494 210.876H279.638L278.246 211.304L275.998 212.482L274.82 214.838C274.82 214.838 275.141 215.374 275.248 215.374C276.105 215.588 277.711 215.481 277.711 215.481L278.46 215.374C279.21 215.588 279.638 216.123 278.888 216.445L277.818 216.873L273.536 218.051H269.146L264.65 219.229L263.472 214.838Z" fill="#FFB294"/>
<path d="M259.297 294.3C263.258 295.157 263.793 298.155 262.402 300.832L258.012 307.044C256.406 309.935 254.158 311.22 251.268 310.792C248.698 309.721 248.27 308.007 249.02 305.973L250.09 302.653L251.803 293.657L259.297 294.3Z" fill="black"/>
<path d="M249.234 302.332C250.411 306.508 258.441 306.294 258.976 300.832L261.117 284.983L261.545 281.663L265.934 263.243L266.898 259.281L263.9 257.568L252.231 250.821C251.589 253.712 251.161 257.782 250.947 262.708C250.732 266.777 250.732 271.489 250.732 276.523C248.591 283.698 248.698 292.801 249.234 302.332Z" fill="#8815AD"/>
<path d="M275.141 312.505C273.75 315.29 274.713 319.681 275.784 321.608C278.567 322.465 280.922 322.572 282.421 321.394C287.667 320.751 290.557 321.287 293.234 320.323C296.017 319.359 297.944 318.395 299.229 315.397C299.764 314.112 298.801 311.756 296.446 311.542C292.056 311.649 288.202 311.542 285.954 310.578L281.886 304.045L275.463 309.721L275.141 312.505Z" fill="black"/>
<path d="M261.652 250.607C262.509 252.856 263.258 255.105 264.115 257.353C264.757 259.281 265.506 261.209 266.149 263.029C267.54 266.992 268.718 270.74 269.681 274.167C270.645 277.487 271.394 280.592 271.823 283.269C271.287 294.193 272.465 304.581 274.82 314.647C278.46 318.503 287.025 315.076 286.81 310.899L285.312 291.408L284.669 283.484C283.92 273.203 282.528 263.779 280.173 255.533L261.652 250.607Z" fill="#8815AD"/>
<path opacity="0.5" d="M251.161 262.601L260.046 269.026C260.046 269.026 261.224 284.233 261.224 284.876L261.652 281.556L266.042 263.136C267.433 267.099 268.611 270.847 269.574 274.274L278.995 277.915L285.205 291.516L284.562 283.591C283.813 273.31 282.421 263.886 280.066 255.64L261.545 250.607C262.402 252.856 263.151 255.105 264.007 257.353L252.338 250.607L251.161 262.601Z" fill="#162B35"/>
<path d="M250.411 238.72C250.518 245.145 249.234 253.605 249.234 253.605C249.983 259.281 260.261 263.993 269.681 264.422C271.073 264.529 272.465 264.422 273.75 264.315C276.64 263.993 279.317 263.244 281.351 261.851C281.458 261.744 281.565 261.637 281.672 261.637C283.385 260.352 284.027 258.317 283.385 256.283C282.1 252.106 279.638 243.432 279.531 237.649C279.531 237.113 279.531 236.578 279.531 236.042C279.852 229.296 280.066 224.691 278.567 221.05C278.032 219.765 277.283 218.587 276.212 217.516C276.212 217.516 269.039 211.733 265.506 208.52C258.548 205.95 254.372 206.699 249.448 207.77C249.448 207.77 246.129 208.948 246.557 218.158C246.878 223.084 250.411 232.401 250.411 238.72Z" fill="#8815AD"/>
<path d="M271.716 190.314C275.891 190.743 276.961 192.349 276.64 196.097C277.604 198.132 274.927 202.844 273.643 205.735C273.214 206.592 272.572 207.77 270.752 207.556C270.11 207.663 269.896 208.199 269.681 208.841C269.253 210.019 269.467 211.304 269.467 211.304C264.543 210.876 260.368 209.805 258.869 206.271L261.117 204.45L264.757 190.207H271.716V190.314Z" fill="#FFB294"/>
<path d="M276.854 197.704C276.212 197.704 275.248 197.275 274.071 199.524C273.643 200.381 273.214 201.345 273.214 201.345L270.859 201.773L269.467 204.772C269.039 205.736 267.54 207.342 266.47 207.342C264.65 207.342 261.866 206.057 260.903 204.879C260.903 204.879 260.046 198.668 260.903 195.776C261.759 192.885 262.402 190.529 265.185 189.244C267.969 187.958 272.572 188.922 274.82 190.314C279.317 193.527 278.139 196.847 276.854 197.704Z" fill="black"/>
<path d="M272.358 202.094C272.572 201.666 272.679 201.238 272.679 200.809C272.679 200.381 272.679 199.952 272.358 199.738C272.037 199.524 271.608 199.524 271.394 199.738C271.073 199.952 270.859 200.274 270.752 200.595C270.324 201.452 270.11 202.523 270.324 203.486C270.431 203.808 270.538 204.129 270.859 204.129C271.18 204.129 271.394 203.915 271.501 203.701C271.93 203.058 272.358 202.416 272.679 201.773L272.358 202.094Z" fill="#FFB294"/>
<path d="M272.037 213.768L269.681 210.448C264.65 210.126 259.725 207.878 258.655 205.843L255.978 207.021L261.545 211.84L272.037 213.768Z" fill="white"/>
<path d="M274.927 216.338C274.927 216.338 265.185 216.016 258.333 212.161C254.801 210.126 254.587 207.985 254.587 207.985C254.372 207.021 256.085 206.164 257.691 206.378C258.762 210.233 267.326 211.84 271.073 212.268L274.927 216.338Z" fill="#8815AD"/>
<path opacity="0.5" d="M269.253 227.903L272.251 251.785L273.964 264.314C276.854 263.993 279.531 263.243 281.565 261.851C281.672 261.744 281.779 261.637 281.886 261.637C283.599 260.352 284.241 258.317 283.599 256.282C282.314 252.106 279.852 243.432 279.745 237.649L269.253 227.903Z" fill="#162B35"/>
<path d="M281.993 229.081L285.419 225.655C288.845 223.191 293.127 226.618 292.163 231.33L284.241 241.29C283.171 242.789 281.351 243.646 279.852 243.86C274.713 243.539 271.93 235.828 269.146 228.332C267.647 220.514 273.75 215.481 278.139 219.765L281.993 229.081Z" fill="#8815AD"/>
<defs>
<linearGradient id="paint0_linear_404_29" x1="162.19" y1="288.885" x2="77.1572" y2="141.652" gradientUnits="userSpaceOnUse">
<stop stop-color="#CB70ED"/>
<stop offset="0.0665041" stop-color="#D07EEF"/>
<stop offset="0.2443" stop-color="#DA9DF3"/>
<stop offset="0.4174" stop-color="#E2B3F6"/>
<stop offset="0.5822" stop-color="#E6C0F8"/>
<stop offset="0.7297" stop-color="#E8C5F9"/>
</linearGradient>
<linearGradient id="paint1_linear_404_29" x1="16.0675" y1="162.381" x2="223.238" y2="162.381" gradientUnits="userSpaceOnUse">
<stop stop-color="#E8C5F9"/>
<stop offset="1" stop-color="#E8C5F9"/>
</linearGradient>
<linearGradient id="paint2_linear_404_29" x1="37.3778" y1="223.393" x2="219.697" y2="161.161" gradientUnits="userSpaceOnUse">
<stop stop-color="#CB70ED"/>
<stop offset="0.5919" stop-color="#CB70ED"/>
<stop offset="0.6702" stop-color="#CE7AEE"/>
<stop offset="0.8016" stop-color="#D794F2"/>
<stop offset="0.9689" stop-color="#E5BEF8"/>
<stop offset="0.9954" stop-color="#E8C5F9"/>
</linearGradient>
<linearGradient id="paint3_linear_404_29" x1="133.739" y1="173.744" x2="171.885" y2="122.263" gradientUnits="userSpaceOnUse">
<stop offset="0.1595" stop-color="#4A135E"/>
<stop offset="0.1653" stop-color="#4B135F"/>
<stop offset="0.388" stop-color="#6C1489"/>
<stop offset="0.5628" stop-color="#8015A3"/>
<stop offset="0.6668" stop-color="#8815AD"/>
<stop offset="0.7233" stop-color="#962FB8"/>
<stop offset="0.8443" stop-color="#BB72D5"/>
<stop offset="0.9811" stop-color="#E8C5F9"/>
</linearGradient>
<linearGradient id="paint4_linear_404_29" x1="144.039" y1="253.343" x2="135.129" y2="237.915" gradientUnits="userSpaceOnUse">
<stop offset="0.273" stop-color="#ECEEF7"/>
<stop offset="0.7703" stop-color="#9C9AA8"/>
</linearGradient>
<linearGradient id="paint5_linear_404_29" x1="139.459" y1="248.447" x2="143.854" y2="240.836" gradientUnits="userSpaceOnUse">
<stop offset="0.2622" stop-color="#393843"/>
<stop offset="0.7811" stop-color="#23222E"/>
</linearGradient>
<linearGradient id="paint6_linear_404_29" x1="140.135" y1="242.808" x2="143.665" y2="243.82" gradientUnits="userSpaceOnUse">
<stop stop-color="#ADAEB8"/>
<stop offset="0.076177" stop-color="#BABCC5"/>
<stop offset="0.1993" stop-color="#C9CBD4"/>
<stop offset="0.3421" stop-color="#D2D4DC"/>
<stop offset="0.5486" stop-color="#D5D7DF"/>
<stop offset="0.6619" stop-color="#C0C1CA"/>
<stop offset="1" stop-color="#868490"/>
</linearGradient>
<linearGradient id="paint7_linear_404_29" x1="141.777" y1="249.499" x2="144.632" y2="248.345" gradientUnits="userSpaceOnUse">
<stop stop-color="#ADAEB8"/>
<stop offset="0.076177" stop-color="#BABCC5"/>
<stop offset="0.1993" stop-color="#C9CBD4"/>
<stop offset="0.3421" stop-color="#D2D4DC"/>
<stop offset="0.5486" stop-color="#D5D7DF"/>
<stop offset="0.6619" stop-color="#C0C1CA"/>
<stop offset="1" stop-color="#868490"/>
</linearGradient>
<linearGradient id="paint8_linear_404_29" x1="136.939" y1="243.672" x2="138.589" y2="240.817" gradientUnits="userSpaceOnUse">
<stop stop-color="#ADAEB8"/>
<stop offset="0.076177" stop-color="#BABCC5"/>
<stop offset="0.1993" stop-color="#C9CBD4"/>
<stop offset="0.3421" stop-color="#D2D4DC"/>
<stop offset="0.5486" stop-color="#D5D7DF"/>
<stop offset="0.6619" stop-color="#C0C1CA"/>
<stop offset="1" stop-color="#868490"/>
</linearGradient>
<linearGradient id="paint9_linear_404_29" x1="69.5775" y1="210.339" x2="60.6672" y2="194.911" gradientUnits="userSpaceOnUse">
<stop offset="0.273" stop-color="#ECEEF7"/>
<stop offset="0.7703" stop-color="#9C9AA8"/>
</linearGradient>
<linearGradient id="paint10_linear_404_29" x1="64.9972" y1="205.442" x2="69.3925" y2="197.832" gradientUnits="userSpaceOnUse">
<stop offset="0.2622" stop-color="#393843"/>
<stop offset="0.7811" stop-color="#23222E"/>
</linearGradient>
<linearGradient id="paint11_linear_404_29" x1="65.6733" y1="199.804" x2="69.2036" y2="200.816" gradientUnits="userSpaceOnUse">
<stop stop-color="#ADAEB8"/>
<stop offset="0.076177" stop-color="#BABCC5"/>
<stop offset="0.1993" stop-color="#C9CBD4"/>
<stop offset="0.3421" stop-color="#D2D4DC"/>
<stop offset="0.5486" stop-color="#D5D7DF"/>
<stop offset="0.6619" stop-color="#C0C1CA"/>
<stop offset="1" stop-color="#868490"/>
</linearGradient>
<linearGradient id="paint12_linear_404_29" x1="67.3152" y1="206.494" x2="70.1707" y2="205.341" gradientUnits="userSpaceOnUse">
<stop stop-color="#ADAEB8"/>
<stop offset="0.076177" stop-color="#BABCC5"/>
<stop offset="0.1993" stop-color="#C9CBD4"/>
<stop offset="0.3421" stop-color="#D2D4DC"/>
<stop offset="0.5486" stop-color="#D5D7DF"/>
<stop offset="0.6619" stop-color="#C0C1CA"/>
<stop offset="1" stop-color="#868490"/>
</linearGradient>
<linearGradient id="paint13_linear_404_29" x1="62.4779" y1="200.669" x2="64.1271" y2="197.813" gradientUnits="userSpaceOnUse">
<stop stop-color="#ADAEB8"/>
<stop offset="0.076177" stop-color="#BABCC5"/>
<stop offset="0.1993" stop-color="#C9CBD4"/>
<stop offset="0.3421" stop-color="#D2D4DC"/>
<stop offset="0.5486" stop-color="#D5D7DF"/>
<stop offset="0.6619" stop-color="#C0C1CA"/>
<stop offset="1" stop-color="#868490"/>
</linearGradient>
</defs>
</svg>
