<svg width="589" height="365" viewBox="0 0 589 365" fill="none" xmlns="http://www.w3.org/2000/svg">
<path d="M218.333 41.1043C207.028 41.1043 197.824 31.8812 197.824 20.5521C197.824 9.22304 207.028 0 218.333 0C229.639 0 238.842 9.22304 238.842 20.5521C238.842 31.8812 229.639 41.1043 218.333 41.1043ZM218.333 2.03343C208.115 2.03343 199.853 10.3124 199.853 20.5521C199.853 30.7919 208.115 39.0708 218.333 39.0708C228.552 39.0708 236.813 30.7919 236.813 20.5521C236.813 10.3124 228.552 2.03343 218.333 2.03343Z" fill="#6F42C1"/>
<path d="M169.85 72.259C158.545 72.259 149.341 63.036 149.341 51.7069C149.341 40.3778 158.545 31.1548 169.85 31.1548C181.155 31.1548 190.359 40.3778 190.359 51.7069C190.359 63.036 181.155 72.259 169.85 72.259ZM169.85 33.1882C159.632 33.1882 151.37 41.4672 151.37 51.7069C151.37 61.9467 159.632 70.2256 169.85 70.2256C180.068 70.2256 188.33 61.9467 188.33 51.7069C188.33 41.4672 180.068 33.1882 169.85 33.1882Z" fill="#6F42C1"/>
<path d="M112.527 111.33C101.221 111.33 92.0176 102.107 92.0176 90.7782C92.0176 79.4491 101.221 70.2261 112.527 70.2261C123.832 70.2261 133.036 79.4491 133.036 90.7782C133.036 102.107 123.832 111.33 112.527 111.33ZM112.527 72.2595C102.308 72.2595 94.0468 80.5385 94.0468 90.7782C94.0468 101.018 102.308 109.297 112.527 109.297C122.745 109.297 131.007 101.018 131.007 90.7782C131.007 80.5385 122.745 72.2595 112.527 72.2595Z" fill="#6F42C1"/>
<path d="M27.6634 207.554C16.358 207.554 7.1543 198.331 7.1543 187.002C7.1543 175.673 16.358 166.45 27.6634 166.45C38.9688 166.45 48.1726 175.673 48.1726 187.002C48.1726 198.331 38.9688 207.554 27.6634 207.554ZM27.6634 168.484C17.4451 168.484 9.18347 176.763 9.18347 187.002C9.18347 197.242 17.4451 205.521 27.6634 205.521C37.8818 205.521 46.1434 197.242 46.1434 187.002C46.1434 176.835 37.8093 168.484 27.6634 168.484Z" fill="#6F42C1"/>
<path d="M20.6341 150.111C9.32875 150.111 0.125 140.888 0.125 129.558C0.125 118.229 9.32875 109.006 20.6341 109.006C31.9395 109.006 41.1433 118.229 41.1433 129.558C41.1433 140.888 31.9395 150.111 20.6341 150.111ZM20.6341 111.04C10.4158 111.04 2.15417 119.319 2.15417 129.558C2.15417 139.798 10.4158 148.077 20.6341 148.077C30.8525 148.077 39.1141 139.798 39.1141 129.558C39.1141 119.319 30.8525 111.04 20.6341 111.04Z" fill="#6F42C1"/>
<path d="M370.666 41.1043C359.361 41.1043 350.157 31.8812 350.157 20.5521C350.157 9.22304 359.361 0 370.666 0C381.972 0 391.175 9.22304 391.175 20.5521C391.175 31.8812 381.972 41.1043 370.666 41.1043ZM370.666 2.03343C360.448 2.03343 352.186 10.3124 352.186 20.5521C352.186 30.7919 360.448 39.0708 370.666 39.0708C380.885 39.0708 389.146 30.7919 389.146 20.5521C389.146 10.3124 380.812 2.03343 370.666 2.03343Z" fill="#6F42C1"/>
<path d="M419.15 72.259C407.844 72.259 398.641 63.036 398.641 51.7069C398.641 40.3778 407.844 31.1548 419.15 31.1548C430.455 31.1548 439.659 40.3778 439.659 51.7069C439.659 63.036 430.455 72.259 419.15 72.259ZM419.15 33.1882C408.931 33.1882 400.67 41.4672 400.67 51.7069C400.67 61.9467 408.931 70.2256 419.15 70.2256C429.368 70.2256 437.63 61.9467 437.63 51.7069C437.63 41.4672 429.368 33.1882 419.15 33.1882Z" fill="#6F42C1"/>
<path d="M476.472 111.33C465.167 111.33 455.963 102.107 455.963 90.7782C455.963 79.4491 465.167 70.2261 476.472 70.2261C487.777 70.2261 496.981 79.4491 496.981 90.7782C496.981 102.107 487.777 111.33 476.472 111.33ZM476.472 72.2595C466.254 72.2595 457.992 80.5385 457.992 90.7782C457.992 101.018 466.254 109.297 476.472 109.297C486.69 109.297 494.952 101.018 494.952 90.7782C494.952 80.5385 486.618 72.2595 476.472 72.2595Z" fill="#6F42C1"/>
<path d="M561.336 207.554C550.031 207.554 540.827 198.331 540.827 187.002C540.827 175.673 550.031 166.45 561.336 166.45C572.642 166.45 581.845 175.673 581.845 187.002C581.845 198.331 572.642 207.554 561.336 207.554ZM561.336 168.484C551.118 168.484 542.856 176.763 542.856 187.002C542.856 197.242 551.118 205.521 561.336 205.521C571.555 205.521 579.816 197.242 579.816 187.002C579.816 176.835 571.555 168.484 561.336 168.484Z" fill="#6F42C1"/>
<path d="M568.366 150.111C557.06 150.111 547.856 140.888 547.856 129.558C547.856 118.229 557.06 109.006 568.366 109.006C579.671 109.006 588.875 118.229 588.875 129.558C588.875 140.888 579.671 150.111 568.366 150.111ZM568.366 111.04C558.147 111.04 549.886 119.319 549.886 129.558C549.886 139.798 558.147 148.077 568.366 148.077C578.584 148.077 586.846 139.798 586.846 129.558C586.846 119.319 578.584 111.04 568.366 111.04Z" fill="#6F42C1"/>
<path d="M251.815 137.692H217.319V40.0874H219.348V135.658H251.815V137.692Z" fill="#6F42C1"/>
<path d="M184.707 165.724H154.56V128.541H168.836V71.2422H170.865V130.575H156.589V163.69H184.707V165.724Z" fill="#6F42C1"/>
<path d="M135.428 192.158H133.399V171.824H111.513V110.313H113.542V169.863H135.428V192.158Z" fill="#6F42C1"/>
<path d="M99.2648 216.85H82.3792V130.574H40.1289V128.541H84.4084V214.816H99.2648V216.85Z" fill="#6F42C1"/>
<path d="M76.654 337.911H26.6494V206.538H28.6786V335.878H76.654V337.911Z" fill="#6F42C1"/>
<path d="M371.681 163.4H337.186V161.439H369.652V40.0874H371.681V163.4Z" fill="#6F42C1"/>
<path d="M434.442 202.543H404.294V200.51H432.412V130.575H418.136V71.2422H420.165V128.541H434.442V202.543Z" fill="#6F42C1"/>
<path d="M455.602 192.158H453.573V169.863H475.459V110.313H477.488V171.824H455.602V192.158Z" fill="#6F42C1"/>
<path d="M506.621 216.85H489.735V214.816H504.592V128.541H548.871V130.574H506.621V216.85Z" fill="#6F42C1"/>
<path d="M562.352 337.911H505.607V335.878H560.323V206.538H562.352V337.911Z" fill="#6F42C1"/>
<path d="M218.406 35.1491C215.217 35.1491 212.608 32.5347 212.608 29.3393C212.608 27.3059 213.623 25.4177 215.362 24.401V9.00509C215.362 7.33477 216.739 5.88232 218.478 5.88232C220.145 5.88232 221.595 7.26215 221.595 9.00509V24.401C223.334 25.4904 224.349 27.3059 224.349 29.3393C224.204 32.5347 221.595 35.1491 218.406 35.1491ZM218.406 7.26215C217.464 7.26215 216.667 8.06099 216.667 9.00509V25.1999L216.304 25.4177C214.855 26.2166 213.913 27.7417 213.913 29.412C213.913 31.8811 215.942 33.9146 218.406 33.9146C220.87 33.9146 222.899 31.8811 222.899 29.412C222.899 27.7417 221.957 26.2166 220.508 25.4177L220.145 25.1999V9.00509C220.145 8.06099 219.348 7.26215 218.406 7.26215Z" fill="#6F42C1"/>
<path d="M175.649 46.4058V43.0652C175.649 39.8698 173.04 37.2554 169.851 37.2554C166.662 37.2554 164.053 39.8698 164.053 43.0652V46.4058H161.082V63.7625H178.547V46.4058H175.649ZM167.242 43.0652C167.242 41.6127 168.402 40.4508 169.851 40.4508C171.3 40.4508 172.46 41.6127 172.46 43.0652V46.4058H167.17V43.0652H167.242Z" fill="#6F42C1"/>
<path d="M112.526 105.956L101.873 100.146V83.1526C101.873 81.7728 103.033 80.5382 105.207 79.6667C107.163 78.8679 109.772 78.4321 112.526 78.4321C118.614 78.4321 123.179 80.4656 123.179 83.1526V100.146L112.526 105.956ZM103.25 99.3474L112.526 104.431L121.802 99.3474V83.1526C121.802 81.5549 117.961 79.7393 112.526 79.7393C107.091 79.7393 103.25 81.5549 103.25 83.1526V99.3474Z" fill="#6F42C1"/>
<path d="M29.6204 125.564C29.4029 125.564 29.1855 125.564 28.9681 125.636C29.4029 125.056 29.6204 124.402 29.6204 123.676C29.6204 121.86 28.0985 120.335 26.2867 120.335C25.8519 120.335 25.4895 120.408 25.1272 120.553C25.1997 120.335 25.1997 120.045 25.1997 119.827C25.1997 117.503 23.3154 115.542 20.9239 115.542C18.5324 115.542 16.6481 117.43 16.6481 119.827C16.6481 120.19 16.7206 120.626 16.7931 120.989C16.4307 120.843 15.9959 120.771 15.6336 120.771C13.6044 120.771 12.01 122.368 12.01 124.402C12.01 124.838 12.0825 125.273 12.2999 125.709C12.0825 125.637 11.7926 125.636 11.5752 125.636C9.83592 125.636 8.45898 127.016 8.45898 128.759C8.45898 130.502 9.83592 131.882 11.5752 131.882C13.3145 131.882 27.8086 131.882 29.5479 131.882C31.2872 131.882 32.6641 130.502 32.6641 128.759C32.8091 126.944 31.3596 125.564 29.6204 125.564Z" fill="#6F42C1"/>
<path d="M37.9559 193.756V190.125H36.2891C36.1441 189.544 35.9267 189.036 35.6368 188.527L36.7964 187.365L34.2599 184.824L33.1004 185.986C32.5931 185.695 32.0858 185.477 31.506 185.332V183.734H27.8825V185.405C27.3027 185.55 26.7954 185.768 26.2881 186.058L25.1286 184.896L22.5921 187.438L23.7517 188.6C23.4618 189.108 23.2444 189.617 23.0994 190.198H21.4326V193.829H23.0994C23.2444 194.41 23.4618 194.918 23.7517 195.427L22.5921 196.589L25.1286 199.13L26.2881 197.968C26.7954 198.259 27.3027 198.477 27.8825 198.622V200.292H31.506V198.622C32.0858 198.477 32.5931 198.259 33.1004 197.968L34.2599 199.13L36.7964 196.589L35.6368 195.427C35.9267 194.918 36.1441 194.41 36.2891 193.829H37.9559V193.756ZM29.7667 195.136C28.0274 195.136 26.578 193.684 26.578 191.941C26.578 190.198 28.0274 188.745 29.7667 188.745C31.506 188.745 32.9554 190.198 32.9554 191.941C32.9554 193.684 31.506 195.136 29.7667 195.136Z" fill="#6F42C1"/>
<path d="M23.8973 184.679V183.589C24.2597 183.517 24.622 183.372 24.9119 183.154L25.6366 183.88L27.3035 182.21L26.5787 181.483C26.7237 181.193 26.8686 180.83 27.0136 180.467H28.1006V178.143H27.0136C26.9411 177.78 26.7962 177.417 26.5787 177.126L27.3035 176.4L25.6366 174.73L24.9119 175.456C24.622 175.238 24.2597 175.165 23.8973 175.02V173.931H21.5783V175.02C21.2159 175.093 20.8536 175.238 20.5637 175.456L19.839 174.73L18.1722 176.4L18.8969 177.126C18.6795 177.417 18.607 177.78 18.4621 178.143H17.375V180.467H18.4621C18.5345 180.83 18.6795 181.193 18.8969 181.483L18.1722 182.21L19.839 183.88L20.5637 183.154C20.8536 183.372 21.2159 183.444 21.5783 183.589V184.679H23.8973ZM20.6362 179.305C20.6362 178.143 21.5783 177.199 22.7378 177.199C23.8973 177.199 24.8395 178.143 24.8395 179.305C24.8395 180.467 23.8973 181.411 22.7378 181.411C21.5783 181.411 20.6362 180.467 20.6362 179.305Z" fill="#6F42C1"/>
<path d="M426.832 64.6341C426.832 65.4329 423.281 66.0865 418.86 66.0865C414.44 66.0865 410.889 65.4329 410.889 64.6341C410.889 63.8352 414.44 63.1816 418.86 63.1816C423.281 63.2543 426.832 63.9079 426.832 64.6341Z" fill="#6F42C1"/>
<path d="M418.861 37.9077C414.441 37.9077 410.89 41.4662 410.89 45.8962C410.89 46.9855 411.107 48.0748 411.542 49.0189C411.614 49.1642 411.687 49.3094 411.759 49.4547L418.861 64.5601L425.891 49.5999C426.471 48.5106 426.833 47.2034 426.833 45.8236C426.833 41.4662 423.282 37.9077 418.861 37.9077ZM418.861 51.2702C415.89 51.2702 413.499 48.8737 413.499 45.8962C413.499 42.9187 415.89 40.5221 418.861 40.5221C421.833 40.5221 424.224 42.9187 424.224 45.8962C424.224 48.8737 421.833 51.2702 418.861 51.2702Z" fill="#6F42C1"/>
<path d="M422.845 45.8969C422.845 48.1482 421.033 49.9638 418.787 49.9638C416.54 49.9638 414.729 48.1482 414.729 45.8969C414.729 43.6456 416.54 41.8301 418.787 41.8301C421.106 41.9027 422.845 43.7183 422.845 45.8969Z" fill="#6F42C1"/>
<path d="M555.612 195.499C555.612 196.371 554.887 197.024 554.09 197.024C553.221 197.024 552.568 196.298 552.568 195.499C552.568 194.628 553.293 193.974 554.09 193.974C554.96 193.974 555.612 194.7 555.612 195.499Z" fill="#6F42C1"/>
<path d="M552.494 190.561C556.045 190.561 558.944 193.466 558.944 197.025H561.046C561.046 192.304 557.205 188.383 552.422 188.383V190.561H552.494Z" fill="#6F42C1"/>
<path d="M552.494 185.042C559.089 185.042 564.524 190.416 564.524 197.097H566.916C566.916 189.109 560.466 182.646 552.494 182.646V185.042Z" fill="#6F42C1"/>
<path d="M552.494 179.595C562.133 179.595 569.96 187.439 569.96 197.097H572.568C572.568 185.986 563.582 176.981 552.494 176.981V179.595Z" fill="#6F42C1"/>
<path d="M572.569 138.201C572.134 138.418 571.699 138.564 571.265 138.709C571.699 138.346 572.062 137.91 572.424 137.474L572.207 135.731C571.337 137.039 570.25 138.128 568.946 138.927V134.061C570.033 134.134 571.047 134.352 572.062 134.715L571.917 133.407C570.975 133.117 569.96 132.899 568.946 132.826V129.413H574.163C574.091 130.357 573.946 131.301 573.729 132.245L574.743 133.117C575.106 131.955 575.323 130.72 575.395 129.486H578.512C578.367 131.447 577.714 133.262 576.7 134.715L577.642 135.441C578.947 133.553 579.744 131.301 579.744 128.832C579.744 125.855 578.657 123.168 576.772 121.134L576.338 120.699C574.453 118.81 572.062 117.721 569.525 117.431H569.453C569.308 117.431 569.163 117.431 568.946 117.431H568.873C568.801 117.431 568.728 117.431 568.656 117.431C568.366 117.431 568.148 117.431 567.859 117.358C567.786 117.358 567.714 117.358 567.641 117.431C567.641 117.431 567.641 117.431 567.569 117.431C567.424 117.431 567.279 117.431 567.061 117.431H566.989C564.38 117.721 561.988 118.81 560.177 120.699L559.742 121.134C557.93 123.168 556.771 125.855 556.771 128.832C556.771 131.81 557.858 134.497 559.742 136.53L560.177 136.966C562.061 138.854 564.452 139.943 566.989 140.234H567.061C567.206 140.234 567.351 140.234 567.569 140.234C567.569 140.234 567.569 140.234 567.641 140.234C567.714 140.234 567.786 140.307 567.859 140.307C568.148 140.307 568.366 140.307 568.656 140.234C568.728 140.234 568.801 140.234 568.873 140.234H568.946C569.091 140.234 569.235 140.234 569.453 140.234H569.525C570.612 140.089 571.627 139.871 572.642 139.435L572.569 138.201ZM578.584 128.251H575.468C575.395 126.436 574.961 124.765 574.308 123.24C574.888 122.877 575.468 122.441 575.975 122.006C577.497 123.676 578.439 125.855 578.584 128.251ZM575.106 121.134C574.671 121.497 574.236 121.86 573.729 122.151C573.076 120.989 572.207 119.9 571.192 119.028C572.714 119.464 574.019 120.19 575.106 121.134ZM569.018 118.883C570.54 119.827 571.844 121.207 572.714 122.805C571.554 123.313 570.323 123.676 569.018 123.749V118.883ZM569.018 124.911C570.467 124.838 571.917 124.475 573.221 123.821C573.801 125.201 574.163 126.654 574.236 128.251H569.018V124.911ZM565.467 119.028C564.452 119.9 563.655 120.989 562.93 122.151C562.423 121.86 561.988 121.497 561.554 121.134C562.713 120.19 564.018 119.464 565.467 119.028ZM560.756 122.006C561.264 122.441 561.843 122.877 562.423 123.24C561.771 124.765 561.336 126.508 561.264 128.251H558.147C558.292 125.855 559.235 123.676 560.756 122.006ZM558.147 129.413H561.264C561.336 131.229 561.771 132.899 562.423 134.424C561.843 134.787 561.264 135.223 560.756 135.659C559.235 134.061 558.292 131.882 558.147 129.413ZM561.626 136.53C562.061 136.167 562.496 135.804 563.003 135.514C563.655 136.675 564.525 137.765 565.539 138.636C564.018 138.273 562.713 137.547 561.626 136.53ZM567.714 138.854C566.192 137.91 564.887 136.53 564.018 134.933C565.177 134.424 566.409 134.061 567.714 133.988V138.854ZM567.714 132.826C566.264 132.899 564.815 133.262 563.51 133.916C562.931 132.536 562.568 131.084 562.496 129.486H567.714V132.826ZM567.714 128.251H562.496C562.568 126.654 562.931 125.201 563.51 123.821C564.815 124.475 566.264 124.838 567.714 124.911V128.251ZM567.714 123.676C566.409 123.603 565.177 123.313 564.018 122.732C564.887 121.134 566.192 119.754 567.714 118.81V123.676Z" fill="#6F42C1"/>
<path d="M578.367 137.039L572.569 132.246L573.511 139.726L575.251 138.782L576.845 141.687L578.294 140.888L576.7 137.983L578.367 137.039Z" fill="#6F42C1"/>
<path d="M486.403 85.7667C484.591 82.1355 480.823 79.5938 476.475 79.5938C470.822 79.5938 466.111 83.8785 465.459 89.3978H468.213C468.865 85.4035 472.344 82.3534 476.475 82.3534C480.098 82.3534 483.142 84.6773 484.374 87.8727L482.852 89.3978H484.809H487.562H488.07V84.169L486.403 85.7667Z" fill="#6F42C1"/>
<path d="M476.474 99.2016C472.85 99.2016 469.807 96.8777 468.575 93.6823L470.169 92.1572H468.212H465.458H464.951V97.386L466.545 95.7883C468.357 99.4195 472.126 101.961 476.474 101.961C482.127 101.961 486.837 97.6765 487.489 92.1572H484.736C484.083 96.0788 480.605 99.2016 476.474 99.2016Z" fill="#6F42C1"/>
<path d="M112.526 79.1582V105.23L122.527 99.7829V83.2251C122.527 80.9738 118.034 79.1582 112.526 79.1582Z" fill="#6F42C1"/>
<path d="M218.406 36.166H216.015V37.5458H218.406V36.166Z" fill="#6F42C1"/>
<path d="M218.406 32.7529H216.015V34.1328H218.406V32.7529Z" fill="#6F42C1"/>
<path d="M218.406 29.2671H216.015V30.6469H218.406V29.2671Z" fill="#6F42C1"/>
<path d="M218.406 25.7808H216.015V27.1606H218.406V25.7808Z" fill="#6F42C1"/>
<path d="M13.7492 136.603C13.7492 137.256 13.1694 137.837 12.5172 137.837C11.8649 137.837 11.2852 137.256 11.2852 136.603C11.2852 135.949 11.8649 133.771 12.5172 133.771C13.2419 133.771 13.7492 135.949 13.7492 136.603Z" fill="#6F42C1"/>
<path d="M19.1847 136.603C19.1847 137.256 18.6049 137.837 17.9527 137.837C17.3005 137.837 16.7207 137.256 16.7207 136.603C16.7207 135.949 17.3005 133.771 17.9527 133.771C18.6049 133.771 19.1847 135.949 19.1847 136.603Z" fill="#6F42C1"/>
<path d="M24.548 136.603C24.548 137.256 23.9682 137.837 23.316 137.837C22.6637 137.837 22.084 137.256 22.084 136.603C22.084 135.949 22.6637 133.771 23.316 133.771C23.9682 133.771 24.548 135.949 24.548 136.603Z" fill="#6F42C1"/>
<path d="M29.9103 136.603C29.9103 137.256 29.3305 137.837 28.6783 137.837C28.0261 137.837 27.4463 137.256 27.4463 136.603C27.4463 135.949 28.0261 133.771 28.6783 133.771C29.403 133.771 29.9103 135.949 29.9103 136.603Z" fill="#6F42C1"/>
<path d="M16.5031 141.686C16.5031 142.34 15.9233 142.921 15.2711 142.921C14.6188 142.921 14.0391 142.34 14.0391 141.686C14.0391 141.033 14.6188 138.854 15.2711 138.854C15.9233 138.854 16.5031 141.033 16.5031 141.686Z" fill="#6F42C1"/>
<path d="M21.8654 141.686C21.8654 142.34 21.2856 142.921 20.6334 142.921C19.9811 142.921 19.4014 142.34 19.4014 141.686C19.4014 141.033 19.9811 138.854 20.6334 138.854C21.2856 138.854 21.8654 141.033 21.8654 141.686Z" fill="#6F42C1"/>
<path d="M27.2277 141.686C27.2277 142.34 26.6479 142.921 25.9957 142.921C25.3434 142.921 24.7637 142.34 24.7637 141.686C24.7637 141.033 25.3434 138.854 25.9957 138.854C26.6479 138.854 27.2277 141.033 27.2277 141.686Z" fill="#6F42C1"/>
<path d="M381.029 28.5409C380.522 29.7755 378.275 30.9374 377.261 31.0101C376.246 31.0827 376.246 31.8089 370.738 29.4124C365.303 27.0158 361.969 21.206 361.752 20.7703C361.462 20.4072 359.65 17.7202 359.723 15.0331C359.795 12.3461 361.317 11.0389 361.824 10.5306C362.332 10.0222 362.912 9.87695 363.274 9.87695C363.636 9.87695 363.999 9.94958 364.288 9.94958C364.578 9.94958 365.086 9.80433 365.448 10.8937C365.883 11.983 366.825 14.7427 366.97 15.0331C367.115 15.3236 367.187 15.6141 366.97 15.9772C366.752 16.3403 366.68 16.5582 366.39 16.8487C366.1 17.1392 365.81 17.5749 365.52 17.7928C365.231 18.0833 364.941 18.3738 365.231 18.8821C365.52 19.4631 366.535 21.2787 368.129 22.8037C370.159 24.7645 371.898 25.4181 372.405 25.7086C372.912 25.9991 373.275 25.9991 373.565 25.636C373.927 25.2729 375.014 24.1109 375.376 23.53C375.739 23.0216 376.101 23.0942 376.608 23.3121C377.116 23.53 379.725 24.9098 380.304 25.2003C380.812 25.4908 381.174 25.636 381.319 25.8539C381.609 26.217 381.536 27.3063 381.029 28.5409Z" fill="#6F42C1"/>
<path d="M349.65 199.639H178.112L187.533 153.451H340.229L349.65 199.639Z" fill="#361F68"/>
<path d="M263.193 129.559L181.664 194.628H344.795L263.193 129.559Z" fill="#361F68"/>
<path d="M478.937 192.812H110.062L64.9131 286.059H524.086L478.937 192.812Z" fill="#361F68"/>
<g opacity="0.2">
<path d="M79.4067 256.212L78.8994 257.229H510.099L509.591 256.212H79.4067Z" fill="#0C0911"/>
<path d="M81.6538 251.564L81.1465 252.581H507.853L507.345 251.564H81.6538Z" fill="#0C0911"/>
<path d="M83.8999 246.916L83.3926 247.933H505.605L505.098 246.916H83.8999Z" fill="#0C0911"/>
<path d="M77.0881 260.932L76.6533 261.949H512.346L511.911 260.932H77.0881Z" fill="#0C0911"/>
<path d="M70.3481 274.875L69.8408 275.892H519.158L518.65 274.875H70.3481Z" fill="#0C0911"/>
<path d="M88.3928 237.548L87.958 238.565H501.04L500.605 237.548H88.3928Z" fill="#0C0911"/>
<path d="M520.897 279.596H68.102L67.5947 280.613H521.405L520.897 279.596Z" fill="#0C0911"/>
<path d="M72.5952 270.228L72.0879 271.245H516.912L516.404 270.228H72.5952Z" fill="#0C0911"/>
<path d="M74.8413 265.58L74.334 266.597H514.664L514.157 265.58H74.8413Z" fill="#0C0911"/>
<path d="M86.1479 242.196L85.6406 243.213H503.36L502.853 242.196H86.1479Z" fill="#0C0911"/>
<path d="M104.265 204.868L103.758 205.884H485.242L484.735 204.868H104.265Z" fill="#0C0911"/>
<path d="M106.511 200.22L106.004 201.236H482.995L482.488 200.22H106.511Z" fill="#0C0911"/>
<path d="M102.018 209.588L101.511 210.532H487.488L486.981 209.588H102.018Z" fill="#0C0911"/>
<path d="M108.758 195.572L108.323 196.589H480.676L480.242 195.572H108.758Z" fill="#0C0911"/>
<path d="M92.9594 228.252L92.4521 229.269H496.547L496.04 228.252H92.9594Z" fill="#0C0911"/>
<path d="M90.7133 232.9L90.2061 233.917H498.794L498.287 232.9H90.7133Z" fill="#0C0911"/>
<path d="M99.6995 214.236L99.2646 215.253H489.735L489.301 214.236H99.6995Z" fill="#0C0911"/>
<path d="M95.2065 223.532L94.6992 224.548H494.301L493.794 223.532H95.2065Z" fill="#0C0911"/>
<path d="M97.4526 218.884L96.9453 219.9H491.982L491.547 218.884H97.4526Z" fill="#0C0911"/>
</g>
<path opacity="0.2" d="M198.477 226.436L202.752 192.812H146.588L178.113 254.033L198.477 226.436Z" fill="#0C0911"/>
<path d="M401.176 282.864H349.649V286.132H401.176V282.864Z" fill="#8815AD"/>
<path opacity="0.2" d="M401.176 282.864H349.649V286.132H401.176V282.864Z" fill="#0C0911"/>
<path d="M268.483 199.638H178.112V254.541H268.483V199.638Z" fill="#B0B0B0"/>
<path opacity="0.2" d="M268.484 199.638H249.352V254.541H268.484V199.638Z" fill="#0C0911"/>
<path d="M268.483 203.923H178.112V204.577H268.483V203.923Z" fill="#CFCFCF"/>
<path d="M268.483 206.61H178.112V207.264H268.483V206.61Z" fill="#CFCFCF"/>
<path d="M268.483 209.298H178.112V209.951H268.483V209.298Z" fill="#CFCFCF"/>
<path d="M268.483 211.984H178.112V212.638H268.483V211.984Z" fill="#CFCFCF"/>
<path d="M268.483 214.745H178.112V215.398H268.483V214.745Z" fill="#CFCFCF"/>
<path d="M268.483 217.431H178.112V218.085H268.483V217.431Z" fill="#CFCFCF"/>
<path d="M268.483 220.119H178.112V220.772H268.483V220.119Z" fill="#CFCFCF"/>
<path d="M268.483 222.805H178.112V223.459H268.483V222.805Z" fill="#CFCFCF"/>
<path d="M268.483 225.492H178.112V226.146H268.483V225.492Z" fill="#CFCFCF"/>
<path d="M268.483 228.18H178.112V228.833H268.483V228.18Z" fill="#CFCFCF"/>
<path d="M268.483 230.866H178.112V231.52H268.483V230.866Z" fill="#CFCFCF"/>
<path d="M268.483 233.626H178.112V234.28H268.483V233.626Z" fill="#CFCFCF"/>
<path d="M268.483 236.313H178.112V236.967H268.483V236.313Z" fill="#CFCFCF"/>
<path d="M268.483 239H178.112V239.654H268.483V239Z" fill="#CFCFCF"/>
<path d="M268.483 241.687H178.112V242.341H268.483V241.687Z" fill="#CFCFCF"/>
<path d="M268.483 244.374H178.112V245.028H268.483V244.374Z" fill="#CFCFCF"/>
<path d="M268.483 247.062H178.112V247.715H268.483V247.062Z" fill="#CFCFCF"/>
<path d="M268.483 249.748H178.112V250.402H268.483V249.748Z" fill="#CFCFCF"/>
<path d="M268.483 252.508H178.112V253.162H268.483V252.508Z" fill="#CFCFCF"/>
<path d="M246.597 207.409H199.998V251.055H246.597V207.409Z" fill="white"/>
<path d="M240.219 213.292H206.303V245.101H240.219V213.292Z" fill="#F3A402"/>
<path d="M223.261 213.292H206.303V245.101H223.261V213.292Z" fill="#F3A402"/>
<path d="M223.333 242.341V241.542H215.289V236.095H223.333V235.297H215.289V229.85H223.333V228.978H215.289V223.604H223.333V222.733H215.289V217.359H223.333V216.487H215.289V213.292H214.347V216.487H206.303V217.359H214.347V222.733H206.303V223.604H214.347V228.978H206.303V229.85H214.347V235.297H206.303V236.095H214.347V241.542H206.303V242.341H214.347V245.101H215.289V242.341H223.333Z" fill="#F3A402"/>
<path d="M224.711 213.292H221.885V245.101H224.711V213.292Z" fill="white"/>
<path d="M268.483 191.359H178.112V199.638H268.483V191.359Z" fill="#8815AD"/>
<path opacity="0.2" d="M268.483 199.638H178.112V201.526H268.483V199.638Z" fill="#0C0911"/>
<path opacity="0.2" d="M203.767 178.215H201.883V191.432H203.767V178.215Z" fill="#0C0911"/>
<path opacity="0.2" d="M244.713 145.971H242.829V191.36H244.713V145.971Z" fill="#0C0911"/>
<path opacity="0.2" d="M224.205 161.003H222.32V191.36H224.205V161.003Z" fill="#0C0911"/>
<path opacity="0.2" d="M264.788 131.664H262.903V192.158H264.788V131.664Z" fill="#0C0911"/>
<path d="M274.643 146.552H253.119V173.785H274.643V146.552Z" fill="#996DF7"/>
<path d="M263.556 152.507L257.033 157.736V169.355H270.658V158.099L263.556 152.507Z" fill="#CFCFCF"/>
<path opacity="0.2" d="M285.66 145.971H283.775V191.36H285.66V145.971Z" fill="#0C0911"/>
<g opacity="0.2">
<path d="M207.028 191.359H201.375V205.23H207.028V191.359Z" fill="#0C0911"/>
<path d="M227.536 191.359H221.884V205.23H227.536V191.359Z" fill="#0C0911"/>
<path d="M248.046 191.359H242.394V205.23H248.046V191.359Z" fill="#0C0911"/>
</g>
<path d="M205.651 191.359H199.998V203.487H205.651V191.359Z" fill="#8815AD"/>
<path d="M226.16 191.359H220.508V203.487H226.16V191.359Z" fill="#8815AD"/>
<path d="M246.597 191.359H240.944V203.487H246.597V191.359Z" fill="#8815AD"/>
<path d="M503.215 267.904L455.457 229.777L407.699 267.904H503.215Z" fill="#361F68"/>
<path d="M172.025 286.059H77.4512V365H172.025V286.059Z" fill="#969ECC"/>
<path d="M171.952 286.059H86.5098V365H171.952V286.059Z" fill="#D9CDF9"/>
<path d="M187.896 286.059H172.025V365H187.896V286.059Z" fill="#CFCFCF"/>
<path d="M466.472 232.464H444.948V259.698H466.472V232.464Z" fill="#996DF7"/>
<path d="M455.457 238.347L448.935 243.575V255.195H462.559V244.011L455.457 238.347Z" fill="#CFCFCF"/>
<path d="M353.563 286.059H187.896V365H353.563V286.059Z" fill="#D9CDF9"/>
<path d="M330.083 296.808H194.708V364.564H330.083V296.808Z" fill="#59658B"/>
<path d="M187.896 335.443H172.025V365H187.896V335.443Z" fill="#716580"/>
<path d="M353.563 335.443H330.083V365H353.563V335.443Z" fill="#716580"/>
<path d="M401.176 286.132H353.562V358.754H401.176V286.132Z" fill="#D9CDF9"/>
<path opacity="0.3" d="M401.176 356.503H353.562V358.754H401.176V356.503Z" fill="#0C0911"/>
<path d="M397.335 289.618H357.331V298.478H397.335V289.618Z" fill="#F3A402"/>
<path d="M377.405 301.673H353.562V356.503H377.405V301.673Z" fill="#361F68"/>
<path d="M395.234 301.673H381.537V333.264H395.234V301.673Z" fill="#F3A402"/>
<path d="M372.985 305.522H357.983V315.907H372.985V305.522Z" fill="#F3A402"/>
<path opacity="0.2" d="M363.636 318.739H357.983V349.676H363.636V318.739Z" fill="#0C0911"/>
<path opacity="0.2" d="M372.912 318.739H367.26V349.676H372.912V318.739Z" fill="#0C0911"/>
<path d="M166.372 296.372H92.0898V365H166.372V296.372Z" fill="#59658B"/>
<path d="M102.887 298.405H97.8145V305.522H102.887V298.405Z" fill="#0C0911"/>
<path d="M109.989 298.405H104.916V305.522H109.989V298.405Z" fill="#0C0911"/>
<path d="M117.019 298.405H111.946V305.522H117.019V298.405Z" fill="#0C0911"/>
<path d="M124.122 298.405H119.049V305.522H124.122V298.405Z" fill="#0C0911"/>
<path d="M139.485 298.405H134.412V305.522H139.485V298.405Z" fill="#0C0911"/>
<path d="M146.515 298.405H141.442V305.522H146.515V298.405Z" fill="#0C0911"/>
<path d="M153.617 298.405H148.544V305.522H153.617V298.405Z" fill="#0C0911"/>
<path d="M160.646 298.405H155.573V305.522H160.646V298.405Z" fill="#0C0911"/>
<g opacity="0.2">
<path d="M124.775 319.611H97.0908V309.226H124.775V319.611ZM98.4678 318.231H123.398V310.533H98.4678V318.231Z" fill="#59658B"/>
<path d="M124.775 333.118H97.0908V322.733H124.775V333.118ZM98.4678 331.739H123.398V324.041H98.4678V331.739Z" fill="#59658B"/>
<path d="M124.775 346.626H97.0908V336.241H124.775V346.626ZM98.4678 345.246H123.398V337.548H98.4678V345.246Z" fill="#59658B"/>
<path d="M124.775 360.134H97.0908V349.749H124.775V360.134ZM98.4678 358.754H123.398V351.056H98.4678V358.754Z" fill="#59658B"/>
</g>
<g opacity="0.2">
<path d="M161.371 319.611H133.688V309.226H161.371V319.611ZM135.064 318.231H159.994V310.533H135.064V318.231Z" fill="#59658B"/>
<path d="M161.371 333.118H133.688V322.733H161.371V333.118ZM135.064 331.739H159.994V324.041H135.064V331.739Z" fill="#59658B"/>
<path d="M161.371 346.626H133.688V336.241H161.371V346.626ZM135.064 345.246H159.994V337.548H135.064V345.246Z" fill="#59658B"/>
<path d="M161.371 360.134H133.688V349.749H161.371V360.134ZM135.064 358.754H159.994V351.056H135.064V358.754Z" fill="#59658B"/>
</g>
<path d="M204.203 298.405H199.13V305.522H204.203V298.405Z" fill="#0C0911"/>
<path d="M211.304 298.405H206.231V305.522H211.304V298.405Z" fill="#0C0911"/>
<path d="M218.407 298.405H213.334V305.522H218.407V298.405Z" fill="#0C0911"/>
<path d="M225.437 298.405H220.364V305.522H225.437V298.405Z" fill="#0C0911"/>
<g opacity="0.2">
<path d="M226.162 319.612H198.479V309.227H226.162V319.612ZM199.855 318.232H224.785V310.534H199.855V318.232Z" fill="#59658B"/>
<path d="M226.162 333.119H198.479V322.734H226.162V333.119ZM199.855 331.74H224.785V324.042H199.855V331.74Z" fill="#59658B"/>
<path d="M226.162 346.627H198.479V336.242H226.162V346.627ZM199.855 345.247H224.785V337.549H199.855V345.247Z" fill="#59658B"/>
<path d="M226.162 360.135H198.479V349.75H226.162V360.135ZM199.855 358.755H224.785V351.057H199.855V358.755Z" fill="#59658B"/>
</g>
<path d="M237.611 298.405H232.538V305.522H237.611V298.405Z" fill="#0C0911"/>
<path d="M244.714 298.405H239.641V305.522H244.714V298.405Z" fill="#0C0911"/>
<path d="M251.743 298.405H246.67V305.522H251.743V298.405Z" fill="#0C0911"/>
<path d="M258.845 298.405H253.772V305.522H258.845V298.405Z" fill="#0C0911"/>
<g opacity="0.2">
<path d="M259.496 319.612H231.812V309.227H259.496V319.612ZM233.189 318.232H258.119V310.534H233.189V318.232Z" fill="#59658B"/>
<path d="M259.496 333.119H231.812V322.734H259.496V333.119ZM233.189 331.74H258.119V324.042H233.189V331.74Z" fill="#59658B"/>
<path d="M259.496 346.627H231.812V336.242H259.496V346.627ZM233.189 345.247H258.119V337.549H233.189V345.247Z" fill="#59658B"/>
<path d="M259.496 360.135H231.812V349.75H259.496V360.135ZM233.189 358.755H258.119V351.057H233.189V358.755Z" fill="#59658B"/>
</g>
<path d="M271.021 298.405H265.948V305.522H271.021V298.405Z" fill="#0C0911"/>
<path d="M278.051 298.405H272.979V305.522H278.051V298.405Z" fill="#0C0911"/>
<path d="M285.153 298.405H280.08V305.522H285.153V298.405Z" fill="#0C0911"/>
<path d="M292.182 298.405H287.109V305.522H292.182V298.405Z" fill="#0C0911"/>
<g opacity="0.2">
<path d="M292.906 319.611H265.223V309.226H292.906V319.611ZM266.6 318.231H291.529V310.533H266.6V318.231Z" fill="#59658B"/>
<path d="M292.906 333.119H265.223V322.734H292.906V333.119ZM266.6 331.739H291.529V324.041H266.6V331.739Z" fill="#59658B"/>
<path d="M292.906 346.627H265.223V336.242H292.906V346.627ZM266.6 345.247H291.529V337.549H266.6V345.247Z" fill="#59658B"/>
<path d="M292.906 360.135H265.223V349.75H292.906V360.135ZM266.6 358.755H291.529V351.057H266.6V358.755Z" fill="#59658B"/>
</g>
<path d="M304.355 298.405H299.282V305.522H304.355V298.405Z" fill="#0C0911"/>
<path d="M311.458 298.405H306.385V305.522H311.458V298.405Z" fill="#0C0911"/>
<path d="M318.487 298.405H313.414V305.522H318.487V298.405Z" fill="#0C0911"/>
<path d="M325.59 298.405H320.517V305.522H325.59V298.405Z" fill="#0C0911"/>
<g opacity="0.2">
<path d="M326.315 319.611H298.631V309.226H326.315V319.611ZM300.008 318.231H324.938V310.533H300.008V318.231Z" fill="#59658B"/>
<path d="M326.315 333.119H298.631V322.734H326.315V333.119ZM300.008 331.739H324.938V324.041H300.008V331.739Z" fill="#59658B"/>
<path d="M326.315 346.627H298.631V336.242H326.315V346.627ZM300.008 345.247H324.938V337.549H300.008V345.247Z" fill="#59658B"/>
<path d="M326.315 360.135H298.631V349.75H326.315V360.135ZM300.008 358.755H324.938V351.057H300.008V358.755Z" fill="#59658B"/>
</g>
<path opacity="0.3" d="M353.564 286.059H77.4512V301.963H353.564V286.059Z" fill="#0C0911"/>
<path d="M497.416 286.059H414.003V364.999H497.416V286.059Z" fill="#CFCFCF"/>
<path d="M496.908 361.731H414.002V362.385H496.908V361.731Z" fill="#CFCFCF"/>
<path d="M496.908 358.101H414.002V358.754H496.908V358.101Z" fill="#CFCFCF"/>
<path d="M496.908 354.47H414.002V355.123H496.908V354.47Z" fill="#CFCFCF"/>
<path d="M496.908 350.766H414.002V351.42H496.908V350.766Z" fill="#CFCFCF"/>
<path d="M496.908 347.135H414.002V347.788H496.908V347.135Z" fill="#CFCFCF"/>
<path d="M496.908 343.503H414.002V344.157H496.908V343.503Z" fill="#CFCFCF"/>
<path d="M496.908 339.873H414.002V340.526H496.908V339.873Z" fill="#CFCFCF"/>
<path d="M496.908 336.241H414.002V336.895H496.908V336.241Z" fill="#CFCFCF"/>
<path d="M496.908 332.61H414.002V333.264H496.908V332.61Z" fill="#CFCFCF"/>
<path d="M496.908 328.979H414.002V329.633H496.908V328.979Z" fill="#CFCFCF"/>
<path d="M496.908 325.348H414.002V326.001H496.908V325.348Z" fill="#CFCFCF"/>
<path d="M496.908 321.644H414.002V322.298H496.908V321.644Z" fill="#CFCFCF"/>
<path d="M496.908 318.013H414.002V318.666H496.908V318.013Z" fill="#CFCFCF"/>
<path d="M496.908 314.382H414.002V315.036H496.908V314.382Z" fill="#CFCFCF"/>
<path d="M496.908 310.75H414.002V311.404H496.908V310.75Z" fill="#CFCFCF"/>
<path d="M496.908 307.119H414.002V307.773H496.908V307.119Z" fill="#CFCFCF"/>
<path d="M496.908 303.489H414.002V304.142H496.908V303.489Z" fill="#CFCFCF"/>
<path d="M496.908 299.858H414.002V300.512H496.908V299.858Z" fill="#CFCFCF"/>
<path d="M496.908 296.226H414.002V296.88H496.908V296.226Z" fill="#CFCFCF"/>
<path d="M496.908 292.595H414.002V293.249H496.908V292.595Z" fill="#CFCFCF"/>
<path d="M496.908 288.892H414.002V289.545H496.908V288.892Z" fill="#CFCFCF"/>
<path d="M480.965 287.439H430.381V335.152H480.965V287.439Z" fill="#F3A402"/>
<path d="M480.892 294.773H430.525V296.153H480.892V294.773Z" fill="#F3A402"/>
<path d="M480.892 302.688H430.525V304.068H480.892V302.688Z" fill="#F3A402"/>
<path d="M480.892 310.605H430.525V311.985H480.892V310.605Z" fill="#F3A402"/>
<path d="M480.892 318.521H430.525V319.9H480.892V318.521Z" fill="#F3A402"/>
<path d="M480.892 326.437H430.525V327.816H480.892V326.437Z" fill="#F3A402"/>
<path d="M414.003 278.506H401.176V365H414.003V278.506Z" fill="#D9CDF9"/>
<path d="M509.737 278.506H401.176V286.059H509.737V278.506Z" fill="#D9CDF9"/>
<path d="M509.737 267.903H401.176V278.506H509.737V267.903Z" fill="#CFCFCF"/>
<path d="M509.737 274.222H401.176V276.11H509.737V274.222Z" fill="#8815AD"/>
<path d="M509.737 267.903H401.176V271.752H509.737V267.903Z" fill="#8815AD"/>
<g opacity="0.2">
<path d="M415.308 271.68H409.365V282.936H415.308V271.68Z" fill="#0C0911"/>
<path d="M437.628 271.68H431.686V282.936H437.628V271.68Z" fill="#0C0911"/>
<path d="M460.022 271.68H454.079V282.936H460.022V271.68Z" fill="#0C0911"/>
<path d="M482.343 271.68H476.4V282.936H482.343V271.68Z" fill="#0C0911"/>
<path d="M504.663 271.68H498.721V282.936H504.663V271.68Z" fill="#0C0911"/>
</g>
<path d="M414.003 335.442H401.176V365H414.003V335.442Z" fill="#716580"/>
<path d="M509.736 278.506H496.909V365H509.736V278.506Z" fill="#D9CDF9"/>
<path d="M509.736 335.442H496.909V365H509.736V335.442Z" fill="#716580"/>
<path d="M479.661 288.746V333.771H431.758V288.746H479.661ZM482.342 286.059H429.004V336.531H482.342V286.059Z" fill="#8815AD"/>
<path d="M413.712 271.68H407.77V280.612H413.712V271.68Z" fill="#8815AD"/>
<path d="M436.106 271.68H430.163V280.612H436.106V271.68Z" fill="#8815AD"/>
<path d="M458.427 271.68H452.484V280.612H458.427V271.68Z" fill="#8815AD"/>
<path d="M480.747 271.68H474.805V280.612H480.747V271.68Z" fill="#8815AD"/>
<path d="M503.141 271.68H497.198V280.612H503.141V271.68Z" fill="#8815AD"/>
<path opacity="0.2" d="M509.737 278.507V276.183V274.512L455.457 231.157L401.177 274.512V276.183V278.507V284.897L455.457 241.542L509.737 284.825V278.507Z" fill="#0C0911"/>
<path d="M517.564 283.445L455.457 233.844L393.423 283.445L388.35 277.054L455.457 223.532L522.565 277.054L517.564 283.445Z" fill="#8815AD"/>
<path opacity="0.2" d="M263.845 131.664L178.112 200.074V210.387L263.845 142.049L325.88 191.578L330.952 185.259L263.845 131.664Z" fill="#0C0911"/>
<path d="M260.512 198.113L302.327 164.707L344.143 198.113H260.512Z" fill="#361F68"/>
<path d="M349.723 201.527H255.004V259.044H349.723V201.527Z" fill="#CFCFCF"/>
<path d="M349.723 205.957H255.004V206.61H349.723V205.957Z" fill="#CFCFCF"/>
<path d="M349.723 208.789H255.004V209.442H349.723V208.789Z" fill="#CFCFCF"/>
<path d="M349.723 211.621H255.004V212.275H349.723V211.621Z" fill="#CFCFCF"/>
<path d="M349.723 214.453H255.004V215.107H349.723V214.453Z" fill="#CFCFCF"/>
<path d="M349.723 217.286H255.004V217.94H349.723V217.286Z" fill="#CFCFCF"/>
<path d="M349.723 220.118H255.004V220.772H349.723V220.118Z" fill="#CFCFCF"/>
<path d="M349.723 222.95H255.004V223.604H349.723V222.95Z" fill="#CFCFCF"/>
<path d="M349.723 225.783H255.004V226.436H349.723V225.783Z" fill="#CFCFCF"/>
<path d="M349.723 228.615H255.004V229.268H349.723V228.615Z" fill="#CFCFCF"/>
<path d="M349.723 231.447H255.004V232.101H349.723V231.447Z" fill="#CFCFCF"/>
<path d="M349.723 234.279H255.004V234.933H349.723V234.279Z" fill="#CFCFCF"/>
<path d="M349.723 237.111H255.004V237.765H349.723V237.111Z" fill="#CFCFCF"/>
<path d="M349.723 239.872H255.004V240.525H349.723V239.872Z" fill="#CFCFCF"/>
<path d="M349.723 242.704H255.004V243.357H349.723V242.704Z" fill="#CFCFCF"/>
<path d="M349.723 245.536H255.004V246.19H349.723V245.536Z" fill="#CFCFCF"/>
<path d="M349.723 248.368H255.004V249.022H349.723V248.368Z" fill="#CFCFCF"/>
<path d="M349.723 251.2H255.004V251.854H349.723V251.2Z" fill="#CFCFCF"/>
<path d="M349.723 254.033H255.004V254.686H349.723V254.033Z" fill="#CFCFCF"/>
<path d="M349.723 256.865H255.004V257.518H349.723V256.865Z" fill="#CFCFCF"/>
<path d="M326.749 209.587H277.904V255.339H326.749V209.587Z" fill="white"/>
<path d="M320.155 215.833H284.572V249.167H320.155V215.833Z" fill="#F3A402"/>
<path d="M302.328 215.833H284.572V249.167H302.328V215.833Z" fill="#F3A402"/>
<path d="M302.328 246.262V245.39H293.921V239.653H302.328V238.854H293.921V233.117H302.328V232.246H293.921V226.581H302.328V225.71H293.921V220.045H302.328V219.174H293.921V215.833H292.979V219.174H284.572V220.045H292.979V225.71H284.572V226.581H292.979V232.246H284.572V233.117H292.979V238.854H284.572V239.653H292.979V245.39H284.572V246.262H292.979V249.167H293.921V246.262H302.328Z" fill="#F3A402"/>
<path d="M303.849 215.833H300.878V249.167H303.849V215.833Z" fill="white"/>
<path d="M349.723 192.812H255.004V201.454H349.723V192.812Z" fill="#8815AD"/>
<path opacity="0.2" d="M349.723 201.527H255.004V203.488H349.723V201.527Z" fill="#0C0911"/>
<path opacity="0.2" d="M281.818 179.014H279.861V192.812H281.818V179.014Z" fill="#0C0911"/>
<path opacity="0.2" d="M324.793 179.014H322.836V192.812H324.793V179.014Z" fill="#0C0911"/>
<path opacity="0.2" d="M303.269 161.003H301.312V192.885H303.269V161.003Z" fill="#0C0911"/>
<path opacity="0.2" d="M302.327 160.205L255.004 197.968V208.353L302.327 170.59L349.65 208.353V197.968L302.327 160.205Z" fill="#0C0911"/>
<g opacity="0.2">
<path d="M285.297 192.812H279.427V207.336H285.297V192.812Z" fill="#0C0911"/>
<path d="M306.748 192.812H300.878V207.336H306.748V192.812Z" fill="#0C0911"/>
<path d="M328.2 192.812H322.33V207.336H328.2V192.812Z" fill="#0C0911"/>
</g>
<path d="M283.774 192.812H277.904V205.521H283.774V192.812Z" fill="#8815AD"/>
<path d="M305.298 192.812H299.428V205.521H305.298V192.812Z" fill="#8815AD"/>
<path d="M326.749 192.812H320.879V205.521H326.749V192.812Z" fill="#8815AD"/>
<path d="M325.88 183.589L263.845 134.061L166.952 211.331L161.879 204.94L263.845 123.676L330.952 177.271L325.88 183.589Z" fill="#8815AD"/>
<path d="M364.433 214.235L302.326 164.707L243.842 211.185L238.77 204.867L302.326 154.322L369.434 207.917L364.433 214.235Z" fill="#8815AD"/>
<path d="M243.843 211.186L255.003 213.873V202.326L243.843 211.186Z" fill="#0C0911"/>
<path d="M364.433 214.236L349.649 213.873V202.471L364.433 214.236Z" fill="#0C0911"/>
<path d="M166.952 211.331L178.113 219.247V202.398L166.952 211.331Z" fill="#0C0911"/>
<path d="M361.969 282.864H160.719V286.132H361.969V282.864Z" fill="#8815AD"/>
<path d="M160.719 282.864H66.5074L64.9131 286.06H160.719V282.864Z" fill="#8815AD"/>
<path opacity="0.3" d="M401.176 317.505L353.562 292.595V286.132H401.176V317.505Z" fill="#0C0911"/>
<path opacity="0.2" d="M166.372 254.541L160.719 282.573H153.617L166.372 254.541Z" fill="#0C0911"/>
</svg>
